<?xml version="1.0" encoding="UTF-8" standalone="no"?>
<!-- Created with Inkscape (http://www.inkscape.org/) -->

<svg
   width="210mm"
   height="297mm"
   viewBox="0 0 210 297"
   version="1.1"
   id="svg1"
   inkscape:version="1.4.2 (ebf0e940d0, 2025-05-08)"
   sodipodi:docname="upsun-ddev-inkscape.svg"
   xmlns:inkscape="http://www.inkscape.org/namespaces/inkscape"
   xmlns:sodipodi="http://sodipodi.sourceforge.net/DTD/sodipodi-0.dtd"
   xmlns="http://www.w3.org/2000/svg"
   xmlns:svg="http://www.w3.org/2000/svg">
  <sodipodi:namedview
     id="namedview1"
     pagecolor="#ffffff"
     bordercolor="#000000"
     borderopacity="0.25"
     inkscape:showpageshadow="2"
     inkscape:pageopacity="0.0"
     inkscape:pagecheckerboard="0"
     inkscape:deskcolor="#d1d1d1"
     inkscape:document-units="mm"
     inkscape:zoom="0.12582815"
     inkscape:cx="170.86796"
     inkscape:cy="3580.2798"
     inkscape:window-width="2560"
     inkscape:window-height="1008"
     inkscape:window-x="1920"
     inkscape:window-y="0"
     inkscape:window-maximized="1"
     inkscape:current-layer="layer1" />
  <defs
     id="defs1" />
  <g
     inkscape:label="Layer 1"
     inkscape:groupmode="layer"
     id="layer1">
    <rect
       style="fill:#181d27;fill-opacity:1;stroke-width:0.28716"
       id="rect1"
       width="1536"
       height="1024"
       x="-912.55945"
       y="568.35168" />
    <g
       id="svg5"
       transform="matrix(1.3378223,0,0,1.3378223,-721.83732,1176.5349)">
      <g
         id="Ebene_2"
         data-name="Ebene 2">
        <g
           id="Ebene_1-2"
           data-name="Ebene 1">
          <g
             id="Ebene_2-2"
             data-name="Ebene 2">
            <g
               id="Ebene_1-2-2"
               data-name="Ebene 1-2">
              <path
                 class="cls-1"
                 d="m 116.77,18.59 h 84.55 l 45.32,45.33 v 71.47 l -45.32,45.32 H 125.2 a 11.84,11.84 0 0 0 -8.72,-4.07 11.33,11.33 0 1 0 8.72,18.59 h 82.22 l 53.74,-53.74 V 57.81 L 207.42,4.07 H 116.77 A 11.82,11.82 0 0 0 108.06,0 a 11.33,11.33 0 0 0 0,22.66 11.82,11.82 0 0 0 8.71,-4.07 z m -8.71,-12.2 a 4.59,4.59 0 0 1 4.64,4.54 V 11 a 4.65,4.65 0 0 1 -9.29,0.43 3.09,3.09 0 0 1 0,-0.43 4.78,4.78 0 0 1 4.65,-4.61 z m 8.71,176.93 a 4.65,4.65 0 1 1 -4.65,4.65 v 0 a 4.58,4.58 0 0 1 4.53,-4.65 z"
                 id="path1-6"
                 style="fill:#02a8e2;fill-rule:evenodd" />
              <path
                 class="cls-1"
                 d="M 195.5,33.12 H 87.43 v 0.29 a 10.58,10.58 0 0 0 -8.14,-3.49 11.34,11.34 0 1 0 9.3,18 H 189.4 l 28.19,28.18 v 47.35 L 189.4,151.64 H 86.85 a 11.84,11.84 0 0 0 -8.72,-4.07 11.33,11.33 0 1 0 8.72,18.59 h 108.36 l 36.61,-36.6 V 69.73 Z M 79.29,36.61 a 4.65,4.65 0 1 1 -4.64,4.66 v 0 c -0.29,-2.63 2.03,-4.66 4.64,-4.66 z M 78.42,154 a 4.65,4.65 0 1 1 -4.65,4.65 v 0 C 73.48,156 75.81,154 78.42,154 Z"
                 id="path2-2"
                 style="fill:#02a8e2;fill-rule:evenodd" />
              <path
                 class="cls-1"
                 d="M 178.65,136.55 H 47.34 a 10.75,10.75 0 0 1 -7.85,3.19 11.33,11.33 0 1 1 0,-22.66 11.59,11.59 0 0 1 9.3,4.94 h 36 L 69.69,106.91 H 20 A 11.82,11.82 0 0 1 11.31,111 11.33,11.33 0 1 1 20,92.41 H 75.81 L 105.73,122 H 177.2 L 188,111.27 v -23 l -10.8,-10.7 h -66.53 l 15.11,15.11 h 29.34 a 11.84,11.84 0 0 1 8.72,-4.07 11.33,11.33 0 1 1 -8.72,18.59 H 119.68 L 90,77.28 H 50.82 a 11.85,11.85 0 0 1 -8.71,4.07 11.33,11.33 0 1 1 8.71,-18.6 H 183.3 l 19.47,19.47 v 35.15 L 183.3,136.55 Z M 163.84,94.71 a 4.65,4.65 0 1 0 4.65,4.65 v 0 c 0.29,-2.36 -2.04,-4.65 -4.65,-4.65 z M 42.4,65.08 a 4.65,4.65 0 1 0 4.65,4.65 4.78,4.78 0 0 0 -4.65,-4.65 z m -2.91,58.68 a 4.65,4.65 0 1 0 4.65,4.65 c 0.29,-2.61 -2.03,-4.65 -4.65,-4.65 z M 11.6,94.71 a 4.65,4.65 0 1 0 0,9.3 4.6,4.6 0 0 0 4.65,-4.53 V 99.36 A 4.78,4.78 0 0 0 11.6,94.71 Z"
                 id="path3-9"
                 style="fill:#02a8e2;fill-rule:evenodd" />
              <path
                 class="cls-2"
                 d="m 323.34,66.82 h 66.24 a 20.7,20.7 0 0 1 20.62,20.63 v 24.4 a 20.7,20.7 0 0 1 -20.62,20.63 H 323.34 Z M 389.87,49.1 h -84.26 v 101.39 h 84.26 a 38.81,38.81 0 0 0 38.64,-38.64 V 87.45 A 38.75,38.75 0 0 0 389.87,49.1 Z M 593,90.64 v 59.56 h 104.83 v -18 H 611 v -23.54 h 72.34 v -18 H 593 Z M 467.73,66.82 H 534 a 20.71,20.71 0 0 1 20.63,20.63 v 24.4 A 20.71,20.71 0 0 1 534,132.48 H 467.73 Z M 534,49.1 H 449.72 V 150.49 H 534 a 38.81,38.81 0 0 0 38.64,-38.64 V 87.45 A 38.57,38.57 0 0 0 534,49.1 Z m 183,0 55.49,95.9 2.91,5.23 h 14.52 l 3.2,-5.23 55.49,-95.9 h -20.92 l -45,77.86 -45,-77.86 z"
                 id="path4-1"
                 style="fill:#e1ded8;fill-rule:evenodd" />
              <path
                 class="cls-1"
                 d="m 611,66.82 h 86.87 V 49.1 H 593 v 17.72 z"
                 id="path5-2"
                 style="fill:#02a8e2;fill-rule:evenodd" />
            </g>
          </g>
        </g>
      </g>
    </g>
    <g
       id="svg7"
       transform="matrix(7.178234,0,0,7.178234,-722.67274,695.05807)">
      <g
         id="upsun_logo">
        <g
           id="Logo">
          <path
             d="m 67.7443,22.5391 c 0,0.9052 -0.1881,1.7036 -0.5695,2.4003 -0.3814,0.6968 -0.8849,1.2409 -1.5206,1.6325 -0.6357,0.3916 -1.368,0.5848 -2.202,0.5848 -0.9307,0 -1.6528,-0.2542 -2.1665,-0.7679 C 60.7721,25.8752 60.5178,25.1073 60.5178,24.08 V 12.485 h -5.5025 v 12.6579 c 0,1.2001 0.2441,2.2834 0.7323,3.2445 0.4882,0.9663 1.2053,1.7393 2.1461,2.3089 0.9408,0.5746 2.0749,0.8645 3.392,0.8645 1.663,0 3.0819,-0.417 4.2566,-1.246 0.9612,-0.6814 1.7291,-1.546 2.3088,-2.5732 v 3.4581 h 5.3907 V 12.485 h -5.5025 v 10.0541 z"
             fill="#d5f800"
             id="path1" />
          <path
             d="m 92.816,13.3139 c -1.2358,-0.7933 -2.6953,-1.19 -4.3837,-1.19 -1.6884,0 -3.2395,0.3967 -4.4397,1.19 -0.8696,0.5747 -1.4901,1.307 -1.8715,2.1868 V 12.4901 H 76.7305 V 38.7212 H 82.233 V 28.1026 c 0.3204,0.89 0.8544,1.6274 1.6121,2.2173 1.0782,0.8341 2.5072,1.246 4.2922,1.246 1.785,0 3.2395,-0.4018 4.5109,-1.2104 1.2714,-0.8086 2.263,-1.9426 2.9699,-3.4124 0.7069,-1.4697 1.0629,-3.1937 1.0629,-5.1719 0,-1.9783 -0.3356,-3.6565 -1.0069,-5.1008 -0.6713,-1.4443 -1.6274,-2.5631 -2.8632,-3.3565 z m -3.0615,12.4545 c -0.8086,0.9306 -1.8613,1.3934 -3.153,1.3934 -1.2917,0 -2.3902,-0.4577 -3.209,-1.3782 -0.8188,-0.9154 -1.2307,-2.2325 -1.2307,-3.9413 0,-1.7087 0.4069,-3.0258 1.2307,-3.9412 0.8188,-0.9154 1.8664,-1.3782 3.1378,-1.3782 1.2714,0 2.3902,0.4526 3.209,1.3578 0.8187,0.9052 1.2307,2.2122 1.2307,3.926 0,1.7139 -0.4018,3.031 -1.2104,3.9617 z"
             fill="#d5f800"
             id="path2" />
          <path
             d="m 109.822,19.8234 -3.377,-0.6967 c -0.905,-0.1933 -1.551,-0.4221 -1.942,-0.6764 -0.392,-0.2543 -0.585,-0.6052 -0.585,-1.0476 0,-0.5137 0.239,-0.9103 0.717,-1.19 0.478,-0.2797 1.205,-0.4221 2.181,-0.4221 1.079,0 1.908,0.1627 2.497,0.4933 0.585,0.3305 0.931,0.8137 1.028,1.4493 h 4.917 c -0.147,-1.7595 -0.956,-3.1377 -2.42,-4.1294 -1.47,-0.9917 -3.438,-1.485 -5.905,-1.485 -2.466,0 -4.439,0.5086 -5.833,1.5206 -1.3931,1.0171 -2.0898,2.4258 -2.0898,4.2362 0,1.4901 0.5238,2.7106 1.5768,3.6515 1.052,0.9408 2.69,1.6477 4.917,2.1104 l 3.011,0.6256 c 0.809,0.1729 1.363,0.3865 1.668,0.6407 0.305,0.2543 0.458,0.6205 0.458,1.0833 0,0.6102 -0.265,1.0832 -0.788,1.4137 -0.524,0.3306 -1.363,0.4933 -2.513,0.4933 -1.271,0 -2.268,-0.2136 -2.99,-0.6407 -0.722,-0.4272 -1.144,-1.0578 -1.266,-1.8868 h -4.918 c 0.1475,1.9325 1.0273,3.448 2.639,4.5516 1.612,1.0984 3.789,1.6528 6.53,1.6528 2.741,0 4.643,-0.5086 6.072,-1.5206 1.429,-1.0171 2.146,-2.4411 2.146,-4.2718 0,-1.4443 -0.483,-2.6954 -1.449,-3.7583 -0.966,-1.0628 -2.39,-1.7901 -4.272,-2.1816 z"
             fill="#d5f800"
             id="path3" />
          <path
             d="m 130.332,22.5391 c 0,0.9052 -0.188,1.7036 -0.57,2.4003 -0.381,0.6968 -0.884,1.2409 -1.52,1.6325 -0.636,0.3916 -1.368,0.5848 -2.202,0.5848 -0.931,0 -1.653,-0.2542 -2.167,-0.7679 -0.513,-0.5136 -0.768,-1.2815 -0.768,-2.3088 V 12.485 h -5.502 v 12.6579 c 0,1.2001 0.244,2.2834 0.732,3.2445 0.488,0.9663 1.205,1.7393 2.146,2.3089 0.941,0.5746 2.075,0.8645 3.392,0.8645 1.663,0 3.082,-0.417 4.257,-1.246 0.961,-0.6814 1.729,-1.546 2.309,-2.5732 v 3.4581 h 5.39 V 12.485 h -5.502 v 10.0541 z"
             fill="#d5f800"
             id="path4" />
          <path
             d="m 156.197,13.8632 c -1.099,-1.1595 -2.69,-1.7444 -4.77,-1.7444 -1.739,0 -3.199,0.4119 -4.384,1.2307 -0.976,0.6713 -1.744,1.5409 -2.329,2.5835 v -3.448 h -5.391 v 18.7096 h 5.503 v -10.054 c 0,-0.9307 0.188,-1.7393 0.569,-2.4208 0.377,-0.6865 0.906,-1.2205 1.577,-1.6121 0.671,-0.3916 1.434,-0.5848 2.293,-0.5848 1.002,0 1.765,0.2543 2.294,0.7679 0.524,0.5136 0.788,1.2866 0.788,2.3088 v 11.595 h 5.503 V 18.5368 c 0,-1.958 -0.549,-3.5141 -1.653,-4.6787 z"
             fill="#d5f800"
             id="path5" />
          <path
             d="M 22.0051,0 C 9.85576,0 0,9.84559 0,22.0051 h 11 c 0.0254,-6.0823 4.9533,-11 11.0203,-11 6.0671,0 11,4.9279 11,11 h 11 C 44.0153,9.85576 34.1697,0 22.0051,0 Z"
             fill="#d5f800"
             id="path6" />
          <path
             d="m 33.0153,22.0051 h -21.995 c 0,4.76 3.031,8.8234 7.2673,10.344 v 0.1881 H 2.7055 C 6.4332,39.3671 13.6902,44 22.0305,44 30.3708,44 37.6126,39.3671 41.3555,32.5372 H 25.748 v -0.1881 c 4.2414,-1.5308 7.2673,-5.584 7.2673,-10.344 z"
             fill="#d5f800"
             id="path7" />
        </g>
      </g>
    </g>
    <text
       xml:space="preserve"
       style="font-weight:bold;font-size:22.5778px;font-family:'Segoe UI';-inkscape-font-specification:'Segoe UI Bold';text-align:start;writing-mode:lr-tb;direction:ltr;text-anchor:start;fill:#ffffff;fill-opacity:1;stroke-width:0.264583"
       x="-136.67781"
       y="1066.0869"
       id="text1"><tspan
         sodipodi:role="line"
         id="tspan1"
         style="fill:#ffffff;stroke-width:0.264583"
         x="-136.67781"
         y="1066.0869" /></text>
    <text
       xml:space="preserve"
       style="font-weight:bold;font-size:141.111px;font-family:'Segoe UI';-inkscape-font-specification:'Segoe UI Bold';text-align:start;writing-mode:lr-tb;direction:ltr;text-anchor:start;fill:#ffffff;fill-opacity:1;stroke-width:0.264583"
       x="-200.67587"
       y="1125.1"
       id="text2"><tspan
         sodipodi:role="line"
         id="tspan2"
         style="font-size:141.111px;stroke-width:0.264583"
         x="-200.67587"
         y="1125.1">×</tspan></text>
  </g>
</svg>
