<svg viewBox="0 0 1200 630" xmlns="http://www.w3.org/2000/svg">
  <defs>
    <!-- Clean gradient background -->
    <linearGradient id="bgGradient" x1="0%" y1="0%" x2="100%" y2="100%">
      <stop offset="0%" style="stop-color:#1e40af"/>
      <stop offset="50%" style="stop-color:#3b82f6"/>
      <stop offset="100%" style="stop-color:#06b6d4"/>
    </linearGradient>
    
    <!-- Shield gradient -->
    <linearGradient id="shieldGrad" x1="0%" y1="0%" x2="100%" y2="100%">
      <stop offset="0%" style="stop-color:#10b981"/>
      <stop offset="100%" style="stop-color:#059669"/>
    </linearGradient>
    
    <!-- Subtle overlay -->
    <linearGradient id="overlay" x1="0%" y1="0%" x2="100%" y2="100%">
      <stop offset="0%" style="stop-color:#ffffff" stop-opacity="0.1"/>
      <stop offset="100%" style="stop-color:#ffffff" stop-opacity="0.05"/>
    </linearGradient>
  </defs>
  
  <!-- Background -->
  <rect width="1200" height="630" fill="url(#bgGradient)"/>
  <rect width="1200" height="630" fill="url(#overlay)"/>
  
  <!-- Elegant backdrop -->
  <rect x="80" y="120" width="1040" height="390" rx="20" fill="#ffffff" opacity="0.08" stroke="#ffffff" stroke-width="1" opacity="0.2"/>
  
  <!-- DDEV Logo -->
  <g transform="translate(140, 220) scale(1.0, 1.0)">
    <path fill="#ffffff" fill-rule="evenodd" d="M116.77,18.59h84.55l45.32,45.33v71.47l-45.32,45.32H125.2a11.84,11.84,0,0,0-8.72-4.07,11.33,11.33,0,1,0,8.72,18.59h82.22l53.74-53.74V57.81L207.42,4.07H116.77A11.82,11.82,0,0,0,108.06,0a11.33,11.33,0,0,0,0,22.66A11.82,11.82,0,0,0,116.77,18.59Zm-8.71-12.2a4.59,4.59,0,0,1,4.64,4.54V11a4.65,4.65,0,0,1-9.29.43,3.09,3.09,0,0,1,0-.43A4.78,4.78,0,0,1,108.06,6.39Zm8.71,176.93a4.65,4.65,0,1,1-4.65,4.65h0a4.58,4.58,0,0,1,4.53-4.65Z"/>
    <path fill="#ffffff" d="M195.5,33.12H87.43v.29a10.58,10.58,0,0,0-10.58,10.58V155.31a10.59,10.59,0,0,0,10.58,10.59H195.5a10.59,10.59,0,0,0,10.59-10.59V43.99A10.58,10.58,0,0,0,195.5,33.12ZM87.43,155.31V43.99H195.5V155.31Z"/>
  </g>
  
  <!-- Security shield -->
  <g transform="translate(620, 315)">
    <circle cx="0" cy="0" r="70" fill="none" stroke="#10b981" stroke-width="2" opacity="0.4"/>
    <path d="M0,-45 C-22,-45 -32,-35 -32,-5 C-32,18 -18,40 0,50 C18,40 32,18 32,-5 C32,-35 22,-45 0,-45 Z" fill="url(#shieldGrad)"/>
    <path d="M-15,0 L-5,12 L15,-15" stroke="#ffffff" stroke-width="4" fill="none" stroke-linecap="round" stroke-linejoin="round"/>
  </g>
  
  <!-- Text elements -->
  <g>
    <!-- Main title -->
    <rect x="450" y="200" width="400" height="55" rx="27" fill="#ffffff" opacity="0.15" stroke="#ffffff" stroke-width="1" opacity="0.3"/>
    <text x="650" y="235" fill="#ffffff" font-family="system-ui, -apple-system, sans-serif" font-size="26" font-weight="700" text-anchor="middle">Enhanced Security</text>
    
    <!-- Subtitle -->
    <rect x="420" y="275" width="460" height="45" rx="22" fill="#ffffff" opacity="0.1" stroke="#ffffff" stroke-width="1" opacity="0.2"/>
    <text x="650" y="305" fill="#ffffff" font-family="system-ui, -apple-system, sans-serif" font-size="20" font-weight="500" text-anchor="middle">Dedicated ddev-hostname Binary</text>
    
    <!-- Version -->
    <rect x="580" y="340" width="140" height="30" rx="15" fill="#10b981" opacity="0.3"/>
    <text x="650" y="360" fill="#ffffff" font-family="system-ui, -apple-system, sans-serif" font-size="14" font-weight="600" text-anchor="middle">DDEV v1.24.7+</text>
  </g>
  
  <!-- Floating elements -->
  <g opacity="0.6">
    <rect x="800" y="180" width="120" height="30" rx="15" fill="#ffffff" opacity="0.2" stroke="#ffffff" stroke-width="1" opacity="0.3"/>
    <text x="860" y="200" fill="#ffffff" font-family="Monaco, monospace" font-size="12" text-anchor="middle">*.ddev.site</text>
    
    <rect x="750" y="420" width="140" height="30" rx="15" fill="#ffffff" opacity="0.2" stroke="#ffffff" stroke-width="1" opacity="0.3"/>
    <text x="820" y="440" fill="#ffffff" font-family="Monaco, monospace" font-size="12" text-anchor="middle">ddev-hostname</text>
    
    <rect x="350" y="450" width="100" height="30" rx="15" fill="#ffffff" opacity="0.2" stroke="#ffffff" stroke-width="1" opacity="0.3"/>
    <text x="400" y="470" fill="#ffffff" font-family="Monaco, monospace" font-size="12" text-anchor="middle">127.0.0.1</text>
  </g>
  
  <!-- Simple connecting lines -->
  <g stroke="#ffffff" stroke-width="1" opacity="0.2" fill="none">
    <path d="M550,315 Q580,290 620,315"/>
    <path d="M690,315 Q720,290 750,320"/>
  </g>
  
  <!-- Corner decorations -->
  <rect x="0" y="0" width="60" height="4" fill="#ffffff" opacity="0.3"/>
  <rect x="0" y="0" width="4" height="60" fill="#ffffff" opacity="0.3"/>
  <rect x="1140" y="626" width="60" height="4" fill="#ffffff" opacity="0.3"/>
  <rect x="1196" y="570" width="4" height="60" fill="#ffffff" opacity="0.3"/>
  
  <!-- Simple ambient dots -->
  <circle cx="250" cy="150" r="2" fill="#ffffff" opacity="0.5"/>
  <circle cx="950" cy="120" r="1.5" fill="#ffffff" opacity="0.4"/>
  <circle cx="200" cy="480" r="1.5" fill="#ffffff" opacity="0.4"/>
  <circle cx="1000" cy="500" r="2" fill="#ffffff" opacity="0.5"/>
</svg>