<svg height="900" viewBox="0 0 1600 900" width="1600" xmlns="http://www.w3.org/2000/svg" xmlns:xlink="http://www.w3.org/1999/xlink"><linearGradient id="a" gradientUnits="userSpaceOnUse" x1="0" x2="1600" y1="0" y2="900"><stop offset="0" stop-color="#08504d"/><stop offset=".38" stop-color="#0b6460"/><stop offset=".66" stop-color="#0e7e78"/><stop offset="1" stop-color="#129b91"/></linearGradient><radialGradient id="b" cx="480" cy="108" gradientUnits="userSpaceOnUse" r="760"><stop offset="0" stop-color="#fff" stop-opacity=".12"/><stop offset="1" stop-color="#fff" stop-opacity="0"/></radialGradient><radialGradient id="c" cx="1220" cy="450" gradientUnits="userSpaceOnUse" r="430"><stop offset="0" stop-color="#3ae8d2" stop-opacity=".22"/><stop offset="1" stop-color="#3ae8d2" stop-opacity="0"/></radialGradient><linearGradient id="d" gradientUnits="userSpaceOnUse" x1="0" x2="520" y1="0" y2="0"><stop offset="0" stop-color="#3ae8d2" stop-opacity="0"/><stop offset="1" stop-color="#3ae8d2" stop-opacity=".45"/></linearGradient><linearGradient id="e" gradientUnits="userSpaceOnUse" x1="0" x2="680" y1="0" y2="0"><stop offset="0" stop-color="#fff" stop-opacity="0"/><stop offset="1" stop-color="#fff" stop-opacity=".35"/></linearGradient><path d="m0 0h1600v900h-1600z" fill="url(#a)"/><path d="m0 0h1600v900h-1600z" fill="url(#b)"/><path d="m0 0h1600v900h-1600z" fill="url(#c)"/><svg fill="#fff" height="763" opacity=".06" viewBox="0 0 261.16 199.3" width="1000" x="820" y="69"><path d="m116.77 18.59h84.55l45.32 45.33v71.47l-45.32 45.32h-76.12a11.84 11.84 0 0 0 -8.72-4.07 11.33 11.33 0 1 0 8.72 18.59h82.22l53.74-53.74v-83.68l-53.74-53.74h-90.65a11.82 11.82 0 0 0 -8.71-4.07 11.33 11.33 0 0 0 0 22.66 11.82 11.82 0 0 0 8.71-4.07zm-8.71-12.2a4.59 4.59 0 0 1 4.64 4.54v.07a4.65 4.65 0 0 1 -9.29.43 3.09 3.09 0 0 1 0-.43 4.78 4.78 0 0 1 4.65-4.61zm8.71 176.93a4.65 4.65 0 1 1 -4.65 4.65 4.58 4.58 0 0 1 4.53-4.65z"/><path d="m195.5 33.12h-108.07v.29a10.58 10.58 0 0 0 -8.14-3.49 11.34 11.34 0 1 0 9.3 18h100.81l28.19 28.18v47.35l-28.19 28.19h-102.55a11.84 11.84 0 0 0 -8.72-4.07 11.33 11.33 0 1 0 8.72 18.59h108.36l36.61-36.6v-59.83zm-116.21 3.49a4.65 4.65 0 1 1 -4.64 4.66c-.29-2.63 2.03-4.66 4.64-4.66zm-.87 117.39a4.65 4.65 0 1 1 -4.65 4.65c-.29-2.65 2.04-4.65 4.65-4.65z"/><path d="m178.65 136.55h-131.31a10.75 10.75 0 0 1 -7.85 3.19 11.33 11.33 0 1 1 0-22.66 11.59 11.59 0 0 1 9.3 4.94h36l-15.1-15.11h-49.69a11.82 11.82 0 0 1 -8.69 4.09 11.33 11.33 0 1 1 8.69-18.59h55.81l29.92 29.59h71.47l10.8-10.73v-23l-10.8-10.7h-66.53l15.11 15.11h29.34a11.84 11.84 0 0 1 8.72-4.07 11.33 11.33 0 1 1 -8.72 18.59h-35.44l-29.68-29.92h-39.18a11.85 11.85 0 0 1 -8.71 4.07 11.33 11.33 0 1 1 8.71-18.6h132.48l19.47 19.47v35.15l-19.47 19.18zm-14.81-41.84a4.65 4.65 0 1 0 4.65 4.65c.29-2.36-2.04-4.65-4.65-4.65zm-121.44-29.63a4.65 4.65 0 1 0 4.65 4.65 4.78 4.78 0 0 0 -4.65-4.65zm-2.91 58.68a4.65 4.65 0 1 0 4.65 4.65c.29-2.61-2.03-4.65-4.65-4.65zm-27.89-29.05a4.65 4.65 0 1 0 0 9.3 4.6 4.6 0 0 0 4.65-4.53v-.12a4.78 4.78 0 0 0 -4.65-4.65z"/></svg><rect fill="url(#d)" height="4" opacity=".6" rx="2" width="520" y="186"/><rect fill="url(#e)" height="4" opacity=".5" rx="2" width="680" y="710"/><svg fill="#fff" height="155" viewBox="0 0 848.61 199.3" width="660" x="470" y="383.5"><path d="m116.77 18.59h84.55l45.32 45.33v71.47l-45.32 45.32h-76.12a11.84 11.84 0 0 0 -8.72-4.07 11.33 11.33 0 1 0 8.72 18.59h82.22l53.74-53.74v-83.68l-53.74-53.74h-90.65a11.82 11.82 0 0 0 -8.71-4.07 11.33 11.33 0 0 0 0 22.66 11.82 11.82 0 0 0 8.71-4.07zm-8.71-12.2a4.59 4.59 0 0 1 4.64 4.54v.07a4.65 4.65 0 0 1 -9.29.43 3.09 3.09 0 0 1 0-.43 4.78 4.78 0 0 1 4.65-4.61zm8.71 176.93a4.65 4.65 0 1 1 -4.65 4.65 4.58 4.58 0 0 1 4.53-4.65z"/><path d="m195.5 33.12h-108.07v.29a10.58 10.58 0 0 0 -8.14-3.49 11.34 11.34 0 1 0 9.3 18h100.81l28.19 28.18v47.35l-28.19 28.19h-102.55a11.84 11.84 0 0 0 -8.72-4.07 11.33 11.33 0 1 0 8.72 18.59h108.36l36.61-36.6v-59.83zm-116.21 3.49a4.65 4.65 0 1 1 -4.64 4.66c-.29-2.63 2.03-4.66 4.64-4.66zm-.87 117.39a4.65 4.65 0 1 1 -4.65 4.65c-.29-2.65 2.04-4.65 4.65-4.65z"/><path d="m178.65 136.55h-131.31a10.75 10.75 0 0 1 -7.85 3.19 11.33 11.33 0 1 1 0-22.66 11.59 11.59 0 0 1 9.3 4.94h36l-15.1-15.11h-49.69a11.82 11.82 0 0 1 -8.69 4.09 11.33 11.33 0 1 1 8.69-18.59h55.81l29.92 29.59h71.47l10.8-10.73v-23l-10.8-10.7h-66.53l15.11 15.11h29.34a11.84 11.84 0 0 1 8.72-4.07 11.33 11.33 0 1 1 -8.72 18.59h-35.44l-29.68-29.92h-39.18a11.85 11.85 0 0 1 -8.71 4.07 11.33 11.33 0 1 1 8.71-18.6h132.48l19.47 19.47v35.15l-19.47 19.18zm-14.81-41.84a4.65 4.65 0 1 0 4.65 4.65c.29-2.36-2.04-4.65-4.65-4.65zm-121.44-29.63a4.65 4.65 0 1 0 4.65 4.65 4.78 4.78 0 0 0 -4.65-4.65zm-2.91 58.68a4.65 4.65 0 1 0 4.65 4.65c.29-2.61-2.03-4.65-4.65-4.65zm-27.89-29.05a4.65 4.65 0 1 0 0 9.3 4.6 4.6 0 0 0 4.65-4.53v-.12a4.78 4.78 0 0 0 -4.65-4.65z"/><path d="m323.34 66.82h66.24a20.7 20.7 0 0 1 20.62 20.63v24.4a20.7 20.7 0 0 1 -20.62 20.63h-66.24zm66.53-17.72h-84.26v101.39h84.26a38.81 38.81 0 0 0 38.64-38.64v-24.4a38.75 38.75 0 0 0 -38.64-38.35zm203.13 41.54v59.56h104.83v-18h-86.83v-23.54h72.34v-18h-90.34zm-125.27-23.82h66.27a20.71 20.71 0 0 1 20.63 20.63v24.4a20.71 20.71 0 0 1 -20.63 20.63h-66.27zm66.27-17.72h-84.28v101.39h84.28a38.81 38.81 0 0 0 38.64-38.64v-24.4a38.57 38.57 0 0 0 -38.64-38.35zm183 0 55.49 95.9 2.91 5.23h14.52l3.2-5.23 55.49-95.9h-20.92l-45 77.86-45-77.86z"/><path d="m611 66.82h86.87v-17.72h-104.87v17.72z"/></svg><g fill="#5cead8"><text style="text-anchor:middle;dominant-baseline:middle;font-family:&#39;Space Grotesk&#39;, system-ui, sans-serif;font-size:22;font-weight:600;letter-spacing:7" x="800" y="340">JUNE 2026 · NEWSLETTER</text><rect height="5" rx="2.5" width="96" x="752" y="568.5"/></g></svg>