<svg fill="none" height="300" viewBox="0 0 1327 300" width="1327" xmlns="http://www.w3.org/2000/svg" xmlns:xlink="http://www.w3.org/1999/xlink"><clipPath id="a"><path d="m0 0h1327v300h-1327z"/></clipPath><clipPath id="b"><path d="m0 0h1326.32v300h-1326.32z"/></clipPath><g clip-path="url(#a)"><path d="m0 0h1327v300h-1327z" fill="#fff"/><g clip-path="url(#b)"><path d="m1230 76.57v29.43h31.57v114.33h33.17v-114.33h31.57v-29.43zm-1230 223.43h300v-300h-300zm15.49-284.51h269v269h-269zm367 204.84h33.16v-143.76h-33.15zm677.76-49.59-55.55-94.17h-34.33v143.76h32.54v-93l56.37 93h33.52v-143.76h-32.54zm-944.55 22.67v-118.13h-25.39s-11.31 10.58-34.53 12.94v20.07h26.92v85.12h-26.92v28.21h60l20.54-28.21zm101.43-85.59-23.51 32.29-23.51-32.29h-35.83l41.42 56.9-41.42 56.9h35.83l23.51-32.29 23.51 32.29h35.87l-41.43-56.9 41.43-56.9zm324.87 62.92-55.54-94.17h-34.35v143.76h32.54v-93l56.38 93h33.52v-143.76h-32.55zm620.41-8.53h36v-29.21h-36v-27h42.23v-29.43h-75.4v143.76h77.07v-29.4h-43.9zm-251-3.84 1.18-.6c12.27-6.71 19.6-20.75 19.6-37.54 0-29-16.79-43.66-49.93-43.66h-46.32v143.76h33.17v-54.15h13l26.13 54.15h36.55c-31.09-58-32.57-60.68-32.63-60.8zm-30.4-19.5h-11.9v-34.15h10.28c12.68 0 18.85 5.48 18.85 16.76 0 10.73-6.58 17.39-17.18 17.39zm-121.66 23.34h36v-29.21h-36v-27h42.23v-29.43h-75.39v143.76h77.07v-29.4h-43.91zm-157.35-56.21h31.56v114.33h33.17v-114.33h31.57v-29.43h-96.3z" fill="#e5322d"/></g></g></svg>