<svg fill="none" height="42" viewBox="0 0 185 42" width="185" xmlns="http://www.w3.org/2000/svg" xmlns:xlink="http://www.w3.org/1999/xlink"><clipPath id="a"><path d="m0 0h185v42h-185z"/></clipPath><clipPath id="b"><path d="m0 0h185v41.8451h-185z"/></clipPath><g clip-path="url(#a)"><g clip-path="url(#b)"><path d="m171.565 10.6803v4.105h4.403v15.9471h4.627v-15.9471h4.404v-4.105zm-171.565 31.1648h41.8451v-41.8451h-41.8451zm2.1606-39.6845h37.5211v37.5211h-37.5211zm51.1905 28.5718h4.6253v-20.0521h-4.6239zm94.5369-6.917-7.749-13.1351h-4.788v20.0521h4.539v-12.9719l7.862 12.9719h4.676v-20.0521h-4.539zm-131.7497 3.1621v-16.4772h-3.5415s-1.5776 1.4758-4.8164 1.805v2.7994h3.7549v11.8728h-3.7549v3.9349h8.369l2.865-3.9349zm14.1478-11.9384-3.2793 4.504-3.2792-4.504h-4.9977l5.7774 7.9367-5.7774 7.9366h4.9977l3.2792-4.504 3.2793 4.504h5.0033l-5.7788-7.9366 5.7788-7.9367zm45.3141 8.7763-7.747-13.1351h-4.7912v20.0521h4.5388v-12.9719l7.8641 12.9719h4.6755v-20.0521h-4.5402zm86.5368-1.1898h5.022v-4.0743h-5.022v-3.766h5.891v-4.105h-10.517v20.0521h10.75v-4.1008h-6.124zm-35.01-.5356.164-.0837c1.712-.9359 2.734-2.8942 2.734-5.2362 0-4.045-2.342-6.0898-6.964-6.0898h-6.461v20.0521h4.627v-7.553h1.813l3.645 7.553h5.098c-4.337-8.09-4.543-8.4638-4.552-8.4806zm-4.24-2.7199h-1.66v-4.7634h1.434c1.768 0 2.629.7644 2.629 2.3378 0 1.4966-.918 2.4256-2.396 2.4256zm-16.97 3.2555h5.021v-4.0743h-5.021v-3.766h5.89v-4.105h-10.515v20.0521h10.75v-4.1008h-6.125zm-21.9478-7.8403h4.4021v15.9471h4.6267v-15.9471h4.4035v-4.105h-13.4323z" fill="#e5322d"/></g></g></svg>