<?xml version="1.0" encoding="utf-8"?>
<!-- Generator: Adobe Illustrator 27.1.0, SVG Export Plug-In . SVG Version: 6.00 Build 0)  -->
<svg version="1.1" id="Ebene_1" xmlns="http://www.w3.org/2000/svg" xmlns:xlink="http://www.w3.org/1999/xlink" x="0px" y="0px"
	 viewBox="0 0 900.1 250.9" style="enable-background:new 0 0 900.1 250.9;" xml:space="preserve">
<style type="text/css">
	.st0{fill:#FFFFFF;}
	.st1{fill:url(#Pfad_183673_00000104672439624619310230000007240382759894219946_);}
</style>
<path class="st0" d="M330.4,160.4c0,6.2-1.3,11.8-4,16.9c-2.6,5.1-6.2,9.4-10.7,13c-4.5,3.6-9.7,6.4-15.6,8.3
	c-5.9,1.9-12.2,2.9-18.9,2.9c-6.8,0-13.2-1.1-19.2-3.2s-11.2-5-15.5-8.8c-4.4-3.7-7.8-8.2-10.3-13.3c-2.5-5.1-3.8-10.7-3.8-16.8
	c0-4,0.7-7.7,2.1-11.2s3.3-6.6,5.5-9.4c2.3-2.8,4.8-5.2,7.6-7.2c2.8-2.1,5.7-3.7,8.5-5c-5.3-2.3-9.8-5.8-13.5-10.6
	c-3.7-4.8-5.6-10.2-5.6-16.2c0-5.9,1.4-11.2,4.1-15.7c2.7-4.6,6.2-8.4,10.4-11.6c4.2-3.2,9-5.5,14.3-7.1c5.3-1.6,10.5-2.4,15.6-2.4
	s10.4,0.8,15.7,2.4c5.3,1.6,10.2,4,14.5,7s7.8,6.9,10.5,11.5c2.7,4.6,4,9.8,4,15.7c0,6-1.9,11.5-5.7,16.3
	c-3.8,4.8-8.4,8.4-13.8,10.7c3.1,1.4,6.1,3.2,9,5.3s5.4,4.6,7.6,7.5c2.2,2.9,3.9,6.1,5.2,9.6S330.4,156.3,330.4,160.4L330.4,160.4z
	 M309,159.1c0-3.7-0.8-7-2.4-9.9c-1.6-2.9-3.7-5.4-6.4-7.4c-2.6-2.1-5.6-3.6-8.9-4.6c-3.3-1-6.6-1.5-9.9-1.5
	c-3.5,0-6.9,0.5-10.1,1.6c-3.3,1.1-6.2,2.7-8.7,4.7s-4.5,4.5-6.1,7.4c-1.5,2.9-2.3,6.1-2.3,9.7s0.8,6.9,2.4,9.7
	c1.6,2.9,3.7,5.3,6.3,7.3c2.6,2,5.5,3.5,8.8,4.6c3.3,1.1,6.6,1.6,9.9,1.6c3.5,0,6.9-0.6,10.1-1.7c3.3-1.2,6.2-2.8,8.8-4.8
	s4.6-4.5,6.2-7.3C308.2,165.7,309,162.5,309,159.1L309,159.1z M258.5,100.6c0,3.1,0.7,5.8,2.1,8.1c1.4,2.3,3.2,4.2,5.4,5.8
	c2.2,1.5,4.6,2.7,7.3,3.6s5.4,1.3,8.1,1.3s5.4-0.4,8.2-1.3s5.2-2.1,7.4-3.7s4-3.6,5.4-6c1.4-2.4,2.1-5.1,2.1-8.2
	c0-2.8-0.6-5.4-1.9-7.6c-1.3-2.2-3-4.2-5.1-5.8s-4.6-2.8-7.3-3.7c-2.8-0.8-5.7-1.3-8.8-1.3s-6,0.5-8.8,1.4c-2.8,0.9-5.2,2.2-7.3,3.8
	c-2.1,1.6-3.8,3.6-5,5.9C259.1,95.2,258.5,97.8,258.5,100.6L258.5,100.6z M510.3,200h-21.2v-56.5c0-9.4-1.5-16.3-4.6-20.6
	c-3.1-4.4-7.6-6.6-13.5-6.6c-6,0-11.5,2.2-16.5,6.7c-4.9,4.4-8.5,10.2-10.7,17.3V200h-21.2v-56.5c0-9.5-1.5-16.4-4.6-20.7
	c-3.1-4.3-7.5-6.5-13.3-6.5c-6,0-11.6,2.2-16.6,6.6c-5,4.4-8.6,10.1-10.8,17.2v60h-21.2V99h19.3v20.3c4-7.1,9.2-12.5,15.7-16.3
	c6.5-3.8,13.9-5.7,22.3-5.7s15,2.2,19.8,6.6c4.8,4.4,7.8,9.8,9,16.4c4.3-7.5,9.6-13.2,16-17.1c6.4-3.9,13.8-5.9,22-5.9
	c5.9,0,10.8,1.1,14.8,3.4c3.9,2.3,7,5.2,9.4,9c2.3,3.7,3.9,8.1,4.8,13c0.9,5,1.4,10.2,1.4,15.7L510.3,200L510.3,200z M539.6,223.7
	c1.9,0.4,3.8,0.7,5.7,1c1.9,0.3,3.4,0.4,4.5,0.4c1.7,0,3.1-0.4,4.3-1.1c1.2-0.7,2.5-2,3.8-3.8s2.6-4.3,4-7.6
	c1.4-3.3,2.9-7.5,4.7-12.6L525.2,99H547l31.3,82.2L606,99h20.1l-45.7,124.3c-2.1,5.8-5.6,10.6-10.7,14.6s-11.6,5.9-19.6,5.9
	c-1.5,0-3.2-0.1-4.8-0.3c-1.7-0.2-3.5-0.6-5.6-1.3L539.6,223.7L539.6,223.7z M645.6,59.1h21.2v111.7c0,3.7,1,6.7,2.9,8.8
	c1.9,2.1,4.6,3.2,8.1,3.2c1.4,0,3.1-0.3,4.9-0.8c1.9-0.5,3.6-1.1,5.3-1.7l3.1,16.6c-3.1,1.4-6.8,2.5-11,3.4c-4.3,0.8-8,1.3-11.4,1.3
	c-7.3,0-13-2-17.1-6c-4.1-4-6.1-9.6-6.1-17V59.1z M752.9,201.9c-7.8,0-15-1.4-21.4-4.2c-6.4-2.8-11.9-6.5-16.5-11.3
	c-4.6-4.8-8.1-10.3-10.6-16.6s-3.8-13-3.8-20.1s1.3-13.8,3.8-20.2c2.5-6.4,6-12,10.6-16.8c4.6-4.8,10.1-8.6,16.5-11.4
	c6.4-2.8,13.6-4.2,21.6-4.2c7.8,0,15,1.4,21.3,4.2c6.4,2.8,11.8,6.6,16.3,11.3c4.5,4.7,7.9,10.2,10.3,16.4
	c2.4,6.2,3.6,12.8,3.6,19.6c0,1.5-0.1,3-0.2,4.3c-0.1,1.4-0.3,2.5-0.4,3.4h-80.9c0.4,4.5,1.5,8.6,3.2,12.2c1.7,3.6,4,6.7,6.8,9.4
	c2.8,2.6,5.9,4.7,9.5,6.1s7.2,2.1,11.1,2.1c2.8,0,5.6-0.4,8.4-1.1c2.8-0.7,5.3-1.7,7.6-3.1c2.3-1.3,4.4-3,6.2-4.9
	c1.8-1.9,3.2-4.1,4.2-6.4l18.1,5.2c-3.5,7.6-9.2,13.8-17.3,18.6C772.9,199.5,763.6,201.9,752.9,201.9L752.9,201.9z M783.6,141.9
	c-0.4-4.2-1.4-8.2-3.2-11.8c-1.7-3.6-4-6.7-6.7-9.2c-2.7-2.5-5.9-4.5-9.5-5.9c-3.6-1.4-7.4-2.1-11.4-2.1s-7.8,0.7-11.3,2.1
	c-3.5,1.4-6.7,3.4-9.4,5.9c-2.7,2.5-4.9,5.6-6.6,9.2c-1.7,3.6-2.7,7.5-3.1,11.8H783.6z M816.6,186.6l60.6-72.6h-58.5V99h80.9v13.3
	l-60.2,72.6h60.8V200h-83.6L816.6,186.6L816.6,186.6z"/>
<linearGradient id="Pfad_183673_00000088819324297002765950000004896715669401838760_" gradientUnits="userSpaceOnUse" x1="86.0465" y1="1.146" x2="86.0465" y2="252" gradientTransform="matrix(1 0 0 -1 0 252)">
	<stop  offset="0.1" style="stop-color:#003F8A"/>
	<stop  offset="0.9" style="stop-color:#009BD5"/>
</linearGradient>
<path id="Pfad_183673" style="fill:url(#Pfad_183673_00000088819324297002765950000004896715669401838760_);" d="M150.2,132.8
	c-1.8-2.8-1.9-6.4-0.2-9.2c0,0,10-18.5,14.6-27.8c-27.3,32.2-45,19-45,19S46.8,74.4,28.8,57.9C3.5,34.3,24.2,0,24.2,0
	s-52.9,50.2-2.3,118c1.8,2.8,1.9,6.4,0.2,9.2c0,0-10,18.5-14.6,27.8c30-31.7,45.9-19.8,45.9-19.8s71.9,41.1,89.8,57.7
	c25.3,21.6,4.6,57.9,4.6,57.9S200.8,200.7,150.2,132.8L150.2,132.8z"/>
</svg>
