<?xml version="1.0" encoding="utf-8"?>
<!-- Generator: Adobe Illustrator 27.1.0, SVG Export Plug-In . SVG Version: 6.00 Build 0)  -->
<svg version="1.1" id="Ebene_1" xmlns="http://www.w3.org/2000/svg" xmlns:xlink="http://www.w3.org/1999/xlink" x="0px" y="0px"
     viewBox="0 0 205 252" style="enable-background:new 0 0 205 252;" xml:space="preserve">
<style type="text/css">
	.st1{fill:url(#Pfad_183673_00000104672439624619310230000007240382759894219946_);}
</style>
  <linearGradient id="Pfad_183673_00000088819324297002765950000004896715669401838760_" gradientUnits="userSpaceOnUse" x1="86.0465" y1="1.146" x2="86.0465" y2="252" gradientTransform="matrix(1 0 0 -1 0 252)">
	<stop  offset="0.1" style="stop-color:#003F8A"/>
    <stop  offset="0.9" style="stop-color:#009BD5"/>
</linearGradient>
  <path id="Pfad_183673" style="fill:url(#Pfad_183673_00000088819324297002765950000004896715669401838760_);" d="M150.2,132.8
	c-1.8-2.8-1.9-6.4-0.2-9.2c0,0,10-18.5,14.6-27.8c-27.3,32.2-45,19-45,19S46.8,74.4,28.8,57.9C3.5,34.3,24.2,0,24.2,0
	s-52.9,50.2-2.3,118c1.8,2.8,1.9,6.4,0.2,9.2c0,0-10,18.5-14.6,27.8c30-31.7,45.9-19.8,45.9-19.8s71.9,41.1,89.8,57.7
	c25.3,21.6,4.6,57.9,4.6,57.9S200.8,200.7,150.2,132.8L150.2,132.8z"/>
</svg>
