<?xml version="1.0" encoding="UTF-8"?>
<svg id="Layer_2" data-name="Layer 2" xmlns="http://www.w3.org/2000/svg" viewBox="0 0 169.99 46">
  <defs>
    <style>
      .cls-1 {
        fill: #fff;
      }
    </style>
  </defs>
  <g id="Layer_1-2" data-name="Layer 1">
    <g>
      <path class="cls-1" d="m35.49,3.68C31.77,1.27,27.42,0,22.98,0c-1.25,0-2.49.1-3.72.3l5.51,9.55,10.72-6.17Z"/>
      <path class="cls-1" d="m12.34,43.39c3.29,1.72,6.94,2.61,10.65,2.61,3.71,0,7.37-.89,10.66-2.6,3.29-1.72,6.12-4.2,8.24-7.25H4.11c2.12,3.04,4.94,5.53,8.22,7.24Z"/>
      <path class="cls-1" d="m40.32,7.85l-12.5,7.21,8.69,15.04h8.4c1.23-3.79,1.46-7.83.65-11.73-.8-3.9-2.61-7.53-5.24-10.52Z"/>
      <polygon class="cls-1" points="22.59 18.07 1.74 30.1 29.54 30.1 22.59 18.07"/>
      <path class="cls-1" d="m13.38,2.11c-3.99,1.84-7.38,4.79-9.75,8.49C1.26,14.3,0,18.61,0,23,0,23.38,0,23.76.04,24.14l19.55-11.26L13.38,2.11Z"/>
      <path class="cls-1" d="m67.97,20.6h1.71l1.02-1.88h6.25l1.04,1.88h1.7l-5.87-10.72-5.86,10.72Zm3.56-3.38l2.3-4.22,2.32,4.22h-4.61Z"/>
      <polygon class="cls-1" points="85.65 20.6 87.15 20.6 87.15 17.22 91.66 17.22 91.66 15.72 87.15 15.72 87.15 11.59 93.17 11.59 93.17 10.08 85.65 10.08 85.65 20.6"/>
      <polygon class="cls-1" points="99.64 20.6 101.14 20.6 101.14 17.22 105.64 17.22 105.64 15.72 101.14 15.72 101.14 11.59 107.15 11.59 107.15 10.08 99.64 10.08 99.64 20.6"/>
      <rect class="cls-1" x="113.61" y="10.08" width="1.51" height="10.52"/>
      <polygon class="cls-1" points="130.01 17.18 122.55 10.08 122.47 10.08 122.47 20.6 123.99 20.6 123.99 13.51 131.41 20.6 131.51 20.6 131.51 10.08 130.01 10.08 130.01 17.18"/>
      <rect class="cls-1" x="138.85" y="10.08" width="1.51" height="10.52"/>
      <polygon class="cls-1" points="146.67 11.59 150.43 11.59 150.43 20.6 151.93 20.6 151.93 11.59 155.68 11.59 155.68 10.08 146.67 10.08 146.67 11.59"/>
      <polygon class="cls-1" points="168.22 10.08 165.01 15.2 161.8 10.08 160.03 10.08 164.26 16.81 164.26 20.6 165.77 20.6 165.77 16.83 169.99 10.08 168.22 10.08"/>
      <path class="cls-1" d="m76.38,30.55c.46-.54.71-1.23.7-1.94,0-.8-.32-1.56-.88-2.12-.56-.56-1.33-.88-2.13-.88h-5.26v10.51h6.03c.39-.01.78-.09,1.15-.24.36-.15.69-.37.97-.66.28-.27.51-.6.66-.96.15-.36.23-.75.22-1.15,0-.52-.13-1.04-.39-1.48-.26-.45-.62-.82-1.06-1.08Zm-6.06-3.44h3.76c.4,0,.78.16,1.07.44s.44.67.44,1.06-.16.78-.44,1.06-.67.44-1.07.44h-3.76v-3.01Zm5.98,6.3c-.06.29-.2.56-.41.77-.14.14-.3.26-.48.33-.18.08-.38.11-.58.1h-4.51v-3h4.51c.3,0,.59.09.84.25.25.16.44.4.55.67.11.27.14.58.09.87Z"/>
      <path class="cls-1" d="m91.22,31.36c.36-.57.56-1.22.57-1.89.02-.67-.14-1.33-.47-1.92-.32-.59-.8-1.08-1.38-1.42-.58-.34-1.24-.52-1.91-.52h-3.76v10.51l1.51.03v-3h2.34l1.98,3h1.8l-2.23-3.38c.64-.32,1.17-.8,1.54-1.41Zm-3.18.25h-2.25v-4.51h2.25c.3,0,.59.05.87.17.27.11.52.28.73.49.31.32.53.72.61,1.16.09.44.04.89-.13,1.3-.17.41-.46.76-.83,1.01-.37.25-.81.38-1.25.38Z"/>
      <rect class="cls-1" x="98.76" y="25.61" width="1.51" height="10.51"/>
      <path class="cls-1" d="m115.11,27.15c-.48-.48-1.06-.87-1.69-1.13-.64-.27-1.34-.42-2.03-.42h-3.76v10.52l3.76.02c.7,0,1.39-.14,2.03-.42.63-.26,1.21-.64,1.69-1.13.48-.48.87-1.06,1.13-1.69.28-.64.42-1.34.42-2.04s-.14-1.4-.42-2.04c-.26-.63-.64-1.21-1.13-1.69Zm-1.17,6.32c-.67.7-1.58,1.11-2.55,1.16h-2.25v-7.51h2.25c.97.04,1.88.46,2.55,1.16.67.7,1.04,1.63,1.04,2.6s-.37,1.9-1.04,2.6Z"/>
      <path class="cls-1" d="m123.94,28.15c.37-.35.8-.62,1.28-.8.47-.18.98-.26,1.49-.24.59,0,1.17.13,1.7.4.52.26.96.64,1.31,1.1l1.19-.91c-.48-.65-1.11-1.17-1.84-1.53-.73-.38-1.54-.57-2.36-.56-.7,0-1.39.14-2.03.42-.63.26-1.2.65-1.68,1.13-.74.74-1.23,1.68-1.43,2.71-.2,1.02-.09,2.09.31,3.05.25.63.62,1.21,1.09,1.7.48.48,1.05.86,1.68,1.13.69.29,1.44.43,2.19.41.75-.02,1.49-.2,2.17-.53.7-.35,1.32-.85,1.81-1.46v-3.27h-4.13v1.48h2.63v1.18c-.34.34-.75.61-1.2.79-.45.18-.93.27-1.41.27-.51.02-1.01-.06-1.49-.24-.48-.18-.91-.45-1.28-.8-.37-.35-.66-.77-.86-1.24-.2-.47-.3-.97-.3-1.48s.1-1.01.3-1.48c.2-.47.49-.89.86-1.24Z"/>
      <polygon class="cls-1" points="137.5 36.12 145.02 36.12 145.02 34.61 139.01 34.61 139.01 32.74 143.51 32.74 143.51 31.24 139.01 31.24 139.01 27.11 145.02 27.11 145.02 25.61 137.5 25.61 137.5 36.12"/>
    </g>
  </g>
</svg>