<?xml version="1.0" encoding="UTF-8"?>
<svg id="Layer_2" data-name="Layer 2" xmlns="http://www.w3.org/2000/svg" viewBox="0 0 46 46">
  <defs>
    <style>
      .cls-1 {
      fill: none;
      }

      .cls-2 {
      fill: #1b1b2d;
      }
    </style>
  </defs>
  <g id="Layer_2-2" data-name="Layer 2">
    <g id="Layer_1-2" data-name="Layer 1-2">
      <g>
        <path class="cls-2" d="m13.39,2.11h-.01c-3.99,1.84-7.38,4.79-9.75,8.49C1.27,14.3,0,18.61,0,23c0,.38,0,.76.04,1.14l19.55-11.26L13.39,2.11Z"/>
        <path class="cls-2" d="m35.5,3.68c-3.73-2.41-8.07-3.68-12.51-3.68-1.25,0-2.49.1-3.72.3l5.51,9.55,10.72-6.17Z"/>
        <path class="cls-2" d="m40.32,7.85l-12.5,7.21,8.69,15.04h8.4c1.23-3.79,1.46-7.83.65-11.73-.8-3.9-2.61-7.53-5.24-10.52Z"/>
        <polygon class="cls-2" points="22.6 18.07 1.75 30.1 29.56 30.1 22.6 18.07"/>
        <path class="cls-2" d="m12.34,43.39c3.29,1.71,6.94,2.61,10.65,2.61,3.71.01,7.37-.88,10.66-2.6,3.29-1.72,6.12-4.2,8.24-7.25H4.12c2.11,3.04,4.93,5.52,8.22,7.24Z"/>
      </g>
    </g>
  </g>
</svg>
