<?xml version="1.0" encoding="UTF-8"?>
<svg id="Layer_2" data-name="Layer 2" xmlns="http://www.w3.org/2000/svg" viewBox="0 0 170 46">
  <defs>
    <style>
      .cls-1 {
        fill: none;
      }

      .cls-2 {
        fill: #1b1b2d;
      }
    </style>
  </defs>
  <g id="Layer_2-2" data-name="Layer 2">
    <g id="Layer_1-2" data-name="Layer 1-2">
      <rect class="cls-1" width="170" height="46"/>
      <g>
        <path class="cls-2" d="m13.39,2.11h-.01c-3.99,1.84-7.38,4.79-9.75,8.49C1.27,14.3,0,18.61,0,23c0,.38,0,.76.04,1.14l19.55-11.26L13.39,2.11Z"/>
        <path class="cls-2" d="m35.5,3.68c-3.73-2.41-8.07-3.68-12.51-3.68-1.25,0-2.49.1-3.72.3l5.51,9.55,10.72-6.17Z"/>
        <path class="cls-2" d="m40.32,7.85l-12.5,7.21,8.69,15.04h8.4c1.23-3.79,1.46-7.83.65-11.73-.8-3.9-2.61-7.53-5.24-10.52Z"/>
        <polygon class="cls-2" points="22.6 18.07 1.75 30.1 29.56 30.1 22.6 18.07"/>
        <path class="cls-2" d="m12.34,43.39c3.29,1.71,6.94,2.61,10.65,2.61,3.71.01,7.37-.88,10.66-2.6,3.29-1.72,6.12-4.2,8.24-7.25H4.12c2.11,3.04,4.93,5.52,8.22,7.24Z"/>
        <path class="cls-2" d="m67.98,20.6h1.72l1.02-1.88h6.25l1.04,1.88h1.7l-5.87-10.72-5.86,10.72Zm3.56-3.38h0l2.3-4.22,2.32,4.22h-4.61Z"/>
        <polygon class="cls-2" points="85.65 20.6 87.16 20.6 87.16 17.22 91.67 17.22 91.67 15.72 87.16 15.72 87.16 11.59 93.17 11.59 93.17 10.08 85.65 10.08 85.65 20.6"/>
        <polygon class="cls-2" points="99.65 20.6 101.15 20.6 101.15 17.22 105.66 17.22 105.66 15.72 101.15 15.72 101.15 11.59 107.16 11.59 107.16 10.08 99.65 10.08 99.65 20.6"/>
        <rect class="cls-2" x="113.61" y="10.08" width="1.51" height="10.52"/>
        <polygon class="cls-2" points="130.02 17.17 122.56 10.08 122.48 10.08 122.48 20.6 122.49 20.6 124.01 20.6 124.01 13.51 131.43 20.6 131.53 20.6 131.53 10.08 130.02 10.08 130.02 17.17"/>
        <rect class="cls-2" x="138.86" y="10.08" width="1.51" height="10.52"/>
        <polygon class="cls-2" points="146.67 11.59 150.43 11.59 150.43 20.6 151.93 20.6 151.93 11.59 155.68 11.59 155.68 10.08 146.67 10.08 146.67 11.59"/>
        <polygon class="cls-2" points="168.22 10.08 165.01 15.2 161.81 10.08 160.04 10.08 160.02 10.08 164.25 16.81 164.25 20.6 165.76 20.6 165.76 16.83 169.99 10.08 168.22 10.08"/>
        <polygon class="cls-2" points="68.83 36.12 68.83 36.1 68.82 36.1 68.83 36.12"/>
        <path class="cls-2" d="m76.4,30.55c.45-.55.7-1.23.7-1.94,0-.79-.32-1.56-.88-2.12-.57-.56-1.33-.88-2.13-.88h-5.26v10.49h6.02c.4.01.79-.07,1.15-.22.37-.16.7-.38.97-.66.28-.27.51-.6.66-.96.15-.37.22-.76.22-1.15.01-.52-.12-1.03-.39-1.48-.25-.44-.62-.82-1.06-1.08Zm-6.07-3.42h3.76c.4,0,.79.16,1.07.44s.44.67.44,1.06-.15.78-.44,1.06c-.29.28-.67.44-1.07.44h-3.76v-3Zm5.99,6.3c-.06.29-.2.56-.41.77-.14.14-.31.25-.49.33-.19.07-.38.1-.58.1h-4.51v-2.99h4.51c.3,0,.59.09.84.25.24.16.44.4.55.67.12.28.15.58.09.87Z"/>
        <path class="cls-2" d="m91.25,31.36c.35-.57.55-1.22.57-1.89.01-.67-.15-1.33-.47-1.92-.33-.59-.8-1.08-1.38-1.42-.58-.34-1.24-.52-1.91-.52h-3.76v10.51l1.51.03v-3h2.34l1.98,3h1.8l-2.22-3.38c.63-.32,1.17-.81,1.54-1.41Zm-3.19.26h-2.25v-4.51h2.25c.3,0,.6.06.87.17.27.11.52.28.73.49.31.32.52.72.61,1.16.09.44.04.89-.13,1.3-.17.41-.46.76-.83,1.01s-.8.38-1.25.38Z"/>
        <rect class="cls-2" x="98.77" y="25.61" width="1.51" height="10.51"/>
        <path class="cls-2" d="m115.12,27.16c-.48-.49-1.06-.87-1.69-1.13-.65-.28-1.34-.42-2.04-.42h-3.76v10.54l3.76.02c.7,0,1.4-.15,2.04-.42.63-.26,1.21-.65,1.69-1.13.49-.48.87-1.06,1.13-1.69.28-.64.42-1.34.42-2.04s-.14-1.4-.42-2.04c-.26-.63-.65-1.21-1.13-1.69Zm-1.18,6.3c-.67.7-1.58,1.12-2.55,1.16h-2.25v-7.52h2.25c.97.05,1.88.46,2.55,1.16s1.04,1.63,1.04,2.6-.37,1.9-1.04,2.6Z"/>
        <path class="cls-2" d="m123.93,28.13c.37-.35.81-.62,1.28-.8.48-.18.98-.26,1.49-.24.59-.01,1.17.13,1.7.4.52.26.96.64,1.31,1.1l1.19-.91c-.49-.65-1.12-1.17-1.84-1.53-.73-.37-1.54-.56-2.36-.56-.7,0-1.39.15-2.03.42-.63.27-1.2.65-1.68,1.13-.73.74-1.23,1.69-1.43,2.71-.2,1.03-.09,2.09.31,3.05h0c.25.65.62,1.22,1.09,1.71.48.48,1.05.87,1.68,1.13.69.29,1.44.43,2.19.41.75-.02,1.49-.2,2.17-.53.71-.34,1.32-.84,1.81-1.46v-3.27h-4.13v1.48h2.63v1.18c-.35.34-.75.61-1.2.79-.45.18-.93.27-1.41.27-.51.02-1.02-.06-1.49-.24-.48-.18-.91-.45-1.28-.8-.37-.35-.66-.77-.86-1.24-.2-.47-.3-.97-.3-1.48s.1-1.01.3-1.48c.2-.47.49-.89.86-1.24Z"/>
        <polygon class="cls-2" points="137.51 36.12 137.51 36.13 145.02 36.13 145.02 34.62 139.01 34.62 139.01 32.75 143.51 32.75 143.51 31.24 139.01 31.24 139.01 27.11 145.02 27.11 145.02 25.61 137.51 25.61 137.51 36.12"/>
      </g>
    </g>
  </g>
</svg>