<svg fill="none" height="61" viewBox="0 0 61 61" width="61" xmlns="http://www.w3.org/2000/svg"><path d="m22.3427 50.2069h4.0114v-8.0869c3.5265-.467 6.6362-1.3826 9.0319-2.6866v10.7797h4.0115v-19.5797c1.0812-.3389 2.1687-.7171 3.2438-1.1201v20.6936h4.0114v-15.8142c7.1335-.9465 12.5729-3.72 13.813-7.8906.0186-.0599.0351-.1198.0516-.1818s.0413-.1612.0598-.2439c.0269-.1157.0496-.2335.0702-.3534 0-.031 0-.0641.0144-.0951.0227-.1488.0413-.2976.0537-.4484 0 0 0-.0166 0-.0248.0124-.1667.0186-.3348.0186-.5043 0-1.5603-1.8118-4.5095-4.808-7.2685-.2063-.1901-.4182-.3796-.6355-.5683-.4354-.3762-.8915-.7461-1.3702-1.1057-.5963-.4505-1.2236-.8866-1.8798-1.2979-.2628-.1653-.5297-.3258-.8007-.4815-1.5214-.8839-3.1396-1.5891-4.8223-2.1018-1.7494-.5385-3.5681-.817-5.3981-.8267-6.9788 0-13.1115 4.1933-16.6173 8.1117-1.2115-.254-2.4457-.3835-3.6834-.3865-10.89108 0-19.7187 10.2094-19.7187 13.6504 0 .0951-.000001.1943.01238.2976.07773 1.5413.67996 3.0094 1.70651 4.1603.59444.7412 1.31545 1.371 2.12952 1.86 2.51127 1.7029 6.08729 2.8747 10.23909 3.4245v8.0889h4.0114v-11.8503c1.0813-.3389 2.1687-.7171 3.2438-1.1201zm10.5692-14.0182c-1.7829.8659-4.0238 1.5004-6.5578 1.8765v-2.4118c0-.0165 0-.0331 0-.0496l.2373-.1033c2.144-.9486 4.127-1.331 5.7778-1.331.9875-.016 1.9697.1472 2.8992.4816-.7066.6246-1.5005 1.1426-2.3565 1.5376zm20.2986-7.7253c-1.7829.866-4.0238 1.5004-6.5578 1.8766v-2.4118c0-.0166 0-.0331 0-.0496l.2352-.1034c2.144-.9486 4.127-1.3309 5.7778-1.3309.9854-.0195 1.9661.1394 2.8951.4691-.7039.6285-1.4957 1.1507-2.3503 1.55zm-27.8572-3.72c.0104-.0269.0186-.0517.033-.0806.0145-.0289.031-.0661.0475-.1013l.0454-.0971.0619-.1199.0599-.1136.0784-.1364.0742-.1282.0929-.1508.0887-.1426.1094-.1633.1052-.155.128-.1777.1197-.1654.1444-.1901.1341-.1757.163-.2066.1507-.186.1795-.2067.1692-.1963.2064-.2067.1857-.2067.2208-.2294.2063-.2066c.0784-.0786.161-.1571.2435-.2377l.2064-.2067c.0866-.0826.1795-.1653.2703-.248l.2228-.2067c.1032-.0909.2064-.1839.3178-.2748l.2064-.1819c.1568-.1302.3198-.2625.4849-.3927l.0825-.0682c.3095-.2438.6686-.5125 1.073-.7915l.2477-.1695c.1692-.1143.3452-.2294.5282-.3451.4581-.2893.9575-.5828 1.496-.8639 2.0429-1.0726 4.6285-1.9922 7.4864-1.9922 1.8479.0166 3.6773.371 5.3981 1.0457l.3694.1447c.3652.1488.718.3058 1.0585.4691l.3364.1653c.6624.3328 1.2731.6862 1.822 1.0334l.2704.1736c.619.403 1.1473.7936 1.5806 1.1346.194.1529.3817.3052.5633.4567h.0103c.1775.1488.3488.2969.5138.4443l.0207.0186c.1623.1378.3184.2811.4684.4299l.0268.0248c.1472.1378.2896.2756.4272.4134l.0309.031c.1376.1377.2669.2707.388.3988l.035.0352c.1211.1295.2373.2569.3488.3823l.035.0393c.1094.124.2064.2459.3137.3637l.0351.0434c.0976.1171.1905.2322.2785.3451l.0351.0434.031.0393c-.9058-.1906-1.8292-.2848-2.7548-.2811-2.3606 0-4.9173.5787-7.3935 1.674-6.0068 2.6578-11.407 4.1809-14.8159 4.1809-.2682 0-.5261 0-.7655-.0289-.863-.0422-1.7044-.2849-2.4576-.7089-.3972-.2747-.7621-.5936-1.0875-.9507-.4154-.5155-.6987-1.125-.8254-1.7752zm-15.1996 11.2634c-.2683 0-.52624 0-.76561-.0289-.86243-.0461-1.70237-.2923-2.45349-.7192-.39723-.2747-.76206-.5936-1.08746-.9507-.41539-.5156-.69874-1.125-.8254-1.7753 0-.0227.02064-.0517.03096-.0785.01032-.0269.01857-.0496.03095-.0765s.03095-.0703.04952-.1054l.04334-.093.06397-.1219.05777-.1116.07841-.1385.07223-.1261.09492-.1508.08873-.1406.10936-.1632.10524-.155.12794-.1798.11762-.1633.14857-.1943.13206-.1715.16508-.2067.14857-.1818.18365-.2067.16302-.1901c.06603-.0744.13825-.153.20635-.2274l.17333-.1901c.07635-.0806.15683-.1633.2373-.2439l.18159-.188c.08461-.0848.1754-.1716.26619-.2584l.18984-.1839c.09699-.093.20635-.186.3054-.279l.18778-.1715c.11968-.1075.24762-.2067.37555-.3224l.15477-.1344c.18296-.1529.3728-.3065.56952-.4608.43333-.3411.96363-.7317 1.58063-1.1347l.2703-.1736c.5489-.3472 1.1597-.7006 1.8221-1.0333.2215-.1116.4485-.2204.6809-.3265.2325-.1061.4705-.2088.714-.308l.3694-.1446c1.7208-.6747 3.5502-1.0291 5.3981-1.0458.3755 0 .747.0166 1.1122.0476-.3072.5751-.4887 1.2092-.5324 1.86 0 .095 0 .1942.0103.2955.0795 1.5374.6808 3.0015 1.7045 4.1499.5939.7459 1.3157 1.3799 2.1316 1.8724.2393.1626.4883.3203.7469.4733-.3095.1198-.619.2459-.9265.3802-6.0027 2.6516-11.4028 4.1768-14.8096 4.1768z" fill="#26599c"/></svg>