<?xml version="1.0" encoding="UTF-8"?>
<svg xmlns="http://www.w3.org/2000/svg" width="109.36mm" height="109.36mm" version="1.1" viewBox="0 0 310 310">
  <defs>
    <style>
      .cls-1 {
        fill: #ee4823;
      }

      .cls-2 {
        fill: #fff;
      }
    </style>
  </defs>
  <!-- Generator: Adobe Illustrator 28.6.0, SVG Export Plug-In . SVG Version: 1.2.0 Build 709)  -->
  <g>
    <g id="Layer_1">
      <g>
        <path class="cls-1" d="M0,155C0,69.4,69.4,0,155,0h155v155c0,85.6-69.4,155-155,155S0,240.6,0,155Z"/>
        <path class="cls-2" d="M228.59,210.42c-.44,0-.84.21-1.09.55-3.13,4.37-6.69,8.56-10.65,12.38-5.57,5.38-11.73,10.09-18.4,13.93-1.18.68-.69,2.45.68,2.45h46.83c.74,0,1.34-.59,1.34-1.32v-26.68c0-.73-.6-1.32-1.34-1.32h-17.37Z"/>
        <path class="cls-2" d="M234.17,160.2c0-18.59-10.66-41.96-35.14-71.45-16.91-20.38-33.61-36-34.3-36.66l-9.35-8.73c-.51-.48-1.32-.48-1.84,0l-9.35,8.73c-.7.66-17.39,16.28-34.31,36.66-24.48,29.49-36.26,55.31-36.26,73.9,0,12.53,2.98,26.32,8.27,37.28.22.45.69.74,1.22.74h32.35c1.15,0,1.76-1.32,1.01-2.16-8.14-9.21-13.01-22.94-13.01-35.85,0-5.15,2.81-21.81,29.41-53.91,7.38-8.91,14.81-17.5,20.65-23.6.52-.56,1.41-.56,1.94,0,5.85,6.01,13.29,13.78,20.67,22.69,26.6,32.1,29.48,47.39,29.48,52.54,0,27.57-25.57,49.99-53.23,50.17-.11,0-88.04-.07-88.04-.07-.74,0-1.33.59-1.33,1.32v26.68c0,.73.59,1.32,1.33,1.32h88.05c44.22-.22,81.79-35.83,81.79-79.57Z"/>
      </g>
    </g>
  </g>
</svg>