<?xml version="1.0" encoding="utf-8"?>
<!-- Generator: Adobe Illustrator 27.0.1, SVG Export Plug-In . SVG Version: 6.00 Build 0)  -->
<svg version="1.1" id="Layer_1" xmlns="http://www.w3.org/2000/svg" xmlns:xlink="http://www.w3.org/1999/xlink" x="0px" y="0px"
	 viewBox="0 0 481 91" style="enable-background:new 0 0 481 91;" xml:space="preserve">
<style type="text/css">
	.st0{fill:#032633;}
	.st1{fill:#EE4723;}
</style>
<g>
	<path class="st0" d="M125.71,73.72c-3.06,0-6.01-0.57-8.79-1.69c-2.78-1.12-5.25-2.7-7.37-4.72c-2.17-2.07-3.84-4.47-4.98-7.13
		c-1.14-2.65-1.72-5.46-1.72-8.32c0-2.92,0.57-5.75,1.72-8.41c1.14-2.66,2.81-5.06,4.98-7.13c2.11-2.02,4.59-3.61,7.37-4.72
		c2.78-1.11,5.74-1.68,8.79-1.68c3.05,0,6.01,0.57,8.79,1.68c2.77,1.12,5.25,2.7,7.37,4.72c2.16,2.07,3.85,4.47,4.98,7.13
		c1.14,2.66,1.72,5.49,1.72,8.41v21.41c0,0.26-0.22,0.46-0.49,0.46h-5.55c-0.27,0-0.49-0.21-0.49-0.46v-5.38
		c0-0.43-0.55-0.63-0.85-0.31c-0.7,0.76-1.42,1.43-2.21,2.01c-1.34,0.99-2.74,1.8-4.22,2.41c-1.47,0.61-3,1.05-4.56,1.32
		C128.66,73.58,127.15,73.72,125.71,73.72z M125.71,36.07c-2.25,0-4.4,0.42-6.39,1.24c-1.99,0.82-3.74,1.95-5.22,3.37
		c-1.48,1.41-2.66,3.1-3.52,5.03c-0.86,1.93-1.29,3.99-1.29,6.15c0,2.16,0.44,4.21,1.29,6.11c0.86,1.9,2.04,3.58,3.52,4.99
		c1.48,1.42,3.23,2.55,5.22,3.37c1.98,0.82,4.13,1.23,6.39,1.23c2.26,0,4.4-0.42,6.39-1.23c1.99-0.82,3.74-1.96,5.22-3.37
		c1.48-1.41,2.66-3.09,3.52-4.99c0.86-1.9,1.29-3.96,1.29-6.11c0-2.16-0.43-4.23-1.29-6.15c-0.86-1.93-2.04-3.62-3.52-5.03
		c-1.48-1.41-3.24-2.55-5.22-3.37C130.11,36.49,127.96,36.07,125.71,36.07z"/>
	<path class="st0" d="M177.12,90.87c-3.05,0-5.99-0.56-8.74-1.66c-5.6-2.55-9.12-6.68-10.13-7.97c-0.17-0.22-0.12-0.52,0.11-0.67
		l4.43-3c0.22-0.15,0.52-0.1,0.68,0.11c0.7,0.92,2.68,3.31,5.73,5.07c2.34,1.31,5.02,1.91,7.92,1.91c2.25,0,4.4-0.42,6.38-1.25
		c1.99-0.83,3.74-1.97,5.21-3.4c1.47-1.43,2.64-3.12,3.5-5.03c0.86-1.92,1.27-3.99,1.27-6.16v-0.42c0-0.42-0.51-0.63-0.83-0.35
		c-2.08,1.86-4.38,3.28-6.69,4.24c-2.83,1.18-5.81,1.78-8.86,1.78c-3.05,0-6-0.57-8.77-1.7c-2.78-1.13-5.25-2.73-7.35-4.76
		c-2.17-2.09-3.84-4.51-4.97-7.19c-1.14-2.67-1.71-5.5-1.71-8.39c0-2.95,0.58-5.8,1.71-8.48c1.14-2.68,2.81-5.1,4.97-7.19
		c2.11-2.04,4.58-3.64,7.36-4.76c2.77-1.12,5.73-1.7,8.78-1.7c1.5,0,3.07,0.16,4.68,0.48c1.6,0.32,3.18,0.78,4.67,1.37
		c1.5,0.59,2.93,1.37,4.24,2.31c0.83,0.6,1.59,1.23,2.28,1.92c0.28,0.28,0.77,0.14,0.84-0.24l0.66-5.33c0.04-0.23,0.25-0.4,0.49-0.4
		h4.54c0.27,0,0.49,0.22,0.49,0.48v38.32c0,2.94-0.61,5.79-1.75,8.47c-1.14,2.68-2.83,5.07-4.99,7.11c-2.11,2.08-4.59,3.7-7.37,4.8
		C183.12,90.31,180.16,90.87,177.12,90.87z M177.12,36.12c-2.25,0-4.4,0.42-6.38,1.25c-1.99,0.83-3.74,1.97-5.22,3.4
		c-1.47,1.42-2.66,3.13-3.51,5.07c-0.86,1.94-1.29,4.03-1.29,6.2c0,2.17,0.43,4.25,1.29,6.16c0.86,1.92,2.04,3.61,3.51,5.03
		c1.48,1.43,3.23,2.57,5.22,3.4c1.98,0.83,4.13,1.25,6.38,1.25c2.25,0,4.4-0.42,6.38-1.25c1.99-0.83,3.74-1.97,5.21-3.4
		c1.47-1.42,2.66-3.11,3.51-5.03c0.86-1.92,1.29-3.99,1.29-6.16c0-2.17-0.43-4.26-1.29-6.2c-0.86-1.94-2.04-3.65-3.51-5.07
		c-1.48-1.42-3.23-2.57-5.21-3.4C181.51,36.54,179.37,36.12,177.12,36.12z"/>
	<path class="st0" d="M212.23,73.26V30.85c0-0.26,0.28-0.47,0.62-0.47h6.87c0.34,0,0.62,0.21,0.62,0.47v42.41
		c0,0.26-0.27,0.47-0.62,0.47h-6.87C212.5,73.73,212.23,73.52,212.23,73.26z M216.14,23.86c-1.34,0-2.47-0.35-3.36-1.03
		c-0.9-0.68-1.35-1.55-1.35-2.57c0-1.02,0.45-1.89,1.34-2.6c0.9-0.71,2.03-1.07,3.37-1.07c1.33,0,2.48,0.36,3.41,1.07
		c0.93,0.71,1.4,1.59,1.4,2.61c0,1.02-0.47,1.89-1.4,2.57C218.61,23.51,217.47,23.86,216.14,23.86z"/>
	<path class="st0" d="M234.29,73.26V17.05c0-0.26,0.26-0.46,0.57-0.46h6.48c0.31,0,0.57,0.21,0.57,0.46v56.21
		c0,0.26-0.25,0.47-0.57,0.47h-6.48C234.55,73.73,234.29,73.52,234.29,73.26z"/>
	<path class="st0" d="M273.37,73.73c-2.94,0-5.77-0.56-8.44-1.69c-2.67-1.12-5.05-2.71-7.07-4.73c-2.08-2.07-3.69-4.46-4.78-7.09
		c-1.09-2.63-1.65-5.44-1.65-8.37c0-2.92,0.56-5.75,1.65-8.41c1.09-2.66,2.7-5.03,4.79-7.05c2.02-2.07,4.4-3.68,7.07-4.8
		c2.66-1.11,5.5-1.68,8.44-1.68c2.93,0,5.76,0.56,8.4,1.68c2.64,1.12,5.03,2.73,7.11,4.8c2.07,2.02,3.65,4.42,4.75,7.13
		c1.09,2.71,1.61,5.57,1.61,8.49v0.33h-37.15c-0.27,0-0.48,0.23-0.47,0.5c0.1,1.74,0.52,3.62,1.26,5.24
		c0.85,1.88,2.01,3.53,3.42,4.91c1.42,1.39,3.1,2.51,4.98,3.33c1.88,0.82,3.92,1.23,6.09,1.23c2.94,0,5.65-0.74,8.07-2.2
		c2.42-1.46,4.33-3.5,5.67-5.92l0.09-0.23h6.82l-0.17,0.5c-1.12,2.82-2.79,5.39-4.98,7.56c-2.08,2.02-4.47,3.63-7.11,4.74
		C279.13,73.14,276.3,73.73,273.37,73.73z M287.32,46.11c0.35,0,0.57-0.36,0.43-0.67c-1.17-2.53-2.93-4.75-5.26-6.47
		c-2.65-1.95-5.72-2.92-9.12-2.92c-1.7,0-3.35,0.27-4.89,0.78c-1.55,0.51-2.99,1.25-4.27,2.17c-1.29,0.93-2.44,2.01-3.42,3.3
		c-0.74,0.96-1.36,2.08-1.87,3.14c-0.15,0.31,0.08,0.67,0.43,0.67H287.32z"/>
	<path class="st0" d="M323.89,73.73c-3.07,0-6.03-0.56-8.82-1.67c-2.79-1.11-5.27-2.68-7.39-4.69c-2.18-2.06-3.86-4.44-5-7.07
		c-1.14-2.63-1.73-5.44-1.73-8.34c0-2.85,0.58-5.63,1.73-8.26c1.14-2.64,2.82-5.02,5-7.07c2.12-2,4.61-3.58,7.39-4.69
		c2.79-1.11,5.76-1.67,8.82-1.67c3.06,0,6.03,0.56,8.82,1.67c2.1,0.83,5.41,3.17,6.92,4.3c0.32,0.25,0.81,0.03,0.81-0.37V17.05
		c0-0.26,0.22-0.47,0.49-0.47h5.24c0.27,0,0.49,0.21,0.49,0.47v34.9c0,2.9-0.5,5.71-1.64,8.34c-1.14,2.63-2.78,5.02-4.95,7.07
		c-2.12,2.01-4.59,3.58-7.37,4.69C329.9,73.17,326.96,73.73,323.89,73.73z M323.89,36.37c-2.26,0-4.42,0.41-6.41,1.23
		c-1.99,0.82-3.76,1.94-5.24,3.34c-1.48,1.4-2.67,3.07-3.54,4.96c-0.86,1.88-1.3,3.92-1.3,6.06c0,2.14,0.43,4.2,1.3,6.11
		c0.86,1.91,2.05,3.59,3.54,4.99c1.48,1.4,3.24,2.53,5.24,3.35c1.99,0.81,4.15,1.23,6.41,1.23c2.26,0,4.42-0.41,6.41-1.23
		c2-0.82,3.76-1.94,5.24-3.35c1.48-1.4,2.67-3.08,3.53-4.99c0.86-1.92,1.3-3.97,1.3-6.11c0-2.14-0.44-4.18-1.3-6.06
		c-0.87-1.89-2.05-3.55-3.53-4.96c-1.48-1.4-3.25-2.53-5.24-3.34C328.31,36.78,326.15,36.37,323.89,36.37z"/>
	<path class="st0" d="M356.2,73.26V30.65c0-0.26,0.2-0.47,0.44-0.47h3.96c0.19,0,0.36,0.13,0.42,0.32l0.89,2.93
		c0.09,0.3,0.44,0.42,0.68,0.23c1.33-1.09,2.79-1.95,4.35-2.59c1.89-0.77,3.91-1.15,5.99-1.15c0.69,0,1.36,0.04,1.98,0.12
		c0.6,0.08,1.3,0.17,1.94,0.28l0.3,0.04v6.43l-0.43-0.12c-1.24-0.41-2.53-0.61-3.77-0.61c-1.52,0-2.98,0.31-4.31,0.92
		c-1.33,0.61-2.53,1.46-3.52,2.53c-1,1.07-1.73,2.34-2.3,3.76c-0.57,1.42-0.8,2.97-0.8,4.6v25.4c0,0.26-0.2,0.47-0.44,0.47h-4.94
		C356.39,73.73,356.2,73.52,356.2,73.26z"/>
	<path class="st0" d="M404.73,73.73c-2.93,0-5.74-0.57-8.37-1.69c-2.64-1.12-5.01-2.7-7.08-4.72c-2.02-2.08-3.61-4.48-4.73-7.13
		c-1.12-2.65-1.69-5.46-1.69-8.33c0-2.92,0.57-5.75,1.69-8.41c1.11-2.66,2.71-5.06,4.72-7.12c2.07-2.02,4.46-3.61,7.09-4.73
		c2.63-1.11,5.44-1.68,8.37-1.68c2.92,0,5.75,0.57,8.41,1.68c2.65,1.12,5.05,2.7,7.12,4.72c2.03,2.08,3.61,4.47,4.73,7.13
		c1.12,2.66,1.68,5.49,1.68,8.41c0,2.87-0.57,5.67-1.68,8.33c-1.11,2.65-2.7,5.05-4.72,7.12c-2.07,2.02-4.47,3.61-7.13,4.73
		C410.48,73.16,407.65,73.73,404.73,73.73z M404.73,36.07c-2.15,0-4.21,0.42-6.11,1.24c-1.9,0.82-3.59,1.96-5,3.37
		c-1.41,1.41-2.55,3.11-3.36,5.03c-0.82,1.93-1.24,4-1.24,6.15c0,2.16,0.42,4.21,1.24,6.11c0.82,1.9,1.95,3.58,3.36,4.99
		c1.42,1.42,3.1,2.55,5,3.37c1.89,0.82,3.96,1.24,6.11,1.24c2.16,0,4.21-0.42,6.11-1.24c1.91-0.82,3.6-1.96,5.04-3.37
		c1.44-1.41,2.59-3.09,3.41-4.99c0.82-1.9,1.24-3.96,1.24-6.11c0-2.16-0.42-4.23-1.24-6.15c-0.82-1.92-1.97-3.62-3.41-5.03
		c-1.43-1.41-3.13-2.55-5.04-3.37C408.94,36.49,406.88,36.07,404.73,36.07z"/>
	<path class="st0" d="M436.66,88.97c-0.26,0-0.46-0.21-0.46-0.47V51.9c0-2.93,0.55-5.76,1.63-8.42c1.1-2.66,2.7-5.06,4.78-7.14
		c2.03-2.02,4.4-3.61,7.06-4.73c2.66-1.12,5.5-1.69,8.43-1.69c2.93,0,5.76,0.57,8.42,1.69c2.66,1.12,5.04,2.71,7.07,4.73
		c2.08,2.07,3.68,4.48,4.77,7.14c1.09,2.66,1.65,5.5,1.65,8.42c0,2.87-0.56,5.67-1.65,8.34c-1.09,2.66-2.7,5.07-4.77,7.14
		c-2.02,2.02-4.4,3.61-7.07,4.73c-2.66,1.12-5.5,1.69-8.42,1.69c-2.93,0-5.76-0.57-8.43-1.69c-3.07-1.41-5.33-3.2-6.43-4.21
		c-0.3-0.27-0.78-0.06-0.78,0.34V88.5c0,0.26-0.2,0.47-0.46,0.47L436.66,88.97L436.66,88.97z M458.09,36.08
		c-2.16,0-4.22,0.42-6.13,1.24c-1.91,0.82-3.59,1.96-5,3.37c-1.42,1.42-2.55,3.11-3.37,5.04c-0.83,1.93-1.24,4-1.24,6.16
		c0,2.16,0.42,4.22,1.24,6.12c0.82,1.9,1.96,3.59,3.37,5c1.42,1.42,3.1,2.55,5,3.38c1.9,0.82,3.96,1.24,6.13,1.24
		c2.16,0,4.22-0.42,6.12-1.24c1.91-0.83,3.59-1.96,5.01-3.38c1.41-1.41,2.55-3.09,3.38-5c0.82-1.9,1.24-3.96,1.24-6.12
		c0-2.16-0.42-4.23-1.24-6.16c-0.82-1.93-1.96-3.63-3.38-5.04c-1.42-1.42-3.1-2.55-5.01-3.37C462.31,36.5,460.25,36.08,458.09,36.08
		z"/>
	<path class="st1" d="M73.96,74.58c-0.2,0-0.37,0.09-0.49,0.25c-1.4,1.94-2.99,3.81-4.76,5.52c-2.49,2.4-5.24,4.49-8.22,6.21
		c-0.53,0.3-0.31,1.09,0.3,1.09h20.92c0.33,0,0.6-0.26,0.6-0.59V75.17c0-0.33-0.27-0.59-0.6-0.59H73.96z"/>
	<path class="st1" d="M76.45,52.2c0-8.28-4.76-18.69-15.69-31.83C53.2,11.3,45.75,4.34,45.44,4.05l-4.18-3.89
		c-0.23-0.21-0.59-0.21-0.82,0l-4.18,3.89c-0.31,0.29-7.77,7.25-15.32,16.33C10,33.51,4.74,45.02,4.74,53.3
		c0,5.58,1.33,11.72,3.69,16.61c0.1,0.2,0.31,0.33,0.54,0.33h14.45c0.51,0,0.79-0.59,0.45-0.96c-3.64-4.1-5.81-10.22-5.81-15.97
		c0-2.29,1.26-9.72,13.14-24.01c3.3-3.97,6.62-7.79,9.22-10.51c0.23-0.25,0.63-0.25,0.87,0c2.61,2.68,5.94,6.14,9.23,10.11
		c11.88,14.3,13.17,21.11,13.17,23.4c0,12.28-11.42,22.27-23.77,22.35c-0.05,0-39.32-0.03-39.32-0.03c-0.33,0-0.6,0.26-0.6,0.59
		v11.88c0,0.33,0.27,0.59,0.6,0.59c10.09,0,39.27,0,39.33,0C59.68,87.55,76.45,71.69,76.45,52.2z"/>
</g>
</svg>
