<?xml version="1.0" encoding="UTF-8"?>
<svg xmlns="http://www.w3.org/2000/svg" width="481" height="91" version="1.1" viewBox="0 0 481 91">
  <defs>
    <style>
      .cls-1 {
        fill: #ee4723;
      }

      .cls-2 {
        fill: #fff;
      }
    </style>
  </defs>
  <!-- Generator: Adobe Illustrator 28.6.0, SVG Export Plug-In . SVG Version: 1.2.0 Build 709)  -->
  <g>
    <g id="Layer_1">
      <g>
        <path class="cls-2" d="M125.71,73.78c-3.06,0-6.01-.57-8.79-1.68-2.78-1.12-5.26-2.7-7.37-4.72-2.17-2.07-3.84-4.47-4.98-7.13-1.14-2.65-1.72-5.46-1.72-8.32s.57-5.75,1.72-8.41c1.14-2.66,2.81-5.05,4.98-7.13,2.11-2.02,4.59-3.61,7.37-4.72,2.78-1.11,5.74-1.68,8.79-1.68s6.01.57,8.79,1.68c2.78,1.12,5.25,2.7,7.37,4.72,2.16,2.07,3.84,4.47,4.98,7.13,1.14,2.66,1.72,5.49,1.72,8.41v21.41c0,.26-.22.46-.49.46h-5.55c-.27,0-.49-.21-.49-.46v-5.38c0-.43-.55-.63-.85-.31-.7.76-1.42,1.43-2.21,2.01-1.34.99-2.74,1.8-4.22,2.41-1.48.61-3,1.05-4.56,1.32-1.55.27-3.06.4-4.5.4ZM125.71,36.14c-2.25,0-4.4.42-6.39,1.24-1.99.82-3.74,1.95-5.22,3.37-1.48,1.41-2.66,3.1-3.52,5.03-.86,1.93-1.29,4-1.29,6.15s.44,4.21,1.29,6.11c.86,1.9,2.04,3.58,3.52,4.99,1.48,1.42,3.23,2.55,5.22,3.37,1.98.82,4.13,1.23,6.39,1.23s4.4-.42,6.39-1.23c1.99-.82,3.75-1.96,5.22-3.37,1.48-1.41,2.66-3.09,3.52-4.99.86-1.9,1.29-3.96,1.29-6.11s-.43-4.23-1.3-6.15c-.86-1.93-2.04-3.62-3.52-5.03-1.48-1.41-3.24-2.55-5.22-3.37-1.99-.82-4.14-1.24-6.39-1.24Z"/>
        <path class="cls-2" d="M177.11,90.94c-3.05,0-5.99-.56-8.74-1.65-5.6-2.56-9.12-6.68-10.13-7.97-.17-.22-.12-.52.11-.67l4.43-3c.22-.15.52-.1.68.11.7.92,2.68,3.31,5.73,5.07,2.34,1.31,5.02,1.91,7.92,1.91,2.25,0,4.4-.42,6.38-1.25,1.99-.83,3.74-1.97,5.21-3.4,1.47-1.43,2.64-3.12,3.5-5.03.86-1.92,1.27-3.99,1.27-6.16v-.43c0-.42-.51-.63-.83-.34-2.08,1.86-4.38,3.28-6.69,4.24-2.83,1.18-5.81,1.78-8.86,1.78s-6-.57-8.78-1.7c-2.78-1.13-5.25-2.73-7.36-4.76-2.17-2.09-3.84-4.51-4.97-7.19-1.14-2.67-1.71-5.5-1.71-8.39s.58-5.8,1.71-8.48c1.14-2.68,2.81-5.1,4.97-7.19,2.11-2.04,4.58-3.64,7.36-4.76,2.77-1.12,5.73-1.7,8.78-1.7,1.5,0,3.08.16,4.68.48,1.6.32,3.17.78,4.67,1.37,1.5.59,2.93,1.37,4.23,2.31.83.6,1.59,1.23,2.28,1.92.28.28.77.14.84-.24l.66-5.33c.04-.23.25-.4.49-.4h4.54c.27,0,.49.22.49.48v38.32c0,2.94-.61,5.79-1.75,8.47-1.14,2.68-2.83,5.07-4.99,7.11-2.11,2.08-4.59,3.7-7.37,4.8-2.77,1.1-5.73,1.66-8.78,1.66ZM177.11,36.19c-2.25,0-4.4.42-6.38,1.25-1.99.83-3.74,1.97-5.22,3.4-1.47,1.42-2.66,3.13-3.52,5.07-.86,1.94-1.29,4.03-1.29,6.2s.43,4.25,1.29,6.16c.86,1.92,2.04,3.61,3.52,5.03,1.48,1.43,3.23,2.57,5.22,3.4,1.98.83,4.13,1.24,6.38,1.24s4.4-.42,6.38-1.24c1.98-.83,3.74-1.97,5.21-3.4,1.47-1.42,2.66-3.11,3.52-5.03.86-1.92,1.29-3.99,1.29-6.16s-.44-4.26-1.29-6.2c-.86-1.94-2.04-3.65-3.52-5.07-1.48-1.43-3.23-2.57-5.21-3.4-1.98-.83-4.13-1.25-6.38-1.25Z"/>
        <path class="cls-2" d="M212.22,73.32V30.91c0-.26.28-.47.62-.47h6.87c.34,0,.62.21.62.47v42.41c0,.26-.27.47-.62.47h-6.87c-.34,0-.62-.21-.62-.47ZM216.13,23.92c-1.34,0-2.47-.35-3.36-1.03-.9-.68-1.35-1.54-1.35-2.57s.45-1.89,1.34-2.6c.9-.71,2.03-1.08,3.37-1.08s2.48.36,3.41,1.07c.93.71,1.4,1.59,1.4,2.61s-.47,1.89-1.4,2.57c-.93.68-2.08,1.03-3.41,1.03Z"/>
        <path class="cls-2" d="M234.28,73.33V17.11c0-.25.26-.46.57-.46h6.48c.31,0,.57.21.57.46v56.21c0,.26-.25.47-.57.47h-6.48c-.31,0-.57-.21-.57-.47Z"/>
        <path class="cls-2" d="M273.37,73.79c-2.94,0-5.77-.56-8.44-1.69-2.67-1.12-5.05-2.7-7.07-4.73-2.08-2.07-3.69-4.46-4.78-7.09-1.09-2.63-1.65-5.44-1.65-8.37s.56-5.75,1.65-8.41c1.09-2.66,2.7-5.03,4.78-7.05,2.02-2.07,4.4-3.68,7.07-4.8,2.66-1.12,5.5-1.68,8.44-1.68s5.76.56,8.4,1.68c2.64,1.12,5.03,2.73,7.11,4.8,2.07,2.02,3.65,4.42,4.75,7.13,1.09,2.71,1.61,5.57,1.61,8.49v.33h-37.15c-.27,0-.48.23-.47.5.1,1.74.52,3.62,1.26,5.24.85,1.88,2.01,3.53,3.42,4.91,1.42,1.39,3.09,2.51,4.98,3.33,1.88.82,3.92,1.23,6.09,1.23,2.94,0,5.65-.74,8.07-2.2,2.42-1.46,4.33-3.5,5.67-5.92l.09-.23h6.82l-.17.5c-1.12,2.82-2.8,5.39-4.98,7.56-2.08,2.02-4.47,3.63-7.11,4.74-2.64,1.12-5.47,1.71-8.4,1.71ZM287.32,46.17c.34,0,.57-.36.43-.67-1.17-2.53-2.93-4.75-5.26-6.47-2.65-1.95-5.72-2.92-9.12-2.92-1.7,0-3.35.27-4.89.78-1.55.51-2.99,1.25-4.27,2.17-1.29.93-2.44,2.01-3.42,3.3-.74.96-1.36,2.08-1.87,3.14-.15.31.08.67.43.67h27.98Z"/>
        <path class="cls-2" d="M323.89,73.79c-3.07,0-6.03-.56-8.82-1.67-2.79-1.11-5.27-2.68-7.39-4.69-2.18-2.06-3.86-4.44-5-7.07-1.14-2.63-1.72-5.44-1.72-8.34s.58-5.63,1.72-8.26c1.14-2.64,2.82-5.02,5-7.07,2.12-2,4.61-3.58,7.39-4.69,2.79-1.11,5.76-1.67,8.82-1.67s6.03.56,8.82,1.67c2.1.83,5.41,3.17,6.93,4.3.32.25.8.03.8-.37v-18.82c0-.26.22-.47.49-.47h5.24c.27,0,.49.21.49.47v34.9c0,2.9-.5,5.71-1.64,8.34-1.14,2.63-2.78,5.02-4.95,7.07-2.12,2.01-4.59,3.58-7.37,4.69-2.79,1.11-5.74,1.67-8.81,1.67ZM323.89,36.43c-2.26,0-4.42.41-6.41,1.23-1.99.82-3.76,1.94-5.24,3.34-1.48,1.4-2.67,3.07-3.53,4.96-.86,1.88-1.29,3.92-1.29,6.06s.43,4.2,1.29,6.11c.86,1.91,2.05,3.59,3.53,4.99,1.48,1.4,3.24,2.53,5.24,3.35,1.99.81,4.15,1.23,6.41,1.23s4.42-.41,6.41-1.23c1.99-.82,3.76-1.94,5.24-3.35,1.48-1.4,2.67-3.08,3.53-4.99.86-1.92,1.3-3.97,1.3-6.11s-.44-4.18-1.3-6.06c-.87-1.89-2.05-3.55-3.53-4.96-1.48-1.4-3.25-2.53-5.24-3.34-1.99-.82-4.15-1.23-6.41-1.23Z"/>
        <path class="cls-2" d="M356.2,73.33V30.71c0-.26.2-.47.44-.47h3.97c.19,0,.36.13.42.32l.89,2.93c.09.3.44.42.68.23,1.33-1.09,2.79-1.95,4.35-2.59,1.89-.77,3.91-1.15,5.99-1.15.69,0,1.36.04,1.98.12.6.08,1.29.17,1.94.28l.3.04v6.43l-.43-.12c-1.24-.41-2.53-.61-3.77-.61-1.52,0-2.98.31-4.31.92-1.33.61-2.53,1.46-3.52,2.53-1,1.07-1.73,2.34-2.3,3.76-.57,1.42-.8,2.97-.8,4.6v25.4c0,.26-.2.47-.44.47h-4.94c-.24,0-.44-.21-.44-.47Z"/>
        <path class="cls-2" d="M404.72,73.79c-2.92,0-5.74-.57-8.37-1.69-2.64-1.12-5.01-2.7-7.09-4.72-2.02-2.08-3.61-4.48-4.73-7.13-1.12-2.65-1.69-5.46-1.69-8.33s.57-5.75,1.69-8.41c1.11-2.66,2.71-5.06,4.72-7.13,2.08-2.02,4.46-3.61,7.09-4.73,2.63-1.12,5.44-1.68,8.37-1.68s5.75.57,8.41,1.68c2.65,1.12,5.05,2.7,7.12,4.72,2.03,2.08,3.61,4.47,4.73,7.13,1.12,2.66,1.68,5.49,1.68,8.41s-.56,5.67-1.68,8.33c-1.11,2.65-2.7,5.05-4.72,7.12-2.07,2.02-4.47,3.61-7.13,4.73-2.66,1.12-5.49,1.68-8.41,1.68ZM404.72,36.14c-2.15,0-4.21.42-6.11,1.24-1.9.82-3.59,1.96-5,3.37-1.41,1.41-2.55,3.11-3.36,5.03-.82,1.93-1.24,4-1.24,6.16s.42,4.21,1.24,6.11c.82,1.9,1.95,3.58,3.36,4.99,1.42,1.42,3.1,2.55,5,3.37,1.89.82,3.96,1.23,6.11,1.23s4.21-.42,6.11-1.23c1.91-.82,3.6-1.96,5.04-3.37,1.44-1.41,2.59-3.09,3.41-4.99.82-1.9,1.24-3.96,1.24-6.11s-.42-4.23-1.24-6.16c-.82-1.92-1.97-3.62-3.41-5.03-1.43-1.41-3.13-2.55-5.04-3.37-1.89-.82-3.95-1.23-6.11-1.23Z"/>
        <path class="cls-2" d="M436.66,89.03c-.26,0-.46-.21-.46-.47v-36.6c0-2.93.55-5.76,1.63-8.42,1.1-2.66,2.7-5.06,4.78-7.14,2.03-2.02,4.4-3.61,7.06-4.73,2.66-1.12,5.5-1.69,8.43-1.69s5.76.57,8.42,1.69c2.66,1.12,5.04,2.71,7.07,4.73,2.08,2.07,3.68,4.48,4.77,7.14,1.09,2.67,1.65,5.5,1.65,8.42s-.56,5.67-1.65,8.34c-1.09,2.66-2.7,5.07-4.77,7.14-2.02,2.02-4.4,3.61-7.07,4.73-2.66,1.12-5.5,1.69-8.42,1.69s-5.76-.57-8.43-1.69c-3.07-1.41-5.33-3.2-6.43-4.21-.3-.27-.78-.06-.78.34v20.27c0,.26-.2.47-.46.47h-5.33ZM458.09,36.14c-2.16,0-4.22.42-6.13,1.24-1.91.82-3.59,1.96-5,3.37-1.42,1.42-2.55,3.11-3.37,5.04-.83,1.93-1.24,4-1.24,6.16s.42,4.22,1.24,6.12c.82,1.9,1.96,3.59,3.37,5,1.42,1.42,3.1,2.55,5,3.38,1.9.82,3.96,1.24,6.13,1.24s4.22-.42,6.12-1.24c1.91-.82,3.59-1.96,5.01-3.38,1.41-1.41,2.55-3.09,3.38-5,.82-1.9,1.24-3.96,1.24-6.12s-.42-4.23-1.24-6.16c-.82-1.93-1.96-3.63-3.38-5.04-1.42-1.42-3.1-2.55-5.01-3.37-1.9-.82-3.97-1.24-6.12-1.24Z"/>
        <path class="cls-1" d="M73.96,74.64c-.2,0-.37.09-.49.25-1.4,1.94-2.99,3.81-4.76,5.52-2.49,2.4-5.24,4.49-8.22,6.21-.53.3-.31,1.09.3,1.09h20.92c.33,0,.6-.26.6-.59v-11.88c0-.33-.27-.59-.6-.59h-7.76Z"/>
        <path class="cls-1" d="M76.45,52.27c0-8.28-4.76-18.69-15.7-31.83-7.55-9.08-15.01-16.04-15.32-16.33L41.26.22c-.23-.21-.59-.21-.82,0l-4.18,3.89c-.31.29-7.77,7.25-15.32,16.33C10,33.58,4.74,45.08,4.74,53.36c0,5.58,1.33,11.72,3.69,16.61.1.2.31.33.54.33h14.45c.51,0,.79-.59.45-.96-3.64-4.1-5.81-10.22-5.81-15.97,0-2.29,1.26-9.72,13.14-24.01,3.3-3.97,6.62-7.8,9.22-10.51.23-.25.63-.25.87,0,2.61,2.68,5.93,6.14,9.23,10.11,11.88,14.3,13.17,21.11,13.17,23.4,0,12.28-11.42,22.27-23.77,22.35-.05,0-39.32-.03-39.32-.03-.33,0-.6.26-.6.59v11.88c0,.33.27.59.6.59h39.33c19.75-.1,36.53-15.96,36.53-35.44Z"/>
      </g>
    </g>
  </g>
</svg>