<?xml version="1.0" encoding="utf-8"?>
<!-- Generator: Adobe Illustrator 25.3.1, SVG Export Plug-In . SVG Version: 6.00 Build 0)  -->
<svg version="1.1" id="Layer_1" xmlns="http://www.w3.org/2000/svg" xmlns:xlink="http://www.w3.org/1999/xlink" x="0px" y="0px"
	 viewBox="0 0 566.9 566.9" style="enable-background:new 0 0 566.9 566.9;" xml:space="preserve">
<style type="text/css">
	.st0{fill:#FFFFFF;}
</style>
<g>
	<circle cx="283.5" cy="283.5" r="250"/>
	<g>
		<path class="st0" d="M183.7,214.3h-3.2c-7.3,0-13.1,5.9-13.1,13.1v112.1c0,7.3,5.9,13.1,13.1,13.1h3.2c7.3,0,13.1-5.9,13.1-13.1
			V227.4C196.8,220.1,190.9,214.3,183.7,214.3z"/>
		<path class="st0" d="M304.3,165H299c-3.7,0-7,2.5-8,6.1l-59,220.3c-1.4,5.2,2.5,10.4,8,10.4h5.3c3.7,0,7-2.5,8-6.1l59-220.3
			C313.7,170.2,309.7,165,304.3,165L304.3,165z"/>
		<path class="st0" d="M382.9,210.8h-3.3c-15.1,0-41,5.5-41,44.7v55.9c0,39.2,25.9,44.7,41,44.7h3.3c15.1,0,41-5.5,41-44.7
			c0-15.5,0-40.4,0-55.9C423.9,216.3,398,210.8,382.9,210.8L382.9,210.8z M394.3,313c0,7.5-5.2,14.4-13.1,14.4s-13.1-7.1-13.1-14.4
			c0-7.2,0-51.9,0-59.1c0-7.2,5.2-14.4,13.1-14.4s13.1,6.8,13.1,14.4V313z"/>
	</g>
</g>
</svg>
