<?xml version="1.0" encoding="utf-8"?>
<!-- Generator: Adobe Illustrator 26.4.1, SVG Export Plug-In . SVG Version: 6.00 Build 0)  -->
<svg version="1.1" id="Layer_1" xmlns="http://www.w3.org/2000/svg" xmlns:xlink="http://www.w3.org/1999/xlink" x="0px" y="0px"
	 viewBox="0 0 1022.6 443.2" style="enable-background:new 0 0 1022.6 443.2;" xml:space="preserve">
<style type="text/css">
	.st0{fill:#FFFFFF;}
	.st1{fill:#66707A;}
</style>
<g>
	<g>
		<path d="M227.8,4.4c-120.1,0-217.5,97.4-217.5,217.5s97.4,217.5,217.5,217.5S445.3,342,445.3,221.9S347.9,4.4,227.8,4.4"/>
		<path class="st0" d="M314.3,158.8h-2.9c-13.2,0-35.7,4.8-35.7,38.9v48.6c0,34.1,22.6,38.9,35.7,38.9h2.9
			c13.2,0,35.7-4.8,35.7-38.9v-48.6C350,163.6,327.4,158.8,314.3,158.8L314.3,158.8z M324.3,247.6c0,6.6-4.5,12.5-11.4,12.5
			s-11.4-6.2-11.4-12.5v-51.4c0-6.3,4.5-12.5,11.4-12.5s11.4,6,11.4,12.5V247.6z M252.9,128l-51.4,191.7c-0.8,3.1-3.7,5.3-6.9,5.3
			H190c-4.7,0-8.2-4.5-6.9-9l51.4-191.7c0.8-3.1,3.7-5.3,6.9-5.3h4.6C250.7,118.9,254.1,123.4,252.9,128 M152.4,270.7
			c0,6.3-5.1,11.4-11.4,11.4h-2.8c-6.3,0-11.4-5.1-11.4-11.4v-97.6c0-6.3,5.1-11.4,11.4-11.4h2.8c6.3,0,11.4,5.1,11.4,11.4V270.7z"
			/>
	</g>
	<path d="M919,247.3c-4.2,0-7.6,3.4-7.6,7.6c0,4.2,3.4,7.6,7.6,7.6s7.6-3.4,7.6-7.6C926.7,250.7,923.3,247.3,919,247.3 M978.6,209.8
		v30.8c0,6.9,2.5,11.5,9.3,11.5c6.1,0,9-3.8,9-11.7v-30.7c0-6.3-2.2-11.1-9.2-11.1C981.5,198.7,978.6,202.7,978.6,209.8
		 M1012.2,210.5V240c0,15.9-9.2,23.6-24.6,23.6c-15.8,0-24.2-7.8-24.2-23.5V210c0-15.4,10-22.8,24.8-22.8
		C1003.4,187.3,1012.2,195.5,1012.2,210.5 M936.8,188.4h15.1v74.1h-15.1V188.4z M936.8,162.1h15.3v15.4h-15.3V162.1z M888.7,218.4
		V210c0-6.8-1.5-11.8-8.8-11.8c-6.8,0-9.2,4.3-9.2,12v8.2H888.7z M870.6,228.7V240c0,6.5,1.5,12.7,9,12.7s8.6-5.5,8.6-11.5v-0.4H903
		v0.4c0,8.1-2,22.5-23.1,22.5c-20.5,0-24.2-11.1-24.2-26.1V212c0-10.5,4.2-24.6,24.2-24.6c17.8,0,23.4,10.7,23.4,24.6v16.7H870.6z
		 M830.4,218.4V210c0-6.8-1.5-11.8-8.8-11.8c-6.8,0-9.2,4.3-9.2,12v8.2H830.4z M812.2,228.7V240c0,6.5,1.5,12.7,9,12.7
		s8.7-5.5,8.7-11.5v-0.4h14.8v0.4c0,8.1-2,22.5-23,22.5c-20.5,0-24.2-11.1-24.2-26.1V212c0-10.5,4.2-24.6,24.2-24.6
		c17.8,0,23.4,10.7,23.4,24.6v16.7H812.2z M745.4,253.7c3.2-5.9,18.7-36.2,27.8-53.5H748v-11.8h42v9.1c-1.9,4-20,40.1-27,53.2h27.3
		l-1.4,11.8h-43.6L745.4,253.7z M721,228.1h-3.6c-8.6,0-14.2,3-14.2,12.8v1.1c0,5.9,2.4,10.2,8.3,10.2c6.8,0,9.5-4.2,9.5-14.7V228.1
		z M735.8,248.4c0,4.8,0,11.5,0.3,14.1h-13.9c-0.3-1.6-1-4.6-1-5.6c-2.9,4.9-8,6.8-14.4,6.8c-12.9,0-18-9.9-18-21.3V241
		c0-17.6,13.6-22.9,29.2-22.9h2.7v-10.4c0-6.2-1-9.8-7-9.8c-5.8,0-7.3,3.8-7.3,8.9v1.4h-14.9V207c0-10.5,4.8-19.7,22.7-19.7
		c16.1,0,21.5,7.9,21.5,19.4L735.8,248.4z M600.8,209.9c0-14.3,0-18-0.2-21.5H615c0.5,2.2,0.5,4.2,0.7,6.6c2.7-4.9,7.8-7.8,15.1-7.8
		c7,0,11.7,2.4,13.7,8.2c2.9-4.3,7.5-8.2,16.4-8.2c9.2,0,17,3.8,17,18.2v57.1h-15.3v-54.6c0-5.5-1.5-8.9-7.1-8.9
		c-7,0-8.6,4.9-8.6,12.5v51h-15.3v-54.2c0-7.4-2.4-9.4-7.3-9.4c-7,0-8.5,5-8.5,12.7v50.9h-15.1L600.8,209.9z M570.7,228.1h-3.6
		c-8.7,0-14.2,3-14.2,12.8v1.1c0,5.9,2.4,10.2,8.3,10.2c6.8,0,9.5-4.2,9.5-14.7V228.1z M585.4,248.4c0,4.8,0,11.5,0.3,14.1h-13.9
		c-0.3-1.6-1-4.6-1-5.6c-2.9,4.9-8,6.8-14.4,6.8c-12.9,0-18-9.9-18-21.3V241c0-17.6,13.6-22.9,29.2-22.9h2.7v-10.4
		c0-6.2-1-9.8-7-9.8c-5.8,0-7.3,3.8-7.3,8.9v1.4h-14.9V207c0-10.5,4.8-19.7,22.7-19.7c16.1,0,21.5,7.9,21.5,19.4L585.4,248.4z"/>
	<g>
		<path class="st1" d="M693.7,339.1c1-1.3,2.2-2.3,3.6-3.1s2.9-1.2,4.7-1.2c1.4,0,2.7,0.3,3.8,0.8c1.2,0.5,2.1,1.3,2.9,2.4
			s1.4,2.4,1.9,3.9c0.4,1.6,0.7,3.4,0.7,5.4c0,1.8-0.2,3.5-0.7,5c-0.5,1.6-1.2,2.9-2.1,4s-2,2-3.3,2.7c-1.3,0.6-2.8,1-4.4,1
			c-1.5,0-2.8-0.2-3.9-0.8s-2-1.2-2.8-2.1v10.8h-4.3v-32.8h2.6c0.6,0,1,0.3,1.1,0.9L693.7,339.1z M693.9,354
			c0.8,1.1,1.7,1.8,2.6,2.2s2,0.6,3.2,0.6c2.3,0,4-0.8,5.3-2.4c1.2-1.6,1.8-4,1.8-7c0-1.6-0.1-3-0.4-4.1s-0.7-2.1-1.2-2.8
			s-1.2-1.3-2-1.6s-1.7-0.5-2.6-0.5c-1.4,0-2.6,0.3-3.7,1s-2,1.6-2.9,2.7L693.9,354z"/>
		<path class="st1" d="M716.1,338.8c1.4-1.3,2.8-2.3,4.4-2.9s3.3-1,5.2-1c1.4,0,2.6,0.2,3.7,0.7s2,1.1,2.7,1.9s1.3,1.8,1.7,2.9
			s0.6,2.4,0.6,3.8v15.7h-1.9c-0.4,0-0.7-0.1-1-0.2c-0.2-0.1-0.4-0.4-0.5-0.8l-0.5-2.3c-0.7,0.6-1.3,1.1-1.9,1.6s-1.3,0.9-1.9,1.2
			s-1.4,0.6-2.2,0.7c-0.8,0.2-1.6,0.2-2.5,0.2c-1,0-1.8-0.1-2.7-0.4s-1.6-0.7-2.2-1.2s-1.1-1.2-1.5-2s-0.5-1.8-0.5-2.9
			c0-1,0.3-1.9,0.8-2.8s1.4-1.7,2.6-2.4s2.8-1.3,4.7-1.7s4.3-0.7,7.1-0.8v-1.9c0-1.9-0.4-3.3-1.2-4.3s-2-1.5-3.6-1.5
			c-1.1,0-2,0.1-2.7,0.4s-1.3,0.6-1.9,0.9c-0.5,0.3-1,0.6-1.4,0.9s-0.8,0.4-1.1,0.4s-0.5-0.1-0.8-0.2c-0.2-0.1-0.4-0.3-0.5-0.6
			L716.1,338.8z M730,348.8c-2,0.1-3.7,0.2-5.1,0.5c-1.4,0.2-2.5,0.6-3.4,1s-1.5,0.9-1.9,1.4s-0.6,1.2-0.6,1.8s0.1,1.2,0.3,1.7
			s0.5,0.9,0.9,1.1s0.8,0.5,1.3,0.6s1,0.2,1.6,0.2c0.8,0,1.5-0.1,2.1-0.2s1.2-0.4,1.8-0.7s1.1-0.6,1.6-1s1-0.9,1.5-1.4L730,348.8z"
			/>
		<path class="st1" d="M744.8,340.3c0.8-1.7,1.7-3,2.9-3.9s2.5-1.4,4.1-1.4c0.5,0,1,0.1,1.5,0.2s0.9,0.3,1.3,0.5l-0.3,3.2
			c-0.1,0.4-0.3,0.6-0.7,0.6c-0.2,0-0.6,0-1-0.1s-0.9-0.1-1.5-0.1c-0.8,0-1.5,0.1-2.1,0.3s-1.2,0.6-1.6,1c-0.5,0.4-0.9,1-1.3,1.6
			s-0.7,1.4-1,2.2v15.5h-4.3v-24.5h2.5c0.5,0,0.8,0.1,1,0.3s0.3,0.5,0.4,0.9L744.8,340.3z"/>
		<path class="st1" d="M765.9,360.3c-1.9,0-3.4-0.5-4.5-1.6c-1-1.1-1.6-2.6-1.6-4.7v-15h-3c-0.3,0-0.5-0.1-0.7-0.2s-0.3-0.4-0.3-0.7
			v-1.7l4-0.5l1-7.6c0-0.2,0.2-0.4,0.3-0.6c0.2-0.1,0.4-0.2,0.7-0.2h2.2v8.5h7.1v3.1H764v14.7c0,1,0.2,1.8,0.8,2.3s1.2,0.8,1.9,0.8
			c0.5,0,0.8-0.1,1.2-0.2c0.3-0.1,0.6-0.2,0.9-0.4s0.5-0.3,0.6-0.4s0.3-0.2,0.5-0.2s0.4,0.1,0.6,0.4l1.3,2.1
			c-0.7,0.7-1.6,1.2-2.7,1.6C768.1,360.1,767,360.3,765.9,360.3L765.9,360.3z"/>
		<path class="st1" d="M798.5,335c1.8,0,3.4,0.3,4.8,0.9s2.7,1.5,3.7,2.5c1,1.1,1.8,2.4,2.3,4s0.8,3.3,0.8,5.2s-0.3,3.7-0.8,5.2
			s-1.3,2.9-2.3,4s-2.2,1.9-3.7,2.5s-3,0.9-4.8,0.9s-3.4-0.3-4.9-0.9s-2.7-1.4-3.7-2.5s-1.8-2.4-2.3-4c-0.5-1.5-0.8-3.3-0.8-5.2
			s0.3-3.7,0.8-5.2s1.3-2.9,2.3-4s2.2-1.9,3.7-2.5C795,335.3,796.7,335,798.5,335z M798.5,356.8c2.4,0,4.2-0.8,5.4-2.4
			s1.8-3.9,1.8-6.8s-0.6-5.2-1.8-6.8s-3-2.4-5.4-2.4c-1.2,0-2.3,0.2-3.2,0.6s-1.7,1-2.3,1.8s-1.1,1.8-1.4,2.9s-0.5,2.5-0.5,3.9
			c0,2.9,0.6,5.2,1.8,6.8C794.2,356,796,356.8,798.5,356.8L798.5,356.8z"/>
		<path class="st1" d="M816.6,359.9V339l-2.7-0.3c-0.3-0.1-0.6-0.2-0.8-0.4s-0.3-0.4-0.3-0.7v-1.8h3.9v-2.4c0-1.4,0.2-2.6,0.6-3.7
			s1-2,1.7-2.8s1.6-1.3,2.7-1.7c1-0.4,2.2-0.6,3.5-0.6c1.1,0,2.1,0.2,3,0.5l-0.1,2.1c0,0.4-0.2,0.6-0.6,0.6s-0.9,0-1.6,0
			s-1.4,0.1-2,0.3s-1.1,0.5-1.6,0.9c-0.4,0.4-0.8,1-1,1.7s-0.3,1.6-0.3,2.6v2.2h7.1v3.1H821v20.9L816.6,359.9z"/>
		<path class="st1" d="M880.6,325.2v34.7h-4.1v-25.5c0-0.3,0-0.7,0-1.1s0-0.8,0.1-1.2l-11.9,21.7c-0.4,0.7-0.9,1.1-1.7,1.1h-0.7
			c-0.8,0-1.3-0.4-1.7-1.1L848.5,332c0.1,0.9,0.2,1.6,0.2,2.4v25.5h-4.1v-34.7h3.5c0.4,0,0.7,0,1,0.1s0.4,0.3,0.7,0.7l12,21.4
			c0.2,0.4,0.4,0.8,0.6,1.2s0.4,0.9,0.5,1.3c0.2-0.4,0.3-0.9,0.5-1.3s0.4-0.8,0.6-1.2l11.8-21.3c0.2-0.4,0.4-0.6,0.6-0.7
			s0.6-0.1,1-0.1L880.6,325.2z"/>
		<path class="st1" d="M893.6,327.6c0,0.4-0.1,0.8-0.2,1.2s-0.4,0.7-0.7,1s-0.6,0.5-1,0.7s-0.8,0.2-1.2,0.2s-0.8-0.1-1.2-0.2
			s-0.7-0.4-1-0.7s-0.5-0.6-0.7-1s-0.2-0.8-0.2-1.2s0.1-0.8,0.2-1.2s0.4-0.7,0.7-1s0.6-0.5,1-0.7s0.8-0.2,1.2-0.2s0.8,0.1,1.2,0.2
			s0.7,0.4,1,0.7s0.5,0.6,0.7,1C893.5,326.8,893.6,327.2,893.6,327.6z M892.6,335.3v24.5h-4.3v-24.5H892.6z"/>
		<path class="st1" d="M903.8,340.3c0.8-1.7,1.7-3,2.9-3.9s2.5-1.4,4.1-1.4c0.5,0,1,0.1,1.5,0.2s0.9,0.3,1.3,0.5l-0.3,3.2
			c-0.1,0.4-0.3,0.6-0.7,0.6c-0.2,0-0.6,0-1-0.1s-0.9-0.1-1.5-0.1c-0.8,0-1.5,0.1-2.1,0.3s-1.2,0.6-1.6,1c-0.5,0.4-0.9,1-1.3,1.6
			s-0.7,1.4-1,2.2v15.5h-4.3v-24.5h2.5c0.5,0,0.8,0.1,1,0.3s0.3,0.5,0.4,0.9L903.8,340.3z"/>
		<path class="st1" d="M916.3,338.8c1.4-1.3,2.8-2.3,4.4-2.9s3.3-1,5.2-1c1.4,0,2.6,0.2,3.7,0.7s2,1.1,2.7,1.9s1.3,1.8,1.7,2.9
			s0.6,2.4,0.6,3.8v15.7h-1.9c-0.4,0-0.7-0.1-1-0.2c-0.2-0.1-0.4-0.4-0.5-0.8l-0.5-2.3c-0.7,0.6-1.3,1.1-1.9,1.6s-1.3,0.9-1.9,1.2
			s-1.4,0.6-2.2,0.7c-0.8,0.2-1.6,0.2-2.5,0.2c-1,0-1.8-0.1-2.7-0.4s-1.6-0.7-2.2-1.2s-1.1-1.2-1.5-2s-0.5-1.8-0.5-2.9
			c0-1,0.3-1.9,0.8-2.8s1.4-1.7,2.6-2.4s2.8-1.3,4.7-1.7s4.3-0.7,7.1-0.8v-1.9c0-1.9-0.4-3.3-1.2-4.3s-2-1.5-3.6-1.5
			c-1.1,0-2,0.1-2.7,0.4s-1.3,0.6-1.9,0.9c-0.5,0.3-1,0.6-1.4,0.9s-0.8,0.4-1.1,0.4s-0.5-0.1-0.8-0.2c-0.2-0.1-0.4-0.3-0.5-0.6
			L916.3,338.8z M930.2,348.8c-2,0.1-3.7,0.2-5.1,0.5c-1.4,0.2-2.5,0.6-3.4,1s-1.5,0.9-1.9,1.4s-0.6,1.2-0.6,1.8s0.1,1.2,0.3,1.7
			s0.5,0.9,0.9,1.1s0.8,0.5,1.3,0.6s1,0.2,1.6,0.2c0.8,0,1.5-0.1,2.1-0.2s1.2-0.4,1.8-0.7s1.1-0.6,1.6-1s1-0.9,1.5-1.4L930.2,348.8z
			"/>
		<path class="st1" d="M945.1,338.9c0.5-0.6,1.1-1.1,1.7-1.6s1.2-0.9,1.9-1.2c0.7-0.4,1.4-0.6,2.1-0.8s1.6-0.3,2.4-0.3
			c1.3,0,2.5,0.2,3.5,0.7c1,0.4,1.9,1.1,2.6,1.9s1.2,1.8,1.6,2.9c0.3,1.1,0.5,2.4,0.5,3.8v15.6h-4.3v-15.6c0-1.9-0.4-3.3-1.3-4.3
			c-0.8-1-2.1-1.5-3.9-1.5c-1.3,0-2.5,0.3-3.6,0.9s-2.1,1.4-3.1,2.5V360H941v-24.5h2.6c0.6,0,1,0.3,1.1,0.9L945.1,338.9z"/>
		<path class="st1" d="M975.2,360.3c-1.9,0-3.4-0.5-4.5-1.6c-1-1.1-1.6-2.6-1.6-4.7v-15h-3c-0.3,0-0.5-0.1-0.7-0.2s-0.3-0.4-0.3-0.7
			v-1.7l4-0.5l1-7.6c0-0.2,0.2-0.4,0.3-0.6c0.2-0.1,0.4-0.2,0.7-0.2h2.2v8.5h7.1v3.1h-7.1v14.7c0,1,0.2,1.8,0.8,2.3s1.2,0.8,1.9,0.8
			c0.5,0,0.8-0.1,1.2-0.2c0.3-0.1,0.6-0.2,0.9-0.4s0.5-0.3,0.6-0.4s0.3-0.2,0.4-0.2c0.2,0,0.4,0.1,0.6,0.4l1.3,2.1
			c-0.7,0.7-1.6,1.2-2.7,1.6C977.4,360.1,976.3,360.3,975.2,360.3L975.2,360.3z"/>
		<path class="st1" d="M991.3,327.6c0,0.4-0.1,0.8-0.2,1.2s-0.4,0.7-0.7,1s-0.6,0.5-1,0.7s-0.8,0.2-1.2,0.2s-0.8-0.1-1.2-0.2
			s-0.7-0.4-1-0.7s-0.5-0.6-0.7-1s-0.2-0.8-0.2-1.2s0.1-0.8,0.2-1.2s0.4-0.7,0.7-1s0.6-0.5,1-0.7s0.8-0.2,1.2-0.2s0.8,0.1,1.2,0.2
			s0.7,0.4,1,0.7s0.5,0.6,0.7,1C991.2,326.8,991.3,327.2,991.3,327.6z M990.4,335.3v24.5H986v-24.5H990.4z"/>
		<path class="st1" d="M1011.7,339.4c-0.2,0.4-0.5,0.5-0.9,0.5c-0.2,0-0.5-0.1-0.8-0.3s-0.7-0.4-1.1-0.6s-1-0.4-1.6-0.6
			s-1.3-0.3-2.2-0.3c-0.7,0-1.4,0.1-2,0.3s-1.1,0.4-1.5,0.8s-0.7,0.7-0.9,1.1s-0.3,0.9-0.3,1.4c0,0.6,0.2,1.1,0.5,1.6
			s0.8,0.8,1.4,1.1s1.3,0.6,2,0.8s1.5,0.5,2.3,0.8s1.6,0.6,2.3,0.9s1.4,0.7,2,1.2s1.1,1.1,1.4,1.8s0.5,1.5,0.5,2.5
			c0,1.1-0.2,2.2-0.6,3.1s-1,1.8-1.8,2.5s-1.8,1.2-2.9,1.7c-1.2,0.4-2.5,0.6-4,0.6c-1.7,0-3.3-0.3-4.7-0.8s-2.6-1.3-3.5-2.1l1-1.6
			c0.1-0.2,0.3-0.4,0.5-0.5s0.4-0.2,0.7-0.2s0.6,0.1,0.9,0.3s0.7,0.5,1.2,0.8s1,0.5,1.7,0.8s1.5,0.3,2.5,0.3c0.8,0,1.6-0.1,2.2-0.3
			s1.2-0.5,1.6-0.9s0.7-0.8,0.9-1.3s0.3-1,0.3-1.5c0-0.7-0.2-1.2-0.5-1.7s-0.8-0.8-1.4-1.1s-1.3-0.6-2-0.8c-0.8-0.2-1.6-0.5-2.3-0.7
			c-0.8-0.3-1.6-0.5-2.3-0.9c-0.8-0.3-1.4-0.8-2.1-1.2c-0.6-0.5-1.1-1.1-1.4-1.9s-0.6-1.6-0.6-2.7c0-0.9,0.2-1.8,0.6-2.7
			s0.9-1.6,1.7-2.3c0.7-0.6,1.7-1.2,2.7-1.6c1.1-0.4,2.3-0.6,3.7-0.6c1.6,0,3.1,0.2,4.3,0.8c1.3,0.5,2.4,1.2,3.3,2.1L1011.7,339.4z"
			/>
	</g>
</g>
</svg>
