<?xml version="1.0" encoding="utf-8"?>
<svg version="1.1" id="Layer_1" xmlns="http://www.w3.org/2000/svg" xmlns:xlink="http://www.w3.org/1999/xlink" x="0px" y="0px"
     viewBox="0 0 270 44" style="enable-background:new 0 0 270 44;" xml:space="preserve" fill="#D1423D">
<path id="main-logo-r" d="M264.9,17.2l-1.2-2.6h-2V31h3.2v-6.1c0-5.2,3.1-7.4,5.2-7.4v-3.1C268.5,14.4,266,15.3,264.9,17.2
	L264.9,17.2z"/>
  <path id="main-logo-m-2" d="M213,14.4c-2,0-3.8,1.2-4.8,3.4c-0.5-2-2.2-3.4-4.3-3.4c-1.9,0-3.4,1-4.7,3.1l-1.2-2.8h-2V31h3.2v-6.2
	c0-4.9,1.7-7.4,3.6-7.4c1.4,0,2.3,0.9,2.3,2.7v11h3.2v-6.6c0-4.5,1.7-7.1,3.6-7.1c1.4,0,2.3,0.9,2.3,2.7v11h3.2V19.3
	C217.4,16.4,215.8,14.4,213,14.4L213,14.4z"/>
  <path id="main-logo-o" d="M185.9,14.4c-4.8,0-7.7,3.8-7.7,8.5c0,4.6,2.8,8.5,7.7,8.5c4.8,0,7.7-3.8,7.7-8.5
	C193.6,18.2,190.7,14.4,185.9,14.4L185.9,14.4z M185.9,28.3c-2.8,0-4.3-2.7-4.3-5.5s1.4-5.5,4.3-5.5c2.8,0,4.3,2.7,4.3,5.5
	S188.7,28.3,185.9,28.3L185.9,28.3z"/>
  <path id="main-logo-s-2" d="M171.8,21.3c-1.6-0.6-2.8-1.2-2.8-2.3c0-1.1,0.7-1.6,1.5-1.6s1.6,0.3,2.3,1l2.2-1.8
	c-1-1.4-2.6-2.2-4.3-2.2c-2.8,0-4.8,2.1-4.8,4.6s1.5,3.7,3.3,4.5s3.7,1.2,3.7,2.6c0,1.5-0.9,2.1-2.1,2.1c-1.4,0-2.4-1-3-2.1
	l-2.7,1.6c1,1.8,2.8,3.5,5.6,3.5c3.3,0,5.4-2.4,5.4-5.2C176.1,23.2,173.9,22.2,171.8,21.3L171.8,21.3z"/>
  <path id="main-logo-m_1_" d="M237.9,14.4c-2,0-3.8,1.2-4.8,3.4c-0.5-2-2.2-3.4-4.3-3.4c-1.9,0-3.4,1-4.7,3.1l-1.2-2.8h-2V31h3.2
	v-6.2c0-4.9,1.7-7.4,3.6-7.4c1.4,0,2.3,0.9,2.3,2.7v11h3.2v-6.6c0-4.5,1.7-7.1,3.6-7.1c1.4,0,2.3,0.9,2.3,2.7v11h3.2V19.3
	C242.3,16.4,240.7,14.4,237.9,14.4L237.9,14.4z"/>
  <path id="main-logo-a-2" d="M55,14.4c-2.1,0-3.8,0.9-4.9,2.3l2.4,2c0.6-0.9,1.5-1.3,2.5-1.3c1.6,0,3,0.8,3,2.9V21h-2.7
	c-4,0-6.7,2-6.7,5.4s2.2,5,4.8,5c2.2,0,3.8-0.9,4.8-2.4l1,2.1h2V20.8C61.2,16,58.6,14.4,55,14.4L55,14.4z M58,24.1
	c0,2.8-2.1,4.2-4.1,4.2c-1.4,0-1.9-0.9-1.9-2c0-1.6,1.2-2.5,3.2-2.5H58V24.1L58,24.1z"/>
  <path id="main-logo-m" d="M81.5,14.4c-2,0-3.8,1.2-4.8,3.4c-0.5-2-2.2-3.4-4.3-3.4c-1.9,0-3.4,1-4.7,3.1l-1.2-2.8h-2V31h3.2v-6.2
	c0-4.9,1.7-7.4,3.6-7.4c1.4,0,2.3,0.9,2.3,2.7v11h3.2v-6.6c0-4.5,1.7-7.1,3.6-7.1c1.4,0,2.3,0.9,2.3,2.7v11h3.2V19.3
	C85.9,16.4,84.3,14.4,81.5,14.4L81.5,14.4z"/>
  <path id="main-logo-d" d="M116.1,16.5c-0.7-1.1-2.6-2.1-4.2-2.1c-4.7,0-7,3.4-7,8.5c0,5.2,2.3,8.5,6.9,8.5c2,0,3.7-1.2,4.2-2.1
	l1.2,1.9h2V8.4H116L116.1,16.5L116.1,16.5z M112.3,28.3c-2.3,0-4-2.1-4-5.5s1.7-5.5,4-5.5s4,2.1,4,5.5S114.6,28.3,112.3,28.3
	L112.3,28.3z"/>
  <polygon id="main-logo-i" points="123.1,31 126.3,31 126.3,14.6 123.1,14.6 "/>
  <path id="main-logo-e-2" d="M95.5,14.4c-5.1,0-7.3,4.6-7.3,8.5s2.1,8.5,7.3,8.5c2.6,0,4.3-0.8,5.5-2.5L98.7,27
	c-0.9,0.9-2,1.5-3.2,1.5c-2.5,0-3.9-2.1-3.9-4.5h11v-1.5C102.7,18.6,100.5,14.4,95.5,14.4L95.5,14.4z M91.8,20.9
	c0.3-2,1.7-3.6,3.8-3.6c2.3,0,3.5,1.8,3.8,3.6H91.8L91.8,20.9z"/>
  <path id="main-logo-c" d="M136.5,17.4c1.4,0,2.5,0.6,3.2,1.7l2.4-2c-1.3-1.7-3.2-2.7-5.7-2.7c-4.9,0-7.3,4-7.3,8.5s2.4,8.5,7.3,8.5
	c2.5,0,4.3-0.9,5.6-2.5l-2.4-2c-0.8,1-1.8,1.6-3.1,1.6c-2.7,0-3.9-2.4-3.9-5.5C132.6,19.7,133.8,17.4,136.5,17.4L136.5,17.4z"/>
  <polygon id="main-logo-k" points="157.8,14.6 153.7,14.6 148.1,21.2 148.1,8.4 144.9,8.4 144.9,31 148.1,31 148.1,23.2 154.1,31 
	158.2,31 151.3,22.2 "/>
  <path id="main-logo-e" d="M252.1,14.4c-5.1,0-7.3,4.6-7.3,8.5s2.1,8.5,7.3,8.5c2.6,0,4.3-0.8,5.5-2.5l-2.3-1.9
	c-0.9,0.9-2,1.5-3.2,1.5c-2.5,0-3.9-2.1-3.9-4.5h11v-1.5C259.3,18.6,257.1,14.4,252.1,14.4L252.1,14.4z M248.3,20.9
	c0.3-2,1.7-3.6,3.8-3.6c2.3,0,3.5,1.8,3.8,3.6H248.3L248.3,20.9z"/>
  <path id="main-logo-dot" d="M124.7,8c-1.1,0-2,0.9-2,2.1s0.8,2,2,2s2-0.9,2-2S125.8,8,124.7,8L124.7,8z"/>
  <path id="main-logo-circle" d="M22,0.2c-12,0-21.9,9.8-21.9,22S9.9,44.1,22,44.1S44,34.3,44,22.2C44.1,10,34.2,0.2,22,0.2L22,0.2z
	 M22,40.8c-10.3,0-18.7-8.4-18.7-18.7S11.7,3.5,22,3.5s18.7,8.4,18.7,18.7C40.8,32.5,32.4,40.8,22,40.8L22,40.8z"/>
  <path id="main-logo-a" d="M16.1,10.5c-2.1,0-3.8,0.9-4.9,2.3l2.4,2c0.6-0.9,1.5-1.3,2.5-1.3c1.6,0,3,0.8,3,2.9V17h-2.7
	c-4,0-6.7,2-6.7,5.4s2.2,5,4.8,5c2.2,0,3.8-0.9,4.8-2.4l1,2.1h2V16.9C22.3,12.1,19.7,10.5,16.1,10.5L16.1,10.5z M19.1,20.2
	c0,2.8-2.1,4.2-4.1,4.2c-1.4,0-1.9-0.9-1.9-2c0-1.6,1.2-2.5,3.2-2.5h2.8V20.2L19.1,20.2z"/>
  <path id="main-logo-s" d="M30.7,23.9c-1.6-0.6-2.8-1.2-2.8-2.3c0-1.1,0.7-1.6,1.5-1.6s1.6,0.3,2.3,1l2.2-1.8c-1-1.4-2.6-2.2-4.3-2.2
	c-2.8,0-4.8,2.1-4.8,4.6s1.5,3.7,3.3,4.5s3.7,1.2,3.7,2.6c0,1.5-0.9,2.1-2.1,2.1c-1.4,0-2.4-1-3-2.1L24,30.3c1,1.8,2.8,3.5,5.6,3.5
	c3.3,0,5.4-2.4,5.4-5.2C35.1,25.7,32.8,24.7,30.7,23.9L30.7,23.9z"/>
</svg>
