<?xml version="1.0" encoding="utf-8"?>
<svg version="1.1" id="Layer_1" xmlns="http://www.w3.org/2000/svg" xmlns:xlink="http://www.w3.org/1999/xlink" x="0px" y="0px"
     viewBox="0 0 44 44" style="enable-background:new 0 0 44 44;" xml:space="preserve" fill="#D1423D">
  <path id="main-logo-circle" d="M22,0.2c-12,0-21.9,9.8-21.9,22S9.9,44.1,22,44.1S44,34.3,44,22.2C44.1,10,34.2,0.2,22,0.2L22,0.2z
	 M22,40.8c-10.3,0-18.7-8.4-18.7-18.7S11.7,3.5,22,3.5s18.7,8.4,18.7,18.7C40.8,32.5,32.4,40.8,22,40.8L22,40.8z"/>
  <path id="main-logo-a" d="M16.1,10.5c-2.1,0-3.8,0.9-4.9,2.3l2.4,2c0.6-0.9,1.5-1.3,2.5-1.3c1.6,0,3,0.8,3,2.9V17h-2.7
	c-4,0-6.7,2-6.7,5.4s2.2,5,4.8,5c2.2,0,3.8-0.9,4.8-2.4l1,2.1h2V16.9C22.3,12.1,19.7,10.5,16.1,10.5L16.1,10.5z M19.1,20.2
	c0,2.8-2.1,4.2-4.1,4.2c-1.4,0-1.9-0.9-1.9-2c0-1.6,1.2-2.5,3.2-2.5h2.8V20.2L19.1,20.2z"/>
  <path id="main-logo-s" d="M30.7,23.9c-1.6-0.6-2.8-1.2-2.8-2.3c0-1.1,0.7-1.6,1.5-1.6s1.6,0.3,2.3,1l2.2-1.8c-1-1.4-2.6-2.2-4.3-2.2
	c-2.8,0-4.8,2.1-4.8,4.6s1.5,3.7,3.3,4.5s3.7,1.2,3.7,2.6c0,1.5-0.9,2.1-2.1,2.1c-1.4,0-2.4-1-3-2.1L24,30.3c1,1.8,2.8,3.5,5.6,3.5
	c3.3,0,5.4-2.4,5.4-5.2C35.1,25.7,32.8,24.7,30.7,23.9L30.7,23.9z"/>
</svg>
