<?xml version="1.0" standalone="no"?>
<!DOCTYPE svg PUBLIC "-//W3C//DTD SVG 20010904//EN"
 "http://www.w3.org/TR/2001/REC-SVG-20010904/DTD/svg10.dtd">
<svg version="1.0" xmlns="http://www.w3.org/2000/svg"
 width="14878.000000pt" height="3875.000000pt" viewBox="0 0 14878.000000 3875.000000"
 preserveAspectRatio="xMidYMid meet">
<defs><style>.cls-1{fill:#444545;}.cls-2{fill:#e74648;}@media(prefers-color-scheme:dark){.cls-1{fill:#bbbaba;}}</style></defs>
<g transform="translate(0.000000,3875.000000) scale(0.100000,-0.100000)">
<path class="cls-2" d="M3655 22958 c-2001 -8549 -3641 -15551 -3643 -15561 -4 -16 39 -17
799 -17 l804 0 3489 14843 c1918 8163 3490 14845 3493 14850 2 4 1452 7 3221
7 2672 -1 3230 -3 3292 -14 254 -47 459 -201 570 -431 38 -77 186 -703 2146
-9041 1158 -4928 2700 -11490 3427 -14584 l1322 -5625 440 0 c427 0 442 1 518
23 346 100 570 408 554 762 -4 97 -203 949 -2535 10835 -1392 5902 -2934
12440 -3426 14530 -493 2090 -912 3850 -931 3910 -151 481 -557 868 -1047
1000 -216 58 61 55 -4586 55 l-4267 0 -3640 -15542z"/>
<path class="cls-1" d="M10719 35943 l-1257 -3 -20 -83 c-57 -228 -6792 -28455 -6792 -28465
0 -9 607 -12 2565 -12 2559 0 2566 0 2626 20 77 26 101 41 167 104 55 52 102
131 121 201 5 22 184 1017 396 2210 254 1431 585 3235 970 5295 321 1719 908
4898 1304 7065 396 2167 728 3966 736 3998 36 136 116 235 233 290 56 26 82
32 158 35 113 5 178 -12 266 -71 70 -47 135 -133 162 -214 35 -108 1508 -8122
2046 -11138 425 -2382 1361 -7553 1406 -7768 l6 -27 2675 0 2675 0 -6 26 c-4
14 -1444 6324 -3202 14022 -1757 7698 -3202 14022 -3210 14052 -46 160 -174
315 -324 389 -165 81 -59 75 -1320 76 -619 0 -1690 -1 -2381 -2z"/>
<path class="cls-2" d="M10415 17488 c-2 -7 -218 -1118 -480 -2468 -262 -1350 -478 -2461
-480 -2468 -4 -10 427 -12 2188 -10 l2192 3 65 22 c196 67 360 231 421 423 14
42 23 102 26 170 4 104 0 127 -342 1970 -190 1026 -355 1892 -365 1925 -63
193 -239 358 -450 422 -50 16 -171 18 -1413 20 -1095 3 -1358 1 -1362 -9z"/>
<path class="cls-1" d="M34663 27169 c-1538 -66 -3008 -527 -4337 -1357 -588 -368 -1113
-788 -1636 -1312 -376 -375 -602 -635 -915 -1052 -954 -1270 -1601 -2793
-1866 -4393 -51 -311 -77 -535 -121 -1035 -9 -101 -12 -1454 -15 -5327 l-3
-5193 2140 0 2140 0 3 5108 c3 5581 -1 5164 58 5587 152 1102 592 2107 1289
2945 130 156 477 504 630 632 1029 856 2263 1239 3529 1092 1269 -146 2453
-849 3286 -1949 574 -757 948 -1655 1099 -2635 66 -425 60 68 66 -5605 l5
-5140 2143 -3 2142 -2 -3 5152 c-3 3751 -7 5191 -15 5293 -51 621 -91 933
-178 1380 -291 1488 -919 2905 -1816 4100 -650 864 -1424 1604 -2288 2187
-1597 1077 -3456 1609 -5337 1527z"/>
<path class="cls-1" d="M44593 27178 c2 -7 1320 -4438 2927 -9845 l2924 -9833 2222 0 2222 0
16 48 c8 26 857 2805 1886 6177 1029 3371 1873 6132 1875 6134 3 2 7 -3 11
-12 3 -9 853 -2790 1887 -6179 l1882 -6163 2224 0 2225 0 2923 9830 c1607
5407 2923 9836 2923 9843 0 10 -449 12 -2232 10 l-2232 -3 -1807 -6080 c-994
-3344 -1811 -6091 -1815 -6105 -6 -24 -7 -24 -15 -5 -5 11 -846 2758 -1868
6105 l-1859 6085 -2244 3 -2243 2 -1865 -6105 c-1025 -3357 -1868 -6101 -1871
-6097 -4 5 -3449 11582 -3625 12185 -5 16 -120 17 -2241 17 -1784 0 -2234 -3
-2230 -12z"/>
<path class="cls-1" d="M81725 26879 c-2652 -115 -5124 -1451 -6789 -3670 -1121 -1492 -1800
-3286 -1960 -5179 -51 -601 -46 -1322 15 -1920 252 -2508 1420 -4819 3257
-6443 1320 -1167 2923 -1917 4622 -2161 419 -61 785 -86 1240 -86 349 0 554
10 870 41 1767 174 3474 908 4855 2088 414 353 860 808 1211 1237 638 777
1197 1746 1564 2709 61 158 220 619 220 636 0 5 -968 9 -2222 9 l-2223 0 -54
-93 c-353 -601 -837 -1147 -1386 -1562 -1699 -1283 -3952 -1286 -5663 -8 -275
206 -617 526 -836 783 -576 676 -992 1489 -1211 2372 -30 122 -55 226 -55 230
0 4 3153 9 7007 10 l7007 3 7 40 c61 363 96 1215 70 1720 -50 965 -203 1802
-496 2705 -228 703 -587 1482 -973 2110 -1069 1741 -2641 3086 -4457 3812
-1155 462 -2381 671 -3620 617z m895 -4123 c961 -115 1835 -503 2585 -1147
154 -132 412 -390 544 -544 131 -152 314 -395 423 -561 101 -154 211 -335 205
-340 -2 -2 -1924 -3 -4271 -2 l-4267 3 71 120 c587 987 1471 1760 2475 2163
399 160 875 277 1265 311 69 6 139 13 155 15 80 11 688 -3 815 -18z"/>
<path class="cls-2" d="M100131 27119 c-2128 -82 -4015 -783 -5366 -1992 -164 -146 -452
-437 -581 -587 -522 -605 -891 -1241 -1119 -1925 -104 -311 -164 -568 -211
-905 -22 -157 -30 -697 -15 -913 105 -1434 758 -2579 2003 -3514 1088 -818
2588 -1463 4953 -2128 2066 -582 3287 -992 4030 -1355 229 -112 332 -204 410
-365 52 -107 69 -184 69 -305 0 -228 -75 -372 -324 -621 -397 -398 -940 -678
-1645 -849 -807 -196 -1895 -234 -2715 -94 -978 167 -1717 576 -2200 1220
-363 481 -575 1105 -606 1782 l-7 142 -83 0 c-156 0 -3238 39 -3565 45 -291 5
-327 4 -333 -10 -9 -24 12 -546 29 -733 141 -1509 739 -2923 1703 -4025 1202
-1375 2919 -2212 4992 -2432 331 -35 551 -47 985 -52 616 -8 1081 16 1615 82
1882 234 3454 938 4599 2060 702 688 1179 1416 1485 2268 207 574 311 1221
278 1735 -92 1437 -885 2560 -2441 3456 -865 498 -1918 916 -3551 1410 -306
92 -506 150 -1460 426 -250 72 -543 158 -650 190 -1348 407 -2284 816 -2775
1213 -171 138 -325 325 -390 472 -56 126 -102 372 -90 480 23 213 140 469 324
710 70 93 246 269 354 356 519 419 1204 664 2107 755 347 35 1039 29 1440 -12
885 -89 1577 -336 2076 -738 97 -78 272 -253 350 -351 288 -361 498 -858 588
-1395 41 -247 48 -342 53 -792 l5 -448 1995 0 1995 0 -5 518 c-6 525 -11 619
-48 957 -143 1299 -609 2514 -1334 3480 -1173 1561 -2914 2476 -5185 2724
-548 60 -1183 82 -1739 60z"/>
<path class="cls-2" d="M118860 27159 c-1749 -116 -3383 -723 -4788 -1779 -388 -292 -660
-528 -1012 -880 -487 -486 -859 -940 -1234 -1505 -1454 -2190 -1998 -4903
-1512 -7541 436 -2359 1683 -4470 3511 -5939 1335 -1072 2923 -1742 4575
-1929 575 -66 1248 -73 1810 -20 1750 163 3398 839 4793 1967 466 376 937 840
1333 1312 699 834 1277 1826 1667 2861 347 923 550 1840 633 2864 21 263 30
1020 15 1305 -89 1699 -568 3291 -1418 4720 -143 239 -401 625 -571 850 -310
413 -527 662 -916 1051 -488 487 -882 813 -1416 1169 -1338 895 -2823 1398
-4410 1495 -192 12 -878 11 -1060 -1z m805 -4269 c88 -6 216 -17 285 -26 1569
-195 2964 -1208 3763 -2734 534 -1020 763 -2233 641 -3400 -158 -1525 -872
-2905 -1979 -3825 -547 -455 -1196 -788 -1870 -960 -345 -87 -626 -124 -1006
-132 -293 -6 -467 3 -718 38 -1023 142 -1985 640 -2748 1423 -857 878 -1407
2043 -1567 3321 -34 264 -41 398 -40 765 0 402 10 559 60 893 119 805 401
1577 821 2252 841 1352 2186 2226 3648 2369 267 27 472 31 710 16z"/>
<path class="cls-2" d="M138180 33189 c-1869 -87 -3344 -538 -4455 -1364 -376 -279 -763
-664 -1045 -1040 -628 -837 -1015 -1883 -1159 -3135 -45 -392 -53 -562 -60
-1270 l-6 -685 -607 -3 -608 -2 0 -2145 0 -2145 611 0 612 0 -8 -6950 -7
-6950 2126 0 2126 0 0 6950 0 6950 1620 0 1620 0 0 2145 0 2145 -1617 2 -1618
3 1 515 c0 416 3 544 17 667 116 1036 547 1725 1348 2157 423 227 1063 389
1669 421 63 3 134 8 158 11 l42 5 0 1865 0 1864 -292 -1 c-161 -1 -372 -6
-468 -10z"/>
<path class="cls-2" d="M140693 21963 c2 -7275 6 -9333 15 -9423 21 -199 51 -416 77 -558 58
-316 174 -715 300 -1032 72 -184 239 -526 340 -701 846 -1462 2304 -2460 3955
-2709 358 -53 354 -53 1478 -57 l1052 -4 0 2140 0 2141 -914 0 c-989 0 -992 0
-1160 55 -247 81 -457 230 -612 434 -76 100 -174 293 -204 401 -53 191 -50
-84 -50 4713 l0 4447 1405 0 1405 0 0 2140 0 2140 -1405 0 -1405 0 0 2590 0
2590 -2140 0 -2140 0 3 -9307z"/>
</g>
</svg>
