<?xml version="1.0" encoding="utf-8"?>
<svg aria-hidden="true" xmlns="http://www.w3.org/2000/svg" width="140" height="60" viewBox="0 0 140 60">
  <g fill="none" fill-rule="evenodd">
    <path fill="#CC0000" d="M38.9263401,14.5619025 L40.1704549,24.1684477 L45.4720803,21.1076426 L41.7460194,30.048932 L47.8676295,30.048932 L40.1704549,35.9294164 L45.4720803,38.9902214 L35.8655351,40.2351216 L38.9263401,45.5359616 L29.9850507,41.8106862 L29.9850507,47.9322963 L24.103781,40.2351216 L21.0429759,45.5359616 L19.7988611,35.9294164 L14.4980212,38.9902214 L18.2232966,30.048932 L12.1016865,30.048932 L19.7988611,24.1684477 L14.4980212,21.1076426 L24.103781,19.8635279 L21.0429759,14.5619025 L29.9850507,18.2871779 L29.9850507,12.1663532 L35.8655351,19.8635279 L38.9263401,14.5619025 Z M55.9127479,15.0794982 L40.9433141,11.0691131 L44.9544846,4.12123486 L29.9850507,8.13240537 L29.9850507,0.110849787 L19.0267874,11.0691131 L15.0156169,4.12123486 L11.0044464,19.0906687 L4.05735355,15.0794982 L8.06852405,30.048932 L0.0461830479,30.048932 L11.0044464,41.0071954 L4.05735355,45.0183659 L19.0267874,49.0295364 L15.0156169,55.9766292 L29.9850507,51.9654587 L29.9850507,59.9877997 L40.9433141,49.0295364 L44.9536991,55.9766292 L48.9648696,41.0071954 L55.9127479,45.0183659 L51.9015774,30.048932 L59.923133,30.048932 L48.9648696,19.0906687 L55.9127479,15.0794982 Z" />
    <path class="wordmark" fill="#FFF" d="M131.346866,30.6150671 C130.545731,29.8610581 129.438281,28.4229432 129.438281,28.4229432 C129.438281,28.4229432 129.673909,30.1901516 129.673909,31.3455133 L129.673909,38.0616908 L126.587184,38.0616908 L126.587184,21.8952678 L126.916278,21.8952678 L134.999882,29.4840537 C135.777454,30.2137144 136.884905,31.6753922 136.884905,31.6753922 C136.884905,31.6753922 136.67284,29.8610581 136.67284,28.7528221 L136.67284,22.0374299 L139.759564,22.0374299 L139.759564,38.2022821 L139.429685,38.2022821 L131.346866,30.6150671 Z M107.872997,22.0371157 L118.806912,22.0371157 L118.806912,24.9353376 L111.171786,24.9353376 L111.171786,28.6119167 L117.628773,28.6119167 L117.628773,31.4394502 L111.171786,31.4394502 L111.171786,35.1631548 L118.806912,35.1631548 L118.806912,38.0613767 L107.872997,38.0613767 L107.872997,22.0371157 Z M92.8584008,24.9355733 L88.2864361,24.9355733 L88.2864361,22.0373514 L100.72994,22.0373514 L100.72994,24.9355733 L96.1579753,24.9355733 L96.1579753,38.0616123 L92.8584008,38.0616123 L92.8584008,24.9355733 Z M81.0963325,38.0613767 L79.8074485,34.9911465 L74.3440253,34.9911465 L73.084202,38.0613767 L69.9032268,38.0613767 L76.9492833,21.8957391 L77.2312512,21.8957391 L84.5608465,38.0613767 L81.0963325,38.0613767 Z M75.4750387,32.2343013 L78.6497306,32.2343013 L78.0096084,30.709004 C77.5619156,29.648679 77.09066,28.0228472 77.0435344,27.8579077 C77.0199716,27.9285961 76.548716,29.6015534 76.1010232,30.709004 L75.4750387,32.2343013 Z" />
  </g>
</svg>
