<?xml version="1.0" encoding="UTF-8" standalone="no"?>
<svg
   fill="none"
   height="52"
   viewBox="0 0 52 52"
   width="52"
   version="1.1"
   id="svg3"
   sodipodi:docname="b13-darkmode.svg"
   inkscape:version="1.3 (0e150ed, 2023-07-21)"
   xmlns:inkscape="http://www.inkscape.org/namespaces/inkscape"
   xmlns:sodipodi="http://sodipodi.sourceforge.net/DTD/sodipodi-0.dtd"
   xmlns="http://www.w3.org/2000/svg"
   xmlns:svg="http://www.w3.org/2000/svg">
  <defs
     id="defs3" />
  <sodipodi:namedview
     id="namedview3"
     pagecolor="#505050"
     bordercolor="#ffffff"
     borderopacity="1"
     inkscape:showpageshadow="0"
     inkscape:pageopacity="0"
     inkscape:pagecheckerboard="1"
     inkscape:deskcolor="#505050"
     inkscape:zoom="4.5384615"
     inkscape:cx="26"
     inkscape:cy="25.889831"
     inkscape:window-width="1472"
     inkscape:window-height="920"
     inkscape:window-x="0"
     inkscape:window-y="36"
     inkscape:window-maximized="0"
     inkscape:current-layer="svg3" />
  <clipPath
     id="a">
    <path
       d="m0 0h52v52h-52z"
       id="path1" />
  </clipPath>
  <g
     clip-path="url(#a)"
     fill="#000"
     id="g3"
     style="fill:#ffffff;fill-opacity:1">
    <path
       d="m32.2546 24.7618c2.1905-.9214 3.5247-2.6992 3.5247-5.1432 0-4.5077-3.1753-6.604-8.6353-6.604h-3.0794v4.8247h2.223c2.1272 0 3.2695.6987 3.2695 2.4131 0 1.651-1.2382 2.3806-3.3653 2.3806h-2.1272v4.8896h3.5555c2.3807 0 3.6823.8255 3.6823 2.6358 0 1.651-1.079 2.5074-3.3963 2.5074h-5.5558v-19.6512h-.0325l-6.032 4.8247v19.682h12.5076c5.7785 0 8.9521-2.5074 8.9521-6.6349 0-3.4596-2.0637-5.3966-5.4925-6.1263z"
       id="path2"
       style="fill:#ffffff;fill-opacity:1" />
    <path
       d="m26 0c-14.3813 0-26 11.6512-26 26 0 14.3813 11.6512 26 26 26 14.3813 0 26-11.6512 26-26s-11.6512-26-26-26zm17.0154 37.6512v5.3333h-5.3008c-3.3329 2.3173-7.3645 3.6823-11.7455 3.6823-11.3961 0-20.60335-9.2382-20.60335-20.6034 0-11.3962 9.23815-20.6034 20.60335-20.6034 11.3961 0 20.6034 9.2381 20.6034 20.6034.0325 4.2542-1.3032 8.2533-3.5571 11.5878z"
       id="path3"
       style="fill:#ffffff;fill-opacity:1" />
  </g>
</svg>
