<svg fill="none" height="60" viewBox="0 0 60 60" width="60" xmlns="http://www.w3.org/2000/svg" xmlns:xlink="http://www.w3.org/1999/xlink"><clipPath id="a"><path d="m0 0h60v60h-60z"/></clipPath><g clip-path="url(#a)"><path d="m0 0h60v60h-60z" fill="#fff"/><g fill="#000"><path d="m37.2169 28.5713c2.5275-1.0632 4.0669-3.1144 4.0669-5.9344 0-5.2013-3.6638-7.62-9.9638-7.62h-3.5531v5.5669h2.565c2.4544 0 3.7725.8062 3.7725 2.7843 0 1.905-1.4288 2.7469-3.8831 2.7469h-2.4544v5.6419h4.1025c2.7469 0 4.2487.9525 4.2487 3.0412 0 1.905-1.245 2.8932-3.9187 2.8932h-6.4107v-22.6744h-.0374l-6.96 5.5669v22.71h14.4318c6.6675 0 10.3294-2.8932 10.3294-7.6557 0-3.9918-2.3812-6.2268-6.3375-7.0687z"/><path d="m30 0c-16.5938 0-30 13.4438-30 30 0 16.5938 13.4438 30 30 30 16.5938 0 30-13.4438 30-30s-13.4438-30-30-30zm19.6331 43.4438v6.1537h-6.1162c-3.8457 2.6737-8.4975 4.2488-13.5525 4.2488-13.1494 0-23.77315-10.6594-23.77315-23.7732 0-13.1494 10.65935-23.7731 23.77315-23.7731 13.1493 0 23.7731 10.6594 23.7731 23.7731.0375 4.9088-1.5037 9.5232-4.1044 13.3707z"/></g></g></svg>