<svg width="80" height="75" viewBox="0 0 80 75" fill="none" xmlns="http://www.w3.org/2000/svg">
<path d="M9.27766 13.7805L6.21685 0H0.0952148V19.5756L16.2971 35.3422L19.0587 20.147L9.26405 13.7805H9.27766Z" fill="white"/>
<path d="M50.9728 63.3521L39.9266 59.2302V74.6567L46.3611 73.2147L50.9728 63.3521Z" fill="white"/>
<path d="M28.8806 63.3521L33.4922 73.2147L39.9268 74.6567V59.2302L28.8806 63.3521Z" fill="#CAC9DF"/>
<path d="M19.0723 20.147L16.3108 35.3422L28.8669 63.3385L39.9131 59.2166V14.175L19.0723 20.1333V20.147Z" fill="#9B9BC8"/>
<path d="M60.7673 20.147L63.5288 35.3422L79.7307 19.5756V0H73.6091L70.5483 13.7805L60.7537 20.147H60.7673Z" fill="#D9993B"/>
<path d="M39.9266 14.1886V59.2302L50.9728 63.3521L63.5289 35.3558L60.7674 20.1606L39.9266 14.2022V14.1886Z" fill="#CAC9DF"/>
</svg>
