<svg width="455" height="75" viewBox="0 0 455 75" fill="none" xmlns="http://www.w3.org/2000/svg">
<path d="M10.14 13.7805L7.07915 0H0.95752V19.5756L17.1594 35.3422L19.921 20.147L10.1264 13.7805H10.14Z" fill="#313490"/>
<path d="M51.8214 63.3521L40.7753 59.2302V74.6567L47.2098 73.2147L51.8214 63.3521Z" fill="#9B9BC8"/>
<path d="M29.7292 63.3521L34.3409 73.2147L40.7754 74.6567V59.2302L29.7292 63.3521Z" fill="#CAC9DF"/>
<path d="M19.9346 20.1469L17.1731 35.3422L29.7292 63.3384L40.7754 59.2165V14.1885L19.9346 20.1469Z" fill="#E1E1F1"/>
<path d="M61.6296 20.147L64.3911 35.3422L80.593 19.5756V0H74.4714L71.4106 13.7805L61.616 20.147H61.6296Z" fill="#D9993B"/>
<path d="M40.7753 14.1885V59.2301L51.8214 63.352L64.3776 35.3558L61.616 20.1605L40.7753 14.2021V14.1885Z" fill="#CAC9DF"/>
<path d="M169.67 27.9282C164.473 27.9282 159.562 29.9824 155.835 33.7234C151.903 37.6684 149.74 42.9602 149.754 48.6465C149.768 61.053 158.202 69.3921 170.744 69.3921C176.376 69.3921 182.716 67.6236 188.143 64.5356L188.429 64.3723L185.055 57.7338L184.742 57.9106C180.539 60.3457 175.166 61.8829 170.744 61.9101C164.623 61.9101 160.134 58.9853 158.419 53.8839L158.079 52.8909H189.136L189.191 52.6188C189.463 51.3265 189.613 49.9797 189.613 48.6329C189.613 37.2195 180.675 27.9282 169.697 27.9282H169.67ZM157.903 45.5721L158.188 44.6063C159.766 39.192 164.487 35.4102 169.67 35.4102C174.853 35.4102 179.573 39.192 181.151 44.6063L181.437 45.5721H157.903Z" fill="#313490"/>
<path d="M223.417 27.9282C218.915 27.9282 214.63 29.6015 211.351 32.6215L210.086 33.7914V28.7172H202.223V68.5758H210.086V47.4358C210.086 40.7972 215.31 35.3966 221.744 35.3966C228.179 35.3966 233.403 40.7972 233.403 47.4358V68.5622H241.265V45.749C241.265 35.9135 233.267 27.9146 223.431 27.9146L223.417 27.9282Z" fill="#313490"/>
<path d="M279.859 60.3593C275.424 62.087 271.398 62.2774 269.099 60.8763C267.534 59.9104 266.772 58.1283 266.772 55.4484V36.2129H279.26V28.7309H266.772V17.78H258.896V28.7309H251.4V36.2129H258.896V56.2102C258.896 61.1483 260.855 64.9845 264.555 67.2972C269.058 70.0995 275.846 70.1131 282.185 67.3244L282.471 67.2019L280.199 60.2233L279.859 60.3593Z" fill="#313490"/>
<path d="M310.657 27.9282C300.006 27.9282 291.34 37.2331 291.34 48.6874C291.34 60.1416 300.006 69.3921 310.657 69.3921C315.392 69.3921 319.935 67.542 323.472 64.1819L324.751 62.9712V68.6031H332.614V28.7308H324.751V34.3627L323.472 33.152C319.935 29.7919 315.392 27.9418 310.657 27.9418V27.9282ZM324.914 48.6737C324.914 55.9653 319.146 61.9101 312.059 61.9101C304.971 61.9101 299.203 55.9653 299.203 48.6737C299.203 41.3822 304.971 35.4102 312.059 35.4102C319.146 35.4102 324.914 41.355 324.914 48.6737Z" fill="#313490"/>
<path d="M356.964 32.7031L355.713 33.7642V28.7308H347.836V68.5895H355.713V50.1429C355.713 44.7287 358.053 41.4638 360.025 39.6818C362.76 37.2195 366.446 36.0088 370.133 36.3625L370.514 36.4033V27.9418H370.187C365.276 27.9418 360.583 29.6423 356.978 32.7167L356.964 32.7031Z" fill="#313490"/>
<path d="M391.382 32.7031L390.13 33.7642V28.7308H382.267V68.5895H390.13V50.1429C390.13 44.7287 392.47 41.4638 394.442 39.6818C397.163 37.2059 400.863 36.0088 404.55 36.3625L404.931 36.4033V27.9418H404.604C399.693 27.9418 395 29.6423 391.395 32.7167L391.382 32.7031Z" fill="#D9993B"/>
<path d="M454.162 48.6329C454.162 37.2195 444.871 27.9282 433.444 27.9282C422.017 27.9282 412.725 37.2195 412.725 48.6329C412.725 60.0464 422.017 69.3921 433.444 69.3921C444.871 69.3921 454.162 60.0736 454.162 48.6329ZM433.444 61.9101C426.356 61.9101 420.602 55.9653 420.602 48.6465C420.602 41.3278 426.37 35.4102 433.444 35.4102C440.518 35.4102 446.299 41.355 446.299 48.6465C446.299 55.9381 440.531 61.9101 433.444 61.9101Z" fill="#313490"/>
<path d="M133.579 31.2067L133.783 31.4788L140.068 26.7039L139.85 26.4319C134.423 19.3988 126.206 15.3585 117.296 15.3585C101.624 15.3585 88.8777 28.0371 88.8777 43.6132C88.8777 59.1894 101.624 71.868 117.296 71.868C126.206 71.868 134.423 67.8277 139.85 60.7946L140.068 60.5225L133.783 55.7477L133.579 56.0197C129.648 61.1619 123.717 64.1139 117.296 64.1139C106.059 64.1139 96.9038 54.9179 96.9038 43.6132C96.9038 32.3086 106.045 23.1126 117.296 23.1126C123.717 23.1126 129.648 26.0646 133.579 31.2067Z" fill="#313490"/>
</svg>
