<svg width="80" height="75" viewBox="0 0 80 75" fill="none" xmlns="http://www.w3.org/2000/svg">
<path d="M9.52253 13.7805L6.46172 0H0.340088V19.5756L16.542 35.3422L19.3035 20.147L9.50893 13.7805H9.52253Z" fill="#313490"/>
<path d="M51.204 63.3521L40.1578 59.2302V74.6567L46.5924 73.2147L51.204 63.3521Z" fill="#9B9BC8"/>
<path d="M29.1118 63.3521L33.7234 73.2147L40.158 74.6567V59.2302L29.1118 63.3521Z" fill="#CAC9DF"/>
<path d="M19.3172 20.1469L16.5557 35.3422L29.1118 63.3384L40.1579 59.2165V14.1885L19.3172 20.1469Z" fill="#E1E1F1"/>
<path d="M61.0121 20.147L63.7737 35.3422L79.9756 19.5756V0H73.854L70.7931 13.7805L60.9985 20.147H61.0121Z" fill="#D9993B"/>
<path d="M40.1578 14.1885V59.2301L51.204 63.352L63.7601 35.3558L60.9986 20.1605L40.1578 14.2021V14.1885Z" fill="#CAC9DF"/>
</svg>
