<svg width="454" height="75" viewBox="0 0 454 75" fill="none" xmlns="http://www.w3.org/2000/svg">
<path d="M169.425 27.9146C164.228 27.9146 159.317 29.9688 155.59 33.7098C151.658 37.6548 149.495 42.9466 149.509 48.633C149.523 61.0395 157.957 69.3785 170.499 69.3785C176.131 69.3785 182.471 67.61 187.898 64.522L188.184 64.3587L184.81 57.7202L184.497 57.897C180.294 60.3321 174.921 61.8693 170.499 61.8965C164.378 61.8965 159.889 58.9717 158.174 53.8704L157.834 52.8773H188.891L188.946 52.6052C189.218 51.3129 189.368 49.9661 189.368 48.6193C189.368 37.2059 180.43 27.9146 169.452 27.9146H169.425ZM157.658 45.5585L157.943 44.5927C159.521 39.1784 164.242 35.3966 169.425 35.3966C174.608 35.3966 179.328 39.1784 180.906 44.5927L181.192 45.5585H157.658Z" fill="white"/>
<path d="M223.186 27.9146C218.683 27.9146 214.398 29.5879 211.12 32.6079L209.855 33.7778V28.7037H201.992V68.5623H209.855V47.4222C209.855 40.7836 215.078 35.383 221.513 35.383C227.947 35.383 233.171 40.7836 233.171 47.4222V68.5486H241.034V45.7354C241.034 35.9 233.035 27.901 223.2 27.901L223.186 27.9146Z" fill="white"/>
<path d="M279.614 60.3457C275.179 62.0733 271.153 62.2638 268.854 60.8626C267.289 59.8967 266.527 58.1147 266.527 55.4348V36.1992H279.016V28.7172H266.527V17.7663H258.651V28.7172H251.155V36.1992H258.651V56.1966C258.651 61.1347 260.61 64.9709 264.31 67.2835C268.813 70.0859 275.601 70.0995 281.94 67.3107L282.226 67.1883L279.954 60.2097L279.614 60.3457Z" fill="white"/>
<path d="M310.426 27.9146C299.775 27.9146 291.109 37.2195 291.109 48.6738C291.109 60.128 299.775 69.3785 310.426 69.3785C315.16 69.3785 319.704 67.5284 323.241 64.1683L324.52 62.9576V68.5895H332.383V28.7172H324.52V34.3492L323.241 33.1384C319.704 29.7783 315.16 27.9282 310.426 27.9282V27.9146ZM324.683 48.6601C324.683 55.9517 318.915 61.8965 311.827 61.8965C304.74 61.8965 298.972 55.9517 298.972 48.6601C298.972 41.3686 304.74 35.3966 311.827 35.3966C318.915 35.3966 324.683 41.3414 324.683 48.6601Z" fill="white"/>
<path d="M356.72 32.6895L355.468 33.7506V28.7172H347.592V68.5759H355.468V50.1294C355.468 44.7151 357.808 41.4502 359.78 39.6682C362.515 37.2059 366.201 35.9952 369.888 36.3489L370.269 36.3897V27.9282H369.942C365.031 27.9282 360.338 29.6287 356.733 32.7031L356.72 32.6895Z" fill="white"/>
<path d="M391.15 32.6895L389.899 33.7506V28.7172H382.036V68.5759H389.899V50.1294C389.899 44.7151 392.239 41.4502 394.211 39.6682C396.932 37.1923 400.632 35.9952 404.319 36.3489L404.7 36.3897V27.9282H404.373C399.462 27.9282 394.769 29.6287 391.164 32.7031L391.15 32.6895Z" fill="#D9993B"/>
<path d="M453.931 48.6058C453.931 37.1923 444.64 27.901 433.213 27.901C421.786 27.901 412.494 37.1923 412.494 48.6058C412.494 60.0192 421.786 69.3649 433.213 69.3649C444.64 69.3649 453.931 60.0464 453.931 48.6058ZM433.213 61.8829C426.125 61.8829 420.371 55.9381 420.371 48.6193C420.371 41.3006 426.139 35.383 433.213 35.383C440.286 35.383 446.068 41.3278 446.068 48.6193C446.068 55.9109 440.3 61.8829 433.213 61.8829Z" fill="white"/>
<path d="M133.334 31.1931L133.538 31.4652L139.823 26.6903L139.606 26.4183C134.178 19.3852 125.961 15.3449 117.051 15.3449C101.379 15.3449 88.6328 28.0234 88.6328 43.5996C88.6328 59.1757 101.379 71.8544 117.051 71.8544C125.961 71.8544 134.178 67.8141 139.606 60.781L139.823 60.5089L133.538 55.734L133.334 56.0061C129.403 61.1483 123.472 64.1003 117.051 64.1003C105.814 64.1003 96.659 54.9042 96.659 43.5996C96.659 32.295 105.801 23.099 117.051 23.099C123.472 23.099 129.403 26.0509 133.334 31.1931Z" fill="white"/>
<path d="M9.89509 13.7805L6.83428 0H0.712646V19.5756L16.9146 35.3422L19.6761 20.147L9.88148 13.7805H9.89509Z" fill="white"/>
<path d="M51.5902 63.3521L40.5441 59.2302V74.6567L46.9786 73.2147L51.5902 63.3521Z" fill="white"/>
<path d="M29.498 63.3521L34.1097 73.2147L40.5442 74.6567V59.2302L29.498 63.3521Z" fill="#CAC9DF"/>
<path d="M19.6898 20.147L16.9282 35.3422L29.4844 63.3385L40.5305 59.2166V14.175L19.6898 20.1333V20.147Z" fill="#9B9BC8"/>
<path d="M61.3847 20.147L64.1462 35.3422L80.3481 19.5756V0H74.2265L71.1657 13.7805L61.3711 20.147H61.3847Z" fill="#D9993B"/>
<path d="M40.5441 14.1886V59.2302L51.5902 63.3521L64.1464 35.3558L61.3848 20.1606L40.5441 14.2022V14.1886Z" fill="#CAC9DF"/>
</svg>
