<?xml version="1.0" standalone="no"?>
<!DOCTYPE svg PUBLIC "-//W3C//DTD SVG 20010904//EN"
 "http://www.w3.org/TR/2001/REC-SVG-20010904/DTD/svg10.dtd">
<svg version="1.0" xmlns="http://www.w3.org/2000/svg"
 width="260.000000pt" height="260.000000pt" viewBox="0 0 260.000000 260.000000"
 preserveAspectRatio="xMidYMid meet">
<metadata>
Created by potrace 1.11, written by Peter Selinger 2001-2013
</metadata>
<g transform="translate(0.000000,260.000000) scale(0.100000,-0.100000)"
fill="#000000" stroke="none">
<path d="M0 1300 l0 -1300 1300 0 1300 0 0 1300 0 1300 -1300 0 -1300 0 0
-1300z m958 535 c87 -21 163 -58 218 -108 l46 -42 -75 -68 -76 -68 -45 35
c-68 52 -128 71 -221 71 -67 0 -89 -5 -137 -28 -66 -32 -112 -80 -144 -152
-90 -197 -21 -422 155 -504 47 -21 70 -26 141 -25 94 0 150 19 219 73 l38 30
68 -69 69 -70 -29 -31 c-38 -39 -96 -73 -171 -100 -83 -29 -246 -37 -338 -15
-195 46 -340 188 -391 382 -19 74 -19 220 0 302 45 189 195 341 381 386 78 19
214 19 292 1z m984 4 c129 -28 257 -128 316 -249 40 -80 62 -181 62 -282 l0
-78 -421 0 -421 0 6 -37 c24 -135 132 -236 282 -264 117 -22 206 7 303 97 l57
53 72 -56 c40 -30 72 -59 72 -63 0 -16 -117 -116 -167 -143 -115 -62 -309 -85
-438 -52 -194 50 -329 185 -380 380 -19 76 -19 224 0 300 48 189 187 334 370
386 70 20 210 24 287 8z"/>
<path d="M1719 1667 c-124 -35 -208 -123 -234 -244 l-7 -33 315 0 314 0 -8 51
c-23 142 -113 222 -265 234 -42 3 -87 0 -115 -8z"/>
</g>
</svg>
