<?xml version="1.0" standalone="no"?>
<!DOCTYPE svg PUBLIC "-//W3C//DTD SVG 20010904//EN"
 "http://www.w3.org/TR/2001/REC-SVG-20010904/DTD/svg10.dtd">
<svg version="1.0" xmlns="http://www.w3.org/2000/svg"
 width="700.000000pt" height="700.000000pt" viewBox="0 0 700.000000 700.000000"
 preserveAspectRatio="xMidYMid meet">
<metadata>
Created by potrace 1.14, written by Peter Selinger 2001-2017
</metadata>
<g transform="translate(0.000000,700.000000) scale(0.100000,-0.100000)"
fill="#F59B00" stroke="none">
<path d="M0 3499 l0 -3499 508 0 507 0 -50 28 c-216 119 -356 306 -424 566
-34 129 -36 171 -35 661 1 470 1 470 26 570 30 116 63 209 88 245 10 14 18 28
19 33 1 20 80 124 132 177 128 127 318 220 500 245 30 4 63 9 74 12 29 6 242
5 300 -2 307 -34 555 -188 683 -426 30 -55 86 -199 77 -199 -2 0 0 -12 6 -27
15 -39 22 -111 23 -223 l1 -94 -173 -1 c-96 0 -176 3 -179 8 -2 4 -6 46 -8 93
-10 226 -108 395 -277 479 -97 47 -195 65 -333 61 -121 -5 -141 -8 -228 -37
-194 -65 -335 -254 -365 -489 -10 -75 -9 -840 1 -914 11 -82 52 -200 93 -268
71 -117 210 -211 359 -241 92 -19 279 -15 365 8 242 63 374 246 386 535 1 41
3 77 3 80 1 3 81 5 179 5 l177 0 1 -65 c6 -334 -143 -628 -392 -774 l-79 -46
380 0 380 0 -1 1245 0 1246 575 -3 c649 -4 627 -2 796 -83 258 -124 401 -380
390 -700 -4 -123 -7 -142 -37 -235 -31 -98 -96 -207 -163 -276 -77 -79 -222
-160 -350 -195 -74 -20 -108 -22 -460 -26 -208 -2 -382 -6 -385 -9 -2 -3 -5
-221 -5 -485 l0 -479 1010 0 1010 1 -48 24 c-249 128 -404 343 -452 629 -16
92 -21 285 -7 287 29 4 335 3 342 -1 5 -3 10 -35 11 -70 5 -151 23 -240 70
-335 75 -156 242 -267 436 -291 271 -33 492 33 601 178 58 76 82 154 78 253
-5 137 -61 226 -188 294 -81 43 -156 66 -387 117 -307 68 -468 127 -596 219
-168 120 -254 292 -256 514 -2 212 52 344 197 487 68 68 99 90 185 132 333
163 780 135 1079 -68 201 -136 305 -349 309 -635 l2 -105 -181 0 c-164 0 -180
2 -181 18 0 9 -2 51 -3 92 -5 136 -46 237 -131 323 -79 80 -183 127 -322 146
-265 35 -485 -55 -569 -234 -28 -59 -27 -213 2 -275 56 -119 180 -185 479
-255 66 -15 174 -41 240 -57 382 -92 596 -264 665 -531 22 -89 25 -251 4 -347
-43 -206 -169 -372 -367 -481 l-52 -29 465 3 465 2 0 3495 0 3495 -3497 1
-3498 1 0 -3498z"/>
<path d="M3089 2158 c-3 -7 -5 -834 -2 -843 5 -14 650 -11 719 3 238 49 363
262 309 525 -35 167 -133 264 -306 301 -46 10 -156 14 -391 15 -181 1 -329 0
-329 -1z"/>
</g>
</svg>
