<?xml version="1.0" encoding="utf-8"?>
<svg viewBox="0 0 152 39" xmlns="http://www.w3.org/2000/svg" class="cps-logo-full">
  <path class="cps-logo-full__brand" d="M49.276 15.841 C49.276 16.647 49.37 17.115 49.651 17.47 49.932 17.827 50.494 17.995 51.132 17.995 52.086 17.995 52.686 17.47 52.723 16.422 L54.167 16.422 C54.167 18.221 53.023 19.382 51.075 19.382 49.876 19.382 48.958 19.007 48.415 18.257 47.945 17.64 47.815 16.872 47.815 15.878 L47.815 13.537 C47.815 12.543 47.945 11.775 48.415 11.158 48.958 10.427 49.932 10.033 51.131 10.033 52.255 10.033 53.136 10.408 53.678 11.139 54.167 11.757 54.167 12.675 54.167 13.124 L52.742 13.124 C52.742 12.095 52.33 11.42 51.149 11.42 50.494 11.42 49.932 11.588 49.651 11.963 49.37 12.318 49.277 12.768 49.277 13.592 L49.277 15.841 Z M55.429 13.537 C55.429 12.543 55.56 11.775 56.047 11.158 56.59 10.427 57.565 10.033 58.745 10.033 59.925 10.033 60.9 10.427 61.443 11.158 61.93 11.775 62.061 12.543 62.061 13.537 L62.061 15.878 C62.061 16.872 61.93 17.64 61.443 18.257 60.9 19.007 59.925 19.382 58.745 19.382 57.565 19.382 56.59 19.007 56.047 18.257 55.56 17.64 55.429 16.872 55.429 15.878 Z M56.89 15.841 C56.89 16.647 56.984 17.115 57.265 17.47 57.564 17.827 58.089 17.995 58.745 17.995 59.401 17.995 59.925 17.827 60.226 17.47 60.506 17.115 60.6 16.647 60.6 15.841 L60.6 13.592 C60.6 12.768 60.506 12.318 60.225 11.963 59.925 11.588 59.4 11.42 58.745 11.42 58.09 11.42 57.565 11.588 57.264 11.963 56.984 12.318 56.89 12.768 56.89 13.592 Z M70.192 6.755 L70.192 19.269 68.918 19.269 68.862 18.295 C68.394 18.97 67.382 19.382 66.54 19.382 65.546 19.382 64.629 19.007 64.123 18.295 63.655 17.659 63.561 16.814 63.561 15.823 L63.561 13.537 C63.561 12.543 63.692 11.775 64.161 11.158 64.704 10.427 65.621 10.033 66.652 10.033 67.382 10.033 68.244 10.371 68.731 10.969 L68.731 6.755 Z M65.021 15.71 C65.021 16.534 65.116 17.096 65.397 17.452 65.678 17.827 66.202 17.995 66.84 17.995 67.382 17.995 67.907 17.807 68.207 17.508 68.637 17.096 68.731 16.479 68.731 15.691 L68.731 13.743 C68.731 12.956 68.637 12.318 68.207 11.907 67.907 11.626 67.401 11.42 66.858 11.42 66.184 11.42 65.678 11.588 65.397 11.963 65.116 12.318 65.021 12.768 65.021 13.592 Z M73.684 7.018 L73.684 8.499 72.223 8.499 72.223 7.018 Z M73.684 10.147 L73.684 19.271 72.223 19.271 72.223 10.147 Z M76.97 10.146 L77.045 11.195 C77.607 10.389 78.674 10.033 79.498 10.033 80.323 10.033 81.092 10.277 81.597 10.782 82.103 11.307 82.403 12.019 82.403 13.255 L82.403 19.269 80.942 19.269 80.942 13.63 C80.942 12.9 80.866 12.469 80.641 12.113 80.304 11.626 79.724 11.42 79.143 11.42 78.637 11.42 78.113 11.55 77.7 11.963 77.269 12.375 77.175 12.917 77.175 13.743 L77.175 19.269 75.714 19.269 75.714 10.145 76.97 10.145 Z M84.053 13.537 C84.053 12.543 84.184 11.775 84.652 11.158 85.195 10.427 86.17 10.033 87.369 10.033 88.549 10.033 89.523 10.427 90.067 11.158 90.553 11.775 90.685 12.543 90.685 13.537 L90.685 19.195 C90.685 21.537 89.766 22.885 87.386 22.885 87.181 22.885 86.863 22.867 86.6 22.83 L86.6 21.518 C86.881 21.556 87.162 21.574 87.35 21.574 88.643 21.574 89.223 20.862 89.223 19.363 L89.223 18.334 C88.736 18.933 87.873 19.269 87.124 19.269 86.095 19.269 85.195 18.876 84.652 18.146 84.184 17.527 84.052 16.759 84.052 15.766 L84.052 13.537 Z M85.514 15.71 C85.514 16.534 85.607 16.984 85.888 17.34 86.169 17.714 86.694 17.883 87.369 17.883 87.911 17.883 88.398 17.676 88.699 17.396 89.13 16.984 89.223 16.347 89.223 15.579 L89.223 13.592 C89.223 12.768 89.13 12.318 88.849 11.963 88.549 11.588 88.024 11.42 87.368 11.42 86.694 11.42 86.169 11.588 85.888 11.963 85.607 12.318 85.514 12.768 85.514 13.592 Z M96.764 10.146 L96.839 11.139 C97.289 10.446 98.3 10.034 99.144 10.034 100.135 10.034 101.073 10.427 101.56 11.139 102.028 11.757 102.141 12.62 102.141 13.592 L102.141 15.878 C102.141 16.872 101.99 17.64 101.523 18.257 100.98 19.007 100.08 19.382 99.031 19.382 98.3 19.382 97.457 19.044 96.97 18.464 L96.97 22.66 95.509 22.66 95.509 10.146 Z M96.97 15.691 C96.97 16.478 97.064 17.096 97.495 17.508 97.795 17.808 98.281 17.995 98.825 17.995 99.499 17.995 100.005 17.827 100.306 17.47 100.586 17.115 100.68 16.647 100.68 15.841 L100.68 13.705 C100.68 12.9 100.586 12.318 100.305 11.982 100.005 11.607 99.48 11.42 98.844 11.42 98.3 11.42 97.795 11.626 97.495 11.907 97.064 12.318 96.97 12.956 96.97 13.743 Z M103.641 13.537 C103.641 12.543 103.772 11.775 104.259 11.158 104.803 10.427 105.777 10.033 106.958 10.033 108.139 10.033 109.111 10.427 109.655 11.158 110.142 11.775 110.273 12.543 110.273 13.537 L110.273 15.878 C110.273 16.872 110.142 17.64 109.655 18.257 109.111 19.007 108.137 19.382 106.956 19.382 105.775 19.382 104.803 19.007 104.258 18.257 103.772 17.64 103.641 16.872 103.641 15.878 Z M105.103 15.841 C105.103 16.647 105.196 17.115 105.477 17.47 105.777 17.827 106.301 17.995 106.958 17.995 107.614 17.995 108.137 17.827 108.437 17.47 108.718 17.115 108.811 16.647 108.811 15.841 L108.811 13.592 C108.811 12.768 108.718 12.318 108.437 11.963 108.137 11.588 107.613 11.42 106.956 11.42 106.3 11.42 105.777 11.588 105.477 11.963 105.196 12.318 105.103 12.768 105.103 13.592 Z M112.763 10.146 L114.431 17.115 116.249 10.146 117.241 10.146 119.115 17.134 120.801 10.146 122.169 10.146 119.809 19.27 118.441 19.27 116.697 13.05 114.992 19.269 113.624 19.269 111.245 10.145 112.763 10.145 Z M123.173 13.537 C123.173 12.543 123.305 11.775 123.774 11.158 124.317 10.427 125.291 10.033 126.49 10.033 127.67 10.033 128.57 10.446 129.113 11.195 129.6 11.813 129.713 12.581 129.713 13.574 L129.713 14.642 C129.713 14.998 129.6 15.129 129.226 15.129 L124.635 15.129 124.635 15.841 C124.635 16.647 124.729 17.115 125.01 17.47 125.291 17.826 125.854 17.995 126.528 17.995 127.483 17.995 128.101 17.47 128.139 16.422 L129.582 16.422 C129.582 18.221 128.439 19.382 126.49 19.382 125.291 19.382 124.317 19.007 123.774 18.257 123.305 17.64 123.174 16.872 123.174 15.878 L123.174 13.537 Z M124.635 13.855 L128.251 13.855 128.251 13.611 C128.251 12.805 128.175 12.337 127.896 11.982 127.594 11.626 127.146 11.42 126.49 11.42 125.816 11.42 125.291 11.588 125.01 11.963 124.729 12.318 124.635 12.768 124.635 13.592 L124.635 13.856 Z M132.711 10.146 L132.768 11.269 C133.517 10.202 134.623 10.033 135.202 10.033 L135.559 10.033 135.559 11.476 135.353 11.476 C134.453 11.476 133.816 11.7 133.385 12.15 132.973 12.581 132.861 13.162 132.861 14.043 L132.861 19.269 131.4 19.269 131.4 10.145 132.711 10.145 Z M137.478 10.146 L137.478 9.227 C137.478 7.597 138.265 6.549 139.97 6.529 140.176 6.529 140.495 6.549 140.757 6.587 L140.757 7.71 C140.626 7.691 140.439 7.691 140.288 7.691 139.276 7.691 138.94 8.216 138.94 9.284 L138.94 10.146 140.626 10.146 140.626 11.42 138.94 11.42 138.94 19.269 137.478 19.269 137.478 11.42 136.317 11.42 136.317 10.146 Z M143.418 10.146 L143.418 15.841 C143.418 16.647 143.512 17.115 143.793 17.47 144.092 17.827 144.617 17.995 145.273 17.995 145.947 17.995 146.472 17.827 146.753 17.47 147.034 17.115 147.164 16.647 147.164 15.841 L147.164 10.146 148.626 10.146 148.626 15.878 C148.626 16.872 148.458 17.64 147.989 18.257 147.445 19.007 146.472 19.382 145.273 19.382 144.093 19.382 143.118 19.007 142.575 18.257 142.106 17.64 141.957 16.872 141.957 15.878 L141.957 10.146 Z M152 6.755 L152 19.269 150.538 19.269 150.538 6.755 Z M49.163 31.769 C49.163 32.744 49.67 33.269 50.794 33.269 51.842 33.269 52.348 32.688 52.348 31.957 52.348 31.171 51.449 30.853 50.493 30.514 49.313 30.121 47.832 29.523 47.832 27.778 47.832 26.111 49.089 25.193 50.644 25.193 52.461 25.193 53.491 26.206 53.491 27.985 L52.142 27.985 C52.123 27.03 51.655 26.487 50.681 26.487 49.745 26.487 49.238 26.974 49.238 27.666 49.238 28.51 50.138 28.846 51.149 29.223 52.348 29.672 53.754 30.177 53.754 31.846 53.754 33.269 52.835 34.543 50.793 34.543 48.976 34.543 47.815 33.587 47.815 31.863 L47.815 31.769 49.164 31.769 Z M56.565 25.306 L56.565 30.833 C56.565 31.582 56.621 31.994 56.865 32.352 57.182 32.837 57.764 33.044 58.345 33.044 58.85 33.044 59.374 32.913 59.788 32.501 60.237 32.088 60.33 31.545 60.33 30.74 L60.33 25.306 61.792 25.306 61.792 34.355 C61.792 36.697 60.874 38.046 58.494 38.046 58.288 38.046 57.969 38.027 57.707 37.989 L57.707 36.678 C57.988 36.715 58.269 36.734 58.456 36.734 59.749 36.734 60.33 36.023 60.33 34.524 L60.33 33.4 C59.749 34.111 58.775 34.43 57.988 34.43 57.164 34.43 56.396 34.186 55.89 33.681 55.384 33.156 55.103 32.444 55.103 31.208 L55.103 25.306 Z M64.678 31.769 C64.678 32.744 65.183 33.269 66.308 33.269 67.357 33.269 67.863 32.688 67.863 31.957 67.863 31.171 66.963 30.853 66.008 30.514 64.828 30.121 63.347 29.523 63.347 27.778 63.347 26.111 64.602 25.193 66.159 25.193 67.975 25.193 69.005 26.206 69.005 27.985 L67.656 27.985 C67.638 27.03 67.169 26.487 66.195 26.487 65.259 26.487 64.752 26.974 64.752 27.666 64.752 28.51 65.652 28.846 66.663 29.223 67.863 29.672 69.267 30.177 69.267 31.846 69.267 33.269 68.35 34.543 66.308 34.543 64.491 34.543 63.328 33.587 63.328 31.863 L63.328 31.769 Z M72.622 23.04 L72.622 25.306 74.608 25.306 74.608 26.58 72.622 26.58 72.622 31.246 C72.622 32.556 72.978 33.175 74.326 33.175 L74.628 33.175 74.628 34.543 74.045 34.543 C71.91 34.543 71.161 33.475 71.161 31.339 L71.161 26.58 69.718 26.58 69.718 25.306 71.161 25.306 71.161 23.04 Z M75.901 28.697 C75.901 27.705 76.032 26.936 76.5 26.319 77.044 25.587 78.019 25.194 79.217 25.194 80.397 25.194 81.297 25.606 81.84 26.355 82.327 26.974 82.44 27.742 82.44 28.735 L82.44 29.803 C82.44 30.159 82.327 30.29 81.952 30.29 L77.364 30.29 77.364 31.001 C77.364 31.808 77.458 32.275 77.739 32.633 78.02 32.988 78.581 33.156 79.256 33.156 80.211 33.156 80.83 32.631 80.868 31.582 L82.311 31.582 C82.311 33.381 81.168 34.543 79.219 34.543 78.02 34.543 77.045 34.168 76.501 33.418 76.033 32.801 75.903 32.032 75.903 31.039 L75.903 28.697 Z M77.362 29.016 L80.978 29.016 80.978 28.772 C80.978 27.966 80.903 27.498 80.622 27.142 80.323 26.787 79.872 26.58 79.216 26.58 78.543 26.58 78.019 26.749 77.738 27.123 77.456 27.479 77.362 27.929 77.362 28.753 Z M85.382 25.306 L85.457 26.355 C86.018 25.55 86.992 25.194 87.817 25.194 88.641 25.194 89.336 25.438 89.841 25.943 90.009 26.111 90.14 26.3 90.253 26.506 90.534 26.149 90.834 25.849 91.227 25.625 91.723 25.341 92.285 25.192 92.857 25.194 93.701 25.194 94.393 25.438 94.899 25.943 95.405 26.468 95.705 27.18 95.705 28.416 L95.705 34.43 94.243 34.43 94.243 28.791 C94.243 28.061 94.167 27.611 93.925 27.255 93.606 26.768 93.082 26.58 92.501 26.58 92.014 26.58 91.527 26.749 91.133 27.142 90.796 27.479 90.646 27.836 90.646 28.678 L90.646 34.43 89.186 34.43 89.186 28.791 C89.186 28.061 89.13 27.611 88.886 27.255 88.569 26.768 88.024 26.58 87.463 26.58 86.957 26.58 86.47 26.749 86.095 27.142 85.664 27.555 85.589 28.098 85.589 28.904 L85.589 34.43 84.128 34.43 84.128 25.306 85.383 25.306 Z M98.554 31.769 C98.554 32.744 99.06 33.269 100.184 33.269 101.233 33.269 101.739 32.688 101.739 31.957 101.739 31.171 100.839 30.853 99.884 30.514 98.704 30.121 97.223 29.523 97.223 27.778 97.223 26.111 98.479 25.193 100.035 25.193 101.851 25.193 102.881 26.206 102.881 27.985 L101.533 27.985 C101.514 27.03 101.045 26.487 100.071 26.487 99.135 26.487 98.628 26.974 98.628 27.666 98.628 28.51 99.528 28.846 100.541 29.223 101.739 29.672 103.144 30.177 103.144 31.846 103.144 33.269 102.226 34.543 100.184 34.543 98.367 34.543 97.205 33.587 97.205 31.863 L97.205 31.769 Z" />
  <path class="cps-logo-full__text cps-logo-full__text1" fill="#F59B00" d="M0 0.407 L0 38.653 5.572 38.653 C3.756 37.839 2.73 36.063 2.73 33.5 L2.73 30.414 C2.73 26.814 4.748 24.756 8.15 24.756 11.474 24.756 13.334 26.774 13.334 29.741 L13.334 30.097 11.356 30.097 11.356 29.821 C11.356 27.901 10.367 26.576 8.15 26.576 5.934 26.576 4.708 27.921 4.708 30.335 L4.708 33.579 C4.708 35.992 5.935 37.338 8.15 37.338 10.365 37.338 11.356 36.033 11.356 34.094 L11.356 33.817 13.334 33.817 13.334 34.094 C13.334 36.262 12.412 37.88 10.713 38.653 L14.884 38.653 14.884 25.032 20.264 25.032 C22.797 25.032 24.537 26.674 24.537 29.186 24.537 31.699 22.738 33.341 20.264 33.341 L16.862 33.341 16.862 38.652 27.929 38.652 C26.135 37.881 25.088 36.272 25.088 34.132 L25.088 33.499 27.066 33.499 27.066 33.974 C27.066 36.171 28.333 37.376 30.607 37.376 32.447 37.376 33.556 36.388 33.556 35.062 33.556 33.737 32.665 33.202 30.904 32.826 L29.994 32.629 C27.522 32.094 25.721 31.164 25.721 28.593 25.721 26.238 27.779 24.755 30.351 24.755 33.219 24.755 35.415 26.278 35.415 29.107 L35.415 29.74 33.437 29.74 33.437 29.265 C33.437 27.484 32.169 26.536 30.35 26.536 28.807 26.536 27.699 27.346 27.699 28.573 27.699 29.84 28.53 30.333 30.489 30.769 L31.399 30.967 C33.972 31.521 35.533 32.629 35.533 35.002 35.533 36.71 34.592 37.989 33.116 38.652 L38.245 38.652 38.245 0.407 Z" />
  <path class="cps-logo-full__text cps-logo-full__text2" fill="#F59B00" d="M22.559 29.186 C22.559 27.683 21.688 26.852 20.047 26.852 L16.862 26.852 16.862 31.521 20.047 31.521 C21.65 31.521 22.559 30.69 22.559 29.186 Z" />
</svg>
