<svg clip-rule="evenodd" fill-rule="evenodd" stroke-linejoin="round" stroke-miterlimit="2" viewBox="0 0 54 54" xmlns="http://www.w3.org/2000/svg" xmlns:xlink="http://www.w3.org/1999/xlink"><clipPath id="a"><path clip-rule="evenodd" d="m.133-.009h53.827v55.662h-53.827z"/></clipPath><g transform="matrix(.994373 0 0 .965578 -.132695 .008945)"><path d="m.133-.009h53.827v55.662h-53.827z" fill="none"/><g clip-path="url(#a)"><path d="m47.813 0h-42.188c-3.125 0-5.625 2.5-5.625 5.625v42.188c0 3.125 2.5 5.625 5.625 5.625h42.188c3.062 0 5.625-2.5 5.625-5.625v-42.188c0-3.125-2.5-5.625-5.625-5.625m-21.188 32.563c1.75 0 3.625-.688 5.438-2.313l2.5 2.875c-2.625 2.125-5.625 3.313-8.625 3.313-5.938 0-9.688-3.938-8.813-9.5.875-5.563 5.938-9.5 11.875-9.5 2.875 0 5.563 1.125 7.438 3.187l-3.5 2.875c-1-1.312-2.688-2.187-4.563-2.187-3.562 0-6.312 2.312-6.875 5.625-.5 3.312 1.5 5.625 5.125 5.625" fill="#495057" fill-rule="nonzero" transform="matrix(1.00566 0 0 1.03565 .133446 .122189)"/></g></g></svg>