<svg fill="none" height="54" viewBox="0 0 54 54" width="54" xmlns="http://www.w3.org/2000/svg" xmlns:xlink="http://www.w3.org/1999/xlink"><clipPath id="a"><path d="m0 0h54v54h-54z"/></clipPath><g clip-path="url(#a)"><path d="m48.3158 0h-42.63159c-3.15789 0-5.68421 2.52632-5.68421 5.68421v42.63159c0 3.1579 2.52632 5.6842 5.68421 5.6842h42.63159c3.0947 0 5.6842-2.5263 5.6842-5.6842v-42.63159c0-3.15789-2.5263-5.68421-5.6842-5.68421zm-21.4105 32.9053c1.7684 0 3.6631-.6948 5.4947-2.3369l2.5263 2.9053c-2.6526 2.1474-5.6842 3.3474-8.7158 3.3474-6 0-9.7894-3.979-8.9052-9.6.8842-5.6211 6-9.6 12-9.6 2.9052 0 5.621 1.1368 7.5158 3.221l-3.5369 2.9053c-1.0105-1.3263-2.7158-2.2106-4.6105-2.2106-3.6 0-6.379 2.3369-6.9474 5.6843-.5052 3.3473 1.5158 5.6842 5.179 5.6842z" fill="#e5422b"/></g></svg>