<?xml version="1.0" encoding="UTF-8" standalone="no"?>
<svg
   fill="none"
   height="42"
   viewBox="0 0 139 42"
   width="139"
   version="1.1"
   id="svg11"
   sodipodi:docname="dark-i-gelb.svg"
   inkscape:version="1.3 (0e150ed, 2023-07-21)"
   xmlns:inkscape="http://www.inkscape.org/namespaces/inkscape"
   xmlns:sodipodi="http://sodipodi.sourceforge.net/DTD/sodipodi-0.dtd"
   xmlns="http://www.w3.org/2000/svg"
   xmlns:svg="http://www.w3.org/2000/svg">
  <defs
     id="defs11" />
  <sodipodi:namedview
     id="namedview11"
     pagecolor="#ffffff"
     bordercolor="#000000"
     borderopacity="0.25"
     inkscape:showpageshadow="2"
     inkscape:pageopacity="0.0"
     inkscape:pagecheckerboard="0"
     inkscape:deskcolor="#d1d1d1"
     inkscape:zoom="5.6190476"
     inkscape:cx="69.495763"
     inkscape:cy="20.911017"
     inkscape:window-width="1472"
     inkscape:window-height="920"
     inkscape:window-x="0"
     inkscape:window-y="36"
     inkscape:window-maximized="0"
     inkscape:current-layer="g11" />
  <clipPath
     id="a">
    <path
       d="m0 0h139v42h-139z"
       id="path1" />
  </clipPath>
  <g
     clip-path="url(#a)"
     id="g11">
    <g
       fill="#222"
       id="g8"
       style="fill:#ffffff;fill-opacity:1">
      <path
         d="m.75 30.1989v-.9487c2.3116-.2063 2.5592-.4125 2.5592-2.8875v-7.425c0-2.2275-.1238-2.3925-2.31153-2.7225v-.8663c1.85753-.2887 3.59123-.7425 5.20103-1.4025v12.4163c0 2.4337.2477 2.6812 2.6006 2.8875v.9487zm1.9401-21.12004c0-1.0725.8668-1.8562 1.8575-1.8562 1.032 0 1.8162.7837 1.8162 1.8562 0 .99004-.8255 1.81504-1.8575 1.81504-.9081.0413-1.8162-.825-1.8162-1.81504z"
         id="path2"
         style="fill:#ffffff;fill-opacity:1" />
      <path
         d="m19.9029 23.105h-8.3795l.4954-1.98h8.4207z"
         id="path3"
         style="fill:#ffffff;fill-opacity:1" />
      <path
         d="m39.6749 14.7303c-.3302.5775-1.0732 1.5263-1.6511 1.815l-2.1052-.1237c.7018.7837 1.1145 1.8975 1.1145 3.2175 0 3.8775-3.3022 5.775-6.4394 5.775-.6191 0-1.2796-.1238-1.8575-.165-.4953.33-1.1145.99-1.1145 1.485 0 .7012.6605 1.4025 2.3116 1.4025 1.3209 0 2.6418-.0413 3.8389-.0413 2.2703 0 5.2836.7013 5.2836 4.2488 0 3.63-4.293 7.1362-9.1638 7.1362-4.0865 0-6.3156-2.3512-6.3568-4.3725 0-.7837.3302-1.485.8668-2.0212.743-.7013 2.1465-1.8563 3.0546-2.5163-1.3209-.4125-2.229-1.2375-2.7244-1.98-.3302-.5362-.454-1.155-.4128-1.5262 1.4861-.5363 2.6419-1.485 3.2197-2.1863-1.6511-.7012-3.2197-2.3925-3.2197-4.8262 0-4.0838 3.7564-5.9813 6.5633-5.9813 1.2383 0 2.4767.33 3.5086.9075 1.8163-.0825 3.6738-.2887 4.9947-.495zm-11.5166 16.665c-.9494.7425-1.6924 1.7738-1.6924 2.805 0 1.9388 2.1465 3.4238 4.8296 3.4238 3.5086 0 5.2836-1.7738 5.2836-4.0013 0-1.2375-.6192-2.1037-1.6924-2.5575-.9082-.3712-1.9814-.4537-3.5087-.4537-1.7749 0-2.5592.2062-3.2197.7837zm-.6192-11.9625c0 2.805 1.4035 4.8263 3.4674 4.8263 1.6099-.0413 3.0546-1.4438 3.0546-4.29 0-2.8463-1.3622-4.8675-3.4674-4.8675-1.6511.0412-3.0546 1.5262-3.0546 4.3312z"
         id="path4"
         style="fill:#ffffff;fill-opacity:1" />
      <path
         d="m53.9178 27.1488c-2.3116 2.8462-4.8296 3.5062-5.9854 3.5062-4.4993 0-7.1824-3.5887-7.1824-7.6725 0-2.475.9081-4.6611 2.4354-6.3111 1.486-1.65 3.5087-2.6402 5.4075-2.6402 3.0546 0 5.49 2.6813 5.49 5.4863 0 .7013-.1651.9901-.8256 1.1551-.6192.1238-5.2011.4537-9.5765.6187.0412 4.9087 2.8894 6.8887 5.49 6.8887 1.486 0 2.8482-.5775 4.1691-1.815zm-10.0719-7.3425c2.0639 0 4.0865-.0412 6.1917-.1237.6605 0 .8668-.2063.8668-.7013.0413-1.8562-1.197-3.5888-3.2197-3.5888-1.6924 0-3.3022 1.485-3.8388 4.4138z"
         id="path5"
         style="fill:#ffffff;fill-opacity:1" />
      <path
         d="m55.4023 30.1983v-.9488c2.3116-.2062 2.6418-.4125 2.6418-2.805v-16.995c0-2.4337-.2063-2.5575-2.5179-2.7225v-.86622c1.8988-.20625 4.1691-.825 5.4487-1.27875v21.86247c0 2.3925.289 2.5988 2.6418 2.805v.9488z"
         id="path6"
         style="fill:#ffffff;fill-opacity:1" />
      <path
         d="m72.5726 14.4017c.5779-.2475 1.1145-.3712 1.486-.3712 3.9214 0 7.2237 3.3 7.2237 7.5487 0 5.28-4.293 9.0338-9.2051 9.0338-1.486 0-3.3848-.3713-5.4074-1.2788v-20.0062c0-2.2275-.0826-2.4338-2.4354-2.6813v-.82498c1.7337-.20625 3.9627-.78375 5.3249-1.27875v11.09623zm-2.9721 11.6325c0 .5363.0826.9075.2064 1.2375.2064.7013 1.3209 1.98 3.261 2.0213 3.0546 0 4.9947-2.5575 4.9947-6.7238 0-4.0837-2.5593-6.4762-5.6139-6.4762-1.0319 0-2.1877.2887-2.8482.7012z"
         id="path7"
         style="fill:#ffffff;fill-opacity:1" />
      <path
         d="m89.5273 0h.7v42h-.7z"
         id="path8"
         style="fill:#ffffff;fill-opacity:1" />
    </g>
    <path
       d="m118.988 40.2861c10.811 0 19.575-8.7578 19.575-19.561 0-10.8033-8.764-19.56104-19.575-19.56104-10.81 0-19.5739 8.75774-19.5739 19.56104 0 10.8032 8.7639 19.561 19.5739 19.561z"
       fill="#fff"
       id="path9" />
    <path
       d="m118.987 29.9924c5.121 0 9.272-4.1484 9.272-9.2657s-4.151-9.2658-9.272-9.2658-9.272 4.1485-9.272 9.2658 4.151 9.2657 9.272 9.2657z"
       fill="#ffe60b"
       id="path10" />
    <path
       d="m118.988.839844c-11.005 0-19.9021 8.891356-19.9021 19.888556s8.8971 19.8886 19.9021 19.8886 19.902-8.8914 19.902-19.8886-8.897-19.888556-19.902-19.888556zm0 39.122056c-10.63 0-19.2461-8.6106-19.2461-19.2335 0-10.6228 8.6161-19.2334 19.2461-19.2334s19.247 8.6106 19.247 19.2334c0 10.6229-8.617 19.2335-19.247 19.2335z"
       fill="#222"
       id="path11"
       style="fill:#ffffff;fill-opacity:1" />
  </g>
</svg>
