<?xml version="1.0" encoding="UTF-8" standalone="no"?>
<svg
   fill="none"
   height="62"
   viewBox="0 0 61 62"
   width="61"
   version="1.1"
   id="svg6"
   sodipodi:docname="dark-redfin-solutions.svg"
   inkscape:version="1.3 (0e150ed, 2023-07-21)"
   xmlns:inkscape="http://www.inkscape.org/namespaces/inkscape"
   xmlns:sodipodi="http://sodipodi.sourceforge.net/DTD/sodipodi-0.dtd"
   xmlns="http://www.w3.org/2000/svg"
   xmlns:svg="http://www.w3.org/2000/svg">
  <defs
     id="defs6" />
  <sodipodi:namedview
     id="namedview6"
     pagecolor="#ffffff"
     bordercolor="#000000"
     borderopacity="0.25"
     inkscape:showpageshadow="2"
     inkscape:pageopacity="0.0"
     inkscape:pagecheckerboard="0"
     inkscape:deskcolor="#d1d1d1"
     inkscape:zoom="3.8064516"
     inkscape:cx="30.605932"
     inkscape:cy="31"
     inkscape:window-width="1312"
     inkscape:window-height="449"
     inkscape:window-x="0"
     inkscape:window-y="37"
     inkscape:window-maximized="0"
     inkscape:current-layer="svg6" />
  <linearGradient
     id="a"
     gradientUnits="userSpaceOnUse"
     x1="24.2079"
     x2="45.4204"
     y1="3.81333"
     y2="19.3385">
    <stop
       offset="0"
       stop-color="#e15e29"
       id="stop1" />
    <stop
       offset="1"
       stop-color="#a51f25"
       id="stop2" />
  </linearGradient>
  <clipPath
     id="b">
    <path
       d="m0 0h61v62h-61z"
       id="path2" />
  </clipPath>
  <g
     clip-path="url(#b)"
     id="g6">
    <path
       d="m16.7474.15477s12.5249-1.34682 21.0095 3.90559c8.4846 5.25242 6.7338 12.39024 6.7338 12.39024s-.9861 5.7439-6.7338 3.7708c-4.5116-1.5487-2.5587-6.8683-2.5587-6.8683s-5.4187.6806-7.2725 4.983c-1.7846 4.1412-1.8856 9.562 3.6361 14.545 0 0-13.4676-2.8282-13.0636-16.0266 0 0 .3631-6.1495 4.9956-9.37103 0 0-2.4801.3137-4.4567 2.53063 0 0-.0761-6.80692-2.2897-9.85933z"
       fill="url(#a)"
       id="path3" />
    <g
       clip-rule="evenodd"
       fill-rule="evenodd"
       id="g5">
      <path
         d="m1.04193 50.2323h2.39157v-4.0314h1.52023l2.3575 4.0314h2.73317l-2.64782-4.3902c1.34953-.5294 2.27199-1.6398 2.27199-3.3993 0-2.7161-1.94747-3.8265-4.32184-3.8265h-4.3048zm2.39157-6.047v-3.4679h1.84491c1.14444 0 1.93027.4271 1.93027 1.7254 0 1.2812-.7516 1.7425-1.93027 1.7425zm8.8981 6.047h7.9262v-2.1011h-5.5346v-2.6989h4.6634v-2.0499h-4.6634v-2.665h5.2954v-2.1011h-7.687zm10.649 0h3.5702c3.5873 0 6.1155-2.3744 6.1155-5.808 0-3.4335-2.5452-5.808-6.1155-5.808h-3.5702zm2.3916-2.1011v-7.4138h1.059c2.5795 0 3.7582 1.5375 3.7582 3.7069 0 2.1696-1.1787 3.7069-3.7582 3.7069zm9.8291 2.1011h2.3915v-4.3559h4.6293v-2.1354h-4.6293v-3.0236h5.0906v-2.1011h-7.4821zm9.9487 0h2.3915v-11.616h-2.3915zm14.7709.1025h.2392v-11.7185h-2.2378v4.8685c0 .8029.1537 2.1183.1537 2.1183s-.8029-1.0592-1.3666-1.5887l-5.8592-5.5005h-.2392v11.7184h2.2379v-4.8683c0-.8372-.1709-2.1184-.1709-2.1184s.8029 1.0421 1.3836 1.5887z"
         fill="#b90e31"
         id="path4" />
      <path
         d="m3.09528 61.8712c1.28408 0 2.22071-.7158 2.22071-1.8945 0-1.0735-.61035-1.6629-1.79969-2.1891l-.56831-.2631c-.79985-.3683-1.13663-.6526-1.13663-1.2839 0-.6105.43153-1.0209 1.13663-1.0209.67357 0 1.05239.3368 1.32612.7787l.61035-.3788c-.37882-.6316-.97882-1.0735-1.93647-1.0735-1.07358 0-1.88393.6841-1.88393 1.7155 0 .9998.55781 1.4944 1.57867 1.9575l.56832.2632c.89459.3999 1.34714.7682 1.34714 1.4944 0 .7579-.65255 1.2209-1.48393 1.2209-1.01035 0-1.50494-.5158-1.84173-1.1156l-.63153.3368c.378823.7578 1.12612 1.4524 2.49428 1.4524zm7.50402 0c2.0417 0 3.6836-1.5051 3.6836-3.6626s-1.6419-3.6625-3.6836-3.6625c-2.03122 0-3.67311 1.505-3.67311 3.6625s1.64189 3.6626 3.67311 3.6626zm0-.6841c-1.66291 0-2.88377-1.2736-2.88377-2.9785 0-1.705 1.22086-2.9784 2.88377-2.9784 1.6734 0 2.8943 1.2734 2.8943 2.9784 0 1.7049-1.2209 2.9785-2.8943 2.9785zm5.7569.5998h4.1361v-.6735h-3.3783v-6.4832h-.7578zm8.4722.0843c1.4524 0 2.568-.8526 2.568-2.526v-4.715h-.7578v4.6625c0 1.2734-.7051 1.9049-1.8102 1.9049-1.1157 0-1.8102-.6315-1.8102-1.9049v-4.6625h-.7578v4.715c0 1.6734 1.1051 2.526 2.568 2.526zm6.5567-.0843h.7576v-6.4831h2.1997v-.6736h-5.157v.6736h2.1997zm4.8413 0h.7683v-7.1567h-.7683zm6.5462.0843c2.0417 0 3.6836-1.5051 3.6836-3.6626s-1.6419-3.6625-3.6836-3.6625c-2.0313 0-3.6731 1.505-3.6731 3.6625s1.6418 3.6626 3.6731 3.6626zm0-.6841c-1.6629 0-2.8838-1.2736-2.8838-2.9785 0-1.705 1.2209-2.9784 2.8838-2.9784 1.6734 0 2.8942 1.2734 2.8942 2.9784 0 1.7049-1.2208 2.9785-2.8942 2.9785zm11.1769.6736h.1263v-7.2305h-.7051v4.8308c0 .3052.0526.7893.0526.8105-.0316-.0422-.3051-.4315-.4946-.6631l-4.273-5.0517h-.1263v7.2302h.7157v-4.8307c0-.2842-.0631-.7473-.0631-.7999.0315.0526.3051.4316.4946.6526zm4.4308.0105c1.2841 0 2.2207-.7158 2.2207-1.8945 0-1.0735-.6104-1.6629-1.7997-2.1891l-.5683-.2631c-.7998-.3683-1.1366-.6526-1.1366-1.2839 0-.6105.4315-1.0209 1.1366-1.0209.6736 0 1.0524.3368 1.3261.7787l.6104-.3788c-.3789-.6316-.9789-1.0735-1.9365-1.0735-1.0736 0-1.8839.6841-1.8839 1.7155 0 .9998.5578 1.4944 1.5786 1.9575l.5683.2632c.8946.3999 1.3472.7682 1.3472 1.4944 0 .7579-.6526 1.2209-1.4839 1.2209-1.0104 0-1.505-.5158-1.8418-1.1156l-.6315.3368c.3788.7578 1.1261 1.4524 2.4943 1.4524z"
         fill="#64666c"
         id="path5"
         style="fill:#ffffff;fill-opacity:1" />
    </g>
  </g>
</svg>
