<?xml version="1.0" encoding="UTF-8" standalone="no"?>
<svg
   fill="none"
   height="36"
   viewBox="0 0 181 36"
   width="181"
   version="1.1"
   id="svg3"
   sodipodi:docname="dark-lullabot.svg"
   inkscape:version="1.3 (0e150ed, 2023-07-21)"
   xmlns:inkscape="http://www.inkscape.org/namespaces/inkscape"
   xmlns:sodipodi="http://sodipodi.sourceforge.net/DTD/sodipodi-0.dtd"
   xmlns="http://www.w3.org/2000/svg"
   xmlns:svg="http://www.w3.org/2000/svg">
  <defs
     id="defs3" />
  <sodipodi:namedview
     id="namedview3"
     pagecolor="#ffffff"
     bordercolor="#000000"
     borderopacity="0.25"
     inkscape:showpageshadow="2"
     inkscape:pageopacity="0.0"
     inkscape:pagecheckerboard="0"
     inkscape:deskcolor="#d1d1d1"
     inkscape:zoom="4.5635359"
     inkscape:cx="90.390436"
     inkscape:cy="17.968523"
     inkscape:window-width="1312"
     inkscape:window-height="449"
     inkscape:window-x="0"
     inkscape:window-y="37"
     inkscape:window-maximized="0"
     inkscape:current-layer="svg3" />
  <clipPath
     id="a">
    <path
       d="m0 0h181v36h-181z"
       id="path1" />
  </clipPath>
  <g
     clip-path="url(#a)"
     clip-rule="evenodd"
     fill-rule="evenodd"
     id="g3">
    <path
       d="m31.363 17.9224h1.4895c.989 0 1.7911.8013 1.7923 1.7891v6.8357c0 .9879-.8021 1.7891-1.791 1.7891h-1.4896v3.5612c0 1.9708-1.5993 3.5672-3.5711 3.5672h-20.25135c-1.97298 0-3.57114-1.5976-3.57114-3.5672v-3.5612h-1.48953c-.98894 0-1.791078-.8012-1.791078-1.7891v-6.8357c0-.9878.802138-1.7891 1.791078-1.7891h1.48953v-3.3964c0-1.9709 1.59937-3.5673 3.57114-3.5673h8.50005v-3.927c-1.1416-.58902-1.923-1.77566-1.923-3.14764 0-1.95744 1.5884-3.544064 3.548-3.544064s3.548 1.586624 3.548 3.544064c0 1.37077-.7814 2.55862-1.923 3.14764v3.927h8.5001c1.973 0 3.5711 1.5977 3.5711 3.5673zm-16.4127.972c0 1.1175-.9068 2.0233-2.0255 2.0233s-2.0255-.9058-2.0255-2.0233c0-1.1174.9068-2.0232 2.0255-2.0232s2.0255.9058 2.0255 2.0232zm9.6806 0c0 1.1175-.9068 2.0233-2.0255 2.0233-1.1186 0-2.0255-.9058-2.0255-2.0233 0-1.1174.9069-2.0232 2.0255-2.0232 1.1187 0 2.0255.9058 2.0255 2.0232zm-6.875 10.8481c-3.5003 0-6.7931-1.3586-9.27159-3.8258-.52499-.522-.5262-1.3708-.00363-1.894.5225-.5244 1.3723-.5256 1.89612-.0036 1.9729 1.9634 4.5943 3.044 7.3791 3.044 2.7935 0 5.4184-1.0867 7.3939-3.0599.5238-.5232 1.3723-.5232 1.8961 0s.5238 1.3708 0 1.894c-2.4809 2.4806-5.7798 3.8453-9.29 3.8453z"
       fill="#f80000"
       id="path2" />
    <path
       d="m86.313 10.7224v23.9706c0 .3279.2612.5953.5855.5921h4.6057c.3243 0 .5856-.2642.5856-.5921v-24.5468c0-.35658-.3084-.63354-.6575-.58894l-4.6064.57614c-.2925.0382-.5129.2897-.5129.589zm94.377 3.0146c0 .8722-.677 1.5598-1.557 1.5598-.872 0-1.571-.6844-1.571-1.5598 0-.8532.696-1.5408 1.571-1.5408.88 0 1.557.6844 1.557 1.5408zm-2.737 0c0 .6844.5 1.2287 1.189 1.2287.667 0 1.161-.5443 1.161-1.2192 0-.6844-.491-1.2383-1.17-1.2383-.68 0-1.18.5539-1.18 1.2288zm.937.8085h-.352v-1.5407c.139-.0287.334-.0478.585-.0478.29 0 .419.0478.528.1114.086.0669.148.1879.148.3375 0 .1687-.128.2992-.314.3566v.019c.148.0574.233.1687.277.3757.047.2356.076.3278.11.3852h-.38c-.041-.0492-.068-.1591-.102-.3016-.006-.0239-.012-.0486-.018-.0741-.029-.1687-.12-.2451-.315-.2451h-.167zm.01-.8754h.167c.195 0 .352-.0669.352-.226 0-.14-.101-.2356-.324-.2356-.091 0-.158.0096-.195.0191zm-108.6387 3.9665c.3237 0 .5849.2642.5849.5921v9.8461c0 2.1265.8996 2.8459 2.4007 2.8459 1.1136 0 2.0451-.4297 2.7402-.9868.1415-.1146.2236-.2865.2236-.4679v-11.2373c0-.3279.2613-.5921.5849-.5921h4.6064c.3237 0 .5849.2642.5849.5921v16.267c0 .2992-.2204.5506-.5129.5888l-4.6057.5763c-.3492.0445-.6576-.2325-.6576-.589v-.5825c0-.4967-.5695-.7768-.9537-.4616-1.2743 1.0505-2.913 1.8272-4.7128 1.8272-3.4137 0-5.4774-2.3143-5.4774-6.0738v-11.5524c0-.3279.2612-.5921.5849-.5921zm26.1482 17.0564v-23.9706c0-.2993.2198-.5508.5128-.589l4.6057-.57614c.349-.0446.658.23236.658.58894v24.5468c0 .3279-.262.5921-.585.5921h-4.6067c-.3236.0032-.5848-.2642-.5848-.5921zm14.4845 1.162c2.401 0 3.791-1.2161 5.028-2.6963h.117c.767 1.8909 2.573 2.9128 6.182 2.5021.157-.0191.283-.1464.305-.3056l.478-3.5431c.025-.1942-.11-.3725-.302-.3979-.897-.1114-1.076-.3184-1.076-1.4039l.038-5.2366c.076-4.9374-1.913-7.7069-7.953-7.7069-3.153 0-5.928 1.0027-7.772 1.9514-.151.0796-.226.2515-.179.4138l1.01 3.6036c.06.2101.295.3151.49.2196 1.907-.9295 3.861-1.598 5.55-1.598 2.14 0 3.078.8372 3.078 2.6963 0 .191-.151.347-.341.3533-7.572.2961-9.979 2.9606-9.979 6.2522 0 2.7313 2.325 4.896 5.326 4.896zm4.594-8.3755c.211-.0286.396.1369.396.3502v2.8428c0 .0891-.031.1782-.094.2419-.601.6303-1.501 1.0728-2.605 1.0728-1.278 0-2.177-.7576-2.177-1.8973 0-1.4994 1.214-2.1901 4.48-2.6104zm19.761 8.3373c-1.117 0-2.687-.2801-3.807-.6749-.088-.0319-.179-.0414-.274-.0287l-4.634.6463c-.352.0477-.667-.2292-.667-.5889v-24.4482c0-.2993.22-.5508.513-.589l4.606-.57614c.349-.0446.658.23236.658.58894v7.9679c0 .4998.569.7736.953.4616 1.01-.8182 2.322-1.5057 3.961-1.5057 4.314 0 7.429 3.5685 7.429 9.1871.002 5.8415-4.012 9.5597-8.738 9.5597zm-.676-14.08c-1.161 0-1.979.4075-2.712 1.025-.136.1146-.214.2802-.214.4584v6.8124c0 .5793.113.7799.302.8818.632.3438 1.428.538 2.36.538 2.476 0 3.901-1.9737 3.901-4.896.003-3.037-1.274-4.8196-3.637-4.8196zm11.826 4.7814c0 5.9974 4.015 9.3368 9.266 9.3368 5.216 0 9.454-3.5272 9.454-9.4514 0-5.9211-3.977-9.3368-9.228-9.3368-5.288 0-9.492 3.4539-9.492 9.4514zm5.742-.0383c0-3.0369 1.237-4.9723 3.599-4.9723 2.363 0 3.638 1.9737 3.641 4.9342 0 3.0369-1.237 4.9342-3.599 4.9342-2.367 0-3.641-1.8973-3.641-4.8961zm23.374 9.3751c-4.317 0-6.639-1.7828-6.416-6.4145l.243-6.198c.012-.2961-.195-.5571-.488-.608l-1.617-.2802c-.29-.0509-.497-.3056-.488-.6016l.085-2.7886c.006-.2484.17-.468.403-.5444l1.84-.6112c.237-.0796.4-.2992.403-.5507l.057-3.0211c.006-.3246.267-.5825.585-.5825h4.424c.326 0 .588.2674.584.5985l-.024 3.0178c-.004.3311.261.5985.585.5985h3.158c.331 0 .595.2737.586.608l-.086 3.4062c-.008.3215-.266.5794-.584.5794h-3.512c-.317 0-.576.2546-.585.5761l-.17 5.7651c-.075 1.6331.866 2.3143 2.291 2.3143.522 0 1.082-.1019 1.655-.2611.337-.0923.683.1338.733.4839l.497 3.3648c.044.2961-.138.5794-.422.659-1.142.3184-2.196.4903-3.737.4903zm-113.321-5.0743c.123 1.4388.4562 2.6581 1.1991 3.5176.3332.3884.072.99-.4345.9868h-1.3966-1.7119-12.912c-.3243 0-.5849-.2642-.5849-.5921v-22.5381c0-.328.2606-.5922.5849-.5922h4.7918c.3243 0 .5849.2642.5849.5922v17.4893c0 .3279.2612.5921.5855.5921h6.9434.0032 1.7623c.0114 0 .0203.0055.0299.011.0083.0049.0166.0098.0268.0113.0751.0127.1414.0382.2045.0796.1695.0923.3052.2356.3236.4425z"
       fill="#223340"
       id="path3"
       style="fill:#ffffff;fill-opacity:1" />
  </g>
</svg>
