<?xml version="1.0" encoding="UTF-8" standalone="no"?>
<svg
   fill="none"
   height="69"
   viewBox="0 0 175 69"
   width="175"
   version="1.1"
   id="svg13"
   sodipodi:docname="dark-mac-stadium.svg"
   inkscape:version="1.3 (0e150ed, 2023-07-21)"
   xmlns:inkscape="http://www.inkscape.org/namespaces/inkscape"
   xmlns:sodipodi="http://sodipodi.sourceforge.net/DTD/sodipodi-0.dtd"
   xmlns="http://www.w3.org/2000/svg"
   xmlns:svg="http://www.w3.org/2000/svg">
  <defs
     id="defs13" />
  <sodipodi:namedview
     id="namedview13"
     pagecolor="#ffffff"
     bordercolor="#000000"
     borderopacity="0.25"
     inkscape:showpageshadow="2"
     inkscape:pageopacity="0.0"
     inkscape:pagecheckerboard="0"
     inkscape:deskcolor="#d1d1d1"
     inkscape:zoom="3.4202899"
     inkscape:cx="87.565678"
     inkscape:cy="34.5"
     inkscape:window-width="1312"
     inkscape:window-height="449"
     inkscape:window-x="0"
     inkscape:window-y="37"
     inkscape:window-maximized="0"
     inkscape:current-layer="svg13" />
  <clipPath
     id="a">
    <path
       d="m0 0h175v69h-175z"
       id="path1" />
  </clipPath>
  <g
     clip-path="url(#a)"
     id="g13">
    <path
       d="m128.325 22.4282v16.814l.114 3.588h-2.258l-.114-2.4149h-.056c-.776 1.5531-2.452 2.7376-4.699 2.7376-3.33 0-5.907-2.8528-5.907-7.073-.023-4.6238 2.828-7.4749 6.18-7.4749 2.11 0 3.536 1.0114 4.163 2.1273h.057v-8.3041zm-2.509 12.1567c0-.3227-.023-.7474-.114-1.0587-.365-1.6093-1.733-2.932-3.626-2.932-2.6 0-4.128 2.2997-4.128 5.382 0 2.8175 1.369 5.1532 4.082 5.1532 1.688 0 3.216-1.1282 3.672-3.0137.091-.3456.114-.6903.114-1.0931zm-42.3639 6.4742c-1.7104 0-3.3302-.5752-4.448-1.2655l-.6498 2.0701c1.0262.6903 3.0568 1.2426 4.9035 1.2426 4.5386 0 6.7283-2.5881 6.7283-5.578 0-2.8405-1.6533-4.4278-4.9036-5.6932-2.6566-1.0351-3.8201-1.9206-3.8201-3.7375 0-1.3103 1.0034-2.8985 3.6267-2.8985 1.2743-.005 2.5292.3117 3.6486.9208l.6842-2.0473c-.8548-.4836-2.2803-.9436-4.2422-.9436-3.7287 0-6.2147 2.2548-6.2147 5.2676 0 2.7376 1.939 4.3706 5.0741 5.4971 2.6003 1.0008 3.6266 2.0358 3.6266 3.8527 0 1.9558-1.4827 3.3127-4.0136 3.3127zm-43.2197-13.6052c0 2.8528.08 5.6361.1715 7.97l.3306 7.43h4.2194l-1.0263-19.3793h-5.702l-2.0296 6.4407c-.6613 2.1511-1.3112 4.7154-1.8248 6.9578h-.1143c-.4382-2.3341-.9784-4.648-1.619-6.9349l-1.8819-6.4636h-5.7926l-1.2311 19.3793h4.0136l.3649-7.3605.3192-8.0281h.0572c.4755 2.545 1.0534 5.0698 1.7324 7.5681l2.0534 7.4987h3.398l2.3383-7.5681c.7404-2.2777 1.5389-5.0372 2.166-7.5101zm19.7284 15.3886c-.1715-.7712-.2286-2.071-.2286-3.3936h.0114v-4.9106c0-3.3118-1.4475-6.0722-6.1004-6.0722-2.5432 0-4.4471.7123-5.4171 1.2655l.7985 2.7832c.9128-.5522 2.4289-1.0359 3.8544-1.0359 2.1326 0 2.5318 1.0702 2.5318 1.8177v.1724c-4.9378 0-8.1872 1.7254-8.1872 5.3819 0 2.2425 1.6753 4.3134 4.5034 4.3134 1.6533 0 3.0797-.5979 3.9916-1.7253h.0915l.2506 1.4035zm-8.4616-4.4401c0-1.6559 1.7676-2.2073 4.0479-2.2073h.0114v1.5179c0 .2638-.0334.517-.0905.7474-.2973.897-1.2092 1.6093-2.2583 1.6093-.9691 0-1.7105-.5399-1.7105-1.6673zm22.1459 4.0602c-.7756.3685-2.224.6674-3.8773.6674-4.5042 0-7.3895-2.7832-7.3895-7.1881 0-4.0831 2.7938-7.4529 7.9823-7.4529 1.1405 0 2.3954.2075 3.3065.5522l-.6833 3.2432c-.5136-.2304-1.2778-.437-2.4184-.437-2.2802 0-3.762 1.6445-3.74 3.9107 0 2.5871 1.7113 3.9326 3.821 3.9326 1.0262 0 1.8238-.1723 2.4851-.4599zm22.6128-16.8598v3.3118h3.5924v1.932h-3.5924v7.4986c0 1.7254.4793 2.7033 1.8819 2.7033.6613 0 1.1406-.0923 1.4598-.1732l.1135 1.8977c-.4784.2075-1.2541.3456-2.2231.3456-1.1635 0-2.1097-.3685-2.7139-1.0588-.707-.7475-.9699-1.9777-.9699-3.6231v-7.5892h-2.144v-1.9329h2.144v-2.5643zm13.8441 15.4914.205 1.7483v-.0114h2.281c-.171-.9436-.228-2.1282-.228-3.3356v-5.1981c0-2.7947-1.027-5.6932-5.246-5.6932-1.745 0-3.398.4951-4.538 1.2426l.569 1.6673c.97-.6332 2.316-1.0351 3.593-1.0351 2.816 0 3.136 2.0701 3.136 3.2204v.2876c-5.337-.0229-8.302 1.8168-8.302 5.1752 0 2.0244 1.426 4.0021 4.219 4.0021 1.962 0 3.444-.9778 4.22-2.0701zm-5.998-2.231c0-2.6909 3.102-3.186 5.838-3.128v2.4148c0 .2533-.046.5523-.137.8055-.387 1.1723-1.527 2.3225-3.329 2.3225-1.289 0-2.372-.7826-2.372-2.4148zm29.58-12.294c1.004 0 1.619-.6903 1.597-1.553 0-.897-.593-1.5873-1.528-1.5873-.209-.0049-.417.0329-.611.1112-.194.0782-.371.1951-.518.3437s-.263.3256-.339.5203c-.077.1947-.113.403-.106.6121 0 .8618.616 1.553 1.505 1.553zm-1.197 2.3568v13.9165h2.508v-13.9165zm18.223 10.121c0 1.4378.023 2.7024.114 3.7955h-2.223l-.138-2.2777h-.057c-.661 1.1274-2.11 2.5881-4.561 2.5881-2.167 0-4.767-1.2074-4.767-6.096v-8.1423h2.509v7.7053c0 2.6452.798 4.4277 3.079 4.4277 1.688 0 2.851-1.1731 3.307-2.2996.137-.3685.228-.8284.228-1.2883v-8.5337h2.509zm4.048-10.1324c.092 1.1502.114 2.3348.114 3.7726v10.1553h2.452v-8.3965c0-.4371.069-.8741.205-1.2426.388-1.2646 1.528-2.53 3.103-2.53 1.903 0 2.873 1.6102 2.873 3.8183v8.3385h2.451v-8.6032c.003-.4296.073-.8561.206-1.2645.434-1.2426 1.539-2.3005 2.965-2.3005 2.019 0 2.988 1.6101 2.988 4.2782v7.8785h2.463v-8.188c0-4.8306-2.714-6.038-4.539-6.038-1.322 0-2.235.3448-3.056.9779-.633.4932-1.157 1.1117-1.539 1.8169h-.058c-.592-1.6331-2.018-2.7833-3.9-2.7833-2.28 0-3.558 1.2311-4.332 2.5529h-.092l-.114-2.2425z"
       fill="#000"
       id="path2"
       style="fill:#ffffff;fill-opacity:1" />
    <path
       d="m35.8416.070343h-3.3065v16.676857h3.3065zm.1143 51.156257h-3.3065v16.676h3.3065zm-8.5829-1.3789 3.1386 1.0527-5.2219 15.823-3.1377-1.0536zm-1.94-.9849-2.676-1.9602-9.7138 13.4944 2.676 1.9593zm-6.0282-6.1751 1.9241 2.712-13.44774 9.7033-1.92412-2.7129zm-.9331-1.9136-1.0245-3.1711-15.72182 5.1665 1.02449 3.1711zm-1.3305-8.5249v3.3356h-16.535295v-3.3356zm.2506-2.0032 1.0201-3.1729-15.72974-5.1436-1.0201 3.1729zm3.8808-7.7669-1.9558 2.6892-13.33426-9.8624 1.95578-2.6892zm4.0558-21.28313-3.143 1.03769 5.1454 15.84674 3.1429-1.0377zm-12.2359 6.24108 2.6654-1.97424 9.7877 13.44159-2.6663 1.9734z"
       fill="#fe9000"
       id="path3" />
    <g
       fill="#686868"
       id="g12"
       style="fill:#ffffff;fill-opacity:1">
      <path
         d="m92.6603 17.5879h1.3771v-4.2738c.3166.0791.6965.0949 1.1081.0949 1.3454 0 2.5326-.3957 3.2608-1.1713.5382-.554.8231-1.3138.8231-2.27941 0-.94975-.3483-1.72538-.9339-2.23191-.6332-.56985-1.6304-.88643-2.9917-.88643-1.1081 0-1.9787.09497-2.6435.20578zm1.3771-9.54494c.2375-.06332.6965-.1108 1.298-.1108 1.5196 0 2.5169.68065 2.5169 2.08944 0 1.4721-1.0131 2.2794-2.6752 2.2794-.459 0-.8389-.0317-1.1397-.1108z"
         id="path4"
         style="fill:#ffffff;fill-opacity:1" />
      <path
         d="m104.435 9.75251c-2.122 0-3.799 1.50379-3.799 4.06809 0 2.4219 1.598 3.9415 3.672 3.9415 1.852 0 3.815-1.2347 3.815-4.0681 0-2.3427-1.488-3.94149-3.688-3.94149zm-.032 1.04469c1.646 0 2.295 1.6463 2.295 2.9443 0 1.7253-.997 2.9758-2.327 2.9758-1.361 0-2.327-1.2663-2.327-2.9442 0-1.4563.713-2.9759 2.359-2.9759z"
         id="path5"
         style="fill:#ffffff;fill-opacity:1" />
      <path
         d="m109.452 9.92663 2.311 7.66127h1.267l1.234-3.6407c.269-.8231.507-1.6145.697-2.5326h.032c.189.9022.411 1.662.68 2.5168l1.172 3.6565h1.266l2.469-7.66127h-1.377l-1.092 3.84647c-.253.9023-.459 1.7096-.586 2.4852h-.047c-.174-.7756-.396-1.5829-.681-2.501l-1.187-3.83067h-1.172l-1.25 3.89397c-.253.8389-.507 1.6621-.681 2.4377h-.047c-.143-.7915-.348-1.5829-.57-2.4377l-1.013-3.89397z"
         id="path6"
         style="fill:#ffffff;fill-opacity:1" />
      <path
         d="m128.535 14.0106c.016-.1425.048-.3641.048-.649 0-1.4088-.665-3.60909-3.166-3.60909-2.232 0-3.593 1.82039-3.593 4.13139 0 2.3111 1.409 3.8782 3.767 3.8782 1.219 0 2.058-.2691 2.549-.4907l-.238-.9973c-.522.2216-1.124.3957-2.121.3957-1.393 0-2.596-.7756-2.628-2.6592zm-5.366-.9973c.111-.9656.728-2.2636 2.137-2.2636 1.567 0 1.947 1.3772 1.931 2.2636z"
         id="path7"
         style="fill:#ffffff;fill-opacity:1" />
      <path
         d="m130.862 17.5879h1.377v-4.0839c0-.2374.032-.459.063-.649.19-1.0447.887-1.7887 1.868-1.7887.19 0 .333.0159.475.0475v-1.3138c-.127-.03166-.237-.04749-.396-.04749-.934 0-1.773.64899-2.121 1.67789h-.063l-.048-1.50377h-1.218c.047.71227.063 1.48797.063 2.39017z"
         id="path8"
         style="fill:#ffffff;fill-opacity:1" />
      <path
         d="m142.597 14.0106c.016-.1425.048-.3641.048-.649 0-1.4088-.665-3.60909-3.166-3.60909-2.232 0-3.593 1.82039-3.593 4.13139 0 2.3111 1.409 3.8782 3.767 3.8782 1.219 0 2.058-.2691 2.549-.4907l-.238-.9973c-.522.2216-1.124.3957-2.121.3957-1.393 0-2.596-.7756-2.628-2.6592zm-5.366-.9973c.111-.9656.728-2.2636 2.137-2.2636 1.567 0 1.947 1.3772 1.931 2.2636z"
         id="path9"
         style="fill:#ffffff;fill-opacity:1" />
      <path
         d="m150.147 6.34924v4.57466h-.031c-.348-.6174-1.14-1.17139-2.311-1.17139-1.868 0-3.451 1.56709-3.435 4.11559 0 2.3269 1.424 3.894 3.276 3.894 1.251 0 2.185-.649 2.612-1.5038h.032l.063 1.3296h1.251c-.048-.5223-.064-1.298-.064-1.9786v-9.26006zm0 8.02536c0 .2216-.015.4116-.063.6015-.253 1.0448-1.108 1.6621-2.042 1.6621-1.504 0-2.263-1.2822-2.263-2.8334 0-1.6937.854-2.9601 2.295-2.9601 1.045 0 1.804.7282 2.01 1.6146.048.1741.063.4116.063.5857z"
         id="path10"
         style="fill:#ffffff;fill-opacity:1" />
      <path
         d="m158.369 17.5563c.459.0633 1.187.1266 2.137.1266 1.741 0 2.944-.3166 3.688-.9972.538-.5224.902-1.2189.902-2.137 0-1.5829-1.187-2.4218-2.2-2.6751v-.0316c1.124-.4116 1.804-1.3139 1.804-2.34276 0-.83894-.332-1.47211-.886-1.88367-.665-.53819-1.551-.77562-2.929-.77562-.965 0-1.915.09497-2.516.22161zm1.377-9.56083c.221-.04748.585-.09497 1.219-.09497 1.393 0 2.342.4907 2.342 1.74121 0 1.02889-.855 1.78869-2.311 1.78869h-1.25zm0 4.47963h1.139c1.504 0 2.755.6015 2.755 2.0578 0 1.5513-1.314 2.0736-2.739 2.0736-.49 0-.886-.0158-1.155-.0633z"
         id="path11"
         style="fill:#ffffff;fill-opacity:1" />
      <path
         d="m166.503 9.92663 2.834 7.05977c.063.1742.095.285.095.3641s-.048.1899-.111.3324c-.317.7123-.792 1.2505-1.172 1.5513-.411.3482-.87.5698-1.218.6806l.348 1.1714c.348-.0633 1.029-.3008 1.709-.9023.95-.8231 1.631-2.1686 2.628-4.7962l2.089-5.46107h-1.472l-1.519 4.49547c-.19.554-.349 1.1397-.491 1.5988h-.032c-.126-.4591-.316-1.0606-.49-1.5671l-1.678-4.52717z"
         id="path12"
         style="fill:#ffffff;fill-opacity:1" />
    </g>
  </g>
</svg>
