<svg fill="none" height="91" viewBox="0 0 91 91" width="91" xmlns="http://www.w3.org/2000/svg"><g clip-rule="evenodd" fill="#02a8e2" fill-rule="evenodd"><path d="m40.6919 17.4h29.456l15.7909 15.6v24.6l-15.7909 15.6h-26.5205c-.7086-.8-1.8221-1.4-3.0367-1.4-2.1257 0-3.9478 1.7-3.9478 3.9 0 2.1 1.7208 3.9 3.9478 3.9 1.2146 0 2.2269-.5 3.0367-1.4h28.6462l18.7264-18.5v-28.8l-18.7264-18.5h-31.5817c-.7086-.8-1.822-1.4-3.0367-1.4-2.1257 0-3.9477 1.7-3.9477 3.9 0 2.1 1.7207 3.9 3.9477 3.9 1.2147 0 2.3281-.6 3.0367-1.4zm-3.0367-4.2c.911 0 1.6195.7 1.6195 1.6s-.7085 1.6-1.6195 1.6-1.6196-.7-1.6196-1.6c0-.8.7086-1.6 1.6196-1.6zm3.0367 60.9c.911 0 1.6196.7 1.6196 1.6s-.7086 1.6-1.6196 1.6-1.6196-.7-1.6196-1.6.7086-1.6 1.6196-1.6z"/><path d="m68.1235 22.4h-37.6552v.1c-.7086-.8-1.7208-1.2-2.8343-1.2-2.1257 0-3.9477 1.7-3.9477 3.9 0 2.1 1.7208 3.9 3.9477 3.9 1.3159 0 2.5306-.6 3.2392-1.6h35.1246l9.8187 9.7v16.3l-9.8187 9.7h-35.7319c-.7086-.8-1.8221-1.4-3.0368-1.4-2.1257 0-3.9477 1.7-3.9477 3.9 0 2.1 1.7208 3.9 3.9477 3.9 1.2147 0 2.227-.5 3.0368-1.4h37.7563l12.7542-12.6v-20.6zm-40.4895 1.2c.9111 0 1.6196.7 1.6196 1.6s-.7085 1.6-1.6196 1.6c-.911 0-1.6195-.7-1.6195-1.6-.1013-.9.7085-1.6 1.6195-1.6zm-.3036 40.4c.911 0 1.6195.7 1.6195 1.6s-.7085 1.6-1.6195 1.6-1.6196-.7-1.6196-1.6c-.1012-.9.7086-1.6 1.6196-1.6z"/><path d="m62.2525 58h-45.7531c-.7085.7-1.6195 1.1-2.733 1.1-2.1257 0-3.94771-1.7-3.94771-3.9 0-2.1 1.72081-3.9 3.94771-3.9 1.3159 0 2.5306.7 3.2392 1.7h12.5517l-5.2636-5.2h-17.30927c-.70857.8-1.82203 1.4-3.03671 1.4-2.1257 0-3.94772-1.7-3.94772-3.9 0-2.1 1.7208-3.9 3.94772-3.9 1.21468 0 2.22692.5 3.03671 1.4h19.43497l10.426 10.2h24.901l3.7453-3.7v-7.9l-3.7453-3.7h-23.1802l5.2636 5.2h10.2236c.7086-.8 1.822-1.4 3.0367-1.4 2.1257 0 3.9477 1.7 3.9477 3.9 0 2.1-1.7208 3.9-3.9477 3.9-1.2147 0-2.2269-.5-3.0367-1.4h-12.3493l-10.3248-10.3h-13.6652c-.7085.8-1.822 1.4-3.0367 1.4-2.1257 0-3.9477-1.7-3.9477-3.9 0-2.1 1.7208-3.9 3.9477-3.9 1.2147 0 2.2269.5 3.0367 1.4h46.158l6.782 6.7v12.1l-6.782 6.6zm-5.1624-14.4c-.911 0-1.6196.7-1.6196 1.6s.7086 1.6 1.6196 1.6 1.6196-.7 1.6196-1.6c.1012-.8-.7086-1.6-1.6196-1.6zm-42.3115-10.2c-.911 0-1.6195.7-1.6195 1.6s.7085 1.6 1.6195 1.6c.9111 0 1.6196-.7 1.6196-1.6 0-.8-.7085-1.6-1.6196-1.6zm-1.0122 20.2c-.911 0-1.6196.7-1.6196 1.6s.7086 1.6 1.6196 1.6 1.6196-.7 1.6196-1.6c.1012-.9-.7086-1.6-1.6196-1.6zm-9.71746-10c-.91101 0-1.61957.7-1.61957 1.6s.70856 1.6 1.61957 1.6c.91102 0 1.61958-.7 1.61958-1.6 0-.8-.70856-1.6-1.61958-1.6z"/></g></svg>