<?xml version="1.0" encoding="UTF-8"?>
<svg xmlns="http://www.w3.org/2000/svg" xmlns:xlink="http://www.w3.org/1999/xlink" version="1.0" id="Layer_1" x="0px" y="0px" viewBox="40 250 920 500" style="enable-background:new 40 250 920 500;" xml:space="preserve">
<path style="fill:#B6D644;" d="M895.525,625.693V313.307H776.447v48.722l36.008,7.778v83.926  c-6.954-9.821-15.549-17.605-25.779-23.742c-10.638-5.734-22.911-8.602-35.191-8.193c-18.41-0.409-36.417,5.326-50.74,16.379  c-15.134,12.28-26.596,28.25-32.732,46.673c-8.186,22.107-12.273,45.855-11.456,69.604v4.91  c-1.226,22.516,2.861,45.038,11.047,66.328c6.954,18.014,18.007,33.569,32.732,44.623c15.14,10.645,33.556,16.379,51.972,15.971  c13.09,0.409,26.187-2.867,37.643-9.01c11.047-6.96,20.459-15.964,27.413-27.018l6.143,31.519H925.39v-48.716L895.525,625.693z   M812.455,606.855c-3.678,5.326-8.589,9.01-15.14,12.286c-6.545,3.276-12.682,3.685-19.227,3.685  c-14.323,0-24.553-5.326-30.28-16.379c-5.728-11.054-8.595-26.609-8.595-47.081v-4.91c0-12.286,0.817-24.566,3.685-36.443  c2.043-9.004,6.136-17.599,12.682-24.15c6.137-5.734,14.323-9.01,22.918-8.602c6.954,0,13.499,1.641,19.227,4.917  c5.734,3.685,11.054,8.595,14.323,15.147L812.455,606.855z"></path>
<path style="fill:#B6D644;" d="M554.669,533.573l58.511-48.722l32.739-9.828v-49.125H499.427v47.899l25.779,4.502l-58.511,50.772  V313.307h-118.67v48.722l36.008,7.778V626.51l-35.184,8.595l-35.191-8.595V313.307h-118.67v48.722l36.015,7.778v83.926  c-6.96-9.821-15.555-17.605-25.785-23.742c-10.638-5.734-22.911-8.602-35.184-8.193c-18.416-0.409-36.423,5.326-50.74,16.379  c-15.14,12.28-26.602,28.25-32.739,46.673c-8.18,22.107-12.273,45.855-11.456,70.012v4.911  c-0.409,22.931,3.276,45.447,11.456,66.736c6.96,18.014,18.007,33.569,32.739,44.623c15.14,10.645,33.55,16.379,51.966,15.971  c13.09,0.409,26.187-2.867,37.643-9.01c11.047-6.96,20.459-15.964,27.42-27.018l6.137,31.526l107.616,1.635l142.398-1.635V633.47  l-24.144-7.778v-19.246l30.28-24.974l33.965,48.722v0.817l-15.549,5.326v45.031h135.438v-48.307l-28.646-8.602L554.669,533.573z   M230.588,606.855c-3.678,5.326-8.589,9.01-15.14,12.286c-6.137,2.867-12.273,3.685-19.227,3.685  c-14.323,0-24.553-5.326-30.28-16.379s-8.595-26.609-8.595-47.081v-4.91c0-12.286,0.817-24.566,3.685-36.443  c2.043-9.004,6.137-17.599,12.682-24.15c6.137-5.734,14.323-9.01,22.918-8.602c6.954,0,13.499,1.641,19.233,4.917  c5.728,3.685,11.047,8.595,14.316,15.147v101.532H230.588z"></path>
</svg>
