<svg version="1.1" id="Layer_1" xmlns="http://www.w3.org/2000/svg" x="0" y="0" viewBox="0 0 200 200" xml:space="preserve"><style type="text/css">.st0{fill:none}.st1{fill:#495057}</style><path class="st0" d="M0 0h200v200H0z"/><g id="Livello_2"><path class="st1" d="M121.8 60.1c-9.7-9.4-18.9-18.6-21.6-29.1-2.7 10.4-11.9 19.6-21.6 29.1-14.4 14.4-30.8 30.8-30.8 55.4-.7 28.8 22.4 53 51.2 53.5s53-22.4 53.5-51.2v-2.2c.1-24.7-16.3-41.1-30.7-55.5zm-47.3 60.2c-1.5 2-3 4.2-4 6.5-.2.2-.5.7-1 .7h-.2c-1.2 0-2.5-2.2-2.5-2.2-.2-.5-.7-1.2-1-1.7l-.2-.5c-3.2-7-.5-16.7-.5-16.7 1.2-4.7 3.5-9.4 6.2-13.4 1.7-2.5 3.7-5 5.7-7.5l2.5 2.5 11.7 11.9c.5.5.5 1.2 0 1.7L79 115.3l-4.5 5zm26.1 34.3c-9.9 0-18.2-8.2-17.9-18.2 0-4.5 1.7-8.7 4.5-11.9 3.7-4.5 8.5-9 13.7-14.9 6 6.5 9.9 10.7 13.7 15.7.2.2.5.7.7 1.2 2 3 3.2 6.5 3.2 10.2.3 9.9-7.9 17.9-17.9 17.9zm34.1-28.9c-.2.7-1 1.2-1.7 1.5h-.2c-.7-.2-1.2-.7-1.7-1.2-3.2-4.7-6.7-9.2-10.7-13.2l-4.7-5-16.1-16.4c-3.2-3-6.5-6.5-9.4-9.7 0-.2-.2-.2-.2-.2-.5-.7-1-1.5-1.2-2.5v-.5c-.5-2.7.5-5.5 2.5-7.5 3-3 6.2-6.2 9.2-9.4 3.2 3.5 6.7 7 10.2 10.4 7 6.5 13.2 13.7 18.9 21.4 4.7 6.7 7.2 14.4 7.2 22.6-.6 3-1.1 6.5-2.1 9.7z" id="Livello_1-2"/></g></svg>