<svg fill="none" height="75" viewBox="0 0 75 75" width="75" xmlns="http://www.w3.org/2000/svg"><path d="m0 0h75v75h-75z" fill="#fff"/><path clip-rule="evenodd" d="m11.6528 12.0254c-1.2636-.1875-2.43993.6848-2.62744 1.9484-.1875 1.2636.68485 2.44 1.94844 2.6275 9.3313 1.3846 18.7437 3.4897 26.3732 5.6677 3.8152 1.0892 7.1589 2.1893 9.8089 3.2168 2.7126 1.0518 4.5092 1.9568 5.3778 2.6082 4.2703 3.2028 7.3956 9.3707 6.7569 15.4377-.645 6.1278-5.5839 14.8139-16.9444 15.4631-5.385.3077-9.4587-1.9244-12.1137-4.4085l6.6852 1.6554c3.4455.894 7.4978.2394 10.8037-1.5663 3.3438-1.8265 6.2181-5.0054 6.7893-9.385.6609-5.0669-.6548-8.8652-2.7656-11.5317-2.0561-2.5974-4.7495-3.9771-6.7106-4.5119-.0272-.0074-.0546-.0143-.082-.0208l-28.1214-6.5738c-1.2439-.2908-2.488.4819-2.7788 1.7258s.4818 2.488 1.7258 2.7788l28.0765 6.5633c1.1642.3262 2.9272 1.222 4.2634 2.9099 1.2958 1.6369 2.3133 4.169 1.8056 8.062-.3339 2.5594-2.0248 4.6153-4.4198 5.9235-2.4283 1.3264-5.2818 1.7074-7.433 1.1462l-.0138-.0036-.0141-.0035-12.7825-3.1652c-.8422-.2086-1.7303.0718-2.3002.7261-.5698.6543-.7256 1.5725-.4033 2.3781 1.7169 4.2923 8.5611 12.5764 20.0532 11.9197 14.2044-.8117 20.4653-11.8471 21.2811-19.5973.8223-7.8112-3.1132-15.5213-8.5819-19.6228-1.4134-1.0601-3.7251-2.152-6.481-3.2206-2.8186-1.0928-6.3037-2.2363-10.2114-3.3519-7.8163-2.2314-17.4261-4.38-26.9641-5.7953zm6.2791 18.9062c-1.2433-.2937-2.4891.4761-2.7828 1.7194-.2936 1.2432.4762 2.4891 1.7194 2.7827l24.1918 5.7137c.1606.0462.5042.2137.7413.505.1067.1309.1916.2854.2406.4818.0489.1958.0792.5015-.0089.9566-.0858.4436-.2195.6651-.3061.773-.0841.1047-.1915.1873-.3574.255-.3874.158-1.0277.2027-1.8482.0641l-18.812-4.2479c-1.246-.2814-2.4843.5007-2.7656 1.7468-.2814 1.246.5006 2.4843 1.7467 2.7656l18.8693 4.2608c.0357.0081.0715.0153.1075.0217 1.225.2161 2.8916.308 4.4503-.3281 1.7346-.7078 3.0239-2.1929 3.4573-4.4319.4214-2.1776-.145-3.9601-1.1866-5.2389-.9665-1.1867-2.2397-1.8214-3.182-2.0657-.0163-.0042-.0325-.0082-.0489-.0121z" fill="#000" fill-rule="evenodd"/></svg>