<svg
  width="1507"
  height="633"
  viewBox="0 0 1507 633"
  fill="none"
  xmlns="http://www.w3.org/2000/svg"
>
  <path
    d="M0 632.312V71.5005C0 64.8731 5.37258 59.5005 12 59.5005H108.5C115.127 59.5005 120.5 54.1279 120.5 47.5005V12.0005C120.5 5.37307 125.873 0.000488281 132.5 0.000488281H450V197.42C450 204.048 444.627 209.42 438 209.42H341.5C334.873 209.42 329.5 214.793 329.5 221.42V407.5C329.5 414.128 324.127 419.5 317.5 419.5H221.5C214.873 419.5 209.5 424.873 209.5 431.5V620.312C209.5 626.94 204.127 632.312 197.5 632.312H0Z"
    fill="#BEE786"
  />
  <path
    d="M698.842 113.838V157.784H781.316V200.225H698.842V283H647.973V69.8925H788.239V113.838H698.842Z"
    fill="#1A1B1D"
  />
  <path
    d="M874.722 217.683H868.401C862.983 217.683 857.465 217.984 851.846 218.586C846.428 218.988 841.512 219.891 837.097 221.295C832.883 222.7 829.372 224.807 826.562 227.616C823.753 230.225 822.348 233.737 822.348 238.151C822.348 240.961 822.95 243.369 824.154 245.375C825.559 247.382 827.265 248.987 829.271 250.191C831.278 251.395 833.586 252.298 836.194 252.9C838.803 253.302 841.311 253.502 843.719 253.502C853.753 253.502 861.378 250.793 866.595 245.375C872.013 239.757 874.722 232.232 874.722 222.8V217.683ZM784.121 153.57C792.951 145.142 803.185 138.821 814.823 134.607C826.663 130.393 838.703 128.286 850.943 128.286C863.585 128.286 874.221 129.892 882.849 133.102C891.679 136.112 898.802 140.928 904.22 147.55C909.638 153.972 913.551 162.199 915.959 172.232C918.568 182.065 919.872 193.804 919.872 207.449V283H874.722V267.047H873.819C870.007 273.268 864.187 278.084 856.361 281.495C848.736 284.907 840.408 286.612 831.378 286.612C825.358 286.612 819.138 285.81 812.716 284.204C806.295 282.599 800.375 279.99 794.957 276.378C789.74 272.766 785.426 267.95 782.014 261.93C778.603 255.91 776.897 248.486 776.897 239.656C776.897 228.82 779.807 220.091 785.626 213.469C791.646 206.847 799.272 201.73 808.502 198.118C817.934 194.506 828.368 192.098 839.806 190.894C851.244 189.69 862.381 189.088 873.217 189.088V186.68C873.217 179.256 870.609 173.838 865.391 170.426C860.174 166.814 853.753 165.008 846.127 165.008C839.104 165.008 832.281 166.513 825.659 169.523C819.238 172.533 813.72 176.145 809.104 180.359L784.121 153.57Z"
    fill="#1A1B1D"
  />
  <path
    d="M1130.09 283V201.128C1130.09 196.914 1129.79 192.901 1129.19 189.088C1128.59 185.075 1127.48 181.664 1125.88 178.854C1124.27 176.045 1122.07 173.838 1119.26 172.232C1116.65 170.426 1113.14 169.523 1108.72 169.523C1104.51 169.523 1100.8 170.426 1097.58 172.232C1094.57 174.038 1091.97 176.446 1089.76 179.456C1087.75 182.466 1086.25 185.978 1085.24 189.991C1084.24 193.804 1083.74 197.817 1083.74 202.031V283H1034.37V197.516C1034.37 188.888 1032.67 182.065 1029.26 177.048C1025.85 172.032 1020.43 169.523 1013 169.523C1005.18 169.523 999.057 172.634 994.643 178.854C990.429 185.075 988.322 192.7 988.322 201.73V283H938.657V133.102H986.516V153.871H987.118C988.924 150.661 991.131 147.55 993.74 144.54C996.549 141.53 999.86 138.922 1003.67 136.714C1007.49 134.306 1011.7 132.4 1016.31 130.995C1021.13 129.591 1026.35 128.888 1031.97 128.888C1042.8 128.888 1051.93 131.096 1059.36 135.51C1066.98 139.925 1072.9 146.246 1077.12 154.473C1082.13 146.647 1088.55 140.427 1096.38 135.811C1104.21 131.196 1113.74 128.888 1124.98 128.888C1135.21 128.888 1143.74 130.795 1150.56 134.607C1157.58 138.219 1163.2 143.035 1167.42 149.055C1171.63 154.875 1174.64 161.497 1176.45 168.921C1178.45 176.145 1179.46 183.269 1179.46 190.292V283H1130.09Z"
    fill="#1A1B1D"
  />
  <path
    d="M1301.91 190.894C1301.91 183.068 1299.4 176.346 1294.39 170.727C1289.57 165.109 1282.25 162.299 1272.41 162.299C1267.6 162.299 1263.18 163.102 1259.17 164.707C1255.16 166.112 1251.65 168.119 1248.64 170.727C1245.63 173.336 1243.22 176.446 1241.41 180.058C1239.61 183.47 1238.6 187.082 1238.4 190.894H1301.91ZM1347.36 209.857C1347.36 211.864 1347.36 213.871 1347.36 215.877C1347.36 217.884 1347.26 219.79 1347.06 221.596H1238.4C1238.8 225.81 1240.01 229.623 1242.01 233.034C1244.22 236.446 1246.93 239.456 1250.14 242.064C1253.55 244.472 1257.26 246.379 1261.28 247.783C1265.49 249.188 1269.81 249.89 1274.22 249.89C1282.05 249.89 1288.67 248.486 1294.09 245.676C1299.5 242.666 1303.92 238.854 1307.33 234.238L1341.64 255.91C1334.62 266.144 1325.29 274.071 1313.65 279.689C1302.21 285.107 1288.87 287.816 1273.62 287.816C1262.38 287.816 1251.75 286.111 1241.71 282.699C1231.68 279.087 1222.85 273.97 1215.22 267.348C1207.8 260.526 1201.88 252.198 1197.46 242.365C1193.25 232.533 1191.14 221.295 1191.14 208.653C1191.14 196.413 1193.25 185.376 1197.46 175.543C1201.68 165.51 1207.4 157.082 1214.62 150.259C1221.85 143.236 1230.37 137.818 1240.21 134.005C1250.04 130.193 1260.68 128.286 1272.11 128.286C1283.15 128.286 1293.28 130.193 1302.51 134.005C1311.74 137.617 1319.67 142.935 1326.29 149.958C1332.91 156.982 1338.03 165.51 1341.64 175.543C1345.46 185.577 1347.36 197.015 1347.36 209.857Z"
    fill="#1A1B1D"
  />
  <path
    d="M622.52 567V477.904H539.444V567H487.973V353.892H539.444V434.56H622.52V353.892H673.991V567H622.52Z"
    fill="#1A1B1D"
  />
  <path
    d="M800.312 474.894C800.312 467.068 797.804 460.346 792.787 454.727C787.971 449.109 780.647 446.299 770.814 446.299C765.998 446.299 761.584 447.102 757.57 448.707C753.557 450.112 750.045 452.119 747.035 454.727C744.025 457.336 741.617 460.446 739.811 464.058C738.005 467.47 737.002 471.082 736.801 474.894H800.312ZM845.763 493.857C845.763 495.864 845.763 497.871 845.763 499.877C845.763 501.884 845.663 503.79 845.462 505.596H736.801C737.203 509.81 738.407 513.623 740.413 517.034C742.621 520.446 745.33 523.456 748.54 526.065C751.952 528.473 755.664 530.379 759.677 531.784C763.891 533.188 768.206 533.891 772.62 533.891C780.446 533.891 787.068 532.486 792.486 529.677C797.904 526.667 802.319 522.854 805.73 518.238L840.044 539.91C833.021 550.144 823.69 558.071 812.051 563.69C800.613 569.108 787.269 571.816 772.018 571.816C760.781 571.816 750.146 570.111 740.112 566.699C730.079 563.087 721.25 557.971 713.624 551.349C706.2 544.526 700.28 536.198 695.865 526.365C691.651 516.533 689.544 505.295 689.544 492.653C689.544 480.413 691.651 469.376 695.865 459.543C700.079 449.51 705.798 441.082 713.022 434.259C720.246 427.236 728.775 421.818 738.607 418.005C748.44 414.193 759.075 412.286 770.513 412.286C781.55 412.286 791.684 414.193 800.914 418.005C810.145 421.617 818.071 426.935 824.693 433.958C831.315 440.982 836.432 449.51 840.044 459.543C843.857 469.577 845.763 481.015 845.763 493.857Z"
    fill="#1A1B1D"
  />
  <path d="M858.918 567V339.444H908.884V567H858.918Z" fill="#1A1B1D" />
  <path
    d="M1018.1 461.349C1014.09 457.537 1009.37 454.326 1003.96 451.717C998.537 449.109 992.818 447.804 986.798 447.804C982.183 447.804 977.869 448.707 973.855 450.513C970.043 452.319 968.136 455.43 968.136 459.844C968.136 464.058 970.243 467.068 974.457 468.874C978.872 470.68 985.895 472.687 995.527 474.894C1001.15 476.098 1006.76 477.804 1012.38 480.011C1018.2 482.219 1023.42 485.128 1028.04 488.74C1032.65 492.352 1036.36 496.767 1039.17 501.984C1041.98 507.202 1043.39 513.422 1043.39 520.646C1043.39 530.078 1041.48 538.104 1037.67 544.727C1033.85 551.148 1028.84 556.365 1022.62 560.378C1016.6 564.392 1009.77 567.301 1002.15 569.107C994.524 570.913 986.899 571.816 979.273 571.816C967.033 571.816 954.993 569.91 943.153 566.097C931.515 562.084 921.782 556.265 913.956 548.639L941.648 519.443C946.063 524.259 951.481 528.272 957.902 531.482C964.324 534.693 971.146 536.298 978.37 536.298C982.384 536.298 986.297 535.395 990.109 533.589C994.123 531.583 996.129 528.171 996.129 523.355C996.129 518.74 993.721 515.329 988.905 513.121C984.089 510.914 976.564 508.606 966.33 506.198C961.113 504.994 955.896 503.389 950.678 501.382C945.461 499.376 940.745 496.667 936.531 493.255C932.518 489.844 929.207 485.63 926.598 480.613C923.99 475.597 922.685 469.577 922.685 462.553C922.685 453.523 924.592 445.898 928.404 439.677C932.217 433.256 937.133 428.039 943.153 424.025C949.173 420.012 955.795 417.102 963.019 415.296C970.444 413.29 977.768 412.286 984.992 412.286C996.23 412.286 1007.17 414.092 1017.8 417.704C1028.64 421.116 1037.77 426.333 1045.19 433.356L1018.1 461.349Z"
    fill="#1A1B1D"
  />
  <path
    d="M1107.4 369.243C1107.4 373.056 1106.6 376.668 1104.99 380.079C1103.59 383.29 1101.58 386.099 1098.97 388.507C1096.57 390.915 1093.56 392.822 1089.94 394.227C1086.53 395.631 1082.92 396.333 1079.11 396.333C1071.08 396.333 1064.36 393.725 1058.94 388.507C1053.52 383.089 1050.81 376.668 1050.81 369.243C1050.81 365.631 1051.52 362.22 1052.92 359.009C1054.33 355.598 1056.33 352.688 1058.94 350.28C1061.55 347.872 1064.56 345.966 1067.97 344.561C1071.38 342.956 1075.1 342.153 1079.11 342.153C1082.92 342.153 1086.53 342.856 1089.94 344.26C1093.56 345.665 1096.57 347.571 1098.97 349.979C1101.58 352.387 1103.59 355.297 1104.99 358.708C1106.6 361.919 1107.4 365.431 1107.4 369.243ZM1054.43 567V417.102H1103.79V567H1054.43Z"
    fill="#1A1B1D"
  />
  <path
    d="M1223.26 567V485.128C1223.26 480.914 1222.86 476.901 1222.05 473.089C1221.45 469.276 1220.35 465.965 1218.74 463.155C1217.14 460.145 1214.83 457.838 1211.82 456.232C1209.01 454.426 1205.4 453.523 1200.98 453.523C1196.57 453.523 1192.66 454.426 1189.24 456.232C1186.03 457.838 1183.32 460.145 1181.12 463.155C1178.91 466.165 1177.2 469.677 1176 473.69C1175 477.503 1174.5 481.516 1174.5 485.73V567H1124.83V417.102H1172.69V437.871H1173.29C1175.1 434.661 1177.4 431.55 1180.21 428.54C1183.22 425.33 1186.64 422.621 1190.45 420.413C1194.46 418.206 1198.78 416.4 1203.39 414.995C1208.01 413.591 1212.92 412.888 1218.14 412.888C1228.17 412.888 1236.7 414.694 1243.73 418.306C1250.75 421.918 1256.37 426.634 1260.58 432.453C1265 438.072 1268.11 444.594 1269.91 452.018C1271.92 459.443 1272.92 466.868 1272.92 474.292V567H1223.26Z"
    fill="#1A1B1D"
  />
  <path
    d="M1453.28 567H1392.18L1343.12 495.061H1342.22V567H1292.55V339.444H1342.22V477.904H1343.12L1390.98 417.102H1450.88L1393.08 484.827L1453.28 567Z"
    fill="#1A1B1D"
  />
  <path
    d="M1506.78 369.243C1506.78 373.056 1505.98 376.668 1504.37 380.079C1502.97 383.29 1500.96 386.099 1498.35 388.507C1495.94 390.915 1492.93 392.822 1489.32 394.227C1485.91 395.631 1482.3 396.333 1478.49 396.333C1470.46 396.333 1463.74 393.725 1458.32 388.507C1452.9 383.089 1450.19 376.668 1450.19 369.243C1450.19 365.631 1450.89 362.22 1452.3 359.009C1453.7 355.598 1455.71 352.688 1458.32 350.28C1460.93 347.872 1463.94 345.966 1467.35 344.561C1470.76 342.956 1474.47 342.153 1478.49 342.153C1482.3 342.153 1485.91 342.856 1489.32 344.26C1492.93 345.665 1495.94 347.571 1498.35 349.979C1500.96 352.387 1502.97 355.297 1504.37 358.708C1505.98 361.919 1506.78 365.431 1506.78 369.243ZM1453.8 567V417.102H1503.17V567H1453.8Z"
    fill="#1A1B1D"
  />
</svg>
