<?xml version="1.0" encoding="UTF-8" standalone="no"?>
<svg
   width="700"
   height="700"
   viewBox="0 0 700 700"
   fill="none"
   version="1.1"
   id="svg13"
   sodipodi:docname="fame-square.svg"
   inkscape:version="1.3 (0e150ed, 2023-07-21)"
   xmlns:inkscape="http://www.inkscape.org/namespaces/inkscape"
   xmlns:sodipodi="http://sodipodi.sourceforge.net/DTD/sodipodi-0.dtd"
   xmlns="http://www.w3.org/2000/svg"
   xmlns:svg="http://www.w3.org/2000/svg">
  <defs
     id="defs13" />
  <sodipodi:namedview
     id="namedview13"
     pagecolor="#505050"
     bordercolor="#ffffff"
     borderopacity="1"
     inkscape:showpageshadow="0"
     inkscape:pageopacity="0"
     inkscape:pagecheckerboard="1"
     inkscape:deskcolor="#505050"
     inkscape:zoom="0.31674632"
     inkscape:cx="655.09838"
     inkscape:cy="334.65267"
     inkscape:window-width="1312"
     inkscape:window-height="449"
     inkscape:window-x="0"
     inkscape:window-y="37"
     inkscape:window-maximized="0"
     inkscape:current-layer="svg13" />
  <path
     d="M 140,672.312 V 111.5005 c 0,-6.6274 5.37258,-12 12,-12 h 96.5 c 6.627,0 12,-5.3726 12,-12 v -35.5 c 0,-6.62743 5.373,-12.000012 12,-12.000012 H 590 V 237.42 c 0,6.628 -5.373,12 -12,12 h -96.5 c -6.627,0 -12,5.373 -12,12 V 447.5 c 0,6.628 -5.373,12 -12,12 h -96 c -6.627,0 -12,5.373 -12,12 v 188.812 c 0,6.628 -5.373,12 -12,12 z"
     fill="#bee786"
     id="path1" />
</svg>
