<svg fill="none" height="40" viewBox="0 0 98 40" width="98" xmlns="http://www.w3.org/2000/svg" xmlns:xlink="http://www.w3.org/1999/xlink"><clipPath id="a"><path d="m0 0h98v40h-98z"/></clipPath><g clip-path="url(#a)"><path d="m0 0h98v40h-98z" fill="#fff"/><g fill="#e27058"><path d="m17.1601 8.27727 1.1413-.69317c.1631-.84268-.163-1.26402-.9782-1.26402-1.1685 0-1.7527.89704-1.7527 2.69113 0 .70676.0951 1.52229.2853 2.44649 2.0652 1.3863 3.0978 3.1668 3.0978 5.3415 0 2.1475-.7473 3.8192-2.2418 5.0153-1.4946 1.196-3.519 1.7941-6.0733 1.7941-1.05981 0-2.16034-.1088-3.30163-.3262-1.19564.7611-1.79346 1.3319-1.79346 1.7125s.86956.5708 2.60867.5708h4.15752c6.1684 0 9.2526 2.2155 9.2526 6.6463 0 2.3921-.9374 4.2814-2.8124 5.6677-1.8478 1.4135-4.7418 2.1203-8.682 2.1203-6.71186 0-10.0678-1.4543-10.0678-4.3629 0-1.5766 1.04618-2.6639 3.13855-3.262l2.44562 1.1009c-.21739.7884-.32608 1.5359-.32608 2.2427 0 2.3377 1.73911 3.5066 5.21731 3.5066 2.1196 0 3.75-.3942 4.8913-1.1825s1.7119-1.7669 1.7119-2.9358c0-1.1688-.3533-1.9572-1.0598-2.3649-.6793-.3806-2.0516-.5708-4.1168-.5708h-3.95373c-2.20106 0-3.77712-.367-4.7282-1.101-.95108-.7339-1.42661-1.631-1.42661-2.6911 0-1.0873.33967-1.9844 1.01901-2.6911.67934-.734 1.88856-1.631 3.62767-2.6912-3.15214-.897-4.7282-2.9629-4.7282-6.1977 0-2.0388.73368-3.6833 2.20106-4.9338 1.46737-1.2504 3.66843-1.8756 6.6032-1.8756 1.7663 0 3.2744.3398 4.5244 1.0194-.1631-.734-.2446-1.39996-.2446-1.99799 0-1.52226.4076-2.62317 1.2228-3.30275s1.7256-1.01937 2.731-1.01937 1.807.27183 2.4048.8155c.625.51648.9375 1.23683.9375 2.16106 0 .92422-.2445 1.61739-.7337 2.07951-.4891.43494-1.0869.65244-1.7934.65244-.6794 0-1.25-.1767-1.712-.53012-.4347-.38056-.6657-.91063-.6929-1.59021zm-8.64118 7.62483v2.2019c0 1.8212.14945 3.0581.44836 3.7105.32609.6524.80162.9786 1.42662.9786.6522 0 1.1141-.3126 1.3858-.9379.299-.6523.4484-1.9707.4484-3.9551v-1.998c0-2.1202-.1359-3.5066-.4076-4.159-.2717-.6796-.7337-1.0194-1.3858-1.0194-.62504 0-1.10057.3534-1.42666 1.0602-.32608.6796-.48912 2.0523-.48912 4.1182z"/><path d="m28.1027 7.5841c-1.4402 0-2.4728-.36698-3.0978-1.10092-.5978-.73395-.8967-1.64458-.8967-2.73191 0-1.08732.3261-1.98437.9782-2.69113.6794-.70676 1.6984-1.06014 3.0571-1.06014 1.3586 0 2.3912.326198 3.0977.978593.7066.625217 1.0598 1.535847 1.0598 2.731907 0 1.16887-.3397 2.10669-1.019 2.81345-.6793.70677-1.7391 1.06015-3.1793 1.06015zm-6.1548 2.8135h9.9863v18.6748h2.2825v.7339h-12.1058v-.7339h2.2418v-17.9409h-2.4048z"/><path d="m54.0011 10.3976v.7339l-9.6602 17.9409h.5299c2.2826 0 4.076-.5981 5.3804-1.7941 1.3043-1.1961 2.3233-3.1397 3.057-5.8308h.5707l-.6522 8.3588h-17.1194v-.6116l9.8233-18.0632h-.4484c-2.7445 0-4.6603.4485-5.7472 1.3456-1.0598.897-2.0108 2.8134-2.8532 5.7492h-.5299l.5299-7.8287z"/><path d="m69.8378 11.5392c-1.0054 0-1.8886.6524-2.6494 1.9572-.7609 1.3048-1.1413 2.8543-1.1413 4.6483v10.9277h2.894v.7339h-12.7173v-.7339h2.2419v-17.9409h-2.2419v-.7339h9.8233v3.9143c.3533-1.3863 1.0326-2.4465 2.038-3.1804 1.0054-.7611 2.1467-1.14169 3.4239-1.14169 1.2771 0 2.3097.36699 3.0978 1.10089.8152.7068 1.2228 1.7262 1.2228 3.0581 0 1.3048-.2989 2.3106-.8967 3.0174-.5979.7067-1.5218 1.0601-2.7717 1.0601-1.2229 0-2.1332-.4077-2.731-1.2232-.5706-.8155-.6386-1.9436-.2038-3.3843h1.4674c.6793-1.3864.394-2.0796-.856-2.0796z"/><path d="m85.5904 20.2243h1.1821v-3.1397c0-2.5824-.1495-4.3085-.4484-5.1784-.2717-.897-.8152-1.3455-1.6304-1.3455-.4891 0-.9375.1359-1.3451.4077-.3804.2446-.5706.598-.5706 1.0601 0 .435.0815.8835.2445 1.3456h1.019c.2174.5709.3261 1.264.3261 2.0795 0 .7883-.3397 1.4815-1.019 2.0795-.6793.5709-1.5353.8563-2.5679.8563-2.3369 0-3.5054-1.1281-3.5054-3.3843 0-3.3435 2.8397-5.01529 8.5189-5.01529 3.2337 0 5.4619.55729 6.6847 1.67179 1.25 1.0873 1.875 3.0988 1.875 6.0346v8.2773c0 1.4135.394 2.1203 1.1821 2.1203.9239 0 1.4673-1.4 1.6304-4.1998l.6114.0408c-.1087 2.3921-.5571 4.0367-1.3451 4.9337s-2.0788 1.3456-3.8722 1.3456c-3.2609 0-5.1359-1.0058-5.625-3.0174-.3532 1.033-.8831 1.7941-1.5896 2.2834s-1.7391.734-3.0978.734c-4.0217 0-6.0326-1.6446-6.0326-4.9338 0-1.93.7609-3.2484 2.2826-3.9551 1.5489-.734 3.913-1.1009 7.0923-1.1009zm-1.6304 5.0153c0 1.4135.0679 2.3241.2038 2.7319.1631.4077.4484.6116.856.6116.4348 0 .8288-.3398 1.182-1.0194.3805-.7068.5707-1.6718.5707-2.895v-3.792h-.2853c-1.6848 0-2.5272 1.2368-2.5272 3.7105z"/></g></g></svg>