<svg fill="none" height="41" viewBox="0 0 40 41" width="40" xmlns="http://www.w3.org/2000/svg" xmlns:xlink="http://www.w3.org/1999/xlink"><clipPath id="a"><path d="m0 0h40v41h-40z"/></clipPath><g clip-path="url(#a)"><path d="m19.9881 40.2861c10.811 0 19.575-8.7578 19.575-19.561 0-10.8033-8.764-19.56104-19.575-19.56104-10.81004 0-19.574038 8.75774-19.574038 19.56104 0 10.8032 8.763998 19.561 19.574038 19.561z" fill="#fff"/><path d="m19.987 29.9924c5.121 0 9.272-4.1484 9.272-9.2657s-4.151-9.2658-9.272-9.2658-9.272 4.1485-9.272 9.2658 4.151 9.2657 9.272 9.2657z" fill="#ffe60b"/><path d="m19.9879.839844c-11.00496 0-19.9019625 8.891356-19.9019625 19.888556s8.8970025 19.8886 19.9019625 19.8886c11.005 0 19.902-8.8914 19.902-19.8886s-8.897-19.888556-19.902-19.888556zm0 39.122056c-10.62996 0-19.245964-8.6106-19.245964-19.2335 0-10.6228 8.616004-19.2334 19.245964-19.2334 10.63 0 19.247 8.6106 19.247 19.2334 0 10.6229-8.617 19.2335-19.247 19.2335z" fill="#222"/></g></svg>