<?xml version="1.0" encoding="utf-8"?>
<svg id="logo-acronym" xmlns="http://www.w3.org/2000/svg" viewBox="0 0 104.35 51.67" fill="#03315c">
  <polygon points="6.39 2.25 0 2.25 0 1.12 19.94 1.12 19.94 2.25 13.55 2.25 13.55 49.43 19.94 49.43 19.94 50.55 0 50.55 0 49.43 6.39 49.43 6.39 2.25"></polygon>
  <path d="M50.84,34.54h-15l-2.88,8.85a15.24,15.24,0,0,0-1,4.28c0,1,.84,1.76,3.09,1.76h3.65v1.12H24.17V49.43h2.24c2.18,0,3.09-.21,4.43-4.15L45.93,0h.77L63.76,49.43h5.83v1.12H49V49.43H55.9ZM43.26,12.15h-.14L36.24,33.42H50.49Z"></path>
  <path d="M72.9,33.21H74C74,45,81,50.55,89.4,50.55,96.14,50.55,101,46.27,101,40c0-7.3-3.79-9.48-11.86-10.74-11-1.76-16.22-3.58-16.22-15.38C72.9,5.83,78.17,0,86,0c7.23,0,10,4.28,12.36,4.28,1.61,0,1.82-1.75,2-2.67h1.13V16.36h-1.13c-.63-8-5-15.24-14.39-15.24-6,0-10.18,3.94-10.18,10.39s2.39,7.73,14,9.84c10.25,1.82,14.46,5.12,14.46,14.25s-5,16.07-15.23,16.07c-7,0-10.74-3.65-13.34-3.65C74.1,48,74,49.78,74,51H72.9Z"></path>
</svg>
