<?xml version="1.0" encoding="utf-8"?>
<svg xmlns="http://www.w3.org/2000/svg" viewBox="0 0 330.82 66.9" fill="#03315c">
  <svg id="logo-acronym" x="0" y="7.615" viewBox="0 0 104.35 51.67" width="104.35" height="51.67">
    <polygon points="6.39 2.25 0 2.25 0 1.12 19.94 1.12 19.94 2.25 13.55 2.25 13.55 49.43 19.94 49.43 19.94 50.55 0 50.55 0 49.43 6.39 49.43 6.39 2.25"></polygon>
    <path d="M50.84,34.54h-15l-2.88,8.85a15.24,15.24,0,0,0-1,4.28c0,1,.84,1.76,3.09,1.76h3.65v1.12H24.17V49.43h2.24c2.18,0,3.09-.21,4.43-4.15L45.93,0h.77L63.76,49.43h5.83v1.12H49V49.43H55.9ZM43.26,12.15h-.14L36.24,33.42H50.49Z"></path>
    <path d="M72.9,33.21H74C74,45,81,50.55,89.4,50.55,96.14,50.55,101,46.27,101,40c0-7.3-3.79-9.48-11.86-10.74-11-1.76-16.22-3.58-16.22-15.38C72.9,5.83,78.17,0,86,0c7.23,0,10,4.28,12.36,4.28,1.61,0,1.82-1.75,2-2.67h1.13V16.36h-1.13c-.63-8-5-15.24-14.39-15.24-6,0-10.18,3.94-10.18,10.39s2.39,7.73,14,9.84c10.25,1.82,14.46,5.12,14.46,14.25s-5,16.07-15.23,16.07c-7,0-10.74-3.65-13.34-3.65C74.1,48,74,49.78,74,51H72.9Z"></path>
  </svg>
  <svg id="logo-bar" x="119.35" y="0" viewBox="0 0 1.1 66.9" width="1.1" height="66.9">
    <rect width="1.1" height="66.9"></rect>
  </svg>
  <svg id="logo-name" x="135.45" y="14.865" viewBox="0 0 195.37 37.17" width="195.37" height="37.17">
    <rect x="1.31" y="0.21" width="1.1" height="12.86"></rect>
    <polygon points="17.16 13.07 9.06 2.02 9.06 13.07 7.96 13.07 7.96 0.21 9.08 0.21 17.14 11.11 17.14 0.21 18.24 0.21 18.24 13.07 17.16 13.07"></polygon>
    <path d="M23.13,11.26l.72-.83a5.3,5.3,0,0,0,4,1.87c2.62,0,3.37-1.46,3.37-2.56,0-3.78-7.71-1.82-7.71-6.31,0-2.1,1.89-3.43,4.22-3.43a5.51,5.51,0,0,1,4.36,1.81l-.73.81A4.62,4.62,0,0,0,27.7,1c-1.71,0-3,1-3,2.38,0,3.29,7.72,1.48,7.72,6.28,0,1.66-1.1,3.65-4.57,3.65a6,6,0,0,1-4.71-2.05"></path>
    <polygon points="40.68 13.07 40.68 1.21 36.47 1.21 36.47 0.21 46 0.21 46 1.21 41.79 1.21 41.79 13.07 40.68 13.07"></polygon>
    <rect x="50.68" y="0.21" width="1.1" height="12.86"></rect>
    <polygon points="60.67 13.07 60.67 1.21 56.46 1.21 56.46 0.21 65.99 0.21 65.99 1.21 61.79 1.21 61.79 13.07 60.67 13.07"></polygon>
    <path d="M70.67,8.14V.21h1.12V8.12c0,2.6,1.37,4.18,3.89,4.18s3.9-1.58,3.9-4.18V.21H80.7V8.14c0,3.18-1.7,5.17-5,5.17s-5-2-5-5.17"></path>
    <polygon points="89.39 13.07 89.39 1.21 85.19 1.21 85.19 0.21 94.72 0.21 94.72 1.21 90.51 1.21 90.51 13.07 89.39 13.07"></polygon>
    <polygon points="99.32 13.07 99.32 0.21 107.48 0.21 107.48 1.21 100.42 1.21 100.42 5.98 107.34 5.98 107.34 6.98 100.42 6.98 100.42 12.07 107.48 12.07 107.48 13.07 99.32 13.07"></polygon>
    <polygon points="120 13.07 120 0.21 128.16 0.21 128.16 1.21 121.1 1.21 121.1 5.98 128.03 5.98 128.03 6.98 121.1 6.98 121.1 13.07 120 13.07"></polygon>
    <path d="M132.38,6.65c0-3.76,2.47-6.65,6.25-6.65s6.25,2.89,6.25,6.65-2.49,6.66-6.25,6.66-6.25-2.9-6.25-6.66m11.34,0c0-3.26-2-5.65-5.09-5.65s-5.09,2.39-5.09,5.65,2,5.65,5.09,5.65,5.09-2.41,5.09-5.65"></path>
    <path d="M157.54,13.07l-3.61-5.32H151.1v5.32H150V.21h4.8A3.65,3.65,0,0,1,158.72,4a3.53,3.53,0,0,1-3.57,3.7l3.72,5.4Zm0-9.1a2.66,2.66,0,0,0-2.85-2.76H151.1V6.75h3.61A2.68,2.68,0,0,0,157.56,4"></path>
    <path d="M10.62,36.94,9.35,33.78H2.54L1.27,36.94H0L5.26,24.08H6.63L11.9,36.94ZM6,25.25l-3,7.53H9Z"></path>
    <path d="M16.19,36.94V24.08H20.3a6.24,6.24,0,0,1,6.5,6.44,6.21,6.21,0,0,1-6.5,6.42Zm9.45-6.42a5.11,5.11,0,0,0-5.34-5.44h-3V35.94h3a5.11,5.11,0,0,0,5.34-5.42"></path>
    <polygon points="35.51 36.94 30.25 24.08 31.52 24.08 36.21 35.71 40.87 24.08 42.15 24.08 36.88 36.94 35.51 36.94"></polygon>
    <path d="M54.65,36.94l-1.27-3.16H46.57L45.3,36.94H44l5.26-12.86h1.37l5.27,12.86ZM50,25.25l-3.05,7.53H53Z"></path>
    <polygon points="69.42 36.94 61.32 25.89 61.32 36.94 60.22 36.94 60.22 24.08 61.34 24.08 69.4 34.98 69.4 24.08 70.5 24.08 70.5 36.94 69.42 36.94"></polygon>
    <path d="M75.63,30.52a6.39,6.39,0,0,1,6.52-6.65,5.76,5.76,0,0,1,4.68,2.27l-.93.6a4.64,4.64,0,0,0-3.75-1.87,5.34,5.34,0,0,0-5.37,5.65,5.36,5.36,0,0,0,5.37,5.65A4.64,4.64,0,0,0,85.9,34.3l.95.58a5.82,5.82,0,0,1-4.7,2.29,6.39,6.39,0,0,1-6.52-6.65"></path>
    <polygon points="91.45 36.94 91.45 24.08 99.61 24.08 99.61 25.08 92.55 25.08 92.55 29.84 99.48 29.84 99.48 30.85 92.55 30.85 92.55 35.94 99.61 35.94 99.61 36.94 91.45 36.94"></polygon>
    <path d="M104.74,36.94V24.08h4.1a6.24,6.24,0,0,1,6.5,6.44,6.2,6.2,0,0,1-6.5,6.42Zm9.45-6.42a5.12,5.12,0,0,0-5.35-5.44h-3V35.94h3a5.11,5.11,0,0,0,5.35-5.42"></path>
    <path d="M127.17,35.13l.72-.83a5.3,5.3,0,0,0,4,1.87c2.62,0,3.37-1.47,3.37-2.56,0-3.79-7.71-1.82-7.71-6.31,0-2.1,1.89-3.43,4.22-3.43a5.51,5.51,0,0,1,4.36,1.81l-.73.81a4.61,4.61,0,0,0-3.68-1.62c-1.72,0-3,1-3,2.37,0,3.3,7.71,1.49,7.71,6.29,0,1.66-1.1,3.64-4.57,3.64a6,6,0,0,1-4.71-2"></path>
    <polygon points="144.72 36.94 144.72 25.08 140.52 25.08 140.52 24.08 150.04 24.08 150.04 25.08 145.84 25.08 145.84 36.94 144.72 36.94"></polygon>
    <path d="M154.73,32V24.08h1.11V32c0,2.61,1.37,4.19,3.9,4.19s3.9-1.58,3.9-4.19v-7.9h1.11V32c0,3.19-1.69,5.17-5,5.17s-5-2-5-5.17"></path>
    <path d="M170.36,36.94V24.08h4.11a6.24,6.24,0,0,1,6.5,6.44,6.21,6.21,0,0,1-6.5,6.42Zm9.45-6.42a5.11,5.11,0,0,0-5.34-5.44h-3V35.94h3a5.11,5.11,0,0,0,5.34-5.42"></path>
    <polygon points="189.14 36.94 189.14 31.45 184.03 24.08 185.36 24.08 189.7 30.41 194.03 24.08 195.37 24.08 190.25 31.45 190.25 36.94 189.14 36.94"></polygon>
  </svg>
</svg>
