<svg width="55" height="85" viewBox="0 0 55 85" fill="none" xmlns="http://www.w3.org/2000/svg">
<path d="M1.96562 82.2801C1.96562 83.1425 2.52681 83.5737 3.2283 83.5737C3.90174 83.5737 4.43487 83.1665 4.46293 82.4718C4.49099 82.1843 4.51905 82.0406 4.85577 82.0406H5.61338C5.89398 82.0406 5.97816 82.1124 6.00622 82.376C6.06234 83.3102 5.24861 84.8433 3.2283 84.8433C1.88144 84.8433 0.366211 84.1007 0.366211 81.8489V79.5732C0.366211 77.3214 1.88144 76.5788 3.2283 76.5788C5.24861 76.5788 6.06234 78.1119 6.00622 79.0462C5.97816 79.2857 5.92204 79.3816 5.61338 79.3816H4.85577C4.51905 79.3816 4.49099 79.2378 4.46293 78.9504C4.43487 78.2557 3.90174 77.8484 3.2283 77.8484C2.55487 77.8484 1.96562 78.2796 1.96562 79.142V82.2801Z" fill="#004672"/>
<path d="M12.1511 84.7715C11.8705 84.7715 11.7863 84.6996 11.7302 84.2445C11.2251 84.6277 10.4956 84.8194 9.9063 84.8194C8.53137 84.8194 7.49316 84.1007 7.49316 82.6634V82.376C7.49316 79.3816 11.5057 80.5554 11.5899 78.8066C11.6179 78.3515 11.197 77.8245 10.4394 77.8245C9.82212 77.8245 9.20481 78.2557 9.20481 78.9983C9.20481 79.2378 9.12063 79.3336 8.81197 79.3336H8.08242C7.80182 79.3336 7.71764 79.2618 7.68958 78.9983C7.63346 77.6568 8.84003 76.5309 10.4114 76.5309C11.8424 76.5309 13.1893 77.4651 13.1893 79.0462V83.6216C13.2174 83.957 13.2735 84.2205 13.3296 84.4121C13.3857 84.6517 13.2454 84.7475 12.9368 84.7475H12.1511V84.7715ZM11.5899 82.2322V80.6033C9.85018 81.298 9.06451 81.3219 9.06451 82.5197C9.06451 82.7592 9.14869 83.6216 10.3272 83.5737C11.1409 83.5258 11.5899 83.1665 11.5899 82.2322Z" fill="#004672"/>
<path d="M16.6128 84.4361C16.6128 84.6757 16.5286 84.7715 16.22 84.7715H15.3782C15.0976 84.7715 14.9854 84.6996 14.9854 84.4361V76.9381C14.9854 76.6986 15.0695 76.6028 15.3782 76.6028H16.22C16.5006 76.6028 16.6128 76.6746 16.6128 76.9381V77.1777C16.8934 76.8423 17.3424 76.6028 18.0158 76.5548C18.8295 76.5309 19.5591 76.7944 20.008 77.3933C20.2886 77.1537 20.9621 76.6028 21.9722 76.5548C23.4033 76.5069 24.5257 77.3214 24.5257 79.3336V84.4601C24.5257 84.6996 24.4415 84.7954 24.1328 84.7954H23.291C23.0104 84.7954 22.8982 84.7236 22.8982 84.4601V79.0941C22.8982 78.1119 22.2248 77.8484 21.7197 77.8484C21.2146 77.8484 20.5412 78.1119 20.5412 79.0941V84.4601C20.5412 84.6996 20.457 84.7954 20.1483 84.7954H19.3066C19.026 84.7954 18.9137 84.7236 18.9137 84.4601V79.0941C18.9137 78.1119 18.2403 77.8484 17.7352 77.8484C17.2301 77.8484 16.5567 78.1119 16.5567 79.0941V84.4361H16.6128Z" fill="#004672"/>
<path d="M26.7424 84.7715C26.4618 84.7715 26.3496 84.6996 26.3496 84.4361V73.6802C26.3496 73.4407 26.4338 73.3448 26.7424 73.3448H27.5842C27.8648 73.3448 27.9771 73.4167 27.9771 73.6802V77.1777C28.2577 76.8423 28.7066 76.6028 29.3801 76.5548C30.8111 76.5069 31.9335 77.3214 31.9335 79.3336V82.0645C31.9335 84.0768 30.8111 84.8913 29.3801 84.8433C28.7066 84.8194 28.2577 84.5559 27.9771 84.2445V84.4601C27.9771 84.6996 27.8929 84.7954 27.5842 84.7954H26.7424V84.7715ZM27.949 82.328C27.949 83.3102 28.6224 83.5737 29.1275 83.5737C29.6326 83.5737 30.306 83.3102 30.306 82.328V79.0701C30.306 78.088 29.6326 77.8245 29.1275 77.8245C28.6224 77.8245 27.949 78.088 27.949 79.0701V82.328Z" fill="#004672"/>
<path d="M36.1987 77.8963C35.2447 77.8963 35.2447 78.7348 35.2447 79.5492V84.4361C35.2447 84.6757 35.1605 84.7715 34.8518 84.7715H34.01C33.7294 84.7715 33.6172 84.6996 33.6172 84.4361V76.9381C33.6172 76.6986 33.7014 76.6028 34.01 76.6028H34.8518C35.1324 76.6028 35.2447 76.6746 35.2447 76.9381V77.1298C35.6936 76.7465 36.2267 76.6267 36.6196 76.6028H36.816C37.0966 76.6028 37.2088 76.6746 37.2088 76.9381V77.6328C37.2088 77.8724 37.1247 78.0161 36.816 77.9682C36.5073 77.9203 36.367 77.8963 36.1987 77.8963Z" fill="#004672"/>
<path d="M39.2292 74.303C39.7343 74.303 40.1552 74.6384 40.1552 75.0936C40.1552 75.5487 39.7343 75.8841 39.2292 75.8841C38.7241 75.8841 38.3032 75.5248 38.3032 75.0936C38.3032 74.6624 38.7241 74.303 39.2292 74.303ZM38.4435 84.4361V76.9381C38.4435 76.6986 38.5277 76.6027 38.8364 76.6027H39.6781C39.9587 76.6027 40.071 76.6746 40.071 76.9381V84.4361C40.071 84.6756 39.9868 84.7715 39.6781 84.7715H38.8364C38.5277 84.7715 38.4435 84.6756 38.4435 84.4361Z" fill="#004672"/>
<path d="M43.3538 82.2801C43.3538 83.1425 43.915 83.5737 44.6165 83.5737C45.2899 83.5737 45.8231 83.1665 45.8511 82.4718C45.8792 82.1843 45.9072 82.0406 46.244 82.0406H47.0016C47.2822 82.0406 47.3663 82.1124 47.3944 82.376C47.4505 83.3102 46.6368 84.8433 44.6165 84.8433C43.2696 84.8433 41.7544 84.1007 41.7544 81.8489V79.5732C41.7544 77.3214 43.2696 76.5788 44.6165 76.5788C46.6368 76.5788 47.4505 78.1119 47.3944 79.0462C47.3663 79.2857 47.3102 79.3816 47.0016 79.3816H46.244C45.9072 79.3816 45.8792 79.2378 45.8511 78.9504C45.8231 78.2557 45.2899 77.8484 44.6165 77.8484C43.9431 77.8484 43.3538 78.2796 43.3538 79.142V82.2801Z" fill="#004672"/>
<path d="M54.6617 81.825C54.6617 84.0768 53.1465 84.8194 51.7996 84.8194C50.4527 84.8194 48.9375 84.0768 48.9375 81.825V79.5492C48.9375 77.2975 50.4527 76.5548 51.7996 76.5548C53.1465 76.5548 54.6617 77.2975 54.6617 79.5492V81.825ZM51.7996 77.8245C51.2384 77.8245 50.5369 78.1119 50.5369 79.166V82.2322C50.5369 83.2863 51.2384 83.5737 51.7996 83.5737C52.3608 83.5737 53.0623 83.2863 53.0623 82.2322V79.166C53.0342 78.1119 52.3327 77.8245 51.7996 77.8245Z" fill="#004672"/>
<path d="M20.1127 0.934326H25.5237C26.0078 0.934326 26.378 1.27136 26.378 1.7121V2.74914C26.378 3.18988 26.0078 3.52692 25.5237 3.52692H20.1127C19.6285 3.52692 19.2583 3.18988 19.2583 2.74914V1.7121C19.2583 1.27136 19.6285 0.934326 20.1127 0.934326Z" fill="#0077C0"/>
<path d="M30.08 0.934326H34.9214C35.4055 0.934326 35.7757 1.27136 35.7757 1.7121V2.74914C35.7757 3.18988 35.4055 3.52692 34.9214 3.52692H30.08C29.5958 3.52692 29.2256 3.18988 29.2256 2.74914V1.7121C29.2256 1.27136 29.5958 0.934326 30.08 0.934326Z" fill="#0077C0"/>
<path d="M7.01208 6.11951H12.4231C12.9072 6.11951 13.2775 6.45654 13.2775 6.89728V7.93432C13.2775 8.37506 12.9072 8.7121 12.4231 8.7121H7.01208C6.52794 8.7121 6.15771 8.37506 6.15771 7.93432V6.89728C6.15771 6.45654 6.52794 6.11951 7.01208 6.11951Z" fill="#0077C0"/>
<path d="M16.9799 6.11951H47.7371C48.2213 6.11951 48.5915 6.45654 48.5915 6.89728V7.93432C48.5915 8.37506 48.2213 8.7121 47.7371 8.7121H16.9799C16.4957 8.7121 16.1255 8.37506 16.1255 7.93432V6.89728C16.1255 6.45654 16.4957 6.11951 16.9799 6.11951Z" fill="#004672"/>
<path d="M3.02527 11.3047H19.8278C20.312 11.3047 20.6822 11.6417 20.6822 12.0825V13.1195C20.6822 13.5602 20.312 13.8973 19.8278 13.8973H3.02527C2.54112 13.8973 2.1709 13.5602 2.1709 13.1195V12.0825C2.1709 11.6417 2.54112 11.3047 3.02527 11.3047Z" fill="#0077C0"/>
<path d="M24.3846 11.3047H29.7956C30.2798 11.3047 30.65 11.6417 30.65 12.0825V13.1195C30.65 13.5602 30.2798 13.8973 29.7956 13.8973H24.3846C23.9005 13.8973 23.5303 13.5602 23.5303 13.1195V12.0825C23.5303 11.6417 23.9005 11.3047 24.3846 11.3047Z" fill="#0077C0"/>
<path d="M33.4976 12.0825C33.4976 11.6417 33.8963 11.3047 34.3519 11.3047H42.6108C43.095 11.3047 43.4652 11.6417 43.4652 12.0825V13.1195C43.4652 13.5602 43.0665 13.8973 42.6108 13.8973H34.3519C33.8678 13.8973 33.4976 13.5602 33.4976 13.1195V12.0825Z" fill="#FC8818"/>
<path d="M47.1678 11.3047H51.7245C52.2086 11.3047 52.5788 11.6417 52.5788 12.0825V13.1195C52.5788 13.5602 52.2086 13.8973 51.7245 13.8973H47.1678C46.6837 13.8973 46.3135 13.5602 46.3135 13.1195V12.0825C46.3135 11.6417 46.6837 11.3047 47.1678 11.3047Z" fill="#004672"/>
<path d="M0.746946 16.4899H14.9864C15.4706 16.4899 15.8408 16.8269 15.8408 17.2677V18.3047C15.8408 18.7455 15.4706 19.0825 14.9864 19.0825H0.746946C0.262804 19.0825 -0.107422 18.7455 -0.107422 18.3047V17.2677C-0.107422 16.8269 0.262804 16.4899 0.746946 16.4899Z" fill="#004672"/>
<path d="M39.7631 16.4899H46.598C47.0821 16.4899 47.4524 16.8269 47.4524 17.2677V18.3047C47.4524 18.7455 47.0821 19.0825 46.598 19.0825H39.7631C39.2789 19.0825 38.9087 18.7455 38.9087 18.3047V17.2677C38.9087 16.8269 39.2789 16.4899 39.7631 16.4899Z" fill="#004672"/>
<path d="M51.1547 16.4899H53.7178C54.2019 16.4899 54.5721 16.8269 54.5721 17.2677V18.3047C54.5721 18.7455 54.2019 19.0825 53.7178 19.0825H51.1547C50.6705 19.0825 50.3003 18.7455 50.3003 18.3047V17.2677C50.3003 16.8269 50.6705 16.4899 51.1547 16.4899Z" fill="#0077C0"/>
<path d="M0.746946 21.6751H14.9864C15.4706 21.6751 15.8408 22.0121 15.8408 22.4529V23.4899C15.8408 23.9306 15.4706 24.2677 14.9864 24.2677H0.746946C0.262804 24.2677 -0.107422 23.9306 -0.107422 23.4899V22.4529C-0.107422 22.0121 0.262804 21.6751 0.746946 21.6751Z" fill="#004672"/>
<path d="M39.7631 21.6751H45.1741C45.6582 21.6751 46.0284 22.0121 46.0284 22.4529V23.4899C46.0284 23.9306 45.6582 24.2677 45.1741 24.2677H39.7631C39.2789 24.2677 38.9087 23.9306 38.9087 23.4899V22.4529C38.9087 22.0121 39.2789 21.6751 39.7631 21.6751Z" fill="#0077C0"/>
<path d="M49.7303 21.6751H54.0022C54.4863 21.6751 54.8566 22.0121 54.8566 22.4529V23.4899C54.8566 23.9306 54.4863 24.2677 54.0022 24.2677H49.7303C49.2462 24.2677 48.876 23.9306 48.876 23.4899V22.4529C48.876 22.0121 49.2462 21.6751 49.7303 21.6751Z" fill="#0077C0"/>
<path d="M0.746946 26.8602H6.15795C6.64209 26.8602 7.01231 27.1973 7.01231 27.638V28.675C7.01231 29.1158 6.64209 29.4528 6.15795 29.4528H0.746946C0.262804 29.4528 -0.107422 29.1158 -0.107422 28.675V27.638C-0.107422 27.1973 0.262804 26.8602 0.746946 26.8602Z" fill="#0077C0"/>
<path d="M10.7142 26.8602H14.9861C15.4702 26.8602 15.8404 27.1973 15.8404 27.638V28.675C15.8404 29.1158 15.4702 29.4528 14.9861 29.4528H10.7142C10.2301 29.4528 9.85986 29.1158 9.85986 28.675V27.638C9.85986 27.1973 10.2301 26.8602 10.7142 26.8602Z" fill="#0077C0"/>
<path d="M0.746946 32.0454H8.15147C8.63561 32.0454 9.00584 32.3824 9.00584 32.8232V33.8602C9.00584 34.301 8.63561 34.638 8.15147 34.638H0.746946C0.262804 34.638 -0.107422 34.301 -0.107422 33.8602V32.8232C-0.107422 32.3824 0.262804 32.0454 0.746946 32.0454Z" fill="#004672"/>
<path d="M12.7084 32.0454H14.9867C15.4708 32.0454 15.8411 32.3824 15.8411 32.8232V33.8602C15.8411 34.301 15.4708 34.638 14.9867 34.638H12.7084C12.2242 34.638 11.854 34.301 11.854 33.8602V32.8232C11.854 32.3824 12.2242 32.0454 12.7084 32.0454Z" fill="#FC8818"/>
<path d="M0.746946 37.2306H3.31005C3.79419 37.2306 4.16442 37.5677 4.16442 38.0084V39.0454C4.16442 39.4862 3.79419 39.8232 3.31005 39.8232H0.746946C0.262804 39.8232 -0.107422 39.4862 -0.107422 39.0454V38.0084C-0.107422 37.5677 0.262804 37.2306 0.746946 37.2306Z" fill="#0077C0"/>
<path d="M7.86658 37.2306H14.9863C15.4705 37.2306 15.8407 37.5677 15.8407 38.0084V39.0454C15.8407 39.4862 15.4705 39.8232 14.9863 39.8232H7.86658C7.38243 39.8232 7.01221 39.4862 7.01221 39.0454V38.0084C7.01221 37.5677 7.38243 37.2306 7.86658 37.2306Z" fill="#0077C0"/>
<path d="M0.746946 42.4158H6.15795C6.64209 42.4158 7.01231 42.7528 7.01231 43.1936V44.2306C7.01231 44.6714 6.64209 45.0084 6.15795 45.0084H0.746946C0.262804 45.0084 -0.107422 44.6714 -0.107422 44.2306V43.1936C-0.107422 42.7528 0.262804 42.4158 0.746946 42.4158Z" fill="#0077C0"/>
<path d="M10.7142 42.4158H14.9861C15.4702 42.4158 15.8404 42.7528 15.8404 43.1936V44.2306C15.8404 44.6714 15.4702 45.0084 14.9861 45.0084H10.7142C10.2301 45.0084 9.85986 44.6714 9.85986 44.2306V43.1936C9.85986 42.7528 10.2301 42.4158 10.7142 42.4158Z" fill="#0077C0"/>
<path d="M0.746946 47.601H14.9864C15.4706 47.601 15.8408 47.938 15.8408 48.3788V49.4158C15.8408 49.8565 15.4706 50.1936 14.9864 50.1936H0.746946C0.262804 50.1936 -0.107422 49.8565 -0.107422 49.4158V48.3788C-0.107422 47.938 0.262804 47.601 0.746946 47.601Z" fill="#004672"/>
<path d="M0.746946 52.7862H4.16442C4.64856 52.7862 5.01879 53.1232 5.01879 53.5639V54.601C5.01879 55.0417 4.64856 55.3788 4.16442 55.3788H0.746946C0.262804 55.3788 -0.107422 55.0417 -0.107422 54.601V53.5639C-0.107422 53.1232 0.262804 52.7862 0.746946 52.7862Z" fill="#004672"/>
<path d="M8.72107 52.7862H14.9864C15.4706 52.7862 15.8408 53.1232 15.8408 53.5639V54.601C15.8408 55.0417 15.4706 55.3788 14.9864 55.3788H8.72107C8.23693 55.3788 7.8667 55.0417 7.8667 54.601V53.5639C7.8667 53.1232 8.23693 52.7862 8.72107 52.7862Z" fill="#FC8818"/>
<path d="M2.74011 57.9713H10.999C11.4831 57.9713 11.8534 58.3084 11.8534 58.7491V59.7862C11.8534 60.2269 11.4831 60.5639 10.999 60.5639H2.74011C2.25597 60.5639 1.88574 60.2269 1.88574 59.7862V58.7491C1.88574 58.3084 2.25597 57.9713 2.74011 57.9713Z" fill="#0077C0"/>
<path d="M15.556 57.9713H21.5366C22.0207 57.9713 22.391 58.3084 22.391 58.7491V59.7862C22.391 60.2269 22.0207 60.5639 21.5366 60.5639H15.556C15.0719 60.5639 14.7017 60.2269 14.7017 59.7862V58.7491C14.7017 58.3084 15.0719 57.9713 15.556 57.9713Z" fill="#0077C0"/>
<path d="M41.7567 57.9713H52.0091C52.4933 57.9713 52.8635 58.3084 52.8635 58.7491V59.7862C52.8635 60.2269 52.4933 60.5639 52.0091 60.5639H41.7567C41.2726 60.5639 40.9023 60.2269 40.9023 59.7862V58.7491C40.9023 58.3084 41.2726 57.9713 41.7567 57.9713Z" fill="#004672"/>
<path d="M7.01208 63.1566H12.7079C13.192 63.1566 13.5622 63.4936 13.5622 63.9343V64.9714C13.5622 65.4121 13.192 65.7491 12.7079 65.7491H7.01208C6.52794 65.7491 6.15771 65.4121 6.15771 64.9714V63.9343C6.15771 63.4936 6.52794 63.1566 7.01208 63.1566Z" fill="#004672"/>
<path d="M17.265 63.1566H20.3977C20.8818 63.1566 21.2521 63.4936 21.2521 63.9343V64.9714C21.2521 65.4121 20.8818 65.7491 20.3977 65.7491H17.265C16.7809 65.7491 16.4106 65.4121 16.4106 64.9714V63.9343C16.4106 63.4936 16.7809 63.1566 17.265 63.1566Z" fill="#0077C0"/>
<path d="M20.1127 68.3417H28.9411C29.4253 68.3417 29.7955 68.6788 29.7955 69.1195V70.1566C29.7955 70.5973 29.4253 70.9343 28.9411 70.9343H20.1127C19.6285 70.9343 19.2583 70.5973 19.2583 70.1566V69.1195C19.2583 68.6788 19.6285 68.3417 20.1127 68.3417Z" fill="#0077C0"/>
<path d="M39.7631 47.601H46.0284C46.5126 47.601 46.8828 47.938 46.8828 48.3788V49.4158C46.8828 49.8565 46.5126 50.1936 46.0284 50.1936H39.7631C39.2789 50.1936 38.9087 49.8565 38.9087 49.4158V48.3788C38.9087 47.938 39.2789 47.601 39.7631 47.601Z" fill="#004672"/>
<path d="M50.5848 47.601H54.0023C54.4865 47.601 54.8567 47.938 54.8567 48.3788V49.4158C54.8567 49.8565 54.4865 50.1936 54.0023 50.1936H50.5848C50.1007 50.1936 49.7305 49.8565 49.7305 49.4158V48.3788C49.7305 47.938 50.1007 47.601 50.5848 47.601Z" fill="#FC8818"/>
<path d="M39.7631 52.7862H43.1805C43.6647 52.7862 44.0349 53.1232 44.0349 53.5639V54.601C44.0349 55.0417 43.6647 55.3788 43.1805 55.3788H39.7631C39.2789 55.3788 38.9087 55.0417 38.9087 54.601V53.5639C38.9087 53.1232 39.2789 52.7862 39.7631 52.7862Z" fill="#004672"/>
<path d="M47.7372 52.7862H53.433C53.9171 52.7862 54.2873 53.1232 54.2873 53.5639V54.601C54.2873 55.0417 53.9171 55.3788 53.433 55.3788H47.7372C47.253 55.3788 46.8828 55.0417 46.8828 54.601V53.5639C46.8828 53.1232 47.253 52.7862 47.7372 52.7862Z" fill="#FC8818"/>
<path d="M24.954 63.1566H47.7371C48.2213 63.1566 48.5915 63.4936 48.5915 63.9343V64.9714C48.5915 65.4121 48.2213 65.7491 47.7371 65.7491H24.954C24.4698 65.7491 24.0996 65.4121 24.0996 64.9714V63.9343C24.0996 63.4936 24.4698 63.1566 24.954 63.1566Z" fill="#004672"/>
<path d="M26.0936 57.9713H37.2004C37.6846 57.9713 38.0548 58.3084 38.0548 58.7491V59.7862C38.0548 60.2269 37.6846 60.5639 37.2004 60.5639H26.0936C25.6095 60.5639 25.2393 60.2269 25.2393 59.7862V58.7491C25.2393 58.3084 25.6095 57.9713 26.0936 57.9713Z" fill="#0077C0"/>
<path d="M33.4974 68.3417H36.3453C36.8295 68.3417 37.1997 68.6788 37.1997 69.1195V70.1566C37.1997 70.5973 36.8295 70.9343 36.3453 70.9343H33.4974C33.0133 70.9343 32.6431 70.5973 32.6431 70.1566V69.1195C32.6431 68.6788 33.0133 68.3417 33.4974 68.3417Z" fill="#004672"/>
</svg>
