<svg fill="none" height="54" viewBox="0 0 54 54" width="54" xmlns="http://www.w3.org/2000/svg"><path d="m0 0h54v54h-54z" fill="#fff"/><path clip-rule="evenodd" d="m40.673 25.5824h1.4895c.989 0 1.7911.8013 1.7923 1.7891v6.8357c0 .9879-.8021 1.7891-1.791 1.7891h-1.4896v3.5612c0 1.9708-1.5993 3.5672-3.5711 3.5672h-20.2514c-1.9729 0-3.5711-1.5976-3.5711-3.5672v-3.5612h-1.4895c-.989 0-1.7911-.8012-1.7911-1.7891v-6.8357c0-.9878.8021-1.7891 1.7911-1.7891h1.4895v-3.3964c0-1.9709 1.5994-3.5673 3.5711-3.5673h8.5001v-3.927c-1.1416-.589-1.923-1.7757-1.923-3.1476 0-1.95747 1.5884-3.5441 3.548-3.5441s3.548 1.58663 3.548 3.5441c0 1.3707-.7814 2.5586-1.923 3.1476v3.927h8.5001c1.973 0 3.5711 1.5977 3.5711 3.5673zm-16.4127.972c0 1.1175-.9068 2.0233-2.0255 2.0233s-2.0255-.9058-2.0255-2.0233c0-1.1174.9068-2.0232 2.0255-2.0232s2.0255.9058 2.0255 2.0232zm9.6806 0c0 1.1175-.9068 2.0233-2.0255 2.0233-1.1186 0-2.0255-.9058-2.0255-2.0233 0-1.1174.9069-2.0232 2.0255-2.0232 1.1187 0 2.0255.9058 2.0255 2.0232zm-6.875 10.8481c-3.5003 0-6.7931-1.3586-9.2716-3.8258-.525-.522-.5262-1.3708-.0036-1.894.5225-.5244 1.3723-.5256 1.8961-.0036 1.9729 1.9634 4.5942 3.044 7.3791 3.044 2.7935 0 5.4184-1.0867 7.3939-3.0599.5238-.5232 1.3723-.5232 1.8961 0 .5237.5232.5237 1.3708 0 1.894-2.4809 2.4806-5.7798 3.8453-9.29 3.8453z" fill="#f80000" fill-rule="evenodd"/></svg>