<svg fill="none" height="78" viewBox="0 0 199 78" width="199" xmlns="http://www.w3.org/2000/svg" xmlns:xlink="http://www.w3.org/1999/xlink"><clipPath id="a"><path d="m0 0h199v78h-199z"/></clipPath><clipPath id="b"><path d="m0 0h199v78h-199z"/></clipPath><g clip-path="url(#a)"><path d="m0 0h199v78h-199z" fill="#fff"/><g clip-path="url(#b)"><path d="m145.924 25.504v19.12l.13 4.08h-2.568l-.13-2.746h-.064c-.882 1.766-2.788 3.113-5.343 3.113-3.787 0-6.717-3.244-6.717-8.043-.026-5.258 3.216-8.5 7.028-8.5 2.399 0 4.02 1.15 4.733 2.419h.065v-9.443zm-2.853 13.824c0-.367-.026-.85-.13-1.204-.415-1.83-1.971-3.334-4.123-3.334-2.957 0-4.694 2.615-4.694 6.12 0 3.204 1.556 5.86 4.642 5.86 1.919 0 3.657-1.283 4.175-3.427.104-.393.13-.785.13-1.243zm-48.174 7.362c-1.945 0-3.787-.654-5.058-1.439l-.739 2.354c1.167.785 3.476 1.413 5.576 1.413 5.161 0 7.651-2.943 7.651-6.343 0-3.23-1.88-5.035-5.576-6.474-3.021-1.177-4.344-2.184-4.344-4.25 0-1.49 1.141-3.296 4.124-3.296 1.4491-.0057 2.8761.3544 4.149 1.047l.778-2.328c-.972-.55-2.593-1.073-4.824-1.073-4.24 0-7.067 2.564-7.067 5.99 0 3.113 2.205 4.97 5.77 6.251 2.957 1.138 4.124 2.315 4.124 4.381 0 2.224-1.686 3.767-4.564 3.767zm-49.147-15.471c0 3.244.091 6.409.195 9.063l.376 8.449h4.798l-1.167-22.037h-6.484l-2.308 7.324c-.752 2.446-1.491 5.362-2.075 7.912h-.13c-.4984-2.6542-1.1126-5.2854-1.841-7.886l-2.14-7.35h-6.587l-1.4 22.037h4.564l.415-8.37.363-9.129h.065c.5407 2.894 1.1979 5.765 1.97 8.606l2.335 8.527h3.864l2.659-8.606c.842-2.59 1.75-5.728 2.463-8.54zm22.434 17.499c-.195-.877-.26-2.355-.26-3.859h.013v-5.584c0-3.766-1.646-6.905-6.937-6.905-2.892 0-5.057.81-6.16 1.439l.908 3.165c1.038-.628 2.762-1.178 4.383-1.178 2.425 0 2.879 1.217 2.879 2.067v.196c-5.615 0-9.31 1.962-9.31 6.12 0 2.55 1.905 4.905 5.121 4.905 1.88 0 3.502-.68 4.539-1.962h.104l.285 1.596zm-9.622-5.049c0-1.883 2.01-2.51 4.603-2.51h.013v1.726c0 .3-.038.588-.103.85-.338 1.02-1.375 1.83-2.568 1.83-1.102 0-1.945-.614-1.945-1.896zm25.183 4.617c-.882.419-2.529.759-4.409.759-5.122 0-8.403-3.165-8.403-8.174 0-4.643 3.177-8.475 9.077-8.475 1.297 0 2.724.236 3.76.628l-.777 3.688c-.584-.262-1.453-.497-2.75-.497-2.593 0-4.278 1.87-4.253 4.447 0 2.942 1.946 4.472 4.345 4.472 1.167 0 2.074-.196 2.826-.523zm25.714-19.172v3.766h4.085v2.197h-4.085v8.527c0 1.962.545 3.074 2.14 3.074.752 0 1.297-.105 1.66-.197l.129 2.158c-.544.236-1.426.393-2.528.393-1.323 0-2.399-.419-3.086-1.204-.804-.85-1.103-2.249-1.103-4.12v-8.63h-2.438v-2.198h2.438v-2.916zm15.743 17.616.233 1.988v-.013h2.594c-.195-1.073-.26-2.42-.26-3.793v-5.911c0-3.178-1.167-6.474-5.965-6.474-1.984 0-3.864.563-5.161 1.413l.648 1.896c1.103-.72 2.633-1.177 4.085-1.177 3.203 0 3.566 2.354 3.566 3.662v.327c-6.069-.026-9.44 2.066-9.44 5.885 0 2.302 1.621 4.551 4.798 4.551 2.23 0 3.916-1.112 4.798-2.354zm-6.821-2.537c0-3.06 3.527-3.623 6.639-3.557v2.746c0 .288-.052.628-.156.916-.44 1.333-1.737 2.641-3.786 2.641-1.465 0-2.697-.89-2.697-2.746zm33.637-13.98c1.141 0 1.841-.785 1.816-1.766 0-1.02-.675-1.805-1.738-1.805-.238-.0055-.474.0375-.695.1264s-.421.2219-.588.3909c-.168.1689-.299.3703-.386.5917-.088.2214-.129.4582-.121.696 0 .98.701 1.766 1.712 1.766zm-1.361 2.68v15.825h2.852v-15.825zm20.722 11.509c0 1.635.026 3.073.129 4.316h-2.528l-.156-2.59h-.065c-.752 1.282-2.399 2.943-5.187 2.943-2.464 0-5.42-1.373-5.42-6.932v-9.259h2.853v8.762c0 3.008.907 5.035 3.501 5.035 1.919 0 3.242-1.334 3.76-2.615.156-.419.26-.942.26-1.465v-9.704h2.853zm4.603-11.522c.104 1.308.13 2.655.13 4.29v11.548h2.788v-9.548c0-.497.078-.994.233-1.413.441-1.438 1.738-2.877 3.528-2.877 2.165 0 3.267 1.831 3.267 4.342v9.482h2.788v-9.783c.004-.4885.083-.9735.234-1.438.493-1.413 1.75-2.616 3.371-2.616 2.296 0 3.398 1.831 3.398 4.865v8.959h2.801v-9.311c0-5.493-3.086-6.866-5.161-6.866-1.504 0-2.542.392-3.476 1.112-.719.5608-1.315 1.2642-1.75 2.066h-.065c-.674-1.857-2.295-3.165-4.435-3.165-2.593 0-4.046 1.4-4.927 2.903h-.104l-.13-2.55z" fill="#000"/><path d="m40.757.0800171h-3.76v18.9639829h3.76zm.13 58.1719829h-3.76v18.963h3.76zm-9.76-1.568 3.569 1.197-5.938 17.993-3.568-1.198zm-2.206-1.12-3.043-2.229-11.046 15.345 3.043 2.228zm-6.855-7.022 2.188 3.084-15.292 11.034-2.188-3.085zm-1.061-2.176-1.165-3.606-17.878 5.875 1.165 3.606zm-1.513-9.694v3.793h-18.803v-3.793zm.285-2.278 1.16-3.608-17.887-5.849-1.16 3.608zm4.413-8.832-2.224 3.058-15.163-11.215 2.224-3.058zm4.612-24.20198-3.574 1.18 5.851 18.01998 3.574-1.18zm-13.914 7.097 3.031-2.245 11.13 15.28498-3.032 2.244z" fill="#fe9000"/><path d="m105.368 20h1.566v-4.86c.36.09.792.108 1.26.108 1.53 0 2.88-.45 3.708-1.332.612-.63.936-1.494.936-2.592 0-1.08-.396-1.962-1.062-2.538-.72-.648-1.854-1.008-3.402-1.008-1.26 0-2.25.108-3.006.234zm1.566-10.854c.27-.072.792-.126 1.476-.126 1.728 0 2.862.774 2.862 2.376 0 1.674-1.152 2.592-3.042 2.592-.522 0-.954-.036-1.296-.126zm11.823 1.944c-2.412 0-4.32 1.71-4.32 4.626 0 2.754 1.818 4.482 4.176 4.482 2.106 0 4.338-1.404 4.338-4.626 0-2.664-1.692-4.482-4.194-4.482zm-.036 1.188c1.872 0 2.61 1.872 2.61 3.348 0 1.962-1.134 3.384-2.646 3.384-1.548 0-2.646-1.44-2.646-3.348 0-1.656.81-3.384 2.682-3.384zm5.742-.99 2.628 8.712h1.44l1.404-4.14c.306-.936.576-1.836.792-2.88h.036c.216 1.026.468 1.89.774 2.862l1.332 4.158h1.44l2.808-8.712h-1.566l-1.242 4.374c-.288 1.026-.522 1.944-.666 2.826h-.054c-.198-.882-.45-1.8-.774-2.844l-1.35-4.356h-1.332l-1.422 4.428c-.288.954-.576 1.89-.774 2.772h-.054c-.162-.9-.396-1.8-.648-2.772l-1.152-4.428zm21.7 4.644c.018-.162.054-.414.054-.738 0-1.602-.756-4.104-3.6-4.104-2.538 0-4.086 2.07-4.086 4.698s1.602 4.41 4.284 4.41c1.386 0 2.34-.306 2.898-.558l-.27-1.134c-.594.252-1.278.45-2.412.45-1.584 0-2.952-.882-2.988-3.024zm-6.102-1.134c.126-1.098.828-2.574 2.43-2.574 1.782 0 2.214 1.566 2.196 2.574zm8.748 5.202h1.566v-4.644c0-.27.036-.522.072-.738.216-1.188 1.008-2.034 2.124-2.034.216 0 .378.018.54.054v-1.494c-.144-.036-.27-.054-.45-.054-1.062 0-2.016.738-2.412 1.908h-.072l-.054-1.71h-1.386c.054.81.072 1.692.072 2.718zm13.345-4.068c.018-.162.054-.414.054-.738 0-1.602-.756-4.104-3.6-4.104-2.538 0-4.086 2.07-4.086 4.698s1.602 4.41 4.284 4.41c1.386 0 2.34-.306 2.898-.558l-.27-1.134c-.594.252-1.278.45-2.412.45-1.584 0-2.952-.882-2.988-3.024zm-6.102-1.134c.126-1.098.828-2.574 2.43-2.574 1.782 0 2.214 1.566 2.196 2.574zm14.687-7.578v5.202h-.036c-.396-.702-1.296-1.332-2.628-1.332-2.124 0-3.924 1.782-3.906 4.68 0 2.646 1.62 4.428 3.726 4.428 1.422 0 2.484-.738 2.97-1.71h.036l.072 1.512h1.422c-.054-.594-.072-1.476-.072-2.25v-10.53zm0 9.126c0 .252-.018.468-.072.684-.288 1.188-1.26 1.89-2.322 1.89-1.71 0-2.574-1.458-2.574-3.222 0-1.926.972-3.366 2.61-3.366 1.188 0 2.052.828 2.286 1.836.054.198.072.468.072.666zm9.349 3.618c.522.072 1.35.144 2.43.144 1.98 0 3.348-.36 4.194-1.134.612-.594 1.026-1.386 1.026-2.43 0-1.8-1.35-2.754-2.502-3.042v-.036c1.278-.468 2.052-1.494 2.052-2.664 0-.954-.378-1.674-1.008-2.142-.756-.612-1.764-.882-3.33-.882-1.098 0-2.178.108-2.862.252zm1.566-10.872c.252-.054.666-.108 1.386-.108 1.584 0 2.664.558 2.664 1.98 0 1.17-.972 2.034-2.628 2.034h-1.422zm0 5.094h1.296c1.71 0 3.132.684 3.132 2.34 0 1.764-1.494 2.358-3.114 2.358-.558 0-1.008-.018-1.314-.072zm7.684-2.898 3.222 8.028c.072.198.108.324.108.414s-.054.216-.126.378c-.36.81-.9 1.422-1.332 1.764-.468.396-.99.648-1.386.774l.396 1.332c.396-.072 1.17-.342 1.944-1.026 1.08-.936 1.854-2.466 2.988-5.454l2.376-6.21h-1.674l-1.728 5.112c-.216.63-.396 1.296-.558 1.818h-.036c-.144-.522-.36-1.206-.558-1.782l-1.908-5.148z" fill="#686868"/></g></g></svg>