<svg fill="none" height="70" viewBox="0 0 70 70" width="70" xmlns="http://www.w3.org/2000/svg" xmlns:xlink="http://www.w3.org/1999/xlink"><clipPath id="a"><path d="m0 0h70v70h-70z"/></clipPath><g clip-path="url(#a)"><path d="m0 0h70v70h-70z" fill="#fff"/><path d="m40.8928 28.2587c0 2.9439.0826 5.8162.177 8.2247l.3412 7.6675h4.3542l-1.059-19.9986h-5.8843l-2.0945 6.6465c-.6824 2.2198-1.3531 4.866-1.883 7.1801h-.118c-.4523-2.4087-1.0097-4.7965-1.6707-7.1565l-1.9421-6.6701h-5.9777l-1.2705 19.9986h4.1418l.3767-7.5958.3294-8.2846h.059c.4907 2.6263 1.0871 5.2317 1.7877 7.81l2.1191 7.7382h3.5065l2.4131-7.8099c.7641-2.3505 1.5881-5.1982 2.2352-7.7501z" fill="#000"/><path d="m36.3617 0h-3.4122v17.2098h3.4122zm.118 52.7911h-3.4122v17.2089h3.4122zm-8.8572-1.423 3.2388 1.0863-5.3887 16.3286-3.2379-1.0871zm-2.002-1.0164-2.7615-2.0228-10.0242 13.9256 2.7615 2.0219zm-6.2209-6.3724 1.9856 2.7987-13.87745 10.0133-1.98561-2.7996zm-.9628-1.9748-1.0573-3.2724-16.22425 5.3316 1.05723 3.2724zm-1.3731-8.7973v3.4422h-17.0637v-3.4422zm.2587-2.0672 1.0527-3.2743-16.23249-5.308-1.0527 3.2743zm4.0048-8.0151-2.0183 2.7751-13.76045-10.1776 2.01828-2.7751zm4.1853-21.9633-3.2434 1.07085 5.3098 16.35315 3.2434-1.0709zm-12.6269 6.44053 2.7506-2.03734 10.1005 13.87111-2.7515 2.0365z" fill="#fe9000"/></g></svg>