<svg height="2500" viewBox="0 0 254 254" width="2500" xmlns="http://www.w3.org/2000/svg" xmlns:xlink="http://www.w3.org/1999/xlink">
<style>
.memcached-logo { filter: brightness(1.3) contrast(1.3); }
</style>
<linearGradient id="a" x1="50%" x2="50%" y1="100%" y2="0%"><stop offset="0" stop-color="#574c4a"/><stop offset="1" stop-color="#80716d"/></linearGradient><linearGradient id="b" x1="88.778%" x2="30.149%" y1="98.342%" y2="-8.68%"><stop offset="0" stop-color="#268d83"/><stop offset="1" stop-color="#2ea19e"/></linearGradient><linearGradient id="c"><stop offset="0" stop-color="#db7c7c"/><stop offset="1" stop-color="#c83737"/></linearGradient><radialGradient id="d" cx="41.406%" cy="42.708%" xlink:href="#c"/><radialGradient id="e" cx="44.271%" cy="42.708%" xlink:href="#c"/><g class="memcached-logo"><path d="m0 171.19v-89.02c0-71.899 10.26-82.17 82.086-82.17h89.189c71.825 0 82.085 10.271 82.085 82.171v89.019c0 71.9-10.26 82.17-82.086 82.17h-89.188c-71.825 0-82.086-10.27-82.086-82.17z" fill="url(#a)"/><path d="m8.891.655c-12.453 78.928-5.938 152.825-5.938 152.825h38.928c-3.704-19.704-16.992-109.724-5.938-110.021 5.924.94 32.99 76.371 32.99 76.371s5.96-.742 11.958-.742 11.959.742 11.959.742 27.066-75.43 32.99-76.371c11.053.297-2.235 90.317-5.938 110.02h38.927s6.516-73.896-5.938-152.824h-36.041c-6.86.081-32.96 45.855-35.959 45.855s-29.099-45.774-35.959-45.855h-36.04z" fill="url(#b)" transform="translate(45.79 47.098)"/><path d="m73.214 144.267a9.213 9.213 0 1 1 -18.427 0 9.213 9.213 0 0 1 18.427 0z" fill="url(#d)" transform="translate(45.79 47.098)"/><path d="m106.995 144.267a9.213 9.213 0 1 1 -18.426 0 9.213 9.213 0 0 1 18.426 0z" fill="url(#e)" transform="translate(45.79 47.098)"/><path d="m196.846 50.362c5.618 38.026 6.936 74.52 6.833 101.705-.106 27.806-1.699 45.871-1.699 45.871h-32.767l-3.521 2.64h38.927s6.516-73.897-5.938-152.825l-1.835 2.61zm-103.154-.96c10.226 11.376 27.913 41.567 30.35 41.567-6.484-8.292-22.411-34.748-30.35-41.567zm-14.598 38.516c-11.054.297 2.234 90.317 5.938 110.02h-33.982l-2.307 2.64h38.928c-3.685-19.604-16.856-108.825-6.103-110.021-1.002-1.504-1.866-2.543-2.474-2.64zm89.896 0c-5.923.94-32.99 76.371-32.99 76.371s-5.96-.742-11.958-.742c-3.549 0-6.604.218-8.67.41l-.65 2.971s5.961-.742 11.96-.742c5.997 0 11.958.742 11.958.742s26.862-74.936 32.907-76.371c-.651-1.65-1.456-2.61-2.557-2.64z" opacity=".1"/><path d="m54.681 47.753c-12.453 78.928-5.938 152.825-5.938 152.825l2.292-2.578c-1.173-17.434-4.306-80.48 6.285-147.609h36.042c.763.01 1.787.635 2.969 1.65-2.36-2.626-4.322-4.274-5.609-4.29h-36.04zm107.959 0c-6.86.081-32.96 45.856-35.959 45.856 1.223 1.564 2.216 2.639 2.64 2.639 2.998 0 29.098-45.775 35.958-45.856h31.806l1.596-2.64h-36.041zm-78.433 45.443c8.755 13.148 30.515 73.732 30.515 73.732l.637-2.954c-5.372-14.732-25.844-69.961-30.987-70.778-.056.002-.11-.006-.165 0zm90.062 0c5.872 14.977-5.244 89.649-8.577 107.382l3.53-2.757c4.508-26.446 15.363-104.347 5.047-104.625z" fill="#fff" opacity=".3"/></g></svg>
