<svg fill="none" height="96" viewBox="0 0 174 96" width="174" xmlns="http://www.w3.org/2000/svg" xmlns:xlink="http://www.w3.org/1999/xlink"><clipPath id="a"><path d="m0 0h174v96h-174z"/></clipPath><g clip-path="url(#a)"><path d="m139.4 30.4-22 10.9 22-31.39998z" fill="#009171"/><path d="m117.4 41.2-24.4-25 46.4-6.49999z" fill="#00a984"/><path d="m117.4 41.2-19.9 18.8-4.5-43.8z" fill="#a7d5c2"/><path d="m93 16.2.8 8.3.3 21.4-23.2-1.5z" fill="#00a984"/><path d="m70.9 44.5-24.9-23.5 47-4.7z" fill="#79c3a9"/><path d="m96 46.1-2.2-21.5.3 21.4zm-59.1-24.1-12.6-21.5 31.8 29.9z" fill="#009171"/><path d="m36.9 22-12 18.3 21.1-14.3z" fill="#a7d5c2"/><path d="m4.80001 76.5.2 2c.6-.7 1.3-1.3 2.2-1.7s1.9-.6 2.99999-.6c1.1 0 2.1.2 2.9.7.8.4 1.5 1.1 1.9 2.1.6-.9 1.3-1.5 2.2-2s2-.7 3.2-.7c.9 0 1.7.1 2.4.4.7.2 1.3.6 1.9 1.2.5.6.9 1.3 1.2 2.1.3.9.4 2 .4 3.2v11.6h-4.9v-11.6c0-.6-.1-1.1-.2-1.5s-.3-.7-.5-.9-.5-.4-.9-.5c-.3-.1-.7-.1-1.1-.1-.8 0-1.4.2-1.9.6s-.9.9-1.1 1.5v12.5h-4.9v-11.6c0-.6-.1-1.1-.2-1.5s-.3-.7-.5-.9c-.19999-.2-.49999-.4-.89999-.5-.3-.1-.7-.1-1.2-.1-.7 0-1.3.2-1.8.5s-.9.7-1.2 1.3v12.9h-4.900004v-18.2h4.700004zm24.49999 9c0-1.3.2-2.6.6-3.7s.9-2.1 1.7-2.9c.7-.8 1.6-1.5 2.7-1.9 1.1-.5 2.3-.7 3.7-.7s2.6.2 3.7.7 2 1.1 2.7 1.9 1.3 1.8 1.7 2.9.6 2.4.6 3.7v.4c0 1.3-.2 2.6-.6 3.7s-.9 2.1-1.7 2.9c-.7.8-1.6 1.5-2.7 1.9-1.1.5-2.3.7-3.7.7s-2.6-.2-3.7-.7-2-1.1-2.7-1.9-1.3-1.8-1.7-2.9-.6-2.4-.6-3.7zm4.9.3c0 .7.1 1.4.2 2.1s.4 1.2.6 1.7c.3.5.7.9 1.2 1.1.5.3 1.1.4 1.8.4s1.2-.1 1.7-.4.9-.7 1.2-1.1c.3-.5.5-1 .7-1.7.1-.7.2-1.3.2-2.1v-.4c0-.7-.1-1.4-.2-2s-.4-1.2-.7-1.7-.7-.9-1.2-1.2-1.1-.4-1.8-.4-1.2.1-1.7.4-.9.7-1.2 1.2-.5 1.1-.6 1.7-.2 1.3-.2 2zm31.8 0c0 1.4-.1 2.6-.4 3.8-.3 1.1-.7 2.1-1.3 2.9s-1.3 1.5-2.2 1.9c-.9.5-1.9.7-3.1.7-1.1 0-2-.2-2.7-.6-.8-.4-1.4-1-2-1.7l-.2 1.9h-4.4v-25.8h4.9v9.3c.5-.6 1.2-1.1 1.9-1.5.7-.3 1.6-.5 2.5-.5 1.2 0 2.2.2 3.1.7s1.6 1.1 2.2 1.9 1 1.8 1.3 2.9.4 2.4.4 3.7zm-4.9-.4c0-.7-.1-1.4-.2-2s-.3-1.2-.5-1.7c-.3-.5-.6-.9-1.1-1.1-.4-.3-1-.4-1.7-.4-.8 0-1.5.2-2 .5s-.9.8-1.2 1.4v7.2c.3.6.7 1.1 1.2 1.4s1.2.5 2 .5c.7 0 1.2-.1 1.7-.4.4-.3.8-.6 1.1-1.1s.4-1 .5-1.7.2-1.4.2-2.1zm7.8-13.6c0-.7.2-1.3.7-1.8s1.2-.7 2-.7c.4 0 .8.1 1.1.2s.6.3.9.5c.2.2.4.5.5.8s.2.6.2 1-.1.7-.2 1-.3.6-.5.8-.5.4-.9.5c-.3.1-.7.2-1.1.2s-.8-.1-1.1-.2-.6-.3-.9-.5c-.2-.2-.4-.5-.5-.8s-.2-.6-.2-1zm5.2 22.9h-4.9v-18.2h4.9zm9.2 0h-4.9v-25.8h4.9zm3.9-22.9c0-.7.2-1.3.7-1.8s1.2-.7 2-.7c.4 0 .8.1 1.1.2s.6.3.9.5c.2.2.4.5.5.8s.2.6.2 1-.1.7-.2 1-.3.6-.5.8-.5.4-.9.5c-.3.1-.7.2-1.1.2s-.8-.1-1.1-.2-.6-.3-.9-.5c-.2-.2-.4-.5-.5-.8s-.2-.6-.2-1zm5.2 22.9h-4.9v-18.2h4.9zm13.9-5c0-.3-.1-.5-.2-.7s-.3-.4-.6-.6-.7-.4-1.1-.5c-.5-.2-1.1-.3-1.9-.5-.9-.2-1.8-.5-2.6-.8s-1.5-.7-2.1-1.1-1-1-1.4-1.6c-.3-.6-.5-1.3-.5-2.1s.2-1.5.5-2.2.8-1.3 1.4-1.8 1.4-.9 2.3-1.2 1.9-.5 3.1-.5 2.2.1 3.2.4c.9.3 1.7.7 2.4 1.2s1.2 1.1 1.5 1.9c.4.7.5 1.5.5 2.4h-4.9c0-.7-.2-1.3-.7-1.7-.4-.5-1.2-.7-2.1-.7-.8 0-1.5.2-1.9.6s-.7.8-.7 1.4c0 .3.1.5.2.7s.3.4.6.6.6.3 1 .5c.4.1 1 .3 1.6.4 1 .2 1.9.4 2.7.7s1.6.6 2.2 1.1c.6.4 1.1 1 1.4 1.6s.5 1.4.5 2.3c0 .8-.2 1.6-.5 2.2-.4.7-.9 1.3-1.5 1.8-.7.5-1.5.9-2.4 1.2s-2 .4-3.2.4c-1.3 0-2.4-.2-3.4-.5-1-.4-1.8-.8-2.5-1.4s-1.2-1.2-1.5-2c-.3-.7-.5-1.5-.5-2.2h4.6c0 .5.1.9.3 1.2s.4.6.7.8.7.4 1.1.5.8.2 1.3.2c.9 0 1.6-.2 2.1-.5.7-.5 1-.9 1-1.5zm13.6-17.7v4.5h3.1v3.6h-3.1v9.1c0 .4 0 .7.1.9s.2.4.4.6l.6.3c.2.1.5.1.8.1h.8c.2 0 .5-.1.6-.1v3.7c-.4.1-.8.2-1.3.3s-1 .1-1.6.1c-.8 0-1.5-.1-2.2-.3s-1.2-.5-1.6-.9c-.5-.4-.8-1-1.1-1.7-.2-.7-.4-1.5-.4-2.5v-9.6h-2.7v-3.6h2.7v-4.5zm5.8-.2c0-.7.2-1.3.7-1.8s1.2-.7 2-.7c.4 0 .8.1 1.1.2s.6.3.9.5c.2.2.4.5.5.8s.2.6.2 1-.1.7-.2 1-.3.6-.5.8-.5.4-.9.5c-.3.1-.7.2-1.1.2s-.8-.1-1.1-.2-.6-.3-.9-.5c-.2-.2-.4-.5-.5-.8s-.2-.6-.2-1zm5.2 22.9h-4.9v-18.2h4.9zm11.6-3.6c.4 0 .9-.1 1.2-.2.4-.1.7-.3 1-.5s.5-.5.6-.8c.2-.3.2-.7.2-1.1h4.6c0 1-.2 1.9-.6 2.7s-.9 1.5-1.6 2.1-1.5 1-2.4 1.4c-.9.3-1.9.5-3 .5-1.4 0-2.6-.2-3.7-.7s-1.9-1.1-2.6-2c-.7-.8-1.2-1.8-1.6-2.9-.3-1.1-.5-2.3-.5-3.6v-.5c0-1.3.2-2.5.5-3.6s.9-2.1 1.6-2.9 1.6-1.5 2.6-2 2.3-.7 3.7-.7c1.1 0 2.1.2 3.1.5.9.3 1.7.8 2.4 1.4s1.2 1.4 1.5 2.2c.4.9.6 1.9.6 3h-4.6c0-.4-.1-.8-.2-1.2s-.3-.7-.6-1-.6-.5-1-.7-.8-.3-1.3-.3c-.7 0-1.3.1-1.7.4s-.8.7-1.1 1.2-.4 1.1-.5 1.7-.1 1.3-.1 2v.5c0 .7 0 1.4.1 2s.3 1.2.5 1.7c.3.5.6.9 1.1 1.2.5.1 1 .2 1.8.2zm20.2-1.4c0-.3-.1-.5-.2-.7s-.3-.4-.6-.6-.7-.4-1.1-.5c-.5-.2-1.1-.3-1.9-.5-.9-.2-1.8-.5-2.6-.8s-1.5-.7-2.1-1.1-1-1-1.4-1.6c-.3-.6-.5-1.3-.5-2.1s.2-1.5.5-2.2.8-1.3 1.4-1.8 1.4-.9 2.3-1.2 1.9-.5 3.1-.5 2.2.1 3.2.4c.9.3 1.7.7 2.4 1.2s1.2 1.1 1.5 1.9c.4.7.5 1.5.5 2.4h-4.9c0-.7-.2-1.3-.7-1.7-.4-.5-1.2-.7-2.1-.7-.8 0-1.5.2-1.9.6s-.7.8-.7 1.4c0 .3.1.5.2.7s.3.4.6.6.6.3 1 .5c.4.1 1 .3 1.6.4 1 .2 1.9.4 2.7.7s1.6.6 2.2 1.1c.6.4 1.1 1 1.4 1.6s.5 1.4.5 2.3c0 .8-.2 1.6-.5 2.2-.4.7-.9 1.3-1.5 1.8-.7.5-1.5.9-2.4 1.2s-2 .4-3.2.4c-1.3 0-2.4-.2-3.4-.5-1-.4-1.8-.8-2.5-1.4s-1.2-1.2-1.5-2c-.3-.7-.5-1.5-.5-2.2h4.6c0 .5.1.9.3 1.2s.4.6.7.8.7.4 1.1.5.8.2 1.3.2c.9 0 1.6-.2 2.1-.5.8-.5 1-.9 1-1.5zm11.3-19.2c0 2.3-1.8 4.1-4 4.1-2.3 0-4.1-1.8-4.1-4.1s1.8-4.1 4.1-4.1c2.2 0 4 1.8 4 4.1zm-7.4.1c0 2 1.5 3.6 3.4 3.6s3.4-1.6 3.4-3.6-1.5-3.6-3.4-3.6c-1.9-.1-3.4 1.5-3.4 3.6zm5-1.6c-.2-.1-.7-.3-1.3-.3-1.3 0-1.9.8-1.9 1.9 0 1 .7 1.9 1.9 1.9.5 0 1-.1 1.3-.3l.2.5c-.5.3-1.1.4-1.6.4-1.5 0-2.4-1.1-2.4-2.4 0-1.5 1.2-2.5 2.5-2.5.7 0 1.3.2 1.5.4z" fill="#3c3c3b"/></g></svg>