<svg xmlns="http://www.w3.org/2000/svg" viewBox="0 0 237.5 158.5"><style>.st0{fill:#009171}.st1{fill:#00a984}.st2{fill:#a7d5c2}</style><g id="Ebene_3"><path class="st0" d="M171.4 60.4l-22 10.9 22-31.4v20.5z"/><path class="st1" d="M149.4 71.2l-24.4-25 46.4-6.5-22 31.5z"/><path class="st2" d="M149.4 71.2L129.5 90 125 46.2l24.4 25z"/><path class="st1" d="M125 46.2l.8 8.3.3 21.4-23.2-1.5L125 46.2z"/><path d="M102.9 74.5L78 51l47-4.7-22.1 28.2z" fill="#79c3a9"/><path class="st0" d="M128 76.1l-2.2-21.5.3 21.4 1.9.1zM68.9 52L56.3 30.5l31.8 29.9L68.9 52z"/><path class="st2" d="M68.9 52l-12 18.3L78 56z"/><path d="M36.8 106.5l.2 2c.6-.7 1.3-1.3 2.2-1.7.9-.4 1.9-.6 3-.6s2.1.2 2.9.7c.8.4 1.5 1.1 1.9 2.1.6-.9 1.3-1.5 2.2-2 .9-.5 2-.7 3.2-.7.9 0 1.7.1 2.4.4.7.2 1.3.6 1.9 1.2.5.6.9 1.3 1.2 2.1.3.9.4 2 .4 3.2v11.6h-4.9v-11.6c0-.6-.1-1.1-.2-1.5-.1-.4-.3-.7-.5-.9-.2-.2-.5-.4-.9-.5-.3-.1-.7-.1-1.1-.1-.8 0-1.4.2-1.9.6-.5.4-.9.9-1.1 1.5v12.5h-4.9v-11.6c0-.6-.1-1.1-.2-1.5-.1-.4-.3-.7-.5-.9-.2-.2-.5-.4-.9-.5-.3-.1-.7-.1-1.2-.1-.7 0-1.3.2-1.8.5s-.9.7-1.2 1.3v12.9h-4.9v-18.2h4.7zm24.5 9c0-1.3.2-2.6.6-3.7.4-1.1.9-2.1 1.7-2.9.7-.8 1.6-1.5 2.7-1.9 1.1-.5 2.3-.7 3.7-.7 1.4 0 2.6.2 3.7.7s2 1.1 2.7 1.9c.7.8 1.3 1.8 1.7 2.9.4 1.1.6 2.4.6 3.7v.4c0 1.3-.2 2.6-.6 3.7-.4 1.1-.9 2.1-1.7 2.9-.7.8-1.6 1.5-2.7 1.9-1.1.5-2.3.7-3.7.7-1.4 0-2.6-.2-3.7-.7-1.1-.5-2-1.1-2.7-1.9-.7-.8-1.3-1.8-1.7-2.9-.4-1.1-.6-2.4-.6-3.7v-.4zm4.9.3c0 .7.1 1.4.2 2.1.1.7.4 1.2.6 1.7.3.5.7.9 1.2 1.1.5.3 1.1.4 1.8.4s1.2-.1 1.7-.4c.5-.3.9-.7 1.2-1.1.3-.5.5-1 .7-1.7.1-.7.2-1.3.2-2.1v-.4c0-.7-.1-1.4-.2-2-.1-.6-.4-1.2-.7-1.7-.3-.5-.7-.9-1.2-1.2-.5-.3-1.1-.4-1.8-.4s-1.2.1-1.7.4c-.5.3-.9.7-1.2 1.2-.3.5-.5 1.1-.6 1.7-.1.6-.2 1.3-.2 2v.4zm31.8 0c0 1.4-.1 2.6-.4 3.8-.3 1.1-.7 2.1-1.3 2.9-.6.8-1.3 1.5-2.2 1.9-.9.5-1.9.7-3.1.7-1.1 0-2-.2-2.7-.6-.8-.4-1.4-1-2-1.7l-.2 1.9h-4.4V98.9h4.9v9.3c.5-.6 1.2-1.1 1.9-1.5.7-.3 1.6-.5 2.5-.5 1.2 0 2.2.2 3.1.7.9.5 1.6 1.1 2.2 1.9.6.8 1 1.8 1.3 2.9.3 1.1.4 2.4.4 3.7v.4zm-4.9-.4c0-.7-.1-1.4-.2-2-.1-.6-.3-1.2-.5-1.7-.3-.5-.6-.9-1.1-1.1-.4-.3-1-.4-1.7-.4-.8 0-1.5.2-2 .5s-.9.8-1.2 1.4v7.2c.3.6.7 1.1 1.2 1.4.5.3 1.2.5 2 .5.7 0 1.2-.1 1.7-.4.4-.3.8-.6 1.1-1.1.3-.5.4-1 .5-1.7.1-.7.2-1.4.2-2.1v-.5zm7.8-13.6c0-.7.2-1.3.7-1.8.5-.5 1.2-.7 2-.7.4 0 .8.1 1.1.2.3.1.6.3.9.5.2.2.4.5.5.8.1.3.2.6.2 1s-.1.7-.2 1c-.1.3-.3.6-.5.8-.2.2-.5.4-.9.5-.3.1-.7.2-1.1.2-.4 0-.8-.1-1.1-.2-.3-.1-.6-.3-.9-.5-.2-.2-.4-.5-.5-.8-.1-.3-.2-.6-.2-1zm5.2 22.9h-4.9v-18.2h4.9v18.2zm9.2 0h-4.9V98.9h4.9v25.8zm3.9-22.9c0-.7.2-1.3.7-1.8.5-.5 1.2-.7 2-.7.4 0 .8.1 1.1.2.3.1.6.3.9.5.2.2.4.5.5.8.1.3.2.6.2 1s-.1.7-.2 1c-.1.3-.3.6-.5.8-.2.2-.5.4-.9.5-.3.1-.7.2-1.1.2-.4 0-.8-.1-1.1-.2-.3-.1-.6-.3-.9-.5-.2-.2-.4-.5-.5-.8-.1-.3-.2-.6-.2-1zm5.2 22.9h-4.9v-18.2h4.9v18.2zm13.9-5c0-.3-.1-.5-.2-.7-.1-.2-.3-.4-.6-.6-.3-.2-.7-.4-1.1-.5-.5-.2-1.1-.3-1.9-.5-.9-.2-1.8-.5-2.6-.8-.8-.3-1.5-.7-2.1-1.1-.6-.4-1-1-1.4-1.6-.3-.6-.5-1.3-.5-2.1s.2-1.5.5-2.2c.3-.7.8-1.3 1.4-1.8.6-.5 1.4-.9 2.3-1.2.9-.3 1.9-.5 3.1-.5 1.2 0 2.2.1 3.2.4.9.3 1.7.7 2.4 1.2s1.2 1.1 1.5 1.9c.4.7.5 1.5.5 2.4h-4.9c0-.7-.2-1.3-.7-1.7-.4-.5-1.2-.7-2.1-.7-.8 0-1.5.2-1.9.6-.4.4-.7.8-.7 1.4 0 .3.1.5.2.7.1.2.3.4.6.6.3.2.6.3 1 .5.4.1 1 .3 1.6.4 1 .2 1.9.4 2.7.7.8.3 1.6.6 2.2 1.1.6.4 1.1 1 1.4 1.6.3.6.5 1.4.5 2.3 0 .8-.2 1.6-.5 2.2-.4.7-.9 1.3-1.5 1.8-.7.5-1.5.9-2.4 1.2-.9.3-2 .4-3.2.4-1.3 0-2.4-.2-3.4-.5-1-.4-1.8-.8-2.5-1.4-.7-.6-1.2-1.2-1.5-2-.3-.7-.5-1.5-.5-2.2h4.6c0 .5.1.9.3 1.2.2.3.4.6.7.8.3.2.7.4 1.1.5.4.1.8.2 1.3.2.9 0 1.6-.2 2.1-.5.7-.5 1-.9 1-1.5zm13.6-17.7v4.5h3.1v3.6h-3.1v9.1c0 .4 0 .7.1.9.1.2.2.4.4.6l.6.3c.2.1.5.1.8.1h.8c.2 0 .5-.1.6-.1v3.7c-.4.1-.8.2-1.3.3-.5.1-1 .1-1.6.1-.8 0-1.5-.1-2.2-.3s-1.2-.5-1.6-.9c-.5-.4-.8-1-1.1-1.7-.2-.7-.4-1.5-.4-2.5v-9.6h-2.7v-3.6h2.7V102h4.9zm5.8-.2c0-.7.2-1.3.7-1.8.5-.5 1.2-.7 2-.7.4 0 .8.1 1.1.2.3.1.6.3.9.5.2.2.4.5.5.8.1.3.2.6.2 1s-.1.7-.2 1c-.1.3-.3.6-.5.8-.2.2-.5.4-.9.5-.3.1-.7.2-1.1.2-.4 0-.8-.1-1.1-.2-.3-.1-.6-.3-.9-.5-.2-.2-.4-.5-.5-.8-.1-.3-.2-.6-.2-1zm5.2 22.9H158v-18.2h4.9v18.2zm11.6-3.6c.4 0 .9-.1 1.2-.2.4-.1.7-.3 1-.5.3-.2.5-.5.6-.8.2-.3.2-.7.2-1.1h4.6c0 1-.2 1.9-.6 2.7-.4.8-.9 1.5-1.6 2.1-.7.6-1.5 1-2.4 1.4-.9.3-1.9.5-3 .5-1.4 0-2.6-.2-3.7-.7-1.1-.5-1.9-1.1-2.6-2-.7-.8-1.2-1.8-1.6-2.9-.3-1.1-.5-2.3-.5-3.6v-.5c0-1.3.2-2.5.5-3.6s.9-2.1 1.6-2.9c.7-.8 1.6-1.5 2.6-2s2.3-.7 3.7-.7c1.1 0 2.1.2 3.1.5.9.3 1.7.8 2.4 1.4.7.6 1.2 1.4 1.5 2.2.4.9.6 1.9.6 3h-4.6c0-.4-.1-.8-.2-1.2-.1-.4-.3-.7-.6-1-.3-.3-.6-.5-1-.7-.4-.2-.8-.3-1.3-.3-.7 0-1.3.1-1.7.4-.4.3-.8.7-1.1 1.2-.3.5-.4 1.1-.5 1.7-.1.6-.1 1.3-.1 2v.5c0 .7 0 1.4.1 2 .1.6.3 1.2.5 1.7.3.5.6.9 1.1 1.2.5.1 1 .2 1.8.2zm20.2-1.4c0-.3-.1-.5-.2-.7-.1-.2-.3-.4-.6-.6-.3-.2-.7-.4-1.1-.5-.5-.2-1.1-.3-1.9-.5-.9-.2-1.8-.5-2.6-.8-.8-.3-1.5-.7-2.1-1.1-.6-.4-1-1-1.4-1.6-.3-.6-.5-1.3-.5-2.1s.2-1.5.5-2.2c.3-.7.8-1.3 1.4-1.8.6-.5 1.4-.9 2.3-1.2.9-.3 1.9-.5 3.1-.5 1.2 0 2.2.1 3.2.4.9.3 1.7.7 2.4 1.2s1.2 1.1 1.5 1.9c.4.7.5 1.5.5 2.4h-4.9c0-.7-.2-1.3-.7-1.7-.4-.5-1.2-.7-2.1-.7-.8 0-1.5.2-1.9.6-.4.4-.7.8-.7 1.4 0 .3.1.5.2.7.1.2.3.4.6.6.3.2.6.3 1 .5.4.1 1 .3 1.6.4 1 .2 1.9.4 2.7.7.8.3 1.6.6 2.2 1.1.6.4 1.1 1 1.4 1.6.3.6.5 1.4.5 2.3 0 .8-.2 1.6-.5 2.2-.4.7-.9 1.3-1.5 1.8-.7.5-1.5.9-2.4 1.2-.9.3-2 .4-3.2.4-1.3 0-2.4-.2-3.4-.5-1-.4-1.8-.8-2.5-1.4-.7-.6-1.2-1.2-1.5-2-.3-.7-.5-1.5-.5-2.2h4.6c0 .5.1.9.3 1.2.2.3.4.6.7.8.3.2.7.4 1.1.5.4.1.8.2 1.3.2.9 0 1.6-.2 2.1-.5.8-.5 1-.9 1-1.5zm11.3-19.2c0 2.3-1.8 4.1-4 4.1-2.3 0-4.1-1.8-4.1-4.1s1.8-4.1 4.1-4.1c2.2 0 4 1.8 4 4.1zm-7.4.1c0 2 1.5 3.6 3.4 3.6s3.4-1.6 3.4-3.6-1.5-3.6-3.4-3.6c-1.9-.1-3.4 1.5-3.4 3.6zm5-1.6c-.2-.1-.7-.3-1.3-.3-1.3 0-1.9.8-1.9 1.9 0 1 .7 1.9 1.9 1.9.5 0 1-.1 1.3-.3l.2.5c-.5.3-1.1.4-1.6.4-1.5 0-2.4-1.1-2.4-2.4 0-1.5 1.2-2.5 2.5-2.5.7 0 1.3.2 1.5.4l-.2.4z" fill="#3c3c3b"/></g></svg>