<svg clip-rule="evenodd" fill-rule="evenodd" stroke-linecap="round" stroke-linejoin="round" viewBox="0 0 116 25" xmlns="http://www.w3.org/2000/svg"><g transform="translate(-11.5623 -11.1242)"><path d="m14.048 32.728v-19.065l19.062 19.065v-19.065" fill="none" stroke="#495057" stroke-width="5"/><path d="m44.688 11.188-.688 1.281-5.312 9.656-.688 1.219.688 1.219 5.312 9.343.719 1.282h13.906l.688-1.407 3.968-8 1.782-3.625h-4.032l-10.156.032c-1.321-.019-2.536 1.179-2.536 2.5 0 1.32 1.215 2.518 2.536 2.5l6.125-.032-1.5 3.032h-7.875l-3.906-6.875 3.937-7.125h8.377l1.954 4.007h5.031l-3.172-7.601-.688-1.406z" fill="#495057" fill-rule="nonzero"/><path d="m70.014 11.156c-1.309.017-2.485 1.223-2.469 2.532v6.514h5v-6.514c.017-1.33-1.201-2.548-2.531-2.532z" fill="#495057" fill-rule="nonzero"/><path d="m14.048 32.728v-19.065l19.062 19.065v-19.065" fill="none" stroke="#495057" stroke-width="5" transform="matrix(-1 0 0 1 111.139 .048416)"/><g fill="none" stroke="#495057" stroke-width="5" transform="translate(.105863 .330102)"><path d="m104.909 13.374 19.085 19.018"/><path d="m104.909 13.374 19.085 19.018" transform="matrix(-1 0 0 1 228.926 0)"/></g><path d="m70.014 35.204c-1.309-.016-2.485-1.222-2.469-2.531v-10.465h5v10.465c.017 1.33-1.201 2.548-2.531 2.531z" fill="#495057" fill-rule="nonzero"/></g></svg>