<?xml version="1.0" encoding="UTF-8" standalone="no"?>
<!-- Generator: Adobe Illustrator 25.3.1, SVG Export Plug-In . SVG Version: 6.00 Build 0)  -->

<svg
   version="1.1"
   id="Layer_1"
   x="0px"
   y="0px"
   viewBox="0 0 566.9 566.9"
   style="enable-background:new 0 0 566.9 566.9;"
   xml:space="preserve"
   sodipodi:docname="optasy-square.svg"
   inkscape:version="1.3 (0e150ed, 2023-07-21)"
   xmlns:inkscape="http://www.inkscape.org/namespaces/inkscape"
   xmlns:sodipodi="http://sodipodi.sourceforge.net/DTD/sodipodi-0.dtd"
   xmlns="http://www.w3.org/2000/svg"
   xmlns:svg="http://www.w3.org/2000/svg"><defs
   id="defs4" /><sodipodi:namedview
   id="namedview4"
   pagecolor="#505050"
   bordercolor="#ffffff"
   borderopacity="1"
   inkscape:showpageshadow="0"
   inkscape:pageopacity="0"
   inkscape:pagecheckerboard="1"
   inkscape:deskcolor="#505050"
   inkscape:zoom="0.40553617"
   inkscape:cx="339.0573"
   inkscape:cy="276.17758"
   inkscape:window-width="1312"
   inkscape:window-height="449"
   inkscape:window-x="476"
   inkscape:window-y="40"
   inkscape:window-maximized="0"
   inkscape:current-layer="Layer_1" />&#10;<style
   type="text/css"
   id="style1">&#10;	.st0{fill:#FFFFFF;}&#10;</style>&#10;&#10;<g
   id="g6"
   transform="matrix(0.73333251,0,0,1,519.86806,247.1974)">  <linearGradient
   id="SVGID_1_"
   gradientUnits="userSpaceOnUse"
   x1="16.1777"
   y1="50.178699"
   x2="16.1777"
   y2="9.8218002"
   gradientTransform="matrix(17.609587,0,0,12.486789,-607.76718,-347.06952)"> <stop
   offset="0"
   style="stop-color:#6B4795"
   id="stop1" /> <stop
   offset="0.0384"
   style="stop-color:#654D99"
   id="stop2" /> <stop
   offset="0.3296"
   style="stop-color:#3E73B7"
   id="stop3" /> <stop
   offset="0.5966"
   style="stop-color:#218ECD"
   id="stop4" /> <stop
   offset="0.8288"
   style="stop-color:#109FDA"
   id="stop5" /> <stop
   offset="1"
   style="stop-color:#0AA5DF"
   id="stop6" /> </linearGradient> <path
   fill="url(#SVGID_1_)"
   d="m -317.31466,-220.05391 -5.56463,-4.38286 -5.54702,4.38286 c -6.12813,4.81992 -96.65901,76.70635 -165.7062,161.291844 l 171.27083,-89.455344 c 74.11874,66.167479 180.1989,176.987726 180.1989,250.68475 0,70.47545 -80.82801,127.77731 -180.1989,127.77731 -99.37089,0 -180.1989,-57.31435 -180.1989,-127.77731 0,-70.462938 80.84562,-127.777303 180.1989,-127.777303 19.17683,0 34.7261,-11.025835 34.7261,-24.636429 0,-13.598109 -15.54927,-24.623944 -34.7261,-24.623944 -137.90068,0 -249.68632,79.2661349 -249.68632,177.037676 0,97.77156 111.78564,177.0377 249.66871,177.0377 137.67175,0 249.668701,-79.41599 249.668701,-177.0377 -0.01769,-128.876141 -234.137051,-314.67954 -244.104071,-322.52125 z"
   id="path6"
   style="fill:url(#SVGID_1_);stroke-width:14.8286" /></g></svg>
