<?xml version="1.0" encoding="UTF-8" standalone="no"?>
<!-- Created with Inkscape (http://www.inkscape.org/) -->

<svg
   version="1.1"
   id="svg2"
   width="1333.3333"
   height="1333.3333"
   viewBox="0 0 1333.3333 1333.3333"
   sodipodi:docname="OPTASY_new_logo (1).ai"
   xmlns:inkscape="http://www.inkscape.org/namespaces/inkscape"
   xmlns:sodipodi="http://sodipodi.sourceforge.net/DTD/sodipodi-0.dtd"
   xmlns="http://www.w3.org/2000/svg"
   xmlns:svg="http://www.w3.org/2000/svg">
  <defs
     id="defs6">
    <clipPath
       clipPathUnits="userSpaceOnUse"
       id="clipPath16">
      <path
         d="M 0,1000 H 1000 V 0 H 0 Z"
         id="path14" />
    </clipPath>
    <linearGradient
       x1="0"
       y1="0"
       x2="1"
       y2="0"
       gradientUnits="userSpaceOnUse"
       gradientTransform="matrix(0,92.088867,92.088867,0,354.36914,453.95508)"
       spreadMethod="pad"
       id="linearGradient40">
      <stop
         style="stop-opacity:1;stop-color:#6243a4"
         offset="0"
         id="stop34" />
      <stop
         style="stop-opacity:1;stop-color:#47abe4"
         offset="0.63924314"
         id="stop36" />
      <stop
         style="stop-opacity:1;stop-color:#47abe4"
         offset="1"
         id="stop38" />
    </linearGradient>
  </defs>
  <sodipodi:namedview
     id="namedview4"
     pagecolor="#ffffff"
     bordercolor="#000000"
     borderopacity="0.25"
     inkscape:showpageshadow="2"
     inkscape:pageopacity="0.0"
     inkscape:pagecheckerboard="0"
     inkscape:deskcolor="#d1d1d1" />
  <g
     id="g8"
     inkscape:groupmode="layer"
     inkscape:label="OPTASY_new_logo (1)"
     transform="matrix(1.3333333,0,0,-1.3333333,0,1333.3333)">
    <g
       id="g10">
      <g
         id="g12"
         clip-path="url(#clipPath16)">
        <g
           id="g18"
           transform="translate(677.3457,511.1528)">
          <path
             d="M 0,0 C 1.186,1.818 0.664,4.266 -1.153,5.531 -2.971,6.715 -5.468,6.24 -6.652,4.424 l -18.007,-26.94 -17.924,26.94 C -43.769,6.24 -46.198,6.715 -48.016,5.531 -49.833,4.266 -50.269,1.818 -49.084,0 l 20.617,-30.813 v -21.17 c 0,-2.133 1.841,-3.949 3.974,-3.949 2.213,0 3.973,1.816 3.973,3.949 v 21.17 L 0,0 m -80.371,-57.198 c 5.212,0 19.116,2.449 21.488,14.221 1.579,7.898 -0.633,17.223 -17.539,21.33 -13.193,3.238 -18.961,5.215 -18.961,11.85 0,7.19 7.032,9.559 13.195,9.559 2.607,0 5.292,-0.076 7.741,-1.026 2.923,-1.105 5.293,-2.765 6.875,-4.502 0.393,-0.316 0.71,-0.713 1.104,-0.949 1.422,-0.789 3.161,-0.238 4.108,0.949 0.869,1.026 1.185,2.45 0.712,3.713 -1.027,3 -4.425,5.846 -8.771,7.504 -3.396,1.344 -7.662,2.055 -11.769,2.055 -5.452,0 -14.774,-1.108 -19.593,-10.744 -1.579,-3.241 -2.056,-10.112 0.552,-14.458 2.133,-3.635 5.924,-5.926 9.717,-7.426 3.556,-1.503 7.347,-2.451 11.141,-3.242 5.686,-1.183 12.403,-3.16 14.22,-8.531 0.631,-1.816 0.473,-3.869 -0.237,-5.689 -1.423,-3.631 -4.977,-5.528 -8.691,-6.319 -3.002,-0.633 -6.715,-0.711 -10.35,-0.158 -4.265,0.711 -8.69,2.213 -11.533,5.689 -0.475,0.631 -0.948,1.342 -1.659,1.737 -2.844,1.424 -5.768,-2.055 -4.819,-4.819 0.947,-2.687 3.239,-5.136 6.714,-6.953 2.765,-1.58 6.32,-2.685 10.113,-3.316 2.053,-0.319 4.186,-0.475 6.242,-0.475 m -49.738,23.701 c -4.346,0.395 -8.692,0.235 -12.957,-0.711 -4.425,-0.871 -9.955,-3.001 -14.142,-5.373 l 15.169,32.313 z m 14.299,-22.123 c 1.975,0.948 2.844,3.243 1.975,5.293 l -24.571,54.198 c -0.552,1.344 -2.052,2.293 -3.555,2.293 -1.579,0 -2.922,-0.871 -3.633,-2.293 l -24.964,-54.198 c -0.79,-1.816 -1.028,-4.027 0.71,-5.132 1.66,-1.03 3.634,-0.553 5.136,0.947 3.002,2.922 7.109,6.162 11.06,8.611 3.871,2.369 7.822,3.871 11.85,4.662 4.978,1.106 10.112,1.028 15.247,-0.238 l 5.451,-12.166 c 1.107,-2.135 3.476,-2.766 5.294,-1.977 m -54.265,57.804 c 0,2.211 -1.739,3.972 -3.949,3.972 h -42.583 c -2.213,0 -3.95,-1.761 -3.95,-3.972 0,-2.213 1.737,-3.975 3.95,-3.975 h 17.259 v -50.192 c 0,-2.213 1.763,-3.949 3.974,-3.949 2.134,0 3.975,1.736 3.975,3.949 v 50.192 h 17.375 c 2.21,0 3.949,1.762 3.949,3.975 m -101.371,-58.116 c -2.133,0 -3.974,1.736 -3.974,3.949 V 2.211 c 0,2.213 1.586,3.945 3.719,3.945 h 23.464 c 0.316,0 2.211,0.004 4.661,-0.629 3.476,-0.869 6.556,-2.605 8.926,-4.896 1.739,-1.738 3.161,-3.871 4.108,-6.319 1.029,-2.687 1.582,-5.767 1.582,-9.166 0,-7.504 -3.162,-13.191 -9.086,-16.59 -4.267,-2.449 -9.954,-3.635 -16.986,-3.635 -2.133,0 -3.95,1.741 -3.95,3.95 0,2.214 1.817,3.951 3.95,3.951 5.61,0 10.034,0.871 13.035,2.607 3.477,1.977 5.136,5.057 5.136,9.717 0,3.163 -0.633,5.768 -1.738,7.745 -0.869,1.58 -2.133,2.738 -3.634,3.607 -2.845,1.658 -5.767,1.711 -6.004,1.711 h -19.235 v -50.192 c 0,-2.213 -1.762,-3.949 -3.974,-3.949"
             style="fill:#2d2e2e;fill-opacity:1;fill-rule:nonzero;stroke:none"
             id="path20" />
        </g>
      </g>
    </g>
    <g
       id="g22">
      <g
         id="g24">
        <g
           id="g30">
          <g
             id="g32">
            <path
               d="m 353.649,545.243 c -0.793,-0.879 -12.525,-14.016 -21.472,-29.473 v 0 l 22.192,16.347 c 9.604,-12.09 23.351,-32.342 23.351,-45.81 v 0 c 0,-12.877 -10.475,-23.351 -23.35,-23.351 v 0 c -12.877,0 -23.352,10.474 -23.352,23.351 v 0 c 0,12.875 10.475,23.35 23.351,23.35 v 0 c 2.485,0 4.5,2.015 4.5,4.5 v 0 c 0,2.486 -2.015,4.5 -4.5,4.5 v 0 c -17.866,0 -32.351,-14.483 -32.351,-32.35 v 0 c 0,-17.868 14.485,-32.351 32.351,-32.351 v 0 c 17.839,0 32.351,14.513 32.351,32.351 v 0 c 0,23.55 -30.338,57.503 -31.63,58.936 v 0 l -0.72,0.801 z"
               style="fill:url(#linearGradient40);stroke:none"
               id="path42" />
          </g>
        </g>
      </g>
    </g>
  </g>
</svg>
