<?xml version="1.0" encoding="utf-8"?>
<!-- Generator: Adobe Illustrator 22.1.0, SVG Export Plug-In . SVG Version: 6.00 Build 0)  -->
<svg version="1.1" id="Livello_1" xmlns="http://www.w3.org/2000/svg" xmlns:xlink="http://www.w3.org/1999/xlink" x="0px" y="0px"
	 viewBox="0 0 841.9 595.3" style="enable-background:new 0 0 841.9 595.3;" xml:space="preserve">
<style type="text/css">
	.st0{fill:#1D1E1C;}
</style>
<g>
	<path class="st0" d="M314.7,208.5c0-5,1-9.5,3-13.4c2-3.9,4.8-6.9,8.4-9c3.7-2.1,7.9-3.1,12.9-3.1c7.5,0,13.4,2.4,17.7,7
		c4.3,4.7,6.5,11,6.4,19l0,0.6c0,7.8-2.2,14-6.6,18.6c-4.4,4.6-10.2,6.9-17.7,6.8c-7.1,0-12.9-2.2-17.2-6.5
		c-4.3-4.3-6.6-10.1-7-17.4L314.7,208.5z M330.3,209.5c0,4.6,0.7,8,2.2,10.2c1.4,2.2,3.6,3.3,6.4,3.3c5.6,0,8.4-4.3,8.6-12.8l0-1.6
		c0-9-2.8-13.5-8.6-13.5c-5.2,0-8.1,3.9-8.5,11.6L330.3,209.5z"/>
	<path class="st0" d="M415.1,209.6c0,7.8-1.8,14-5.3,18.7c-3.5,4.6-8.3,7-14.2,6.9c-4.6,0-8.4-1.7-11.3-5.1l-0.1,20.4
		c0,1.7-1.3,3-3,3l-9.6,0c-1.7,0-3-1.3-3-3l0.2-63.6c0-1.6,1.3-2.9,2.9-2.9l7,0c2.6,0,4.9,2,5.1,4.7l0,0c3-3.7,7-5.5,11.8-5.5
		c6.2,0,11,2.3,14.4,6.9c3.4,4.6,5.1,10.8,5.1,18.8L415.1,209.6z M399.4,208.6c0-8.9-2.6-13.4-7.8-13.4c-3.7,0-6.2,1.3-7.4,4
		l-0.1,19.8c1.4,2.8,3.9,4.2,7.5,4.2c5,0,7.6-4.3,7.7-12.9L399.4,208.6z"/>
	<path class="st0" d="M446.7,235.4c-7.7,0-13.9-2.3-18.7-6.9c-4.7-4.6-7.1-10.6-7.1-17.9l0-1.3c0-5.1,1-9.7,2.9-13.6
		c1.9-3.9,4.7-7,8.4-9.1c3.6-2.1,8-3.2,13-3.2c7,0,12.6,2.2,16.7,6.6c4.1,4.4,6.1,10.5,6.1,18.3l0,2.7c0,1.9-1.5,3.3-3.4,3.3
		l-27.7-0.1c0.6,2.8,1.8,5,3.6,6.6c1.9,1.6,4.3,2.4,7.3,2.4c4.1,0,7.4-1.1,10-3.5c1-0.8,2.4-0.8,3.2,0.2l3.1,3.7
		c1.5,1.8,1.3,4.4-0.5,5.9c-1.5,1.3-3.3,2.4-5.4,3.3C454.7,234.6,450.8,235.4,446.7,235.4z M445.1,195.4c-4.6,0-7.3,3-8.2,9.1
		l15.8,0l0-1.2c0.1-2.5-0.6-4.4-1.9-5.8C449.5,196.1,447.6,195.4,445.1,195.4z"/>
	<path class="st0" d="M488.7,190l0,0.3c3.5-4.5,8.3-6.8,14.3-6.8c5.2,0,9.1,1.6,11.7,4.7c2.6,3.1,3.9,7.8,4,14.1l-0.1,29.3
		c0,1.6-1.3,3-3,3l-9.7,0c-1.6,0-3-1.3-3-3l0.1-28.7c0-2.5-0.5-4.4-1.5-5.6c-1-1.2-2.9-1.8-5.6-1.8c-3.1,0-5.3,1.2-6.8,3.6
		l-0.1,32.5c0,1.6-1.3,3-3,3l-9.7,0c-1.6,0-3-1.3-3-3l0.1-44.2c0-1.6,1.3-3,3-3l6,0C485.7,184.4,488.4,186.8,488.7,190z"/>
	<path class="st0" d="M342.7,310.1c0-1.3-0.7-2.4-2.1-3.2c-1.4-0.8-4-1.6-7.9-2.5s-7.1-2-9.6-3.4c-2.5-1.4-4.5-3.1-5.8-5.1
		c-1.3-2-2-4.3-2-6.9c0-4.6,1.9-8.4,5.7-11.4c3.8-3,8.8-4.5,14.9-4.4c6.6,0,11.9,1.5,15.9,4.5c3.1,2.3,4.9,5.1,5.7,8.5
		c0.4,1.7-0.9,3.3-2.7,3.3l-10.1,0c-1.3,0-2.4-0.8-2.7-2.1c-0.6-2.7-2.7-4-6.1-4c-1.6,0-3,0.4-4.1,1.4c-1.1,0.9-1.7,2-1.7,3.4
		c0,1.4,0.7,2.5,2,3.4c1.4,0.9,3.5,1.6,6.5,2.1s5.6,1.2,7.9,2c7.5,2.6,11.3,7.3,11.3,14c0,4.6-2.1,8.3-6.1,11.2
		c-4.1,2.9-9.3,4.3-15.8,4.3c-4.3,0-8.1-0.8-11.5-2.3c-3.4-1.6-6-3.7-7.9-6.3c-1.1-1.6-1.9-3.3-2.4-5c-0.4-1.7,0.9-3.4,2.7-3.4
		l9.2,0c1.3,0,2.3,0.9,2.6,2.1c0.4,1.3,1,2.3,2,3c1.5,1.1,3.4,1.6,5.7,1.6c2.1,0,3.7-0.4,4.8-1.3
		C342.1,312.6,342.7,311.5,342.7,310.1z"/>
	<path class="st0" d="M384,264.7l0,9.4l6.3,0c1.1,0,2,0.9,2,2l0,6.9c0,1.1-0.9,2-2,2l-6.3,0l-0.1,23c0,1.9,0.3,3.2,1,3.9
		c0.7,0.7,2,1.1,4,1.1c1.5,0,2.8-0.1,3.9-0.3l0,11.2c-2.8,0.9-5.8,1.3-8.8,1.3c-5.4,0-9.4-1.3-11.9-3.8c-2.6-2.5-3.8-6.4-3.8-11.6
		l0.1-24.9l-4.4,0c-1.1,0-2-0.9-2-2l0-6.9c0-1.1,0.9-2,2-2l4.4,0l0-9.4c0-1.7,1.4-3.1,3.1-3.1l9.4,0C382.6,261.6,384,263,384,264.7z
		"/>
	<path class="st0" d="M426,288.2l-3-0.2c-4.9,0-8.1,1.5-9.5,4.6l-0.1,28.7c0,1.7-1.4,3-3,3l-9.6,0c-1.7,0-3-1.4-3-3l0.1-44.1
		c0-1.7,1.4-3.1,3.1-3.1l8.2,0c1.9,0,3.5,1.5,3.6,3.4l0.2,3.1c2.6-4.9,6.3-7.4,11-7.3c0.9,0,1.8,0.1,2.5,0.2c1,0.1,1.8,1,1.8,2.1
		l-0.2,10.7C428.2,287.4,427.2,288.3,426,288.2z"/>
	<path class="st0" d="M460.1,324.5c-0.6-1-1-2.5-1.5-4.5c-2.9,3.6-6.9,5.4-12.1,5.4c-4.7,0-8.7-1.5-12-4.3
		c-3.3-2.9-4.9-6.5-4.9-10.8c0-5.4,2-9.5,6.1-12.3c4-2.8,9.9-4.1,17.5-4.1l4.8,0l0-2.7c0-4.6-2-7-6-7c-3,0-4.8,1.2-5.4,3.6
		c-0.3,1.1-1.2,1.8-2.3,1.8l-11,0c-1.4,0-2.6-1.3-2.3-2.7c0.7-3.6,2.6-6.6,6-9.1c4.1-3,9.4-4.5,15.8-4.5c6.4,0,11.5,1.6,15.2,4.7
		c3.7,3.1,5.6,7.4,5.7,12.9l-0.1,22.2c0,4.6,0.8,8.1,2.1,10.6l0,0.8L460.1,324.5z M450.3,314.3c1.9,0,3.6-0.4,4.8-1.2
		c1.3-0.8,2.2-1.8,2.8-2.8l0-8l-4.5,0c-5.4,0-8.2,2.4-8.2,7.3c0,1.4,0.5,2.6,1.4,3.5C447.6,313.8,448.9,314.3,450.3,314.3z"/>
	<path class="st0" d="M500.1,264.2l0,10.2l6,0c1.3,0,2.3,1,2.3,2.3l0,6.3c0,1.3-1,2.3-2.3,2.3l-6,0l-0.1,23c0,1.9,0.3,3.2,1,3.9
		c0.7,0.7,2,1.1,4,1.1c1.5,0,2.8-0.1,3.9-0.3l0,11.2c-2.8,0.9-5.8,1.3-8.8,1.3c-5.4,0-9.3-1.3-11.9-3.8c-2.6-2.5-3.8-6.4-3.8-11.6
		l0.1-24.9l-4.1,0c-1.3,0-2.3-1-2.3-2.3l0-6.3c0-1.3,1-2.3,2.3-2.3l4.1,0l0-10.2c0-1.3,1-2.3,2.3-2.3l11.1,0
		C499.1,261.9,500.1,263,500.1,264.2z"/>
	<path class="st0" d="M538.2,325.6c-7.7,0-13.9-2.3-18.7-6.9c-4.7-4.6-7.1-10.6-7.1-17.9l0-1.3c0-5.1,1-9.7,2.9-13.6
		c1.9-3.9,4.7-7,8.3-9.1c3.7-2.1,8-3.2,13-3.2c7,0,12.6,2.2,16.7,6.6c4.1,4.4,6.1,10.5,6.1,18.3l0,2.8c0,1.8-1.5,3.3-3.3,3.3
		l-27.8-0.1c0.5,2.8,1.8,5,3.6,6.6c1.9,1.6,4.3,2.4,7.3,2.4c3.9,0,7.1-1.1,9.7-3.2c1.2-1,2.9-0.9,3.8,0.3l3.8,4.5
		c0.9,1.1,0.8,2.6-0.2,3.6c-1.8,1.8-4,3.3-6.7,4.5C546.1,324.9,542.3,325.6,538.2,325.6z M536.5,285.6c-4.6,0-7.3,3-8.2,9.1l15.8,0
		l0-1.2c0.1-2.5-0.6-4.4-1.9-5.8C540.9,286.3,539,285.7,536.5,285.6z"/>
	<path class="st0" d="M563.4,299.3c0-5.1,0.9-9.6,2.5-13.4c1.7-3.9,4.1-6.9,7.2-9c3.1-2.1,6.8-3.2,10.9-3.1c5.2,0,9.3,1.8,12.2,5.3
		l0.1-0.4c0.3-2.3,2.2-3.9,4.5-3.9l4.8,0c3,0,5.4,2.5,5.4,5.5l-0.1,42.8c0,4.4-1.1,8.3-3.1,11.5c-2.1,3.3-5,5.8-8.9,7.5
		c-3.9,1.7-8.4,2.6-13.6,2.6c-3.7,0-7.2-0.7-10.7-2.1c-2.6-1-4.7-2.3-6.4-3.8c-0.9-0.8-1.1-2.2-0.4-3.3l3.7-5.2
		c0.8-1.2,2.5-1.4,3.5-0.4c2.6,2.2,5.8,3.3,9.6,3.3c6.9,0,10.4-3.5,10.4-10.6l0-1.6c-3,3.3-6.8,4.9-11.4,4.9
		c-6.1,0-11.1-2.4-14.8-7.1c-3.8-4.7-5.6-11-5.6-18.8L563.4,299.3z M579,300.3c0,4.1,0.8,7.4,2.3,9.8c1.5,2.4,3.7,3.6,6.5,3.6
		c2.3,0,4.2-0.5,5.6-1.6c1.1-0.8,1.8-2.2,1.8-3.6l0-16.8c0-2.4-1.4-4.6-3.6-5.4c-1.1-0.4-2.3-0.6-3.7-0.6c-2.8,0-5,1.2-6.5,3.7
		C579.9,292,579.1,295.6,579,300.3z"/>
	<path class="st0" d="M639.4,303.1l8-26.9c0.2-0.8,1-1.3,1.8-1.3l12.7,0c1.3,0,2.2,1.3,1.8,2.5l-19.7,56l-0.9,2.1
		c-2.9,6.5-8.1,9.7-15.4,9.7c-1.5,0-3.1-0.2-4.8-0.5c-1-0.2-1.6-1-1.6-2l0-7.5c0-1.1,0.9-2,2-2l0,0c2.2,0,3.9-0.3,5-0.9
		c1.2-0.6,2-1.8,2.6-3.4l0.2-0.6c0.7-1.8,0.7-3.7,0.1-5.5l-15.5-45.5c-0.4-1.2,0.5-2.5,1.8-2.5l12.6,0c0.8,0,1.6,0.6,1.8,1.4
		L639.4,303.1z"/>
	<path class="st0" d="M330.6,394.7c-2.3-0.1-4.5-0.6-6.6-1.5c-2.1-0.9-3.7-2.4-5-4.4l-3.8,20.8l-4.4,0l9.9-56.4l4.1,0l-1.1,5.8
		c3.6-4.5,8-6.6,13.3-6.5c3.8,0.1,6.8,1.5,8.9,4.3c2.1,2.7,3.2,6.6,3.3,11.6c0,1.6-0.1,3.1-0.2,4.6l-0.2,1.1
		c-0.6,4.4-1.8,8.2-3.6,11.4c-1.7,3.2-3.9,5.6-6.3,7.1C336.5,394,333.7,394.8,330.6,394.7z M344.5,372.9l0.2-3.6
		c0.1-4-0.6-7.2-2.2-9.4c-1.5-2.3-3.8-3.5-6.8-3.6c-2.6-0.1-5,0.6-7.2,1.9c-2.1,1.3-4,3.3-5.5,5.8l-3.4,19.6
		c0.8,2.3,2.1,4.1,3.8,5.3c1.7,1.2,3.8,1.9,6.3,1.9c3.6,0.1,6.7-1.2,9.3-4.1c2.5-2.8,4.2-6.8,5.1-11.9L344.5,372.9z"/>
	<path class="st0" d="M380.3,394c-0.1-1-0.2-1.9-0.1-2.9l0.3-2.8c-1.9,2-4,3.6-6.5,4.8c-2.4,1.1-5,1.7-7.9,1.6
		c-3.4-0.1-6.2-1.2-8.4-3.3c-2.1-2.1-3.1-4.8-2.9-8c0.2-2.7,1.1-5,2.8-7c1.7-2,4-3.5,7-4.6c3-1.1,6.4-1.6,10.2-1.6l8.3,0.1l0.7-4.7
		c0.3-2.8-0.3-5-1.8-6.7c-1.5-1.7-3.7-2.6-6.7-2.7c-3-0.1-5.5,0.7-7.7,2.2c-2.2,1.5-3.6,3.5-4.1,6l-4.4,0c0.5-3.6,2.4-6.5,5.5-8.7
		c3.2-2.2,6.9-3.3,11.2-3.3c4.2,0.1,7.4,1.4,9.7,3.8c2.3,2.4,3.2,5.6,2.7,9.5l-3.4,20.5l-0.3,3.3c-0.1,1.4,0,2.7,0.3,4l-0.1,0.5
		L380.3,394z M367,390.8c2.8,0.1,5.4-0.5,7.9-2c2.5-1.4,4.6-3.4,6.3-6l1.6-9l-7.2-0.1c-4.6,0-8.3,0.8-11.2,2.4
		c-2.9,1.6-4.5,3.9-4.8,6.9c-0.2,2.2,0.3,4,1.7,5.5C362.7,390,364.6,390.8,367,390.8z"/>
	<path class="st0" d="M420,357.2c-1-0.2-2-0.3-3-0.3c-2.9,0-5.5,0.9-7.9,2.6c-2.4,1.7-4,4-4.8,6.6l-4.9,28l-4.4,0l7.2-40.7l4.4,0
		l-1.4,6.5c1.5-2.4,3.3-4.2,5.4-5.5c2.1-1.2,4.4-1.8,6.9-1.8c0.9,0,1.9,0.2,3.1,0.5L420,357.2z"/>
	<path class="st0" d="M437.9,343l-1.8,10.4l8.2,0l-0.7,3.7l-8.2,0l-4.6,27.2l-0.1,2.3c0,2.7,1.2,4.1,3.8,4.2c0.8,0,2-0.1,3.7-0.3
		l-0.2,3.7c-1.5,0.4-3,0.6-4.5,0.6c-2.6-0.1-4.6-1-5.8-2.8c-1.2-1.8-1.6-4.4-1.3-7.8l4.6-27.1l-7.3,0l0.7-3.7l7.2,0l1.9-10.4
		L437.9,343z"/>
	<path class="st0" d="M457.5,353.5l-1.4,7c1.8-2.5,3.9-4.4,6.3-5.8c2.4-1.3,4.9-2,7.6-1.9c3.9,0.1,6.8,1.5,8.5,4.1
		c1.8,2.6,2.4,6.3,1.9,10.9l-4.5,26.5l-4.4,0l4.5-26.5c0.2-1.4,0.2-2.8,0.1-4.1c-0.4-4.5-2.8-6.8-7.3-6.9c-2.6-0.1-5.1,0.7-7.4,2.3
		c-2.3,1.6-4.3,4-6,7.3l-4.9,27.9l-4.4,0l7.2-40.7L457.5,353.5z"/>
	<path class="st0" d="M503.3,395.1c-3.3-0.1-6.1-1-8.5-2.8c-2.4-1.8-4.1-4.2-5.2-7.2c-1.1-3.1-1.5-6.3-1.2-9.9l0.1-1.3
		c0.4-3.8,1.5-7.3,3.4-10.7c1.9-3.4,4.3-6,7.2-7.8c2.9-1.8,6-2.6,9.3-2.6c3,0.1,5.6,0.9,7.7,2.5c2.1,1.6,3.6,3.8,4.6,6.7
		c0.9,2.9,1.2,6,0.9,9.5l-0.3,2.7l-28.2-0.1l-0.1,0.9c-0.4,2.7-0.2,5.4,0.6,7.9c0.8,2.5,2,4.5,3.8,6c1.8,1.5,3.9,2.2,6.4,2.3
		c2.4,0.1,4.6-0.4,6.5-1.4c1.9-1,3.7-2.3,5.4-4l2.6,2.2c-1.8,2.4-4,4.1-6.5,5.3C509,394.6,506.3,395.2,503.3,395.1z M508.1,356.7
		c-3.3-0.1-6.2,1-8.8,3.4c-2.6,2.4-4.5,5.8-5.9,10.3l23.6,0.1l0.1-0.6c0.5-3.6-0.2-6.6-1.9-9.2C513.7,358.2,511.2,356.8,508.1,356.7
		z"/>
	<path class="st0" d="M550.7,357.5c-1-0.2-2-0.3-3-0.3c-2.9,0-5.5,0.9-7.9,2.6c-2.4,1.7-4,4-4.8,6.6l-4.9,28l-4.4,0l7.2-40.7l4.4,0
		l-1.4,6.5c1.5-2.4,3.3-4.2,5.4-5.5c2.1-1.2,4.4-1.8,6.9-1.8c0.9,0,1.9,0.2,3.1,0.5L550.7,357.5z"/>
	<path class="st0" d="M576.6,383.9c0.4-3.5-1.7-6-6.3-7.5l-6.5-1.9c-5.9-2-8.7-5.4-8.4-10.1c0.2-3.4,1.8-6.1,4.7-8.3
		c3-2.1,6.5-3.1,10.5-3.1c4,0.1,7.2,1.2,9.7,3.4c2.5,2.2,3.6,5.1,3.4,8.8l-4.4,0c0.2-2.4-0.6-4.4-2.3-6c-1.7-1.5-3.9-2.3-6.6-2.4
		c-2.9,0-5.3,0.7-7.2,2c-2,1.3-3.1,3.1-3.3,5.3c-0.4,3.2,1.6,5.5,5.9,6.8l4.7,1.4l2.5,0.9c5.7,2.1,8.3,5.6,8,10.4
		c-0.2,3.3-1.6,5.9-4.3,8c-2.6,2.1-6,3.3-10.2,3.5l-1.5,0c-2.7-0.1-5.2-0.6-7.4-1.6c-2.2-1-3.9-2.5-5.1-4.3
		c-1.2-1.8-1.7-3.9-1.5-6.3l4.5,0c0,2.6,0.9,4.6,2.6,6.1c1.7,1.5,4.1,2.3,7.1,2.3c3,0,5.6-0.7,7.7-2
		C575.1,388.1,576.3,386.2,576.6,383.9z"/>
	<g>
		<path class="st0" d="M280.2,409.4c0,18.3,14.8,33.1,33.1,33l17.4,0.1l0,50.8l-27.4,0c-40.8,0-73.8-33-73.9-73.8l0-29.6l50.8,0
			L280.2,409.4z"/>
		<path class="st0" d="M229.3,357.5c0-18.3-14.8-33.1-33.1-33l-17.4-0.1l0-50.8l27.4,0c40.8,0,73.8,33,73.9,73.8l0,29.6l-50.8,0
			L229.3,357.5z"/>
		<path class="st0" d="M280.2,188.4c0-18.3,14.8-33.1,33.1-33l17.4-0.1l0-50.8l-27.4,0c-40.8,0-73.8,33-73.9,73.8l0,29.6l50.8,0
			L280.2,188.4z"/>
		<path class="st0" d="M269.5,288.5c6.7-11.1,10.5-24.1,10.5-38l0-29.6l-50.8,0l0,19.5c0,8.3-3.1,16-8.2,21.8
			C240,265.5,256.9,275,269.5,288.5z"/>
	</g>
</g>
</svg>
