<?xml version="1.0" encoding="utf-8"?>
<!-- Generator: Adobe Illustrator 22.1.0, SVG Export Plug-In . SVG Version: 6.00 Build 0)  -->
<svg version="1.1" id="Livello_1" xmlns="http://www.w3.org/2000/svg" xmlns:xlink="http://www.w3.org/1999/xlink" x="0px" y="0px"
	 viewBox="0 0 841.9 595.3" style="enable-background:new 0 0 841.9 595.3;" xml:space="preserve">
<style type="text/css">
	.st0{fill:#1D1D1B;}
</style>
<g>
	<g>
		<path class="st0" d="M255.7,297.7c0-14.9,3-28.2,8.8-39.9c5.8-11.6,14.2-20.6,25.1-26.8c10.9-6.2,23.7-9.3,38.3-9.3
			c22.4,0.1,40,7,52.9,20.9c12.9,13.9,19.3,32.8,19.2,56.7l0,1.7c-0.1,23.3-6.6,41.8-19.6,55.4c-13,13.7-30.5,20.4-52.7,20.4
			c-21.3-0.1-38.4-6.5-51.2-19.3c-12.9-12.8-19.8-30.1-20.7-52L255.7,297.7z M302.3,300.7c0,13.8,2.1,24,6.4,30.4
			c4.3,6.5,10.7,9.7,19.2,9.7c16.6,0,25.1-12.7,25.5-38.2l0-4.7c0.1-26.8-8.5-40.3-25.6-40.3c-15.6,0-24,11.5-25.4,34.6L302.3,300.7
			z"/>
		<path class="st0" d="M497.4,332.5c0-4-2.1-7.1-6.2-9.6c-4.1-2.4-12-4.9-23.6-7.5c-11.6-2.6-21.2-6-28.7-10.2
			c-7.5-4.2-13.3-9.3-17.2-15.3c-3.9-6-5.9-12.9-5.9-20.6c0-13.7,5.7-25,17.1-33.9c11.4-8.9,26.2-13.3,44.5-13.2
			c19.7,0.1,35.6,4.6,47.5,13.5c12,9,17.9,20.7,17.9,35.3l-46.7-0.1c0-12-6.3-18-18.9-18c-4.9,0-9,1.3-12.3,4c-3.3,2.7-5,6.1-5,10.1
			c0,4.2,2,7.5,6.1,10.1c4.1,2.6,10.5,4.7,19.4,6.4c8.9,1.7,16.7,3.7,23.4,6c22.5,7.8,33.7,21.7,33.6,41.7
			c0,13.6-6.1,24.7-18.3,33.3c-12.1,8.5-27.8,12.8-47.1,12.7c-12.8,0-24.2-2.4-34.3-7c-10-4.6-17.8-10.9-23.4-18.9
			c-5.6-7.9-8.4-16.3-8.4-25l43.5,0.1c0.2,6.9,2.5,12,6.9,15.2c4.4,3.2,10.1,4.8,17,4.8c6.4,0,11.1-1.3,14.3-3.8
			C495.7,340,497.3,336.6,497.4,332.5z"/>
		<path class="st0" d="M618.6,377.7c-8.6-0.2-16.7-2-24.2-5.5c-7.6-3.5-13.7-8.9-18.4-16.3l-14,76.3l-16.3,0l36.5-207l15.2,0
			l-3.9,21.1c13-16.5,29.3-24.4,48.9-23.8c14,0.4,24.9,5.7,32.7,15.7c7.8,10.1,11.8,24.3,12.1,42.7c0.1,5.8-0.2,11.4-0.9,16.9
			l-0.6,3.9c-2.3,16.1-6.7,30-13.1,41.7c-6.4,11.7-14.2,20.4-23.3,26.1C640,375.3,629.8,378,618.6,377.7z M669.6,297.9l0.9-13.1
			c0.3-14.7-2.3-26.3-7.9-34.7c-5.6-8.4-13.9-12.8-25-13.2c-9.7-0.2-18.5,2.1-26.4,7c-7.9,4.9-14.6,12-20,21.4l-12.5,71.9
			c2.9,8.5,7.6,14.9,14,19.4c6.4,4.4,14.1,6.8,23,7.1c13.4,0.5,24.7-4.5,34-14.9c9.3-10.4,15.6-25,18.8-43.6L669.6,297.9z"/>
	</g>
	<g>
		<path class="st0" d="M237.2,387.7c0,14.7,11.9,26.6,26.6,26.5l13.9,0l0,40.8l-22,0c-32.7,0-59.3-26.5-59.3-59.3l0-23.7l40.8,0
			L237.2,387.7z"/>
		<path class="st0" d="M196.3,345.9c0-14.7-11.9-26.6-26.6-26.5l-13.9,0l0-40.8l22,0c32.7,0,59.3,26.5,59.3,59.3l0,23.7l-40.8,0
			L196.3,345.9z"/>
		<path class="st0" d="M237.2,210.2c0-14.7,11.9-26.6,26.6-26.5l13.9,0l0-40.8l-22,0c-32.7,0-59.3,26.5-59.3,59.3l0,23.7l40.8,0
			L237.2,210.2z"/>
		<path class="st0" d="M228.6,290.5c5.4-8.9,8.5-19.3,8.5-30.5l0-23.7l-40.8,0l0,15.7c0,6.7-2.5,12.8-6.6,17.5
			C204.9,272.1,218.5,279.7,228.6,290.5z"/>
	</g>
</g>
</svg>
