<svg width="270" height="48" viewBox="0 0 270 48" fill="none" xmlns="http://www.w3.org/2000/svg">
<g clip-path="url(#clip0_4128_54005)">
<path d="M7.8603 16.1074V31.9847H12.3063C15.2551 31.9847 17.2967 31.3404 18.5216 30.0978C19.7465 28.8552 20.3362 26.7382 20.3362 23.8389C20.3362 21.0316 19.7918 19.0527 18.6577 17.9022C17.5235 16.6596 15.6181 16.1074 12.8507 16.1074H7.8603ZM0.601562 10.0786H14.5746C18.7938 10.0786 22.0602 11.3212 24.4193 13.8523C26.7784 16.3835 27.9579 19.8811 27.9579 24.3452C27.9579 26.186 27.7311 27.8888 27.232 29.4075C26.733 30.9262 26.0071 32.3528 25.0091 33.5954C23.8295 35.1141 22.3778 36.2186 20.7446 36.9089C19.066 37.5532 16.8883 37.8754 14.121 37.8754H7.8603V47.954H0.601562V10.0786Z" fill="white"/>
<path d="M42.5653 32.3068H51.6387V26.5542H43.1097C41.4311 26.5542 40.2516 26.7843 39.6165 27.2445C38.9813 27.7047 38.6637 28.5331 38.6637 29.6836C38.6637 30.65 38.9359 31.3404 39.435 31.7545C39.934 32.1227 40.9775 32.3068 42.5653 32.3068ZM32.9475 10.0786H47.7825C51.548 10.0786 54.3608 10.953 56.2662 12.7018C58.1716 14.4506 59.1243 17.0278 59.1243 20.4794V37.9214H39.6165C36.8944 37.9214 34.7622 37.2311 33.3104 35.8504C31.8587 34.4698 31.1328 32.4909 31.1328 29.9137C31.1328 26.7382 31.9494 24.4832 33.628 23.1026C35.3066 21.722 38.1193 21.0316 42.0663 21.0316H51.5934V20.3413C51.5934 18.6846 51.0943 17.534 50.1416 16.8437C49.1889 16.1534 47.5103 15.8313 45.0151 15.8313H32.9475V10.0786Z" fill="white"/>
<path d="M65.024 32.1227H80.3127C81.6737 32.1227 82.6718 31.8926 83.2616 31.4784C83.8967 31.0642 84.2143 30.3739 84.2143 29.4075C84.2143 28.441 83.8967 27.7507 83.2616 27.3365C82.6264 26.8763 81.6283 26.6462 80.3127 26.6462H74.052C70.3319 26.6462 67.8367 26.0479 66.5211 24.8974C65.2055 23.7469 64.5703 21.6759 64.5703 18.7766C64.5703 15.7852 65.3416 13.5762 66.9294 12.1496C68.5172 10.7229 70.9671 10.0326 74.2335 10.0326H89.7944V15.8313H77.0009C74.914 15.8313 73.553 16.0153 72.9179 16.3835C72.2827 16.7517 71.9652 17.396 71.9652 18.3624C71.9652 19.2368 72.2374 19.8811 72.7818 20.2493C73.3262 20.6635 74.2335 20.8476 75.413 20.8476H81.9913C84.9855 20.8476 87.2992 21.5839 88.8417 23.0105C90.4296 24.4372 91.2008 26.4621 91.2008 29.1313C91.2008 31.7085 90.4749 33.8255 89.0685 35.4362C87.6622 37.047 85.8928 37.8754 83.6699 37.8754H65.024V32.1227Z" fill="white"/>
<path d="M95.9615 32.1227H111.25C112.611 32.1227 113.609 31.8926 114.199 31.4784C114.834 31.0642 115.152 30.3739 115.152 29.4075C115.152 28.441 114.834 27.7507 114.199 27.3365C113.564 26.8763 112.566 26.6462 111.25 26.6462H104.99C101.269 26.6462 98.7742 26.0479 97.4586 24.8974C96.143 23.7469 95.5078 21.6759 95.5078 18.7766C95.5078 15.7852 96.2791 13.5762 97.8669 12.1496C99.4547 10.7229 101.905 10.0326 105.171 10.0326H120.732V15.8313H107.938C105.852 15.8313 104.491 16.0153 103.855 16.3835C103.22 16.7517 102.903 17.396 102.903 18.3624C102.903 19.2368 103.175 19.8811 103.719 20.2493C104.264 20.6635 105.171 20.8476 106.351 20.8476H112.929C115.923 20.8476 118.237 21.5839 119.779 23.0105C121.367 24.4372 122.138 26.4621 122.138 29.1313C122.138 31.7085 121.412 33.8255 120.006 35.4362C118.6 37.047 116.83 37.8754 114.607 37.8754H95.8708V32.1227H95.9615Z" fill="white"/>
<path d="M134.617 0V10.0786H140.832C143.599 10.0786 145.777 10.4008 147.455 11.0911C149.134 11.7354 150.54 12.8399 151.72 14.3586C152.718 15.6472 153.444 17.0278 153.943 18.5925C154.442 20.1112 154.669 21.814 154.669 23.6548C154.669 28.1189 153.489 31.6165 151.13 34.1477C148.771 36.6788 145.505 37.9214 141.286 37.9214H127.312V0H134.617ZM139.017 16.1074H134.571V31.9847H139.562C142.329 31.9847 144.28 31.3864 145.369 30.2359C146.503 29.0393 147.047 27.0604 147.047 24.2071C147.047 21.3078 146.412 19.2368 145.187 17.9942C144.008 16.7057 141.921 16.1074 139.017 16.1074Z" fill="white"/>
<path d="M164.92 24.023C164.92 26.6922 165.51 28.7172 166.735 30.2359C167.96 31.7085 169.638 32.4449 171.861 32.4449C174.039 32.4449 175.717 31.7085 176.988 30.2359C178.213 28.7632 178.848 26.6922 178.848 24.023C178.848 21.3538 178.213 19.3289 176.988 17.8562C175.763 16.3835 174.084 15.6472 171.861 15.6472C169.684 15.6472 168.005 16.3835 166.735 17.8562C165.51 19.3289 164.92 21.3998 164.92 24.023ZM186.424 24.023C186.424 28.395 185.108 31.8926 182.477 34.5158C179.846 37.093 176.353 38.4276 171.907 38.4276C167.461 38.4276 163.922 37.139 161.291 34.5158C158.659 31.8926 157.344 28.441 157.344 24.069C157.344 19.697 158.659 16.1994 161.291 13.5762C163.922 10.953 167.461 9.61841 171.907 9.61841C176.307 9.61841 179.846 10.953 182.477 13.5762C185.108 16.1534 186.424 19.651 186.424 24.023Z" fill="white"/>
<path d="M198.312 37.9214H190.781V0H198.312V37.9214Z" fill="white"/>
<path d="M201.803 10.0786H206.93V0H214.188V10.0786H221.855V15.6472H214.188V26.8763C214.188 28.9473 214.551 30.3739 215.232 31.2023C215.912 31.9847 217.137 32.3989 218.861 32.3989H221.855V37.9674H215.186C212.51 37.9674 210.468 37.2311 209.017 35.7124C207.61 34.1937 206.884 32.0307 206.884 29.2234V15.6472H201.758V10.0786H201.803Z" fill="white"/>
<path d="M268.225 18.7765L251.984 3.35948C250.578 2.02487 248.355 2.02487 246.903 3.35948L236.695 13.0699C239.372 14.0824 241.459 16.3374 242.23 19.1447H248.355H254.434H256.022C256.748 19.1447 257.292 19.743 257.292 20.4333V22.5503C257.292 23.2866 256.702 23.8389 256.022 23.8389H254.434V26.8302C254.434 27.5666 253.844 28.1188 253.164 28.1188H249.67C248.944 28.1188 248.4 27.5206 248.4 26.8302V23.8389H242.275C241.504 26.6922 239.417 28.9932 236.695 29.9597L246.948 39.6701C248.355 41.0047 250.578 41.0047 252.029 39.6701L268.225 24.2531C269.768 22.7804 269.768 20.2952 268.225 18.7765Z" fill="#E10600"/>
<path d="M233.704 17.2578C233.023 17.2578 232.388 17.4419 231.798 17.718C230.437 18.4083 229.484 19.835 229.484 21.4918C229.484 23.1025 230.346 24.4831 231.662 25.2195C232.252 25.5416 232.932 25.7257 233.658 25.7257C235.972 25.7257 237.832 23.8388 237.832 21.4918C237.923 19.1907 236.017 17.2578 233.704 17.2578Z" fill="#E10600"/>
</g>
<defs>
<clipPath id="clip0_4128_54005">
<rect width="268.8" height="48" fill="white" transform="translate(0.601562)"/>
</clipPath>
</defs>
</svg>
