<svg version="1.1" id="Layer_1" xmlns="http://www.w3.org/2000/svg" x="0" y="0" viewBox="0 0 200 200" xml:space="preserve"><style type="text/css">.st0{display:none}.st1{fill:none}.st1,.st2{display:inline}.st3{fill:none}.st4{fill:#495057}</style><g id="Layer_1_1_" class="st0"><path class="st1" d="M0 0h200v200H0z"/><g id="Livello_2" class="st2"><path d="M121.8 60.1c-9.7-9.4-18.9-18.6-21.6-29.1-2.7 10.4-11.9 19.6-21.6 29.1-14.4 14.4-30.8 30.8-30.8 55.4-.7 28.8 22.4 53 51.2 53.5s53-22.4 53.5-51.2v-2.2c.1-24.7-16.3-41.1-30.7-55.5zm-47.3 60.2c-1.5 2-3 4.2-4 6.5-.2.2-.5.7-1 .7h-.2c-1.2 0-2.5-2.2-2.5-2.2-.2-.5-.7-1.2-1-1.7l-.2-.5c-3.2-7-.5-16.7-.5-16.7 1.2-4.7 3.5-9.4 6.2-13.4 1.7-2.5 3.7-5 5.7-7.5l2.5 2.5 11.7 11.9c.5.5.5 1.2 0 1.7L79 115.3l-4.5 5zm26.1 34.3c-9.9 0-18.2-8.2-17.9-18.2 0-4.5 1.7-8.7 4.5-11.9 3.7-4.5 8.5-9 13.7-14.9 6 6.5 9.9 10.7 13.7 15.7.2.2.5.7.7 1.2 2 3 3.2 6.5 3.2 10.2.3 9.9-7.9 17.9-17.9 17.9zm34.1-28.9c-.2.7-1 1.2-1.7 1.5h-.2c-.7-.2-1.2-.7-1.7-1.2-3.2-4.7-6.7-9.2-10.7-13.2l-4.7-5-16.1-16.4c-3.2-3-6.5-6.5-9.4-9.7 0-.2-.2-.2-.2-.2-.5-.7-1-1.5-1.2-2.5v-.5c-.5-2.7.5-5.5 2.5-7.5 3-3 6.2-6.2 9.2-9.4 3.2 3.5 6.7 7 10.2 10.4 7 6.5 13.2 13.7 18.9 21.4 4.7 6.7 7.2 14.4 7.2 22.6-.6 3-1.1 6.5-2.1 9.7z" id="Livello_1-2"/></g></g><g id="Layer_2_1_" class="st0"><g id="W_Mark_2_" class="st2"><path d="M100 37c8.5 0 16.8 1.7 24.5 4.9 3.7 1.6 7.3 3.5 10.7 5.8 3.3 2.3 6.5 4.8 9.3 7.7 2.9 2.9 5.4 6 7.7 9.3 2.3 3.4 4.2 7 5.8 10.7 3.3 7.8 4.9 16 4.9 24.5s-1.7 16.8-4.9 24.5c-1.6 3.7-3.5 7.3-5.8 10.7-2.3 3.3-4.8 6.5-7.7 9.3-2.9 2.9-6 5.4-9.3 7.7-3.4 2.3-7 4.2-10.7 5.8-7.8 3.3-16 4.9-24.5 4.9s-16.8-1.7-24.5-4.9c-3.7-1.6-7.3-3.5-10.7-5.8-3.3-2.3-6.5-4.8-9.3-7.7-2.9-2.9-5.4-6-7.7-9.3-2.3-3.4-4.2-7-5.8-10.7-3.3-7.8-4.9-16-4.9-24.5s1.7-16.8 4.9-24.5c1.6-3.7 3.5-7.3 5.8-10.7 2.3-3.3 4.8-6.5 7.7-9.3 2.9-2.9 6-5.4 9.3-7.7 3.4-2.3 7-4.2 10.7-5.8 7.7-3.2 16-4.9 24.5-4.9m0-4c-37 0-67 30-67 67s30 67 67 67 67-30 67-67-30-67-67-67z"/><path d="M44.2 100c0 22.1 12.8 41.2 31.5 50.2L49 77.3c-3.1 6.9-4.8 14.6-4.8 22.7zm93.5-2.8c0-6.9-2.5-11.7-4.6-15.4-2.8-4.6-5.5-8.5-5.5-13.1 0-5.1 3.9-9.9 9.4-9.9h.7c-9.9-9.1-23.2-14.7-37.7-14.7-19.5 0-36.7 10-46.7 25.2 1.3 0 2.5.1 3.6.1 5.8 0 14.9-.7 14.9-.7 3-.2 3.4 4.2.4 4.6 0 0-3 .4-6.4.5l20.3 60.5 12.2-36.6-8.7-23.8c-3-.2-5.9-.5-5.9-.5-3-.2-2.7-4.8.4-4.6 0 0 9.2.7 14.7.7 5.8 0 14.9-.7 14.9-.7 3-.2 3.4 4.2.4 4.6 0 0-3 .4-6.4.5l20.2 60 5.8-18.3c2.5-8 4-13.6 4-18.4zm-36.7 7.7l-16.8 48.7c5 1.5 10.3 2.3 15.8 2.3 6.5 0 12.7-1.1 18.5-3.2-.1-.2-.3-.5-.4-.8l-17.1-47zm48-31.7c.2 1.8.4 3.7.4 5.7 0 5.7-1.1 12-4.2 20l-17.1 49.3c16.6-9.7 27.8-27.7 27.8-48.3-.1-9.6-2.5-18.7-6.9-26.7z"/></g><path class="st1" d="M0 0h200v200H0z"/></g><g id="Layer_3" class="st0"><path d="M135.1 126.1c-2 .7-3.6.8-5.7.8-17.5 0-43.3-61.3-43.3-81.6 0-7.5 1.8-10 4.3-12.1-21.5 2.5-47.2 10.3-55.5 20.3C33 55.9 32 59.9 32 64.9c0 31.8 33.9 104 57.8 104 11.2.1 29.9-18.1 45.3-42.8M123.8 31c22.1 0 44.2 3.6 44.2 16.1 0 25.4-16.1 56-24.3 56-14.6 0-32.9-40.8-32.9-61.1.2-9.2 3.8-11 13-11" class="st2"/><path class="st1" d="M0 0h200v200H0z"/></g><g id="Layer_4"><path class="st3" d="M0 0h200v200H0z"/><path class="st4" d="M36.8 78.1H59c6.6.1 11.3 2 14.2 5.6 2.9 3.7 3.9 8.8 2.9 15.2-.4 2.9-1.2 5.8-2.5 8.6s-3 5.3-5.3 7.6c-2.8 2.9-5.7 4.7-8.9 5.4-3.2.8-6.4 1.1-9.8 1.1h-9.9l-3.2 15.8H24.9l11.9-59.3m9.7 9.5l-5 25c.4.1.7.1 1 .1h1.1c5.3.1 9.8-.5 13.3-1.6 3.6-1.1 5.9-5.2 7.1-12.1 1-5.8 0-9.2-3-10-2.9-.8-6.7-1.3-11.1-1.2-.7.1-1.3.1-1.9.1-.4-.2-.9-.2-1.5-.3m42.8-25.3h11.4l-3.3 15.9h10.3c5.6.1 9.9 1.3 12.7 3.5 2.8 2.3 3.7 6.4 2.5 12.7l-5.5 27.7h-11.6l5.3-26.5c.6-2.8.4-4.7-.5-5.9-.8-1.1-2.8-1.8-5.7-1.8h-9.3L88.8 122H77.4l11.9-59.7m46 15.8h22.2c6.6.1 11.3 2 14.2 5.6 2.9 3.7 3.9 8.8 2.9 15.2-.4 2.9-1.2 5.8-2.5 8.6s-3 5.3-5.3 7.6c-2.8 2.9-5.7 4.7-8.9 5.4-3.2.8-6.4 1.1-9.8 1.1h-9.9l-3.2 15.8h-11.4l11.7-59.3m9.7 9.5l-5 25c.4.1.7.1 1 .1h1.1c5.3.1 9.8-.5 13.3-1.6 3.6-1.1 5.9-5.2 7.1-12.1 1-5.8 0-9.2-3-10-2.9-.8-6.7-1.3-11.1-1.2-.7.1-1.3.1-1.9.1-.3-.2-1-.2-1.5-.3"/></g></svg>