<svg viewBox="0 0 200 200" xmlns="http://www.w3.org/2000/svg"><path d="m0 0h200v200h-200z" fill="none"/><path d="m36.8 78.1h22.2c6.6.1 11.3 2 14.2 5.6 2.9 3.7 3.9 8.8 2.9 15.2-.4 2.9-1.2 5.8-2.5 8.6s-3 5.3-5.3 7.6c-2.8 2.9-5.7 4.7-8.9 5.4-3.2.8-6.4 1.1-9.8 1.1h-9.9l-3.2 15.8h-11.6zm9.7 9.5-5 25c.4.1.7.1 1 .1h1.1c5.3.1 9.8-.5 13.3-1.6 3.6-1.1 5.9-5.2 7.1-12.1 1-5.8 0-9.2-3-10-2.9-.8-6.7-1.3-11.1-1.2-.7.1-1.3.1-1.9.1-.4-.2-.9-.2-1.5-.3m42.8-25.3h11.4l-3.3 15.9h10.3c5.6.1 9.9 1.3 12.7 3.5 2.8 2.3 3.7 6.4 2.5 12.7l-5.5 27.7h-11.6l5.3-26.5c.6-2.8.4-4.7-.5-5.9-.8-1.1-2.8-1.8-5.7-1.8h-9.3l-6.8 34.1h-11.4zm46 15.8h22.2c6.6.1 11.3 2 14.2 5.6 2.9 3.7 3.9 8.8 2.9 15.2-.4 2.9-1.2 5.8-2.5 8.6s-3 5.3-5.3 7.6c-2.8 2.9-5.7 4.7-8.9 5.4-3.2.8-6.4 1.1-9.8 1.1h-9.9l-3.2 15.8h-11.4zm9.7 9.5-5 25c.4.1.7.1 1 .1h1.1c5.3.1 9.8-.5 13.3-1.6 3.6-1.1 5.9-5.2 7.1-12.1 1-5.8 0-9.2-3-10-2.9-.8-6.7-1.3-11.1-1.2-.7.1-1.3.1-1.9.1-.3-.2-1-.2-1.5-.3" fill="#495057"/></svg>