<?xml version="1.0" encoding="UTF-8" standalone="no"?>
<svg
   fill="none"
   height="40"
   viewBox="0 0 200 40"
   width="200"
   version="1.1"
   id="svg2"
   sodipodi:docname="platform.sh-darkmode.svg"
   inkscape:version="1.3 (0e150ed, 2023-07-21)"
   xmlns:inkscape="http://www.inkscape.org/namespaces/inkscape"
   xmlns:sodipodi="http://sodipodi.sourceforge.net/DTD/sodipodi-0.dtd"
   xmlns="http://www.w3.org/2000/svg"
   xmlns:svg="http://www.w3.org/2000/svg">
  <defs
     id="defs2" />
  <sodipodi:namedview
     id="namedview2"
     pagecolor="#505050"
     bordercolor="#ffffff"
     borderopacity="1"
     inkscape:showpageshadow="0"
     inkscape:pageopacity="0"
     inkscape:pagecheckerboard="1"
     inkscape:deskcolor="#505050"
     inkscape:zoom="4.13"
     inkscape:cx="100"
     inkscape:cy="20.096852"
     inkscape:window-width="1312"
     inkscape:window-height="449"
     inkscape:window-x="0"
     inkscape:window-y="37"
     inkscape:window-maximized="0"
     inkscape:current-layer="g2" />
  <clipPath
     id="a">
    <path
       d="m0 0h200v40h-200z"
       id="path1" />
  </clipPath>
  <g
     clip-path="url(#a)"
     id="g2">
    <path
       d="m200 0h-33.078v13.06h33.078zm0 28.422h-33.078v4.448h33.078zm0-11.139h-33.078v6.701h33.078zm-200-1.061h4.183v2.49c.55168-.8618 1.30775-1.5739 2.201-2.073.93766-.5366 2.00172-.8128 3.082-.8.9556-.0084 1.9012.1951 2.7687.5959s1.6353.9889 2.2483 1.7221c1.4688 1.8182 2.2043 4.12 2.062 6.453.1468 2.3818-.5918 4.7338-2.074 6.604-.6153.7332-1.3851 1.3213-2.2544 1.7221-.8693.4007-1.8164.6042-2.7736.5959-.881.01-1.753-.18-2.55-.556-.90745-.4885-1.7197-1.1361-2.398-1.912v8.539h-4.483v-23.404zm4.438 8.191c-.11377 1.5014.29537 2.9959 1.158 4.23.32527.4257.74451.7705 1.22501 1.0074.48049.237 1.00925.3597 1.54499.3586.50145.0073.99777-.1017 1.44995-.3186.45215-.2169.84795-.5357 1.15605-.9314.7956-1.2168 1.1588-2.6658 1.031-4.114.1085-1.4037-.2678-2.8022-1.066-3.962-.3122-.4055-.7144-.7328-1.17481-.9562-.46043-.2233-.96648-.3366-1.47819-.3308-.52132-.0078-1.03772.1018-1.51098.3206-.47325.2188-.89123.5412-1.22302.9434-.80592 1.079-1.20025 2.4092-1.112 3.753zm14.181 8.817v-23.45h4.484v23.45zm10.925-11.83-4.066-.73c.3244-1.4455 1.1441-2.7321 2.317-3.637 1.506-.8794 3.2425-1.2834 4.982-1.159 1.5239-.0837 3.0482.1573 4.472.707.8644.3688 1.5903 1.0012 2.074 1.807.4959 1.2789.7019 2.6519.603 4.02v5.238c-.027 1.105.046 2.21.22 3.302.17.804.443 1.582.81 2.317h-4.436c-.1643-.4368-.3071-.8813-.428-1.332-.081-.267-.128-.44-.163-.522-.708.7067-1.5407 1.2763-2.456 1.68-.8836.3718-1.8333.561-2.792.556-1.5082.0808-2.9883-.4305-4.125-1.425-.4922-.4568-.8812-1.0135-1.1409-1.6328-.2598-.6193-.3842-1.2869-.3651-1.9582-.017-.901.22-1.789.684-2.561.4572-.752 1.1262-1.3524 1.923-1.726 1.1423-.493 2.341-.8433 3.569-1.043 1.4848-.2502 2.9431-.6382 4.356-1.159v-.498c.034-.3349-.0054-.6731-.1154-.9912s-.288-.6085-.5216-.8508c-.7199-.4464-1.5673-.6419-2.41-.556-.656-.0371-1.3075.1288-1.866.475-.544.4261-.9378 1.0146-1.124 1.68zm6.002 3.639c-.58.185-1.483.417-2.734.683-.8502.1314-1.6749.3935-2.445.777-.2669.1698-.4865.4043-.6385.6818-.1519.2775-.2312.5889-.2305.9052-.0017.3065.0603.6099.182.8912s.3005.5342.525.7428c.237.2267.5169.4039.8232.5212s.633.1723.9608.1618c.8386-.0086 1.6518-.2893 2.317-.8.512-.36.887-.882 1.066-1.482.15-.72.208-1.456.174-2.19zm15.224-8.817v3.58h-3.07v6.835c-.027.809.005 1.618.093 2.422.06.233.205.435.405.568.22.156.484.237.753.231.6224-.0483 1.233-.1969 1.808-.44l.382 3.476c-1.1235.4634-2.3299.6921-3.545.672-.7497.0112-1.4942-.1268-2.19-.406-.5655-.2089-1.0597-.5745-1.425-1.054-.3408-.5282-.5585-1.1263-.637-1.75-.1229-1.0492-.1696-2.106-.14-3.162v-7.392h-2.062v-3.58h2.063v-3.372l4.507-2.618v5.99h3.07zm1.31 0h2.49v-1.275c-.054-1.0851.0997-2.1706.453-3.198.3469-.7471.94-1.3522 1.68-1.714.9589-.47822 2.0221-.70922 3.093-.672 1.274 0 2.54.195 3.754.579l-.602 3.128c-.6752-.1659-1.3677-.2515-2.063-.255-.2522-.0253-.5069.0018-.7482.0796s-.4638.2045-.6538.3724c-.3452.5143-.4969 1.1344-.428 1.75v1.158h3.348v3.476h-3.348v13.58h-4.485v-13.477h-2.49zm11.169 8.25c.0235-1.5141.4213-2.9989 1.158-4.322.6947-1.3545 1.7808-2.4687 3.117-3.198 1.3794-.763 2.9306-1.1616 4.507-1.158 1.1664-.0404 2.3285.161 3.4133.5916 1.0847.4306 2.0686 1.081 2.8897 1.9104.8164.8315 1.456 1.8196 1.8801 2.905.4242 1.0853.6242 2.2453.5879 3.41.038 1.1763-.1622 2.3481-.5883 3.4452-.4262 1.097-1.0696 2.0966-1.8917 2.9388-.811.832-1.7856 1.487-2.8623 1.9236-1.0768.4366-2.2323.6455-3.3937.6134-1.5456.004-3.0704-.3571-4.45-1.054-1.3734-.6651-2.5006-1.7483-3.22-3.094-.7835-1.517-1.1777-3.2049-1.147-4.912zm4.634.243c-.1079 1.3892.3053 2.7688 1.159 3.87.3666.4221.8195.7606 1.3282.9926s1.0612.3521 1.6203.3521 1.1116-.1201 1.6203-.3521.9616-.5705 1.3282-.9926c.8523-1.1108 1.265-2.4969 1.159-3.893.1024-1.3778-.3107-2.7445-1.159-3.835-.3675-.4207-.8207-.7579-1.3293-.9889-.5085-.231-1.0606-.3505-1.6192-.3505s-1.1107.1195-1.6192.3505c-.5086.231-.9618.5682-1.3293.9889-.8644 1.0884-1.2938 2.459-1.205 3.846zm19.025 8.515h-4.484v-17.008h4.16v2.41c.4767-.8756 1.1318-1.6414 1.923-2.248.577-.3681 1.2497-.5577 1.934-.545 1.044.0055 2.0663.2982 2.955.846l-1.39 3.916c-.6164-.4468-1.3496-.7043-2.11-.741-.5769-.0167-1.1418.1674-1.598.521-.53.504-.89 1.16-1.031 1.877-.3259 1.8777-.4499 3.7849-.37 5.689v5.283zm7.832-17.007h4.136v2.317c.6121-.8279 1.408-1.5025 2.325-1.971s1.929-.718 2.959-.729c.985-.0243 1.959.2072 2.827.672.829.4799 1.508 1.1824 1.958 2.028.656-.8339 1.476-1.5242 2.41-2.028.851-.4452 1.797-.6759 2.757-.672 1.103-.0372 2.195.2229 3.163.753.872.5142 1.551 1.2995 1.935 2.236.367 1.1203.524 2.2987.463 3.476v10.926h-4.472v-9.698c.098-1.1062-.061-2.2199-.463-3.255-.206-.3145-.491-.5691-.827-.738-.335-.169-.71-.2462-1.085-.224-.637.0041-1.257.2068-1.773.58-.56.4172-.967 1.0078-1.158 1.68-.286 1.1351-.407 2.3054-.36 3.475v8.11h-4.495v-9.269c.055-1.0675-.023-2.1377-.232-3.186-.121-.431-.382-.8097-.741-1.077-.408-.2551-.886-.3768-1.367-.348-.664-.0078-1.315.1861-1.866.556-.553.395-.96.96-1.158 1.61-.2889 1.1352-.4102 2.3066-.36 3.477v8.307h-4.483v-17.009zm27.181 17.007v-4.483h4.484v4.483zm6.164-4.89 4.507-.683c.133.782.545 1.49 1.159 1.993.721.49 1.585.726 2.456.672.918.0644 1.833-.1582 2.618-.637.184-.1323.333-.3064.436-.508.102-.2016.156-.4247.155-.651.006-.1556-.019-.3109-.075-.4564-.056-.1454-.14-.278-.249-.3896-.45-.3104-.965-.5123-1.506-.59-3.615-.773-5.909-1.503-6.883-2.19-.637-.4071-1.157-.9722-1.51-1.6403-.354-.6681-.528-1.4163-.506-2.1717-.007-.7089.145-1.4103.446-2.0522s.743-1.2078 1.292-1.6558c1.561-1.1362 3.475-1.6787 5.4-1.53 1.801-.12 3.6.283 5.178 1.16 1.152.7986 1.976 1.9882 2.318 3.348l-4.229.788c-.149-.6141-.515-1.1535-1.031-1.518-.653-.3883-1.409-.5699-2.167-.521-.875-.0659-1.752.1062-2.537.498-.157.0953-.287.2297-.376.3901s-.136.3413-.134.5249c.005.1615.048.3196.127.4608.079.1411.19.2613.325.3502 1.337.6015 2.747 1.0261 4.194 1.263 1.794.29 3.503.97 5.005 1.993.47.4148.84.9303 1.083 1.5081s.352 1.203.319 1.8289c-.001.7717-.176 1.5333-.513 2.2276-.337.6942-.827 1.3033-1.433 1.7814-1.665 1.2412-3.723 1.838-5.794 1.68-1.932.1018-3.849-.3917-5.491-1.414-1.31-.9215-2.23-2.2973-2.584-3.859zm22.141-18.56v8.608c.925-1.1659 2.21-1.9919 3.655-2.3485 1.445-.3565 2.967-.2234 4.328.3785.746.3141 1.394.8224 1.877 1.472.417.595.709 1.27.857 1.981.183 1.114.261 2.243.232 3.372v9.987h-4.495v-8.968c.057-1.1339-.029-2.2704-.255-3.383-.162-.4771-.48-.8854-.904-1.158-.488-.2942-1.052-.4395-1.622-.418-.703-.0121-1.394.177-1.993.545-.604.3806-1.058.9576-1.286 1.634-.315 1.0471-.452 2.1396-.406 3.232v8.516h-4.483v-23.45z"
       fill="#171719"
       id="path2"
       style="fill:#ffffff" />
  </g>
</svg>
