<svg fill="none" height="62" viewBox="0 0 62 62" width="62" xmlns="http://www.w3.org/2000/svg" xmlns:xlink="http://www.w3.org/1999/xlink"><linearGradient id="a" gradientUnits="userSpaceOnUse" x1="21.5012" x2="54.3416" y1="12.9146" y2="36.8042"><stop offset="0" stop-color="#e15e29"/><stop offset="1" stop-color="#a51f25"/></linearGradient><path d="m0 0h62v62h-62z" fill="#fff"/><path d="m10 7.24006s19.3087-2.08899 32.3887 6.05774c13.08 8.1467 10.3809 19.2178 10.3809 19.2178s-1.5202 8.9091-10.3809 5.8488c-6.9553-2.4022-3.9447-10.6532-3.9447-10.6532s-8.3535 1.0556-11.2114 7.7289c-2.7511 6.4233-2.9067 14.8311 5.6056 22.5599 0 0-20.7619-4.3867-20.1391-24.8579 0 0 .5597-9.5382 7.7012-14.5349 0 0-3.8233.4866-6.8705 3.9251 0 0-.1174-10.5578-3.5298-15.29224z" fill="url(#a)"/></svg>