<svg fill="none" height="389" viewBox="0 0 378 389" width="378" xmlns="http://www.w3.org/2000/svg" xmlns:xlink="http://www.w3.org/1999/xlink"><linearGradient id="a" gradientUnits="userSpaceOnUse" x1="148.851" x2="282.065" y1="23.9476" y2="121.445"><stop offset="0" stop-color="#e15e29"/><stop offset="1" stop-color="#a51f25"/></linearGradient><clipPath id="b"><path d="m0 0h378v389h-378z"/></clipPath><g clip-path="url(#b)"><path d="m0 0h378v389h-378z" fill="#fff"/><path d="m102 .971952s78.656-8.458002 131.939 24.527048c53.283 32.985 42.288 77.81 42.288 77.81s-6.193 36.072-42.288 23.681c-28.333-9.726-16.069-43.133-16.069-43.133s-34.029 4.274-45.671 31.293c-11.207 26.007-11.841 60.049 22.835 91.342 0 0-84.576-17.761-82.039-100.646 0 0 2.28-38.619 31.372-58.85 0 0-15.575 1.97-27.988 15.892 0 0-.478-42.747-14.379-61.916048z" fill="url(#a)"/><g clip-rule="evenodd" fill-rule="evenodd"><path d="m3.37 315.457h15.019v-25.317h9.547l14.805 25.317h17.164l-16.628-27.57c8.475-3.325 14.268-10.298 14.268-21.348 0-17.057-12.23-24.03-27.141-24.03h-27.034zm15.019-37.975v-21.778h11.586c7.187 0 12.122 2.682 12.122 10.835 0 8.046-4.72 10.943-12.122 10.943zm55.88 37.975h49.776v-13.195h-34.757v-16.949h29.286v-12.873h-29.286v-16.736h33.255v-13.195h-48.274zm66.875 0h22.421c22.528 0 38.405-14.911 38.405-36.474 0-21.562-15.984-36.474-38.405-36.474h-22.421zm15.019-13.195v-46.558h6.651c16.199 0 23.601 9.655 23.601 23.279 0 13.625-7.402 23.279-23.601 23.279zm61.727 13.195h15.018v-27.355h29.072v-13.41h-29.072v-18.988h31.969v-13.195h-46.987zm62.477 0h15.019v-72.948h-15.019zm92.761.644h1.502v-73.592h-14.053v30.574c0 5.042.965 13.303.965 13.303s-5.042-6.652-8.582-9.977l-36.796-34.543h-1.502v73.591h14.054v-30.573c0-5.257-1.073-13.303-1.073-13.303s5.042 6.544 8.689 9.977z" fill="#b90e31"/><path d="m16.265 388.549c8.064 0 13.946-4.495 13.946-11.897 0-6.742-3.833-10.443-11.302-13.748l-3.569-1.652c-5.023-2.313-7.138-4.098-7.138-8.063 0-3.834 2.71-6.411 7.138-6.411 4.23 0 6.609 2.115 8.328 4.89l3.833-2.379c-2.379-3.966-6.147-6.741-12.161-6.741-6.742 0-11.831 4.296-11.831 10.773 0 6.279 3.503 9.385 9.914 12.293l3.569 1.653c5.618 2.511 8.46 4.824 8.46 9.385 0 4.759-4.098 7.667-9.319 7.667-6.345 0-9.451-3.239-11.566-7.006l-3.966 2.115c2.379 4.759 7.072 9.121 15.664 9.121zm47.125 0c12.822 0 23.133-9.452 23.133-23.001s-10.311-23-23.133-23c-12.756 0-23.067 9.451-23.067 23s10.311 23.001 23.067 23.001zm0-4.296c-10.443 0-18.11-7.998-18.11-18.705s7.667-18.704 18.11-18.704c10.509 0 18.176 7.997 18.176 18.704s-7.667 18.705-18.176 18.705zm36.153 3.767h25.975v-4.23h-21.216v-40.714h-4.759zm53.205.529c9.121 0 16.127-5.354 16.127-15.863v-29.61h-4.759v29.28c0 7.997-4.428 11.963-11.368 11.963-7.006 0-11.368-3.966-11.368-11.963v-29.28h-4.759v29.61c0 10.509 6.94 15.863 16.127 15.863zm41.176-.529h4.758v-40.714h13.814v-4.23h-32.386v4.23h13.814zm30.403 0h4.825v-44.944h-4.825zm41.11.529c12.822 0 23.133-9.452 23.133-23.001s-10.311-23-23.133-23c-12.756 0-23.067 9.451-23.067 23s10.311 23.001 23.067 23.001zm0-4.296c-10.443 0-18.11-7.998-18.11-18.705s7.667-18.704 18.11-18.704c10.509 0 18.176 7.997 18.176 18.704s-7.667 18.705-18.176 18.705zm70.191 4.23h.793v-45.407h-4.428v30.337c0 1.917.33 4.957.33 5.09-.198-.265-1.916-2.71-3.106-4.164l-26.834-31.725h-.793v45.406h4.494v-30.337c0-1.785-.396-4.693-.396-5.023.198.33 1.916 2.71 3.106 4.098zm27.825.066c8.064 0 13.946-4.495 13.946-11.897 0-6.742-3.833-10.443-11.302-13.748l-3.569-1.652c-5.023-2.313-7.138-4.098-7.138-8.063 0-3.834 2.71-6.411 7.138-6.411 4.23 0 6.609 2.115 8.328 4.89l3.833-2.379c-2.379-3.966-6.147-6.741-12.161-6.741-6.742 0-11.831 4.296-11.831 10.773 0 6.279 3.503 9.385 9.914 12.293l3.569 1.653c5.618 2.511 8.46 4.824 8.46 9.385 0 4.759-4.098 7.667-9.319 7.667-6.345 0-9.451-3.239-11.566-7.006l-3.966 2.115c2.379 4.759 7.072 9.121 15.664 9.121z" fill="#64666c"/></g></g></svg>