<?xml version="1.0" encoding="UTF-8"?><svg id="Ebene_2" xmlns="http://www.w3.org/2000/svg" viewBox="0 0 203.33 203.33"><defs><style>.cls-1{fill:#97ceec;}.cls-2{fill:#9da9b1;}.cls-3{fill:#2aa1db;}</style></defs><g id="Ebene_1-2"><path class="cls-3" d="m53.88,149.45c-25.77-25.77-25.77-67.55,0-93.31,25.77-25.77,67.55-25.77,93.31,0l24.43-24.43c-39.26-39.26-102.92-39.26-142.18,0-39.26,39.26-39.26,102.92,0,142.18l24.43-24.43Z"/><path class="cls-2" d="m147.19,56.13c25.77,25.77,25.77,67.55,0,93.31-25.77,25.77-67.55,25.77-93.31,0l-24.43,24.43c39.26,39.26,102.92,39.26,142.18,0,39.26-39.26,39.26-102.92,0-142.18l-24.43,24.43Z"/><circle class="cls-1" cx="100.54" cy="102.79" r="33.45"/></g></svg>
