<?xml version="1.0" encoding="UTF-8"?><svg id="Ebene_2" xmlns="http://www.w3.org/2000/svg" viewBox="0 0 772.81 203.33"><defs><style>.cls-1{fill:#97ceec;}.cls-2{fill:#9da9b1;}.cls-3{fill:#2aa1db;}</style></defs><g id="Ebene_1-2"><path class="cls-3" d="m53.88,149.45c-25.77-25.77-25.77-67.55,0-93.31,25.77-25.77,67.55-25.77,93.31,0l24.43-24.43c-39.26-39.26-102.92-39.26-142.18,0-39.26,39.26-39.26,102.92,0,142.18l24.43-24.43Z"/><path class="cls-2" d="m147.19,56.13c25.77,25.77,25.77,67.55,0,93.31-25.77,25.77-67.55,25.77-93.31,0l-24.43,24.43c39.26,39.26,102.92,39.26,142.18,0,39.26-39.26,39.26-102.92,0-142.18l-24.43,24.43Z"/><circle class="cls-1" cx="100.54" cy="102.79" r="33.45"/><path class="cls-2" d="m544.78,65.69c-.16,28.72,0,36.62,1.26,63.56l-1.1,1.13c-13.54-.16-17.01,0-31.34.48l-1.1-.97c.79-21.78.94-30.01.94-64.53l-11.97.48-.94-.97,1.1-19.52,1.26-1.45,10.55.32c-.16-3.07-.31-6.13-.31-9.2,0-18.07,2.2-34.04,30.39-34.04,5.98,0,11.81.65,17.64,1.29l.79.97c-.94,9.2-1.26,12.1-1.58,21.13l-1.26.81c-1.73-.48-3.46-.97-5.35-.97-9.29,0-9.29,9.2-9.13,20.33l13.54-.65.79,1.13-1.58,19.84-1.26.97-11.34-.16Z"/><path class="cls-2" d="m601,130.39c-14.96-.16-19.21-.16-32.92.48l-1.1-1.13c.47-14.52.95-29.04.95-43.72,0-19.04-.79-27.1-1.89-38.24l.94-.97c14.33-2.1,18.27-2.74,33.07-5.65l.79,1.29c-.16,11.94-.32,23.88-.32,35.82,0,25.17.79,37.91,1.58,50.98l-1.1,1.13Zm-1.1-99.86l-.95.97c-13.54,1.61-16.69,2.26-30.08,4.68l-1.42-.97-.63-26.3,1.1-1.13,31.02-4.19.95,1.13v25.81Z"/><path class="cls-2" d="m643.52,43.91l3.78,19.36c2.36,10.81,5.04,21.78,7.56,32.75,1.58-6.78,3.15-13.55,4.72-20.33,3.31-13.88,3.94-16.78,6.46-30.81l1.1-.97,26.3-.48.63,1.13c-18.74,57.11-20.79,63.4-27.25,84.7l-1.57,1.13c-12.44-.16-16.06,0-28.03.48l-1.26-.97c-1.42-4.52-2.83-8.87-4.09-13.39-4.09-13.87-4.57-15.65-9.45-30.33-4.41-13.55-9.29-28.88-13.7-40.66l.95-1.13c14.17-.16,17.48-.16,32.6-1.45l1.26.97Z"/><path class="cls-2" d="m722.89,94.89c.95,4.84,1.89,8.39,7.25,11.78,2.36,1.45,7.24,3.39,14.49,3.39,8.5,0,17.01-1.61,24.1-6.45l1.1.81-.79,20.65-.94,1.45c-1.73.81-3.62,1.61-5.35,2.26-2.83.97-12.13,3.55-24.25,3.55-8.35,0-20.95-1.29-30.08-7.74-11.97-8.39-16.85-22.26-16.85-37.27,0-33.07,22.68-45.17,42.52-45.17,8.03,0,17.64,2.1,24.41,7.58,14.17,11.46,14.33,31.3,14.33,43.24l-1.1,1.29-48.82.65Zm20.32-18.07c-.16-4.03-.63-14.52-10.08-14.52-.79,0-2.21,0-3.94.81-6.61,2.9-6.93,10-7.09,14.04l21.1-.32Z"/><path class="cls-3" d="m281.63,75.99c2.68,1.13,5.67,2.42,8.98,5.16,4.1,3.39,9.29,10.16,9.29,20,0,17.58-13.54,30.17-38.74,30.17-11.34,0-21.42-2.74-25.2-4.19-1.42-.48-2.83-1.13-4.09-1.61l-.95-1.77,1.1-20.97,1.57-.81c1.89,1.61,3.78,3.23,5.98,4.52,5.2,3.39,12.13,5.32,17.64,5.32,9.29,0,9.45-5.49,9.45-6.13,0-4.03-3.94-5.65-8.19-7.26l-6.61-2.74c-4.57-2.1-10.55-4.68-14.49-9.52-2.52-3.07-5.51-9.36-5.51-16.78,0-9.84,5.04-17.75,10.55-21.94,8.82-6.45,21.26-6.78,26.62-6.78,10.71,0,17.64,1.94,25.36,4.19l.94.97c-1.1,9.52-1.26,11.94-1.73,19.84l-1.57.48c-3.78-2.74-9.45-6.94-19.53-6.94-8.5,0-8.5,5.81-8.5,5.97,0,2.58,2.52,4.36,6.62,6.13l11.02,4.68Z"/><path class="cls-3" d="m352.66,122.61c-6.77,4.2-13.86,8.39-22.84,8.39-14.96,0-26.3-11.62-26.3-27.59,0-26.62,27.88-30.33,48.03-33.07.32-4.03.47-8.39-9.76-8.39-11.02,0-18.9,3.23-28.35,7.1l-1.1-.65.95-20.33.94-1.29c9.29-2.9,18.43-5.65,34.17-5.65s22.83,3.23,27.72,7.74c7.88,7.42,7.56,16.78,7.24,32.59l-.16,10.33c0,16.29,0,20.01,1.26,36.3l-.95,1.29c-12.6-.16-15.75,0-29.77.48l-1.1-1.13v-6.13Zm-.47-34.69c-7.4.64-18.58,1.45-18.58,11.29,0,5.49,3.78,8.55,8.98,8.55,4.25,0,7.09-1.61,9.61-3.23v-16.62Z"/><path class="cls-3" d="m432.34,64.69c-.16,28.72,0,36.62,1.26,63.56l-1.1,1.13c-13.54-.16-17.01,0-31.34.48l-1.1-.97c.79-21.78.95-30.01.95-64.53l-11.97.48-.95-.97,1.1-19.52,1.26-1.45,10.55.32c-.16-3.07-.32-6.13-.32-9.2,0-18.07,2.2-34.04,30.4-34.04,5.98,0,11.81.65,17.64,1.29l.79.97c-.95,9.2-1.26,12.1-1.58,21.13l-1.26.81c-1.73-.48-3.46-.97-5.35-.97-9.29,0-9.29,9.2-9.13,20.33l13.54-.65.79,1.13-1.58,19.84-1.26.97-11.34-.16Z"/><path class="cls-3" d="m475.81,93.89c.95,4.84,1.89,8.39,7.24,11.78,2.36,1.45,7.24,3.39,14.49,3.39,8.51,0,17.01-1.61,24.1-6.45l1.1.81-.79,20.65-.95,1.45c-1.73.81-3.62,1.61-5.36,2.26-2.83.97-12.13,3.55-24.25,3.55-8.35,0-20.95-1.29-30.08-7.74-11.97-8.39-16.85-22.26-16.85-37.27,0-33.07,22.68-45.17,42.52-45.17,8.03,0,17.64,2.1,24.41,7.58,14.17,11.46,14.33,31.3,14.33,43.24l-1.1,1.29-48.82.65Zm20.32-18.07c-.16-4.03-.63-14.52-10.08-14.52-.79,0-2.21,0-3.94.81-6.61,2.9-6.93,10-7.09,14.04l21.1-.32Z"/><path class="cls-1" d="m251.72,173.59c0,2.9-1.02,5.19-3.06,6.86-2.04,1.67-4.87,2.51-8.51,2.51-3.35,0-6.31-.64-8.88-1.93v-6.33c2.12.97,3.91,1.65,5.37,2.04,1.47.4,2.81.59,4.02.59,1.46,0,2.58-.29,3.36-.86.78-.57,1.17-1.42,1.17-2.55,0-.63-.17-1.19-.52-1.68-.34-.49-.85-.96-1.51-1.42-.67-.45-2.02-1.18-4.07-2.18-1.92-.92-3.35-1.81-4.31-2.66s-1.72-1.84-2.3-2.97-.86-2.45-.86-3.96c0-2.84.94-5.08,2.82-6.7,1.88-1.63,4.48-2.44,7.8-2.44,1.63,0,3.19.2,4.67.59s3.03.95,4.65,1.67l-2.15,5.3c-1.67-.7-3.06-1.19-4.15-1.47-1.09-.28-2.17-.42-3.23-.42-1.26,0-2.22.3-2.9.9-.67.6-1.01,1.38-1.01,2.35,0,.6.14,1.12.41,1.57.27.45.7.88,1.3,1.3.59.42,2,1.17,4.22,2.25,2.93,1.44,4.94,2.88,6.03,4.32,1.09,1.44,1.63,3.21,1.63,5.31Z"/><path class="cls-1" d="m255.21,151.59c0-2.18,1.19-3.28,3.56-3.28s3.56,1.09,3.56,3.28c0,1.04-.3,1.85-.89,2.43-.59.58-1.48.87-2.67.87-2.38,0-3.56-1.1-3.56-3.3Zm6.82,30.92h-6.54v-24.57h6.54v24.57Z"/><path class="cls-1" d="m277.23,182.95c-7.47,0-11.2-4.2-11.2-12.59,0-4.18,1.02-7.37,3.05-9.57,2.03-2.21,4.94-3.31,8.73-3.31,2.77,0,5.26.56,7.47,1.67l-1.93,5.19c-1.03-.42-1.99-.77-2.88-1.04-.89-.27-1.77-.41-2.66-.41-3.4,0-5.11,2.48-5.11,7.43s1.7,7.21,5.11,7.21c1.26,0,2.42-.17,3.5-.52,1.07-.34,2.15-.88,3.22-1.62v5.74c-1.06.69-2.13,1.17-3.21,1.43-1.08.26-2.44.4-4.09.4Z"/><path class="cls-1" d="m310.82,182.51h-6.54v-14.35c0-3.55-1.29-5.32-3.86-5.32-1.83,0-3.15.64-3.97,1.91-.82,1.27-1.22,3.34-1.22,6.2v11.56h-6.54v-34.2h6.54v6.97c0,.54-.05,1.82-.15,3.82l-.15,1.98h.34c1.46-2.4,3.78-3.6,6.95-3.6,2.82,0,4.96.78,6.42,2.33s2.19,3.78,2.19,6.68v16.02Z"/><path class="cls-1" d="m327.88,182.95c-3.86,0-6.88-1.09-9.05-3.28-2.17-2.18-3.26-5.27-3.26-9.27s1-7.3,3.01-9.55c2.01-2.25,4.79-3.37,8.33-3.37s6.03.99,7.92,2.97c1.89,1.98,2.83,4.71,2.83,8.2v3.25h-15.47c.07,1.91.62,3.39,1.65,4.46,1.03,1.07,2.47,1.6,4.33,1.6,1.45,0,2.81-.15,4.1-.46,1.29-.31,2.63-.8,4.03-1.47v5.19c-1.14.59-2.37,1.02-3.67,1.31s-2.89.43-4.76.43Zm-.92-20.7c-1.39,0-2.47.45-3.26,1.35-.79.9-1.24,2.18-1.35,3.84h9.18c-.03-1.66-.45-2.93-1.27-3.84-.81-.9-1.92-1.35-3.3-1.35Z"/><path class="cls-1" d="m355.85,157.48c.89,0,1.62.07,2.21.2l-.49,6.29c-.53-.15-1.17-.22-1.93-.22-2.09,0-3.72.55-4.88,1.65-1.17,1.1-1.75,2.64-1.75,4.62v12.51h-6.54v-24.57h4.96l.97,4.13h.32c.74-1.38,1.75-2.49,3.01-3.33,1.27-.84,2.64-1.26,4.13-1.26Z"/><path class="cls-1" d="m384.03,182.51h-6.54v-14.35c0-3.55-1.29-5.32-3.86-5.32-1.83,0-3.15.64-3.97,1.91-.82,1.27-1.22,3.34-1.22,6.2v11.56h-6.54v-34.2h6.54v6.97c0,.54-.05,1.82-.15,3.82l-.15,1.98h.34c1.46-2.4,3.78-3.6,6.95-3.6,2.82,0,4.96.78,6.42,2.33s2.19,3.78,2.19,6.68v16.02Z"/><path class="cls-1" d="m401.09,182.95c-3.86,0-6.88-1.09-9.05-3.28-2.17-2.18-3.26-5.27-3.26-9.27s1-7.3,3.01-9.55c2.01-2.25,4.79-3.37,8.33-3.37s6.03.99,7.92,2.97c1.89,1.98,2.83,4.71,2.83,8.2v3.25h-15.47c.07,1.91.62,3.39,1.65,4.46,1.03,1.07,2.47,1.6,4.33,1.6,1.45,0,2.81-.15,4.1-.46,1.29-.31,2.63-.8,4.03-1.47v5.19c-1.14.59-2.37,1.02-3.67,1.31s-2.89.43-4.76.43Zm-.92-20.7c-1.39,0-2.47.45-3.26,1.35-.79.9-1.24,2.18-1.35,3.84h9.18c-.03-1.66-.45-2.93-1.27-3.84-.81-.9-1.92-1.35-3.3-1.35Z"/><path class="cls-1" d="m415.39,151.59c0-2.18,1.19-3.28,3.56-3.28s3.56,1.09,3.56,3.28c0,1.04-.3,1.85-.89,2.43-.59.58-1.48.87-2.67.87-2.37,0-3.56-1.1-3.56-3.3Zm6.82,30.92h-6.54v-24.57h6.54v24.57Z"/><path class="cls-1" d="m438.66,177.61c1.14,0,2.52-.26,4.12-.77v4.99c-1.63.75-3.63,1.12-6.01,1.12-2.62,0-4.52-.68-5.72-2.03s-1.79-3.39-1.79-6.1v-11.85h-3.13v-2.84l3.6-2.24,1.89-5.19h4.18v5.23h6.71v5.03h-6.71v11.85c0,.95.26,1.66.78,2.11.52.45,1.21.68,2.07.68Z"/><path class="cls-1" d="m471.25,162.97h-5.66v19.54h-6.54v-19.54h-3.6v-3.23l3.6-1.8v-1.8c0-2.8.67-4.84,2.02-6.13,1.34-1.29,3.5-1.93,6.46-1.93,2.26,0,4.27.34,6.03,1.03l-1.67,4.92c-1.32-.42-2.53-.64-3.65-.64-.93,0-1.6.28-2.02.85-.41.56-.62,1.29-.62,2.16v1.54h5.66v5.03Z"/><path class="cls-1" d="m491.47,182.51l-.88-3.14h-.34c-.7,1.14-1.7,2.03-2.98,2.65-1.29.62-2.75.93-4.4.93-2.82,0-4.94-.77-6.37-2.32-1.43-1.54-2.15-3.77-2.15-6.67v-16.02h6.54v14.35c0,1.77.31,3.1.92,3.99.61.89,1.59,1.33,2.94,1.33,1.83,0,3.15-.63,3.97-1.88.82-1.25,1.22-3.33,1.22-6.23v-11.56h6.54v24.57h-5.02Zm-13.43-30.88c0-.95.27-1.69.8-2.2s1.26-.77,2.18-.77,1.68.27,2.22.81c.54.54.8,1.26.8,2.15s-.27,1.59-.82,2.12c-.54.54-1.28.8-2.21.8s-1.64-.26-2.18-.77c-.54-.51-.8-1.23-.8-2.15Zm8.65,0c0-1.03.29-1.78.87-2.25.58-.48,1.3-.71,2.16-.71.93,0,1.67.26,2.22.79.55.53.83,1.25.83,2.18s-.28,1.6-.84,2.13c-.56.53-1.29.79-2.21.79-.86,0-1.58-.24-2.16-.71-.58-.48-.87-1.21-.87-2.21Z"/><path class="cls-1" d="m516.21,157.48c.89,0,1.62.07,2.21.2l-.49,6.29c-.53-.15-1.17-.22-1.93-.22-2.09,0-3.72.55-4.88,1.65-1.17,1.1-1.75,2.64-1.75,4.62v12.51h-6.54v-24.57h4.96l.97,4.13h.32c.74-1.38,1.75-2.49,3.01-3.33,1.27-.84,2.64-1.26,4.13-1.26Z"/><path class="cls-1" d="m549.53,173.59c0,2.9-1.02,5.19-3.06,6.86-2.04,1.67-4.87,2.51-8.51,2.51-3.35,0-6.31-.64-8.88-1.93v-6.33c2.12.97,3.91,1.65,5.38,2.04,1.47.4,2.81.59,4.02.59,1.46,0,2.58-.29,3.36-.86.78-.57,1.17-1.42,1.17-2.55,0-.63-.17-1.19-.52-1.68-.34-.49-.85-.96-1.51-1.42-.67-.45-2.02-1.18-4.07-2.18-1.92-.92-3.35-1.81-4.31-2.66s-1.72-1.84-2.3-2.97-.86-2.45-.86-3.96c0-2.84.94-5.08,2.82-6.7,1.88-1.63,4.48-2.44,7.8-2.44,1.63,0,3.19.2,4.67.59s3.03.95,4.65,1.67l-2.15,5.3c-1.67-.7-3.06-1.19-4.15-1.47-1.09-.28-2.17-.42-3.23-.42-1.26,0-2.22.3-2.9.9-.67.6-1.01,1.38-1.01,2.35,0,.6.14,1.12.41,1.57s.7.88,1.3,1.3c.59.42,2,1.17,4.22,2.25,2.93,1.44,4.94,2.88,6.03,4.32s1.63,3.21,1.63,5.31Z"/><path class="cls-1" d="m576.32,182.51h-6.54v-14.35c0-3.55-1.29-5.32-3.86-5.32-1.83,0-3.15.64-3.97,1.91-.81,1.27-1.22,3.34-1.22,6.2v11.56h-6.54v-34.2h6.54v6.97c0,.54-.05,1.82-.15,3.82l-.15,1.98h.34c1.46-2.4,3.78-3.6,6.95-3.6,2.82,0,4.96.78,6.42,2.33s2.19,3.78,2.19,6.68v16.02Z"/><path class="cls-1" d="m603.45,170.18c0,4-1.03,7.13-3.09,9.38-2.06,2.26-4.93,3.38-8.6,3.38-2.3,0-4.33-.52-6.09-1.55-1.76-1.03-3.11-2.52-4.06-4.45-.94-1.93-1.42-4.19-1.42-6.77,0-4.01,1.02-7.14,3.07-9.36,2.04-2.23,4.92-3.34,8.62-3.34,2.3,0,4.33.51,6.09,1.54,1.76,1.03,3.11,2.5,4.06,4.42.94,1.92,1.42,4.17,1.42,6.75Zm-16.58,0c0,2.43.39,4.27,1.17,5.52s2.05,1.87,3.81,1.87,3-.62,3.77-1.86c.76-1.24,1.15-3.08,1.15-5.53s-.39-4.26-1.16-5.47-2.04-1.82-3.8-1.82-3,.6-3.78,1.81c-.77,1.21-1.16,3.04-1.16,5.48Z"/><path class="cls-1" d="m620.62,182.95c-2.82,0-5.03-1.05-6.63-3.14h-.34c.23,2.05.34,3.24.34,3.56v9.96h-6.54v-35.39h5.32l.92,3.19h.3c1.53-2.43,3.8-3.65,6.8-3.65,2.83,0,5.05,1.12,6.65,3.36,1.6,2.24,2.4,5.36,2.4,9.34,0,2.62-.38,4.9-1.13,6.83-.75,1.93-1.82,3.41-3.21,4.42-1.39,1.01-3.02,1.52-4.89,1.52Zm-1.93-20.11c-1.62,0-2.8.51-3.54,1.53-.74,1.02-1.13,2.7-1.16,5.04v.73c0,2.64.38,4.53,1.15,5.67.77,1.14,1.98,1.71,3.64,1.71,2.93,0,4.4-2.48,4.4-7.43,0-2.42-.36-4.23-1.08-5.44-.72-1.21-1.86-1.81-3.4-1.81Z"/><path class="cls-1" d="m654.44,182.51l-1.85-8.59-2.49-10.86h-.15l-4.38,19.45h-7.04l-6.82-24.57h6.52l2.77,10.88c.44,1.95.89,4.64,1.35,8.07h.13c.06-1.11.31-2.88.75-5.3l.34-1.87,2.96-11.78h7.21l2.81,11.78c.06.32.15.8.27,1.43.12.63.24,1.3.35,2.01.11.71.22,1.41.31,2.09.09.68.15,1.23.16,1.64h.13c.13-1.05.36-2.5.69-4.34s.56-3.08.71-3.73l2.88-10.88h6.42l-6.91,24.57h-7.12Z"/><path class="cls-1" d="m687.04,182.51l-1.27-3.34h-.17c-1.1,1.42-2.24,2.41-3.4,2.96-1.17.55-2.69.82-4.56.82-2.3,0-4.12-.67-5.44-2.02-1.32-1.35-1.99-3.27-1.99-5.76s.89-4.53,2.67-5.77c1.78-1.24,4.47-1.92,8.06-2.05l4.16-.13v-1.08c0-2.49-1.25-3.74-3.73-3.74-1.92,0-4.17.59-6.76,1.78l-2.17-4.53c2.76-1.48,5.82-2.22,9.18-2.22s5.69.72,7.4,2.15c1.72,1.44,2.58,3.62,2.58,6.55v16.37h-4.57Zm-1.93-11.38l-2.53.09c-1.9.06-3.32.41-4.25,1.05s-1.39,1.63-1.39,2.95c0,1.89,1.06,2.83,3.18,2.83,1.52,0,2.73-.45,3.64-1.34.91-.89,1.36-2.08,1.36-3.56v-2.02Z"/><path class="cls-1" d="m711.21,157.48c.89,0,1.62.07,2.21.2l-.49,6.29c-.53-.15-1.17-.22-1.93-.22-2.09,0-3.72.55-4.88,1.65-1.17,1.1-1.75,2.64-1.75,4.62v12.51h-6.54v-24.57h4.96l.97,4.13h.32c.74-1.38,1.75-2.49,3.01-3.33,1.27-.84,2.64-1.26,4.13-1.26Z"/><path class="cls-1" d="m727.23,182.95c-3.86,0-6.88-1.09-9.05-3.28-2.17-2.18-3.26-5.27-3.26-9.27s1-7.3,3.01-9.55,4.79-3.37,8.33-3.37,6.03.99,7.92,2.97c1.89,1.98,2.83,4.71,2.83,8.2v3.25h-15.47c.07,1.91.62,3.39,1.65,4.46,1.03,1.07,2.47,1.6,4.33,1.6,1.44,0,2.81-.15,4.1-.46s2.63-.8,4.03-1.47v5.19c-1.14.59-2.37,1.02-3.67,1.31s-2.89.43-4.76.43Zm-.92-20.7c-1.39,0-2.47.45-3.26,1.35-.79.9-1.24,2.18-1.35,3.84h9.18c-.03-1.66-.45-2.93-1.27-3.84s-1.92-1.35-3.3-1.35Z"/><path class="cls-1" d="m762.43,161.99c3.03,0,5.45.87,7.24,2.62,1.79,1.74,2.69,4.13,2.69,7.17,0,3.59-1.08,6.35-3.24,8.29-2.16,1.93-5.25,2.9-9.27,2.9-3.49,0-6.31-.58-8.45-1.74v-5.87c1.13.62,2.45,1.12,3.95,1.5,1.5.39,2.93.58,4.27.58,4.05,0,6.07-1.7,6.07-5.1s-2.1-4.86-6.29-4.86c-.76,0-1.6.08-2.51.23-.92.15-1.66.32-2.23.49l-2.64-1.45,1.18-16.37h17.01v5.76h-11.2l-.58,6.31.75-.15c.87-.21,1.95-.31,3.24-.31Z"/></g></svg>