<svg fill="none" height="70" viewBox="0 0 70 70" width="70" xmlns="http://www.w3.org/2000/svg" xmlns:xlink="http://www.w3.org/1999/xlink"><clipPath id="a"><path d="m0 0h70v70h-70z"/></clipPath><g clip-path="url(#a)" fill="#2d70c0"><path d="m0 35v35h35 35v-35-35.00000216h-35-35zm60.9 5.95v8.12h-1.085-1.085v-7-7h-1.085-1.085v-1.085-1.078l1.106-.028c.602-.007 1.582-.028 2.17-.035l1.064-.014zm-48.3-4.585v3.465h2.31 2.31v1.715 1.715h-2.31-2.31v8.855 8.855h-1.715-1.715v-14.035-14.035h1.715 1.715zm19.25 3.731c1.267.392 2.184 1.155 2.723 2.268.567 1.19.532.651.532 7.721 0 4.83-.021 6.384-.091 6.678-.364 1.554-1.568 3.129-2.891 3.78-.987.49-1.064.497-5.523.497-4.48 0-4.529-.007-5.565-.518-1.484-.728-2.653-1.981-3.045-3.255-.266-.854-.301-1.33-.259-3.822.056-3.108.126-3.493.91-4.795.721-1.204 1.701-1.974 2.982-2.331.518-.14.686-.147 5.278-.175l4.739-.021v-.868c0-.476-.035-.952-.077-1.064-.105-.28-.399-.574-.728-.728-.266-.126-.581-.133-5.859-.133h-5.586v-1.715-1.722l5.971.021 5.964.028zm19.355-.035c1.288.371 2.114 1.043 2.646 2.149.616 1.295.574.434.574 11.445 0 10.885.042 10.024-.504 11.158-.378.798-1.176 1.568-2.051 1.988-.805.392-1.533.588-2.513.679-.427.042-3.178.07-6.461.07h-5.726v-1.715-1.715h5.901c5.103 0 5.957-.014 6.314-.112 1.134-.294 1.589-.931 1.694-2.352l.042-.609-4.718-.021-4.718-.021-.49-.168c-1.806-.602-3.136-2.051-3.647-3.962-.126-.462-.133-.854-.133-6.615 0-6.118 0-6.125.154-6.72.413-1.561 1.33-2.604 2.835-3.227 1.001-.413.875-.406 5.831-.392 4.074.021 4.592.035 4.97.14z"/><path d="m23.135 49.749c-.651.133-1.267.469-1.519.819-.385.539-.413.777-.392 3.346l.021 2.331.217.385c.119.21.343.469.49.574.553.392.847.427 3.948.455 3.913.049 4.536-.042 5.229-.714.252-.245.385-.441.441-.651.049-.203.07-1.071.056-2.73-.021-2.338-.028-2.443-.175-2.709-.322-.595-.882-.959-1.75-1.127-.763-.147-5.866-.133-6.566.021z"/><path d="m42.385 43.428c-.749.238-1.246.672-1.484 1.295-.112.294-.126.749-.147 5.432-.021 4.466-.007 5.166.091 5.607.196.896.756 1.582 1.456 1.792.224.07 1.162.091 3.829.091h3.535l.357-.189c.455-.238.826-.665.945-1.092.077-.266.098-1.379.098-5.824 0-5.005-.014-5.53-.119-5.887-.168-.539-.469-.924-.875-1.12l-.336-.168-3.535-.014c-2.723-.014-3.598.007-3.815.077z"/></g></svg>