<svg version="1.1" id="Layer_1" xmlns="http://www.w3.org/2000/svg" x="0" y="0" viewBox="0 0 200 200" xml:space="preserve"><style type="text/css">.st0{display:none}.st1{fill:none}.st1,.st2{display:inline}.st3{fill:#495057}.st4{fill:none}</style><g id="Layer_1_1_" class="st0"><path class="st1" d="M0 0h200v200H0z"/><g id="Livello_2" class="st2"><path d="M121.8 60.1c-9.7-9.4-18.9-18.6-21.6-29.1-2.7 10.4-11.9 19.6-21.6 29.1-14.4 14.4-30.8 30.8-30.8 55.4-.7 28.8 22.4 53 51.2 53.5s53-22.4 53.5-51.2v-2.2c.1-24.7-16.3-41.1-30.7-55.5zm-47.3 60.2c-1.5 2-3 4.2-4 6.5-.2.2-.5.7-1 .7h-.2c-1.2 0-2.5-2.2-2.5-2.2-.2-.5-.7-1.2-1-1.7l-.2-.5c-3.2-7-.5-16.7-.5-16.7 1.2-4.7 3.5-9.4 6.2-13.4 1.7-2.5 3.7-5 5.7-7.5l2.5 2.5 11.7 11.9c.5.5.5 1.2 0 1.7L79 115.3l-4.5 5zm26.1 34.3c-9.9 0-18.2-8.2-17.9-18.2 0-4.5 1.7-8.7 4.5-11.9 3.7-4.5 8.5-9 13.7-14.9 6 6.5 9.9 10.7 13.7 15.7.2.2.5.7.7 1.2 2 3 3.2 6.5 3.2 10.2.3 9.9-7.9 17.9-17.9 17.9zm34.1-28.9c-.2.7-1 1.2-1.7 1.5h-.2c-.7-.2-1.2-.7-1.7-1.2-3.2-4.7-6.7-9.2-10.7-13.2l-4.7-5-16.1-16.4c-3.2-3-6.5-6.5-9.4-9.7 0-.2-.2-.2-.2-.2-.5-.7-1-1.5-1.2-2.5v-.5c-.5-2.7.5-5.5 2.5-7.5 3-3 6.2-6.2 9.2-9.4 3.2 3.5 6.7 7 10.2 10.4 7 6.5 13.2 13.7 18.9 21.4 4.7 6.7 7.2 14.4 7.2 22.6-.6 3-1.1 6.5-2.1 9.7z" id="Livello_1-2"/></g></g><g id="Layer_2_1_" class="st0"><g id="W_Mark_2_" class="st2"><path d="M100 37c8.5 0 16.8 1.7 24.5 4.9 3.7 1.6 7.3 3.5 10.7 5.8 3.3 2.3 6.5 4.8 9.3 7.7 2.9 2.9 5.4 6 7.7 9.3 2.3 3.4 4.2 7 5.8 10.7 3.3 7.8 4.9 16 4.9 24.5s-1.7 16.8-4.9 24.5c-1.6 3.7-3.5 7.3-5.8 10.7-2.3 3.3-4.8 6.5-7.7 9.3-2.9 2.9-6 5.4-9.3 7.7-3.4 2.3-7 4.2-10.7 5.8-7.8 3.3-16 4.9-24.5 4.9s-16.8-1.7-24.5-4.9c-3.7-1.6-7.3-3.5-10.7-5.8-3.3-2.3-6.5-4.8-9.3-7.7-2.9-2.9-5.4-6-7.7-9.3-2.3-3.4-4.2-7-5.8-10.7-3.3-7.8-4.9-16-4.9-24.5s1.7-16.8 4.9-24.5c1.6-3.7 3.5-7.3 5.8-10.7 2.3-3.3 4.8-6.5 7.7-9.3 2.9-2.9 6-5.4 9.3-7.7 3.4-2.3 7-4.2 10.7-5.8 7.7-3.2 16-4.9 24.5-4.9m0-4c-37 0-67 30-67 67s30 67 67 67 67-30 67-67-30-67-67-67z"/><path d="M44.2 100c0 22.1 12.8 41.2 31.5 50.2L49 77.3c-3.1 6.9-4.8 14.6-4.8 22.7zm93.5-2.8c0-6.9-2.5-11.7-4.6-15.4-2.8-4.6-5.5-8.5-5.5-13.1 0-5.1 3.9-9.9 9.4-9.9h.7c-9.9-9.1-23.2-14.7-37.7-14.7-19.5 0-36.7 10-46.7 25.2 1.3 0 2.5.1 3.6.1 5.8 0 14.9-.7 14.9-.7 3-.2 3.4 4.2.4 4.6 0 0-3 .4-6.4.5l20.3 60.5 12.2-36.6-8.7-23.8c-3-.2-5.9-.5-5.9-.5-3-.2-2.7-4.8.4-4.6 0 0 9.2.7 14.7.7 5.8 0 14.9-.7 14.9-.7 3-.2 3.4 4.2.4 4.6 0 0-3 .4-6.4.5l20.2 60 5.8-18.3c2.5-8 4-13.6 4-18.4zm-36.7 7.7l-16.8 48.7c5 1.5 10.3 2.3 15.8 2.3 6.5 0 12.7-1.1 18.5-3.2-.1-.2-.3-.5-.4-.8l-17.1-47zm48-31.7c.2 1.8.4 3.7.4 5.7 0 5.7-1.1 12-4.2 20l-17.1 49.3c16.6-9.7 27.8-27.7 27.8-48.3-.1-9.6-2.5-18.7-6.9-26.7z"/></g><path class="st1" d="M0 0h200v200H0z"/></g><g id="Layer_3"><path class="st3" d="M129.4 121.9c-1.7.6-3 .7-4.8.7-14.7 0-36.3-51.4-36.3-68.4 0-6.3 1.5-8.4 3.6-10.1-18 2.1-39.6 8.6-46.5 17-1.6 2-2.4 5.4-2.4 9.6 0 26.7 28.4 87.2 48.5 87.2 9.3-.1 25-15.3 37.9-36M120 42.2c18.5 0 37 3 37 13.5 0 21.3-13.5 46.9-20.4 46.9-12.2 0-27.6-34.2-27.6-51.2.2-7.7 3.2-9.2 11-9.2"/><path class="st4" d="M0 0h200v200H0z"/></g></svg>