<svg fill="none" height="60" viewBox="0 0 60 60" width="60" xmlns="http://www.w3.org/2000/svg"><path d="m39.2053 14.0001c-1.7516.0083-3.4757.43-5.0286 1.2298-1.5528.7998-2.8892 1.9545-3.8978 3.3678-1.0067-1.415-2.3428-2.5711-3.896-3.3711s-3.2783-1.2206-5.0303-1.2265c-1.4916-.0028-2.9692.2851-4.3478.8471s-2.6313 1.3871-3.686 2.428c-1.0548 1.0409-1.8909 2.277-2.4604 3.6375s-.86121 2.8186-.8584 4.2907c0 8.8089 20.2617 24.7966 20.2617 24.7966s20.2575-15.9877 20.2575-24.7966c.0108-1.471-.2742-2.9295-.8385-4.2911-.5642-1.3616-1.3966-2.5992-2.4488-3.6411-1.0522-1.042-2.3035-1.8676-3.6812-2.4291-1.3778-.5615-2.8548-.8477-4.3454-.842z" fill="#87bc2a"/></svg>