<svg width="44" height="44" viewBox="0 0 44 44" fill="none" xmlns="http://www.w3.org/2000/svg">
<g id="upsun_logo">
<g id="Logo">
<path d="M22.0051 0C9.85576 0 0 9.84559 0 22.0051H11C11.0254 15.9228 15.9533 11.0051 22.0203 11.0051C28.0874 11.0051 33.0203 15.933 33.0203 22.0051H44.0203C44.0153 9.85576 34.1697 0 22.0051 0Z" fill="#0E1113"/>
<path d="M33.0153 22.0051H11.0203C11.0203 26.7651 14.0513 30.8285 18.2876 32.3491V32.5372H2.7055C6.4332 39.3671 13.6902 44 22.0305 44C30.3708 44 37.6126 39.3671 41.3555 32.5372H25.748V32.3491C29.9894 30.8183 33.0153 26.7651 33.0153 22.0051Z" fill="#0E1113"/>
</g>
</g>
</svg>
