<?xml version="1.0" standalone="no"?>
<!DOCTYPE svg PUBLIC "-//W3C//DTD SVG 20010904//EN"
 "http://www.w3.org/TR/2001/REC-SVG-20010904/DTD/svg10.dtd">
<svg version="1.0" xmlns="http://www.w3.org/2000/svg"
 width="700.000000pt" height="700.000000pt" viewBox="0 0 700.000000 700.000000"
 preserveAspectRatio="xMidYMid meet">
<metadata>
Created by potrace 1.14, written by Peter Selinger 2001-2017
</metadata>
<circle cx="350" cy="350" r="350" fill="#ffff80" stroke="#cccc00" stroke-width="2"/>
<g transform="translate(0.000000,700.000000) scale(0.100000,-0.100000)"
fill="#000000" stroke="none">
<path d="M3020 5173 c-8 -3 -19 -12 -23 -19 -7 -13 -77 -37 -107 -37 -8 0 -27
-8 -42 -18 -14 -11 -31 -19 -37 -19 -6 0 -11 -4 -11 -10 0 -5 -6 -10 -14 -10
-7 0 -19 -7 -26 -15 -7 -8 -28 -15 -46 -15 -28 0 -36 -5 -44 -25 -5 -14 -17
-28 -25 -31 -10 -4 -13 -13 -10 -25 4 -11 2 -19 -4 -19 -5 0 -20 -17 -32 -37
-42 -68 -95 -123 -117 -123 -8 0 -12 -6 -9 -15 4 -8 2 -17 -3 -20 -6 -4 -10
-17 -10 -31 0 -14 -4 -23 -8 -20 -4 2 -6 -10 -4 -29 3 -26 -1 -36 -17 -44 -12
-7 -21 -18 -21 -26 0 -8 -4 -15 -10 -15 -5 0 -10 -11 -10 -24 0 -13 -9 -35
-20 -48 -18 -23 -22 -80 -6 -95 3 -3 -16 -32 -42 -65 -33 -42 -47 -70 -49 -96
-1 -19 -5 -42 -9 -51 -4 -9 -8 -28 -10 -42 -5 -38 -22 -79 -33 -79 -5 0 -7 -9
-4 -20 3 -12 -1 -22 -11 -26 -11 -4 -13 -11 -7 -23 7 -12 0 -31 -25 -71 -36
-58 -42 -101 -22 -145 9 -20 9 -28 0 -33 -6 -5 -8 -13 -3 -21 6 -9 0 -26 -16
-49 -19 -29 -24 -47 -22 -92 2 -50 -7 -104 -32 -187 -5 -17 -7 -42 -4 -55 6
-24 -3 -75 -30 -173 -15 -50 -15 -70 -6 -122 9 -47 8 -73 -1 -107 -9 -35 -9
-50 1 -73 7 -15 9 -29 4 -30 -5 -2 -7 -20 -4 -41 2 -20 3 -72 2 -115 -2 -65 1
-81 18 -104 12 -14 29 -51 38 -82 9 -31 22 -66 31 -78 13 -20 12 -23 -2 -29
-9 -3 -16 -12 -16 -19 0 -7 -13 -25 -30 -38 -16 -14 -30 -30 -30 -36 0 -6 -6
-11 -14 -11 -9 0 -16 -16 -20 -43 -7 -44 -7 -44 -60 -56 -46 -10 -62 -20 -105
-68 -28 -30 -51 -59 -51 -62 0 -4 -16 -15 -35 -24 -19 -9 -35 -22 -35 -29 0
-17 -38 -41 -50 -33 -6 4 -10 2 -10 -4 0 -5 -12 -12 -27 -16 -18 -4 -34 -18
-44 -38 -12 -24 -22 -31 -39 -29 -12 2 -35 -2 -51 -8 -24 -11 -27 -16 -23 -44
14 -78 46 -126 99 -146 36 -14 45 -13 45 5 0 9 6 12 15 9 11 -5 13 -2 9 10 -8
22 49 78 71 69 11 -4 21 0 27 10 6 11 22 17 45 17 23 0 47 9 72 29 20 15 43
26 51 24 10 -3 9 0 -3 7 -21 13 -22 30 -2 30 8 0 15 8 15 18 0 9 10 22 22 27
13 6 27 19 33 31 6 11 16 19 23 16 6 -2 12 1 12 7 0 6 7 11 15 11 8 0 15 7 15
15 0 8 7 15 15 15 8 0 15 4 15 9 0 5 13 14 30 21 16 7 36 23 45 36 8 13 22 24
30 24 8 0 25 16 39 36 l24 36 31 -45 c37 -54 44 -57 131 -57 45 0 87 -7 118
-19 40 -16 57 -18 91 -10 23 5 46 7 52 4 5 -4 9 6 9 21 0 24 3 26 35 22 19 -2
35 0 35 4 0 5 8 4 18 -1 13 -7 23 -3 42 16 19 20 30 23 58 18 22 -4 41 -1 55
8 12 8 37 18 55 21 17 4 35 13 39 20 8 12 36 27 58 32 30 6 55 17 55 25 0 5 7
9 16 9 9 0 14 6 11 13 -3 8 9 21 28 32 19 9 36 24 39 31 3 8 15 14 26 14 12 0
34 12 50 27 15 16 38 29 51 31 13 1 26 7 27 12 2 6 10 10 18 10 8 0 14 5 14
10 0 6 8 10 18 10 10 0 36 15 58 33 21 19 47 36 56 40 24 9 55 62 63 109 4 21
12 38 19 38 34 0 85 53 126 132 39 75 90 144 90 122 0 -9 16 17 42 66 15 28
66 80 79 80 5 0 9 9 9 20 0 11 4 20 9 20 5 0 12 21 16 47 l7 46 26 -45 c15
-25 47 -61 71 -79 25 -19 52 -47 61 -64 26 -47 88 -86 128 -80 27 5 37 1 60
-24 25 -28 94 -65 103 -56 13 13 124 12 155 -1 27 -11 39 -12 49 -4 15 13 122
16 176 5 29 -5 42 -2 73 18 20 14 50 28 66 32 17 4 30 10 30 13 0 4 20 8 45
10 34 2 61 14 110 47 36 25 71 45 79 45 8 0 17 7 20 16 3 8 10 12 16 9 6 -3
13 1 16 9 3 9 11 16 17 16 24 0 137 63 142 79 3 10 19 21 35 24 16 4 41 17 56
29 61 52 112 104 123 126 6 12 20 22 31 22 11 0 31 18 50 45 19 27 39 45 50
45 11 0 20 7 20 15 0 8 4 15 8 15 12 0 32 46 32 73 0 13 16 52 35 87 55 104
85 168 85 182 0 8 4 18 9 23 5 6 13 27 16 47 8 40 2 47 -46 51 -13 1 -38 12
-56 25 -33 24 -63 29 -63 11 0 -6 -16 -29 -35 -52 -23 -26 -33 -47 -30 -58 4
-10 -2 -33 -11 -51 -16 -33 -28 -48 -71 -92 -13 -13 -23 -31 -23 -40 0 -9 -4
-16 -8 -16 -5 0 -14 -18 -21 -40 -6 -22 -16 -40 -21 -40 -6 0 -10 -7 -10 -16
0 -8 -4 -12 -10 -9 -5 3 -10 2 -10 -4 0 -5 -18 -27 -40 -49 -22 -21 -40 -44
-40 -50 0 -7 -6 -12 -14 -12 -8 0 -17 -9 -21 -20 -3 -11 -34 -33 -71 -51 -35
-17 -64 -35 -64 -40 0 -5 -7 -6 -15 -3 -9 4 -15 0 -15 -10 0 -9 -7 -16 -15
-16 -8 0 -15 -4 -15 -9 0 -5 -21 -17 -47 -27 -27 -9 -55 -26 -64 -37 -9 -11
-21 -17 -26 -14 -6 4 -16 0 -23 -8 -7 -8 -18 -15 -26 -15 -7 0 -17 -6 -21 -13
-13 -19 -54 -35 -111 -42 -57 -6 -86 -19 -113 -47 -13 -14 -22 -16 -47 -8 -20
5 -32 5 -32 -1 0 -14 -27 -11 -60 6 -16 8 -31 11 -34 6 -8 -12 -58 -11 -73 1
-7 6 -13 6 -13 1 0 -5 -20 -10 -45 -11 -34 -1 -51 4 -66 19 -24 24 -64 40 -83
33 -8 -3 -17 -1 -21 5 -3 6 -15 11 -25 11 -11 0 -35 16 -54 35 -20 19 -39 35
-45 35 -5 0 -12 16 -15 36 -4 19 -14 38 -22 41 -8 3 -14 19 -14 41 0 23 -10
50 -27 74 -20 30 -23 42 -15 50 7 7 12 25 12 40 0 15 5 28 10 28 6 0 10 14 10
30 0 17 4 30 8 30 4 0 21 26 37 58 17 31 34 60 38 63 4 3 5 13 2 21 -8 20 19
73 40 82 11 4 14 13 9 32 -7 27 14 131 28 140 4 3 8 25 8 48 0 28 7 52 18 66
14 18 18 35 14 70 -3 37 0 52 14 66 16 16 18 27 12 59 -4 22 -7 71 -7 109 -1
55 -6 77 -23 103 -14 20 -29 31 -37 28 -10 -4 -11 -2 -3 8 6 7 7 18 2 26 -4 8
-6 20 -3 26 5 13 -61 74 -99 92 -68 31 -100 43 -116 43 -10 0 -57 -41 -105
-90 -75 -79 -87 -95 -87 -126 0 -39 -21 -114 -32 -114 -5 0 -8 -10 -8 -22 0
-22 -29 -108 -39 -118 -12 -11 -13 -90 -1 -90 8 0 9 -7 5 -17 -15 -37 -22 -81
-15 -94 5 -7 -1 -31 -13 -55 -20 -42 -20 -45 -4 -79 18 -39 23 -95 8 -95 -10
0 -3 -65 9 -89 4 -8 3 -22 -3 -32 -8 -13 -4 -39 15 -106 45 -154 48 -176 32
-194 -8 -8 -14 -22 -14 -31 0 -8 -9 -23 -20 -33 -25 -23 -50 -72 -50 -98 0
-13 -5 -17 -15 -13 -11 4 -15 -1 -15 -18 0 -13 -12 -37 -27 -54 -44 -48 -53
-60 -53 -70 0 -12 -65 -62 -80 -62 -6 0 -8 -5 -5 -10 4 -6 1 -17 -5 -25 -6 -8
-9 -19 -5 -25 3 -5 0 -10 -8 -10 -16 0 -27 -21 -27 -50 0 -25 -57 -90 -79 -90
-9 0 -25 -13 -34 -30 -10 -16 -22 -30 -28 -30 -5 0 -9 -7 -9 -16 0 -8 -5 -12
-11 -9 -6 4 -9 1 -8 -6 5 -25 -11 -56 -36 -69 -14 -7 -27 -20 -30 -29 -5 -17
-163 -101 -188 -101 -8 0 -17 -7 -21 -15 -3 -8 -14 -15 -25 -15 -11 0 -40 -20
-65 -44 -24 -24 -69 -57 -100 -72 -54 -26 -56 -27 -76 -9 -11 10 -20 13 -20 7
0 -5 -18 -13 -39 -17 -28 -5 -49 -17 -74 -45 -37 -42 -96 -62 -121 -41 -8 7
-17 8 -20 3 -8 -13 -59 -1 -73 17 -7 9 -13 11 -13 6 0 -15 -37 -16 -48 -2 -5
7 -12 29 -16 49 -5 30 -3 37 12 42 10 3 26 19 35 36 10 16 23 30 28 30 6 0 7
9 4 20 -7 21 6 39 41 58 12 6 29 27 38 47 9 19 22 35 29 35 7 0 13 13 14 30 1
20 15 41 43 66 25 23 40 45 40 60 0 13 5 24 10 24 6 0 15 20 22 45 9 33 15 42
24 34 9 -7 17 -1 28 22 9 18 16 40 16 51 0 10 7 18 18 18 9 0 24 13 32 29 31
58 75 120 86 121 7 0 17 27 22 60 6 34 20 69 31 82 12 12 21 27 21 34 0 6 7
14 15 18 8 3 15 11 15 17 0 7 11 26 24 43 30 40 37 64 38 126 0 31 6 58 17 72
24 31 66 121 63 132 -7 21 24 100 45 116 12 9 19 20 15 24 -3 4 0 11 8 16 11
7 12 14 3 33 -14 30 -6 67 13 67 8 0 15 12 16 28 3 52 4 57 12 70 4 7 4 21 1
32 -4 14 -1 22 10 26 10 4 14 13 10 23 -19 45 1 141 28 141 5 0 2 12 -8 26
-11 17 -13 29 -7 33 7 4 7 12 3 20 -11 17 -2 182 11 198 6 7 1 34 -12 74 -18
51 -19 68 -10 83 7 10 10 43 9 75 -2 31 0 62 5 70 6 8 -4 37 -28 83 -20 38
-36 82 -36 98 0 29 -30 70 -50 70 -6 0 -23 8 -37 18 -15 9 -52 22 -82 29 -63
13 -70 14 -91 6z m60 -232 c0 -10 7 -36 16 -57 10 -24 18 -74 19 -129 2 -49 3
-93 4 -97 1 -3 10 -4 21 -1 25 7 26 -11 4 -62 -9 -21 -17 -59 -18 -84 -2 -25
-9 -66 -15 -89 -10 -37 -10 -52 3 -90 22 -62 20 -98 -5 -123 -16 -16 -20 -29
-16 -54 3 -20 0 -41 -9 -53 -8 -11 -11 -28 -8 -37 4 -9 -1 -24 -11 -35 -9 -10
-14 -23 -11 -29 8 -13 -41 -197 -62 -233 -9 -16 -22 -28 -30 -28 -9 0 -10 -5
-2 -19 8 -16 5 -26 -16 -50 -14 -17 -30 -29 -35 -25 -5 3 -5 -5 0 -19 7 -18 5
-31 -8 -51 -10 -14 -21 -23 -24 -19 -4 3 -7 2 -7 -4 0 -22 15 -23 32 -1 16 20
18 21 18 4 0 -10 -11 -31 -25 -48 -14 -16 -25 -38 -25 -49 0 -10 -4 -19 -10
-19 -5 0 -10 -5 -10 -10 0 -6 -18 -27 -40 -47 -23 -20 -39 -42 -36 -50 10 -25
-6 -103 -20 -103 -8 0 -14 -4 -14 -10 0 -5 -7 -10 -15 -10 -8 0 -15 -6 -15
-14 0 -36 -60 -138 -88 -151 -12 -5 -22 -18 -24 -29 -2 -11 -13 -26 -25 -32
-13 -6 -21 -13 -18 -16 8 -8 -21 -71 -44 -95 -12 -12 -21 -29 -21 -38 0 -9 -7
-18 -15 -21 -8 -3 -26 -30 -40 -60 -14 -30 -46 -75 -70 -101 -25 -26 -45 -50
-45 -55 0 -4 -6 -8 -13 -8 -7 0 -21 22 -30 48 -14 39 -19 94 -22 283 -3 129
-6 243 -7 254 -2 13 5 23 20 30 35 15 40 64 16 159 -5 23 -2 32 14 45 14 11
22 30 25 58 2 24 6 45 9 49 4 3 4 31 1 61 -5 41 -3 54 5 49 8 -5 12 0 12 13 0
12 3 21 8 21 4 0 13 13 20 30 11 23 11 41 3 81 -12 57 0 126 30 169 9 14 20
48 24 75 7 50 46 130 57 119 4 -3 4 21 1 54 -5 55 -4 60 16 67 11 3 21 14 21
24 0 10 9 30 20 44 12 14 20 40 20 61 0 20 9 53 20 73 11 21 20 46 20 56 0 24
31 77 45 77 6 0 19 24 29 52 10 29 27 59 37 66 11 7 19 23 19 35 0 18 2 19 10
7 8 -13 10 -12 10 3 0 9 4 17 8 17 5 0 13 17 18 38 9 35 11 37 46 34 27 -3 42
2 58 18 12 12 31 23 43 24 27 3 67 27 67 41 0 12 62 44 73 38 4 -2 7 -12 7
-22z m1105 -551 c8 -46 -1 -80 -20 -80 -28 0 -34 -77 -10 -124 19 -36 19 -38
-6 -64 -11 -12 -17 -26 -14 -31 3 -5 -3 -16 -14 -23 -13 -9 -17 -19 -11 -28 4
-7 4 -23 0 -36 -5 -12 -6 -31 -4 -42 3 -11 -4 -38 -15 -60 -12 -23 -21 -50
-21 -62 0 -38 -18 -20 -27 28 -12 61 -10 109 7 147 8 18 13 56 11 95 -2 37 4
92 13 127 9 33 16 73 16 87 0 14 4 26 9 26 5 0 22 18 38 40 15 22 31 40 35 40
3 0 9 -18 13 -40z"/>
</g>
</svg>
