<?xml version="1.0" encoding="utf-8"?>
<svg class="h-[38px]" viewBox="0 -20 1266.26 276.9" fill="#000" xmlns="http://www.w3.org/2000/svg" aria-hidden="true">
  <path d="M356.62,185.85c-6.06,5.31-13.85,7.95-23.37,7.95-7.58,0-14.18-2.11-19.8-6.33-5.63-4.22-9.9-9.85-12.82-16.88-1.86-4.48-3.13-9.3-3.8-14.45h122.13c.86-22.07-2-41.01-8.6-56.81-6.6-15.8-16.51-27.81-29.7-36.03-13.2-8.22-29.87-12.34-49.99-12.34s-36.15,3.95-50.64,11.85c-14.5,7.9-25.65,19.1-33.44,33.6-7.79,14.5-11.69,31.49-11.69,50.97,0,18.18,4,33.98,12.01,47.4,8,13.42,19.37,23.75,34.09,31,14.71,7.25,32.03,10.87,51.94,10.87,17.53,0,33.97-3.52,49.34-10.55,15.36-7.03,28.35-18.12,38.95-33.27l-50.32-27.92c-3.46,8.66-8.23,15.64-14.28,20.94ZM300.3,116.22c2.7-8.44,6.65-14.82,11.85-19.15,5.19-4.33,11.36-6.49,18.5-6.49,7.79,0,13.69,2.11,17.69,6.33,4,4.22,6.82,9.74,8.44,16.56.36,1.49.67,3.07.94,4.71h-58c.19-.65.37-1.32.57-1.95Z" />
  <path d="M624.47,94.63c-6.71-13.96-16.39-24.72-29.05-32.3-12.66-7.57-27.32-11.36-43.99-11.36-11.69,0-22.4,2.87-32.14,8.6-9.74,5.74-18.97,15.3-24.02,34.21V0h-60.06v232.11h60.06v-40.21c3.55,15.82,14.32,29.81,24.51,36.48,9.45,6.18,20.4,8.28,31.65,8.28,16.88,0,31.6-3.79,44.15-11.36,12.55-7.57,22.18-18.34,28.89-32.3,6.71-13.96,10.06-30.35,10.06-49.18s-3.36-35.22-10.06-49.18ZM573.1,157.51c-10.79,30.04-35.22,39.05-54.29,32.2-19.2-6.9-32.18-29.35-21.39-59.39,10.58-29.46,35.36-39,54.29-32.2,18.93,6.8,31.97,29.93,21.39,59.39Z" />
  <path d="M849.13,232.11c-1.73-12.98-2.6-27.05-2.6-42.2V0h-60.05v93.78c-4.83-16.62-13.84-27.65-24.51-34.53-9.49-6.12-20.29-8.28-31.33-8.28-16.88,0-31.6,3.79-44.15,11.36-12.55,7.58-22.24,18.34-29.05,32.3-6.82,13.96-10.23,30.35-10.23,49.18s3.41,35.22,10.23,49.18c6.82,13.96,16.5,24.73,29.05,32.3,12.55,7.57,27.27,11.36,44.15,11.36,11.47,0,22.3-2.51,31.81-8.6,10.67-6.83,20.7-21.08,24.02-36.16v40.21h62.65ZM783.54,157.61c-10.79,30.04-35.22,39.05-54.29,32.2-19.2-6.9-32.18-29.35-21.39-59.39,10.58-29.46,35.36-39,54.29-32.2,18.93,6.8,31.97,29.93,21.39,59.39Z" />
  <path d="M1054.9,115.57c0-11.25-2.33-21.75-6.98-31.49-4.66-9.74-11.85-17.69-21.59-23.86-9.74-6.17-21.86-9.25-36.36-9.25-9.74,0-18.78,1.9-27.11,5.68-8.33,3.79-15.64,9.04-21.91,15.74-6.28,6.71-11.47,11.97-15.58,21.06v-37.94h-60.06v176.6h60.06v-76.94c0-10.82,1.84-20.78,5.52-29.86,3.68-9.09,8.65-16.18,14.93-21.26,6.27-5.08,13.09-7.63,20.45-7.63,9.3,0,16.39,2.71,21.26,8.12,4.87,5.41,7.3,13.1,7.3,23.05v104.53h62.65c-1.73-12.98-2.6-27.05-2.6-42.2v-74.34Z" />
  <path d="M1253.51,198.35c-2.82,0-4.93-.92-6.33-2.76-1.41-1.84-2.22-4.71-2.43-8.6v-65.57c0-14.5-2.71-27.05-8.12-37.66-5.41-10.6-13.96-18.72-25.65-24.35-11.69-5.62-26.94-8.44-45.77-8.44s-37.39,3.85-53.72,11.52c-16.34,7.68-30.9,18.78-43.66,33.27l39.93,31.49c7.14-11.25,15.15-19.64,24.02-25.16,8.87-5.52,17.74-8.28,26.62-8.28s15.15,2.33,19.48,6.98c3.38,3.64,5.44,8.9,6.18,15.78-23.97,2.17-44.16,6.16-60.55,11.98-18.29,6.49-31.87,14.77-40.74,24.83-8.88,10.06-13.31,21.05-13.31,32.95,0,14.72,5.14,26.78,15.42,36.2,10.28,9.41,24.51,14.12,42.69,14.12,16.66,0,30.03-4.11,40.09-12.34,8.09-6.61,13.77-11.41,18.5-30.71,1.79,18,5.89,23.64,11.53,29.41,8.87,9.09,21.1,13.63,36.68,13.63,4.54,0,9.14-.38,13.8-1.14.91-.15,1.78-.32,2.65-.5l15.19-38.09c-2.5.55-10.32,1.42-12.48,1.42ZM1179.66,171.89c-3.14,5.52-7.52,9.79-13.15,12.82-5.63,3.03-12.12,4.54-19.48,4.54-4.76,0-8.5-1.03-11.2-3.08-2.71-2.05-4.06-4.92-4.06-8.6,0-4.11,2-7.84,6.01-11.2,4-3.35,10.49-6.27,19.48-8.77,7.24-2,16.27-3.62,27.09-4.86-.07,7.36-1.63,13.74-4.69,19.14Z" />
  <path d="M187.08,54.76s-.22,5.18-2.35,12.82c-1.07,3.82-8.8,27.82-16.32,49.77-6.73,19.63-12.9,37.51-12.9,37.51,0,0-.4-21.41-1.07-37.63-.7-17.11-5.11-62.47-5.11-62.47h-51.73s-13.67,37.13-22.11,61.89c-8.44,24.76-13.09,38.42-13.09,38.42,0,0-.14-11.59-.66-38.62-.41-21.07-4.11-61.7-4.11-61.7H0l18.48,177.45h58.68l35.61-84.02,6.17,84.02h58.71L247.1,54.76h-60.02Z" />
</svg>
