<?xml version="1.0" encoding="UTF-8"?>
<svg id="b" xmlns="http://www.w3.org/2000/svg" version="1.1" viewBox="0 -75 1263.9 291.6">
  <!-- Generator: Adobe Illustrator 29.0.0, SVG Export Plug-In . SVG Version: 2.1.0 Build 186)  -->
  <defs>
    <style>
      .st0 {
        fill: #f8f7ff;
      }
    </style>
  </defs>
  <g id="c">
    <path class="st0" d="M144.3,88.9c-.3,1.3-.6,2.7-.9,4.4s-.7,3.4-1.1,5.3-.7,3.7-1,5.6-.7,3.5-.9,5h-1c-.3-2-.7-4.4-1.1-7s-.9-5.1-1.3-7.5-.8-4.4-1.2-5.7L115.2,0h-35.1l-20.8,88.9c0,1-.3,2.2-.6,3.8s-.6,3.3-.9,5.2-.6,3.9-.8,5.8-.4,3.7-.7,5.3h-1c-.3-2-.6-4.4-1-7-.4-2.6-.8-5.1-1.2-7.5s-.8-4.4-1.2-5.7L29.4,0H0l37.9,141.2h33.3l21.9-90.9c.4-1.8.8-3.7,1.2-6.2s.8-5,1.1-7.7c.3-2.4.6-4.7.7-7.1h.8c.3,1.9.6,4.4,1,6.7s.9,5,1.4,7.6.9,4.8,1.3,6.7l22.2,90.9h31.9L193,0h-26.3l-22.4,88.8h0ZM240.8,80.9h73.7v-23.5h-73.7V23.5h83V0h-110.9v141.2h112.2v-23.4h-84.2s0-36.8,0-36.8ZM457.9,74.3c-4.1-3.1-8.9-5.2-14-6.3v-.8c4.3-1.4,8.3-3.7,11.9-6.6,3.6-3,6.4-6.7,8.3-10.9,2.1-4.7,3.2-9.7,3.1-14.8.1-6.5-1.7-12.9-5.2-18.3-3.5-5.3-8.4-9.5-14.1-12.1-6.3-3-13.3-4.5-20.3-4.4h-78v141.2l78,.4c7.5,0,15-1.4,21.9-4.4,6.4-2.7,11.8-7.1,15.7-12.8,4.1-6.5,6.2-14.2,5.9-21.9.1-5.7-1.1-11.2-3.5-16.4-2.2-4.6-5.6-8.7-9.7-11.8h0ZM377.3,23.3h43.9c4.5-.2,8.9,1.4,12.3,4.4,3.4,3.5,5.2,8.3,4.7,13.2,0,3-.7,6.1-2.1,8.8-1.5,2.5-3.6,4.5-6.2,5.7-3.1,1.5-6.6,2.3-10.1,2.2h-42.6V23.3h0ZM437.1,113.4c-3.8,3.1-8.6,4.6-13.5,4.4h-46.3v-37.3h44.6c4-.2,7.9.7,11.5,2.4,2.9,1.4,5.2,3.7,6.7,6.6,1.5,3.1,2.2,6.4,2.1,9.8.5,5.3-1.5,10.5-5.3,14.2h0ZM618.3,0h-34.2l-62,65.1V0h-27.7v141.2h27.7v-44.4l22.7-20,41.4,64.2h33.2l-55.6-84L618.3,0ZM640.5,141.2h27.8V0h-27.8v141.2h0ZM795.7,93h-1c-.6-1.2-1.2-2.3-2-3.4-.9-1.4-1.8-2.8-2.8-4.4s-1.9-2.8-2.6-3.7L728,0h-26.3v141.2h26.6V47.6h1c.7,1.1,1.8,2.8,3.2,5.2s2.8,4.4,4,6.1l59.5,82.3h26.3V0h-26.6v92.9h0ZM969.2,30.7c-5.2-10-13.4-18.1-23.6-23.1-11.5-5.4-24.2-8-36.9-7.6h-56.8v141.2h56.8c12.7.4,25.4-2.2,36.9-7.6,10.2-5,18.4-13.2,23.6-23.2,5.9-12.4,8.7-26,8.2-39.8.5-13.8-2.3-27.5-8.2-39.9ZM948.7,73.1c.1,6.6-.7,13.2-2.5,19.5-1.5,5.1-4.1,9.9-7.6,13.9-3.5,3.8-7.8,6.7-12.5,8.5-5.5,2-11.3,3-17.2,2.9h-29V23.5h29c5.9-.1,11.7.9,17.2,2.9,4.8,1.8,9.1,4.7,12.5,8.5,3.5,4,6.1,8.8,7.6,13.9,1.8,6.4,2.7,13,2.5,19.7v4.7h0ZM1028.5,80.9h73.7v-23.5h-73.7V23.5h83V0h-111v141.2h112.2v-23.4h-84.2s0-36.8,0-36.8ZM1234.7,84.5c7.5-3.4,13.8-9.1,18-16.2,4.3-7.4,6.6-15.8,6.4-24.4.2-8-1.5-16-5.1-23.2-3.5-6.6-8.9-11.9-15.5-15.3-8.1-3.8-17-5.7-25.9-5.3h-75.2v141.2h27.8v-52.2h42.6l25.6,52.3h30.4l-29.2-56.8h0ZM1225.2,60.2c-4.1,4.1-9.8,6.2-15.5,5.9h-44.5V23.5h44.8c3.9-.1,7.8.7,11.4,2.4,3,1.5,5.5,4,7.1,7,1.7,3.4,2.5,7.2,2.4,11.1.4,5.9-1.6,11.8-5.4,16.3h-.2Z"/>
  </g>
</svg>