<?xml version="1.0" encoding="UTF-8"?>
<svg xmlns="http://www.w3.org/2000/svg" viewBox="0 0 1184.45 1106.16">
  <path d="M1153.45 363.2c-65.29-162.15-187.61-183.54-351.67-252.62C633 39.52 511.98-37.37 313.58 20.11 72.68 89.91-6.43 295.01.4 515.9c17.25 557.77 496.17 755.57 946.05 439.95 207.53-145.59 287.91-391.71 207-592.65Z" class="color-background shadow-light" fill="#f9db62" />
  <path d="M522.72 587.94c-.66 1.99-1.33 4.32-1.99 6.97-.67 2.66-1.44 5.48-2.32 8.47-.89 2.99-1.72 5.98-2.49 8.97-.78 2.99-1.49 5.7-2.16 8.14h-1.99c-.45-3.32-1.16-7.08-2.16-11.29-1-4.2-1.99-8.25-2.99-12.12-1-3.87-1.83-6.92-2.49-9.13l-42.84-146.77h-69.4l-42.5 146.77c-.45 1.55-1 3.6-1.66 6.14-.67 2.55-1.33 5.37-1.99 8.47-.67 3.1-1.39 6.2-2.16 9.3-.78 3.1-1.39 5.98-1.83 8.63h-1.99c-.66-3.32-1.55-7.08-2.66-11.29-1.11-4.2-2.16-8.25-3.15-12.12-1-3.87-1.94-6.92-2.82-9.13l-45.82-146.77h-54.79l77.37 228.13h64.09l43.83-149.43c.88-2.66 1.83-5.98 2.82-9.96 1-3.98 2.04-8.14 3.16-12.45 1.1-4.32 1.88-8.14 2.32-11.46h1.66c.44 3.1 1.05 6.7 1.83 10.79.77 4.1 1.71 8.19 2.82 12.29 1.11 4.1 2.1 7.69 2.99 10.79l45.49 149.43h61.76l77.7-228.13h-49.48l-46.16 146.77ZM809.61 536.13l108.59-94.97h-66.08L711.66 563.69V441.16h-50.48v228.13h50.48v-53.46l60.76-49.15 83.02 102.61h64.75L809.61 536.13z" class="color-primary" fill="#000" />
</svg>

