<svg viewBox="0 0 200 200" xmlns="http://www.w3.org/2000/svg"><path d="m100 37c8.5 0 16.8 1.7 24.5 4.9 3.7 1.6 7.3 3.5 10.7 5.8 3.3 2.3 6.5 4.8 9.3 7.7 2.9 2.9 5.4 6 7.7 9.3 2.3 3.4 4.2 7 5.8 10.7 3.3 7.8 4.9 16 4.9 24.5s-1.7 16.8-4.9 24.5c-1.6 3.7-3.5 7.3-5.8 10.7-2.3 3.3-4.8 6.5-7.7 9.3-2.9 2.9-6 5.4-9.3 7.7-3.4 2.3-7 4.2-10.7 5.8-7.8 3.3-16 4.9-24.5 4.9s-16.8-1.7-24.5-4.9c-3.7-1.6-7.3-3.5-10.7-5.8-3.3-2.3-6.5-4.8-9.3-7.7-2.9-2.9-5.4-6-7.7-9.3-2.3-3.4-4.2-7-5.8-10.7-3.3-7.8-4.9-16-4.9-24.5s1.7-16.8 4.9-24.5c1.6-3.7 3.5-7.3 5.8-10.7 2.3-3.3 4.8-6.5 7.7-9.3 2.9-2.9 6-5.4 9.3-7.7 3.4-2.3 7-4.2 10.7-5.8 7.7-3.2 16-4.9 24.5-4.9m0-4c-37 0-67 30-67 67s30 67 67 67 67-30 67-67-30-67-67-67z" fill="#495057"/><path d="m44.2 100c0 22.1 12.8 41.2 31.5 50.2l-26.7-72.9c-3.1 6.9-4.8 14.6-4.8 22.7zm93.5-2.8c0-6.9-2.5-11.7-4.6-15.4-2.8-4.6-5.5-8.5-5.5-13.1 0-5.1 3.9-9.9 9.4-9.9h.7c-9.9-9.1-23.2-14.7-37.7-14.7-19.5 0-36.7 10-46.7 25.2 1.3 0 2.5.1 3.6.1 5.8 0 14.9-.7 14.9-.7 3-.2 3.4 4.2.4 4.6 0 0-3 .4-6.4.5l20.3 60.5 12.2-36.6-8.7-23.8c-3-.2-5.9-.5-5.9-.5-3-.2-2.7-4.8.4-4.6 0 0 9.2.7 14.7.7 5.8 0 14.9-.7 14.9-.7 3-.2 3.4 4.2.4 4.6 0 0-3 .4-6.4.5l20.2 60 5.8-18.3c2.5-8 4-13.6 4-18.4zm-36.7 7.7-16.8 48.7c5 1.5 10.3 2.3 15.8 2.3 6.5 0 12.7-1.1 18.5-3.2-.1-.2-.3-.5-.4-.8zm48-31.7c.2 1.8.4 3.7.4 5.7 0 5.7-1.1 12-4.2 20l-17.1 49.3c16.6-9.7 27.8-27.7 27.8-48.3-.1-9.6-2.5-18.7-6.9-26.7z" fill="#495057"/><path d="m0 0h200v200h-200z" fill="none"/></svg>