<?xml version="1.0" standalone="no"?>
<!DOCTYPE svg PUBLIC "-//W3C//DTD SVG 20010904//EN"
 "http://www.w3.org/TR/2001/REC-SVG-20010904/DTD/svg10.dtd">
<svg version="1.0" xmlns="http://www.w3.org/2000/svg"
 width="700.000000pt" height="700.000000pt" viewBox="0 0 700.000000 700.000000"
 preserveAspectRatio="xMidYMid meet">
<g transform="translate(0.000000,700.000000) scale(0.100000,-0.100000)"
fill="#000000" stroke="none">
<path d="M2839 6145 c-64 -12 -137 -52 -172 -94 -107 -127 -94 -312 30 -421
56 -49 144 -79 220 -74 57 3 144 40 185 79 l27 25 1134 0 1134 0 204 -201
c112 -110 385 -380 607 -599 l402 -398 0 -946 0 -946 -371 -368 c-204 -202
-477 -472 -607 -600 l-237 -232 -1017 0 -1018 0 -46 35 c-62 48 -108 66 -172
69 -124 7 -223 -48 -288 -159 -26 -45 -29 -59 -29 -135 0 -73 4 -92 27 -136
93 -178 319 -219 477 -87 l33 28 1099 0 1098 0 461 455 c254 250 578 570 721
711 l259 256 0 1109 0 1109 -249 245 c-137 135 -461 454 -720 710 l-471 465
-1215 0 -1215 1 -27 26 c-68 63 -171 92 -264 73z m129 -184 c71 -38 67 -160
-8 -205 -107 -63 -235 63 -168 164 43 64 106 79 176 41z m209 -4671 c89 -31
101 -162 20 -214 -102 -67 -227 39 -177 151 27 60 91 86 157 63z"/>
<path d="M2013 5339 c-63 -24 -138 -95 -167 -159 -31 -69 -28 -179 7 -247 59
-116 162 -174 295 -168 72 4 136 30 194 82 l43 39 1346 0 1346 -1 35 -35 c20
-19 189 -187 377 -373 l341 -338 0 -628 0 -627 -192 -192 c-106 -105 -276
-272 -377 -372 l-184 -180 -191 0 c-105 0 -723 0 -1374 0 l-1183 0 -39 33
c-40 34 -120 68 -173 72 -18 2 -54 -1 -82 -7 -238 -48 -324 -332 -151 -503
117 -115 296 -118 419 -6 l27 25 1453 0 1452 1 369 365 c203 201 423 419 490
486 l121 121 -1 791 0 791 -487 483 -487 484 -1448 0 -1447 -1 -30 21 c-62 44
-99 57 -175 60 -56 2 -88 -2 -127 -17z m175 -171 c27 -14 62 -71 62 -103 0
-90 -101 -152 -180 -112 -37 19 -70 74 -70 118 0 30 7 46 35 73 44 44 94 52
153 24z m-12 -3115 c50 -32 63 -115 28 -170 -30 -47 -107 -63 -165 -34 -58 29
-78 124 -37 176 40 51 119 64 174 28z"/>
<path d="M1039 4586 c-132 -46 -211 -154 -211 -288 0 -116 62 -211 174 -270
34 -17 60 -22 123 -22 90 -1 145 19 206 72 l35 30 524 1 523 0 399 -397 398
-397 474 0 475 0 28 -27 c15 -15 54 -39 86 -53 50 -23 69 -27 130 -23 313 16
402 426 122 563 -116 56 -250 34 -349 -57 -18 -17 -50 -18 -411 -18 l-391 0
-205 200 -204 200 893 0 893 0 143 -142 144 -143 0 -303 -1 -304 -144 -142
-144 -142 -958 1 -958 0 -329 322 c-181 177 -362 353 -402 392 l-74 71 -745 0
-745 0 -36 31 c-90 79 -236 96 -341 40 -44 -24 -103 -85 -129 -135 -37 -71
-38 -188 -2 -259 92 -182 314 -223 481 -90 l35 28 662 -1 662 0 201 -200 200
-200 -479 0 -479 1 -52 47 c-155 139 -391 91 -477 -97 -127 -277 210 -544 455
-361 l35 26 1820 0 1821 0 125 121 c69 67 186 181 260 254 l135 134 0 465 0
464 -260 256 -260 256 -65 0 c-36 0 -834 1 -1774 1 l-1709 0 -36 31 c-75 66
-205 94 -292 64z m175 -188 c46 -40 58 -96 32 -146 -38 -73 -135 -89 -193 -32
-58 57 -49 148 19 190 50 30 97 26 142 -12z m-839 -772 c79 -52 76 -169 -6
-212 -57 -29 -137 -5 -166 49 -19 38 -13 110 13 139 41 45 110 56 159 24z
m4084 -2 c111 -65 46 -239 -83 -220 -126 19 -148 182 -32 231 37 16 76 12 115
-11z m-3337 -764 c83 -39 78 -174 -8 -215 -18 -8 -41 -15 -52 -15 -55 0 -121
52 -123 98 -1 12 -2 28 -3 35 -2 6 6 28 17 48 32 60 102 80 169 49z"/>
</g>
</svg>
