<svg fill="none" height="36" viewBox="0 0 187 36" width="187" xmlns="http://www.w3.org/2000/svg" xmlns:xlink="http://www.w3.org/1999/xlink"><clipPath id="a"><path d="m0 0h187v36h-187z"/></clipPath><g clip-path="url(#a)" clip-rule="evenodd" fill-rule="evenodd"><path d="m6.2 6.99999h22.8c3.9 0 7.1 3.20001 7.1 7.10001v8.4c0 3.9-3.2 7.1-7.1 7.1h-22.8zm22.9-6.099996h-29.0000015v34.900006h29.0000015c7.3 0 13.3-6 13.3-13.3v-8.4c-.1-7.30001-6-13.200006-13.3-13.200006zm69.9 14.300006v20.5h36.1v-6.2h-29.9v-8.1h24.9v-6.2h-24.9zm-43.1-8.20001h22.8c3.9 0 7.1 3.20001 7.1 7.10001v8.4c0 3.9-3.2 7.1-7.1 7.1h-22.8zm22.8-6.099996h-29v34.900006h29c7.3 0 13.3-6 13.3-13.3v-8.4c0-7.30001-6-13.200006-13.3-13.200006zm63 0 19.1 33.000006 1 1.8h5l1.1-1.8 19.1-33.000006h-7.2l-15.5 26.800006-15.5-26.800006z" fill="#1e2127"/><path d="m105.2 6.99999h29.9v-6.099996h-36.1v6.099996z" fill="#02a8e2"/></g></svg>