<svg fill="none" height="45" viewBox="0 0 160 45" width="160" xmlns="http://www.w3.org/2000/svg"><linearGradient id="b" gradientUnits="userSpaceOnUse" x1="33.806" x2="22.389" y1="13.629" y2="30.86"><stop offset="0" stop-color="#ffb45b"/><stop offset="1" stop-color="#ff8a00"/></linearGradient><clipPath id="c"><path d="m0 0h160v45h-160z"/></clipPath><g clip-path="url(#c)"><g><path d="m142 2h-124c-8.83656 0-16 7.16344-16 16v8c0 8.8366 7.16344 16 16 16h124c8.837 0 16-7.1634 16-16v-8c0-8.83656-7.163-16-16-16z" fill="#f9f9f9"/><path clip-rule="evenodd" d="m30.425 11.174c.604 1.114.233 2.53-.83 3.164l-6.986 4.166c-.0554.0341-.1011.0819-.1327.1389-.0315.0569-.0478.121-.0473.1861v6.748c0 .134.069.258.18.325l5.714 3.407c.11.066.244.066.354 0l5.714-3.407c.0554-.0341.1011-.0819.1327-.1389.0315-.0569.0478-.121.0473-.1861v-4.287l-4.986 2.936c-1.067.628-2.416.231-3.015-.886-.6-1.118-.22-2.532.846-3.16l7.008-4.127c2.048-1.206 4.576.345 4.576 2.806v6.718c0 1.803-.924 3.467-2.42 4.36l-5.713 3.407c-.7148.4295-1.5331.6564-2.367.6564s-1.6522-.2269-2.367-.6564l-5.714-3.408c-1.495-.892-2.419-2.556-2.419-4.36v-6.746c0-1.803.924-3.467 2.42-4.36l6.985-4.165c1.063-.63399 2.415-.245 3.02.87z" fill="url(#b)" fill-rule="evenodd"/><path d="m52.538 27.752c2.744 0 4.844-1.876 4.844-5.152 0-3.108-2.1-5.152-4.844-5.152s-4.802 2.002-4.802 5.152c0 3.29 2.058 5.152 4.802 5.152zm0-1.554c-1.736 0-2.912-1.316-2.912-3.598 0-2.226 1.162-3.598 2.912-3.598s2.954 1.4 2.954 3.598c0 2.31-1.218 3.598-2.954 3.598zm7.89 4.158v-3.136c0-.196-.013-.378-.055-.658.434.7 1.022 1.19 2.17 1.19 1.736 0 3.066-1.414 3.066-3.626 0-2.17-1.19-3.682-2.996-3.682-1.078 0-1.806.476-2.24 1.204.042-.28.056-.462.056-.672v-.308h-1.709v9.688zm1.695-3.948c-1.036 0-1.764-.938-1.764-2.31 0-1.414.742-2.296 1.764-2.296 1.092 0 1.75.952 1.75 2.296 0 1.372-.7 2.31-1.75 2.31zm7.866 1.344c1.848 0 3.052-1.078 3.192-2.478h-1.736c-.112.714-.714 1.134-1.456 1.134-1.036 0-1.722-.826-1.736-1.904h4.97v-.378c0-2.226-1.204-3.682-3.29-3.682-1.988 0-3.43 1.47-3.43 3.626 0 2.366 1.442 3.682 3.486 3.682zm-1.75-4.48c.098-.896.756-1.554 1.68-1.554s1.526.63 1.554 1.554zm8.006 4.228v-4.004c0-.952.616-1.694 1.456-1.694.798 0 1.288.63 1.288 1.638v4.06h1.708v-4.312c0-1.68-.896-2.744-2.408-2.744-1.078 0-1.722.518-2.1 1.204.042-.266.056-.476.056-.672v-.308h-1.708v6.832zm8.911-7.868h1.792v-1.792h-1.792zm.042 1.036v6.832h1.708v-6.832zm5.097 6.832v-4.004c0-.952.616-1.694 1.456-1.694.798 0 1.288.63 1.288 1.638v4.06h1.708v-4.312c0-1.68-.896-2.744-2.408-2.744-1.078 0-1.722.518-2.1 1.204.042-.266.056-.476.056-.672v-.308h-1.708v6.832zm13.238.252c1.526 0 2.52-.658 2.982-1.54-.07.322-.098.644-.098.98v.308h1.68v-5.222h-4.34v1.554h2.66v.07c0 1.4-1.134 2.296-2.59 2.296-1.792 0-3.024-1.372-3.024-3.598s1.26-3.598 3.066-3.598c1.302 0 2.17.756 2.296 1.736h1.89c-.182-1.904-1.764-3.29-4.214-3.29-2.954 0-4.928 2.128-4.928 5.152 0 3.136 1.848 5.152 4.62 5.152zm6.063-8.12h1.792v-1.792h-1.792zm.042 1.036v6.832h1.708v-6.832zm6.413 6.958c.434 0 .84-.07 1.008-.126v-1.288c-.168.028-.35.042-.518.042-.728 0-1.008-.42-1.008-1.134v-3.094h1.68v-1.358h-1.68v-2.464h-1.708v2.464h-1.554v1.358h1.554v3.346c0 1.526.77 2.254 2.226 2.254zm3.961 2.73v-3.136c0-.196-.014-.378-.056-.658.434.7 1.022 1.19 2.17 1.19 1.736 0 3.066-1.414 3.066-3.626 0-2.17-1.19-3.682-2.996-3.682-1.078 0-1.806.476-2.24 1.204.042-.28.056-.462.056-.672v-.308h-1.708v9.688zm1.694-3.948c-1.036 0-1.764-.938-1.764-2.31 0-1.414.742-2.296 1.764-2.296 1.092 0 1.75.952 1.75 2.296 0 1.372-.7 2.31-1.75 2.31zm7.88 1.344c2.058 0 3.514-1.372 3.514-3.64 0-2.24-1.456-3.668-3.514-3.668-2.044 0-3.5 1.428-3.5 3.668 0 2.268 1.442 3.64 3.5 3.64zm0-1.344c-1.064 0-1.764-.84-1.764-2.296 0-1.484.728-2.31 1.764-2.31 1.05 0 1.778.826 1.778 2.31 0 1.456-.714 2.296-1.778 2.296zm7.551 1.344c1.26 0 1.876-.686 2.142-1.19-.056.238-.056.42-.056.658v.28h1.708v-9.8h-1.708v3.276c0 .21 0 .42.056.672-.392-.658-1.05-1.204-2.114-1.204-1.596 0-3.15 1.218-3.15 3.668 0 2.408 1.316 3.64 3.122 3.64zm.406-1.344c-1.022 0-1.792-.896-1.792-2.31 0-1.358.77-2.296 1.792-2.296s1.778.896 1.778 2.296c0 1.372-.756 2.31-1.778 2.31z" fill="#12100c"/></g></g></svg>