<svg fill="none" height="630" stroke-linecap="square" stroke-miterlimit="10" viewBox="0 0 1020 630" width="1020" xmlns="http://www.w3.org/2000/svg" xmlns:xlink="http://www.w3.org/1999/xlink"><clipPath id="a"><path d="m90.5 83.5h898v435h-898z"/></clipPath><path d="m0 0h1020v630h-1020z" fill="#fff"/><path d="m90.5 518.5h898" stroke="#333" stroke-linecap="butt"/><path d="m90.5 373.5h898" stroke="#ccc" stroke-linecap="butt"/><path d="m90.5 228.5h898" stroke="#ccc" stroke-linecap="butt"/><path d="m90.5 83.5h898" stroke="#ccc" stroke-linecap="butt"/><path clip-path="url(#a)" d="m177 519h-56v-433c0-1.10457.89543-2 2-2h52c1.10457 0 2 .89543 2 2z"/><path clip-path="url(#a)" d="m177 519h-56v-433c0-1.10457.89543-2 2-2h52c1.10457 0 2 .89543 2 2z" fill="#4285f4"/><path clip-path="url(#a)" d="m264 519h-56v-123c0-1.10458.89543-2 2-2h52c1.10458 0 2 .89542 2 2z"/><path clip-path="url(#a)" d="m264 519h-56v-123c0-1.10458.89543-2 2-2h52c1.10458 0 2 .89542 2 2z" fill="#4285f4"/><path clip-path="url(#a)" d="m351 519h-56v-257c0-1.10458.89542-2 2-2h52c1.10458 0 2 .89542 2 2z"/><path clip-path="url(#a)" d="m351 519h-56v-257c0-1.10458.89542-2 2-2h52c1.10458 0 2 .89542 2 2z" fill="#4285f4"/><path clip-path="url(#a)" d="m437 519h-56v-100c0-1.10458.89542-2 2-2h52c1.10458 0 2 .89542 2 2z"/><path clip-path="url(#a)" d="m437 519h-56v-100c0-1.10458.89542-2 2-2h52c1.10458 0 2 .89542 2 2z" fill="#4285f4"/><path clip-path="url(#a)" d="m524 519h-56v-103c0-1.10458.89542-2 2-2h52c1.10455 0 2 .89542 2 2z"/><path clip-path="url(#a)" d="m524 519h-56v-103c0-1.10458.89542-2 2-2h52c1.10455 0 2 .89542 2 2z" fill="#4285f4"/><path clip-path="url(#a)" d="m611 519h-56v-77c0-1.10458.89545-2 2-2h52c1.10455 0 2 .89542 2 2z"/><path clip-path="url(#a)" d="m611 519h-56v-77c0-1.10458.89545-2 2-2h52c1.10455 0 2 .89542 2 2z" fill="#4285f4"/><path clip-path="url(#a)" d="m698 519h-56v-181c0-1.10458.89545-2 2-2h52c1.10455 0 2 .89542 2 2z"/><path clip-path="url(#a)" d="m698 519h-56v-181c0-1.10458.89545-2 2-2h52c1.10455 0 2 .89542 2 2z" fill="#4285f4"/><path clip-path="url(#a)" d="m784 519h-56v-91c0-1.10458.89545-2 2-2h52c1.10455 0 2 .89542 2 2z"/><path clip-path="url(#a)" d="m784 519h-56v-91c0-1.10458.89545-2 2-2h52c1.10455 0 2 .89542 2 2z" fill="#4285f4"/><path clip-path="url(#a)" d="m871 519h-56v-294c0-1.10457.89545-2 2-2h52c1.10455 0 2 .89543 2 2z"/><path clip-path="url(#a)" d="m871 519h-56v-294c0-1.10457.89545-2 2-2h52c1.10455 0 2 .89543 2 2z" fill="#4285f4"/><path clip-path="url(#a)" d="m958 519h-56v-91c0-1.10458.89545-2 2-2h52c1.10455 0 2 .89542 2 2z"/><path clip-path="url(#a)" d="m958 519h-56v-91c0-1.10458.89545-2 2-2h52c1.10455 0 2 .89542 2 2z" fill="#4285f4"/><g fill="#000"><path d="m451.92188 595.5v-8.59375h2.96874q1 0 1.53126.125.73437.17185 1.25.60935.6875.57815 1.01562 1.4844.34375.8906.34375 2.03125 0 .98435-.23437 1.73435-.21876.75-.57813 1.25-.35937.5-.79687.7813-.42188.2812-1.01563.4375-.59375.1406-1.375.1406zm1.14062-1.0156h1.82812q.85938 0 1.34376-.1563.48437-.1562.76562-.4531.40625-.3906.625-1.0781.23438-.6875.23438-1.6563 0-1.3437-.45313-2.0625-.4375-.73435-1.0625-.98435-.46875-.17185-1.46875-.17185h-1.8125zm7.71875 1.0156v-6.21875h.95313v.9375q.35937-.65625.65624-.85935.3125-.2188.6875-.2188.53126 0 1.07813.32815l-.35937.98435q-.39063-.23435-.76563-.23435-.35937 0-.64063.21875-.26562.2031-.375.5781-.1875.5625-.1875 1.2188v3.2656zm8.09375 0v-.9219q-.73438 1.0625-1.98438 1.0625-.54687 0-1.03124-.2031-.46876-.21875-.70313-.53125-.23437-.32815-.32813-.79685-.0625-.2969-.0625-.9844v-3.84375h1.0625v3.45315q0 .8125.0625 1.10935.09376.40625.40626.65625.32812.2344.8125.2344.46874 0 .875-.2344.42187-.25.59374-.6719.1875-.42185.1875-1.2187v-3.32815h1.04688v6.21875zm2.92188 2.3906v-8.60935h.95312v.79685q.34375-.4687.76562-.7031.4375-.2344 1.04688-.2344.79688 0 1.40625.4063.60937.4062.90625 1.1562.3125.75.3125 1.64065 0 .95315-.34375 1.71875-.32813.7656-.98437 1.1719-.65626.4062-1.375.4062-.53126 0-.95313-.2187-.42187-.2344-.6875-.5625v3.0312zm.95312-5.4687q0 1.2031.48438 1.7812.48437.5625 1.17187.5625.70313 0 1.20313-.5937.5-.5938.5-1.8438 0-1.1875-.48438-1.7656-.48438-.59375-1.17188-.59375-.67187 0-1.1875.625-.51562.625-.51562 1.82815zm10.10938 2.3125q-.59376.5-1.14063.7031-.53125.2031-1.15625.2031-1.03125 0-1.57812-.5-.54688-.5-.54688-1.2812 0-.45315.20312-.82815.20313-.39065.54688-.60935.34375-.2344.76562-.3438.29688-.0937.9375-.17185 1.26563-.14065 1.875-.35935 0-.2188 0-.26565 0-.65625-.29687-.92185-.40625-.3438-1.20313-.3438-.73437 0-1.09374.26565-.35938.25-.53126.90625l-1.03124-.1406q.14062-.6563.46874-1.0625.32813-.4063.9375-.625.60938-.2188 1.40626-.2188.79687 0 1.29687.1875.5.1875.73437.4688.23438.2812.32813.7187.04687.26565.04687.9688v1.4062q0 1.4688.0625 1.8594.07813.3906.28126.75h-1.10938q-.15625-.3281-.20312-.7656zm-.09376-2.3594q-.57812.2344-1.71874.40625-.65626.09375-.92188.21875-.26562.1094-.42188.3281-.14062.2188-.14062.5 0 .4219.3125.70315.32812.28125.9375.28125.60938 0 1.07812-.2656.48438-.26565.70313-.7344.17187-.3594.17187-1.0469zm3 3.125v-8.59375h1.0625v8.59375zm9.70313 0h-1.04687v-6.71875q-.39063.35935-1.01563.73435-.60937.3594-1.09375.5313v-1.01565q.875-.42185 1.53125-1 .67187-.59375.95313-1.15625h.67187zm3.03125-4.2344q0-1.5312.3125-2.4531.3125-.9375.92188-1.4375.625-.5 1.5625-.5.6875 0 1.20312.28125.53125.28125.875.8125.34375.51565.53125 1.26565.1875.75.1875 2.0312 0 1.51565-.3125 2.4375-.29687.9219-.92187 1.4375-.60938.5-1.5625.5-1.23438 0-1.95313-.8906-.84375-1.0625-.84375-3.4844zm1.07812 0q0 2.1094.5 2.8125.5.70315 1.21876.70315.73437 0 1.21874-.70315.5-.7031.5-2.8125 0-2.125-.5-2.8125-.48437-.7031-1.23437-.7031-.71875 0-1.15625.6094-.54688.7812-.54688 2.9062zm10.84376 4.2344-2.28126-8.59375h1.17188l1.3125 5.64065q.20312.875.35938 1.75.32812-1.375.39062-1.5938l1.625-5.79685h1.375l1.2344 4.34375q.4531 1.625.67185 3.0469.15625-.8125.42185-1.875l1.3438-5.51565h1.1406l-2.34375 8.59375h-1.10935l-1.7969-6.5469q-.2344-.8125-.28125-1-.125.57815-.25 1l-1.8125 6.5469zm13.62502-2 1.0937.125q-.25.9531-.9531 1.4844-.7031.5312-1.78125.5312-1.35935 0-2.17185-.8437-.7969-.8438-.7969-2.3594 0-1.5625.8125-2.4219.8125-.875 2.09375-.875 1.25 0 2.03125.8438.7969.8437.7969 2.3906 0 .09375 0 .28125h-4.64065q.0625 1.03125.57815 1.57815.5156.5312 1.29685.5312.57815 0 .98435-.29685.4219-.3125.6563-.96875zm-3.45315-1.7031h3.46875q-.0625-.7969-.3906-1.1875-.51565-.6094-1.3125-.6094-.7344 0-1.2344.4844-.4844.48435-.53125 1.3125zm7.17185 3.7031h-.98435v-8.59375h1.0625v3.0625q.67185-.82815 1.70315-.82815.5781 0 1.0781.2344.5156.21875.84375.6406.34375.4219.53125 1.01565.1875.59375.1875 1.26565 0 1.5937-.7969 2.4687-.79685.875-1.8906.875-1.1094 0-1.7344-.92185zm-.0156-3.15625q0 1.10935.3125 1.60935.5.8125 1.34375.8125.6875 0 1.1875-.5937.51565-.5938.51565-1.7969 0-1.21875-.4844-1.7969-.4844-.5781-1.1719-.5781-.6875 0-1.2031.6094-.5.5937-.5 1.73435zm9.375 3.15625v-8.59375h1.125v8.59375zm2.6719 0v-6.21875h.9375v.875q.6875-1.01565 1.98435-1.01565.5625 0 1.03125.20315.4844.20315.71875.53125.23435.3281.32815.7656.04685.2969.04685 1.0313v3.8281h-1.04685v-3.78125q0-.65625-.125-.96875-.125-.3125-.4375-.5-.3125-.2031-.7344-.2031-.6719 0-1.1719.4375-.48435.42185-.48435 1.60935v3.40625zm6.5781-1.8594 1.03125-.1562q.09375.625.48435.9531.4063.3281 1.14065.3281.71875 0 1.0625-.2812.35935-.2969.35935-.70315 0-.35935-.3125-.5625-.2187-.14065-1.0781-.35935-1.15625-.2969-1.6094-.5-.4375-.2188-.67185-.5938-.23435-.375-.23435-.8437 0-.4063.1875-.76565.1875-.35935.5156-.59375.25-.1719.6719-.2969.42185-.125.92185-.125.71875 0 1.26565.2188.5625.2031.8281.5625.2656.35935.3594.9531l-1.0313.1406q-.0625-.4687-.4062-.73435-.32815-.28125-.95315-.28125-.71875 0-1.03125.25-.3125.2344-.3125.5625 0 .2031.125.3594.1406.17185.40625.2812.15625.0625.9375.26565 1.125.3125 1.5625.5.4375.1875.6875.54685.25.3594.25.9063 0 .5312-.3125 1-.29685.4531-.875.7187-.57815.25-1.3125.25-1.21875 0-1.85935-.5-.625-.5156-.7969-1.5zm9.71875.9219.15625.9219q-.4531.0937-.7969.0937-.5781 0-.8906-.17185-.3125-.1875-.4531-.48435-.125-.2969-.125-1.25v-3.57815h-.76565v-.8125h.76565v-1.54685l1.04685-.625v2.17185h1.0625v.8125h-1.0625v3.64065q0 .4531.04685.5781.0625.125.1875.2031.125.07815.3594.07815.1875 0 .46875-.03125zm4.76565.1719q-.5938.5-1.14065.7031-.53125.2031-1.15625.2031-1.03125 0-1.5781-.5-.5469-.5-.5469-1.2812 0-.45315.2031-.82815.20315-.39065.5469-.60935.34375-.2344.7656-.3438.2969-.0937.9375-.17185 1.26565-.14065 1.875-.35935 0-.2188 0-.26565 0-.65625-.29685-.92185-.40625-.3438-1.20315-.3438-.73435 0-1.0937.26565-.3594.25-.5313.90625l-1.0312-.1406q.1406-.6563.4687-1.0625.32815-.4063.9375-.625.6094-.2188 1.4063-.2188.79685 0 1.29685.1875.5.1875.73435.4688.2344.2812.32815.7187.04685.26565.04685.9688v1.4062q0 1.4688.0625 1.8594.07815.3906.2813.75h-1.1094q-.15625-.3281-.2031-.7656zm-.0938-2.3594q-.5781.2344-1.7187.40625-.6563.09375-.9219.21875-.2656.1094-.4219.3281-.1406.2188-.1406.5 0 .4219.3125.70315.3281.28125.9375.28125.6094 0 1.0781-.2656.4844-.26565.70315-.7344.17185-.3594.17185-1.0469zm3 3.125v-8.59375h1.0625v8.59375zm3 0v-8.59375h1.0625v8.59375zm8.0469 2.53125q-.875-1.10935-1.4844-2.57815-.5937-1.48435-.5937-3.0625 0-1.3906.4375-2.67185.5312-1.48435 1.6406-2.95315h.75q-.7031 1.2188-.9375 1.7344-.3594.8125-.5625 1.6875-.25 1.09375-.25 2.2031 0 2.82815 1.75 5.64065zm1.5625-4.39065 1.03125-.1562q.09375.625.48435.9531.4063.3281 1.14065.3281.71875 0 1.0625-.2812.35935-.2969.35935-.70315 0-.35935-.3125-.5625-.2187-.14065-1.0781-.35935-1.15625-.2969-1.6094-.5-.4375-.2188-.67185-.5938-.23435-.375-.23435-.8437 0-.4063.1875-.76565.1875-.35935.5156-.59375.25-.1719.6719-.2969.42185-.125.92185-.125.71875 0 1.26565.2188.5625.2031.8281.5625.2656.35935.3594.9531l-1.0313.1406q-.0625-.4687-.4062-.73435-.32815-.28125-.95315-.28125-.71875 0-1.03125.25-.3125.2344-.3125.5625 0 .2031.125.3594.1406.17185.40625.2812.15625.0625.9375.26565 1.125.3125 1.5625.5.4375.1875.6875.54685.25.3594.25.9063 0 .5312-.3125 1-.29685.4531-.875.7187-.57815.25-1.3125.25-1.21875 0-1.85935-.5-.625-.5156-.7969-1.5zm11.6719-.1406 1.0937.125q-.25.9531-.9531 1.4844-.7031.5312-1.78125.5312-1.35935 0-2.17185-.8437-.7969-.8438-.7969-2.3594 0-1.5625.8125-2.4219.8125-.875 2.09375-.875 1.25 0 2.03125.8438.7969.8437.7969 2.3906 0 .09375 0 .28125h-4.64065q.0625 1.03125.57815 1.57815.5156.5312 1.29685.5312.57815 0 .98435-.29685.4219-.3125.6563-.96875zm-3.45315-1.7031h3.46875q-.0625-.7969-.3906-1.1875-.51565-.6094-1.3125-.6094-.7344 0-1.2344.4844-.4844.48435-.53125 1.3125zm10.26565 1.42185 1.0312.14065q-.17185 1.0625-.875 1.67185-.7031.60935-1.7187.60935-1.2813 0-2.0625-.8281-.76565-.84375-.76565-2.40625 0-1 .32815-1.75.3437-.76565 1.0156-1.14065.6875-.375 1.5-.375 1 0 1.6406.51565.6563.5.8438 1.45315l-1.0313.1562q-.1406-.625-.5156-.9375-.375-.3281-.90625-.3281-.79685 0-1.29685.5781-.5.5625-.5 1.7969 0 1.2656.48435 1.8281.48435.5625 1.25.5625.625 0 1.03125-.375.4219-.375.5469-1.17185zm1.54685-.82815q0-1.73435.95315-2.5625.79685-.6875 1.9531-.6875 1.28125 0 2.09375.8438.82815.8281.82815 2.3125 0 1.2031-.3594 1.8906-.3594.6875-1.0625 1.0781-.6875.375-1.5.375-1.2969 0-2.1094-.8281-.79685-.84375-.79685-2.4219zm1.07815 0q0 1.1875.5156 1.7813.53125.5937 1.3125.5937.7969 0 1.3125-.5937.5156-.5938.5156-1.8125 0-1.1563-.5312-1.75-.51565-.5938-1.2969-.5938-.78125 0-1.3125.5938-.5156.5781-.5156 1.7812zm6.3125 3.1094v-6.21875h.9375v.875q.6875-1.01565 1.98435-1.01565.5625 0 1.03125.20315.4844.20315.71875.53125.23435.3281.32815.7656.04685.2969.04685 1.0313v3.8281h-1.04685v-3.78125q0-.65625-.125-.96875-.125-.3125-.4375-.5-.3125-.2031-.7344-.2031-.6719 0-1.1719.4375-.48435.42185-.48435 1.60935v3.40625zm11.0312 0v-.78125q-.5937.92185-1.73435.92185-.75 0-1.375-.4062-.625-.4219-.96875-1.1563-.34375-.73435-.34375-1.6875 0-.92185.3125-1.6875.3125-.7656.9375-1.1562.625-.4063 1.39065-.4063.5625 0 1 .2344.4375.2344.7187.6094v-3.07815h1.0469v8.59375zm-3.3281-3.1094q0 1.20315.5 1.7969.5.5781 1.1875.5781.6875 0 1.1719-.5625.48435-.5625.48435-1.7187 0-1.2813-.5-1.875-.48435-.5938-1.20315-.5938-.7031 0-1.17185.57815-.46875.5625-.46875 1.79685zm5.875 1.25 1.03125-.1562q.09375.625.48435.9531.4063.3281 1.14065.3281.71875 0 1.0625-.2812.35935-.2969.35935-.70315 0-.35935-.3125-.5625-.2187-.14065-1.0781-.35935-1.15625-.2969-1.6094-.5-.4375-.2188-.67185-.5938-.23435-.375-.23435-.8437 0-.4063.1875-.76565.1875-.35935.5156-.59375.25-.1719.6719-.2969.42185-.125.92185-.125.71875 0 1.26565.2188.5625.2031.8281.5625.2656.35935.3594.9531l-1.0313.1406q-.0625-.4687-.4062-.73435-.32815-.28125-.95315-.28125-.71875 0-1.03125.25-.3125.2344-.3125.5625 0 .2031.125.3594.1406.17185.40625.2812.15625.0625.9375.26565 1.125.3125 1.5625.5.4375.1875.6875.54685.25.3594.25.9063 0 .5312-.3125 1-.29685.4531-.875.7187-.57815.25-1.3125.25-1.21875 0-1.85935-.5-.625-.5156-.7969-1.5zm8.1094 4.39065h-.75q1.75-2.8125 1.75-5.64065 0-1.0937-.25-2.1875-.20315-.875-.5625-1.6875-.2344-.5156-.9375-1.75h.75q1.0937 1.4688 1.625 2.95315.4531 1.28125.4531 2.67185 0 1.57815-.6094 3.0625-.60935 1.4688-1.4687 2.57815z"/><path d="m42.5 350.70312h-6.21875v-.9375h.875q-.46875-.29687-.734375-.78124-.28125-.48438-.28125-1.10938 0-.6875.28125-1.125.28125-.45312.796875-.625-1.078125-.75-1.078125-1.92188 0-.9375.515625-1.42187.5-.5 1.578125-.5h4.265625v1.04687h-3.921875q-.625 0-.90625.10938-.28125.09375-.453125.35938-.171875.26562-.171875.64062 0 .65625.4375 1.09375.4375.42187 1.40625.42187h3.609375v1.0625h-4.046875q-.703125 0-1.046875.26563-.359375.25-.359375.82813 0 .45312.234375.82812.234375.375.6875.54688.453125.17187 1.296875.17187h3.234375zm-.765625-15.0625q.5.59376.703125 1.14063.203125.53125.203125 1.15625 0 1.03125-.5 1.57812-.5.54688-1.28125.54688-.453125 0-.828125-.20312-.390625-.20313-.609375-.54688-.234375-.34375-.34375-.76562-.09375-.29688-.171875-.9375-.140625-1.26563-.359375-1.875-.21875 0-.265625 0-.65625 0-.921875.29687-.34375.40625-.34375 1.20313 0 .73437.265625 1.09374.25.35938.90625.53126l-.140625 1.03124q-.65625-.14062-1.0625-.46874-.40625-.32813-.625-.9375-.21875-.60938-.21875-1.40626 0-.79687.1875-1.29687.1875-.5.46875-.73437.28125-.23438.71875-.32813.265625-.04687.96875-.04687h1.40625q1.46875 0 1.859375-.0625.390625-.07813.75-.28126v1.10938q-.328125.15625-.765625.20312zm-2.359375.09376q.234375.57812.40625 1.71874.09375.65626.21875.92188.109375.26562.328125.42188.21875.14062.5.14062.421875 0 .703125-.3125.28125-.32812.28125-.9375 0-.60938-.265625-1.07812-.265625-.48438-.734375-.70313-.359375-.17187-1.046875-.17187zm.84375-7.09376.140625-1.03124q1.0625.17187 1.671875.875.609375.70312.609375 1.71874 0 1.28126-.828125 2.0625-.84375.76563-2.40625.76563-1 0-1.75-.32813-.765625-.34374-1.140625-1.01562-.375-.6875-.375-1.5 0-1 .515625-1.64062.5-.65626 1.453125-.84376l.15625 1.03126q-.625.14062-.9375.51562-.328125.375-.328125.90625 0 .79687.578125 1.29687.5625.5 1.796875.5 1.265625 0 1.828125-.48437.5625-.48437.5625-1.25 0-.625-.375-1.03125-.375-.42188-1.171875-.54688zm-1.90625-1.71874q-2.140625 0-3.34375-1.14063-1.21875-1.15625-1.21875-2.96875 0-1.20312.578125-2.15625.5625-.95313 1.578125-1.45313 1.015625-.5 2.3125-.5 1.296875 0 2.328125.53126 1.03125.53124 1.5625 1.5.53125.95312.53125 2.07812 0 1.21875-.578125 2.17188-.59375.95312-1.59375 1.45312-1.015625.48438-2.15625.48438zm.015625-1.17188q1.5625 0 2.453125-.82812.890625-.84376.890625-2.10938 0-1.28125-.890625-2.10938-.90625-.82812-2.578125-.82812-1.046875 0-1.828125.35938-.78125.34374-1.203125 1.03124-.4375.6875-.4375 1.53126 0 1.20312.828125 2.07812.828125.875 2.765625.875zm1.40625-7.79688-.09375-1.0625q.65625-.07812 1.0625-.35937.40625-.28125.671875-.85937.25-.59376.25-1.32813 0-.64063-.1875-1.14063-.203125-.5-.53125-.73437-.34375-.25-.734375-.25-.40625 0-.703125.23437-.3125.23438-.515625.76563-.140625.35937-.421875 1.54687-.28125 1.17188-.53125 1.64063-.328125.625-.796875.92187-.484375.29688-1.078125.29688-.640625 0-1.203125-.35938-.578125-.375-.859375-1.07812-.296875-.71875-.296875-1.57812 0-.95313.3125-1.6875.296875-.73438.90625-1.125.59375-.39063 1.34375-.42188l.078125 1.09375q-.8125.09375-1.21875.60937-.421875.5-.421875 1.48438 0 1.03125.375 1.5.375.46875.90625.46875.46875 0 .765625-.32813.296875-.32812.609375-1.70312.3125-1.39062.546875-1.90625.359375-.75.890625-1.10937.515625-.35938 1.21875-.35938.6875 0 1.296875.39062.59375.39063.9375 1.125.328125.73438.328125 1.65626 0 1.17187-.328125 1.96874-.34375.78126-1.03125 1.23438-.6875.4375-1.546875.45312zm2.765625-11.34374h-8.59375v-1.71876l6.078125-2.03124q.859375-.28126 1.28125-.40626-.46875-.14062-1.375-.45312l-5.984375-2.0625v-1.53125h8.59375v1.09375h-7.1875l7.1875 2.5v1.03125l-7.3125 2.48437h7.3125zm0-12.57813v1.04687h-6.71875q.359375.39063.734375 1.01563.359375.60937.53125 1.09375h-1.015625q-.421875-.875-1-1.53125-.59375-.67187-1.15625-.95313v-.67187z"/><path d="m78 518.2656q0-1.5312.3125-2.4531.3125-.9375.921875-1.4375.625-.5 1.5625-.5.6875 0 1.203125.28125.53125.28125.875.8125.34375.51565.53125 1.26565.1875.75.1875 2.0312 0 1.51565-.3125 2.4375-.296875.9219-.921875 1.4375-.609375.5-1.5625.5-1.234375 0-1.953125-.8906-.84375-1.0625-.84375-3.4844zm1.078125 0q0 2.1094.5 2.8125.5.70315 1.21875.70315.734375 0 1.21875-.70315.5-.7031.5-2.8125 0-2.125-.5-2.8125-.484375-.7031-1.234375-.7031-.71875 0-1.15625.6094-.546875.7812-.546875 2.9062z"/><path d="m71 375.25 1.109375-.09375q.125.8125.5625 1.21875.453125.40625 1.09375.40625.75 0 1.28125-.57813.53125-.57812.53125-1.51562 0-.90625-.515625-1.42188-.5-.53124-1.328125-.53124-.5 0-.921875.23437-.40625.23437-.640625.59375l-.984375-.125.828125-4.40625h4.28125v1h-3.4375l-.453125 2.3125q.765625-.54687 1.609375-.54687 1.125 0 1.890625.78124.78125.78126.78125 2.01563 0 1.15625-.671875 2.01563-.828125 1.03124-2.25 1.03124-1.171875 0-1.921875-.65624-.734375-.65626-.84375-1.73438zm7-1.98438q0-1.53124.3125-2.45312.3125-.9375.921875-1.4375.625-.5 1.5625-.5.6875 0 1.203125.28125.53125.28125.875.8125.34375.51563.53125 1.26563.1875.75.1875 2.03124 0 1.51563-.3125 2.4375-.296875.92188-.921875 1.4375-.609375.5-1.5625.5-1.234375 0-1.953125-.89062-.84375-1.0625-.84375-3.48438zm1.078125 0q0 2.10938.5 2.8125.5.70313 1.21875.70313.734375 0 1.21875-.70313.5-.70312.5-2.8125 0-2.125-.5-2.8125-.484375-.70312-1.234375-.70312-.71875 0-1.15625.60938-.546875.78124-.546875 2.90624z"/><path d="m67.96875 232.5h-1.046875v-6.71875q-.390625.35937-1.015625.73437-.609375.35938-1.09375.53126v-1.01563q.875-.42187 1.53125-1 .671875-.59375.953125-1.15625h.671875zm3.03125-4.23438q0-1.53124.3125-2.45312.3125-.9375.921875-1.4375.625-.5 1.5625-.5.6875 0 1.203125.28125.53125.28125.875.8125.34375.51563.53125 1.26563.1875.75.1875 2.03124 0 1.51563-.3125 2.4375-.296875.92188-.921875 1.4375-.609375.5-1.5625.5-1.234375 0-1.953125-.89062-.84375-1.0625-.84375-3.48438zm1.078125 0q0 2.10938.5 2.8125.5.70313 1.21875.70313.734375 0 1.21875-.70313.5-.70312.5-2.8125 0-2.125-.5-2.8125-.484375-.70312-1.234375-.70312-.71875 0-1.15625.60938-.546875.78124-.546875 2.90624zm5.921875 0q0-1.53124.3125-2.45312.3125-.9375.921875-1.4375.625-.5 1.5625-.5.6875 0 1.203125.28125.53125.28125.875.8125.34375.51563.53125 1.26563.1875.75.1875 2.03124 0 1.51563-.3125 2.4375-.296875.92188-.921875 1.4375-.609375.5-1.5625.5-1.234375 0-1.953125-.89062-.84375-1.0625-.84375-3.48438zm1.078125 0q0 2.10938.5 2.8125.5.70313 1.21875.70313.734375 0 1.21875-.70313.5-.70312.5-2.8125 0-2.125-.5-2.8125-.484375-.70312-1.234375-.70312-.71875 0-1.15625.60938-.546875.78124-.546875 2.90624z"/><path d="m67.96875 87.5h-1.046875v-6.71875q-.390625.359375-1.015625.734375-.609375.359375-1.09375.53125v-1.015625q.875-.421875 1.53125-1 .671875-.59375.953125-1.15625h.671875zm3.03125-2.25 1.109375-.09375q.125.8125.5625 1.21875.453125.40625 1.09375.40625.75 0 1.28125-.578125.53125-.578125.53125-1.515625 0-.90625-.515625-1.421875-.5-.53125-1.328125-.53125-.5 0-.921875.234375-.40625.234375-.640625.59375l-.984375-.125.828125-4.40625h4.28125v1h-3.4375l-.453125 2.3125q.765625-.546875 1.609375-.546875 1.125 0 1.890625.78125.78125.78125.78125 2.015625 0 1.15625-.671875 2.015625-.828125 1.03125-2.25 1.03125-1.171875 0-1.921875-.65625-.734375-.65625-.84375-1.734375zm7-1.984375q0-1.53125.3125-2.453125.3125-.9375.921875-1.4375.625-.5 1.5625-.5.6875 0 1.203125.28125.53125.28125.875.8125.34375.515625.53125 1.265625.1875.75.1875 2.03125 0 1.515625-.3125 2.4375-.296875.921875-.921875 1.4375-.609375.5-1.5625.5-1.234375 0-1.953125-.890625-.84375-1.0625-.84375-3.484375zm1.078125 0q0 2.109375.5 2.8125.5.703125 1.21875.703125.734375 0 1.21875-.703125.5-.703125.5-2.8125 0-2.125-.5-2.8125-.484375-.703125-1.234375-.703125-.71875 0-1.15625.609375-.546875.78125-.546875 2.90625z"/><path d="m117.127716 532.4844 1.125.29685q-.359376 1.39065-1.28125 2.125-.921876.73435-2.265626.73435-1.390624 0-2.265624-.5625-.875-.5625-1.328126-1.625-.453124-1.0781-.453124-2.3125 0-1.3437.515624-2.3437.515626-1 1.453126-1.51565.953124-.51565 2.09375-.51565 1.28125 0 2.15625.6563.890624.6562 1.234374 1.8437l-1.125.26565q-.296874-.9375-.875-1.35935-.5625-.4375-1.421874-.4375-.984376 0-1.65625.48435-.65625.46875-.9375 1.26565-.265626.79685-.265626 1.6562 0 1.0938.3125 1.9063.328126.8125 1 1.2187.671876.4063 1.46875.4063.953126 0 1.609376-.5469.671874-.5469.90625-1.6406zm2.34375-.0938q0-1.73435.953124-2.5625.796876-.6875 1.953126-.6875 1.28125 0 2.09375.8438.828124.8281.828124 2.3125 0 1.2031-.359374 1.8906-.359376.6875-1.0625 1.0781-.6875.375-1.5.375-1.296876 0-2.109376-.8281-.796874-.84375-.796874-2.4219zm1.078124 0q0 1.1875.515626 1.7813.53125.5937 1.3125.5937.796874 0 1.3125-.5937.515624-.5938.515624-1.8125 0-1.1563-.53125-1.75-.515624-.5938-1.296874-.5938-.78125 0-1.3125.5938-.515626.5781-.515626 1.7812zm6.28125 3.1094v-8.59375h1.0625v8.59375zm3.03125-7.375v-1.21875h1.0625v1.21875zm0 7.375v-6.21875h1.0625v6.21875zm3 0v-6.21875h.9375v.875q.29688-.46875.78125-.73435.48438-.2813 1.10938-.2813.6875 0 1.125.2813.45312.2812.625.79685.75-1.07815 1.92187-1.07815.9375 0 1.42188.51565.5.5.5 1.57815v4.2656h-1.04688v-3.9219q0-.625-.10937-.9062-.09375-.2813-.35938-.45315-.26562-.17185-.64062-.17185-.65625 0-1.09375.4375-.42188.4375-.42188 1.4062v3.6094h-1.0625v-4.0469q0-.7031-.26562-1.04685-.25-.35935-.82813-.35935-.45312 0-.82812.23435-.375.23435-.54688.6875-.17187.45315-.17187 1.29685v3.2344zm15.0625-.7656q-.59375.5-1.14062.7031-.53125.2031-1.15625.2031-1.03125 0-1.57813-.5-.54687-.5-.54687-1.2812 0-.45315.20312-.82815.20313-.39065.54688-.60935.34375-.2344.76562-.3438.29688-.0937.9375-.17185 1.26563-.14065 1.875-.35935 0-.2188 0-.26565 0-.65625-.29687-.92185-.40625-.3438-1.20313-.3438-.73437 0-1.09375.26565-.35937.25-.53125.90625l-1.03125-.1406q.14063-.6563.46875-1.0625.32813-.4063.9375-.625.60938-.2188 1.40625-.2188.79688 0 1.29688.1875.5.1875.73437.4688.23438.2812.32813.7187.04687.26565.04687.9688v1.4062q0 1.4688.0625 1.8594.07813.3906.28125.75h-1.10937q-.15625-.3281-.20313-.7656zm-.09375-2.3594q-.57812.2344-1.71875.40625-.65625.09375-.92187.21875-.26563.1094-.42188.3281-.14062.2188-.14062.5 0 .4219.3125.70315.32812.28125.9375.28125.60937 0 1.07812-.2656.48438-.26565.70313-.7344.17187-.3594.17187-1.0469zm12.67188 2.2031q.79687.5469 1.45312.7969l-.32812.7969q-.92188-.3438-1.84375-1.0625-.95313.5312-2.10938.5312-1.17187 0-2.125-.5625-.9375-.5625-1.45312-1.5781-.51563-1.0156-.51563-2.2969 0-1.2656.51563-2.3125.51562-1.04685 1.46875-1.5937.95312-.5469 2.125-.5469 1.1875 0 2.14062.5781.96875.5625 1.46875 1.57815.5 1.01565.5 2.29685 0 1.0625-.32812 1.9063-.3125.8437-.96875 1.4687zm-2.5-1.4531q.98437.28125 1.625.8281 1-.92185 1-2.75 0-1.04685-.35938-1.8281-.35937-.78125-1.04687-1.2031-.67188-.4375-1.51563-.4375-1.28125 0-2.125.875-.82812.85935-.82812 2.5937 0 1.6719.82812 2.57815.82813.89065 2.125.89065.60938 0 1.14063-.2344-.53125-.34375-1.125-.4844zm5.01562 2.375v-8.59375h6.20313v1.01565h-5.0625v2.625h4.75v1.0156h-4.75v2.9219h5.26562v1.0156zm7.9375 0v-8.59375h1.71875l2.03125 6.07815q.28125.85935.40625 1.2812.14063-.4687.45313-1.375l2.0625-5.98435h1.53125v8.59375h-1.09375v-7.1875l-2.5 7.1875h-1.03125l-2.48438-7.3125v7.3125zm14.67188-8.59375h1.14062v4.96875q0 1.2969-.29687 2.0625-.29688.75-1.0625 1.2344-.76563.4687-2 .4687-1.20313 0-1.98438-.4062-.76562-.4219-1.09375-1.20315-.32812-.79685-.32812-2.15625v-4.96875h1.14062v4.95315q0 1.125.20313 1.6562.21875.5313.71875.82815.51562.28125 1.25.28125 1.25 0 1.78125-.5625.53125-.5781.53125-2.2031z"/><path d="m142.72147 547.5156 1.01562-.0937q.125.7187.48438 1.04685.375.3125.9375.3125.48437 0 .84375-.21875.375-.2344.60937-.59375.23438-.375.39063-1 .15625-.64065.15625-1.29685 0-.07815 0-.2188-.3125.5-.85938.82815-.54687.3125-1.1875.3125-1.07812 0-1.8125-.76565-.73437-.7812-.73437-2.04685 0-1.3125.76562-2.10935.78125-.7969 1.9375-.7969.82813 0 1.51563.4531.70312.45315 1.0625 1.2969.35937.8281.35937 2.40625 0 1.64065-.35937 2.625-.34375.96875-1.0625 1.48435-.70313.5-1.64063.5-1.01562 0-1.65625-.54685-.64062-.5625-.76562-1.57815zm4.3125-3.79685q0-.90625-.48438-1.4375-.46875-.53125-1.15625-.53125-.70312 0-1.23437.5781-.51563.5625-.51563 1.4844 0 .8125.5 1.3281.5.51565 1.21875.51565.73438 0 1.20313-.51565.46875-.5156.46875-1.42185zm2.82812 8.17185v-8.60935h.95313v.79685q.34375-.4687.76562-.7031.4375-.2344 1.04688-.2344.79687 0 1.40625.4063.60937.4062.90625 1.1562.3125.75.3125 1.64065 0 .95315-.34375 1.71875-.32813.7656-.98438 1.1719-.65625.4062-1.375.4062-.53125 0-.95312-.2187-.42188-.2344-.6875-.5625v3.0312zm.95313-5.4687q0 1.2031.48437 1.7812.48438.5625 1.17188.5625.70312 0 1.20312-.5937.5-.5938.5-1.8438 0-1.1875-.48437-1.7656-.48438-.59375-1.17188-.59375-.67187 0-1.1875.625-.51562.625-.51562 1.82815z"/><path d="m205.391 532.4844 1.125.29685q-.35937 1.39065-1.28124 2.125-.92188.73435-2.26563.73435-1.39063 0-2.26563-.5625-.875-.5625-1.32812-1.625-.45312-1.0781-.45312-2.3125 0-1.3437.51562-2.3437.51562-1 1.45312-1.51565.95313-.51565 2.09376-.51565 1.28124 0 2.15624.6563.89063.6562 1.23438 1.8437l-1.125.26565q-.29688-.9375-.875-1.35935-.5625-.4375-1.42188-.4375-.98437 0-1.65624.48435-.65626.46875-.9375 1.26565-.26563.79685-.26563 1.6562 0 1.0938.3125 1.9063.32813.8125 1 1.2187.67187.4063 1.46875.4063.95312 0 1.60938-.5469.67187-.5469.90624-1.6406zm2.34376-.0938q0-1.73435.95312-2.5625.79688-.6875 1.95312-.6875 1.28126 0 2.09376.8438.82812.8281.82812 2.3125 0 1.2031-.35938 1.8906-.35937.6875-1.0625 1.0781-.6875.375-1.5.375-1.29687 0-2.10937-.8281-.79687-.84375-.79687-2.4219zm1.07812 0q0 1.1875.51562 1.7813.53126.5937 1.3125.5937.79688 0 1.3125-.5937.51563-.5938.51563-1.8125 0-1.1563-.53125-1.75-.51562-.5938-1.29688-.5938-.78124 0-1.3125.5938-.51562.5781-.51562 1.7812zm6.3125-4.2656v-1.21875h1.0625v1.21875zm0 7.375v-6.21875h1.0625v6.21875zm3 0v-6.21875h.9375v.875q.29688-.46875.78125-.73435.48437-.2813 1.10937-.2813.6875 0 1.125.2813.45313.2812.625.79685.75-1.07815 1.92188-1.07815.9375 0 1.42188.51565.5.5.5 1.57815v4.2656h-1.04688v-3.9219q0-.625-.10938-.9062-.09374-.2813-.35937-.45315-.26563-.17185-.64063-.17185-.65624 0-1.09374.4375-.42188.4375-.42188 1.4062v3.6094h-1.0625v-4.0469q0-.7031-.26562-1.04685-.25-.35935-.82813-.35935-.45313 0-.82813.23435-.375.23435-.54687.6875-.17187.45315-.17187 1.29685v3.2344zm15.0625-.7656q-.59375.5-1.14062.7031-.53126.2031-1.15626.2031-1.03124 0-1.57812-.5-.54688-.5-.54688-1.2812 0-.45315.20313-.82815.20313-.39065.54687-.60935.34376-.2344.76563-.3438.29687-.0937.9375-.17185 1.26563-.14065 1.875-.35935 0-.2188 0-.26565 0-.65625-.29687-.92185-.40626-.3438-1.20313-.3438-.73437 0-1.09375.26565-.35938.25-.53125.90625l-1.03125-.1406q.14062-.6563.46875-1.0625.32813-.4063.9375-.625.60937-.2188 1.40625-.2188.79688 0 1.29688.1875.5.1875.73437.4688.23437.2812.32813.7187.04687.26565.04687.9688v1.4062q0 1.4688.0625 1.8594.07813.3906.28125.75h-1.10938q-.15624-.3281-.20312-.7656zm-.09375-2.3594q-.57813.2344-1.71875.40625-.65625.09375-.92188.21875-.26562.1094-.42187.3281-.14063.2188-.14063.5 0 .4219.3125.70315.32813.28125.9375.28125.60938 0 1.07813-.2656.48437-.26565.70313-.7344.17187-.3594.17187-1.0469zm12.67187 2.2031q.79688.5469 1.45313.7969l-.32813.7969q-.92187-.3438-1.84374-1.0625-.95313.5312-2.10938.5312-1.17188 0-2.125-.5625-.9375-.5625-1.45312-1.5781-.51563-1.0156-.51563-2.2969 0-1.2656.51563-2.3125.51562-1.04685 1.46874-1.5937.95313-.5469 2.125-.5469 1.1875 0 2.14063.5781.96875.5625 1.46875 1.57815.5 1.01565.5 2.29685 0 1.0625-.32812 1.9063-.3125.8437-.96876 1.4687zm-2.5-1.4531q.98438.28125 1.625.8281 1-.92185 1-2.75 0-1.04685-.35937-1.8281-.35937-.78125-1.04687-1.2031-.67188-.4375-1.51563-.4375-1.28125 0-2.125.875-.82813.85935-.82813 2.5937 0 1.6719.82813 2.57815.82813.89065 2.125.89065.60937 0 1.14063-.2344-.53126-.34375-1.125-.4844zm5.01563 2.375v-8.59375h6.20313v1.01565h-5.0625v2.625h4.75v1.0156h-4.75v2.9219h5.26562v1.0156zm7.93749 0v-8.59375h1.71875l2.03125 6.07815q.28125.85935.40625 1.2812.14063-.4687.45313-1.375l2.0625-5.98435h1.53124v8.59375h-1.09374v-7.1875l-2.5 7.1875h-1.03126l-2.48437-7.3125v7.3125zm14.67188-8.59375h1.14062v4.96875q0 1.2969-.29688 2.0625-.29687.75-1.0625 1.2344-.76562.4687-2 .4687-1.20312 0-1.98437-.4062-.76563-.4219-1.09375-1.20315-.32812-.79685-.32812-2.15625v-4.96875h1.14062v4.95315q0 1.125.20312 1.6562.21876.5313.71876.82815.51562.28125 1.25.28125 1.25 0 1.78124-.5625.53126-.5781.53126-2.2031z"/><path d="m204.48476 547.5156 1.01562-.0937q.125.7187.48438 1.04685.375.3125.9375.3125.48437 0 .84374-.21875.375-.2344.60938-.59375.23438-.375.39062-1 .15626-.64065.15626-1.29685 0-.07815 0-.2188-.3125.5-.85938.82815-.54688.3125-1.1875.3125-1.07812 0-1.8125-.76565-.73438-.7812-.73438-2.04685 0-1.3125.76563-2.10935.78125-.7969 1.9375-.7969.82813 0 1.51563.4531.70312.45315 1.0625 1.2969.35937.8281.35937 2.40625 0 1.64065-.35937 2.625-.34376.96875-1.0625 1.48435-.70313.5-1.64063.5-1.01563 0-1.65625-.54685-.64062-.5625-.76562-1.57815zm4.3125-3.79685q0-.90625-.48438-1.4375-.46875-.53125-1.15625-.53125-.70313 0-1.23437.5781-.51563.5625-.51563 1.4844 0 .8125.5 1.3281.5.51565 1.21875.51565.73438 0 1.20312-.51565.46876-.5156.46876-1.42185zm2.82812 8.17185v-8.60935h.95312v.79685q.34376-.4687.76563-.7031.4375-.2344 1.04687-.2344.79688 0 1.40626.4063.60937.4062.90624 1.1562.3125.75.3125 1.64065 0 .95315-.34374 1.71875-.32813.7656-.98438 1.1719-.65625.4062-1.375.4062-.53125 0-.95312-.2187-.42188-.2344-.6875-.5625v3.0312zm.95312-5.4687q0 1.2031.48438 1.7812.48438.5625 1.17188.5625.70312 0 1.20312-.5937.5-.5938.5-1.8438 0-1.1875-.48438-1.7656-.48437-.59375-1.17187-.59375-.67187 0-1.1875.625-.51563.625-.51563 1.82815zm9.14063 3.0781v-8.59375h1.71875l2.03125 6.07815q.28125.85935.40625 1.2812.14062-.4687.45312-1.375l2.0625-5.98435h1.53126v8.59375h-1.09376v-7.1875l-2.5 7.1875h-1.03124l-2.48438-7.3125v7.3125zm12.98437 0v-.9219q-.73437 1.0625-1.98437 1.0625-.54687 0-1.03125-.2031-.46875-.21875-.70312-.53125-.23438-.32815-.32813-.79685-.0625-.2969-.0625-.9844v-3.84375h1.0625v3.45315q0 .8125.0625 1.10935.09375.40625.40625.65625.32812.2344.8125.2344.46875 0 .875-.2344.42188-.25.59375-.6719.1875-.42185.1875-1.2187v-3.32815h1.04687v6.21875zm5.21876-.9375.15624.9219q-.45312.0937-.79687.0937-.57813 0-.89063-.17185-.3125-.1875-.45312-.48435-.125-.2969-.125-1.25v-3.57815h-.76562v-.8125h.76562v-1.54685l1.04688-.625v2.17185h1.0625v.8125h-1.0625v3.64065q0 .4531.04687.5781.0625.125.1875.2031.125.07815.35937.07815.1875 0 .46876-.03125zm4.76562.1719q-.59375.5-1.14062.7031-.53126.2031-1.15626.2031-1.03124 0-1.57812-.5-.54688-.5-.54688-1.2812 0-.45315.20313-.82815.20313-.39065.54687-.60935.34376-.2344.76563-.3438.29687-.0937.9375-.17185 1.26563-.14065 1.875-.35935 0-.2188 0-.26565 0-.65625-.29687-.92185-.40626-.3438-1.20313-.3438-.73437 0-1.09375.26565-.35938.25-.53125.90625l-1.03125-.1406q.14062-.6563.46875-1.0625.32813-.4063.9375-.625.60937-.2188 1.40625-.2188.79688 0 1.29688.1875.5.1875.73437.4688.23437.2812.32813.7187.04687.26565.04687.9688v1.4062q0 1.4688.0625 1.8594.07813.3906.28125.75h-1.10938q-.15624-.3281-.20312-.7656zm-.09375-2.3594q-.57813.2344-1.71875.40625-.65625.09375-.92188.21875-.26562.1094-.42187.3281-.14063.2188-.14063.5 0 .4219.3125.70315.32813.28125.9375.28125.60938 0 1.07813-.2656.48437-.26565.70313-.7344.17187-.3594.17187-1.0469zm2.82813 3.6406 1.03124.1563q.0625.4687.35938.6875.39062.29685 1.0625.29685.73438 0 1.125-.29685.40625-.2969.54688-.8125.09374-.32815.07812-1.3594-.6875.8125-1.71875.8125-1.28125 0-1.98437-.9219-.70313-.9375-.70313-2.2187 0-.89065.3125-1.64065.32813-.76565.9375-1.17185.60937-.4063 1.4375-.4063 1.10937 0 1.82813.89065v-.75h.96874v5.375q0 1.45315-.29687 2.0625-.29687.60935-.9375.95315-.64063.35935-1.57813.35935-1.10937 0-1.79687-.5-.6875-.5-.67187-1.51565zm.875-3.73435q0 1.21875.48437 1.78125.48437.5625 1.21875.5625.73438 0 1.21875-.5625.5-.5625.5-1.75 0-1.1406-.51563-1.71875-.5-.57815-1.21874-.57815-.70313 0-1.20313.57815-.48437.5625-.48437 1.6875zm10.57811 1.21875 1.09375.125q-.25.9531-.95312 1.4844-.70313.5312-1.78126.5312-1.35936 0-2.17186-.8437-.79688-.8438-.79688-2.3594 0-1.5625.8125-2.4219.8125-.875 2.09374-.875 1.25 0 2.03126.8438.79687.8437.79687 2.3906 0 .09375 0 .28125h-4.64061q.0625 1.03125.57812 1.57815.51562.5312 1.29686.5312.57813 0 .98438-.29685.42188-.3125.65625-.96875zm-3.45311-1.7031h3.46874q-.0625-.7969-.39063-1.1875-.51563-.6094-1.3125-.6094-.73437 0-1.23437.4844-.48437.48435-.53124 1.3125zm6.20311 3.7031v-6.21875h.9375v.875q.6875-1.01565 1.98437-1.01565.5625 0 1.03126.20315.48437.20315.71874.53125.23438.3281.32813.7656.04687.2969.04687 1.0313v3.8281h-1.04687v-3.78125q0-.65625-.125-.96875-.125-.3125-.4375-.5-.3125-.2031-.73437-.2031-.67188 0-1.17188.4375-.48438.42185-.48438 1.60935v3.40625z"/><path d="m290.6543 532.4844 1.125.29685q-.35938 1.39065-1.28125 2.125-.92188.73435-2.26563.73435-1.39062 0-2.26562-.5625-.875-.5625-1.32813-1.625-.45312-1.0781-.45312-2.3125 0-1.3437.51562-2.3437.51563-1 1.45313-1.51565.95312-.51565 2.09375-.51565 1.28125 0 2.15625.6563.89062.6562 1.23437 1.8437l-1.125.26565q-.29687-.9375-.875-1.35935-.5625-.4375-1.42187-.4375-.98438 0-1.65625.48435-.65625.46875-.9375 1.26565-.26563.79685-.26563 1.6562 0 1.0938.3125 1.9063.32813.8125 1 1.2187.67188.4063 1.46875.4063.95313 0 1.60938-.5469.67187-.5469.90625-1.6406zm2.34375-.0938q0-1.73435.95312-2.5625.79688-.6875 1.95313-.6875 1.28125 0 2.09375.8438.82812.8281.82812 2.3125 0 1.2031-.35937 1.8906-.35938.6875-1.0625 1.0781-.6875.375-1.5.375-1.29688 0-2.10938-.8281-.79687-.84375-.79687-2.4219zm1.07812 0q0 1.1875.51563 1.7813.53125.5937 1.3125.5937.79687 0 1.3125-.5937.51562-.5938.51562-1.8125 0-1.1563-.53125-1.75-.51562-.5938-1.29687-.5938-.78125 0-1.3125.5938-.51563.5781-.51563 1.7812zm6.28125 3.1094v-8.59375h1.0625v8.59375zm3.03125-7.375v-1.21875h1.0625v1.21875zm0 7.375v-6.21875h1.0625v6.21875zm3 0v-6.21875h.9375v.875q.29688-.46875.78125-.73435.48438-.2813 1.10938-.2813.6875 0 1.125.2813.45312.2812.625.79685.75-1.07815 1.92187-1.07815.9375 0 1.42188.51565.5.5.5 1.57815v4.2656h-1.04688v-3.9219q0-.625-.10937-.9062-.09375-.2813-.35938-.45315-.26562-.17185-.64062-.17185-.65625 0-1.09375.4375-.42188.4375-.42188 1.4062v3.6094h-1.0625v-4.0469q0-.7031-.26562-1.04685-.25-.35935-.82813-.35935-.45312 0-.82812.23435-.375.23435-.54688.6875-.17187.45315-.17187 1.29685v3.2344zm15.0625-.7656q-.59375.5-1.14062.7031-.53125.2031-1.15625.2031-1.03125 0-1.57813-.5-.54687-.5-.54687-1.2812 0-.45315.20312-.82815.20313-.39065.54688-.60935.34375-.2344.76562-.3438.29688-.0937.9375-.17185 1.26563-.14065 1.875-.35935 0-.2188 0-.26565 0-.65625-.29687-.92185-.40625-.3438-1.20313-.3438-.73437 0-1.09375.26565-.35937.25-.53125.90625l-1.03125-.1406q.14063-.6563.46875-1.0625.32813-.4063.9375-.625.60938-.2188 1.40625-.2188.79688 0 1.29688.1875.5.1875.73437.4688.23438.2812.32813.7187.04687.26565.04687.9688v1.4062q0 1.4688.0625 1.8594.07813.3906.28125.75h-1.10937q-.15625-.3281-.20313-.7656zm-.09375-2.3594q-.57812.2344-1.71875.40625-.65625.09375-.92187.21875-.26563.1094-.42188.3281-.14062.2188-.14062.5 0 .4219.3125.70315.32812.28125.9375.28125.60937 0 1.07812-.2656.48438-.26565.70313-.7344.17187-.3594.17187-1.0469zm12.67188 2.2031q.79687.5469 1.45312.7969l-.32812.7969q-.92188-.3438-1.84375-1.0625-.95313.5312-2.10938.5312-1.17187 0-2.125-.5625-.9375-.5625-1.45312-1.5781-.51563-1.0156-.51563-2.2969 0-1.2656.51563-2.3125.51562-1.04685 1.46875-1.5937.95312-.5469 2.125-.5469 1.1875 0 2.14062.5781.96875.5625 1.46875 1.57815.5 1.01565.5 2.29685 0 1.0625-.32812 1.9063-.3125.8437-.96875 1.4687zm-2.5-1.4531q.98437.28125 1.625.8281 1-.92185 1-2.75 0-1.04685-.35938-1.8281-.35937-.78125-1.04687-1.2031-.67188-.4375-1.51563-.4375-1.28125 0-2.125.875-.82812.85935-.82812 2.5937 0 1.6719.82812 2.57815.82813.89065 2.125.89065.60938 0 1.14063-.2344-.53125-.34375-1.125-.4844zm5.01562 2.375v-8.59375h6.20313v1.01565h-5.0625v2.625h4.75v1.0156h-4.75v2.9219h5.26562v1.0156zm7.9375 0v-8.59375h1.71875l2.03125 6.07815q.28125.85935.40625 1.2812.14063-.4687.45313-1.375l2.0625-5.98435h1.53125v8.59375h-1.09375v-7.1875l-2.5 7.1875h-1.03125l-2.48438-7.3125v7.3125zm14.67188-8.59375h1.14062v4.96875q0 1.2969-.29687 2.0625-.29688.75-1.0625 1.2344-.76563.4687-2 .4687-1.20313 0-1.98438-.4062-.76562-.4219-1.09375-1.20315-.32812-.79685-.32812-2.15625v-4.96875h1.14062v4.95315q0 1.125.20313 1.6562.21875.5313.71875.82815.51562.28125 1.25.28125 1.25 0 1.78125-.5625.53125-.5781.53125-2.2031z"/><path d="m307.4668 547.6406 1.03125-.1562q.09375.625.48437.9531.40625.3281 1.14063.3281.71875 0 1.0625-.2812.35937-.2969.35937-.70315 0-.35935-.3125-.5625-.21875-.14065-1.07812-.35935-1.15625-.2969-1.60938-.5-.4375-.2188-.67187-.5938-.23438-.375-.23438-.8437 0-.4063.1875-.76565.1875-.35935.51563-.59375.25-.1719.67187-.2969.42188-.125.92188-.125.71875 0 1.26562.2188.5625.2031.82813.5625.26562.35935.35937.9531l-1.03125.1406q-.0625-.4687-.40625-.73435-.32812-.28125-.95312-.28125-.71875 0-1.03125.25-.3125.2344-.3125.5625 0 .2031.125.3594.14062.17185.40625.2812.15625.0625.9375.26565 1.125.3125 1.5625.5.4375.1875.6875.54685.25.3594.25.9063 0 .5312-.3125 1-.29688.4531-.875.7187-.57813.25-1.3125.25-1.21875 0-1.85938-.5-.625-.5156-.79687-1.5zm7 0 1.03125-.1562q.09375.625.48437.9531.40625.3281 1.14063.3281.71875 0 1.0625-.2812.35937-.2969.35937-.70315 0-.35935-.3125-.5625-.21875-.14065-1.07812-.35935-1.15625-.2969-1.60938-.5-.4375-.2188-.67187-.5938-.23438-.375-.23438-.8437 0-.4063.1875-.76565.1875-.35935.51563-.59375.25-.1719.67187-.2969.42188-.125.92188-.125.71875 0 1.26562.2188.5625.2031.82813.5625.26562.35935.35937.9531l-1.03125.1406q-.0625-.4687-.40625-.73435-.32812-.28125-.95312-.28125-.71875 0-1.03125.25-.3125.2344-.3125.5625 0 .2031.125.3594.14062.17185.40625.2812.15625.0625.9375.26565 1.125.3125 1.5625.5.4375.1875.6875.54685.25.3594.25.9063 0 .5312-.3125 1-.29688.4531-.875.7187-.57813.25-1.3125.25-1.21875 0-1.85938-.5-.625-.5156-.79687-1.5zm7.42187 1.8594v-8.59375h1.04688v3.07815q.73437-.8438 1.85937-.8438.70313 0 1.20313.2813.51562.2656.73437.75.21875.4687.21875 1.3906v3.9375h-1.04687v-3.9375q0-.7969-.34375-1.15625-.34375-.35935-.96875-.35935-.46875 0-.89063.25-.40625.23435-.59375.6562-.17187.4063-.17187 1.14065v3.40625zm7.25 0v-5.40625h-.9375v-.8125h.9375v-.67185q0-.625.10938-.9219.15625-.4219.53125-.6719.39062-.25 1.07812-.25.45313 0 .98438.1094l-.15625.90625q-.32813-.04685-.625-.04685-.48438 0-.6875.2031-.1875.2031-.1875.7656v.57815h1.21875v.8125h-1.21875v5.40625zm2.32813-1.8594 1.03125-.1562q.09375.625.48437.9531.40625.3281 1.14063.3281.71875 0 1.0625-.2812.35937-.2969.35937-.70315 0-.35935-.3125-.5625-.21875-.14065-1.07812-.35935-1.15625-.2969-1.60938-.5-.4375-.2188-.67187-.5938-.23438-.375-.23438-.8437 0-.4063.1875-.76565.1875-.35935.51563-.59375.25-.1719.67187-.2969.42188-.125.92188-.125.71875 0 1.26562.2188.5625.2031.82813.5625.26562.35935.35937.9531l-1.03125.1406q-.0625-.4687-.40625-.73435-.32812-.28125-.95312-.28125-.71875 0-1.03125.25-.3125.2344-.3125.5625 0 .2031.125.3594.14062.17185.40625.2812.15625.0625.9375.26565 1.125.3125 1.5625.5.4375.1875.6875.54685.25.3594.25.9063 0 .5312-.3125 1-.29688.4531-.875.7187-.57813.25-1.3125.25-1.21875 0-1.85938-.5-.625-.5156-.79687-1.5z"/><path d="m377.41757 532.4844 1.125.29685q-.35937 1.39065-1.28125 2.125-.92187.73435-2.26562.73435-1.39063 0-2.26563-.5625-.875-.5625-1.32812-1.625-.45313-1.0781-.45313-2.3125 0-1.3437.51563-2.3437.51562-1 1.45312-1.51565.95313-.51565 2.09375-.51565 1.28125 0 2.15625.6563.89063.6562 1.23438 1.8437l-1.125.26565q-.29688-.9375-.875-1.35935-.5625-.4375-1.42188-.4375-.98437 0-1.65625.48435-.65625.46875-.9375 1.26565-.26562.79685-.26562 1.6562 0 1.0938.3125 1.9063.32812.8125 1 1.2187.67187.4063 1.46875.4063.95312 0 1.60937-.5469.67188-.5469.90625-1.6406zm2.34375-.0938q0-1.73435.95313-2.5625.79687-.6875 1.95312-.6875 1.28125 0 2.09375.8438.82813.8281.82813 2.3125 0 1.2031-.35938 1.8906-.35937.6875-1.0625 1.0781-.6875.375-1.5.375-1.29687 0-2.10937-.8281-.79688-.84375-.79688-2.4219zm1.07813 0q0 1.1875.51562 1.7813.53125.5937 1.3125.5937.79688 0 1.3125-.5937.51563-.5938.51563-1.8125 0-1.1563-.53125-1.75-.51563-.5938-1.29688-.5938-.78125 0-1.3125.5938-.51562.5781-.51562 1.7812zm6.28125 3.1094v-8.59375h1.0625v8.59375zm3.03125-7.375v-1.21875h1.0625v1.21875zm0 7.375v-6.21875h1.0625v6.21875zm3 0v-6.21875h.9375v.875q.29687-.46875.78125-.73435.48437-.2813 1.10937-.2813.6875 0 1.125.2813.45313.2812.625.79685.75-1.07815 1.92188-1.07815.9375 0 1.42187.51565.5.5.5 1.57815v4.2656h-1.04687v-3.9219q0-.625-.10938-.9062-.09375-.2813-.35937-.45315-.26563-.17185-.64063-.17185-.65625 0-1.09375.4375-.42187.4375-.42187 1.4062v3.6094h-1.0625v-4.0469q0-.7031-.26563-1.04685-.25-.35935-.82812-.35935-.45313 0-.82813.23435-.375.23435-.54687.6875-.17188.45315-.17188 1.29685v3.2344zm15.0625-.7656q-.59375.5-1.14063.7031-.53125.2031-1.15625.2031-1.03125 0-1.57812-.5-.54688-.5-.54688-1.2812 0-.45315.20313-.82815.20312-.39065.54687-.60935.34375-.2344.76563-.3438.29687-.0937.9375-.17185 1.26562-.14065 1.875-.35935 0-.2188 0-.26565 0-.65625-.29688-.92185-.40625-.3438-1.20312-.3438-.73438 0-1.09375.26565-.35938.25-.53125.90625l-1.03125-.1406q.14062-.6563.46875-1.0625.32812-.4063.9375-.625.60937-.2188 1.40625-.2188.79687 0 1.29687.1875.5.1875.73438.4688.23437.2812.32812.7187.04688.26565.04688.9688v1.4062q0 1.4688.0625 1.8594.07812.3906.28125.75h-1.10938q-.15625-.3281-.20312-.7656zm-.09375-2.3594q-.57813.2344-1.71875.40625-.65625.09375-.92188.21875-.26562.1094-.42187.3281-.14063.2188-.14063.5 0 .4219.3125.70315.32813.28125.9375.28125.60938 0 1.07813-.2656.48437-.26565.70312-.7344.17188-.3594.17188-1.0469zm12.67187 2.2031q.79688.5469 1.45313.7969l-.32813.7969q-.92187-.3438-1.84375-1.0625-.95312.5312-2.10937.5312-1.17188 0-2.125-.5625-.9375-.5625-1.45313-1.5781-.51562-1.0156-.51562-2.2969 0-1.2656.51562-2.3125.51563-1.04685 1.46875-1.5937.95313-.5469 2.125-.5469 1.1875 0 2.14063.5781.96875.5625 1.46875 1.57815.5 1.01565.5 2.29685 0 1.0625-.32813 1.9063-.3125.8437-.96875 1.4687zm-2.5-1.4531q.98438.28125 1.625.8281 1-.92185 1-2.75 0-1.04685-.35937-1.8281-.35938-.78125-1.04688-1.2031-.67187-.4375-1.51562-.4375-1.28125 0-2.125.875-.82813.85935-.82813 2.5937 0 1.6719.82813 2.57815.82812.89065 2.125.89065.60937 0 1.14062-.2344-.53125-.34375-1.125-.4844zm5.01563 2.375v-8.59375h6.20312v1.01565h-5.0625v2.625h4.75v1.0156h-4.75v2.9219h5.26563v1.0156zm7.9375 0v-8.59375h1.71875l2.03125 6.07815q.28125.85935.40625 1.2812.14062-.4687.45312-1.375l2.0625-5.98435h1.53125v8.59375h-1.09375v-7.1875l-2.5 7.1875h-1.03125l-2.48437-7.3125v7.3125zm14.67187-8.59375h1.14063v4.96875q0 1.2969-.29688 2.0625-.29687.75-1.0625 1.2344-.76562.4687-2 .4687-1.20312 0-1.98437-.4062-.76563-.4219-1.09375-1.20315-.32813-.79685-.32813-2.15625v-4.96875h1.14063v4.95315q0 1.125.20312 1.6562.21875.5313.71875.82815.51563.28125 1.25.28125 1.25 0 1.78125-.5625.53125-.5781.53125-2.2031z"/><path d="m369.23007 547.6406 1.03125-.1562q.09375.625.48438.9531.40625.3281 1.14062.3281.71875 0 1.0625-.2812.35938-.2969.35938-.70315 0-.35935-.3125-.5625-.21875-.14065-1.07813-.35935-1.15625-.2969-1.60937-.5-.4375-.2188-.67188-.5938-.23437-.375-.23437-.8437 0-.4063.1875-.76565.1875-.35935.51562-.59375.25-.1719.67188-.2969.42187-.125.92187-.125.71875 0 1.26563.2188.5625.2031.82812.5625.26563.35935.35938.9531l-1.03125.1406q-.0625-.4687-.40625-.73435-.32813-.28125-.95313-.28125-.71875 0-1.03125.25-.3125.2344-.3125.5625 0 .2031.125.3594.14063.17185.40625.2812.15625.0625.9375.26565 1.125.3125 1.5625.5.4375.1875.6875.54685.25.3594.25.9063 0 .5312-.3125 1-.29687.4531-.875.7187-.57812.25-1.3125.25-1.21875 0-1.85937-.5-.625-.5156-.79688-1.5zm7 0 1.03125-.1562q.09375.625.48438.9531.40625.3281 1.14062.3281.71875 0 1.0625-.2812.35938-.2969.35938-.70315 0-.35935-.3125-.5625-.21875-.14065-1.07813-.35935-1.15625-.2969-1.60937-.5-.4375-.2188-.67188-.5938-.23437-.375-.23437-.8437 0-.4063.1875-.76565.1875-.35935.51562-.59375.25-.1719.67188-.2969.42187-.125.92187-.125.71875 0 1.26563.2188.5625.2031.82812.5625.26563.35935.35938.9531l-1.03125.1406q-.0625-.4687-.40625-.73435-.32813-.28125-.95313-.28125-.71875 0-1.03125.25-.3125.2344-.3125.5625 0 .2031.125.3594.14063.17185.40625.2812.15625.0625.9375.26565 1.125.3125 1.5625.5.4375.1875.6875.54685.25.3594.25.9063 0 .5312-.3125 1-.29687.4531-.875.7187-.57812.25-1.3125.25-1.21875 0-1.85937-.5-.625-.5156-.79688-1.5zm7.42188 1.8594v-8.59375h1.04687v3.07815q.73438-.8438 1.85938-.8438.70312 0 1.20312.2813.51563.2656.73438.75.21875.4687.21875 1.3906v3.9375h-1.04688v-3.9375q0-.7969-.34375-1.15625-.34375-.35935-.96875-.35935-.46875 0-.89062.25-.40625.23435-.59375.6562-.17188.4063-.17188 1.14065v3.40625zm7.25 0v-5.40625h-.9375v-.8125h.9375v-.67185q0-.625.10937-.9219.15625-.4219.53125-.6719.39063-.25 1.07813-.25.45312 0 .98437.1094l-.15625.90625q-.32812-.04685-.625-.04685-.48437 0-.6875.2031-.1875.2031-.1875.7656v.57815h1.21875v.8125h-1.21875v5.40625zm2.32812-1.8594 1.03125-.1562q.09375.625.48438.9531.40625.3281 1.14062.3281.71875 0 1.0625-.2812.35938-.2969.35938-.70315 0-.35935-.3125-.5625-.21875-.14065-1.07813-.35935-1.15625-.2969-1.60937-.5-.4375-.2188-.67188-.5938-.23437-.375-.23437-.8437 0-.4063.1875-.76565.1875-.35935.51562-.59375.25-.1719.67188-.2969.42187-.125.92187-.125.71875 0 1.26563.2188.5625.2031.82812.5625.26563.35935.35938.9531l-1.03125.1406q-.0625-.4687-.40625-.73435-.32813-.28125-.95313-.28125-.71875 0-1.03125.25-.3125.2344-.3125.5625 0 .2031.125.3594.14063.17185.40625.2812.15625.0625.9375.26565 1.125.3125 1.5625.5.4375.1875.6875.54685.25.3594.25.9063 0 .5312-.3125 1-.29687.4531-.875.7187-.57812.25-1.3125.25-1.21875 0-1.85937-.5-.625-.5156-.79688-1.5zm10.51563 1.8594v-8.59375h1.71875l2.03125 6.07815q.28125.85935.40625 1.2812.14062-.4687.45312-1.375l2.0625-5.98435h1.53125v8.59375h-1.09375v-7.1875l-2.5 7.1875h-1.03125l-2.48437-7.3125v7.3125zm12.98437 0v-.9219q-.73437 1.0625-1.98437 1.0625-.54688 0-1.03125-.2031-.46875-.21875-.70313-.53125-.23437-.32815-.32812-.79685-.0625-.2969-.0625-.9844v-3.84375h1.0625v3.45315q0 .8125.0625 1.10935.09375.40625.40625.65625.32812.2344.8125.2344.46875 0 .875-.2344.42187-.25.59375-.6719.1875-.42185.1875-1.2187v-3.32815h1.04687v6.21875zm5.21875-.9375.15625.9219q-.45312.0937-.79687.0937-.57813 0-.89063-.17185-.3125-.1875-.45312-.48435-.125-.2969-.125-1.25v-3.57815h-.76563v-.8125h.76563v-1.54685l1.04687-.625v2.17185h1.0625v.8125h-1.0625v3.64065q0 .4531.04688.5781.0625.125.1875.2031.125.07815.35937.07815.1875 0 .46875-.03125zm4.76563.1719q-.59375.5-1.14063.7031-.53125.2031-1.15625.2031-1.03125 0-1.57812-.5-.54688-.5-.54688-1.2812 0-.45315.20313-.82815.20312-.39065.54687-.60935.34375-.2344.76563-.3438.29687-.0937.9375-.17185 1.26562-.14065 1.875-.35935 0-.2188 0-.26565 0-.65625-.29688-.92185-.40625-.3438-1.20312-.3438-.73438 0-1.09375.26565-.35938.25-.53125.90625l-1.03125-.1406q.14062-.6563.46875-1.0625.32812-.4063.9375-.625.60937-.2188 1.40625-.2188.79687 0 1.29687.1875.5.1875.73438.4688.23437.2812.32812.7187.04688.26565.04688.9688v1.4062q0 1.4688.0625 1.8594.07812.3906.28125.75h-1.10938q-.15625-.3281-.20312-.7656zm-.09375-2.3594q-.57813.2344-1.71875.40625-.65625.09375-.92188.21875-.26562.1094-.42187.3281-.14063.2188-.14063.5 0 .4219.3125.70315.32813.28125.9375.28125.60938 0 1.07813-.2656.48437-.26565.70312-.7344.17188-.3594.17188-1.0469zm2.82812 3.6406 1.03125.1563q.0625.4687.35938.6875.39062.29685 1.0625.29685.73437 0 1.125-.29685.40625-.2969.54687-.8125.09375-.32815.07813-1.3594-.6875.8125-1.71875.8125-1.28125 0-1.98438-.9219-.70312-.9375-.70312-2.2187 0-.89065.3125-1.64065.32812-.76565.9375-1.17185.60937-.4063 1.4375-.4063 1.10937 0 1.82812.89065v-.75h.96875v5.375q0 1.45315-.29687 2.0625-.29688.60935-.9375.95315-.64063.35935-1.57813.35935-1.10937 0-1.79687-.5-.6875-.5-.67188-1.51565zm.875-3.73435q0 1.21875.48438 1.78125.48437.5625 1.21875.5625.73437 0 1.21875-.5625.5-.5625.5-1.75 0-1.1406-.51563-1.71875-.5-.57815-1.21875-.57815-.70312 0-1.20312.57815-.48438.5625-.48438 1.6875zm10.57813 1.21875 1.09375.125q-.25.9531-.95313 1.4844-.70312.5312-1.78125.5312-1.35937 0-2.17187-.8437-.79688-.8438-.79688-2.3594 0-1.5625.8125-2.4219.8125-.875 2.09375-.875 1.25 0 2.03125.8438.79688.8437.79688 2.3906 0 .09375 0 .28125h-4.64063q.0625 1.03125.57813 1.57815.51562.5312 1.29687.5312.57813 0 .98438-.29685.42187-.3125.65625-.96875zm-3.45313-1.7031h3.46875q-.0625-.7969-.39062-1.1875-.51563-.6094-1.3125-.6094-.73438 0-1.23438.4844-.48437.48435-.53125 1.3125zm6.20313 3.7031v-6.21875h.9375v.875q.6875-1.01565 1.98437-1.01565.5625 0 1.03125.20315.48438.20315.71875.53125.23438.3281.32813.7656.04687.2969.04687 1.0313v3.8281h-1.04687v-3.78125q0-.65625-.125-.96875-.125-.3125-.4375-.5-.3125-.2031-.73438-.2031-.67187 0-1.17187.4375-.48438.42185-.48438 1.60935v3.40625z"/><path d="m483.18085 532.4844 1.125.29685q-.35938 1.39065-1.28125 2.125-.92188.73435-2.26563.73435-1.39062 0-2.26562-.5625-.875-.5625-1.32813-1.625-.45312-1.0781-.45312-2.3125 0-1.3437.51562-2.3437.51563-1 1.45313-1.51565.95312-.51565 2.09375-.51565 1.28125 0 2.15625.6563.89062.6562 1.23437 1.8437l-1.125.26565q-.29687-.9375-.875-1.35935-.5625-.4375-1.42187-.4375-.98438 0-1.65625.48435-.65625.46875-.9375 1.26565-.26563.79685-.26563 1.6562 0 1.0938.3125 1.9063.32813.8125 1 1.2187.67188.4063 1.46875.4063.95313 0 1.60938-.5469.67187-.5469.90625-1.6406zm2.34375-.0938q0-1.73435.95312-2.5625.79688-.6875 1.95313-.6875 1.28125 0 2.09375.8438.82812.8281.82812 2.3125 0 1.2031-.35937 1.8906-.35938.6875-1.0625 1.0781-.6875.375-1.5.375-1.29688 0-2.10938-.8281-.79687-.84375-.79687-2.4219zm1.07812 0q0 1.1875.51563 1.7813.53125.5937 1.3125.5937.79687 0 1.3125-.5937.51562-.5938.51562-1.8125 0-1.1563-.53125-1.75-.51562-.5938-1.29687-.5938-.78125 0-1.3125.5938-.51563.5781-.51563 1.7812zm6.28125 3.1094v-8.59375h1.0625v8.59375zm3.03125-7.375v-1.21875h1.0625v1.21875zm0 7.375v-6.21875h1.0625v6.21875zm3 0v-6.21875h.9375v.875q.29688-.46875.78125-.73435.48438-.2813 1.10938-.2813.6875 0 1.125.2813.45312.2812.625.79685.75-1.07815 1.92187-1.07815.9375 0 1.42188.51565.5.5.5 1.57815v4.2656h-1.04688v-3.9219q0-.625-.10937-.9062-.09375-.2813-.35938-.45315-.26562-.17185-.64062-.17185-.65625 0-1.09375.4375-.42188.4375-.42188 1.4062v3.6094h-1.0625v-4.0469q0-.7031-.26562-1.04685-.25-.35935-.82813-.35935-.45312 0-.82812.23435-.375.23435-.54688.6875-.17187.45315-.17187 1.29685v3.2344zm15.06248-.7656q-.5937.5-1.1406.7031-.53125.2031-1.15625.2031-1.03125 0-1.57813-.5-.54687-.5-.54687-1.2812 0-.45315.20312-.82815.20313-.39065.54688-.60935.34375-.2344.76562-.3438.29688-.0937.93753-.17185 1.2656-.14065 1.875-.35935 0-.2188 0-.26565 0-.65625-.2969-.92185-.40625-.3438-1.2031-.3438-.7344 0-1.09378.26565-.35937.25-.53125.90625l-1.03125-.1406q.14063-.6563.46875-1.0625.32813-.4063.9375-.625.60938-.2188 1.40623-.2188.7969 0 1.2969.1875.5.1875.7344.4688.23435.2812.3281.7187.0469.26565.0469.9688v1.4062q0 1.4688.0625 1.8594.0781.3906.2812.75h-1.10935q-.15625-.3281-.20315-.7656zm-.0937-2.3594q-.57815.2344-1.7188.40625-.65623.09375-.92185.21875-.26563.1094-.42188.3281-.14062.2188-.14062.5 0 .4219.3125.70315.32812.28125.9375.28125.60935 0 1.07815-.2656.48435-.26565.7031-.7344.1719-.3594.1719-1.0469z"/><path d="m478.49335 549.5-3.32813-8.59375h1.23438l2.23437 6.25q.26563.75.45313 1.40625.20312-.7031.46875-1.40625l2.3125-6.25h1.15625l-3.35938 8.59375zm4.42187-7.375v-1.21875h1.0625v1.21875zm0 7.375v-6.21875h1.0625v6.21875zm2.98438 0v-6.21875h.95312v.9375q.35938-.65625.65625-.85935.3125-.2188.6875-.2188.53125 0 1.07813.32815l-.35938.98435q-.39062-.23435-.76562-.23435-.35938 0-.64063.21875-.26562.2031-.375.5781-.1875.5625-.1875 1.2188v3.2656zm6.3125-.9375.15625.9219q-.45313.0937-.79688.0937-.57812 0-.89062-.17185-.3125-.1875-.45313-.48435-.125-.2969-.125-1.25v-3.57815h-.76562v-.8125h.76562v-1.54685l1.04688-.625v2.17185h1.0625v.8125h-1.0625v3.64065q0 .4531.04687.5781.0625.125.1875.2031.125.07815.35938.07815.1875 0 .46875-.03125zm.70312-6.4375v-1.21875h1.0625v1.21875zm0 7.375v-6.21875h1.0625v6.21875zm2.60938-3.1094q0-1.73435.95312-2.5625.79688-.6875 1.95313-.6875 1.28125 0 2.09375.8438.82812.8281.82812 2.3125 0 1.2031-.35937 1.8906-.35938.6875-1.0625 1.0781-.6875.375-1.5.375-1.29688 0-2.10938-.8281-.79687-.84375-.79687-2.4219zm1.07812 0q0 1.1875.51563 1.7813.53125.5937 1.3125.5937.79687 0 1.3125-.5937.51562-.5938.51562-1.8125 0-1.1563-.53125-1.75-.51562-.5938-1.29687-.5938-.78125 0-1.3125.5938-.51563.5781-.51563 1.7812zm6.5 3.1094v-8.59375h5.79688v1.01565h-4.65625v2.6562h4.03125v1.01565h-4.03125v3.90625zm6.5625-2.7656 1.0625-.0938q.07813.6563.35938 1.0625.28125.4063.85937.6719.59373.25 1.32813.25.6406 0 1.1406-.1875.5-.2031.7344-.53125.25-.34375.25-.73435 0-.4063-.2344-.70315-.23435-.3125-.7656-.51565-.3594-.1406-1.5469-.42185-1.17185-.28125-1.6406-.53125-.625-.3281-.92188-.7969-.29687-.48435-.29687-1.0781 0-.6406.35937-1.2031.375-.57815 1.07813-.8594.71875-.2969 1.57815-.2969.9531 0 1.6875.3125.73435.2969 1.125.9063.3906.5937.42185 1.3437l-1.09375.07815q-.09375-.8125-.6094-1.21875-.5-.4219-1.48435-.4219-1.03125 0-1.5.375-.46875.375-.46875.9063 0 .4687.32812.7656.32813.2969 1.70313.6094 1.39065.3125 1.90625.54685.75.35935 1.1094.89065.35935.5156.35935 1.2187 0 .6875-.39065 1.2969-.3906.59375-1.125.9375-.73435.3281-1.6562.3281-1.1719 0-1.96878-.3281-.78125-.34375-1.23437-1.03125-.4375-.6875-.45313-1.54685z"/><path d="m569.94415 532.4844 1.125.29685q-.35935 1.39065-1.28125 2.125-.9219.73435-2.2656.73435-1.39065 0-2.26565-.5625-.875-.5625-1.32815-1.625-.4531-1.0781-.4531-2.3125 0-1.3437.5156-2.3437.51565-1 1.45315-1.51565.95315-.51565 2.09375-.51565 1.28125 0 2.15625.6563.89065.6562 1.23435 1.8437l-1.125.26565q-.29685-.9375-.875-1.35935-.5625-.4375-1.42185-.4375-.98435 0-1.65625.48435-.65625.46875-.9375 1.26565-.2656.79685-.2656 1.6562 0 1.0938.3125 1.9063.3281.8125 1 1.2187.67185.4063 1.4687.4063.95315 0 1.6094-.5469.6719-.5469.90625-1.6406zm2.34375-.0938q0-1.73435.9531-2.5625.7969-.6875 1.95315-.6875 1.28125 0 2.09375.8438.8281.8281.8281 2.3125 0 1.2031-.35935 1.8906-.35935.6875-1.0625 1.0781-.6875.375-1.5.375-1.29685 0-2.10935-.8281-.7969-.84375-.7969-2.4219zm1.0781 0q0 1.1875.51565 1.7813.53125.5937 1.3125.5937.79685 0 1.3125-.5937.51565-.5938.51565-1.8125 0-1.1563-.5313-1.75-.5156-.5938-1.29685-.5938-.78125 0-1.3125.5938-.51565.5781-.51565 1.7812zm6.2813 3.1094v-8.59375h1.0625v8.59375zm3.0312-7.375v-1.21875h1.0625v1.21875zm0 7.375v-6.21875h1.0625v6.21875zm3 0v-6.21875h.9375v.875q.2969-.46875.7813-.73435.48435-.2813 1.10935-.2813.6875 0 1.125.2813.45315.2812.625.79685.75-1.07815 1.92185-1.07815.9375 0 1.4219.51565.5.5.5 1.57815v4.2656h-1.0469v-3.9219q0-.625-.10935-.9062-.09375-.2813-.35935-.45315-.26565-.17185-.64065-.17185-.65625 0-1.09375.4375-.4219.4375-.4219 1.4062v3.6094h-1.0625v-4.0469q0-.7031-.2656-1.04685-.25-.35935-.8281-.35935-.45315 0-.82815.23435-.375.23435-.54685.6875-.1719.45315-.1719 1.29685v3.2344zm15.0625-.7656q-.5937.5-1.1406.7031-.53125.2031-1.15625.2031-1.03125 0-1.57815-.5-.54685-.5-.54685-1.2812 0-.45315.20315-.82815.2031-.39065.54685-.60935.34375-.2344.76565-.3438.29685-.0937.9375-.17185 1.2656-.14065 1.875-.35935 0-.2188 0-.26565 0-.65625-.2969-.92185-.40625-.3438-1.2031-.3438-.7344 0-1.0938.26565-.35935.25-.5312.90625l-1.0313-.1406q.14065-.6563.4688-1.0625.3281-.4063.9375-.625.60935-.2188 1.4062-.2188.7969 0 1.2969.1875.5.1875.7344.4688.23435.2812.3281.7187.0469.26565.0469.9688v1.4062q0 1.4688.0625 1.8594.0781.3906.2812.75h-1.10935q-.15625-.3281-.20315-.7656zm-.0937-2.3594q-.57815.2344-1.7188.40625-.6562.09375-.92185.21875-.26565.1094-.42185.3281-.14065.2188-.14065.5 0 .4219.3125.70315.32815.28125.9375.28125.60935 0 1.07815-.2656.48435-.26565.7031-.7344.1719-.3594.1719-1.0469z"/><path d="m565.25665 549.5-3.32815-8.59375h1.2344l2.2344 6.25q.2656.75.4531 1.40625.2031-.7031.46875-1.40625l2.3125-6.25h1.15625l-3.3594 8.59375zm4.42185-7.375v-1.21875h1.0625v1.21875zm0 7.375v-6.21875h1.0625v6.21875zm2.9844 0v-6.21875h.9531v.9375q.3594-.65625.6563-.85935.3125-.2188.6875-.2188.5312 0 1.0781.32815l-.3594.98435q-.3906-.23435-.7656-.23435-.3594 0-.6406.21875-.26565.2031-.375.5781-.1875.5625-.1875 1.2188v3.2656zm6.3125-.9375.15625.9219q-.45315.0937-.79685.0937-.57815 0-.89065-.17185-.3125-.1875-.45315-.48435-.125-.2969-.125-1.25v-3.57815h-.7656v-.8125h.7656v-1.54685l1.0469-.625v2.17185h1.0625v.8125h-1.0625v3.64065q0 .4531.0469.5781.0625.125.1875.2031.125.07815.35935.07815.1875 0 .46875-.03125zm.7031-6.4375v-1.21875h1.0625v1.21875zm0 7.375v-6.21875h1.0625v6.21875zm2.6094-3.1094q0-1.73435.9531-2.5625.7969-.6875 1.95315-.6875 1.28125 0 2.09375.8438.8281.8281.8281 2.3125 0 1.2031-.35935 1.8906-.35935.6875-1.0625 1.0781-.6875.375-1.5.375-1.29685 0-2.10935-.8281-.7969-.84375-.7969-2.4219zm1.0781 0q0 1.1875.51565 1.7813.53125.5937 1.3125.5937.79685 0 1.3125-.5937.51565-.5938.51565-1.8125 0-1.1563-.5313-1.75-.5156-.5938-1.29685-.5938-.78125 0-1.3125.5938-.51565.5781-.51565 1.7812zm6.5 3.1094v-8.59375h5.7969v1.01565h-4.65625v2.6562h4.03125v1.01565h-4.03125v3.90625zm6.5625-2.7656 1.0625-.0938q.07815.6563.3594 1.0625.28125.4063.8594.6719.5937.25 1.3281.25.6406 0 1.1406-.1875.5-.2031.7344-.53125.25-.34375.25-.73435 0-.4063-.2344-.70315-.23435-.3125-.7656-.51565-.3594-.1406-1.5469-.42185-1.17185-.28125-1.6406-.53125-.625-.3281-.9219-.7969-.29685-.48435-.29685-1.0781 0-.6406.35935-1.2031.375-.57815 1.07815-.8594.71875-.2969 1.57815-.2969.9531 0 1.6875.3125.73435.2969 1.125.9063.3906.5937.42185 1.3437l-1.09375.07815q-.09375-.8125-.6094-1.21875-.5-.4219-1.48435-.4219-1.03125 0-1.5.375-.46875.375-.46875.9063 0 .4687.3281.7656.32815.2969 1.70315.6094 1.39065.3125 1.90625.54685.75.35935 1.1094.89065.35935.5156.35935 1.2187 0 .6875-.39065 1.2969-.3906.59375-1.125.9375-.73435.3281-1.6562.3281-1.1719 0-1.9688-.3281-.7812-.34375-1.23435-1.03125-.4375-.6875-.45315-1.54685z"/><path d="m560.2723 563.5v-8.59375h1.7187l2.0313 6.07815q.2812.85935.4062 1.2812.14065-.4687.45315-1.375l2.0625-5.98435h1.53125v8.59375h-1.09375v-7.1875l-2.5 7.1875h-1.03125l-2.4844-7.3125v7.3125zm12.98435 0v-.9219q-.73435 1.0625-1.98435 1.0625-.5469 0-1.0313-.2031-.4687-.21875-.7031-.53125-.2344-.32815-.3281-.79685-.0625-.2969-.0625-.9844v-3.84375h1.0625v3.45315q0 .8125.0625 1.10935.0937.40625.4062.65625.32815.2344.8125.2344.4688 0 .875-.2344.4219-.25.5938-.6719.1875-.42185.1875-1.2187v-3.32815h1.04685v6.21875zm5.21875-.9375.15625.9219q-.45315.0937-.79685.0937-.57815 0-.89065-.17185-.3125-.1875-.45315-.48435-.125-.2969-.125-1.25v-3.57815h-.7656v-.8125h.7656v-1.54685l1.0469-.625v2.17185h1.0625v.8125h-1.0625v3.64065q0 .4531.0469.5781.0625.125.1875.2031.125.07815.35935.07815.1875 0 .46875-.03125zm4.7656.1719q-.5937.5-1.1406.7031-.53125.2031-1.15625.2031-1.03125 0-1.57815-.5-.54685-.5-.54685-1.2812 0-.45315.20315-.82815.2031-.39065.54685-.60935.34375-.2344.76565-.3438.29685-.0937.9375-.17185 1.2656-.14065 1.875-.35935 0-.2188 0-.26565 0-.65625-.2969-.92185-.40625-.3438-1.2031-.3438-.7344 0-1.0938.26565-.35935.25-.5312.90625l-1.0313-.1406q.14065-.6563.4688-1.0625.3281-.4063.9375-.625.60935-.2188 1.4062-.2188.7969 0 1.2969.1875.5.1875.7344.4688.23435.2812.3281.7187.0469.26565.0469.9688v1.4062q0 1.4688.0625 1.8594.0781.3906.2812.75h-1.10935q-.15625-.3281-.20315-.7656zm-.0937-2.3594q-.57815.2344-1.7188.40625-.6562.09375-.92185.21875-.26565.1094-.42185.3281-.14065.2188-.14065.5 0 .4219.3125.70315.32815.28125.9375.28125.60935 0 1.07815-.2656.48435-.26565.7031-.7344.1719-.3594.1719-1.0469zm2.8281 3.6406 1.03125.1563q.0625.4687.35935.6875.39065.29685 1.0625.29685.7344 0 1.125-.29685.4063-.2969.5469-.8125.09375-.32815.0781-1.3594-.6875.8125-1.7187.8125-1.2813 0-1.9844-.9219-.7031-.9375-.7031-2.2187 0-.89065.3125-1.64065.3281-.76565.9375-1.17185.60935-.4063 1.4375-.4063 1.10935 0 1.8281.89065v-.75h.96875v5.375q0 1.45315-.29685 2.0625-.2969.60935-.9375.95315-.64065.35935-1.57815.35935-1.10935 0-1.79685-.5-.6875-.5-.6719-1.51565zm.875-3.73435q0 1.21875.4844 1.78125.48435.5625 1.2187.5625.7344 0 1.2188-.5625.5-.5625.5-1.75 0-1.1406-.51565-1.71875-.5-.57815-1.21875-.57815-.7031 0-1.2031.57815-.4844.5625-.4844 1.6875zm10.5781 1.21875 1.0938.125q-.25.9531-.95315 1.4844-.70315.5312-1.78125.5312-1.3594 0-2.1719-.8437-.79685-.8438-.79685-2.3594 0-1.5625.8125-2.4219.8125-.875 2.09375-.875 1.25 0 2.03125.8438.79685.8437.79685 2.3906 0 .09375 0 .28125h-4.6406q.0625 1.03125.5781 1.57815.51565.5312 1.2969.5312.5781 0 .9844-.29685.42185-.3125.6562-.96875zm-3.4531-1.7031h3.46875q-.0625-.7969-.39065-1.1875-.5156-.6094-1.3125-.6094-.73435 0-1.23435.4844-.48435.48435-.53125 1.3125zm6.2031 3.7031v-6.21875h.9375v.875q.6875-1.01565 1.9844-1.01565.5625 0 1.03125.20315.48435.20315.71875.53125.2344.3281.3281.7656.0469.2969.0469 1.0313v3.8281h-1.0469v-3.78125q0-.65625-.125-.96875-.125-.3125-.4375-.5-.3125-.2031-.73435-.2031-.67185 0-1.17185.4375-.4844.42185-.4844 1.60935v3.40625z"/><path d="m651.0668 535.5v-8.59375h2.9687q1 0 1.5313.125.73435.17185 1.25.60935.6875.57815 1.0156 1.4844.34375.8906.34375 2.03125 0 .98435-.23435 1.73435-.2188.75-.57815 1.25-.35935.5-.79685.7813-.4219.2812-1.01565.4375-.59375.1406-1.375.1406zm1.1406-1.0156h1.8281q.8594 0 1.3438-.1563.48435-.1562.7656-.4531.40625-.3906.625-1.0781.2344-.6875.2344-1.6563 0-1.3437-.45315-2.0625-.4375-.73435-1.0625-.98435-.46875-.17185-1.46875-.17185h-1.8125zm7.34375-2.0938q0-1.73435.95315-2.5625.79685-.6875 1.9531-.6875 1.28125 0 2.09375.8438.82815.8281.82815 2.3125 0 1.2031-.3594 1.8906-.3594.6875-1.0625 1.0781-.6875.375-1.5.375-1.2969 0-2.1094-.8281-.79685-.84375-.79685-2.4219zm1.07815 0q0 1.1875.5156 1.7813.53125.5937 1.3125.5937.7969 0 1.3125-.5937.5156-.5938.5156-1.8125 0-1.1563-.5312-1.75-.51565-.5938-1.2969-.5938-.78125 0-1.3125.5938-.5156.5781-.5156 1.7812zm10.375.82815 1.0312.14065q-.17185 1.0625-.875 1.67185-.7031.60935-1.7187.60935-1.2813 0-2.0625-.8281-.76565-.84375-.76565-2.40625 0-1 .32815-1.75.3437-.76565 1.0156-1.14065.6875-.375 1.5-.375 1 0 1.6406.51565.6563.5.8438 1.45315l-1.0313.1562q-.1406-.625-.5156-.9375-.375-.3281-.90625-.3281-.79685 0-1.29685.5781-.5.5625-.5 1.7969 0 1.2656.48435 1.8281.48435.5625 1.25.5625.625 0 1.03125-.375.4219-.375.5469-1.17185zm1.9375 2.28125v-8.59375h1.0625v4.90625l2.48435-2.53125h1.375l-2.39065 2.29685 2.625 3.9219h-1.29685l-2.0625-3.1875-.73435.71875v2.46875zm10.25-2 1.0937.125q-.25.9531-.9531 1.4844-.7031.5312-1.78125.5312-1.35935 0-2.17185-.8437-.7969-.8438-.7969-2.3594 0-1.5625.8125-2.4219.8125-.875 2.09375-.875 1.25 0 2.03125.8438.7969.8437.7969 2.3906 0 .09375 0 .28125h-4.64065q.0625 1.03125.57815 1.57815.5156.5312 1.29685.5312.57815 0 .98435-.29685.4219-.3125.6563-.96875zm-3.45315-1.7031h3.46875q-.0625-.7969-.3906-1.1875-.51565-.6094-1.3125-.6094-.7344 0-1.2344.4844-.4844.48435-.53125 1.3125zm6.1875 3.7031v-6.21875h.95315v.9375q.35935-.65625.6562-.85935.3125-.2188.6875-.2188.5313 0 1.07815.32815l-.35935.98435q-.39065-.23435-.76565-.23435-.35935 0-.64065.21875-.2656.2031-.375.5781-.1875.5625-.1875 1.2188v3.2656z"/><path d="m652.0199 549.5-3.3281-8.59375h1.23435l2.23435 6.25q.26565.75.45315 1.40625.20315-.7031.46875-1.40625l2.3125-6.25h1.15625l-3.35935 8.59375zm4.4219-7.375v-1.21875h1.0625v1.21875zm0 7.375v-6.21875h1.0625v6.21875zm2.98435 0v-6.21875h.95315v.9375q.35935-.65625.6562-.85935.3125-.2188.6875-.2188.5313 0 1.07815.32815l-.35935.98435q-.39065-.23435-.76565-.23435-.35935 0-.64065.21875-.2656.2031-.375.5781-.1875.5625-.1875 1.2188v3.2656zm6.3125-.9375.15625.9219q-.4531.0937-.7969.0937-.5781 0-.8906-.17185-.3125-.1875-.4531-.48435-.125-.2969-.125-1.25v-3.57815h-.76565v-.8125h.76565v-1.54685l1.04685-.625v2.17185h1.0625v.8125h-1.0625v3.64065q0 .4531.04685.5781.0625.125.1875.2031.125.07815.3594.07815.1875 0 .46875-.03125zm.70315-6.4375v-1.21875h1.0625v1.21875zm0 7.375v-6.21875h1.0625v6.21875zm2.60935-3.1094q0-1.73435.95315-2.5625.79685-.6875 1.9531-.6875 1.28125 0 2.09375.8438.82815.8281.82815 2.3125 0 1.2031-.3594 1.8906-.3594.6875-1.0625 1.0781-.6875.375-1.5.375-1.2969 0-2.1094-.8281-.79685-.84375-.79685-2.4219zm1.07815 0q0 1.1875.5156 1.7813.53125.5937 1.3125.5937.7969 0 1.3125-.5937.5156-.5938.5156-1.8125 0-1.1563-.5312-1.75-.51565-.5938-1.2969-.5938-.78125 0-1.3125.5938-.5156.5781-.5156 1.7812zm6.5 3.1094v-8.59375h5.79685v1.01565h-4.65625v2.6562h4.03125v1.01565h-4.03125v3.90625zm6.5625-2.7656 1.0625-.0938q.0781.6563.35935 1.0625.28125.4063.85935.6719.5938.25 1.32815.25.64065 0 1.14065-.1875.5-.2031.73435-.53125.25-.34375.25-.73435 0-.4063-.23435-.70315-.2344-.3125-.76565-.51565-.35935-.1406-1.54685-.42185-1.1719-.28125-1.64065-.53125-.625-.3281-.92185-.7969-.2969-.48435-.2969-1.0781 0-.6406.3594-1.2031.375-.57815 1.0781-.8594.71875-.2969 1.5781-.2969.95315 0 1.6875.3125.7344.2969 1.125.9063.39065.5937.4219 1.3437l-1.09375.07815q-.09375-.8125-.60935-1.21875-.5-.4219-1.4844-.4219-1.03125 0-1.5.375-.46875.375-.46875.9063 0 .4687.32815.7656.3281.2969 1.7031.6094 1.3906.3125 1.90625.54685.75.35935 1.10935.89065.3594.5156.3594 1.2187 0 .6875-.3906 1.2969-.39065.59375-1.125.9375-.7344.3281-1.6563.3281-1.17185 0-1.9687-.3281-.7813-.34375-1.2344-1.03125-.4375-.6875-.4531-1.54685z"/><path d="m737.8301 535.5v-8.59375h2.9687q1 0 1.5313.125.73435.17185 1.25.60935.6875.57815 1.0156 1.4844.34375.8906.34375 2.03125 0 .98435-.23435 1.73435-.2188.75-.57815 1.25-.35935.5-.79685.7813-.4219.2812-1.01565.4375-.59375.1406-1.375.1406zm1.1406-1.0156h1.8281q.8594 0 1.3438-.1563.48435-.1562.7656-.4531.40625-.3906.625-1.0781.2344-.6875.2344-1.6563 0-1.3437-.45315-2.0625-.4375-.73435-1.0625-.98435-.46875-.17185-1.46875-.17185h-1.8125zm7.34375-2.0938q0-1.73435.95315-2.5625.79685-.6875 1.9531-.6875 1.28125 0 2.09375.8438.82815.8281.82815 2.3125 0 1.2031-.3594 1.8906-.3594.6875-1.0625 1.0781-.6875.375-1.5.375-1.2969 0-2.1094-.8281-.79685-.84375-.79685-2.4219zm1.07815 0q0 1.1875.5156 1.7813.53125.5937 1.3125.5937.7969 0 1.3125-.5937.5156-.5938.5156-1.8125 0-1.1563-.5312-1.75-.51565-.5938-1.2969-.5938-.78125 0-1.3125.5938-.5156.5781-.5156 1.7812zm10.375.82815 1.0312.14065q-.17185 1.0625-.875 1.67185-.7031.60935-1.7187.60935-1.2813 0-2.0625-.8281-.76565-.84375-.76565-2.40625 0-1 .32815-1.75.3437-.76565 1.0156-1.14065.6875-.375 1.5-.375 1 0 1.6406.51565.6563.5.8438 1.45315l-1.0313.1562q-.1406-.625-.5156-.9375-.375-.3281-.90625-.3281-.79685 0-1.29685.5781-.5.5625-.5 1.7969 0 1.2656.48435 1.8281.48435.5625 1.25.5625.625 0 1.03125-.375.4219-.375.5469-1.17185zm1.9375 2.28125v-8.59375h1.0625v4.90625l2.48435-2.53125h1.375l-2.39065 2.29685 2.625 3.9219h-1.29685l-2.0625-3.1875-.73435.71875v2.46875zm10.25-2 1.0937.125q-.25.9531-.9531 1.4844-.7031.5312-1.78125.5312-1.35935 0-2.17185-.8437-.7969-.8438-.7969-2.3594 0-1.5625.8125-2.4219.8125-.875 2.09375-.875 1.25 0 2.03125.8438.7969.8437.7969 2.3906 0 .09375 0 .28125h-4.64065q.0625 1.03125.57815 1.57815.5156.5312 1.29685.5312.57815 0 .98435-.29685.4219-.3125.6563-.96875zm-3.45315-1.7031h3.46875q-.0625-.7969-.3906-1.1875-.51565-.6094-1.3125-.6094-.7344 0-1.2344.4844-.4844.48435-.53125 1.3125zm6.1875 3.7031v-6.21875h.95315v.9375q.35935-.65625.6562-.85935.3125-.2188.6875-.2188.5313 0 1.07815.32815l-.35935.98435q-.39065-.23435-.76565-.23435-.35935 0-.64065.21875-.2656.2031-.375.5781-.1875.5625-.1875 1.2188v3.2656z"/><path d="m738.7832 549.5-3.3281-8.59375h1.23435l2.23435 6.25q.26565.75.45315 1.40625.20315-.7031.46875-1.40625l2.3125-6.25h1.15625l-3.35935 8.59375zm4.4219-7.375v-1.21875h1.0625v1.21875zm0 7.375v-6.21875h1.0625v6.21875zm2.98435 0v-6.21875h.95315v.9375q.35935-.65625.6562-.85935.3125-.2188.6875-.2188.5313 0 1.07815.32815l-.35935.98435q-.39065-.23435-.76565-.23435-.35935 0-.64065.21875-.2656.2031-.375.5781-.1875.5625-.1875 1.2188v3.2656zm6.3125-.9375.15625.9219q-.4531.0937-.7969.0937-.5781 0-.8906-.17185-.3125-.1875-.4531-.48435-.125-.2969-.125-1.25v-3.57815h-.76565v-.8125h.76565v-1.54685l1.04685-.625v2.17185h1.0625v.8125h-1.0625v3.64065q0 .4531.04685.5781.0625.125.1875.2031.125.07815.3594.07815.1875 0 .46875-.03125zm.70315-6.4375v-1.21875h1.0625v1.21875zm0 7.375v-6.21875h1.0625v6.21875zm2.60935-3.1094q0-1.73435.95315-2.5625.79685-.6875 1.9531-.6875 1.28125 0 2.09375.8438.82815.8281.82815 2.3125 0 1.2031-.3594 1.8906-.3594.6875-1.0625 1.0781-.6875.375-1.5.375-1.2969 0-2.1094-.8281-.79685-.84375-.79685-2.4219zm1.07815 0q0 1.1875.5156 1.7813.53125.5937 1.3125.5937.7969 0 1.3125-.5937.5156-.5938.5156-1.8125 0-1.1563-.5312-1.75-.51565-.5938-1.2969-.5938-.78125 0-1.3125.5938-.5156.5781-.5156 1.7812zm6.5 3.1094v-8.59375h5.79685v1.01565h-4.65625v2.6562h4.03125v1.01565h-4.03125v3.90625zm6.5625-2.7656 1.0625-.0938q.0781.6563.35935 1.0625.28125.4063.85935.6719.5938.25 1.32815.25.64065 0 1.14065-.1875.5-.2031.73435-.53125.25-.34375.25-.73435 0-.4063-.23435-.70315-.2344-.3125-.76565-.51565-.35935-.1406-1.54685-.42185-1.1719-.28125-1.64065-.53125-.625-.3281-.92185-.7969-.2969-.48435-.2969-1.0781 0-.6406.3594-1.2031.375-.57815 1.0781-.8594.71875-.2969 1.5781-.2969.95315 0 1.6875.3125.7344.2969 1.125.9063.39065.5937.4219 1.3437l-1.09375.07815q-.09375-.8125-.60935-1.21875-.5-.4219-1.4844-.4219-1.03125 0-1.5.375-.46875.375-.46875.9063 0 .4687.32815.7656.3281.2969 1.7031.6094 1.3906.3125 1.90625.54685.75.35935 1.10935.89065.3594.5156.3594 1.2187 0 .6875-.3906 1.2969-.39065.59375-1.125.9375-.7344.3281-1.6563.3281-1.17185 0-1.9687-.3281-.7813-.34375-1.2344-1.03125-.4375-.6875-.4531-1.54685z"/><path d="m733.7988 563.5v-8.59375h1.7188l2.0312 6.07815q.2813.85935.4063 1.2812.1406-.4687.4531-1.375l2.0625-5.98435h1.53125v8.59375h-1.09375v-7.1875l-2.5 7.1875h-1.03125l-2.48435-7.3125v7.3125zm12.9844 0v-.9219q-.7344 1.0625-1.9844 1.0625-.54685 0-1.0312-.2031-.4688-.21875-.70315-.53125-.23435-.32815-.32815-.79685-.0625-.2969-.0625-.9844v-3.84375h1.0625v3.45315q0 .8125.0625 1.10935.0938.40625.4063.65625.3281.2344.8125.2344.4687 0 .875-.2344.42185-.25.5937-.6719.1875-.42185.1875-1.2187v-3.32815h1.0469v6.21875zm5.21875-.9375.15625.9219q-.4531.0937-.7969.0937-.5781 0-.8906-.17185-.3125-.1875-.4531-.48435-.125-.2969-.125-1.25v-3.57815h-.76565v-.8125h.76565v-1.54685l1.04685-.625v2.17185h1.0625v.8125h-1.0625v3.64065q0 .4531.04685.5781.0625.125.1875.2031.125.07815.3594.07815.1875 0 .46875-.03125zm4.76565.1719q-.5938.5-1.14065.7031-.53125.2031-1.15625.2031-1.03125 0-1.5781-.5-.5469-.5-.5469-1.2812 0-.45315.2031-.82815.20315-.39065.5469-.60935.34375-.2344.7656-.3438.2969-.0937.9375-.17185 1.26565-.14065 1.875-.35935 0-.2188 0-.26565 0-.65625-.29685-.92185-.40625-.3438-1.20315-.3438-.73435 0-1.0937.26565-.3594.25-.5313.90625l-1.0312-.1406q.1406-.6563.4687-1.0625.32815-.4063.9375-.625.6094-.2188 1.4063-.2188.79685 0 1.29685.1875.5.1875.73435.4688.2344.2812.32815.7187.04685.26565.04685.9688v1.4062q0 1.4688.0625 1.8594.07815.3906.2813.75h-1.1094q-.15625-.3281-.2031-.7656zm-.0938-2.3594q-.5781.2344-1.7187.40625-.6563.09375-.9219.21875-.2656.1094-.4219.3281-.1406.2188-.1406.5 0 .4219.3125.70315.3281.28125.9375.28125.6094 0 1.0781-.2656.4844-.26565.70315-.7344.17185-.3594.17185-1.0469zm2.82815 3.6406 1.03125.1563q.0625.4687.3594.6875.3906.29685 1.0625.29685.73435 0 1.125-.29685.4062-.2969.54685-.8125.09375-.32815.07815-1.3594-.6875.8125-1.7188.8125-1.2812 0-1.98435-.9219-.70315-.9375-.70315-2.2187 0-.89065.3125-1.64065.32815-.76565.9375-1.17185.6094-.4063 1.4375-.4063 1.1094 0 1.82815.89065v-.75h.96875v5.375q0 1.45315-.2969 2.0625-.29685.60935-.9375.95315-.6406.35935-1.5781.35935-1.1094 0-1.7969-.5-.6875-.5-.67185-1.51565zm.875-3.73435q0 1.21875.48435 1.78125.4844.5625 1.2188.5625.73435 0 1.2187-.5625.5-.5625.5-1.75 0-1.1406-.5156-1.71875-.5-.57815-1.21875-.57815-.70315 0-1.20315.57815-.48435.5625-.48435 1.6875zm10.57815 1.21875 1.0937.125q-.25.9531-.9531 1.4844-.7031.5312-1.78125.5312-1.35935 0-2.17185-.8437-.7969-.8438-.7969-2.3594 0-1.5625.8125-2.4219.8125-.875 2.09375-.875 1.25 0 2.03125.8438.7969.8437.7969 2.3906 0 .09375 0 .28125h-4.64065q.0625 1.03125.57815 1.57815.5156.5312 1.29685.5312.57815 0 .98435-.29685.4219-.3125.6563-.96875zm-3.45315-1.7031h3.46875q-.0625-.7969-.3906-1.1875-.51565-.6094-1.3125-.6094-.7344 0-1.2344.4844-.4844.48435-.53125 1.3125zm6.20315 3.7031v-6.21875h.9375v.875q.6875-1.01565 1.98435-1.01565.5625 0 1.03125.20315.4844.20315.71875.53125.23435.3281.32815.7656.04685.2969.04685 1.0313v3.8281h-1.04685v-3.78125q0-.65625-.125-.96875-.125-.3125-.4375-.5-.3125-.2031-.7344-.2031-.6719 0-1.1719.4375-.48435.42185-.48435 1.60935v3.40625z"/><path d="m807.0934 535.5v-8.59375h2.96873q1 0 1.53127.125.73436.17185 1.25.60935.6875.57815 1.0156 1.4844.34376.8906.34376 2.03125 0 .98435-.23436 1.73435-.21877.75-.57814 1.25-.35936.5-.79686.7813-.4219.2812-1.01564.4375-.59376.1406-1.375.1406zm1.1406-1.0156h1.82813q.85937 0 1.34377-.1563.48436-.1562.7656-.4531.40626-.3906.625-1.0781.2344-.6875.2344-1.6563 0-1.3437-.45314-2.0625-.4375-.73435-1.0625-.98435-.46876-.17185-1.46876-.17185h-1.8125zm7.34376-2.0938q0-1.73435.95314-2.5625.79686-.6875 1.9531-.6875 1.28126 0 2.09376.8438.82814.8281.82814 2.3125 0 1.2031-.3594 1.8906-.35937.6875-1.0625 1.0781-.6875.375-1.5.375-1.29687 0-2.10937-.8281-.79687-.84375-.79687-2.4219zm1.07814 0q0 1.1875.5156 1.7813.53126.5937 1.3125.5937.7969 0 1.3125-.5937.51563-.5938.51563-1.8125 0-1.1563-.53123-1.75-.51564-.5938-1.2969-.5938-.78124 0-1.3125.5938-.5156.5781-.5156 1.7812zm10.375.82815 1.03123.14065q-.17187 1.0625-.875 1.67185-.70313.60935-1.71873.60935-1.28127 0-2.0625-.8281-.76564-.84375-.76564-2.40625 0-1 .32814-1.75.34373-.76565 1.0156-1.14065.6875-.375 1.5-.375 1 0 1.64063.51565.65627.5.84377 1.45315l-1.03127.1562q-.14063-.625-.51563-.9375-.375-.3281-.90624-.3281-.79686 0-1.29686.5781-.5.5625-.5 1.7969 0 1.2656.48436 1.8281.48437.5625 1.25.5625.625 0 1.03124-.375.4219-.375.5469-1.17185zm1.9375 2.28125v-8.59375h1.0625v4.90625l2.48436-2.53125h1.375l-2.39063 2.29685 2.625 3.9219h-1.29687l-2.0625-3.1875-.73436.71875v2.46875zm10.25-2 1.09373.125q-.25.9531-.95313 1.4844-.7031.5312-1.78124.5312-1.35936 0-2.17186-.8437-.7969-.8438-.7969-2.3594 0-1.5625.8125-2.4219.8125-.875 2.09376-.875 1.25 0 2.03124.8438.7969.8437.7969 2.3906 0 .09375 0 .28125h-4.64064q.0625 1.03125.57814 1.57815.5156.5312 1.29686.5312.57814 0 .98437-.29685.42187-.3125.65627-.96875zm-3.45314-1.7031h3.46874q-.0625-.7969-.3906-1.1875-.51564-.6094-1.3125-.6094-.7344 0-1.2344.4844-.48437.48435-.53124 1.3125zm6.1875 3.7031v-6.21875h.95314v.9375q.35936-.65625.65623-.85935.3125-.2188.6875-.2188.53127 0 1.07813.32815l-.35936.98435q-.39064-.23435-.76564-.23435-.35936 0-.64063.21875-.26563.2031-.375.5781-.1875.5625-.1875 1.2188v3.2656zm7.20314 0v-8.59375h5.79686v1.01565h-4.65626v2.6562h4.03126v1.01565h-4.03126v3.90625zm12.5781-8.59375h1.14063v4.96875q0 1.2969-.29687 2.0625-.29686.75-1.0625 1.2344-.76563.4687-2 .4687-1.20313 0-1.98436-.4062-.76564-.4219-1.09377-1.20315-.32813-.79685-.32813-2.15625v-4.96875h1.14063v4.95315q0 1.125.20313 1.6562.21874.5313.71874.82815.51563.28125 1.25.28125 1.25 0 1.78126-.5625.53124-.5781.53124-2.2031zm2.9844 5.82815 1.0625-.0938q.0781.6563.35936 1.0625.28124.4063.85937.6719.59377.25 1.32813.25.64064 0 1.14064-.1875.5-.2031.73436-.53125.25-.34375.25-.73435 0-.4063-.23436-.70315-.2344-.3125-.76564-.51565-.35936-.1406-1.54686-.42185-1.1719-.28125-1.64064-.53125-.625-.3281-.92186-.7969-.2969-.48435-.2969-1.0781 0-.6406.3594-1.2031.375-.57815 1.0781-.8594.71876-.2969 1.57813-.2969.95313 0 1.6875.3125.73437.2969 1.125.9063.39063.5937.42187 1.3437l-1.09374.07815q-.09376-.8125-.60936-1.21875-.5-.4219-1.4844-.4219-1.03124 0-1.5.375-.46874.375-.46874.9063 0 .4687.32814.7656.3281.2969 1.7031.6094 1.39063.3125 1.90626.54685.75.35935 1.10937.89065.35937.5156.35937 1.2187 0 .6875-.3906 1.2969-.39064.59375-1.125.9375-.7344.3281-1.65627.3281-1.17187 0-1.96873-.3281-.78127-.34375-1.2344-1.03125-.4375-.6875-.4531-1.54685zm8.40623 2.7656v-8.59375h6.20313v1.01565h-5.0625v2.625h4.75v1.0156h-4.75v2.9219h5.26564v1.0156z"/><path d="m893.8566 535.5v-8.59375h2.9688q1 0 1.5312.125.7344.17185 1.25.60935.6875.57815 1.01565 1.4844.34375.8906.34375 2.03125 0 .98435-.2344 1.73435-.2187.75-.5781 1.25-.3594.5-.7969.7813-.42185.2812-1.0156.4375-.59375.1406-1.375.1406zm1.14065-1.0156h1.82815q.85935 0 1.3437-.1563.4844-.1562.76565-.4531.40625-.3906.625-1.0781.23435-.6875.23435-1.6563 0-1.3437-.4531-2.0625-.4375-.73435-1.0625-.98435-.46875-.17185-1.46875-.17185h-1.8125zm7.34375-2.0938q0-1.73435.9531-2.5625.7969-.6875 1.95315-.6875 1.28125 0 2.09375.8438.8281.8281.8281 2.3125 0 1.2031-.35935 1.8906-.35935.6875-1.0625 1.0781-.6875.375-1.5.375-1.29685 0-2.10935-.8281-.7969-.84375-.7969-2.4219zm1.0781 0q0 1.1875.51565 1.7813.53125.5937 1.3125.5937.79685 0 1.3125-.5937.51565-.5938.51565-1.8125 0-1.1563-.5313-1.75-.5156-.5938-1.29685-.5938-.78125 0-1.3125.5938-.51565.5781-.51565 1.7812zm10.375.82815 1.0313.14065q-.1719 1.0625-.875 1.67185-.70315.60935-1.7188.60935-1.2812 0-2.0625-.8281-.7656-.84375-.7656-2.40625 0-1 .3281-1.75.3438-.76565 1.01565-1.14065.6875-.375 1.5-.375 1 0 1.64065.51565.6562.5.8437 1.45315l-1.0312.1562q-.14065-.625-.51565-.9375-.375-.3281-.90625-.3281-.7969 0-1.2969.5781-.5.5625-.5 1.7969 0 1.2656.4844 1.8281.4844.5625 1.25.5625.625 0 1.03125-.375.42185-.375.54685-1.17185zm1.9375 2.28125v-8.59375h1.0625v4.90625l2.4844-2.53125h1.375l-2.3906 2.29685 2.625 3.9219h-1.2969l-2.0625-3.1875-.7344.71875v2.46875zm10.25-2 1.0938.125q-.25.9531-.95315 1.4844-.70315.5312-1.78125.5312-1.3594 0-2.1719-.8437-.79685-.8438-.79685-2.3594 0-1.5625.8125-2.4219.8125-.875 2.09375-.875 1.25 0 2.03125.8438.79685.8437.79685 2.3906 0 .09375 0 .28125h-4.6406q.0625 1.03125.5781 1.57815.51565.5312 1.2969.5312.5781 0 .9844-.29685.42185-.3125.6562-.96875zm-3.4531-1.7031h3.46875q-.0625-.7969-.39065-1.1875-.5156-.6094-1.3125-.6094-.73435 0-1.23435.4844-.48435.48435-.53125 1.3125zm6.1875 3.7031v-6.21875h.9531v.9375q.3594-.65625.6563-.85935.3125-.2188.6875-.2188.5312 0 1.0781.32815l-.3594.98435q-.3906-.23435-.7656-.23435-.3594 0-.6406.21875-.26565.2031-.375.5781-.1875.5625-.1875 1.2188v3.2656zm7.2031 0v-8.59375h5.7969v1.01565h-4.65625v2.6562h4.03125v1.01565h-4.03125v3.90625zm12.57815-8.59375h1.14065v4.96875q0 1.2969-.2969 2.0625-.2969.75-1.0625 1.2344-.7656.4687-2 .4687-1.2031 0-1.9844-.4062-.7656-.4219-1.0937-1.20315-.32815-.79685-.32815-2.15625v-4.96875h1.14065v4.95315q0 1.125.2031 1.6562.21875.5313.71875.82815.51565.28125 1.25.28125 1.25 0 1.78125-.5625.53125-.5781.53125-2.2031zm2.98435 5.82815 1.0625-.0938q.07815.6563.3594 1.0625.28125.4063.8594.6719.5937.25 1.3281.25.6406 0 1.1406-.1875.5-.2031.7344-.53125.25-.34375.25-.73435 0-.4063-.2344-.70315-.23435-.3125-.7656-.51565-.3594-.1406-1.5469-.42185-1.17185-.28125-1.6406-.53125-.625-.3281-.9219-.7969-.29685-.48435-.29685-1.0781 0-.6406.35935-1.2031.375-.57815 1.07815-.8594.71875-.2969 1.57815-.2969.9531 0 1.6875.3125.73435.2969 1.125.9063.3906.5937.42185 1.3437l-1.09375.07815q-.09375-.8125-.6094-1.21875-.5-.4219-1.48435-.4219-1.03125 0-1.5.375-.46875.375-.46875.9063 0 .4687.3281.7656.32815.2969 1.70315.6094 1.39065.3125 1.90625.54685.75.35935 1.1094.89065.35935.5156.35935 1.2187 0 .6875-.39065 1.2969-.3906.59375-1.125.9375-.73435.3281-1.6562.3281-1.1719 0-1.9688-.3281-.7812-.34375-1.23435-1.03125-.4375-.6875-.45315-1.54685zm8.4063 2.7656v-8.59375h6.2031v1.01565h-5.0625v2.625h4.75v1.0156h-4.75v2.9219h5.2656v1.0156z"/><path d="m907.3254 549.5v-8.59375h1.7187l2.0313 6.07815q.2812.85935.4062 1.2812.14065-.4687.45315-1.375l2.0625-5.98435h1.53125v8.59375h-1.09375v-7.1875l-2.5 7.1875h-1.03125l-2.4844-7.3125v7.3125zm12.98435 0v-.9219q-.73435 1.0625-1.98435 1.0625-.5469 0-1.0313-.2031-.4687-.21875-.7031-.53125-.2344-.32815-.3281-.79685-.0625-.2969-.0625-.9844v-3.84375h1.0625v3.45315q0 .8125.0625 1.10935.0937.40625.4062.65625.32815.2344.8125.2344.4688 0 .875-.2344.4219-.25.5938-.6719.1875-.42185.1875-1.2187v-3.32815h1.04685v6.21875zm5.21875-.9375.15625.9219q-.45315.0937-.79685.0937-.57815 0-.89065-.17185-.3125-.1875-.45315-.48435-.125-.2969-.125-1.25v-3.57815h-.7656v-.8125h.7656v-1.54685l1.0469-.625v2.17185h1.0625v.8125h-1.0625v3.64065q0 .4531.0469.5781.0625.125.1875.2031.125.07815.35935.07815.1875 0 .46875-.03125zm4.7656.1719q-.5937.5-1.1406.7031-.53125.2031-1.15625.2031-1.03125 0-1.57815-.5-.54685-.5-.54685-1.2812 0-.45315.20315-.82815.2031-.39065.54685-.60935.34375-.2344.76565-.3438.29685-.0937.9375-.17185 1.2656-.14065 1.875-.35935 0-.2188 0-.26565 0-.65625-.2969-.92185-.40625-.3438-1.2031-.3438-.7344 0-1.0938.26565-.35935.25-.5312.90625l-1.0313-.1406q.14065-.6563.4688-1.0625.3281-.4063.9375-.625.60935-.2188 1.4062-.2188.7969 0 1.2969.1875.5.1875.7344.4688.23435.2812.3281.7187.0469.26565.0469.9688v1.4062q0 1.4688.0625 1.8594.0781.3906.2812.75h-1.10935q-.15625-.3281-.20315-.7656zm-.0937-2.3594q-.57815.2344-1.7188.40625-.6562.09375-.92185.21875-.26565.1094-.42185.3281-.14065.2188-.14065.5 0 .4219.3125.70315.32815.28125.9375.28125.60935 0 1.07815-.2656.48435-.26565.7031-.7344.1719-.3594.1719-1.0469zm2.8281 3.6406 1.03125.1563q.0625.4687.35935.6875.39065.29685 1.0625.29685.7344 0 1.125-.29685.4063-.2969.5469-.8125.09375-.32815.0781-1.3594-.6875.8125-1.7187.8125-1.2813 0-1.9844-.9219-.7031-.9375-.7031-2.2187 0-.89065.3125-1.64065.3281-.76565.9375-1.17185.60935-.4063 1.4375-.4063 1.10935 0 1.8281.89065v-.75h.96875v5.375q0 1.45315-.29685 2.0625-.2969.60935-.9375.95315-.64065.35935-1.57815.35935-1.10935 0-1.79685-.5-.6875-.5-.6719-1.51565zm.875-3.73435q0 1.21875.4844 1.78125.48435.5625 1.2187.5625.7344 0 1.2188-.5625.5-.5625.5-1.75 0-1.1406-.51565-1.71875-.5-.57815-1.21875-.57815-.7031 0-1.2031.57815-.4844.5625-.4844 1.6875zm10.5781 1.21875 1.0938.125q-.25.9531-.95315 1.4844-.70315.5312-1.78125.5312-1.3594 0-2.1719-.8437-.79685-.8438-.79685-2.3594 0-1.5625.8125-2.4219.8125-.875 2.09375-.875 1.25 0 2.03125.8438.79685.8437.79685 2.3906 0 .09375 0 .28125h-4.6406q.0625 1.03125.5781 1.57815.51565.5312 1.2969.5312.5781 0 .9844-.29685.42185-.3125.6562-.96875zm-3.4531-1.7031h3.46875q-.0625-.7969-.39065-1.1875-.5156-.6094-1.3125-.6094-.73435 0-1.23435.4844-.48435.48435-.53125 1.3125zm6.2031 3.7031v-6.21875h.9375v.875q.6875-1.01565 1.9844-1.01565.5625 0 1.03125.20315.48435.20315.71875.53125.2344.3281.3281.7656.0469.2969.0469 1.0313v3.8281h-1.0469v-3.78125q0-.65625-.125-.96875-.125-.3125-.4375-.5-.3125-.2031-.73435-.2031-.67185 0-1.17185.4375-.4844.42185-.4844 1.60935v3.40625z"/></g><path d="m32.8125 50.5v-10.375h1.578125v1.453125q.484375-.75 1.296875-1.21875.8125-.46875 1.84375-.46875 1.15625 0 1.890625.484375.734375.46875 1.046875 1.328125 1.234375-1.8125 3.203125-1.8125 1.546875 0 2.375.859375.828125.859375.828125 2.625v7.125h-1.75v-6.53125q0-1.0625-.171875-1.515625-.171875-.46875-.625-.75-.4375-.28125-1.046875-.28125-1.09375 0-1.828125.734375-.71875.71875-.71875 2.3125v6.03125h-1.75v-6.734375q0-1.171875-.4375-1.75-.421875-.59375-1.40625-.59375-.734375 0-1.375.390625-.625.390625-.90625 1.140625-.28125.75-.28125 2.171875v5.375zm22.78125-1.28125q-.984375.828125-1.890625 1.171875-.90625.34375-1.9375.34375-1.703125 0-2.625-.828125-.921875-.84375-.921875-2.140625 0-.765625.34375-1.390625.359375-.625.921875-1 .5625-.390625 1.265625-.59375.515625-.125 1.5625-.265625 2.125-.25 3.125-.59375.015625-.359375.015625-.46875 0-1.0625-.5-1.515625-.671875-.59375-2-.59375-1.25 0-1.84375.4375-.578125.4375-.859375 1.546875l-1.71875-.234375q.234375-1.109375.765625-1.78125.53125-.6875 1.546875-1.046875 1.015625-.375 2.359375-.375 1.328125 0 2.15625.3125.828125.3125 1.21875.796875.390625.46875.546875 1.1875.09375.453125.09375 1.625v2.34375q0 2.453125.109375 3.109375.109375.640625.453125 1.234375h-1.84375q-.265625-.546875-.34375-1.28125zm-.15625-3.921875q-.953125.390625-2.875.65625-1.078125.15625-1.53125.359375-.4375.1875-.6875.5625-.25.375-.25.84375 0 .703125.53125 1.171875.53125.46875 1.5625.46875 1.015625 0 1.796875-.4375.796875-.453125 1.171875-1.21875.28125-.609375.28125-1.765625zm11.15625 1.40625 1.71875.21875q-.28125 1.796875-1.453125 2.8125-1.15625 1-2.859375 1-2.125 0-3.421875-1.390625-1.296875-1.390625-1.296875-3.984375 0-1.6875.546875-2.9375.5625-1.265625 1.703125-1.890625 1.140625-.640625 2.484375-.640625 1.6875 0 2.75.859375 1.078125.859375 1.390625 2.421875l-1.71875.265625q-.234375-1.046875-.859375-1.5625-.625-.53125-1.5-.53125-1.328125 0-2.15625.953125-.828125.953125-.828125 3 0 2.09375.796875 3.046875.796875.9375 2.09375.9375 1.03125 0 1.71875-.625.703125-.640625.890625-1.953125zm2.875-3.171875q0-3.5625 1.90625-5.578125 1.921875-2.03125 4.953125-2.03125 1.984375 0 3.5625.953125 1.59375.953125 2.421875 2.65625.84375 1.6875.84375 3.828125 0 2.171875-.875 3.890625-.875 1.71875-2.5 2.609375-1.609375.890625-3.46875.890625-2.015625 0-3.609375-.96875-1.59375-.984375-2.421875-2.671875-.8125-1.703125-.8125-3.578125zm1.953125.03125q0 2.578125 1.390625 4.078125 1.390625 1.484375 3.484375 1.484375 2.140625 0 3.515625-1.5 1.390625-1.515625 1.390625-4.28125 0-1.734375-.59375-3.03125-.578125-1.3125-1.71875-2.03125-1.140625-.71875-2.5625-.71875-2 0-3.453125 1.390625-1.453125 1.375-1.453125 4.609375zm13.984375 2.34375 1.78125-.15625q.125 1.0625.578125 1.75.46875.6875 1.4375 1.125.984375.421875 2.21875.421875 1.078125 0 1.90625-.3125.828125-.328125 1.234375-.890625.40625-.5625.40625-1.234375 0-.671875-.390625-1.171875-.390625-.5-1.28125-.84375-.578125-.234375-2.5625-.703125-1.96875-.46875-2.75-.890625-1.03125-.53125-1.53125-1.328125-.5-.796875-.5-1.78125 0-1.09375.609375-2.03125.609375-.9375 1.796875-1.421875 1.1875-.5 2.625-.5 1.59375 0 2.8125.515625 1.21875.515625 1.859375 1.515625.65625.984375.703125 2.25l-1.8125.140625q-.140625-1.359375-.984375-2.046875-.84375-.703125-2.5-.703125-1.71875 0-2.515625.640625-.78125.625-.78125 1.5 0 .78125.5625 1.28125.546875.5 2.859375 1.015625 2.3125.515625 3.171875.90625 1.25.578125 1.84375 1.46875.59375.875.59375 2.03125 0 1.140625-.65625 2.15625-.65625 1.015625-1.890625 1.578125-1.21875.5625-2.75.5625-1.9375 0-3.25-.5625-1.3125-.578125-2.0625-1.71875-.75-1.140625-.78125-2.5625zm19.578125 4.59375v-14.3125h2.859375l3.375 10.125q.46875 1.421875.6875 2.125.25-.78125.765625-2.296875l3.421875-9.953125h2.546875v14.3125h-1.8125v-11.984375l-4.171875 11.984375h-1.703125l-4.140625-12.1875v12.1875zm22.96875 0h-1.765625v-11.203125q-.625.609375-1.65625 1.21875-1.03125.59375-1.859375.90625v-1.703125q1.484375-.6875 2.578125-1.671875 1.109375-1 1.5625-1.921875h1.140625zm13.749995 0-3.95312-10.375h1.85938l2.23437 6.21875q.35937 1 .65625 2.078125.23438-.8125.65625-1.96875l2.29687-6.328125h1.8125l-3.92187 10.375zm5.40626-3.09375 1.75-.28125q.14062 1.046875.8125 1.609375.67187.546875 1.875.546875 1.20312 0 1.78124-.484375.59376-.5.59376-1.15625 0-.59375-.51563-.9375-.35937-.234375-1.79687-.59375-1.9375-.5-2.6875-.84375-.73438-.359375-1.125-.984375-.39063-.640625-.39063-1.40625 0-.6875.3125-1.28125.32813-.59375.875-.984375.40625-.296875 1.10937-.5.71876-.21875 1.53126-.21875 1.21874 0 2.14062.359375.92188.34375 1.35938.953125.4375.59375.60937 1.59375l-1.71875.234375q-.125-.796875-.6875-1.234375-.5625-.453125-1.57812-.453125-1.21876 0-1.73438.40625-.51562.390625-.51562.921875 0 .34375.21874.625.20313.28125.67188.46875.26562.09375 1.54688.4375 1.875.5 2.60937.828125.73437.3125 1.15625.921875.42188.59375.42188 1.5 0 .875-.51563 1.65625-.51563.78125-1.48437 1.203125-.96876.421875-2.1875.421875-2.01563 0-3.07813-.84375-1.0625-.84375-1.35937-2.484375zm11.20312 3.09375v-2h2v2zm11.73438 0v-14.3125h4.92187q1.67187 0 2.5625.203125 1.21875.28125 2.09375 1.015625 1.125.96875 1.6875 2.453125.5625 1.484375.5625 3.40625 0 1.625-.375 2.890625-.375 1.25-.98438 2.078125-.59374.828125-1.29687 1.3125-.70313.46875-1.70313.71875-1 .234375-2.3125.234375zm1.89062-1.6875h3.0625q1.40625 0 2.20312-.265625.8125-.265625 1.29688-.75.67188-.671875 1.04688-1.796875.375-1.140625.375-2.765625 0-2.25-.73438-3.453125-.73438-1.203125-1.79688-1.609375-.75-.296875-2.4375-.296875h-3.01562zm11.85938 1.6875v-10.375h1.57812v1.578125q.60938-1.109375 1.125-1.453125.51562-.359375 1.125-.359375.89062 0 1.8125.5625l-.60938 1.640625q-.64062-.390625-1.28124-.390625-.57813 0-1.04688.359375-.45312.34375-.65625.953125-.28125.9375-.28125 2.046875v5.4375zm13.8125 0v-1.53125q-1.20313 1.765625-3.28126 1.765625-.92187 0-1.71874-.34375-.79688-.359375-1.1875-.890625-.375-.53125-.53126-1.3125-.10937-.515625-.10937-1.640625v-6.421875h1.75v5.75q0 1.375.10937 1.859375.17188.6875.70313 1.09375.54687.390625 1.32813.390625.79687 0 1.48437-.40625.70313-.40625.98437-1.09375.29688-.703125.29688-2.03125v-5.5625h1.75v10.375zm3.20312 3.96875v-14.34375h1.60938v1.34375q.5625-.78125 1.26562-1.171875.71875-.40625 1.73438-.40625 1.32812 0 2.34374.6875 1.01563.6875 1.53126 1.9375.53124 1.234375.53124 2.71875 0 1.59375-.57812 2.875-.5625 1.265625-1.65625 1.953125-1.09375.671875-2.29687.671875-.875 0-1.57813-.375-.6875-.375-1.14063-.9375v5.046875zm1.59375-9.09375q0 2 .8125 2.953125.8125.953125 1.96875.953125 1.17188 0 2-.984375.84375-.984375.84375-3.078125 0-1.96875-.82813-2.953125-.8125-1-1.9375-1-1.125 0-2 1.0625-.85937 1.046875-.85937 3.046875zm16.1875 3.84375q-.98437.828125-1.89063 1.171875-.90624.34375-1.9375.34375-1.70312 0-2.625-.828125-.92187-.84375-.92187-2.140625 0-.765625.34375-1.390625.35938-.625.92188-1 .5625-.390625 1.26562-.59375.51562-.125 1.5625-.265625 2.125-.25 3.125-.59375.01562-.359375.01562-.46875 0-1.0625-.5-1.515625-.67187-.59375-2-.59375-1.25 0-1.84374.4375-.57813.4375-.85938 1.546875l-1.71875-.234375q.23437-1.109375.76563-1.78125.53124-.6875 1.54687-1.046875 1.01563-.375 2.35937-.375 1.32813 0 2.15626.3125.82812.3125 1.21874.796875.39063.46875.54688 1.1875.09375.453125.09375 1.625v2.34375q0 2.453125.10937 3.109375.10938.640625.45313 1.234375h-1.84375q-.26562-.546875-.34375-1.28125zm-.15625-3.921875q-.95312.390625-2.875.65625-1.07812.15625-1.53125.359375-.4375.1875-.6875.5625-.25.375-.25.84375 0 .703125.53125 1.171875.53125.46875 1.5625.46875 1.01562 0 1.79688-.4375.79687-.453125 1.17187-1.21875.28125-.609375.28125-1.765625zm4.34375 5.203125v-14.3125h1.75v14.3125zm16.17187 0h-1.76562v-11.203125q-.625.609375-1.65625 1.21875-1.03125.59375-1.85937.90625v-1.703125q1.48437-.6875 2.57812-1.671875 1.10938-1 1.5625-1.921875h1.14062zm4.375-7.0625q0-2.53125.51563-4.078125.53125-1.5625 1.5625-2.390625 1.03125-.84375 2.59375-.84375 1.15625 0 2.01562.46875.875.453125 1.4375 1.328125.5625.875.89063 2.140625.32813 1.25.32813 3.375 0 2.515625-.53126 4.0625-.51562 1.546875-1.54687 2.40625-1.01563.84375-2.59375.84375-2.07812 0-3.25-1.484375-1.42188-1.796875-1.42188-5.828125zm1.8125 0q0 3.53125.8125 4.703125.82813 1.15625 2.04688 1.15625 1.20312 0 2.03125-1.171875.82813-1.171875.82813-4.6875 0-3.53125-.82813-4.6875-.82813-1.171875-2.04687-1.171875-1.21876 0-1.9375 1.03125-.90626 1.296875-.90626 4.828125zm18.40626 7.0625-3.79688-14.3125h1.9375l2.17188 9.375q.35937 1.484375.60937 2.9375.54687-2.296875.64063-2.65625l2.73437-9.65625h2.28125l2.04688 7.234375q.78124 2.703125 1.125 5.078125.26562-1.359375.70312-3.125l2.25-9.1875h1.90625l-3.92187 14.3125h-1.82813l-3.01563-10.90625q-.39062-1.375-.45312-1.6875-.23438.984375-.42188 1.6875l-3.03124 10.90625zm23.375-3.34375 1.8125.234375q-.42188 1.578125-1.59376 2.46875-1.15624.875-2.96874.875-2.26563 0-3.60938-1.390625-1.32812-1.40625-1.32812-3.9375 0-2.625 1.34374-4.0625 1.34376-1.453125 3.5-1.453125 2.07813 0 3.39063 1.421875 1.32813 1.40625 1.32813 3.984375 0 .15625-.01563.46875h-7.73437q.09374 1.703125.96874 2.609375.875.90625 2.17188.90625.96875 0 1.64062-.5.6875-.515625 1.09376-1.625zm-5.78126-2.84375h5.79688q-.10938-1.296875-.65625-1.953125-.84375-1.015625-2.1875-1.015625-1.20313 0-2.03125.8125-.82812.796875-.92188 2.15625zm11.29688 6.1875h-1.625v-14.3125h1.75v5.109375q1.125-1.40625 2.84375-1.40625.95313 0 1.8125.390625.85937.390625 1.40625 1.09375.54688.6875.85938 1.671875.3125.984375.3125 2.109375 0 2.671875-1.3125 4.125-1.3125 1.453125-3.15626 1.453125-1.84374 0-2.89062-1.53125zm-.01562-5.265625q0 1.859375.5 2.703125.84374 1.34375 2.25 1.34375 1.15624 0 1.98437-1 .84375-1 .84375-2.984375 0-2.03125-.8125-2.984375-.79688-.96875-1.9375-.96875-1.15625 0-2 1-.82812 1-.82812 2.890625zm15.9375 5.265625v-14.3125h1.90624v14.3125zm5.45312 0v-10.375h1.59375v1.484375q1.14063-1.71875 3.29687-1.71875.9375 0 1.71876.34375.79687.328125 1.1875.875.39062.546875.54687 1.296875.09375.5.09375 1.71875v6.375h-1.76562v-6.3125q0-1.078125-.20313-1.609375-.20313-.53125-.73437-.84375-.51563-.3125-1.21876-.3125-1.125 0-1.9375.71875-.8125.703125-.8125 2.6875v5.671875zm9.29688-3.09375 1.75-.28125q.14062 1.046875.8125 1.609375.67187.546875 1.875.546875 1.20312 0 1.78124-.484375.59376-.5.59376-1.15625 0-.59375-.51563-.9375-.35937-.234375-1.79687-.59375-1.9375-.5-2.6875-.84375-.73438-.359375-1.125-.984375-.39063-.640625-.39063-1.40625 0-.6875.3125-1.28125.32813-.59375.875-.984375.40625-.296875 1.10937-.5.71876-.21875 1.53126-.21875 1.21874 0 2.14062.359375.92188.34375 1.35938.953125.4375.59375.60937 1.59375l-1.71875.234375q-.125-.796875-.6875-1.234375-.5625-.453125-1.57812-.453125-1.21876 0-1.73438.40625-.51562.390625-.51562.921875 0 .34375.21874.625.20313.28125.67188.46875.26562.09375 1.54688.4375 1.875.5 2.60937.828125.73437.3125 1.15625.921875.42188.59375.42188 1.5 0 .875-.51563 1.65625-.51563.78125-1.48437 1.203125-.96876.421875-2.1875.421875-2.01563 0-3.07813-.84375-1.0625-.84375-1.35937-2.484375zm14.54687 1.515625.25 1.5625q-.73437.15625-1.32813.15625-.95312 0-1.48437-.296875-.51563-.3125-.73437-.796875-.21876-.5-.21876-2.078125v-5.96875h-1.28124v-1.375h1.28124v-2.5625l1.75-1.0625v3.625h1.76563v1.375h-1.76563v6.0625q0 .75.09376.96875.09374.203125.29687.34375.21875.125.60937.125.28126 0 .76563-.078125zm8.9375.296875q-.98437.828125-1.89063 1.171875-.90624.34375-1.9375.34375-1.70312 0-2.625-.828125-.92187-.84375-.92187-2.140625 0-.765625.34375-1.390625.35938-.625.92188-1 .5625-.390625 1.26562-.59375.51562-.125 1.5625-.265625 2.125-.25 3.125-.59375.01562-.359375.01562-.46875 0-1.0625-.5-1.515625-.67187-.59375-2-.59375-1.25 0-1.84374.4375-.57813.4375-.85938 1.546875l-1.71875-.234375q.23437-1.109375.76563-1.78125.53124-.6875 1.54687-1.046875 1.01563-.375 2.35937-.375 1.32813 0 2.15626.3125.82812.3125 1.21874.796875.39063.46875.54688 1.1875.09375.453125.09375 1.625v2.34375q0 2.453125.10937 3.109375.10938.640625.45313 1.234375h-1.84375q-.26562-.546875-.34375-1.28125zm-.15625-3.921875q-.95312.390625-2.875.65625-1.07812.15625-1.53125.359375-.4375.1875-.6875.5625-.25.375-.25.84375 0 .703125.53125 1.171875.53125.46875 1.5625.46875 1.01562 0 1.79688-.4375.79687-.453125 1.17187-1.21875.28125-.609375.28125-1.765625zm4.34375 5.203125v-14.3125h1.75v14.3125zm4 0v-14.3125h1.75v14.3125zm13.39063 4.203125q-1.45313-1.828125-2.45313-4.28125-1-2.46875-1-5.109375 0-2.328125.75-4.453125.875-2.46875 2.70313-4.921875h1.26562q-1.1875 2.03125-1.5625 2.90625-.59375 1.34375-.9375 2.8125-.42188 1.828125-.42188 3.671875 0 4.6875 2.92188 9.375zm2.9375-7.296875 1.75-.28125q.14062 1.046875.8125 1.609375.67187.546875 1.875.546875 1.20312 0 1.78124-.484375.59376-.5.59376-1.15625 0-.59375-.51563-.9375-.35937-.234375-1.79687-.59375-1.9375-.5-2.6875-.84375-.73438-.359375-1.125-.984375-.39063-.640625-.39063-1.40625 0-.6875.3125-1.28125.32813-.59375.875-.984375.40625-.296875 1.10937-.5.71876-.21875 1.53126-.21875 1.21874 0 2.14062.359375.92188.34375 1.35938.953125.4375.59375.60937 1.59375l-1.71875.234375q-.125-.796875-.6875-1.234375-.5625-.453125-1.57812-.453125-1.21876 0-1.73438.40625-.51562.390625-.51562.921875 0 .34375.21874.625.20313.28125.67188.46875.26562.09375 1.54688.4375 1.875.5 2.60937.828125.73437.3125 1.15625.921875.42188.59375.42188 1.5 0 .875-.51563 1.65625-.51563.78125-1.48437 1.203125-.96876.421875-2.1875.421875-2.01563 0-3.07813-.84375-1.0625-.84375-1.35937-2.484375zm17.8125-.25 1.8125.234375q-.42188 1.578125-1.59376 2.46875-1.15624.875-2.96874.875-2.26563 0-3.60938-1.390625-1.32812-1.40625-1.32812-3.9375 0-2.625 1.34374-4.0625 1.34376-1.453125 3.5-1.453125 2.07813 0 3.39063 1.421875 1.32813 1.40625 1.32813 3.984375 0 .15625-.01563.46875h-7.73437q.09374 1.703125.96874 2.609375.875.90625 2.17188.90625.96875 0 1.64062-.5.6875-.515625 1.09376-1.625zm-5.78126-2.84375h5.79688q-.10938-1.296875-.65625-1.953125-.84375-1.015625-2.1875-1.015625-1.20313 0-2.03125.8125-.82812.796875-.92188 2.15625zm16.45313 2.390625 1.71875.21875q-.28125 1.796875-1.45312 2.8125-1.15626 1-2.85938 1-2.125 0-3.42188-1.390625-1.29687-1.390625-1.29687-3.984375 0-1.6875.54687-2.9375.5625-1.265625 1.70313-1.890625 1.14063-.640625 2.48437-.640625 1.6875 0 2.75.859375 1.07813.859375 1.39063 2.421875l-1.71875.265625q-.23438-1.046875-.85938-1.5625-.625-.53125-1.5-.53125-1.32812 0-2.15624.953125-.82813.953125-.82813 3 0 2.09375.79687 3.046875.79688.9375 2.09376.9375 1.03124 0 1.71874-.625.70313-.640625.89063-1.953125zm2.57813-1.390625q0-2.875 1.59374-4.265625 1.34376-1.15625 3.26563-1.15625 2.14063 0 3.48437 1.40625 1.35938 1.40625 1.35938 3.875 0 2-.59375 3.15625-.59375 1.140625-1.75 1.78125-1.14063.625-2.5.625-2.1875 0-3.53125-1.390625-1.32812-1.40625-1.32812-4.03125zm1.79687 0q0 2 .85937 2.984375.875.984375 2.20313.984375 1.3125 0 2.17187-.984375.875-1 .875-3.046875 0-1.921875-.875-2.90625-.875-1-2.17187-1-1.32813 0-2.20313 1-.85937.984375-.85937 2.96875zm9.84375 5.1875v-10.375h1.59375v1.484375q1.14063-1.71875 3.29687-1.71875.9375 0 1.71876.34375.79687.328125 1.1875.875.39062.546875.54687 1.296875.09375.5.09375 1.71875v6.375h-1.76562v-6.3125q0-1.078125-.20313-1.609375-.20313-.53125-.73437-.84375-.51563-.3125-1.21876-.3125-1.125 0-1.9375.71875-.8125.703125-.8125 2.6875v5.671875zm16.73438 0v-1.3125q-.98438 1.546875-2.90626 1.546875-1.23437 0-2.28124-.6875-1.03126-.6875-1.60938-1.90625-.5625-1.21875-.5625-2.8125 0-1.5625.51562-2.828125.51563-1.265625 1.54688-1.9375 1.04688-.671875 2.3125-.671875.9375 0 1.67188.40625.73437.390625 1.20312 1.015625v-5.125h1.73438v14.3125zm-5.5625-5.171875q0 1.984375.84374 2.96875.84376.984375 1.98438.984375 1.15625 0 1.95312-.9375.8125-.9375.8125-2.875 0-2.125-.82812-3.125-.8125-1-2.01562-1-1.17188 0-1.96876.96875-.78124.953125-.78124 3.015625zm9.125 2.078125 1.75-.28125q.14062 1.046875.8125 1.609375.67187.546875 1.875.546875 1.20312 0 1.78124-.484375.59376-.5.59376-1.15625 0-.59375-.51563-.9375-.35937-.234375-1.79687-.59375-1.9375-.5-2.6875-.84375-.73438-.359375-1.125-.984375-.39063-.640625-.39063-1.40625 0-.6875.3125-1.28125.32813-.59375.875-.984375.40625-.296875 1.10937-.5.71876-.21875 1.53126-.21875 1.21874 0 2.14062.359375.92188.34375 1.35938.953125.4375.59375.60937 1.59375l-1.71875.234375q-.125-.796875-.6875-1.234375-.5625-.453125-1.57812-.453125-1.21876 0-1.73438.40625-.51562.390625-.51562.921875 0 .34375.21874.625.20313.28125.67188.46875.26562.09375 1.54688.4375 1.875.5 2.60937.828125.73437.3125 1.15625.921875.42188.59375.42188 1.5 0 .875-.51563 1.65625-.51563.78125-1.48437 1.203125-.96876.421875-2.1875.421875-2.01563 0-3.07813-.84375-1.0625-.84375-1.35937-2.484375zm11.85937 7.296875h-1.25q2.90625-4.6875 2.90625-9.375 0-1.84375-.40625-3.640625-.34375-1.46875-.9375-2.8125-.375-.890625-1.5625-2.9375h1.25q1.84375 2.453125 2.71875 4.921875.75 2.125.75 4.453125 0 2.640625-1.01562 5.109375-1 2.453125-2.45313 4.28125z" fill="#757575"/></svg>