<svg version="1.1" viewBox="0.0 0.0 600.0 371.0" fill="none" stroke="none" stroke-linecap="square" stroke-miterlimit="10" width="600" height="371" xmlns:xlink="http://www.w3.org/1999/xlink" xmlns="http://www.w3.org/2000/svg"><path fill="#ffffff" d="M0 0L600.0 0L600.0 371.0L0 371.0L0 0Z" fill-rule="nonzero"/><path stroke="#333333" stroke-width="1.0" stroke-linecap="butt" d="M77.5 300.5L581.5 300.5" fill-rule="nonzero"/><path stroke="#cccccc" stroke-width="1.0" stroke-linecap="butt" d="M77.5 220.5L581.5 220.5" fill-rule="nonzero"/><path stroke="#cccccc" stroke-width="1.0" stroke-linecap="butt" d="M77.5 141.5L581.5 141.5" fill-rule="nonzero"/><path stroke="#cccccc" stroke-width="1.0" stroke-linecap="butt" d="M77.5 61.5L581.5 61.5" fill-rule="nonzero"/><clipPath id="id_0"><path d="M77.55 61.916668L581.45 61.916668L581.45 300.45L77.55 300.45L77.55 61.916668Z" clip-rule="nonzero"/></clipPath><path stroke="#000000" stroke-width="2.0" stroke-linecap="butt" stroke-opacity="0.0" clip-path="url(#id_0)" d="M194.0 300.0L119.0 300.0L119.0 80.0C119.0 78.89543 119.89543 78.0 121.0 78.0L192.0 78.0C193.10457 78.0 194.0 78.89543 194.0 80.0Z" fill-rule="nonzero"/><path fill="#4285f4" clip-path="url(#id_0)" d="M194.0 300.0L119.0 300.0L119.0 80.0C119.0 78.89543 119.89543 78.0 121.0 78.0L192.0 78.0C193.10457 78.0 194.0 78.89543 194.0 80.0Z" fill-rule="nonzero"/><path stroke="#000000" stroke-width="2.0" stroke-linecap="butt" stroke-opacity="0.0" clip-path="url(#id_0)" d="M310.0 300.0L235.0 300.0L235.0 78.0C235.0 76.89543 235.89543 76.0 237.0 76.0L308.0 76.0C309.10458 76.0 310.0 76.89543 310.0 78.0Z" fill-rule="nonzero"/><path fill="#4285f4" clip-path="url(#id_0)" d="M310.0 300.0L235.0 300.0L235.0 78.0C235.0 76.89543 235.89543 76.0 237.0 76.0L308.0 76.0C309.10458 76.0 310.0 76.89543 310.0 78.0Z" fill-rule="nonzero"/><path stroke="#000000" stroke-width="2.0" stroke-linecap="butt" stroke-opacity="0.0" clip-path="url(#id_0)" d="M425.0 300.0L350.0 300.0L350.0 118.0C350.0 116.89543 350.89542 116.0 352.0 116.0L423.0 116.0C424.10458 116.0 425.0 116.89543 425.0 118.0Z" fill-rule="nonzero"/><path fill="#4285f4" clip-path="url(#id_0)" d="M425.0 300.0L350.0 300.0L350.0 118.0C350.0 116.89543 350.89542 116.0 352.0 116.0L423.0 116.0C424.10458 116.0 425.0 116.89543 425.0 118.0Z" fill-rule="nonzero"/><path stroke="#000000" stroke-width="2.0" stroke-linecap="butt" stroke-opacity="0.0" clip-path="url(#id_0)" d="M541.0 300.0L466.0 300.0L466.0 119.0C466.0 117.89543 466.89542 117.0 468.0 117.0L539.0 117.0C540.10455 117.0 541.0 117.89543 541.0 119.0Z" fill-rule="nonzero"/><path fill="#4285f4" clip-path="url(#id_0)" d="M541.0 300.0L466.0 300.0L466.0 119.0C466.0 117.89543 466.89542 117.0 468.0 117.0L539.0 117.0C540.10455 117.0 541.0 117.89543 541.0 119.0Z" fill-rule="nonzero"/><path fill="#000000" d="M224.42188 349.45L224.42188 340.85626L227.39062 340.85626Q228.39062 340.85626 228.92188 340.98126Q229.65625 341.15314 230.17188 341.59064Q230.85938 342.16876 231.1875 343.075Q231.53125 343.96564 231.53125 345.10626Q231.53125 346.09064 231.29688 346.84064Q231.07812 347.59064 230.71875 348.09064Q230.35938 348.59064 229.92188 348.8719Q229.5 349.15314 228.90625 349.3094Q228.3125 349.45 227.53125 349.45L224.42188 349.45ZM225.5625 348.4344L227.39062 348.4344Q228.25 348.4344 228.73438 348.27814Q229.21875 348.1219 229.5 347.825Q229.90625 347.4344 230.125 346.7469Q230.35938 346.0594 230.35938 345.09064Q230.35938 343.7469 229.90625 343.02814Q229.46875 342.29376 228.84375 342.04376Q228.375 341.8719 227.375 341.8719L225.5625 341.8719L225.5625 348.4344ZM232.90625 346.34064Q232.90625 344.60626 233.85938 343.77814Q234.65625 343.09064 235.8125 343.09064Q237.09375 343.09064 237.90625 343.9344Q238.73438 344.7625 238.73438 346.2469Q238.73438 347.45 238.375 348.1375Q238.01562 348.825 237.3125 349.21564Q236.625 349.59064 235.8125 349.59064Q234.51562 349.59064 233.70312 348.7625Q232.90625 347.91876 232.90625 346.34064ZM233.98438 346.34064Q233.98438 347.52814 234.5 348.1219Q235.03125 348.71564 235.8125 348.71564Q236.60938 348.71564 237.125 348.1219Q237.64062 347.52814 237.64062 346.3094Q237.64062 345.15314 237.10938 344.5594Q236.59375 343.96564 235.8125 343.96564Q235.03125 343.96564 234.5 344.5594Q233.98438 345.1375 233.98438 346.34064ZM244.35938 347.16876L245.39062 347.3094Q245.21875 348.3719 244.51562 348.98126Q243.8125 349.59064 242.79688 349.59064Q241.51562 349.59064 240.73438 348.7625Q239.96875 347.91876 239.96875 346.35626Q239.96875 345.35626 240.29688 344.60626Q240.64062 343.84064 241.3125 343.46564Q242.0 343.09064 242.8125 343.09064Q243.8125 343.09064 244.45312 343.60626Q245.10938 344.10626 245.29688 345.0594L244.26562 345.21564Q244.125 344.59064 243.75 344.27814Q243.375 343.95 242.84375 343.95Q242.04688 343.95 241.54688 344.52814Q241.04688 345.09064 241.04688 346.325Q241.04688 347.59064 241.53125 348.15314Q242.01562 348.71564 242.78125 348.71564Q243.40625 348.71564 243.8125 348.34064Q244.23438 347.96564 244.35938 347.16876ZM246.29688 349.45L246.29688 340.85626L247.35938 340.85626L247.35938 345.7625L249.84375 343.23126L251.21875 343.23126L248.82812 345.52814L251.45312 349.45L250.15625 349.45L248.09375 346.2625L247.35938 346.98126L247.35938 349.45L246.29688 349.45ZM256.54688 347.45L257.64062 347.575Q257.39062 348.52814 256.6875 349.0594Q255.98438 349.59064 254.90625 349.59064Q253.54688 349.59064 252.73438 348.7469Q251.9375 347.90314 251.9375 346.3875Q251.9375 344.825 252.75 343.96564Q253.5625 343.09064 254.84375 343.09064Q256.09375 343.09064 256.875 343.9344Q257.67188 344.77814 257.67188 346.325Q257.67188 346.41876 257.67188 346.60626L253.03125 346.60626Q253.09375 347.6375 253.60938 348.1844Q254.125 348.71564 254.90625 348.71564Q255.48438 348.71564 255.89062 348.41876Q256.3125 348.10626 256.54688 347.45ZM253.09375 345.7469L256.5625 345.7469Q256.5 344.95 256.17188 344.5594Q255.65625 343.95 254.85938 343.95Q254.125 343.95 253.625 344.4344Q253.14062 344.91876 253.09375 345.7469ZM259.28125 349.45L259.28125 343.23126L260.23438 343.23126L260.23438 344.16876Q260.59375 343.5125 260.89062 343.3094Q261.20312 343.09064 261.57812 343.09064Q262.10938 343.09064 262.65625 343.41876L262.29688 344.40314Q261.90625 344.16876 261.53125 344.16876Q261.17188 344.16876 260.89062 344.3875Q260.625 344.59064 260.51562 344.96564Q260.32812 345.52814 260.32812 346.1844L260.32812 349.45L259.28125 349.45ZM266.42188 349.45L266.42188 340.85626L269.67188 340.85626Q270.51562 340.85626 270.96875 340.9344Q271.60938 341.04376 272.03125 341.34064Q272.46875 341.6375 272.71875 342.16876Q272.98438 342.7 272.98438 343.34064Q272.98438 344.4344 272.28125 345.2Q271.59375 345.95 269.76562 345.95L267.5625 345.95L267.5625 349.45L266.42188 349.45ZM267.5625 344.95L269.78125 344.95Q270.89062 344.95 271.34375 344.54376Q271.8125 344.1219 271.8125 343.3719Q271.8125 342.84064 271.53125 342.46564Q271.26562 342.075 270.82812 341.95Q270.53125 341.8719 269.76562 341.8719L267.5625 341.8719L267.5625 344.95ZM274.28125 349.45L274.28125 343.23126L275.23438 343.23126L275.23438 344.16876Q275.59375 343.5125 275.89062 343.3094Q276.20312 343.09064 276.57812 343.09064Q277.10938 343.09064 277.65625 343.41876L277.29688 344.40314Q276.90625 344.16876 276.53125 344.16876Q276.17188 344.16876 275.89062 344.3875Q275.625 344.59064 275.51562 344.96564Q275.32812 345.52814 275.32812 346.1844L275.32812 349.45L274.28125 349.45ZM277.90625 346.34064Q277.90625 344.60626 278.85938 343.77814Q279.65625 343.09064 280.8125 343.09064Q282.09375 343.09064 282.90625 343.9344Q283.73438 344.7625 283.73438 346.2469Q283.73438 347.45 283.375 348.1375Q283.01562 348.825 282.3125 349.21564Q281.625 349.59064 280.8125 349.59064Q279.51562 349.59064 278.70312 348.7625Q277.90625 347.91876 277.90625 346.34064ZM278.98438 346.34064Q278.98438 347.52814 279.5 348.1219Q280.03125 348.71564 280.8125 348.71564Q281.60938 348.71564 282.125 348.1219Q282.64062 347.52814 282.64062 346.3094Q282.64062 345.15314 282.10938 344.5594Q281.59375 343.96564 280.8125 343.96564Q280.03125 343.96564 279.5 344.5594Q278.98438 345.1375 278.98438 346.34064ZM287.01562 349.45L284.65625 343.23126L285.76562 343.23126L287.10938 346.95Q287.3125 347.5594 287.5 348.2Q287.64062 347.71564 287.89062 347.02814L289.28125 343.23126L290.35938 343.23126L288.0 349.45L287.01562 349.45ZM290.29688 342.075L290.29688 340.85626L291.35938 340.85626L291.35938 342.075L290.29688 342.075ZM290.29688 349.45L290.29688 343.23126L291.35938 343.23126L291.35938 349.45L290.29688 349.45ZM297.32812 349.45L297.32812 348.66876Q296.73438 349.59064 295.59375 349.59064Q294.84375 349.59064 294.21875 349.1844Q293.59375 348.7625 293.25 348.02814Q292.90625 347.29376 292.90625 346.34064Q292.90625 345.41876 293.21875 344.65314Q293.53125 343.8875 294.15625 343.4969Q294.78125 343.09064 295.54688 343.09064Q296.10938 343.09064 296.54688 343.325Q296.98438 343.5594 297.26562 343.9344L297.26562 340.85626L298.3125 340.85626L298.3125 349.45L297.32812 349.45ZM294.0 346.34064Q294.0 347.54376 294.5 348.1375Q295.0 348.71564 295.6875 348.71564Q296.375 348.71564 296.85938 348.15314Q297.34375 347.59064 297.34375 346.4344Q297.34375 345.15314 296.84375 344.5594Q296.35938 343.96564 295.64062 343.96564Q294.9375 343.96564 294.46875 344.54376Q294.0 345.10626 294.0 346.34064ZM304.54688 347.45L305.64062 347.575Q305.39062 348.52814 304.6875 349.0594Q303.98438 349.59064 302.90625 349.59064Q301.54688 349.59064 300.73438 348.7469Q299.9375 347.90314 299.9375 346.3875Q299.9375 344.825 300.75 343.96564Q301.5625 343.09064 302.84375 343.09064Q304.09375 343.09064 304.875 343.9344Q305.67188 344.77814 305.67188 346.325Q305.67188 346.41876 305.67188 346.60626L301.03125 346.60626Q301.09375 347.6375 301.60938 348.1844Q302.125 348.71564 302.90625 348.71564Q303.48438 348.71564 303.89062 348.41876Q304.3125 348.10626 304.54688 347.45ZM301.09375 345.7469L304.5625 345.7469Q304.5 344.95 304.17188 344.5594Q303.65625 343.95 302.85938 343.95Q302.125 343.95 301.625 344.4344Q301.14062 344.91876 301.09375 345.7469ZM307.28125 349.45L307.28125 343.23126L308.23438 343.23126L308.23438 344.16876Q308.59375 343.5125 308.89062 343.3094Q309.20312 343.09064 309.57812 343.09064Q310.10938 343.09064 310.65625 343.41876L310.29688 344.40314Q309.90625 344.16876 309.53125 344.16876Q309.17188 344.16876 308.89062 344.3875Q308.625 344.59064 308.51562 344.96564Q308.32812 345.52814 308.32812 346.1844L308.32812 349.45L307.28125 349.45ZM316.3125 351.98126Q315.4375 350.8719 314.82812 349.40314Q314.23438 347.91876 314.23438 346.34064Q314.23438 344.95 314.67188 343.66876Q315.20312 342.1844 316.3125 340.71564L317.0625 340.71564Q316.35938 341.9344 316.125 342.45Q315.76562 343.2625 315.5625 344.1375Q315.3125 345.23126 315.3125 346.34064Q315.3125 349.16876 317.0625 351.98126L316.3125 351.98126ZM318.29688 349.45L318.29688 343.23126L319.23438 343.23126L319.23438 344.10626Q319.53125 343.6375 320.01562 343.3719Q320.5 343.09064 321.125 343.09064Q321.8125 343.09064 322.25 343.3719Q322.70312 343.65314 322.875 344.16876Q323.625 343.09064 324.79688 343.09064Q325.73438 343.09064 326.21875 343.60626Q326.71875 344.10626 326.71875 345.1844L326.71875 349.45L325.67188 349.45L325.67188 345.52814Q325.67188 344.90314 325.5625 344.6219Q325.46875 344.34064 325.20312 344.16876Q324.9375 343.9969 324.5625 343.9969Q323.90625 343.9969 323.46875 344.4344Q323.04688 344.8719 323.04688 345.84064L323.04688 349.45L321.98438 349.45L321.98438 345.40314Q321.98438 344.7 321.71875 344.35626Q321.46875 343.9969 320.89062 343.9969Q320.4375 343.9969 320.0625 344.23126Q319.6875 344.46564 319.51562 344.91876Q319.34375 345.3719 319.34375 346.21564L319.34375 349.45L318.29688 349.45ZM333.35938 348.6844Q332.76562 349.1844 332.21875 349.3875Q331.6875 349.59064 331.0625 349.59064Q330.03125 349.59064 329.48438 349.09064Q328.9375 348.59064 328.9375 347.8094Q328.9375 347.35626 329.14062 346.98126Q329.34375 346.59064 329.6875 346.3719Q330.03125 346.1375 330.45312 346.02814Q330.75 345.9344 331.39062 345.85626Q332.65625 345.71564 333.26562 345.4969Q333.26562 345.27814 333.26562 345.23126Q333.26562 344.575 332.96875 344.3094Q332.5625 343.96564 331.76562 343.96564Q331.03125 343.96564 330.67188 344.23126Q330.3125 344.48126 330.14062 345.1375L329.10938 344.9969Q329.25 344.34064 329.57812 343.9344Q329.90625 343.52814 330.51562 343.3094Q331.125 343.09064 331.92188 343.09064Q332.71875 343.09064 333.21875 343.27814Q333.71875 343.46564 333.95312 343.7469Q334.1875 344.02814 334.28125 344.46564Q334.32812 344.73126 334.32812 345.4344L334.32812 346.84064Q334.32812 348.3094 334.39062 348.7Q334.46875 349.09064 334.67188 349.45L333.5625 349.45Q333.40625 349.1219 333.35938 348.6844ZM333.26562 346.325Q332.6875 346.5594 331.54688 346.73126Q330.89062 346.825 330.625 346.95Q330.35938 347.0594 330.20312 347.27814Q330.0625 347.4969 330.0625 347.77814Q330.0625 348.2 330.375 348.48126Q330.70312 348.7625 331.3125 348.7625Q331.92188 348.7625 332.39062 348.4969Q332.875 348.23126 333.09375 347.7625Q333.26562 347.40314 333.26562 346.71564L333.26562 346.325ZM340.35938 347.16876L341.39062 347.3094Q341.21875 348.3719 340.51562 348.98126Q339.8125 349.59064 338.79688 349.59064Q337.51562 349.59064 336.73438 348.7625Q335.96875 347.91876 335.96875 346.35626Q335.96875 345.35626 336.29688 344.60626Q336.64062 343.84064 337.3125 343.46564Q338.0 343.09064 338.8125 343.09064Q339.8125 343.09064 340.45312 343.60626Q341.10938 344.10626 341.29688 345.0594L340.26562 345.21564Q340.125 344.59064 339.75 344.27814Q339.375 343.95 338.84375 343.95Q338.04688 343.95 337.54688 344.52814Q337.04688 345.09064 337.04688 346.325Q337.04688 347.59064 337.53125 348.15314Q338.01562 348.71564 338.78125 348.71564Q339.40625 348.71564 339.8125 348.34064Q340.23438 347.96564 340.35938 347.16876ZM342.07812 345.2625Q342.07812 343.1219 343.21875 341.91876Q344.375 340.7 346.1875 340.7Q347.39062 340.7 348.34375 341.27814Q349.29688 341.84064 349.79688 342.85626Q350.29688 343.8719 350.29688 345.16876Q350.29688 346.46564 349.76562 347.4969Q349.23438 348.52814 348.26562 349.0594Q347.3125 349.59064 346.1875 349.59064Q344.96875 349.59064 344.01562 349.0125Q343.0625 348.41876 342.5625 347.41876Q342.07812 346.40314 342.07812 345.2625ZM343.25 345.27814Q343.25 346.84064 344.07812 347.73126Q344.92188 348.6219 346.1875 348.6219Q347.46875 348.6219 348.29688 347.73126Q349.125 346.825 349.125 345.15314Q349.125 344.10626 348.76562 343.325Q348.42188 342.54376 347.73438 342.1219Q347.04688 341.6844 346.20312 341.6844Q345.0 341.6844 344.125 342.5125Q343.25 343.34064 343.25 345.27814ZM351.04688 346.6844L352.10938 346.59064Q352.1875 347.2469 352.46875 347.65314Q352.75 348.0594 353.32812 348.325Q353.92188 348.575 354.65625 348.575Q355.29688 348.575 355.79688 348.3875Q356.29688 348.1844 356.53125 347.85626Q356.78125 347.5125 356.78125 347.1219Q356.78125 346.71564 356.54688 346.41876Q356.3125 346.10626 355.78125 345.90314Q355.42188 345.7625 354.23438 345.48126Q353.0625 345.2 352.59375 344.95Q351.96875 344.6219 351.67188 344.15314Q351.375 343.66876 351.375 343.075Q351.375 342.4344 351.73438 341.8719Q352.10938 341.29376 352.8125 341.0125Q353.53125 340.71564 354.39062 340.71564Q355.34375 340.71564 356.07812 341.02814Q356.8125 341.325 357.20312 341.9344Q357.59375 342.52814 357.625 343.27814L356.53125 343.35626Q356.4375 342.54376 355.92188 342.1375Q355.42188 341.71564 354.4375 341.71564Q353.40625 341.71564 352.9375 342.09064Q352.46875 342.46564 352.46875 342.9969Q352.46875 343.46564 352.79688 343.7625Q353.125 344.0594 354.5 344.3719Q355.89062 344.6844 356.40625 344.91876Q357.15625 345.27814 357.51562 345.8094Q357.875 346.325 357.875 347.02814Q357.875 347.71564 357.48438 348.325Q357.09375 348.91876 356.35938 349.2625Q355.625 349.59064 354.70312 349.59064Q353.53125 349.59064 352.73438 349.2625Q351.95312 348.91876 351.5 348.23126Q351.0625 347.54376 351.04688 346.6844ZM362.29688 349.45L362.29688 343.23126L363.23438 343.23126L363.23438 344.10626Q363.53125 343.6375 364.01562 343.3719Q364.5 343.09064 365.125 343.09064Q365.8125 343.09064 366.25 343.3719Q366.70312 343.65314 366.875 344.16876Q367.625 343.09064 368.79688 343.09064Q369.73438 343.09064 370.21875 343.60626Q370.71875 344.10626 370.71875 345.1844L370.71875 349.45L369.67188 349.45L369.67188 345.52814Q369.67188 344.90314 369.5625 344.6219Q369.46875 344.34064 369.20312 344.16876Q368.9375 343.9969 368.5625 343.9969Q367.90625 343.9969 367.46875 344.4344Q367.04688 344.8719 367.04688 345.84064L367.04688 349.45L365.98438 349.45L365.98438 345.40314Q365.98438 344.7 365.71875 344.35626Q365.46875 343.9969 364.89062 343.9969Q364.4375 343.9969 364.0625 344.23126Q363.6875 344.46564 363.51562 344.91876Q363.34375 345.3719 363.34375 346.21564L363.34375 349.45L362.29688 349.45ZM377.35938 348.6844Q376.76562 349.1844 376.21875 349.3875Q375.6875 349.59064 375.0625 349.59064Q374.03125 349.59064 373.48438 349.09064Q372.9375 348.59064 372.9375 347.8094Q372.9375 347.35626 373.14062 346.98126Q373.34375 346.59064 373.6875 346.3719Q374.03125 346.1375 374.45312 346.02814Q374.75 345.9344 375.39062 345.85626Q376.65625 345.71564 377.26562 345.4969Q377.26562 345.27814 377.26562 345.23126Q377.26562 344.575 376.96875 344.3094Q376.5625 343.96564 375.76562 343.96564Q375.03125 343.96564 374.67188 344.23126Q374.3125 344.48126 374.14062 345.1375L373.10938 344.9969Q373.25 344.34064 373.57812 343.9344Q373.90625 343.52814 374.51562 343.3094Q375.125 343.09064 375.92188 343.09064Q376.71875 343.09064 377.21875 343.27814Q377.71875 343.46564 377.95312 343.7469Q378.1875 344.02814 378.28125 344.46564Q378.32812 344.73126 378.32812 345.4344L378.32812 346.84064Q378.32812 348.3094 378.39062 348.7Q378.46875 349.09064 378.67188 349.45L377.5625 349.45Q377.40625 349.1219 377.35938 348.6844ZM377.26562 346.325Q376.6875 346.5594 375.54688 346.73126Q374.89062 346.825 374.625 346.95Q374.35938 347.0594 374.20312 347.27814Q374.0625 347.4969 374.0625 347.77814Q374.0625 348.2 374.375 348.48126Q374.70312 348.7625 375.3125 348.7625Q375.92188 348.7625 376.39062 348.4969Q376.875 348.23126 377.09375 347.7625Q377.26562 347.40314 377.26562 346.71564L377.26562 346.325ZM384.35938 347.16876L385.39062 347.3094Q385.21875 348.3719 384.51562 348.98126Q383.8125 349.59064 382.79688 349.59064Q381.51562 349.59064 380.73438 348.7625Q379.96875 347.91876 379.96875 346.35626Q379.96875 345.35626 380.29688 344.60626Q380.64062 343.84064 381.3125 343.46564Q382.0 343.09064 382.8125 343.09064Q383.8125 343.09064 384.45312 343.60626Q385.10938 344.10626 385.29688 345.0594L384.26562 345.21564Q384.125 344.59064 383.75 344.27814Q383.375 343.95 382.84375 343.95Q382.04688 343.95 381.54688 344.52814Q381.04688 345.09064 381.04688 346.325Q381.04688 347.59064 381.53125 348.15314Q382.01562 348.71564 382.78125 348.71564Q383.40625 348.71564 383.8125 348.34064Q384.23438 347.96564 384.35938 347.16876ZM389.29688 349.45L389.29688 343.23126L390.23438 343.23126L390.23438 344.10626Q390.53125 343.6375 391.01562 343.3719Q391.5 343.09064 392.125 343.09064Q392.8125 343.09064 393.25 343.3719Q393.70312 343.65314 393.875 344.16876Q394.625 343.09064 395.79688 343.09064Q396.73438 343.09064 397.21875 343.60626Q397.71875 344.10626 397.71875 345.1844L397.71875 349.45L396.67188 349.45L396.67188 345.52814Q396.67188 344.90314 396.5625 344.6219Q396.46875 344.34064 396.20312 344.16876Q395.9375 343.9969 395.5625 343.9969Q394.90625 343.9969 394.46875 344.4344Q394.04688 344.8719 394.04688 345.84064L394.04688 349.45L392.98438 349.45L392.98438 345.40314Q392.98438 344.7 392.71875 344.35626Q392.46875 343.9969 391.89062 343.9969Q391.4375 343.9969 391.0625 344.23126Q390.6875 344.46564 390.51562 344.91876Q390.34375 345.3719 390.34375 346.21564L390.34375 349.45L389.29688 349.45ZM400.29688 342.075L400.29688 340.85626L401.35938 340.85626L401.35938 342.075L400.29688 342.075ZM400.29688 349.45L400.29688 343.23126L401.35938 343.23126L401.35938 349.45L400.29688 349.45ZM403.29688 349.45L403.29688 343.23126L404.23438 343.23126L404.23438 344.10626Q404.92188 343.09064 406.21875 343.09064Q406.78125 343.09064 407.25 343.29376Q407.73438 343.4969 407.96875 343.825Q408.20312 344.15314 408.29688 344.59064Q408.34375 344.8875 408.34375 345.6219L408.34375 349.45L407.29688 349.45L407.29688 345.66876Q407.29688 345.0125 407.17188 344.7Q407.04688 344.3875 406.73438 344.2Q406.42188 343.9969 406.0 343.9969Q405.32812 343.9969 404.82812 344.4344Q404.34375 344.85626 404.34375 346.04376L404.34375 349.45L403.29688 349.45ZM410.29688 342.075L410.29688 340.85626L411.35938 340.85626L411.35938 342.075L410.29688 342.075ZM410.29688 349.45L410.29688 343.23126L411.35938 343.23126L411.35938 349.45L410.29688 349.45ZM416.39062 349.45L416.39062 340.85626L418.10938 340.85626L420.14062 346.9344Q420.42188 347.79376 420.54688 348.21564Q420.6875 347.7469 421.0 346.84064L423.0625 340.85626L424.59375 340.85626L424.59375 349.45L423.5 349.45L423.5 342.2625L421.0 349.45L419.96875 349.45L417.48438 342.1375L417.48438 349.45L416.39062 349.45ZM430.54688 348.4344L430.54688 349.45L424.85938 349.45Q424.85938 349.075 424.98438 348.71564Q425.20312 348.1375 425.67188 347.575Q426.15625 347.0125 427.0625 346.27814Q428.46875 345.1219 428.95312 344.45Q429.45312 343.77814 429.45312 343.1844Q429.45312 342.5594 429.0 342.1375Q428.54688 341.7 427.82812 341.7Q427.0625 341.7 426.60938 342.15314Q426.15625 342.60626 426.14062 343.41876L425.0625 343.3094Q425.17188 342.09064 425.89062 341.46564Q426.625 340.825 427.85938 340.825Q429.09375 340.825 429.8125 341.5125Q430.53125 342.2 430.53125 343.21564Q430.53125 343.73126 430.3125 344.23126Q430.10938 344.71564 429.60938 345.27814Q429.125 345.825 428.0 346.77814Q427.04688 347.575 426.76562 347.8719Q426.5 348.15314 426.32812 348.4344L430.54688 348.4344ZM432.98438 351.98126L432.23438 351.98126Q433.98438 349.16876 433.98438 346.34064Q433.98438 345.2469 433.73438 344.15314Q433.53125 343.27814 433.17188 342.46564Q432.9375 341.95 432.23438 340.71564L432.98438 340.71564Q434.07812 342.1844 434.60938 343.66876Q435.0625 344.95 435.0625 346.34064Q435.0625 347.91876 434.45312 349.40314Q433.84375 350.8719 432.98438 351.98126Z" fill-rule="nonzero"/><path fill="#000000" d="M27.550013 261.63647L27.675013 260.54272Q28.628138 260.79272 29.159388 261.49585Q29.690638 262.19897 29.690638 263.2771Q29.690638 264.63647 28.846888 265.44897Q28.003138 266.24585 26.487513 266.24585Q24.925013 266.24585 24.065638 265.43335Q23.190638 264.62085 23.190638 263.3396Q23.190638 262.0896 24.034388 261.30835Q24.878138 260.51147 26.425013 260.51147Q26.518763 260.51147 26.706263 260.51147L26.706263 265.1521Q27.737513 265.0896 28.284388 264.57397Q28.815638 264.05835 28.815638 263.2771Q28.815638 262.69897 28.518763 262.29272Q28.206263 261.87085 27.550013 261.63647ZM25.846888 265.0896L25.846888 261.62085Q25.050013 261.68335 24.659388 262.01147Q24.050013 262.5271 24.050013 263.32397Q24.050013 264.05835 24.534388 264.55835Q25.018763 265.04272 25.846888 265.0896ZM29.550013 258.91772L20.956263 258.91772L20.956263 257.85522L29.550013 257.85522L29.550013 258.91772ZM28.784388 251.82396Q29.284388 252.41771 29.487513 252.96458Q29.690638 253.49583 29.690638 254.12083Q29.690638 255.15208 29.190638 255.69896Q28.690638 256.24585 27.909388 256.24585Q27.456263 256.24585 27.081263 256.04272Q26.690638 255.83958 26.471888 255.49583Q26.237513 255.15208 26.128138 254.73021Q26.034388 254.43333 25.956263 253.79271Q25.815638 252.52708 25.596888 251.91771Q25.378138 251.91771 25.331263 251.91771Q24.675013 251.91771 24.409388 252.21458Q24.065638 252.62083 24.065638 253.41771Q24.065638 254.15208 24.331263 254.51146Q24.581263 254.87083 25.237513 255.04271L25.096888 256.07397Q24.440638 255.93333 24.034388 255.60521Q23.628138 255.27708 23.409388 254.66771Q23.190638 254.05833 23.190638 253.26146Q23.190638 252.46458 23.378138 251.96458Q23.565638 251.46458 23.846888 251.23021Q24.128138 250.99583 24.565638 250.90208Q24.831263 250.85521 25.534388 250.85521L26.940638 250.85521Q28.409388 250.85521 28.800013 250.79271Q29.190638 250.71458 29.550013 250.51146L29.550013 251.62083Q29.221888 251.77708 28.784388 251.82396ZM26.425013 251.91771Q26.659388 252.49583 26.831263 253.63646Q26.925013 254.29271 27.050013 254.55833Q27.159388 254.82396 27.378138 254.98021Q27.596888 255.12083 27.878138 255.12083Q28.300013 255.12083 28.581263 254.80833Q28.862513 254.48021 28.862513 253.87083Q28.862513 253.26146 28.596888 252.79271Q28.331263 252.30833 27.862513 252.08958Q27.503138 251.91771 26.815638 251.91771L26.425013 251.91771ZM31.940638 248.88646L23.331263 248.88646L23.331263 247.93333L24.128138 247.93333Q23.659388 247.58958 23.425013 247.16771Q23.190638 246.73021 23.190638 246.12083Q23.190638 245.32396 23.596888 244.71458Q24.003138 244.10521 24.753138 243.80833Q25.503138 243.49583 26.393763 243.49583Q27.346888 243.49583 28.112513 243.83958Q28.878138 244.16771 29.284388 244.82396Q29.690638 245.48021 29.690638 246.19896Q29.690638 246.73021 29.471888 247.15208Q29.237513 247.57396 28.909388 247.83958L31.940638 247.83958L31.940638 248.88646ZM26.471888 247.93333Q27.675013 247.93333 28.253138 247.44896Q28.815638 246.96458 28.815638 246.27708Q28.815638 245.57396 28.221888 245.07396Q27.628138 244.57396 26.378138 244.57396Q25.190638 244.57396 24.612513 245.05833Q24.018763 245.54271 24.018763 246.23021Q24.018763 246.90208 24.643763 247.41771Q25.268763 247.93333 26.471888 247.93333ZM27.690638 242.30833L27.534388 241.27708Q28.159388 241.18333 28.487513 240.79271Q28.815638 240.38646 28.815638 239.65208Q28.815638 238.93333 28.534388 238.58958Q28.237513 238.23021 27.831263 238.23021Q27.471888 238.23021 27.268763 238.54271Q27.128138 238.76146 26.909388 239.62083Q26.612513 240.77708 26.409388 241.23021Q26.190638 241.66771 25.815638 241.90208Q25.440638 242.13646 24.971888 242.13646Q24.565638 242.13646 24.206263 241.94896Q23.846888 241.76146 23.612513 241.43333Q23.440638 241.18333 23.315638 240.76146Q23.190638 240.33958 23.190638 239.83958Q23.190638 239.12083 23.409388 238.57396Q23.612513 238.01146 23.971888 237.74583Q24.331263 237.48021 24.925013 237.38646L25.065638 238.41771Q24.596888 238.48021 24.331263 238.82396Q24.050013 239.15208 24.050013 239.77708Q24.050013 240.49583 24.300013 240.80833Q24.534388 241.12083 24.862513 241.12083Q25.065638 241.12083 25.221888 240.99583Q25.393763 240.85521 25.503138 240.58958Q25.565638 240.43333 25.768763 239.65208Q26.081263 238.52708 26.268763 238.08958Q26.456263 237.65208 26.815638 237.40208Q27.175013 237.15208 27.721888 237.15208Q28.253138 237.15208 28.721888 237.46458Q29.175013 237.76146 29.440638 238.33958Q29.690638 238.91771 29.690638 239.65208Q29.690638 240.87083 29.190638 241.51146Q28.675013 242.13646 27.690638 242.30833ZM27.550013 230.63646L27.675013 229.54271Q28.628138 229.79271 29.159388 230.49583Q29.690638 231.19896 29.690638 232.27708Q29.690638 233.63646 28.846888 234.44896Q28.003138 235.24583 26.487513 235.24583Q24.925013 235.24583 24.065638 234.43333Q23.190638 233.62083 23.190638 232.33958Q23.190638 231.08958 24.034388 230.30833Q24.878138 229.51146 26.425013 229.51146Q26.518763 229.51146 26.706263 229.51146L26.706263 234.15208Q27.737513 234.08958 28.284388 233.57396Q28.815638 233.05833 28.815638 232.27708Q28.815638 231.69896 28.518763 231.29271Q28.206263 230.87083 27.550013 230.63646ZM25.846888 234.08958L25.846888 230.62083Q25.050013 230.68333 24.659388 231.01146Q24.050013 231.52708 24.050013 232.32396Q24.050013 233.05833 24.534388 233.55833Q25.018763 234.04271 25.846888 234.08958ZM29.550013 223.85521L28.768763 223.85521Q29.690638 224.44896 29.690638 225.58958Q29.690638 226.33958 29.284388 226.96458Q28.862513 227.58958 28.128138 227.93333Q27.393763 228.27708 26.440638 228.27708Q25.518763 228.27708 24.753138 227.96458Q23.987513 227.65208 23.596888 227.02708Q23.190638 226.40208 23.190638 225.63646Q23.190638 225.07396 23.425013 224.63646Q23.659388 224.19896 24.034388 223.91771L20.956263 223.91771L20.956263 222.87083L29.550013 222.87083L29.550013 223.85521ZM26.440638 227.18333Q27.643763 227.18333 28.237513 226.68333Q28.815638 226.18333 28.815638 225.49583Q28.815638 224.80833 28.253138 224.32396Q27.690638 223.83958 26.534388 223.83958Q25.253138 223.83958 24.659388 224.33958Q24.065638 224.82396 24.065638 225.54271Q24.065638 226.24583 24.643763 226.71458Q25.206263 227.18333 26.440638 227.18333ZM31.940638 221.87083L31.175013 221.87083L31.175013 214.87083L31.940638 214.87083L31.940638 221.87083ZM28.612513 211.58958L29.534388 211.43333Q29.628138 211.88646 29.628138 212.23021Q29.628138 212.80833 29.456263 213.12083Q29.268763 213.43333 28.971888 213.57396Q28.675013 213.69896 27.721888 213.69896L24.143763 213.69896L24.143763 214.46458L23.331263 214.46458L23.331263 213.69896L21.784388 213.69896L21.159388 212.65208L23.331263 212.65208L23.331263 211.58958L24.143763 211.58958L24.143763 212.65208L27.784388 212.65208Q28.237513 212.65208 28.362513 212.60521Q28.487513 212.54271 28.565638 212.41771Q28.643763 212.29271 28.643763 212.05833Q28.643763 211.87083 28.612513 211.58958ZM22.175013 210.88646L20.956263 210.88646L20.956263 209.82396L22.175013 209.82396L22.175013 210.88646ZM29.550013 210.88646L23.331263 210.88646L23.331263 209.82396L29.550013 209.82396L29.550013 210.88646ZM29.550013 207.88646L23.331263 207.88646L23.331263 206.94896L24.206263 206.94896Q23.737513 206.65208 23.471888 206.16771Q23.190638 205.68333 23.190638 205.05833Q23.190638 204.37083 23.471888 203.93333Q23.753138 203.48021 24.268763 203.30833Q23.190638 202.55833 23.190638 201.38646Q23.190638 200.44896 23.706263 199.96458Q24.206263 199.46458 25.284388 199.46458L29.550013 199.46458L29.550013 200.51146L25.628138 200.51146Q25.003138 200.51146 24.721888 200.62083Q24.440638 200.71458 24.268763 200.98021Q24.096888 201.24583 24.096888 201.62083Q24.096888 202.27708 24.534388 202.71458Q24.971888 203.13646 25.940638 203.13646L29.550013 203.13646L29.550013 204.19896L25.503138 204.19896Q24.800013 204.19896 24.456263 204.46458Q24.096888 204.71458 24.096888 205.29271Q24.096888 205.74583 24.331263 206.12083Q24.565638 206.49583 25.018763 206.66771Q25.471888 206.83958 26.315638 206.83958L29.550013 206.83958L29.550013 207.88646ZM27.550013 192.63646L27.675013 191.54271Q28.628138 191.79271 29.159388 192.49583Q29.690638 193.19896 29.690638 194.27708Q29.690638 195.63646 28.846888 196.44896Q28.003138 197.24583 26.487513 197.24583Q24.925013 197.24583 24.065638 196.43333Q23.190638 195.62083 23.190638 194.33958Q23.190638 193.08958 24.034388 192.30833Q24.878138 191.51146 26.425013 191.51146Q26.518763 191.51146 26.706263 191.51146L26.706263 196.15208Q27.737513 196.08958 28.284388 195.57396Q28.815638 195.05833 28.815638 194.27708Q28.815638 193.69896 28.518763 193.29271Q28.206263 192.87083 27.550013 192.63646ZM25.846888 196.08958L25.846888 192.62083Q25.050013 192.68333 24.659388 193.01146Q24.050013 193.52708 24.050013 194.32396Q24.050013 195.05833 24.534388 195.55833Q25.018763 196.04271 25.846888 196.08958ZM32.08126 184.87083Q30.971888 185.74583 29.503138 186.35521Q28.018763 186.94896 26.440638 186.94896Q25.050013 186.94896 23.768763 186.51146Q22.284388 185.98021 20.815638 184.87083L20.815638 184.12083Q22.034388 184.82396 22.550013 185.05833Q23.362513 185.41771 24.237513 185.62083Q25.331263 185.87083 26.440638 185.87083Q29.268763 185.87083 32.08126 184.12083L32.08126 184.87083ZM29.550013 182.91771L20.956263 182.91771L20.956263 181.85521L29.550013 181.85521L29.550013 182.91771ZM27.550013 175.63646L27.675013 174.54271Q28.628138 174.79271 29.159388 175.49583Q29.690638 176.19896 29.690638 177.27708Q29.690638 178.63646 28.846888 179.44896Q28.003138 180.24583 26.487513 180.24583Q24.925013 180.24583 24.065638 179.43333Q23.190638 178.62083 23.190638 177.33958Q23.190638 176.08958 24.034388 175.30833Q24.878138 174.51146 26.425013 174.51146Q26.518763 174.51146 26.706263 174.51146L26.706263 179.15208Q27.737513 179.08958 28.284388 178.57396Q28.815638 178.05833 28.815638 177.27708Q28.815638 176.69896 28.518763 176.29271Q28.206263 175.87083 27.550013 175.63646ZM25.846888 179.08958L25.846888 175.62083Q25.050013 175.68333 24.659388 176.01146Q24.050013 176.52708 24.050013 177.32396Q24.050013 178.05833 24.534388 178.55833Q25.018763 179.04271 25.846888 179.08958ZM27.690638 173.30833L27.534388 172.27708Q28.159388 172.18333 28.487513 171.79271Q28.815638 171.38646 28.815638 170.65208Q28.815638 169.93333 28.534388 169.58958Q28.237513 169.23021 27.831263 169.23021Q27.471888 169.23021 27.268763 169.54271Q27.128138 169.76146 26.909388 170.62083Q26.612513 171.77708 26.409388 172.23021Q26.190638 172.66771 25.815638 172.90208Q25.440638 173.13646 24.971888 173.13646Q24.565638 173.13646 24.206263 172.94896Q23.846888 172.76146 23.612513 172.43333Q23.440638 172.18333 23.315638 171.76146Q23.190638 171.33958 23.190638 170.83958Q23.190638 170.12083 23.409388 169.57396Q23.612513 169.01146 23.971888 168.74583Q24.331263 168.48021 24.925013 168.38646L25.065638 169.41771Q24.596888 169.48021 24.331263 169.82396Q24.050013 170.15208 24.050013 170.77708Q24.050013 171.49583 24.300013 171.80833Q24.534388 172.12083 24.862513 172.12083Q25.065638 172.12083 25.221888 171.99583Q25.393763 171.85521 25.503138 171.58958Q25.565638 171.43333 25.768763 170.65208Q26.081263 169.52708 26.268763 169.08958Q26.456263 168.65208 26.815638 168.40208Q27.175013 168.15208 27.721888 168.15208Q28.253138 168.15208 28.721888 168.46458Q29.175013 168.76146 29.440638 169.33958Q29.690638 169.91771 29.690638 170.65208Q29.690638 171.87083 29.190638 172.51146Q28.675013 173.13646 27.690638 173.30833ZM27.690638 166.30833L27.534388 165.27708Q28.159388 165.18333 28.487513 164.79271Q28.815638 164.38646 28.815638 163.65208Q28.815638 162.93333 28.534388 162.58958Q28.237513 162.23021 27.831263 162.23021Q27.471888 162.23021 27.268763 162.54271Q27.128138 162.76146 26.909388 163.62083Q26.612513 164.77708 26.409388 165.23021Q26.190638 165.66771 25.815638 165.90208Q25.440638 166.13646 24.971888 166.13646Q24.565638 166.13646 24.206263 165.94896Q23.846888 165.76146 23.612513 165.43333Q23.440638 165.18333 23.315638 164.76146Q23.190638 164.33958 23.190638 163.83958Q23.190638 163.12083 23.409388 162.57396Q23.612513 162.01146 23.971888 161.74583Q24.331263 161.48021 24.925013 161.38646L25.065638 162.41771Q24.596888 162.48021 24.331263 162.82396Q24.050013 163.15208 24.050013 163.77708Q24.050013 164.49583 24.300013 164.80833Q24.534388 165.12083 24.862513 165.12083Q25.065638 165.12083 25.221888 164.99583Q25.393763 164.85521 25.503138 164.58958Q25.565638 164.43333 25.768763 163.65208Q26.081263 162.52708 26.268763 162.08958Q26.456263 161.65208 26.815638 161.40208Q27.175013 161.15208 27.721888 161.15208Q28.253138 161.15208 28.721888 161.46458Q29.175013 161.76146 29.440638 162.33958Q29.690638 162.91771 29.690638 163.65208Q29.690638 164.87083 29.190638 165.51146Q28.675013 166.13646 27.690638 166.30833ZM22.175013 155.88646L20.956263 155.88646L20.956263 154.82396L22.175013 154.82396L22.175013 155.88646ZM29.550013 155.88646L23.331263 155.88646L23.331263 154.82396L29.550013 154.82396L29.550013 155.88646ZM27.690638 153.30833L27.534388 152.27708Q28.159388 152.18333 28.487513 151.79271Q28.815638 151.38646 28.815638 150.65208Q28.815638 149.93333 28.534388 149.58958Q28.237513 149.23021 27.831263 149.23021Q27.471888 149.23021 27.268763 149.54271Q27.128138 149.76146 26.909388 150.62083Q26.612513 151.77708 26.409388 152.23021Q26.190638 152.66771 25.815638 152.90208Q25.440638 153.13646 24.971888 153.13646Q24.565638 153.13646 24.206263 152.94896Q23.846888 152.76146 23.612513 152.43333Q23.440638 152.18333 23.315638 151.76146Q23.190638 151.33958 23.190638 150.83958Q23.190638 150.12083 23.409388 149.57396Q23.612513 149.01146 23.971888 148.74583Q24.331263 148.48021 24.925013 148.38646L25.065638 149.41771Q24.596888 149.48021 24.331263 149.82396Q24.050013 150.15208 24.050013 150.77708Q24.050013 151.49583 24.300013 151.80833Q24.534388 152.12083 24.862513 152.12083Q25.065638 152.12083 25.221888 151.99583Q25.393763 151.85521 25.503138 151.58958Q25.565638 151.43333 25.768763 150.65208Q26.081263 149.52708 26.268763 149.08958Q26.456263 148.65208 26.815638 148.40208Q27.175013 148.15208 27.721888 148.15208Q28.253138 148.15208 28.721888 148.46458Q29.175013 148.76146 29.440638 149.33958Q29.690638 149.91771 29.690638 150.65208Q29.690638 151.87083 29.190638 152.51146Q28.675013 153.13646 27.690638 153.30833ZM29.550013 141.91771L29.550013 142.90208L20.956263 142.90208L20.956263 141.83958L24.018763 141.83958Q23.190638 141.16771 23.190638 140.13646Q23.190638 139.55833 23.425013 139.05833Q23.643763 138.54271 24.065638 138.21458Q24.487513 137.87083 25.081263 137.68333Q25.675013 137.49583 26.346888 137.49583Q27.940638 137.49583 28.815638 138.29271Q29.690638 139.08958 29.690638 140.18333Q29.690638 141.29271 28.768763 141.91771L29.550013 141.91771ZM26.393763 141.93333Q27.503138 141.93333 28.003138 141.62083Q28.815638 141.12083 28.815638 140.27708Q28.815638 139.58958 28.221888 139.08958Q27.628138 138.57396 26.425013 138.57396Q25.206263 138.57396 24.628138 139.05833Q24.050013 139.54271 24.050013 140.23021Q24.050013 140.91771 24.659388 141.43333Q25.253138 141.93333 26.393763 141.93333ZM27.550013 131.63646L27.675013 130.54271Q28.628138 130.79271 29.159388 131.49583Q29.690638 132.19896 29.690638 133.27708Q29.690638 134.63646 28.846888 135.44896Q28.003138 136.24583 26.487513 136.24583Q24.925013 136.24583 24.065638 135.43333Q23.190638 134.62083 23.190638 133.33958Q23.190638 132.08958 24.034388 131.30833Q24.878138 130.51146 26.425013 130.51146Q26.518763 130.51146 26.706263 130.51146L26.706263 135.15208Q27.737513 135.08958 28.284388 134.57396Q28.815638 134.05833 28.815638 133.27708Q28.815638 132.69896 28.518763 132.29271Q28.206263 131.87083 27.550013 131.63646ZM25.846888 135.08958L25.846888 131.62083Q25.050013 131.68333 24.659388 132.01146Q24.050013 132.52708 24.050013 133.32396Q24.050013 134.05833 24.534388 134.55833Q25.018763 135.04271 25.846888 135.08958ZM28.612513 126.589584L29.534388 126.433334Q29.628138 126.88646 29.628138 127.23021Q29.628138 127.808334 29.456263 128.12083Q29.268763 128.43333 28.971888 128.57396Q28.675013 128.69896 27.721888 128.69896L24.143763 128.69896L24.143763 129.46458L23.331263 129.46458L23.331263 128.69896L21.784388 128.69896L21.159388 127.652084L23.331263 127.652084L23.331263 126.589584L24.143763 126.589584L24.143763 127.652084L27.784388 127.652084Q28.237513 127.652084 28.362513 127.60521Q28.487513 127.54271 28.565638 127.41771Q28.643763 127.29271 28.643763 127.058334Q28.643763 126.870834 28.612513 126.589584ZM28.612513 123.589584L29.534388 123.433334Q29.628138 123.88646 29.628138 124.23021Q29.628138 124.808334 29.456263 125.120834Q29.268763 125.433334 28.971888 125.57396Q28.675013 125.69896 27.721888 125.69896L24.143763 125.69896L24.143763 126.464584L23.331263 126.464584L23.331263 125.69896L21.784388 125.69896L21.159388 124.652084L23.331263 124.652084L23.331263 123.589584L24.143763 123.589584L24.143763 124.652084L27.784388 124.652084Q28.237513 124.652084 28.362513 124.60521Q28.487513 124.54271 28.565638 124.41771Q28.643763 124.29271 28.643763 124.058334Q28.643763 123.870834 28.612513 123.589584ZM27.550013 118.63646L27.675013 117.54271Q28.628138 117.79271 29.159388 118.495834Q29.690638 119.19896 29.690638 120.277084Q29.690638 121.63646 28.846888 122.44896Q28.003138 123.245834 26.487513 123.245834Q24.925013 123.245834 24.065638 122.433334Q23.190638 121.620834 23.190638 120.339584Q23.190638 119.089584 24.034388 118.308334Q24.878138 117.51146 26.425013 117.51146Q26.518763 117.51146 26.706263 117.51146L26.706263 122.152084Q27.737513 122.089584 28.284388 121.57396Q28.815638 121.058334 28.815638 120.277084Q28.815638 119.69896 28.518763 119.29271Q28.206263 118.870834 27.550013 118.63646ZM25.846888 122.089584L25.846888 118.620834Q25.050013 118.683334 24.659388 119.01146Q24.050013 119.527084 24.050013 120.32396Q24.050013 121.058334 24.534388 121.558334Q25.018763 122.04271 25.846888 122.089584ZM29.550013 115.902084L23.331263 115.902084L23.331263 114.94896L24.268763 114.94896Q23.612513 114.589584 23.409388 114.29271Q23.190638 113.98021 23.190638 113.60521Q23.190638 113.07396 23.518763 112.527084L24.503138 112.88646Q24.268763 113.277084 24.268763 113.652084Q24.268763 114.01146 24.487513 114.29271Q24.690638 114.558334 25.065638 114.66771Q25.628138 114.85521 26.284388 114.85521L29.550013 114.85521L29.550013 115.902084ZM32.08126 111.19896L32.08126 111.94896Q29.268763 110.19896 26.440638 110.19896Q25.346888 110.19896 24.253138 110.44896Q23.378138 110.652084 22.565638 111.01146Q22.050013 111.245834 20.815638 111.94896L20.815638 111.19896Q22.284388 110.10521 23.768763 109.57396Q25.050013 109.120834 26.440638 109.120834Q28.018763 109.120834 29.503138 109.73021Q30.971888 110.339584 32.08126 111.19896Z" fill-rule="nonzero"/><path fill="#000000" d="M65.05 300.21564Q65.05 298.6844 65.3625 297.7625Q65.675 296.825 66.28438 296.325Q66.90938 295.825 67.84688 295.825Q68.53438 295.825 69.05 296.10626Q69.58125 296.3875 69.925 296.91876Q70.26875 297.4344 70.45625 298.1844Q70.64375 298.9344 70.64375 300.21564Q70.64375 301.73126 70.33125 302.65314Q70.03438 303.575 69.40938 304.09064Q68.8 304.59064 67.84688 304.59064Q66.6125 304.59064 65.89375 303.7Q65.05 302.6375 65.05 300.21564ZM66.12813 300.21564Q66.12813 302.325 66.62813 303.02814Q67.12813 303.73126 67.84688 303.73126Q68.58125 303.73126 69.06563 303.02814Q69.56563 302.325 69.56563 300.21564Q69.56563 298.09064 69.06563 297.40314Q68.58125 296.7 67.83125 296.7Q67.1125 296.7 66.675 297.3094Q66.12813 298.09064 66.12813 300.21564Z" fill-rule="nonzero"/><path fill="#000000" d="M56.596874 223.92326L56.596874 224.93889L50.909374 224.93889Q50.909374 224.56389 51.034374 224.20451Q51.253124 223.62639 51.721874 223.06389Q52.20625 222.50139 53.1125 221.76701Q54.51875 220.61076 55.003124 219.93889Q55.503124 219.26701 55.503124 218.67326Q55.503124 218.04826 55.05 217.62639Q54.596874 217.18889 53.878124 217.18889Q53.1125 217.18889 52.659374 217.64201Q52.20625 218.09514 52.190624 218.90764L51.1125 218.79826Q51.221874 217.57951 51.940624 216.95451Q52.675 216.31389 53.909374 216.31389Q55.14375 216.31389 55.8625 217.00139Q56.58125 217.68889 56.58125 218.70451Q56.58125 219.22014 56.3625 219.72014Q56.159374 220.20451 55.659374 220.76701Q55.175 221.31389 54.05 222.26701Q53.096874 223.06389 52.815624 223.36076Q52.55 223.64201 52.378124 223.92326L56.596874 223.92326ZM58.05 220.70451Q58.05 219.17326 58.3625 218.25139Q58.675 217.31389 59.284374 216.81389Q59.909374 216.31389 60.846874 216.31389Q61.534374 216.31389 62.05 216.59514Q62.58125 216.87639 62.925 217.40764Q63.26875 217.92326 63.45625 218.67326Q63.64375 219.42326 63.64375 220.70451Q63.64375 222.22014 63.33125 223.14201Q63.034374 224.06389 62.409374 224.57951Q61.8 225.07951 60.846874 225.07951Q59.6125 225.07951 58.89375 224.18889Q58.05 223.12639 58.05 220.70451ZM59.128124 220.70451Q59.128124 222.81389 59.628124 223.51701Q60.128124 224.22014 60.846874 224.22014Q61.58125 224.22014 62.065624 223.51701Q62.565624 222.81389 62.565624 220.70451Q62.565624 218.57951 62.065624 217.89201Q61.58125 217.18889 60.83125 217.18889Q60.1125 217.18889 59.675 217.79826Q59.128124 218.57951 59.128124 220.70451ZM65.05 220.70451Q65.05 219.17326 65.3625 218.25139Q65.675 217.31389 66.28438 216.81389Q66.90938 216.31389 67.84688 216.31389Q68.53438 216.31389 69.05 216.59514Q69.58125 216.87639 69.925 217.40764Q70.26875 217.92326 70.45625 218.67326Q70.64375 219.42326 70.64375 220.70451Q70.64375 222.22014 70.33125 223.14201Q70.03438 224.06389 69.40938 224.57951Q68.8 225.07951 67.84688 225.07951Q66.6125 225.07951 65.89375 224.18889Q65.05 223.12639 65.05 220.70451ZM66.12813 220.70451Q66.12813 222.81389 66.62813 223.51701Q67.12813 224.22014 67.84688 224.22014Q68.58125 224.22014 69.06563 223.51701Q69.56563 222.81389 69.56563 220.70451Q69.56563 218.57951 69.06563 217.89201Q68.58125 217.18889 67.83125 217.18889Q67.1125 217.18889 66.675 217.79826Q66.12813 218.57951 66.12813 220.70451Z" fill-rule="nonzero"/><path fill="#000000" d="M54.425 145.42778L54.425 143.36528L50.70625 143.36528L50.70625 142.39653L54.628124 136.83403L55.4875 136.83403L55.4875 142.39653L56.64375 142.39653L56.64375 143.36528L55.4875 143.36528L55.4875 145.42778L54.425 145.42778ZM54.425 142.39653L54.425 138.53716L51.7375 142.39653L54.425 142.39653ZM58.05 141.1934Q58.05 139.66216 58.3625 138.74028Q58.675 137.80278 59.284374 137.30278Q59.909374 136.80278 60.846874 136.80278Q61.534374 136.80278 62.05 137.08403Q62.58125 137.36528 62.925 137.89653Q63.26875 138.41216 63.45625 139.16216Q63.64375 139.91216 63.64375 141.1934Q63.64375 142.70903 63.33125 143.6309Q63.034374 144.55278 62.409374 145.0684Q61.8 145.5684 60.846874 145.5684Q59.6125 145.5684 58.89375 144.67778Q58.05 143.61528 58.05 141.1934ZM59.128124 141.1934Q59.128124 143.30278 59.628124 144.0059Q60.128124 144.70903 60.846874 144.70903Q61.58125 144.70903 62.065624 144.0059Q62.565624 143.30278 62.565624 141.1934Q62.565624 139.0684 62.065624 138.3809Q61.58125 137.67778 60.83125 137.67778Q60.1125 137.67778 59.675 138.28716Q59.128124 139.0684 59.128124 141.1934ZM65.05 141.1934Q65.05 139.66216 65.3625 138.74028Q65.675 137.80278 66.28438 137.30278Q66.90938 136.80278 67.84688 136.80278Q68.53438 136.80278 69.05 137.08403Q69.58125 137.36528 69.925 137.89653Q70.26875 138.41216 70.45625 139.16216Q70.64375 139.91216 70.64375 141.1934Q70.64375 142.70903 70.33125 143.6309Q70.03438 144.55278 69.40938 145.0684Q68.8 145.5684 67.84688 145.5684Q66.6125 145.5684 65.89375 144.67778Q65.05 143.61528 65.05 141.1934ZM66.12813 141.1934Q66.12813 143.30278 66.62813 144.0059Q67.12813 144.70903 67.84688 144.70903Q68.58125 144.70903 69.06563 144.0059Q69.56563 143.30278 69.56563 141.1934Q69.56563 139.0684 69.06563 138.3809Q68.58125 137.67778 67.83125 137.67778Q67.1125 137.67778 66.675 138.28716Q66.12813 139.0684 66.12813 141.1934Z" fill-rule="nonzero"/><path fill="#000000" d="M56.51875 59.43229L55.471874 59.510414Q55.33125 58.885414 55.08125 58.604164Q54.64375 58.15104 54.01875 58.15104Q53.51875 58.15104 53.128124 58.43229Q52.64375 58.80729 52.346874 59.510414Q52.065624 60.197914 52.05 61.479164Q52.425 60.90104 52.971874 60.61979Q53.534374 60.33854 54.14375 60.33854Q55.190624 60.33854 55.925 61.11979Q56.675 61.90104 56.675 63.11979Q56.675 63.93229 56.315624 64.635414Q55.971874 65.322914 55.3625 65.697914Q54.753124 66.05729 53.9875 66.05729Q52.659374 66.05729 51.83125 65.08854Q51.003124 64.11979 51.003124 61.90104Q51.003124 59.40104 51.925 58.27604Q52.721874 57.291664 54.08125 57.291664Q55.096874 57.291664 55.7375 57.86979Q56.39375 58.43229 56.51875 59.43229ZM52.221874 63.135414Q52.221874 63.68229 52.440624 64.18229Q52.675 64.666664 53.08125 64.93229Q53.503124 65.197914 53.971874 65.197914Q54.628124 65.197914 55.1125 64.666664Q55.596874 64.11979 55.596874 63.197914Q55.596874 62.30729 55.1125 61.791664Q54.64375 61.27604 53.925 61.27604Q53.20625 61.27604 52.70625 61.791664Q52.221874 62.30729 52.221874 63.135414ZM58.05 61.68229Q58.05 60.15104 58.3625 59.229164Q58.675 58.291664 59.284374 57.791664Q59.909374 57.291664 60.846874 57.291664Q61.534374 57.291664 62.05 57.572914Q62.58125 57.854164 62.925 58.385414Q63.26875 58.90104 63.45625 59.65104Q63.64375 60.40104 63.64375 61.68229Q63.64375 63.197914 63.33125 64.11979Q63.034374 65.041664 62.409374 65.55729Q61.8 66.05729 60.846874 66.05729Q59.6125 66.05729 58.89375 65.166664Q58.05 64.104164 58.05 61.68229ZM59.128124 61.68229Q59.128124 63.791664 59.628124 64.49479Q60.128124 65.197914 60.846874 65.197914Q61.58125 65.197914 62.065624 64.49479Q62.565624 63.791664 62.565624 61.68229Q62.565624 59.55729 62.065624 58.86979Q61.58125 58.166664 60.83125 58.166664Q60.1125 58.166664 59.675 58.77604Q59.128124 59.55729 59.128124 61.68229ZM65.05 61.68229Q65.05 60.15104 65.3625 59.229164Q65.675 58.291664 66.28438 57.791664Q66.90938 57.291664 67.84688 57.291664Q68.53438 57.291664 69.05 57.572914Q69.58125 57.854164 69.925 58.385414Q70.26875 58.90104 70.45625 59.65104Q70.64375 60.40104 70.64375 61.68229Q70.64375 63.197914 70.33125 64.11979Q70.03438 65.041664 69.40938 65.55729Q68.8 66.05729 67.84688 66.05729Q66.6125 66.05729 65.89375 65.166664Q65.05 64.104164 65.05 61.68229ZM66.12813 61.68229Q66.12813 63.791664 66.62813 64.49479Q67.12813 65.197914 67.84688 65.197914Q68.58125 65.197914 69.06563 64.49479Q69.56563 63.791664 69.56563 61.68229Q69.56563 59.55729 69.06563 58.86979Q68.58125 58.166664 67.83125 58.166664Q67.1125 58.166664 66.675 58.77604Q66.12813 59.55729 66.12813 61.68229Z" fill-rule="nonzero"/><path fill="#000000" d="M112.66325 317.45L112.66325 308.85626L115.632 308.85626Q116.632 308.85626 117.16325 308.98126Q117.89763 309.15314 118.41325 309.59064Q119.10075 310.16876 119.42888 311.075Q119.77263 311.96564 119.77263 313.10626Q119.77263 314.09064 119.53825 314.84064Q119.3195 315.59064 118.96013 316.09064Q118.60075 316.59064 118.16325 316.8719Q117.74138 317.15314 117.14763 317.3094Q116.55388 317.45 115.77263 317.45L112.66325 317.45ZM113.80388 316.4344L115.632 316.4344Q116.49138 316.4344 116.97575 316.27814Q117.46013 316.1219 117.74138 315.825Q118.14763 315.4344 118.36638 314.7469Q118.60075 314.0594 118.60075 313.09064Q118.60075 311.7469 118.14763 311.02814Q117.71013 310.29376 117.08513 310.04376Q116.61638 309.8719 115.61638 309.8719L113.80388 309.8719L113.80388 316.4344ZM121.14763 314.34064Q121.14763 312.60626 122.10075 311.77814Q122.89763 311.09064 124.05388 311.09064Q125.33513 311.09064 126.14763 311.9344Q126.97575 312.7625 126.97575 314.2469Q126.97575 315.45 126.61638 316.1375Q126.257 316.825 125.55388 317.21564Q124.86638 317.59064 124.05388 317.59064Q122.757 317.59064 121.9445 316.7625Q121.14763 315.91876 121.14763 314.34064ZM122.22575 314.34064Q122.22575 315.52814 122.74138 316.1219Q123.27263 316.71564 124.05388 316.71564Q124.85075 316.71564 125.36638 316.1219Q125.882 315.52814 125.882 314.3094Q125.882 313.15314 125.35075 312.5594Q124.83513 311.96564 124.05388 311.96564Q123.27263 311.96564 122.74138 312.5594Q122.22575 313.1375 122.22575 314.34064ZM132.60075 315.16876L133.632 315.3094Q133.46013 316.3719 132.757 316.98126Q132.05388 317.59064 131.03825 317.59064Q129.757 317.59064 128.97575 316.7625Q128.21013 315.91876 128.21013 314.35626Q128.21013 313.35626 128.53825 312.60626Q128.882 311.84064 129.55388 311.46564Q130.24138 311.09064 131.05388 311.09064Q132.05388 311.09064 132.6945 311.60626Q133.35075 312.10626 133.53825 313.0594L132.507 313.21564Q132.36638 312.59064 131.99138 312.27814Q131.61638 311.95 131.08513 311.95Q130.28825 311.95 129.78825 312.52814Q129.28825 313.09064 129.28825 314.325Q129.28825 315.59064 129.77263 316.15314Q130.257 316.71564 131.02263 316.71564Q131.64763 316.71564 132.05388 316.34064Q132.47575 315.96564 132.60075 315.16876ZM134.53825 317.45L134.53825 308.85626L135.60075 308.85626L135.60075 313.7625L138.08513 311.23126L139.46013 311.23126L137.0695 313.52814L139.6945 317.45L138.39763 317.45L136.33513 314.2625L135.60075 314.98126L135.60075 317.45L134.53825 317.45ZM144.78825 315.45L145.882 315.575Q145.632 316.52814 144.92888 317.0594Q144.22575 317.59064 143.14763 317.59064Q141.78825 317.59064 140.97575 316.7469Q140.17888 315.90314 140.17888 314.3875Q140.17888 312.825 140.99138 311.96564Q141.80388 311.09064 143.08513 311.09064Q144.33513 311.09064 145.11638 311.9344Q145.91325 312.77814 145.91325 314.325Q145.91325 314.41876 145.91325 314.60626L141.27263 314.60626Q141.33513 315.6375 141.85075 316.1844Q142.36638 316.71564 143.14763 316.71564Q143.72575 316.71564 144.132 316.41876Q144.55388 316.10626 144.78825 315.45ZM141.33513 313.7469L144.80388 313.7469Q144.74138 312.95 144.41325 312.5594Q143.89763 311.95 143.10075 311.95Q142.36638 311.95 141.86638 312.4344Q141.382 312.91876 141.33513 313.7469ZM147.52263 317.45L147.52263 311.23126L148.47575 311.23126L148.47575 312.16876Q148.83513 311.5125 149.132 311.3094Q149.4445 311.09064 149.8195 311.09064Q150.35075 311.09064 150.89763 311.41876L150.53825 312.40314Q150.14763 312.16876 149.77263 312.16876Q149.41325 312.16876 149.132 312.3875Q148.86638 312.59064 148.757 312.96564Q148.5695 313.52814 148.5695 314.1844L148.5695 317.45L147.52263 317.45ZM154.66325 317.45L154.66325 308.85626L157.632 308.85626Q158.632 308.85626 159.16325 308.98126Q159.89763 309.15314 160.41325 309.59064Q161.10075 310.16876 161.42888 311.075Q161.77263 311.96564 161.77263 313.10626Q161.77263 314.09064 161.53825 314.84064Q161.3195 315.59064 160.96013 316.09064Q160.60075 316.59064 160.16325 316.8719Q159.74138 317.15314 159.14763 317.3094Q158.55388 317.45 157.77263 317.45L154.66325 317.45ZM155.80388 316.4344L157.632 316.4344Q158.49138 316.4344 158.97575 316.27814Q159.46013 316.1219 159.74138 315.825Q160.14763 315.4344 160.36638 314.7469Q160.60075 314.0594 160.60075 313.09064Q160.60075 311.7469 160.14763 311.02814Q159.71013 310.29376 159.08513 310.04376Q158.61638 309.8719 157.61638 309.8719L155.80388 309.8719L155.80388 316.4344ZM167.78825 315.45L168.882 315.575Q168.632 316.52814 167.92888 317.0594Q167.22575 317.59064 166.14763 317.59064Q164.78825 317.59064 163.97575 316.7469Q163.17888 315.90314 163.17888 314.3875Q163.17888 312.825 163.99138 311.96564Q164.80388 311.09064 166.08513 311.09064Q167.33513 311.09064 168.11638 311.9344Q168.91325 312.77814 168.91325 314.325Q168.91325 314.41876 168.91325 314.60626L164.27263 314.60626Q164.33513 315.6375 164.85075 316.1844Q165.36638 316.71564 166.14763 316.71564Q166.72575 316.71564 167.132 316.41876Q167.55388 316.10626 167.78825 315.45ZM164.33513 313.7469L167.80388 313.7469Q167.74138 312.95 167.41325 312.5594Q166.89763 311.95 166.10075 311.95Q165.36638 311.95 164.86638 312.4344Q164.382 312.91876 164.33513 313.7469ZM170.11638 315.59064L171.14763 315.4344Q171.24138 316.0594 171.632 316.3875Q172.03825 316.71564 172.77263 316.71564Q173.49138 316.71564 173.83513 316.4344Q174.1945 316.1375 174.1945 315.73126Q174.1945 315.3719 173.882 315.16876Q173.66325 315.02814 172.80388 314.8094Q171.64763 314.5125 171.1945 314.3094Q170.757 314.09064 170.52263 313.71564Q170.28825 313.34064 170.28825 312.8719Q170.28825 312.46564 170.47575 312.10626Q170.66325 311.7469 170.99138 311.5125Q171.24138 311.34064 171.66325 311.21564Q172.08513 311.09064 172.58513 311.09064Q173.30388 311.09064 173.85075 311.3094Q174.41325 311.5125 174.67888 311.8719Q174.9445 312.23126 175.03825 312.825L174.007 312.96564Q173.9445 312.4969 173.60075 312.23126Q173.27263 311.95 172.64763 311.95Q171.92888 311.95 171.61638 312.2Q171.30388 312.4344 171.30388 312.7625Q171.30388 312.96564 171.42888 313.1219Q171.5695 313.29376 171.83513 313.40314Q171.99138 313.46564 172.77263 313.66876Q173.89763 313.98126 174.33513 314.16876Q174.77263 314.35626 175.02263 314.71564Q175.27263 315.075 175.27263 315.6219Q175.27263 316.15314 174.96013 316.6219Q174.66325 317.075 174.08513 317.34064Q173.507 317.59064 172.77263 317.59064Q171.55388 317.59064 170.91325 317.09064Q170.28825 316.575 170.11638 315.59064ZM177.53825 317.45L177.53825 308.85626L178.60075 308.85626L178.60075 313.7625L181.08513 311.23126L182.46013 311.23126L180.0695 313.52814L182.6945 317.45L181.39763 317.45L179.33513 314.2625L178.60075 314.98126L178.60075 317.45L177.53825 317.45ZM185.83513 316.5125L185.99138 317.4344Q185.53825 317.52814 185.1945 317.52814Q184.61638 317.52814 184.30388 317.35626Q183.99138 317.16876 183.85075 316.8719Q183.72575 316.575 183.72575 315.6219L183.72575 312.04376L182.96013 312.04376L182.96013 311.23126L183.72575 311.23126L183.72575 309.6844L184.77263 309.0594L184.77263 311.23126L185.83513 311.23126L185.83513 312.04376L184.77263 312.04376L184.77263 315.6844Q184.77263 316.1375 184.8195 316.2625Q184.882 316.3875 185.007 316.46564Q185.132 316.54376 185.36638 316.54376Q185.55388 316.54376 185.83513 316.5125ZM186.14763 314.34064Q186.14763 312.60626 187.10075 311.77814Q187.89763 311.09064 189.05388 311.09064Q190.33513 311.09064 191.14763 311.9344Q191.97575 312.7625 191.97575 314.2469Q191.97575 315.45 191.61638 316.1375Q191.257 316.825 190.55388 317.21564Q189.86638 317.59064 189.05388 317.59064Q187.757 317.59064 186.9445 316.7625Q186.14763 315.91876 186.14763 314.34064ZM187.22575 314.34064Q187.22575 315.52814 187.74138 316.1219Q188.27263 316.71564 189.05388 316.71564Q189.85075 316.71564 190.36638 316.1219Q190.882 315.52814 190.882 314.3094Q190.882 313.15314 190.35075 312.5594Q189.83513 311.96564 189.05388 311.96564Q188.27263 311.96564 187.74138 312.5594Q187.22575 313.1375 187.22575 314.34064ZM193.53825 319.84064L193.53825 311.23126L194.49138 311.23126L194.49138 312.02814Q194.83513 311.5594 195.257 311.325Q195.6945 311.09064 196.30388 311.09064Q197.10075 311.09064 197.71013 311.4969Q198.3195 311.90314 198.61638 312.65314Q198.92888 313.40314 198.92888 314.29376Q198.92888 315.2469 198.58513 316.0125Q198.257 316.77814 197.60075 317.1844Q196.9445 317.59064 196.22575 317.59064Q195.6945 317.59064 195.27263 317.3719Q194.85075 317.1375 194.58513 316.8094L194.58513 319.84064L193.53825 319.84064ZM194.49138 314.3719Q194.49138 315.575 194.97575 316.15314Q195.46013 316.71564 196.14763 316.71564Q196.85075 316.71564 197.35075 316.1219Q197.85075 315.52814 197.85075 314.27814Q197.85075 313.09064 197.36638 312.5125Q196.882 311.91876 196.1945 311.91876Q195.52263 311.91876 195.007 312.54376Q194.49138 313.16876 194.49138 314.3719Z" fill-rule="nonzero"/><path fill="#000000" d="M247.15858 313.2625Q247.15858 311.1219 248.29921 309.91876Q249.45546 308.7 251.26796 308.7Q252.47108 308.7 253.42421 309.27814Q254.37733 309.84064 254.87733 310.85626Q255.37733 311.8719 255.37733 313.16876Q255.37733 314.46564 254.84608 315.4969Q254.31483 316.52814 253.34608 317.0594Q252.39296 317.59064 251.26796 317.59064Q250.04921 317.59064 249.09608 317.0125Q248.14296 316.41876 247.64296 315.41876Q247.15858 314.40314 247.15858 313.2625ZM248.33046 313.27814Q248.33046 314.84064 249.15858 315.73126Q250.00233 316.6219 251.26796 316.6219Q252.54921 316.6219 253.37733 315.73126Q254.20546 314.825 254.20546 313.15314Q254.20546 312.10626 253.84608 311.325Q253.50233 310.54376 252.81483 310.1219Q252.12733 309.6844 251.28358 309.6844Q250.08046 309.6844 249.20546 310.5125Q248.33046 311.34064 248.33046 313.27814ZM256.3617 317.45L256.3617 311.23126L257.31482 311.23126L257.31482 312.16876Q257.6742 311.5125 257.97107 311.3094Q258.28357 311.09064 258.65857 311.09064Q259.18982 311.09064 259.7367 311.41876L259.37732 312.40314Q258.9867 312.16876 258.6117 312.16876Q258.25232 312.16876 257.97107 312.3875Q257.70544 312.59064 257.59607 312.96564Q257.40857 313.52814 257.40857 314.1844L257.40857 317.45L256.3617 317.45ZM261.34607 317.45L260.3617 317.45L260.3617 308.85626L261.4242 308.85626L261.4242 311.91876Q262.09607 311.09064 263.12732 311.09064Q263.70544 311.09064 264.20544 311.325Q264.72107 311.54376 265.0492 311.96564Q265.39294 312.3875 265.58044 312.98126Q265.76794 313.575 265.76794 314.2469Q265.76794 315.84064 264.97107 316.71564Q264.1742 317.59064 263.08044 317.59064Q261.97107 317.59064 261.34607 316.66876L261.34607 317.45ZM261.33044 314.29376Q261.33044 315.40314 261.64294 315.90314Q262.14294 316.71564 262.9867 316.71564Q263.6742 316.71564 264.1742 316.1219Q264.68982 315.52814 264.68982 314.325Q264.68982 313.10626 264.20544 312.52814Q263.72107 311.95 263.03357 311.95Q262.34607 311.95 261.83044 312.5594Q261.33044 313.15314 261.33044 314.29376ZM267.12732 314.6844L268.18982 314.59064Q268.26794 315.2469 268.5492 315.65314Q268.83044 316.0594 269.40857 316.325Q270.00232 316.575 270.7367 316.575Q271.37732 316.575 271.87732 316.3875Q272.37732 316.1844 272.6117 315.85626Q272.8617 315.5125 272.8617 315.1219Q272.8617 314.71564 272.62732 314.41876Q272.39294 314.10626 271.8617 313.90314Q271.50232 313.7625 270.31482 313.48126Q269.14294 313.2 268.6742 312.95Q268.0492 312.6219 267.75232 312.15314Q267.45544 311.66876 267.45544 311.075Q267.45544 310.4344 267.81482 309.8719Q268.18982 309.29376 268.89294 309.0125Q269.6117 308.71564 270.47107 308.71564Q271.4242 308.71564 272.15857 309.02814Q272.89294 309.325 273.28357 309.9344Q273.6742 310.52814 273.70544 311.27814L272.6117 311.35626Q272.51794 310.54376 272.00232 310.1375Q271.50232 309.71564 270.51794 309.71564Q269.4867 309.71564 269.01794 310.09064Q268.5492 310.46564 268.5492 310.9969Q268.5492 311.46564 268.87732 311.7625Q269.20544 312.0594 270.58044 312.3719Q271.97107 312.6844 272.4867 312.91876Q273.2367 313.27814 273.59607 313.8094Q273.95544 314.325 273.95544 315.02814Q273.95544 315.71564 273.56482 316.325Q273.1742 316.91876 272.43982 317.2625Q271.70544 317.59064 270.78357 317.59064Q269.6117 317.59064 268.81482 317.2625Q268.03357 316.91876 267.58044 316.23126Q267.14294 315.54376 267.12732 314.6844ZM277.6742 316.5125L277.83044 317.4344Q277.37732 317.52814 277.03357 317.52814Q276.45544 317.52814 276.14294 317.35626Q275.83044 317.16876 275.68982 316.8719Q275.56482 316.575 275.56482 315.6219L275.56482 312.04376L274.7992 312.04376L274.7992 311.23126L275.56482 311.23126L275.56482 309.6844L276.6117 309.0594L276.6117 311.23126L277.6742 311.23126L277.6742 312.04376L276.6117 312.04376L276.6117 315.6844Q276.6117 316.1375 276.65857 316.2625Q276.72107 316.3875 276.84607 316.46564Q276.97107 316.54376 277.20544 316.54376Q277.39294 316.54376 277.6742 316.5125ZM282.43982 316.6844Q281.84607 317.1844 281.2992 317.3875Q280.76794 317.59064 280.14294 317.59064Q279.1117 317.59064 278.56482 317.09064Q278.01794 316.59064 278.01794 315.8094Q278.01794 315.35626 278.22107 314.98126Q278.4242 314.59064 278.76794 314.3719Q279.1117 314.1375 279.53357 314.02814Q279.83044 313.9344 280.47107 313.85626Q281.7367 313.71564 282.34607 313.4969Q282.34607 313.27814 282.34607 313.23126Q282.34607 312.575 282.0492 312.3094Q281.64294 311.96564 280.84607 311.96564Q280.1117 311.96564 279.75232 312.23126Q279.39294 312.48126 279.22107 313.1375L278.18982 312.9969Q278.33044 312.34064 278.65857 311.9344Q278.9867 311.52814 279.59607 311.3094Q280.20544 311.09064 281.00232 311.09064Q281.7992 311.09064 282.2992 311.27814Q282.7992 311.46564 283.03357 311.7469Q283.26794 312.02814 283.3617 312.46564Q283.40857 312.73126 283.40857 313.4344L283.40857 314.84064Q283.40857 316.3094 283.47107 316.7Q283.5492 317.09064 283.75232 317.45L282.64294 317.45Q282.4867 317.1219 282.43982 316.6844ZM282.34607 314.325Q281.76794 314.5594 280.62732 314.73126Q279.97107 314.825 279.70544 314.95Q279.43982 315.0594 279.28357 315.27814Q279.14294 315.4969 279.14294 315.77814Q279.14294 316.2 279.45544 316.48126Q279.78357 316.7625 280.39294 316.7625Q281.00232 316.7625 281.47107 316.4969Q281.95544 316.23126 282.1742 315.7625Q282.34607 315.40314 282.34607 314.71564L282.34607 314.325ZM289.43982 315.16876L290.47107 315.3094Q290.2992 316.3719 289.59607 316.98126Q288.89294 317.59064 287.87732 317.59064Q286.59607 317.59064 285.81482 316.7625Q285.0492 315.91876 285.0492 314.35626Q285.0492 313.35626 285.37732 312.60626Q285.72107 311.84064 286.39294 311.46564Q287.08044 311.09064 287.89294 311.09064Q288.89294 311.09064 289.53357 311.60626Q290.18982 312.10626 290.37732 313.0594L289.34607 313.21564Q289.20544 312.59064 288.83044 312.27814Q288.45544 311.95 287.9242 311.95Q287.12732 311.95 286.62732 312.52814Q286.12732 313.09064 286.12732 314.325Q286.12732 315.59064 286.6117 316.15314Q287.09607 316.71564 287.8617 316.71564Q288.4867 316.71564 288.89294 316.34064Q289.31482 315.96564 289.43982 315.16876ZM291.37732 317.45L291.37732 308.85626L292.43982 308.85626L292.43982 313.7625L294.9242 311.23126L296.2992 311.23126L293.90857 313.52814L296.53357 317.45L295.2367 317.45L293.1742 314.2625L292.43982 314.98126L292.43982 317.45L291.37732 317.45Z" fill-rule="nonzero"/><path fill="#000000" d="M374.48203 314.4344L375.60703 314.73126Q375.24765 316.1219 374.32578 316.85626Q373.4039 317.59064 372.06015 317.59064Q370.66953 317.59064 369.79453 317.02814Q368.91953 316.46564 368.4664 315.40314Q368.01328 314.325 368.01328 313.09064Q368.01328 311.7469 368.5289 310.7469Q369.04453 309.7469 369.98203 309.23126Q370.93515 308.71564 372.07578 308.71564Q373.35703 308.71564 374.23203 309.3719Q375.12265 310.02814 375.4664 311.21564L374.3414 311.48126Q374.04453 310.54376 373.4664 310.1219Q372.9039 309.6844 372.04453 309.6844Q371.06015 309.6844 370.38828 310.16876Q369.73203 310.6375 369.45078 311.4344Q369.18515 312.23126 369.18515 313.09064Q369.18515 314.1844 369.49765 314.9969Q369.82578 315.8094 370.49765 316.21564Q371.16953 316.6219 371.9664 316.6219Q372.91953 316.6219 373.57578 316.075Q374.24765 315.52814 374.48203 314.4344ZM376.82578 314.34064Q376.82578 312.60626 377.7789 311.77814Q378.57578 311.09064 379.73203 311.09064Q381.01328 311.09064 381.82578 311.9344Q382.6539 312.7625 382.6539 314.2469Q382.6539 315.45 382.29453 316.1375Q381.93515 316.825 381.23203 317.21564Q380.54453 317.59064 379.73203 317.59064Q378.43515 317.59064 377.62265 316.7625Q376.82578 315.91876 376.82578 314.34064ZM377.9039 314.34064Q377.9039 315.52814 378.41953 316.1219Q378.95078 316.71564 379.73203 316.71564Q380.5289 316.71564 381.04453 316.1219Q381.56015 315.52814 381.56015 314.3094Q381.56015 313.15314 381.0289 312.5594Q380.51328 311.96564 379.73203 311.96564Q378.95078 311.96564 378.41953 312.5594Q377.9039 313.1375 377.9039 314.34064ZM384.18515 317.45L384.18515 308.85626L385.24765 308.85626L385.24765 317.45L384.18515 317.45ZM387.2164 310.075L387.2164 308.85626L388.2789 308.85626L388.2789 310.075L387.2164 310.075ZM387.2164 317.45L387.2164 311.23126L388.2789 311.23126L388.2789 317.45L387.2164 317.45ZM390.2164 317.45L390.2164 311.23126L391.1539 311.23126L391.1539 312.10626Q391.45078 311.6375 391.93515 311.3719Q392.41953 311.09064 393.04453 311.09064Q393.73203 311.09064 394.16953 311.3719Q394.62265 311.65314 394.79453 312.16876Q395.54453 311.09064 396.7164 311.09064Q397.6539 311.09064 398.13828 311.60626Q398.63828 312.10626 398.63828 313.1844L398.63828 317.45L397.5914 317.45L397.5914 313.52814Q397.5914 312.90314 397.48203 312.6219Q397.38828 312.34064 397.12265 312.16876Q396.85703 311.9969 396.48203 311.9969Q395.82578 311.9969 395.38828 312.4344Q394.9664 312.8719 394.9664 313.84064L394.9664 317.45L393.9039 317.45L393.9039 313.40314Q393.9039 312.7 393.63828 312.35626Q393.38828 311.9969 392.81015 311.9969Q392.35703 311.9969 391.98203 312.23126Q391.60703 312.46564 391.43515 312.91876Q391.26328 313.3719 391.26328 314.21564L391.26328 317.45L390.2164 317.45ZM405.2789 316.6844Q404.68515 317.1844 404.13828 317.3875Q403.60703 317.59064 402.98203 317.59064Q401.95078 317.59064 401.4039 317.09064Q400.85703 316.59064 400.85703 315.8094Q400.85703 315.35626 401.06015 314.98126Q401.26328 314.59064 401.60703 314.3719Q401.95078 314.1375 402.37265 314.02814Q402.66953 313.9344 403.31015 313.85626Q404.57578 313.71564 405.18515 313.4969Q405.18515 313.27814 405.18515 313.23126Q405.18515 312.575 404.88828 312.3094Q404.48203 311.96564 403.68515 311.96564Q402.95078 311.96564 402.5914 312.23126Q402.23203 312.48126 402.06015 313.1375L401.0289 312.9969Q401.16953 312.34064 401.49765 311.9344Q401.82578 311.52814 402.43515 311.3094Q403.04453 311.09064 403.8414 311.09064Q404.63828 311.09064 405.13828 311.27814Q405.63828 311.46564 405.87265 311.7469Q406.10703 312.02814 406.20078 312.46564Q406.24765 312.73126 406.24765 313.4344L406.24765 314.84064Q406.24765 316.3094 406.31015 316.7Q406.38828 317.09064 406.5914 317.45L405.48203 317.45Q405.32578 317.1219 405.2789 316.6844ZM405.18515 314.325Q404.60703 314.5594 403.4664 314.73126Q402.81015 314.825 402.54453 314.95Q402.2789 315.0594 402.12265 315.27814Q401.98203 315.4969 401.98203 315.77814Q401.98203 316.2 402.29453 316.48126Q402.62265 316.7625 403.23203 316.7625Q403.8414 316.7625 404.31015 316.4969Q404.79453 316.23126 405.01328 315.7625Q405.18515 315.40314 405.18515 314.71564L405.18515 314.325Z" fill-rule="nonzero"/><path fill="#000000" d="M490.1336 317.45L490.1336 308.85626L491.27423 308.85626L491.27423 316.4344L495.5086 316.4344L495.5086 317.45L490.1336 317.45ZM497.05548 310.075L497.05548 308.85626L498.11798 308.85626L498.11798 310.075L497.05548 310.075ZM497.05548 317.45L497.05548 311.23126L498.11798 311.23126L498.11798 317.45L497.05548 317.45ZM500.05548 317.45L500.05548 311.23126L500.99298 311.23126L500.99298 312.10626Q501.28986 311.6375 501.77423 311.3719Q502.2586 311.09064 502.8836 311.09064Q503.5711 311.09064 504.0086 311.3719Q504.46173 311.65314 504.6336 312.16876Q505.3836 311.09064 506.55548 311.09064Q507.49298 311.09064 507.97736 311.60626Q508.47736 312.10626 508.47736 313.1844L508.47736 317.45L507.43048 317.45L507.43048 313.52814Q507.43048 312.90314 507.3211 312.6219Q507.22736 312.34064 506.96173 312.16876Q506.6961 311.9969 506.3211 311.9969Q505.66486 311.9969 505.22736 312.4344Q504.80548 312.8719 504.80548 313.84064L504.80548 317.45L503.74298 317.45L503.74298 313.40314Q503.74298 312.7 503.47736 312.35626Q503.22736 311.9969 502.64923 311.9969Q502.1961 311.9969 501.8211 312.23126Q501.4461 312.46564 501.27423 312.91876Q501.10236 313.3719 501.10236 314.21564L501.10236 317.45L500.05548 317.45ZM515.118 316.6844Q514.52423 317.1844 513.97736 317.3875Q513.4461 317.59064 512.8211 317.59064Q511.78986 317.59064 511.24298 317.09064Q510.6961 316.59064 510.6961 315.8094Q510.6961 315.35626 510.89923 314.98126Q511.10236 314.59064 511.4461 314.3719Q511.78986 314.1375 512.21173 314.02814Q512.5086 313.9344 513.14923 313.85626Q514.41486 313.71564 515.02423 313.4969Q515.02423 313.27814 515.02423 313.23126Q515.02423 312.575 514.72736 312.3094Q514.3211 311.96564 513.52423 311.96564Q512.78986 311.96564 512.4305 312.23126Q512.0711 312.48126 511.89923 313.1375L510.86798 312.9969Q511.0086 312.34064 511.33673 311.9344Q511.66486 311.52814 512.27423 311.3094Q512.8836 311.09064 513.6805 311.09064Q514.47736 311.09064 514.97736 311.27814Q515.47736 311.46564 515.71173 311.7469Q515.9461 312.02814 516.03986 312.46564Q516.08673 312.73126 516.08673 313.4344L516.08673 314.84064Q516.08673 316.3094 516.14923 316.7Q516.22736 317.09064 516.4305 317.45L515.3211 317.45Q515.16486 317.1219 515.118 316.6844ZM515.02423 314.325Q514.4461 314.5594 513.3055 314.73126Q512.64923 314.825 512.3836 314.95Q512.118 315.0594 511.96173 315.27814Q511.8211 315.4969 511.8211 315.77814Q511.8211 316.2 512.1336 316.48126Q512.46173 316.7625 513.0711 316.7625Q513.6805 316.7625 514.14923 316.4969Q514.6336 316.23126 514.85236 315.7625Q515.02423 315.40314 515.02423 314.71564L515.02423 314.325Z" fill-rule="nonzero"/><path fill="#757575" d="M20.096874 37.55L20.096874 23.2375L25.01875 23.2375Q26.690624 23.2375 27.58125 23.440624Q28.8 23.721874 29.675 24.45625Q30.8 25.425 31.3625 26.909374Q31.925 28.39375 31.925 30.315624Q31.925 31.940624 31.55 33.20625Q31.175 34.45625 30.565624 35.284374Q29.971874 36.1125 29.26875 36.596874Q28.565624 37.065624 27.565624 37.315624Q26.565624 37.55 25.253124 37.55L20.096874 37.55ZM21.9875 35.8625L25.05 35.8625Q26.45625 35.8625 27.253124 35.596874Q28.065624 35.33125 28.55 34.846874Q29.221874 34.175 29.596874 33.05Q29.971874 31.909374 29.971874 30.284374Q29.971874 28.034374 29.2375 26.83125Q28.503124 25.628124 27.440624 25.221874Q26.690624 24.925 25.003124 24.925L21.9875 24.925L21.9875 35.8625ZM33.221874 32.3625Q33.221874 29.4875 34.815624 28.096874Q36.159374 26.940624 38.08125 26.940624Q40.221874 26.940624 41.565624 28.346874Q42.925 29.753124 42.925 32.221874Q42.925 34.221874 42.33125 35.378124Q41.7375 36.51875 40.58125 37.159374Q39.440624 37.784374 38.08125 37.784374Q35.89375 37.784374 34.55 36.39375Q33.221874 34.9875 33.221874 32.3625ZM35.01875 32.3625Q35.01875 34.3625 35.878124 35.346874Q36.753124 36.33125 38.08125 36.33125Q39.39375 36.33125 40.253124 35.346874Q41.128124 34.346874 41.128124 32.3Q41.128124 30.378124 40.253124 29.39375Q39.378124 28.39375 38.08125 28.39375Q36.753124 28.39375 35.878124 29.39375Q35.01875 30.378124 35.01875 32.3625ZM51.64375 33.753124L53.3625 33.971874Q53.08125 35.76875 51.909374 36.784374Q50.753124 37.784374 49.05 37.784374Q46.925 37.784374 45.628124 36.39375Q44.33125 35.003124 44.33125 32.409374Q44.33125 30.721874 44.878124 29.471874Q45.440624 28.20625 46.58125 27.58125Q47.721874 26.940624 49.065624 26.940624Q50.753124 26.940624 51.815624 27.8Q52.89375 28.659374 53.20625 30.221874L51.4875 30.4875Q51.253124 29.440624 50.628124 28.925Q50.003124 28.39375 49.128124 28.39375Q47.8 28.39375 46.971874 29.346874Q46.14375 30.3 46.14375 32.346874Q46.14375 34.440624 46.940624 35.39375Q47.7375 36.33125 49.034374 36.33125Q50.065624 36.33125 50.753124 35.70625Q51.45625 35.065624 51.64375 33.753124ZM54.878124 37.55L54.878124 23.2375L56.64375 23.2375L56.64375 31.39375L60.8 27.175L63.065624 27.175L59.1125 31.01875L63.471874 37.55L61.3 37.55L57.878124 32.253124L56.64375 33.440624L56.64375 37.55L54.878124 37.55ZM71.97188 34.20625L73.78438 34.440624Q73.3625 36.01875 72.19063 36.909374Q71.03438 37.784374 69.22188 37.784374Q66.95625 37.784374 65.6125 36.39375Q64.28438 34.9875 64.28438 32.45625Q64.28438 29.83125 65.62813 28.39375Q66.97188 26.940624 69.12813 26.940624Q71.20625 26.940624 72.51875 28.3625Q73.84688 29.76875 73.84688 32.346874Q73.84688 32.503124 73.83125 32.815624L66.09688 32.815624Q66.19063 34.51875 67.06563 35.425Q67.94063 36.33125 69.2375 36.33125Q70.20625 36.33125 70.87813 35.83125Q71.56563 35.315624 71.97188 34.20625ZM66.19063 31.3625L71.9875 31.3625Q71.87813 30.065624 71.33125 29.409374Q70.4875 28.39375 69.14375 28.39375Q67.94063 28.39375 67.1125 29.20625Q66.28438 30.003124 66.19063 31.3625ZM75.84688 37.55L75.84688 27.175L77.425 27.175L77.425 28.753124Q78.03438 27.64375 78.55 27.3Q79.06563 26.940624 79.675 26.940624Q80.56563 26.940624 81.4875 27.503124L80.87813 29.14375Q80.2375 28.753124 79.59688 28.753124Q79.01875 28.753124 78.55 29.1125Q78.09688 29.45625 77.89375 30.065624Q77.6125 31.003124 77.6125 32.1125L77.6125 37.55L75.84688 37.55ZM89.09688 37.55L89.09688 23.2375L94.4875 23.2375Q95.925 23.2375 96.675 23.3625Q97.72188 23.55 98.44063 24.05Q99.15938 24.534374 99.58125 25.425Q100.01875 26.315624 100.01875 27.378124Q100.01875 29.20625 98.84688 30.471874Q97.69063 31.721874 94.65938 31.721874L90.9875 31.721874L90.9875 37.55L89.09688 37.55ZM90.9875 30.034374L94.69063 30.034374Q96.51875 30.034374 97.28438 29.3625Q98.06563 28.675 98.06563 27.425Q98.06563 26.534374 97.6125 25.89375Q97.15938 25.253124 96.425 25.05Q95.94063 24.925 94.64375 24.925L90.9875 24.925L90.9875 30.034374ZM101.84688 37.55L101.84688 27.175L103.425 27.175L103.425 28.753124Q104.03438 27.64375 104.55 27.3Q105.06563 26.940624 105.675 26.940624Q106.56563 26.940624 107.4875 27.503124L106.87813 29.14375Q106.2375 28.753124 105.59688 28.753124Q105.01875 28.753124 104.55 29.1125Q104.09688 29.45625 103.89375 30.065624Q103.6125 31.003124 103.6125 32.1125L103.6125 37.55L101.84688 37.55ZM108.22188 32.3625Q108.22188 29.4875 109.81563 28.096874Q111.15938 26.940624 113.08125 26.940624Q115.22188 26.940624 116.56563 28.346874Q117.925 29.753124 117.925 32.221874Q117.925 34.221874 117.33125 35.378124Q116.7375 36.51875 115.58125 37.159374Q114.44063 37.784374 113.08125 37.784374Q110.89375 37.784374 109.55 36.39375Q108.22188 34.9875 108.22188 32.3625ZM110.01875 32.3625Q110.01875 34.3625 110.87813 35.346874Q111.75313 36.33125 113.08125 36.33125Q114.39375 36.33125 115.25313 35.346874Q116.12813 34.346874 116.12813 32.3Q116.12813 30.378124 115.25313 29.39375Q114.37813 28.39375 113.08125 28.39375Q111.75313 28.39375 110.87813 29.39375Q110.01875 30.378124 110.01875 32.3625ZM122.75313 37.55L118.8 27.175L120.65938 27.175L122.89375 33.39375Q123.25313 34.39375 123.55 35.471874Q123.78438 34.659374 124.20625 33.503124L126.50313 27.175L128.31563 27.175L124.39375 37.55L122.75313 37.55ZM128.87813 25.253124L128.87813 23.2375L130.64375 23.2375L130.64375 25.253124L128.87813 25.253124ZM128.87813 37.55L128.87813 27.175L130.64375 27.175L130.64375 37.55L128.87813 37.55ZM139.59688 37.55L139.59688 36.2375Q138.6125 37.784374 136.69063 37.784374Q135.45625 37.784374 134.40938 37.096874Q133.37813 36.409374 132.8 35.190624Q132.2375 33.971874 132.2375 32.378124Q132.2375 30.815624 132.75313 29.55Q133.26875 28.284374 134.3 27.6125Q135.34688 26.940624 136.6125 26.940624Q137.55 26.940624 138.28438 27.346874Q139.01875 27.7375 139.4875 28.3625L139.4875 23.2375L141.22188 23.2375L141.22188 37.55L139.59688 37.55ZM134.03438 32.378124Q134.03438 34.3625 134.87813 35.346874Q135.72188 36.33125 136.8625 36.33125Q138.01875 36.33125 138.81563 35.39375Q139.62813 34.45625 139.62813 32.51875Q139.62813 30.39375 138.8 29.39375Q137.9875 28.39375 136.78438 28.39375Q135.6125 28.39375 134.81563 29.3625Q134.03438 30.315624 134.03438 32.378124ZM150.97188 34.20625L152.78438 34.440624Q152.3625 36.01875 151.19063 36.909374Q150.03438 37.784374 148.22188 37.784374Q145.95625 37.784374 144.6125 36.39375Q143.28438 34.9875 143.28438 32.45625Q143.28438 29.83125 144.62813 28.39375Q145.97188 26.940624 148.12813 26.940624Q150.20625 26.940624 151.51875 28.3625Q152.84688 29.76875 152.84688 32.346874Q152.84688 32.503124 152.83125 32.815624L145.09688 32.815624Q145.19063 34.51875 146.06563 35.425Q146.94063 36.33125 148.2375 36.33125Q149.20625 36.33125 149.87813 35.83125Q150.56563 35.315624 150.97188 34.20625ZM145.19063 31.3625L150.9875 31.3625Q150.87813 30.065624 150.33125 29.409374Q149.4875 28.39375 148.14375 28.39375Q146.94063 28.39375 146.1125 29.20625Q145.28438 30.003124 145.19063 31.3625ZM154.84688 37.55L154.84688 27.175L156.425 27.175L156.425 28.753124Q157.03438 27.64375 157.55 27.3Q158.06563 26.940624 158.675 26.940624Q159.56563 26.940624 160.4875 27.503124L159.87813 29.14375Q159.2375 28.753124 158.59688 28.753124Q158.01875 28.753124 157.55 29.1125Q157.09688 29.45625 156.89375 30.065624Q156.6125 31.003124 156.6125 32.1125L156.6125 37.55L154.84688 37.55ZM170.75313 37.55L166.8 27.175L168.65938 27.175L170.89375 33.39375Q171.25313 34.39375 171.55 35.471874Q171.78438 34.659374 172.20625 33.503124L174.50313 27.175L176.31563 27.175L172.39375 37.55L170.75313 37.55ZM176.15938 34.45625L177.90938 34.175Q178.05 35.221874 178.72188 35.784374Q179.39375 36.33125 180.59688 36.33125Q181.8 36.33125 182.37813 35.846874Q182.97188 35.346874 182.97188 34.690624Q182.97188 34.096874 182.45625 33.753124Q182.09688 33.51875 180.65938 33.159374Q178.72188 32.659374 177.97188 32.315624Q177.2375 31.95625 176.84688 31.33125Q176.45625 30.690624 176.45625 29.925Q176.45625 29.2375 176.76875 28.64375Q177.09688 28.05 177.64375 27.659374Q178.05 27.3625 178.75313 27.159374Q179.47188 26.940624 180.28438 26.940624Q181.50313 26.940624 182.425 27.3Q183.34688 27.64375 183.78438 28.253124Q184.22188 28.846874 184.39375 29.846874L182.675 30.08125Q182.55 29.284374 181.9875 28.846874Q181.425 28.39375 180.40938 28.39375Q179.19063 28.39375 178.675 28.8Q178.15938 29.190624 178.15938 29.721874Q178.15938 30.065624 178.37813 30.346874Q178.58125 30.628124 179.05 30.815624Q179.31563 30.909374 180.59688 31.253124Q182.47188 31.753124 183.20625 32.08125Q183.94063 32.39375 184.3625 33.003124Q184.78438 33.596874 184.78438 34.503124Q184.78438 35.378124 184.26875 36.159374Q183.75313 36.940624 182.78438 37.3625Q181.81563 37.784374 180.59688 37.784374Q178.58125 37.784374 177.51875 36.940624Q176.45625 36.096874 176.15938 34.45625ZM193.12813 37.55L193.12813 23.2375L203.4875 23.2375L203.4875 24.925L195.03438 24.925L195.03438 29.3L202.94063 29.3L202.94063 30.9875L195.03438 30.9875L195.03438 35.8625L203.81563 35.8625L203.81563 37.55L193.12813 37.55ZM205.83125 37.55L205.83125 23.2375L207.58125 23.2375L207.58125 37.55L205.83125 37.55ZM216.64375 36.26875Q215.65938 37.096874 214.75313 37.440624Q213.84688 37.784374 212.81563 37.784374Q211.1125 37.784374 210.19063 36.95625Q209.26875 36.1125 209.26875 34.815624Q209.26875 34.05 209.6125 33.425Q209.97188 32.8 210.53438 32.425Q211.09688 32.034374 211.8 31.83125Q212.31563 31.70625 213.3625 31.565624Q215.4875 31.315624 216.4875 30.971874Q216.50313 30.6125 216.50313 30.503124Q216.50313 29.440624 216.00313 28.9875Q215.33125 28.39375 214.00313 28.39375Q212.75313 28.39375 212.15938 28.83125Q211.58125 29.26875 211.3 30.378124L209.58125 30.14375Q209.81563 29.034374 210.34688 28.3625Q210.87813 27.675 211.89375 27.315624Q212.90938 26.940624 214.25313 26.940624Q215.58125 26.940624 216.40938 27.253124Q217.2375 27.565624 217.62813 28.05Q218.01875 28.51875 218.175 29.2375Q218.26875 29.690624 218.26875 30.8625L218.26875 33.20625Q218.26875 35.659374 218.37813 36.315624Q218.4875 36.95625 218.83125 37.55L216.9875 37.55Q216.72188 37.003124 216.64375 36.26875ZM216.4875 32.346874Q215.53438 32.7375 213.6125 33.003124Q212.53438 33.159374 212.08125 33.3625Q211.64375 33.55 211.39375 33.925Q211.14375 34.3 211.14375 34.76875Q211.14375 35.471874 211.675 35.940624Q212.20625 36.409374 213.2375 36.409374Q214.25313 36.409374 215.03438 35.971874Q215.83125 35.51875 216.20625 34.753124Q216.4875 34.14375 216.4875 32.9875L216.4875 32.346874ZM220.8625 41.51875L220.8625 27.175L222.47188 27.175L222.47188 28.51875Q223.03438 27.7375 223.7375 27.346874Q224.45625 26.940624 225.47188 26.940624Q226.8 26.940624 227.81563 27.628124Q228.83125 28.315624 229.34688 29.565624Q229.87813 30.8 229.87813 32.284374Q229.87813 33.878124 229.3 35.159374Q228.7375 36.425 227.64375 37.1125Q226.55 37.784374 225.34688 37.784374Q224.47188 37.784374 223.76875 37.409374Q223.08125 37.034374 222.62813 36.471874L222.62813 41.51875L220.8625 41.51875ZM222.45625 32.425Q222.45625 34.425 223.26875 35.378124Q224.08125 36.33125 225.2375 36.33125Q226.40938 36.33125 227.2375 35.346874Q228.08125 34.3625 228.08125 32.26875Q228.08125 30.3 227.25313 29.315624Q226.44063 28.315624 225.31563 28.315624Q224.19063 28.315624 223.31563 29.378124Q222.45625 30.425 222.45625 32.425ZM231.15938 34.45625L232.90938 34.175Q233.05 35.221874 233.72188 35.784374Q234.39375 36.33125 235.59688 36.33125Q236.8 36.33125 237.37813 35.846874Q237.97188 35.346874 237.97188 34.690624Q237.97188 34.096874 237.45625 33.753124Q237.09688 33.51875 235.65938 33.159374Q233.72188 32.659374 232.97188 32.315624Q232.2375 31.95625 231.84688 31.33125Q231.45625 30.690624 231.45625 29.925Q231.45625 29.2375 231.76875 28.64375Q232.09688 28.05 232.64375 27.659374Q233.05 27.3625 233.75313 27.159374Q234.47188 26.940624 235.28438 26.940624Q236.50313 26.940624 237.425 27.3Q238.34688 27.64375 238.78438 28.253124Q239.22188 28.846874 239.39375 29.846874L237.675 30.08125Q237.55 29.284374 236.9875 28.846874Q236.425 28.39375 235.40938 28.39375Q234.19063 28.39375 233.675 28.8Q233.15938 29.190624 233.15938 29.721874Q233.15938 30.065624 233.37813 30.346874Q233.58125 30.628124 234.05 30.815624Q234.31563 30.909374 235.59688 31.253124Q237.47188 31.753124 238.20625 32.08125Q238.94063 32.39375 239.3625 33.003124Q239.78438 33.596874 239.78438 34.503124Q239.78438 35.378124 239.26875 36.159374Q238.75313 36.940624 237.78438 37.3625Q236.81563 37.784374 235.59688 37.784374Q233.58125 37.784374 232.51875 36.940624Q231.45625 36.096874 231.15938 34.45625ZM248.97188 34.20625L250.78438 34.440624Q250.3625 36.01875 249.19063 36.909374Q248.03438 37.784374 246.22188 37.784374Q243.95625 37.784374 242.6125 36.39375Q241.28438 34.9875 241.28438 32.45625Q241.28438 29.83125 242.62813 28.39375Q243.97188 26.940624 246.12813 26.940624Q248.20625 26.940624 249.51875 28.3625Q250.84688 29.76875 250.84688 32.346874Q250.84688 32.503124 250.83125 32.815624L243.09688 32.815624Q243.19063 34.51875 244.06563 35.425Q244.94063 36.33125 246.2375 36.33125Q247.20625 36.33125 247.87813 35.83125Q248.56563 35.315624 248.97188 34.20625ZM243.19063 31.3625L248.9875 31.3625Q248.87813 30.065624 248.33125 29.409374Q247.4875 28.39375 246.14375 28.39375Q244.94063 28.39375 244.1125 29.20625Q243.28438 30.003124 243.19063 31.3625ZM259.59686 37.55L259.59686 36.2375Q258.6125 37.784374 256.6906 37.784374Q255.45625 37.784374 254.40938 37.096874Q253.37813 36.409374 252.8 35.190624Q252.2375 33.971874 252.2375 32.378124Q252.2375 30.815624 252.75313 29.55Q253.26875 28.284374 254.3 27.6125Q255.34688 26.940624 256.6125 26.940624Q257.55 26.940624 258.28436 27.346874Q259.01874 27.7375 259.4875 28.3625L259.4875 23.2375L261.22186 23.2375L261.22186 37.55L259.59686 37.55ZM254.03438 32.378124Q254.03438 34.3625 254.87813 35.346874Q255.72188 36.33125 256.8625 36.33125Q258.01874 36.33125 258.8156 35.39375Q259.6281 34.45625 259.6281 32.51875Q259.6281 30.39375 258.8 29.39375Q257.9875 28.39375 256.78436 28.39375Q255.6125 28.39375 254.81563 29.3625Q254.03438 30.315624 254.03438 32.378124ZM273.7375 37.55L273.7375 24.925L269.01874 24.925L269.01874 23.2375L280.3625 23.2375L280.3625 24.925L275.6281 24.925L275.6281 37.55L273.7375 37.55ZM281.8781 25.253124L281.8781 23.2375L283.64374 23.2375L283.64374 25.253124L281.8781 25.253124ZM281.8781 37.55L281.8781 27.175L283.64374 27.175L283.64374 37.55L281.8781 37.55ZM285.8625 37.55L285.8625 27.175L287.4406 27.175L287.4406 28.628124Q287.925 27.878124 288.7375 27.409374Q289.55 26.940624 290.58124 26.940624Q291.7375 26.940624 292.47186 27.425Q293.20624 27.89375 293.51874 28.753124Q294.7531 26.940624 296.72186 26.940624Q298.26874 26.940624 299.09686 27.8Q299.925 28.659374 299.925 30.425L299.925 37.55L298.175 37.55L298.175 31.01875Q298.175 29.95625 298.0031 29.503124Q297.83124 29.034374 297.3781 28.753124Q296.9406 28.471874 296.33124 28.471874Q295.2375 28.471874 294.5031 29.20625Q293.78436 29.925 293.78436 31.51875L293.78436 37.55L292.03436 37.55L292.03436 30.815624Q292.03436 29.64375 291.59686 29.065624Q291.175 28.471874 290.1906 28.471874Q289.45624 28.471874 288.8156 28.8625Q288.1906 29.253124 287.90936 30.003124Q287.6281 30.753124 287.6281 32.175L287.6281 37.55L285.8625 37.55ZM308.97186 34.20625L310.78436 34.440624Q310.3625 36.01875 309.1906 36.909374Q308.03436 37.784374 306.22186 37.784374Q303.95624 37.784374 302.6125 36.39375Q301.28436 34.9875 301.28436 32.45625Q301.28436 29.83125 302.6281 28.39375Q303.97186 26.940624 306.1281 26.940624Q308.20624 26.940624 309.51874 28.3625Q310.84686 29.76875 310.84686 32.346874Q310.84686 32.503124 310.83124 32.815624L303.09686 32.815624Q303.1906 34.51875 304.0656 35.425Q304.9406 36.33125 306.2375 36.33125Q307.20624 36.33125 307.8781 35.83125Q308.5656 35.315624 308.97186 34.20625ZM303.1906 31.3625L308.9875 31.3625Q308.8781 30.065624 308.33124 29.409374Q307.4875 28.39375 306.14374 28.39375Q304.9406 28.39375 304.1125 29.20625Q303.28436 30.003124 303.1906 31.3625ZM322.22186 41.753124Q320.76874 39.925 319.76874 37.471874Q318.76874 35.003124 318.76874 32.3625Q318.76874 30.034374 319.51874 27.909374Q320.39374 25.440624 322.22186 22.9875L323.4875 22.9875Q322.3 25.01875 321.925 25.89375Q321.33124 27.2375 320.9875 28.70625Q320.5656 30.534374 320.5656 32.378124Q320.5656 37.065624 323.4875 41.753124L322.22186 41.753124ZM326.03436 37.55L326.03436 23.2375L328.89374 23.2375L332.26874 33.3625Q332.7375 34.784374 332.95624 35.4875Q333.20624 34.70625 333.72186 33.190624L337.14374 23.2375L339.6906 23.2375L339.6906 37.55L337.8781 37.55L337.8781 25.565624L333.70624 37.55L332.0031 37.55L327.8625 25.3625L327.8625 37.55L326.03436 37.55ZM342.78436 41.55L342.59686 39.89375Q343.175 40.05 343.59686 40.05Q344.1906 40.05 344.53436 39.846874Q344.89374 39.659374 345.1125 39.315624Q345.28436 39.05 345.65936 38.003124Q345.70624 37.846874 345.8156 37.565624L341.8781 27.175L343.76874 27.175L345.925 33.190624Q346.34686 34.33125 346.675 35.58125Q346.9875 34.378124 347.39374 33.221874L349.6125 27.175L351.3781 27.175L347.425 37.721874Q346.8 39.440624 346.4406 40.08125Q345.97186 40.95625 345.3625 41.346874Q344.76874 41.753124 343.925 41.753124Q343.40936 41.753124 342.78436 41.55ZM352.45624 32.95625L354.2375 32.8Q354.3625 33.8625 354.8156 34.55Q355.28436 35.2375 356.2531 35.675Q357.2375 36.096874 358.47186 36.096874Q359.55 36.096874 360.3781 35.784374Q361.20624 35.45625 361.6125 34.89375Q362.01874 34.33125 362.01874 33.659374Q362.01874 32.9875 361.6281 32.4875Q361.2375 31.9875 360.34686 31.64375Q359.76874 31.409374 357.78436 30.940624Q355.8156 30.471874 355.03436 30.05Q354.0031 29.51875 353.5031 28.721874Q353.0031 27.925 353.0031 26.940624Q353.0031 25.846874 353.6125 24.909374Q354.22186 23.971874 355.40936 23.4875Q356.59686 22.9875 358.03436 22.9875Q359.6281 22.9875 360.84686 23.503124Q362.0656 24.01875 362.70624 25.01875Q363.3625 26.003124 363.40936 27.26875L361.59686 27.409374Q361.45624 26.05 360.6125 25.3625Q359.76874 24.659374 358.1125 24.659374Q356.39374 24.659374 355.59686 25.3Q354.8156 25.925 354.8156 26.8Q354.8156 27.58125 355.3781 28.08125Q355.925 28.58125 358.2375 29.096874Q360.55 29.6125 361.40936 30.003124Q362.65936 30.58125 363.2531 31.471874Q363.84686 32.346874 363.84686 33.503124Q363.84686 34.64375 363.1906 35.659374Q362.53436 36.675 361.3 37.2375Q360.08124 37.8 358.55 37.8Q356.6125 37.8 355.3 37.2375Q353.9875 36.659374 353.2375 35.51875Q352.4875 34.378124 352.45624 32.95625ZM376.9406 36.01875Q378.26874 36.925 379.3781 37.346874L378.8156 38.659374Q377.26874 38.1125 375.7375 36.909374Q374.14374 37.8 372.22186 37.8Q370.28436 37.8 368.6906 36.8625Q367.1125 35.925 366.2531 34.221874Q365.40936 32.51875 365.40936 30.39375Q365.40936 28.26875 366.26874 26.534374Q367.1281 24.8 368.70624 23.89375Q370.3 22.971874 372.26874 22.971874Q374.2531 22.971874 375.83124 23.925Q377.425 24.8625 378.2531 26.565624Q379.09686 28.253124 379.09686 30.378124Q379.09686 32.14375 378.5656 33.565624Q378.03436 34.971874 376.9406 36.01875ZM372.76874 33.596874Q374.40936 34.05 375.47186 34.95625Q377.14374 33.440624 377.14374 30.378124Q377.14374 28.64375 376.55 27.346874Q375.97186 26.05 374.83124 25.33125Q373.6906 24.6125 372.26874 24.6125Q370.15936 24.6125 368.7531 26.065624Q367.3625 27.503124 367.3625 30.39375Q367.3625 33.190624 368.7375 34.690624Q370.1281 36.175 372.26874 36.175Q373.28436 36.175 374.1906 35.784374Q373.3 35.221874 372.3156 34.971874L372.76874 33.596874ZM382.01874 37.55L382.01874 23.2375L383.90936 23.2375L383.90936 35.8625L390.95624 35.8625L390.95624 37.55L382.01874 37.55ZM401.08124 29.784374Q399.9875 29.378124 399.45624 28.64375Q398.9406 27.89375 398.9406 26.8625Q398.9406 25.3 400.0656 24.2375Q401.1906 23.175 403.05 23.175Q404.925 23.175 406.0656 24.26875Q407.20624 25.346874 407.20624 26.909374Q407.20624 27.909374 406.675 28.64375Q406.15936 29.378124 405.09686 29.784374Q406.425 30.221874 407.1125 31.175Q407.8 32.128124 407.8 33.45625Q407.8 35.3 406.4875 36.55Q405.1906 37.8 403.08124 37.8Q400.95624 37.8 399.65936 36.55Q398.3625 35.284374 398.3625 33.409374Q398.3625 32.01875 399.0656 31.08125Q399.78436 30.128124 401.08124 29.784374ZM400.7375 26.8Q400.7375 27.815624 401.39374 28.471874Q402.05 29.1125 403.08124 29.1125Q404.09686 29.1125 404.7531 28.471874Q405.40936 27.83125 405.40936 26.909374Q405.40936 25.940624 404.7375 25.284374Q404.0656 24.6125 403.0656 24.6125Q402.0656 24.6125 401.39374 25.26875Q400.7375 25.909374 400.7375 26.8ZM400.175 33.425Q400.175 34.175 400.51874 34.878124Q400.8781 35.58125 401.58124 35.971874Q402.28436 36.346874 403.09686 36.346874Q404.3625 36.346874 405.175 35.534374Q406.0031 34.721874 406.0031 33.471874Q406.0031 32.20625 405.15936 31.378124Q404.3156 30.55 403.03436 30.55Q401.8 30.55 400.9875 31.378124Q400.175 32.190624 400.175 33.425ZM410.3625 37.55L410.3625 35.55L412.3625 35.55L412.3625 37.55L410.3625 37.55ZM415.3781 30.4875Q415.3781 27.95625 415.89374 26.409374Q416.425 24.846874 417.45624 24.01875Q418.4875 23.175 420.05 23.175Q421.20624 23.175 422.0656 23.64375Q422.9406 24.096874 423.5031 24.971874Q424.0656 25.846874 424.39374 27.1125Q424.72186 28.3625 424.72186 30.4875Q424.72186 33.003124 424.1906 34.55Q423.675 36.096874 422.64374 36.95625Q421.6281 37.8 420.05 37.8Q417.97186 37.8 416.8 36.315624Q415.3781 34.51875 415.3781 30.4875ZM417.1906 30.4875Q417.1906 34.01875 418.0031 35.190624Q418.83124 36.346874 420.05 36.346874Q421.2531 36.346874 422.08124 35.175Q422.90936 34.003124 422.90936 30.4875Q422.90936 26.95625 422.08124 25.8Q421.2531 24.628124 420.03436 24.628124Q418.8156 24.628124 418.09686 25.659374Q417.1906 26.95625 417.1906 30.4875ZM427.33124 37.55L427.33124 35.55L429.33124 35.55L429.33124 37.55Q429.33124 38.659374 428.9406 39.33125Q428.55 40.01875 427.70624 40.378124L427.20624 39.628124Q427.76874 39.39375 428.03436 38.909374Q428.3 38.440624 428.33124 37.55L427.33124 37.55ZM439.15936 37.55L439.15936 23.2375L441.05 23.2375L441.05 29.1125L448.4875 29.1125L448.4875 23.2375L450.3781 23.2375L450.3781 37.55L448.4875 37.55L448.4875 30.8L441.05 30.8L441.05 37.55L439.15936 37.55ZM452.1281 37.55L452.1281 23.2375L462.4875 23.2375L462.4875 24.925L454.03436 24.925L454.03436 29.3L461.9406 29.3L461.9406 30.9875L454.03436 30.9875L454.03436 35.8625L462.8156 35.8625L462.8156 37.55L452.1281 37.55ZM463.51874 37.55L469.01874 23.2375L471.0656 23.2375L476.925 37.55L474.76874 37.55L473.09686 33.20625L467.1125 33.20625L465.53436 37.55L463.51874 37.55ZM467.65936 31.675L472.5031 31.675L471.01874 27.70625Q470.33124 25.89375 470.0031 24.7375Q469.72186 26.1125 469.22186 27.471874L467.65936 31.675ZM478.09686 37.55L478.09686 23.2375L483.01874 23.2375Q484.6906 23.2375 485.58124 23.440624Q486.8 23.721874 487.675 24.45625Q488.8 25.425 489.3625 26.909374Q489.925 28.39375 489.925 30.315624Q489.925 31.940624 489.55 33.20625Q489.175 34.45625 488.5656 35.284374Q487.97186 36.1125 487.26874 36.596874Q486.5656 37.065624 485.5656 37.315624Q484.5656 37.55 483.2531 37.55L478.09686 37.55ZM479.9875 35.8625L483.05 35.8625Q484.45624 35.8625 485.2531 35.596874Q486.0656 35.33125 486.55 34.846874Q487.22186 34.175 487.59686 33.05Q487.97186 31.909374 487.97186 30.284374Q487.97186 28.034374 487.2375 26.83125Q486.5031 25.628124 485.4406 25.221874Q484.6906 24.925 483.0031 24.925L479.9875 24.925L479.9875 35.8625ZM493.01874 41.753124L491.76874 41.753124Q494.675 37.065624 494.675 32.378124Q494.675 30.534374 494.26874 28.7375Q493.925 27.26875 493.33124 25.925Q492.95624 25.034374 491.76874 22.9875L493.01874 22.9875Q494.8625 25.440624 495.7375 27.909374Q496.4875 30.034374 496.4875 32.3625Q496.4875 35.003124 495.47186 37.471874Q494.47186 39.925 493.01874 41.753124Z" fill-rule="nonzero"/></svg>