<svg version="1.1" viewBox="0.0 0.0 600.0 371.0" fill="none" stroke="none" stroke-linecap="square" stroke-miterlimit="10" width="600" height="371" xmlns:xlink="http://www.w3.org/1999/xlink" xmlns="http://www.w3.org/2000/svg"><path fill="#ffffff" d="M0 0L600.0 0L600.0 371.0L0 371.0L0 0Z" fill-rule="nonzero"/><path stroke="#333333" stroke-width="1.0" stroke-linecap="butt" d="M77.5 300.5L581.5 300.5" fill-rule="nonzero"/><path stroke="#cccccc" stroke-width="1.0" stroke-linecap="butt" d="M77.5 220.5L581.5 220.5" fill-rule="nonzero"/><path stroke="#cccccc" stroke-width="1.0" stroke-linecap="butt" d="M77.5 141.5L581.5 141.5" fill-rule="nonzero"/><path stroke="#cccccc" stroke-width="1.0" stroke-linecap="butt" d="M77.5 61.5L581.5 61.5" fill-rule="nonzero"/><clipPath id="id_0"><path d="M77.55 61.916668L581.45 61.916668L581.45 300.45L77.55 300.45L77.55 61.916668Z" clip-rule="nonzero"/></clipPath><path stroke="#000000" stroke-width="2.0" stroke-linecap="butt" stroke-opacity="0.0" clip-path="url(#id_0)" d="M194.0 300.0L119.0 300.0L119.0 109.0C119.0 107.89543 119.89543 107.0 121.0 107.0L192.0 107.0C193.10457 107.0 194.0 107.89543 194.0 109.0Z" fill-rule="nonzero"/><path fill="#4285f4" clip-path="url(#id_0)" d="M194.0 300.0L119.0 300.0L119.0 109.0C119.0 107.89543 119.89543 107.0 121.0 107.0L192.0 107.0C193.10457 107.0 194.0 107.89543 194.0 109.0Z" fill-rule="nonzero"/><path stroke="#000000" stroke-width="2.0" stroke-linecap="butt" stroke-opacity="0.0" clip-path="url(#id_0)" d="M310.0 300.0L235.0 300.0L235.0 114.0C235.0 112.89543 235.89543 112.0 237.0 112.0L308.0 112.0C309.10458 112.0 310.0 112.89543 310.0 114.0Z" fill-rule="nonzero"/><path fill="#4285f4" clip-path="url(#id_0)" d="M310.0 300.0L235.0 300.0L235.0 114.0C235.0 112.89543 235.89543 112.0 237.0 112.0L308.0 112.0C309.10458 112.0 310.0 112.89543 310.0 114.0Z" fill-rule="nonzero"/><path stroke="#000000" stroke-width="2.0" stroke-linecap="butt" stroke-opacity="0.0" clip-path="url(#id_0)" d="M425.0 300.0L350.0 300.0L350.0 90.0C350.0 88.89543 350.89542 88.0 352.0 88.0L423.0 88.0C424.10458 88.0 425.0 88.89543 425.0 90.0Z" fill-rule="nonzero"/><path fill="#4285f4" clip-path="url(#id_0)" d="M425.0 300.0L350.0 300.0L350.0 90.0C350.0 88.89543 350.89542 88.0 352.0 88.0L423.0 88.0C424.10458 88.0 425.0 88.89543 425.0 90.0Z" fill-rule="nonzero"/><path stroke="#000000" stroke-width="2.0" stroke-linecap="butt" stroke-opacity="0.0" clip-path="url(#id_0)" d="M541.0 300.0L466.0 300.0L466.0 80.0C466.0 78.89543 466.89542 78.0 468.0 78.0L539.0 78.0C540.10455 78.0 541.0 78.89543 541.0 80.0Z" fill-rule="nonzero"/><path fill="#4285f4" clip-path="url(#id_0)" d="M541.0 300.0L466.0 300.0L466.0 80.0C466.0 78.89543 466.89542 78.0 468.0 78.0L539.0 78.0C540.10455 78.0 541.0 78.89543 541.0 80.0Z" fill-rule="nonzero"/><path fill="#000000" d="M284.82812 349.45L284.82812 348.66876Q284.23438 349.59064 283.09375 349.59064Q282.34375 349.59064 281.71875 349.1844Q281.09375 348.7625 280.75 348.02814Q280.40625 347.29376 280.40625 346.34064Q280.40625 345.41876 280.71875 344.65314Q281.03125 343.8875 281.65625 343.4969Q282.28125 343.09064 283.04688 343.09064Q283.60938 343.09064 284.04688 343.325Q284.48438 343.5594 284.76562 343.9344L284.76562 340.85626L285.8125 340.85626L285.8125 349.45L284.82812 349.45ZM281.5 346.34064Q281.5 347.54376 282.0 348.1375Q282.5 348.71564 283.1875 348.71564Q283.875 348.71564 284.35938 348.15314Q284.84375 347.59064 284.84375 346.4344Q284.84375 345.15314 284.34375 344.5594Q283.85938 343.96564 283.14062 343.96564Q282.4375 343.96564 281.96875 344.54376Q281.5 345.10626 281.5 346.34064ZM291.85938 348.6844Q291.26562 349.1844 290.71875 349.3875Q290.1875 349.59064 289.5625 349.59064Q288.53125 349.59064 287.98438 349.09064Q287.4375 348.59064 287.4375 347.8094Q287.4375 347.35626 287.64062 346.98126Q287.84375 346.59064 288.1875 346.3719Q288.53125 346.1375 288.95312 346.02814Q289.25 345.9344 289.89062 345.85626Q291.15625 345.71564 291.76562 345.4969Q291.76562 345.27814 291.76562 345.23126Q291.76562 344.575 291.46875 344.3094Q291.0625 343.96564 290.26562 343.96564Q289.53125 343.96564 289.17188 344.23126Q288.8125 344.48126 288.64062 345.1375L287.60938 344.9969Q287.75 344.34064 288.07812 343.9344Q288.40625 343.52814 289.01562 343.3094Q289.625 343.09064 290.42188 343.09064Q291.21875 343.09064 291.71875 343.27814Q292.21875 343.46564 292.45312 343.7469Q292.6875 344.02814 292.78125 344.46564Q292.82812 344.73126 292.82812 345.4344L292.82812 346.84064Q292.82812 348.3094 292.89062 348.7Q292.96875 349.09064 293.17188 349.45L292.0625 349.45Q291.90625 349.1219 291.85938 348.6844ZM291.76562 346.325Q291.1875 346.5594 290.04688 346.73126Q289.39062 346.825 289.125 346.95Q288.85938 347.0594 288.70312 347.27814Q288.5625 347.4969 288.5625 347.77814Q288.5625 348.2 288.875 348.48126Q289.20312 348.7625 289.8125 348.7625Q290.42188 348.7625 290.89062 348.4969Q291.375 348.23126 291.59375 347.7625Q291.76562 347.40314 291.76562 346.71564L291.76562 346.325ZM297.09375 348.5125L297.25 349.4344Q296.79688 349.52814 296.45312 349.52814Q295.875 349.52814 295.5625 349.35626Q295.25 349.16876 295.10938 348.8719Q294.98438 348.575 294.98438 347.6219L294.98438 344.04376L294.21875 344.04376L294.21875 343.23126L294.98438 343.23126L294.98438 341.6844L296.03125 341.0594L296.03125 343.23126L297.09375 343.23126L297.09375 344.04376L296.03125 344.04376L296.03125 347.6844Q296.03125 348.1375 296.07812 348.2625Q296.14062 348.3875 296.26562 348.46564Q296.39062 348.54376 296.625 348.54376Q296.8125 348.54376 297.09375 348.5125ZM301.85938 348.6844Q301.26562 349.1844 300.71875 349.3875Q300.1875 349.59064 299.5625 349.59064Q298.53125 349.59064 297.98438 349.09064Q297.4375 348.59064 297.4375 347.8094Q297.4375 347.35626 297.64062 346.98126Q297.84375 346.59064 298.1875 346.3719Q298.53125 346.1375 298.95312 346.02814Q299.25 345.9344 299.89062 345.85626Q301.15625 345.71564 301.76562 345.4969Q301.76562 345.27814 301.76562 345.23126Q301.76562 344.575 301.46875 344.3094Q301.0625 343.96564 300.26562 343.96564Q299.53125 343.96564 299.17188 344.23126Q298.8125 344.48126 298.64062 345.1375L297.60938 344.9969Q297.75 344.34064 298.07812 343.9344Q298.40625 343.52814 299.01562 343.3094Q299.625 343.09064 300.42188 343.09064Q301.21875 343.09064 301.71875 343.27814Q302.21875 343.46564 302.45312 343.7469Q302.6875 344.02814 302.78125 344.46564Q302.82812 344.73126 302.82812 345.4344L302.82812 346.84064Q302.82812 348.3094 302.89062 348.7Q302.96875 349.09064 303.17188 349.45L302.0625 349.45Q301.90625 349.1219 301.85938 348.6844ZM301.76562 346.325Q301.1875 346.5594 300.04688 346.73126Q299.39062 346.825 299.125 346.95Q298.85938 347.0594 298.70312 347.27814Q298.5625 347.4969 298.5625 347.77814Q298.5625 348.2 298.875 348.48126Q299.20312 348.7625 299.8125 348.7625Q300.42188 348.7625 300.89062 348.4969Q301.375 348.23126 301.59375 347.7625Q301.76562 347.40314 301.76562 346.71564L301.76562 346.325ZM305.76562 349.45L304.78125 349.45L304.78125 340.85626L305.84375 340.85626L305.84375 343.91876Q306.51562 343.09064 307.54688 343.09064Q308.125 343.09064 308.625 343.325Q309.14062 343.54376 309.46875 343.96564Q309.8125 344.3875 310.0 344.98126Q310.1875 345.575 310.1875 346.2469Q310.1875 347.84064 309.39062 348.71564Q308.59375 349.59064 307.5 349.59064Q306.39062 349.59064 305.76562 348.66876L305.76562 349.45ZM305.75 346.29376Q305.75 347.40314 306.0625 347.90314Q306.5625 348.71564 307.40625 348.71564Q308.09375 348.71564 308.59375 348.1219Q309.10938 347.52814 309.10938 346.325Q309.10938 345.10626 308.625 344.52814Q308.14062 343.95 307.45312 343.95Q306.76562 343.95 306.25 344.5594Q305.75 345.15314 305.75 346.29376ZM315.85938 348.6844Q315.26562 349.1844 314.71875 349.3875Q314.1875 349.59064 313.5625 349.59064Q312.53125 349.59064 311.98438 349.09064Q311.4375 348.59064 311.4375 347.8094Q311.4375 347.35626 311.64062 346.98126Q311.84375 346.59064 312.1875 346.3719Q312.53125 346.1375 312.95312 346.02814Q313.25 345.9344 313.89062 345.85626Q315.15625 345.71564 315.76562 345.4969Q315.76562 345.27814 315.76562 345.23126Q315.76562 344.575 315.46875 344.3094Q315.0625 343.96564 314.26562 343.96564Q313.53125 343.96564 313.17188 344.23126Q312.8125 344.48126 312.64062 345.1375L311.60938 344.9969Q311.75 344.34064 312.07812 343.9344Q312.40625 343.52814 313.01562 343.3094Q313.625 343.09064 314.42188 343.09064Q315.21875 343.09064 315.71875 343.27814Q316.21875 343.46564 316.45312 343.7469Q316.6875 344.02814 316.78125 344.46564Q316.82812 344.73126 316.82812 345.4344L316.82812 346.84064Q316.82812 348.3094 316.89062 348.7Q316.96875 349.09064 317.17188 349.45L316.0625 349.45Q315.90625 349.1219 315.85938 348.6844ZM315.76562 346.325Q315.1875 346.5594 314.04688 346.73126Q313.39062 346.825 313.125 346.95Q312.85938 347.0594 312.70312 347.27814Q312.5625 347.4969 312.5625 347.77814Q312.5625 348.2 312.875 348.48126Q313.20312 348.7625 313.8125 348.7625Q314.42188 348.7625 314.89062 348.4969Q315.375 348.23126 315.59375 347.7625Q315.76562 347.40314 315.76562 346.71564L315.76562 346.325ZM318.375 347.59064L319.40625 347.4344Q319.5 348.0594 319.89062 348.3875Q320.29688 348.71564 321.03125 348.71564Q321.75 348.71564 322.09375 348.4344Q322.45312 348.1375 322.45312 347.73126Q322.45312 347.3719 322.14062 347.16876Q321.92188 347.02814 321.0625 346.8094Q319.90625 346.5125 319.45312 346.3094Q319.01562 346.09064 318.78125 345.71564Q318.54688 345.34064 318.54688 344.8719Q318.54688 344.46564 318.73438 344.10626Q318.92188 343.7469 319.25 343.5125Q319.5 343.34064 319.92188 343.21564Q320.34375 343.09064 320.84375 343.09064Q321.5625 343.09064 322.10938 343.3094Q322.67188 343.5125 322.9375 343.8719Q323.20312 344.23126 323.29688 344.825L322.26562 344.96564Q322.20312 344.4969 321.85938 344.23126Q321.53125 343.95 320.90625 343.95Q320.1875 343.95 319.875 344.2Q319.5625 344.4344 319.5625 344.7625Q319.5625 344.96564 319.6875 345.1219Q319.82812 345.29376 320.09375 345.40314Q320.25 345.46564 321.03125 345.66876Q322.15625 345.98126 322.59375 346.16876Q323.03125 346.35626 323.28125 346.71564Q323.53125 347.075 323.53125 347.6219Q323.53125 348.15314 323.21875 348.6219Q322.92188 349.075 322.34375 349.34064Q321.76562 349.59064 321.03125 349.59064Q319.8125 349.59064 319.17188 349.09064Q318.54688 348.575 318.375 347.59064ZM330.04688 347.45L331.14062 347.575Q330.89062 348.52814 330.1875 349.0594Q329.48438 349.59064 328.40625 349.59064Q327.04688 349.59064 326.23438 348.7469Q325.4375 347.90314 325.4375 346.3875Q325.4375 344.825 326.25 343.96564Q327.0625 343.09064 328.34375 343.09064Q329.59375 343.09064 330.375 343.9344Q331.17188 344.77814 331.17188 346.325Q331.17188 346.41876 331.17188 346.60626L326.53125 346.60626Q326.59375 347.6375 327.10938 348.1844Q327.625 348.71564 328.40625 348.71564Q328.98438 348.71564 329.39062 348.41876Q329.8125 348.10626 330.04688 347.45ZM326.59375 345.7469L330.0625 345.7469Q330.0 344.95 329.67188 344.5594Q329.15625 343.95 328.35938 343.95Q327.625 343.95 327.125 344.4344Q326.64062 344.91876 326.59375 345.7469ZM331.8125 351.84064L331.8125 351.075L338.8125 351.075L338.8125 351.84064L331.8125 351.84064ZM341.51562 349.45L339.15625 343.23126L340.26562 343.23126L341.60938 346.95Q341.8125 347.5594 342.0 348.2Q342.14062 347.71564 342.39062 347.02814L343.78125 343.23126L344.85938 343.23126L342.5 349.45L341.51562 349.45ZM349.04688 347.45L350.14062 347.575Q349.89062 348.52814 349.1875 349.0594Q348.48438 349.59064 347.40625 349.59064Q346.04688 349.59064 345.23438 348.7469Q344.4375 347.90314 344.4375 346.3875Q344.4375 344.825 345.25 343.96564Q346.0625 343.09064 347.34375 343.09064Q348.59375 343.09064 349.375 343.9344Q350.17188 344.77814 350.17188 346.325Q350.17188 346.41876 350.17188 346.60626L345.53125 346.60626Q345.59375 347.6375 346.10938 348.1844Q346.625 348.71564 347.40625 348.71564Q347.98438 348.71564 348.39062 348.41876Q348.8125 348.10626 349.04688 347.45ZM345.59375 345.7469L349.0625 345.7469Q349.0 344.95 348.67188 344.5594Q348.15625 343.95 347.35938 343.95Q346.625 343.95 346.125 344.4344Q345.64062 344.91876 345.59375 345.7469ZM351.78125 349.45L351.78125 343.23126L352.73438 343.23126L352.73438 344.16876Q353.09375 343.5125 353.39062 343.3094Q353.70312 343.09064 354.07812 343.09064Q354.60938 343.09064 355.15625 343.41876L354.79688 344.40314Q354.40625 344.16876 354.03125 344.16876Q353.67188 344.16876 353.39062 344.3875Q353.125 344.59064 353.01562 344.96564Q352.82812 345.52814 352.82812 346.1844L352.82812 349.45L351.78125 349.45ZM355.375 347.59064L356.40625 347.4344Q356.5 348.0594 356.89062 348.3875Q357.29688 348.71564 358.03125 348.71564Q358.75 348.71564 359.09375 348.4344Q359.45312 348.1375 359.45312 347.73126Q359.45312 347.3719 359.14062 347.16876Q358.92188 347.02814 358.0625 346.8094Q356.90625 346.5125 356.45312 346.3094Q356.01562 346.09064 355.78125 345.71564Q355.54688 345.34064 355.54688 344.8719Q355.54688 344.46564 355.73438 344.10626Q355.92188 343.7469 356.25 343.5125Q356.5 343.34064 356.92188 343.21564Q357.34375 343.09064 357.84375 343.09064Q358.5625 343.09064 359.10938 343.3094Q359.67188 343.5125 359.9375 343.8719Q360.20312 344.23126 360.29688 344.825L359.26562 344.96564Q359.20312 344.4969 358.85938 344.23126Q358.53125 343.95 357.90625 343.95Q357.1875 343.95 356.875 344.2Q356.5625 344.4344 356.5625 344.7625Q356.5625 344.96564 356.6875 345.1219Q356.82812 345.29376 357.09375 345.40314Q357.25 345.46564 358.03125 345.66876Q359.15625 345.98126 359.59375 346.16876Q360.03125 346.35626 360.28125 346.71564Q360.53125 347.075 360.53125 347.6219Q360.53125 348.15314 360.21875 348.6219Q359.92188 349.075 359.34375 349.34064Q358.76562 349.59064 358.03125 349.59064Q356.8125 349.59064 356.17188 349.09064Q355.54688 348.575 355.375 347.59064ZM362.79688 342.075L362.79688 340.85626L363.85938 340.85626L363.85938 342.075L362.79688 342.075ZM362.79688 349.45L362.79688 343.23126L363.85938 343.23126L363.85938 349.45L362.79688 349.45ZM365.40625 346.34064Q365.40625 344.60626 366.35938 343.77814Q367.15625 343.09064 368.3125 343.09064Q369.59375 343.09064 370.40625 343.9344Q371.23438 344.7625 371.23438 346.2469Q371.23438 347.45 370.875 348.1375Q370.51562 348.825 369.8125 349.21564Q369.125 349.59064 368.3125 349.59064Q367.01562 349.59064 366.20312 348.7625Q365.40625 347.91876 365.40625 346.34064ZM366.48438 346.34064Q366.48438 347.52814 367.0 348.1219Q367.53125 348.71564 368.3125 348.71564Q369.10938 348.71564 369.625 348.1219Q370.14062 347.52814 370.14062 346.3094Q370.14062 345.15314 369.60938 344.5594Q369.09375 343.96564 368.3125 343.96564Q367.53125 343.96564 367.0 344.5594Q366.48438 345.1375 366.48438 346.34064ZM372.79688 349.45L372.79688 343.23126L373.73438 343.23126L373.73438 344.10626Q374.42188 343.09064 375.71875 343.09064Q376.28125 343.09064 376.75 343.29376Q377.23438 343.4969 377.46875 343.825Q377.70312 344.15314 377.79688 344.59064Q377.84375 344.8875 377.84375 345.6219L377.84375 349.45L376.79688 349.45L376.79688 345.66876Q376.79688 345.0125 376.67188 344.7Q376.54688 344.3875 376.23438 344.2Q375.92188 343.9969 375.5 343.9969Q374.82812 343.9969 374.32812 344.4344Q373.84375 344.85626 373.84375 346.04376L373.84375 349.45L372.79688 349.45Z" fill-rule="nonzero"/><path fill="#000000" d="M27.550013 261.63647L27.675013 260.54272Q28.628138 260.79272 29.159388 261.49585Q29.690638 262.19897 29.690638 263.2771Q29.690638 264.63647 28.846888 265.44897Q28.003138 266.24585 26.487513 266.24585Q24.925013 266.24585 24.065638 265.43335Q23.190638 264.62085 23.190638 263.3396Q23.190638 262.0896 24.034388 261.30835Q24.878138 260.51147 26.425013 260.51147Q26.518763 260.51147 26.706263 260.51147L26.706263 265.1521Q27.737513 265.0896 28.284388 264.57397Q28.815638 264.05835 28.815638 263.2771Q28.815638 262.69897 28.518763 262.29272Q28.206263 261.87085 27.550013 261.63647ZM25.846888 265.0896L25.846888 261.62085Q25.050013 261.68335 24.659388 262.01147Q24.050013 262.5271 24.050013 263.32397Q24.050013 264.05835 24.534388 264.55835Q25.018763 265.04272 25.846888 265.0896ZM29.550013 258.91772L20.956263 258.91772L20.956263 257.85522L29.550013 257.85522L29.550013 258.91772ZM28.784388 251.82396Q29.284388 252.41771 29.487513 252.96458Q29.690638 253.49583 29.690638 254.12083Q29.690638 255.15208 29.190638 255.69896Q28.690638 256.24585 27.909388 256.24585Q27.456263 256.24585 27.081263 256.04272Q26.690638 255.83958 26.471888 255.49583Q26.237513 255.15208 26.128138 254.73021Q26.034388 254.43333 25.956263 253.79271Q25.815638 252.52708 25.596888 251.91771Q25.378138 251.91771 25.331263 251.91771Q24.675013 251.91771 24.409388 252.21458Q24.065638 252.62083 24.065638 253.41771Q24.065638 254.15208 24.331263 254.51146Q24.581263 254.87083 25.237513 255.04271L25.096888 256.07397Q24.440638 255.93333 24.034388 255.60521Q23.628138 255.27708 23.409388 254.66771Q23.190638 254.05833 23.190638 253.26146Q23.190638 252.46458 23.378138 251.96458Q23.565638 251.46458 23.846888 251.23021Q24.128138 250.99583 24.565638 250.90208Q24.831263 250.85521 25.534388 250.85521L26.940638 250.85521Q28.409388 250.85521 28.800013 250.79271Q29.190638 250.71458 29.550013 250.51146L29.550013 251.62083Q29.221888 251.77708 28.784388 251.82396ZM26.425013 251.91771Q26.659388 252.49583 26.831263 253.63646Q26.925013 254.29271 27.050013 254.55833Q27.159388 254.82396 27.378138 254.98021Q27.596888 255.12083 27.878138 255.12083Q28.300013 255.12083 28.581263 254.80833Q28.862513 254.48021 28.862513 253.87083Q28.862513 253.26146 28.596888 252.79271Q28.331263 252.30833 27.862513 252.08958Q27.503138 251.91771 26.815638 251.91771L26.425013 251.91771ZM31.940638 248.88646L23.331263 248.88646L23.331263 247.93333L24.128138 247.93333Q23.659388 247.58958 23.425013 247.16771Q23.190638 246.73021 23.190638 246.12083Q23.190638 245.32396 23.596888 244.71458Q24.003138 244.10521 24.753138 243.80833Q25.503138 243.49583 26.393763 243.49583Q27.346888 243.49583 28.112513 243.83958Q28.878138 244.16771 29.284388 244.82396Q29.690638 245.48021 29.690638 246.19896Q29.690638 246.73021 29.471888 247.15208Q29.237513 247.57396 28.909388 247.83958L31.940638 247.83958L31.940638 248.88646ZM26.471888 247.93333Q27.675013 247.93333 28.253138 247.44896Q28.815638 246.96458 28.815638 246.27708Q28.815638 245.57396 28.221888 245.07396Q27.628138 244.57396 26.378138 244.57396Q25.190638 244.57396 24.612513 245.05833Q24.018763 245.54271 24.018763 246.23021Q24.018763 246.90208 24.643763 247.41771Q25.268763 247.93333 26.471888 247.93333ZM27.690638 242.30833L27.534388 241.27708Q28.159388 241.18333 28.487513 240.79271Q28.815638 240.38646 28.815638 239.65208Q28.815638 238.93333 28.534388 238.58958Q28.237513 238.23021 27.831263 238.23021Q27.471888 238.23021 27.268763 238.54271Q27.128138 238.76146 26.909388 239.62083Q26.612513 240.77708 26.409388 241.23021Q26.190638 241.66771 25.815638 241.90208Q25.440638 242.13646 24.971888 242.13646Q24.565638 242.13646 24.206263 241.94896Q23.846888 241.76146 23.612513 241.43333Q23.440638 241.18333 23.315638 240.76146Q23.190638 240.33958 23.190638 239.83958Q23.190638 239.12083 23.409388 238.57396Q23.612513 238.01146 23.971888 237.74583Q24.331263 237.48021 24.925013 237.38646L25.065638 238.41771Q24.596888 238.48021 24.331263 238.82396Q24.050013 239.15208 24.050013 239.77708Q24.050013 240.49583 24.300013 240.80833Q24.534388 241.12083 24.862513 241.12083Q25.065638 241.12083 25.221888 240.99583Q25.393763 240.85521 25.503138 240.58958Q25.565638 240.43333 25.768763 239.65208Q26.081263 238.52708 26.268763 238.08958Q26.456263 237.65208 26.815638 237.40208Q27.175013 237.15208 27.721888 237.15208Q28.253138 237.15208 28.721888 237.46458Q29.175013 237.76146 29.440638 238.33958Q29.690638 238.91771 29.690638 239.65208Q29.690638 240.87083 29.190638 241.51146Q28.675013 242.13646 27.690638 242.30833ZM27.550013 230.63646L27.675013 229.54271Q28.628138 229.79271 29.159388 230.49583Q29.690638 231.19896 29.690638 232.27708Q29.690638 233.63646 28.846888 234.44896Q28.003138 235.24583 26.487513 235.24583Q24.925013 235.24583 24.065638 234.43333Q23.190638 233.62083 23.190638 232.33958Q23.190638 231.08958 24.034388 230.30833Q24.878138 229.51146 26.425013 229.51146Q26.518763 229.51146 26.706263 229.51146L26.706263 234.15208Q27.737513 234.08958 28.284388 233.57396Q28.815638 233.05833 28.815638 232.27708Q28.815638 231.69896 28.518763 231.29271Q28.206263 230.87083 27.550013 230.63646ZM25.846888 234.08958L25.846888 230.62083Q25.050013 230.68333 24.659388 231.01146Q24.050013 231.52708 24.050013 232.32396Q24.050013 233.05833 24.534388 233.55833Q25.018763 234.04271 25.846888 234.08958ZM29.550013 223.85521L28.768763 223.85521Q29.690638 224.44896 29.690638 225.58958Q29.690638 226.33958 29.284388 226.96458Q28.862513 227.58958 28.128138 227.93333Q27.393763 228.27708 26.440638 228.27708Q25.518763 228.27708 24.753138 227.96458Q23.987513 227.65208 23.596888 227.02708Q23.190638 226.40208 23.190638 225.63646Q23.190638 225.07396 23.425013 224.63646Q23.659388 224.19896 24.034388 223.91771L20.956263 223.91771L20.956263 222.87083L29.550013 222.87083L29.550013 223.85521ZM26.440638 227.18333Q27.643763 227.18333 28.237513 226.68333Q28.815638 226.18333 28.815638 225.49583Q28.815638 224.80833 28.253138 224.32396Q27.690638 223.83958 26.534388 223.83958Q25.253138 223.83958 24.659388 224.33958Q24.065638 224.82396 24.065638 225.54271Q24.065638 226.24583 24.643763 226.71458Q25.206263 227.18333 26.440638 227.18333ZM31.940638 221.87083L31.175013 221.87083L31.175013 214.87083L31.940638 214.87083L31.940638 221.87083ZM28.612513 211.58958L29.534388 211.43333Q29.628138 211.88646 29.628138 212.23021Q29.628138 212.80833 29.456263 213.12083Q29.268763 213.43333 28.971888 213.57396Q28.675013 213.69896 27.721888 213.69896L24.143763 213.69896L24.143763 214.46458L23.331263 214.46458L23.331263 213.69896L21.784388 213.69896L21.159388 212.65208L23.331263 212.65208L23.331263 211.58958L24.143763 211.58958L24.143763 212.65208L27.784388 212.65208Q28.237513 212.65208 28.362513 212.60521Q28.487513 212.54271 28.565638 212.41771Q28.643763 212.29271 28.643763 212.05833Q28.643763 211.87083 28.612513 211.58958ZM22.175013 210.88646L20.956263 210.88646L20.956263 209.82396L22.175013 209.82396L22.175013 210.88646ZM29.550013 210.88646L23.331263 210.88646L23.331263 209.82396L29.550013 209.82396L29.550013 210.88646ZM29.550013 207.88646L23.331263 207.88646L23.331263 206.94896L24.206263 206.94896Q23.737513 206.65208 23.471888 206.16771Q23.190638 205.68333 23.190638 205.05833Q23.190638 204.37083 23.471888 203.93333Q23.753138 203.48021 24.268763 203.30833Q23.190638 202.55833 23.190638 201.38646Q23.190638 200.44896 23.706263 199.96458Q24.206263 199.46458 25.284388 199.46458L29.550013 199.46458L29.550013 200.51146L25.628138 200.51146Q25.003138 200.51146 24.721888 200.62083Q24.440638 200.71458 24.268763 200.98021Q24.096888 201.24583 24.096888 201.62083Q24.096888 202.27708 24.534388 202.71458Q24.971888 203.13646 25.940638 203.13646L29.550013 203.13646L29.550013 204.19896L25.503138 204.19896Q24.800013 204.19896 24.456263 204.46458Q24.096888 204.71458 24.096888 205.29271Q24.096888 205.74583 24.331263 206.12083Q24.565638 206.49583 25.018763 206.66771Q25.471888 206.83958 26.315638 206.83958L29.550013 206.83958L29.550013 207.88646ZM27.550013 192.63646L27.675013 191.54271Q28.628138 191.79271 29.159388 192.49583Q29.690638 193.19896 29.690638 194.27708Q29.690638 195.63646 28.846888 196.44896Q28.003138 197.24583 26.487513 197.24583Q24.925013 197.24583 24.065638 196.43333Q23.190638 195.62083 23.190638 194.33958Q23.190638 193.08958 24.034388 192.30833Q24.878138 191.51146 26.425013 191.51146Q26.518763 191.51146 26.706263 191.51146L26.706263 196.15208Q27.737513 196.08958 28.284388 195.57396Q28.815638 195.05833 28.815638 194.27708Q28.815638 193.69896 28.518763 193.29271Q28.206263 192.87083 27.550013 192.63646ZM25.846888 196.08958L25.846888 192.62083Q25.050013 192.68333 24.659388 193.01146Q24.050013 193.52708 24.050013 194.32396Q24.050013 195.05833 24.534388 195.55833Q25.018763 196.04271 25.846888 196.08958ZM32.08126 184.87083Q30.971888 185.74583 29.503138 186.35521Q28.018763 186.94896 26.440638 186.94896Q25.050013 186.94896 23.768763 186.51146Q22.284388 185.98021 20.815638 184.87083L20.815638 184.12083Q22.034388 184.82396 22.550013 185.05833Q23.362513 185.41771 24.237513 185.62083Q25.331263 185.87083 26.440638 185.87083Q29.268763 185.87083 32.08126 184.12083L32.08126 184.87083ZM29.550013 182.91771L20.956263 182.91771L20.956263 181.85521L29.550013 181.85521L29.550013 182.91771ZM27.550013 175.63646L27.675013 174.54271Q28.628138 174.79271 29.159388 175.49583Q29.690638 176.19896 29.690638 177.27708Q29.690638 178.63646 28.846888 179.44896Q28.003138 180.24583 26.487513 180.24583Q24.925013 180.24583 24.065638 179.43333Q23.190638 178.62083 23.190638 177.33958Q23.190638 176.08958 24.034388 175.30833Q24.878138 174.51146 26.425013 174.51146Q26.518763 174.51146 26.706263 174.51146L26.706263 179.15208Q27.737513 179.08958 28.284388 178.57396Q28.815638 178.05833 28.815638 177.27708Q28.815638 176.69896 28.518763 176.29271Q28.206263 175.87083 27.550013 175.63646ZM25.846888 179.08958L25.846888 175.62083Q25.050013 175.68333 24.659388 176.01146Q24.050013 176.52708 24.050013 177.32396Q24.050013 178.05833 24.534388 178.55833Q25.018763 179.04271 25.846888 179.08958ZM27.690638 173.30833L27.534388 172.27708Q28.159388 172.18333 28.487513 171.79271Q28.815638 171.38646 28.815638 170.65208Q28.815638 169.93333 28.534388 169.58958Q28.237513 169.23021 27.831263 169.23021Q27.471888 169.23021 27.268763 169.54271Q27.128138 169.76146 26.909388 170.62083Q26.612513 171.77708 26.409388 172.23021Q26.190638 172.66771 25.815638 172.90208Q25.440638 173.13646 24.971888 173.13646Q24.565638 173.13646 24.206263 172.94896Q23.846888 172.76146 23.612513 172.43333Q23.440638 172.18333 23.315638 171.76146Q23.190638 171.33958 23.190638 170.83958Q23.190638 170.12083 23.409388 169.57396Q23.612513 169.01146 23.971888 168.74583Q24.331263 168.48021 24.925013 168.38646L25.065638 169.41771Q24.596888 169.48021 24.331263 169.82396Q24.050013 170.15208 24.050013 170.77708Q24.050013 171.49583 24.300013 171.80833Q24.534388 172.12083 24.862513 172.12083Q25.065638 172.12083 25.221888 171.99583Q25.393763 171.85521 25.503138 171.58958Q25.565638 171.43333 25.768763 170.65208Q26.081263 169.52708 26.268763 169.08958Q26.456263 168.65208 26.815638 168.40208Q27.175013 168.15208 27.721888 168.15208Q28.253138 168.15208 28.721888 168.46458Q29.175013 168.76146 29.440638 169.33958Q29.690638 169.91771 29.690638 170.65208Q29.690638 171.87083 29.190638 172.51146Q28.675013 173.13646 27.690638 173.30833ZM27.690638 166.30833L27.534388 165.27708Q28.159388 165.18333 28.487513 164.79271Q28.815638 164.38646 28.815638 163.65208Q28.815638 162.93333 28.534388 162.58958Q28.237513 162.23021 27.831263 162.23021Q27.471888 162.23021 27.268763 162.54271Q27.128138 162.76146 26.909388 163.62083Q26.612513 164.77708 26.409388 165.23021Q26.190638 165.66771 25.815638 165.90208Q25.440638 166.13646 24.971888 166.13646Q24.565638 166.13646 24.206263 165.94896Q23.846888 165.76146 23.612513 165.43333Q23.440638 165.18333 23.315638 164.76146Q23.190638 164.33958 23.190638 163.83958Q23.190638 163.12083 23.409388 162.57396Q23.612513 162.01146 23.971888 161.74583Q24.331263 161.48021 24.925013 161.38646L25.065638 162.41771Q24.596888 162.48021 24.331263 162.82396Q24.050013 163.15208 24.050013 163.77708Q24.050013 164.49583 24.300013 164.80833Q24.534388 165.12083 24.862513 165.12083Q25.065638 165.12083 25.221888 164.99583Q25.393763 164.85521 25.503138 164.58958Q25.565638 164.43333 25.768763 163.65208Q26.081263 162.52708 26.268763 162.08958Q26.456263 161.65208 26.815638 161.40208Q27.175013 161.15208 27.721888 161.15208Q28.253138 161.15208 28.721888 161.46458Q29.175013 161.76146 29.440638 162.33958Q29.690638 162.91771 29.690638 163.65208Q29.690638 164.87083 29.190638 165.51146Q28.675013 166.13646 27.690638 166.30833ZM22.175013 155.88646L20.956263 155.88646L20.956263 154.82396L22.175013 154.82396L22.175013 155.88646ZM29.550013 155.88646L23.331263 155.88646L23.331263 154.82396L29.550013 154.82396L29.550013 155.88646ZM27.690638 153.30833L27.534388 152.27708Q28.159388 152.18333 28.487513 151.79271Q28.815638 151.38646 28.815638 150.65208Q28.815638 149.93333 28.534388 149.58958Q28.237513 149.23021 27.831263 149.23021Q27.471888 149.23021 27.268763 149.54271Q27.128138 149.76146 26.909388 150.62083Q26.612513 151.77708 26.409388 152.23021Q26.190638 152.66771 25.815638 152.90208Q25.440638 153.13646 24.971888 153.13646Q24.565638 153.13646 24.206263 152.94896Q23.846888 152.76146 23.612513 152.43333Q23.440638 152.18333 23.315638 151.76146Q23.190638 151.33958 23.190638 150.83958Q23.190638 150.12083 23.409388 149.57396Q23.612513 149.01146 23.971888 148.74583Q24.331263 148.48021 24.925013 148.38646L25.065638 149.41771Q24.596888 149.48021 24.331263 149.82396Q24.050013 150.15208 24.050013 150.77708Q24.050013 151.49583 24.300013 151.80833Q24.534388 152.12083 24.862513 152.12083Q25.065638 152.12083 25.221888 151.99583Q25.393763 151.85521 25.503138 151.58958Q25.565638 151.43333 25.768763 150.65208Q26.081263 149.52708 26.268763 149.08958Q26.456263 148.65208 26.815638 148.40208Q27.175013 148.15208 27.721888 148.15208Q28.253138 148.15208 28.721888 148.46458Q29.175013 148.76146 29.440638 149.33958Q29.690638 149.91771 29.690638 150.65208Q29.690638 151.87083 29.190638 152.51146Q28.675013 153.13646 27.690638 153.30833ZM29.550013 141.91771L29.550013 142.90208L20.956263 142.90208L20.956263 141.83958L24.018763 141.83958Q23.190638 141.16771 23.190638 140.13646Q23.190638 139.55833 23.425013 139.05833Q23.643763 138.54271 24.065638 138.21458Q24.487513 137.87083 25.081263 137.68333Q25.675013 137.49583 26.346888 137.49583Q27.940638 137.49583 28.815638 138.29271Q29.690638 139.08958 29.690638 140.18333Q29.690638 141.29271 28.768763 141.91771L29.550013 141.91771ZM26.393763 141.93333Q27.503138 141.93333 28.003138 141.62083Q28.815638 141.12083 28.815638 140.27708Q28.815638 139.58958 28.221888 139.08958Q27.628138 138.57396 26.425013 138.57396Q25.206263 138.57396 24.628138 139.05833Q24.050013 139.54271 24.050013 140.23021Q24.050013 140.91771 24.659388 141.43333Q25.253138 141.93333 26.393763 141.93333ZM27.550013 131.63646L27.675013 130.54271Q28.628138 130.79271 29.159388 131.49583Q29.690638 132.19896 29.690638 133.27708Q29.690638 134.63646 28.846888 135.44896Q28.003138 136.24583 26.487513 136.24583Q24.925013 136.24583 24.065638 135.43333Q23.190638 134.62083 23.190638 133.33958Q23.190638 132.08958 24.034388 131.30833Q24.878138 130.51146 26.425013 130.51146Q26.518763 130.51146 26.706263 130.51146L26.706263 135.15208Q27.737513 135.08958 28.284388 134.57396Q28.815638 134.05833 28.815638 133.27708Q28.815638 132.69896 28.518763 132.29271Q28.206263 131.87083 27.550013 131.63646ZM25.846888 135.08958L25.846888 131.62083Q25.050013 131.68333 24.659388 132.01146Q24.050013 132.52708 24.050013 133.32396Q24.050013 134.05833 24.534388 134.55833Q25.018763 135.04271 25.846888 135.08958ZM28.612513 126.589584L29.534388 126.433334Q29.628138 126.88646 29.628138 127.23021Q29.628138 127.808334 29.456263 128.12083Q29.268763 128.43333 28.971888 128.57396Q28.675013 128.69896 27.721888 128.69896L24.143763 128.69896L24.143763 129.46458L23.331263 129.46458L23.331263 128.69896L21.784388 128.69896L21.159388 127.652084L23.331263 127.652084L23.331263 126.589584L24.143763 126.589584L24.143763 127.652084L27.784388 127.652084Q28.237513 127.652084 28.362513 127.60521Q28.487513 127.54271 28.565638 127.41771Q28.643763 127.29271 28.643763 127.058334Q28.643763 126.870834 28.612513 126.589584ZM28.612513 123.589584L29.534388 123.433334Q29.628138 123.88646 29.628138 124.23021Q29.628138 124.808334 29.456263 125.120834Q29.268763 125.433334 28.971888 125.57396Q28.675013 125.69896 27.721888 125.69896L24.143763 125.69896L24.143763 126.464584L23.331263 126.464584L23.331263 125.69896L21.784388 125.69896L21.159388 124.652084L23.331263 124.652084L23.331263 123.589584L24.143763 123.589584L24.143763 124.652084L27.784388 124.652084Q28.237513 124.652084 28.362513 124.60521Q28.487513 124.54271 28.565638 124.41771Q28.643763 124.29271 28.643763 124.058334Q28.643763 123.870834 28.612513 123.589584ZM27.550013 118.63646L27.675013 117.54271Q28.628138 117.79271 29.159388 118.495834Q29.690638 119.19896 29.690638 120.277084Q29.690638 121.63646 28.846888 122.44896Q28.003138 123.245834 26.487513 123.245834Q24.925013 123.245834 24.065638 122.433334Q23.190638 121.620834 23.190638 120.339584Q23.190638 119.089584 24.034388 118.308334Q24.878138 117.51146 26.425013 117.51146Q26.518763 117.51146 26.706263 117.51146L26.706263 122.152084Q27.737513 122.089584 28.284388 121.57396Q28.815638 121.058334 28.815638 120.277084Q28.815638 119.69896 28.518763 119.29271Q28.206263 118.870834 27.550013 118.63646ZM25.846888 122.089584L25.846888 118.620834Q25.050013 118.683334 24.659388 119.01146Q24.050013 119.527084 24.050013 120.32396Q24.050013 121.058334 24.534388 121.558334Q25.018763 122.04271 25.846888 122.089584ZM29.550013 115.902084L23.331263 115.902084L23.331263 114.94896L24.268763 114.94896Q23.612513 114.589584 23.409388 114.29271Q23.190638 113.98021 23.190638 113.60521Q23.190638 113.07396 23.518763 112.527084L24.503138 112.88646Q24.268763 113.277084 24.268763 113.652084Q24.268763 114.01146 24.487513 114.29271Q24.690638 114.558334 25.065638 114.66771Q25.628138 114.85521 26.284388 114.85521L29.550013 114.85521L29.550013 115.902084ZM32.08126 111.19896L32.08126 111.94896Q29.268763 110.19896 26.440638 110.19896Q25.346888 110.19896 24.253138 110.44896Q23.378138 110.652084 22.565638 111.01146Q22.050013 111.245834 20.815638 111.94896L20.815638 111.19896Q22.284388 110.10521 23.768763 109.57396Q25.050013 109.120834 26.440638 109.120834Q28.018763 109.120834 29.503138 109.73021Q30.971888 110.339584 32.08126 111.19896Z" fill-rule="nonzero"/><path fill="#000000" d="M65.05 300.21564Q65.05 298.6844 65.3625 297.7625Q65.675 296.825 66.28438 296.325Q66.90938 295.825 67.84688 295.825Q68.53438 295.825 69.05 296.10626Q69.58125 296.3875 69.925 296.91876Q70.26875 297.4344 70.45625 298.1844Q70.64375 298.9344 70.64375 300.21564Q70.64375 301.73126 70.33125 302.65314Q70.03438 303.575 69.40938 304.09064Q68.8 304.59064 67.84688 304.59064Q66.6125 304.59064 65.89375 303.7Q65.05 302.6375 65.05 300.21564ZM66.12813 300.21564Q66.12813 302.325 66.62813 303.02814Q67.12813 303.73126 67.84688 303.73126Q68.58125 303.73126 69.06563 303.02814Q69.56563 302.325 69.56563 300.21564Q69.56563 298.09064 69.06563 297.40314Q68.58125 296.7 67.83125 296.7Q67.1125 296.7 66.675 297.3094Q66.12813 298.09064 66.12813 300.21564Z" fill-rule="nonzero"/><path fill="#000000" d="M56.596874 223.92326L56.596874 224.93889L50.909374 224.93889Q50.909374 224.56389 51.034374 224.20451Q51.253124 223.62639 51.721874 223.06389Q52.20625 222.50139 53.1125 221.76701Q54.51875 220.61076 55.003124 219.93889Q55.503124 219.26701 55.503124 218.67326Q55.503124 218.04826 55.05 217.62639Q54.596874 217.18889 53.878124 217.18889Q53.1125 217.18889 52.659374 217.64201Q52.20625 218.09514 52.190624 218.90764L51.1125 218.79826Q51.221874 217.57951 51.940624 216.95451Q52.675 216.31389 53.909374 216.31389Q55.14375 216.31389 55.8625 217.00139Q56.58125 217.68889 56.58125 218.70451Q56.58125 219.22014 56.3625 219.72014Q56.159374 220.20451 55.659374 220.76701Q55.175 221.31389 54.05 222.26701Q53.096874 223.06389 52.815624 223.36076Q52.55 223.64201 52.378124 223.92326L56.596874 223.92326ZM58.05 220.70451Q58.05 219.17326 58.3625 218.25139Q58.675 217.31389 59.284374 216.81389Q59.909374 216.31389 60.846874 216.31389Q61.534374 216.31389 62.05 216.59514Q62.58125 216.87639 62.925 217.40764Q63.26875 217.92326 63.45625 218.67326Q63.64375 219.42326 63.64375 220.70451Q63.64375 222.22014 63.33125 223.14201Q63.034374 224.06389 62.409374 224.57951Q61.8 225.07951 60.846874 225.07951Q59.6125 225.07951 58.89375 224.18889Q58.05 223.12639 58.05 220.70451ZM59.128124 220.70451Q59.128124 222.81389 59.628124 223.51701Q60.128124 224.22014 60.846874 224.22014Q61.58125 224.22014 62.065624 223.51701Q62.565624 222.81389 62.565624 220.70451Q62.565624 218.57951 62.065624 217.89201Q61.58125 217.18889 60.83125 217.18889Q60.1125 217.18889 59.675 217.79826Q59.128124 218.57951 59.128124 220.70451ZM65.05 220.70451Q65.05 219.17326 65.3625 218.25139Q65.675 217.31389 66.28438 216.81389Q66.90938 216.31389 67.84688 216.31389Q68.53438 216.31389 69.05 216.59514Q69.58125 216.87639 69.925 217.40764Q70.26875 217.92326 70.45625 218.67326Q70.64375 219.42326 70.64375 220.70451Q70.64375 222.22014 70.33125 223.14201Q70.03438 224.06389 69.40938 224.57951Q68.8 225.07951 67.84688 225.07951Q66.6125 225.07951 65.89375 224.18889Q65.05 223.12639 65.05 220.70451ZM66.12813 220.70451Q66.12813 222.81389 66.62813 223.51701Q67.12813 224.22014 67.84688 224.22014Q68.58125 224.22014 69.06563 223.51701Q69.56563 222.81389 69.56563 220.70451Q69.56563 218.57951 69.06563 217.89201Q68.58125 217.18889 67.83125 217.18889Q67.1125 217.18889 66.675 217.79826Q66.12813 218.57951 66.12813 220.70451Z" fill-rule="nonzero"/><path fill="#000000" d="M54.425 145.42778L54.425 143.36528L50.70625 143.36528L50.70625 142.39653L54.628124 136.83403L55.4875 136.83403L55.4875 142.39653L56.64375 142.39653L56.64375 143.36528L55.4875 143.36528L55.4875 145.42778L54.425 145.42778ZM54.425 142.39653L54.425 138.53716L51.7375 142.39653L54.425 142.39653ZM58.05 141.1934Q58.05 139.66216 58.3625 138.74028Q58.675 137.80278 59.284374 137.30278Q59.909374 136.80278 60.846874 136.80278Q61.534374 136.80278 62.05 137.08403Q62.58125 137.36528 62.925 137.89653Q63.26875 138.41216 63.45625 139.16216Q63.64375 139.91216 63.64375 141.1934Q63.64375 142.70903 63.33125 143.6309Q63.034374 144.55278 62.409374 145.0684Q61.8 145.5684 60.846874 145.5684Q59.6125 145.5684 58.89375 144.67778Q58.05 143.61528 58.05 141.1934ZM59.128124 141.1934Q59.128124 143.30278 59.628124 144.0059Q60.128124 144.70903 60.846874 144.70903Q61.58125 144.70903 62.065624 144.0059Q62.565624 143.30278 62.565624 141.1934Q62.565624 139.0684 62.065624 138.3809Q61.58125 137.67778 60.83125 137.67778Q60.1125 137.67778 59.675 138.28716Q59.128124 139.0684 59.128124 141.1934ZM65.05 141.1934Q65.05 139.66216 65.3625 138.74028Q65.675 137.80278 66.28438 137.30278Q66.90938 136.80278 67.84688 136.80278Q68.53438 136.80278 69.05 137.08403Q69.58125 137.36528 69.925 137.89653Q70.26875 138.41216 70.45625 139.16216Q70.64375 139.91216 70.64375 141.1934Q70.64375 142.70903 70.33125 143.6309Q70.03438 144.55278 69.40938 145.0684Q68.8 145.5684 67.84688 145.5684Q66.6125 145.5684 65.89375 144.67778Q65.05 143.61528 65.05 141.1934ZM66.12813 141.1934Q66.12813 143.30278 66.62813 144.0059Q67.12813 144.70903 67.84688 144.70903Q68.58125 144.70903 69.06563 144.0059Q69.56563 143.30278 69.56563 141.1934Q69.56563 139.0684 69.06563 138.3809Q68.58125 137.67778 67.83125 137.67778Q67.1125 137.67778 66.675 138.28716Q66.12813 139.0684 66.12813 141.1934Z" fill-rule="nonzero"/><path fill="#000000" d="M56.51875 59.43229L55.471874 59.510414Q55.33125 58.885414 55.08125 58.604164Q54.64375 58.15104 54.01875 58.15104Q53.51875 58.15104 53.128124 58.43229Q52.64375 58.80729 52.346874 59.510414Q52.065624 60.197914 52.05 61.479164Q52.425 60.90104 52.971874 60.61979Q53.534374 60.33854 54.14375 60.33854Q55.190624 60.33854 55.925 61.11979Q56.675 61.90104 56.675 63.11979Q56.675 63.93229 56.315624 64.635414Q55.971874 65.322914 55.3625 65.697914Q54.753124 66.05729 53.9875 66.05729Q52.659374 66.05729 51.83125 65.08854Q51.003124 64.11979 51.003124 61.90104Q51.003124 59.40104 51.925 58.27604Q52.721874 57.291664 54.08125 57.291664Q55.096874 57.291664 55.7375 57.86979Q56.39375 58.43229 56.51875 59.43229ZM52.221874 63.135414Q52.221874 63.68229 52.440624 64.18229Q52.675 64.666664 53.08125 64.93229Q53.503124 65.197914 53.971874 65.197914Q54.628124 65.197914 55.1125 64.666664Q55.596874 64.11979 55.596874 63.197914Q55.596874 62.30729 55.1125 61.791664Q54.64375 61.27604 53.925 61.27604Q53.20625 61.27604 52.70625 61.791664Q52.221874 62.30729 52.221874 63.135414ZM58.05 61.68229Q58.05 60.15104 58.3625 59.229164Q58.675 58.291664 59.284374 57.791664Q59.909374 57.291664 60.846874 57.291664Q61.534374 57.291664 62.05 57.572914Q62.58125 57.854164 62.925 58.385414Q63.26875 58.90104 63.45625 59.65104Q63.64375 60.40104 63.64375 61.68229Q63.64375 63.197914 63.33125 64.11979Q63.034374 65.041664 62.409374 65.55729Q61.8 66.05729 60.846874 66.05729Q59.6125 66.05729 58.89375 65.166664Q58.05 64.104164 58.05 61.68229ZM59.128124 61.68229Q59.128124 63.791664 59.628124 64.49479Q60.128124 65.197914 60.846874 65.197914Q61.58125 65.197914 62.065624 64.49479Q62.565624 63.791664 62.565624 61.68229Q62.565624 59.55729 62.065624 58.86979Q61.58125 58.166664 60.83125 58.166664Q60.1125 58.166664 59.675 58.77604Q59.128124 59.55729 59.128124 61.68229ZM65.05 61.68229Q65.05 60.15104 65.3625 59.229164Q65.675 58.291664 66.28438 57.791664Q66.90938 57.291664 67.84688 57.291664Q68.53438 57.291664 69.05 57.572914Q69.58125 57.854164 69.925 58.385414Q70.26875 58.90104 70.45625 59.65104Q70.64375 60.40104 70.64375 61.68229Q70.64375 63.197914 70.33125 64.11979Q70.03438 65.041664 69.40938 65.55729Q68.8 66.05729 67.84688 66.05729Q66.6125 66.05729 65.89375 65.166664Q65.05 64.104164 65.05 61.68229ZM66.12813 61.68229Q66.12813 63.791664 66.62813 64.49479Q67.12813 65.197914 67.84688 65.197914Q68.58125 65.197914 69.06563 64.49479Q69.56563 63.791664 69.56563 61.68229Q69.56563 59.55729 69.06563 58.86979Q68.58125 58.166664 67.83125 58.166664Q67.1125 58.166664 66.675 58.77604Q66.12813 59.55729 66.12813 61.68229Z" fill-rule="nonzero"/><path fill="#000000" d="M116.53825 317.45L116.53825 311.23126L117.47575 311.23126L117.47575 312.10626Q117.77263 311.6375 118.257 311.3719Q118.74138 311.09064 119.36638 311.09064Q120.05388 311.09064 120.49138 311.3719Q120.9445 311.65314 121.11638 312.16876Q121.86638 311.09064 123.03825 311.09064Q123.97575 311.09064 124.46013 311.60626Q124.96013 312.10626 124.96013 313.1844L124.96013 317.45L123.91325 317.45L123.91325 313.52814Q123.91325 312.90314 123.80388 312.6219Q123.71013 312.34064 123.4445 312.16876Q123.17888 311.9969 122.80388 311.9969Q122.14763 311.9969 121.71013 312.4344Q121.28825 312.8719 121.28825 313.84064L121.28825 317.45L120.22575 317.45L120.22575 313.40314Q120.22575 312.7 119.96013 312.35626Q119.71013 311.9969 119.132 311.9969Q118.67888 311.9969 118.30388 312.23126Q117.92888 312.46564 117.757 312.91876Q117.58513 313.3719 117.58513 314.21564L117.58513 317.45L116.53825 317.45ZM131.60075 316.6844Q131.007 317.1844 130.46013 317.3875Q129.92888 317.59064 129.30388 317.59064Q128.27263 317.59064 127.72575 317.09064Q127.17888 316.59064 127.17888 315.8094Q127.17888 315.35626 127.382 314.98126Q127.58513 314.59064 127.92888 314.3719Q128.27263 314.1375 128.6945 314.02814Q128.99138 313.9344 129.632 313.85626Q130.89763 313.71564 131.507 313.4969Q131.507 313.27814 131.507 313.23126Q131.507 312.575 131.21013 312.3094Q130.80388 311.96564 130.007 311.96564Q129.27263 311.96564 128.91325 312.23126Q128.55388 312.48126 128.382 313.1375L127.35075 312.9969Q127.49138 312.34064 127.8195 311.9344Q128.14763 311.52814 128.757 311.3094Q129.36638 311.09064 130.16325 311.09064Q130.96013 311.09064 131.46013 311.27814Q131.96013 311.46564 132.1945 311.7469Q132.42888 312.02814 132.52263 312.46564Q132.5695 312.73126 132.5695 313.4344L132.5695 314.84064Q132.5695 316.3094 132.632 316.7Q132.71013 317.09064 132.91325 317.45L131.80388 317.45Q131.64763 317.1219 131.60075 316.6844ZM131.507 314.325Q130.92888 314.5594 129.78825 314.73126Q129.132 314.825 128.86638 314.95Q128.60075 315.0594 128.4445 315.27814Q128.30388 315.4969 128.30388 315.77814Q128.30388 316.2 128.61638 316.48126Q128.9445 316.7625 129.55388 316.7625Q130.16325 316.7625 130.632 316.4969Q131.11638 316.23126 131.33513 315.7625Q131.507 315.40314 131.507 314.71564L131.507 314.325ZM134.52263 317.45L134.52263 311.23126L135.47575 311.23126L135.47575 312.16876Q135.83513 311.5125 136.132 311.3094Q136.4445 311.09064 136.8195 311.09064Q137.35075 311.09064 137.89763 311.41876L137.53825 312.40314Q137.14763 312.16876 136.77263 312.16876Q136.41325 312.16876 136.132 312.3875Q135.86638 312.59064 135.757 312.96564Q135.5695 313.52814 135.5695 314.1844L135.5695 317.45L134.52263 317.45ZM138.53825 310.075L138.53825 308.85626L139.60075 308.85626L139.60075 310.075L138.53825 310.075ZM138.53825 317.45L138.53825 311.23126L139.60075 311.23126L139.60075 317.45L138.53825 317.45ZM145.60075 316.6844Q145.007 317.1844 144.46013 317.3875Q143.92888 317.59064 143.30388 317.59064Q142.27263 317.59064 141.72575 317.09064Q141.17888 316.59064 141.17888 315.8094Q141.17888 315.35626 141.382 314.98126Q141.58513 314.59064 141.92888 314.3719Q142.27263 314.1375 142.6945 314.02814Q142.99138 313.9344 143.632 313.85626Q144.89763 313.71564 145.507 313.4969Q145.507 313.27814 145.507 313.23126Q145.507 312.575 145.21013 312.3094Q144.80388 311.96564 144.007 311.96564Q143.27263 311.96564 142.91325 312.23126Q142.55388 312.48126 142.382 313.1375L141.35075 312.9969Q141.49138 312.34064 141.8195 311.9344Q142.14763 311.52814 142.757 311.3094Q143.36638 311.09064 144.16325 311.09064Q144.96013 311.09064 145.46013 311.27814Q145.96013 311.46564 146.1945 311.7469Q146.42888 312.02814 146.52263 312.46564Q146.5695 312.73126 146.5695 313.4344L146.5695 314.84064Q146.5695 316.3094 146.632 316.7Q146.71013 317.09064 146.91325 317.45L145.80388 317.45Q145.64763 317.1219 145.60075 316.6844ZM145.507 314.325Q144.92888 314.5594 143.78825 314.73126Q143.132 314.825 142.86638 314.95Q142.60075 315.0594 142.4445 315.27814Q142.30388 315.4969 142.30388 315.77814Q142.30388 316.2 142.61638 316.48126Q142.9445 316.7625 143.55388 316.7625Q144.16325 316.7625 144.632 316.4969Q145.11638 316.23126 145.33513 315.7625Q145.507 315.40314 145.507 314.71564L145.507 314.325ZM152.5695 317.45L152.5695 316.66876Q151.97575 317.59064 150.83513 317.59064Q150.08513 317.59064 149.46013 317.1844Q148.83513 316.7625 148.49138 316.02814Q148.14763 315.29376 148.14763 314.34064Q148.14763 313.41876 148.46013 312.65314Q148.77263 311.8875 149.39763 311.4969Q150.02263 311.09064 150.78825 311.09064Q151.35075 311.09064 151.78825 311.325Q152.22575 311.5594 152.507 311.9344L152.507 308.85626L153.55388 308.85626L153.55388 317.45L152.5695 317.45ZM149.24138 314.34064Q149.24138 315.54376 149.74138 316.1375Q150.24138 316.71564 150.92888 316.71564Q151.61638 316.71564 152.10075 316.15314Q152.58513 315.59064 152.58513 314.4344Q152.58513 313.15314 152.08513 312.5594Q151.60075 311.96564 150.882 311.96564Q150.17888 311.96564 149.71013 312.54376Q149.24138 313.10626 149.24138 314.34064ZM156.507 317.45L155.52263 317.45L155.52263 308.85626L156.58513 308.85626L156.58513 311.91876Q157.257 311.09064 158.28825 311.09064Q158.86638 311.09064 159.36638 311.325Q159.882 311.54376 160.21013 311.96564Q160.55388 312.3875 160.74138 312.98126Q160.92888 313.575 160.92888 314.2469Q160.92888 315.84064 160.132 316.71564Q159.33513 317.59064 158.24138 317.59064Q157.132 317.59064 156.507 316.66876L156.507 317.45ZM156.49138 314.29376Q156.49138 315.40314 156.80388 315.90314Q157.30388 316.71564 158.14763 316.71564Q158.83513 316.71564 159.33513 316.1219Q159.85075 315.52814 159.85075 314.325Q159.85075 313.10626 159.36638 312.52814Q158.882 311.95 158.1945 311.95Q157.507 311.95 156.99138 312.5594Q156.49138 313.15314 156.49138 314.29376ZM162.8195 312.4344L162.8195 311.23126L164.02263 311.23126L164.02263 312.4344L162.8195 312.4344ZM162.8195 317.45L162.8195 316.2469L164.02263 316.2469L164.02263 317.45L162.8195 317.45ZM169.21013 317.45L168.16325 317.45L168.16325 310.73126Q167.77263 311.09064 167.14763 311.46564Q166.53825 311.825 166.05388 311.9969L166.05388 310.98126Q166.92888 310.5594 167.58513 309.98126Q168.257 309.3875 168.53825 308.825L169.21013 308.825L169.21013 317.45ZM172.24138 313.21564Q172.24138 311.6844 172.55388 310.7625Q172.86638 309.825 173.47575 309.325Q174.10075 308.825 175.03825 308.825Q175.72575 308.825 176.24138 309.10626Q176.77263 309.3875 177.11638 309.91876Q177.46013 310.4344 177.64763 311.1844Q177.83513 311.9344 177.83513 313.21564Q177.83513 314.73126 177.52263 315.65314Q177.22575 316.575 176.60075 317.09064Q175.99138 317.59064 175.03825 317.59064Q173.80388 317.59064 173.08513 316.7Q172.24138 315.6375 172.24138 313.21564ZM173.3195 313.21564Q173.3195 315.325 173.8195 316.02814Q174.3195 316.73126 175.03825 316.73126Q175.77263 316.73126 176.257 316.02814Q176.757 315.325 176.757 313.21564Q176.757 311.09064 176.257 310.40314Q175.77263 309.7 175.02263 309.7Q174.30388 309.7 173.86638 310.3094Q173.3195 311.09064 173.3195 313.21564ZM179.83513 317.45L179.83513 316.2469L181.03825 316.2469L181.03825 317.45L179.83513 317.45ZM186.21013 317.45L185.16325 317.45L185.16325 310.73126Q184.77263 311.09064 184.14763 311.46564Q183.53825 311.825 183.05388 311.9969L183.05388 310.98126Q183.92888 310.5594 184.58513 309.98126Q185.257 309.3875 185.53825 308.825L186.21013 308.825L186.21013 317.45ZM193.21013 317.45L192.16325 317.45L192.16325 310.73126Q191.77263 311.09064 191.14763 311.46564Q190.53825 311.825 190.05388 311.9969L190.05388 310.98126Q190.92888 310.5594 191.58513 309.98126Q192.257 309.3875 192.53825 308.825L193.21013 308.825L193.21013 317.45Z" fill-rule="nonzero"/><path fill="#000000" d="M245.87733 317.45L245.87733 311.23126L246.81483 311.23126L246.81483 312.10626Q247.11171 311.6375 247.59608 311.3719Q248.08046 311.09064 248.70546 311.09064Q249.39296 311.09064 249.83046 311.3719Q250.28358 311.65314 250.45546 312.16876Q251.20546 311.09064 252.37733 311.09064Q253.31483 311.09064 253.79921 311.60626Q254.29921 312.10626 254.29921 313.1844L254.29921 317.45L253.25233 317.45L253.25233 313.52814Q253.25233 312.90314 253.14296 312.6219Q253.04921 312.34064 252.78358 312.16876Q252.51796 311.9969 252.14296 311.9969Q251.48671 311.9969 251.04921 312.4344Q250.62733 312.8719 250.62733 313.84064L250.62733 317.45L249.56483 317.45L249.56483 313.40314Q249.56483 312.7 249.29921 312.35626Q249.04921 311.9969 248.47108 311.9969Q248.01796 311.9969 247.64296 312.23126Q247.26796 312.46564 247.09608 312.91876Q246.92421 313.3719 246.92421 314.21564L246.92421 317.45L245.87733 317.45ZM256.83044 319.84064L256.70544 318.85626Q257.0492 318.95 257.31482 318.95Q257.65857 318.95 257.8617 318.825Q258.08044 318.71564 258.22107 318.5125Q258.31482 318.34064 258.5492 317.71564Q258.56482 317.6375 258.64294 317.46564L256.26794 311.23126L257.40857 311.23126L258.70544 314.825Q258.95544 315.5125 259.15857 316.27814Q259.34607 315.54376 259.59607 314.85626L260.9242 311.23126L261.97107 311.23126L259.6117 317.5594Q259.22107 318.575 259.01794 318.96564Q258.7367 319.4969 258.3617 319.73126Q258.00232 319.98126 257.50232 319.98126Q257.20544 319.98126 256.83044 319.84064ZM261.45544 315.59064L262.4867 315.4344Q262.58044 316.0594 262.97107 316.3875Q263.37732 316.71564 264.1117 316.71564Q264.83044 316.71564 265.1742 316.4344Q265.53357 316.1375 265.53357 315.73126Q265.53357 315.3719 265.22107 315.16876Q265.00232 315.02814 264.14294 314.8094Q262.9867 314.5125 262.53357 314.3094Q262.09607 314.09064 261.8617 313.71564Q261.62732 313.34064 261.62732 312.8719Q261.62732 312.46564 261.81482 312.10626Q262.00232 311.7469 262.33044 311.5125Q262.58044 311.34064 263.00232 311.21564Q263.4242 311.09064 263.9242 311.09064Q264.64294 311.09064 265.18982 311.3094Q265.75232 311.5125 266.01794 311.8719Q266.28357 312.23126 266.37732 312.825L265.34607 312.96564Q265.28357 312.4969 264.93982 312.23126Q264.6117 311.95 263.9867 311.95Q263.26794 311.95 262.95544 312.2Q262.64294 312.4344 262.64294 312.7625Q262.64294 312.96564 262.76794 313.1219Q262.90857 313.29376 263.1742 313.40314Q263.33044 313.46564 264.1117 313.66876Q265.2367 313.98126 265.6742 314.16876Q266.1117 314.35626 266.3617 314.71564Q266.6117 315.075 266.6117 315.6219Q266.6117 316.15314 266.2992 316.6219Q266.00232 317.075 265.4242 317.34064Q264.84607 317.59064 264.1117 317.59064Q262.89294 317.59064 262.25232 317.09064Q261.62732 316.575 261.45544 315.59064ZM272.84607 319.84064L272.84607 316.79376Q272.59607 317.1375 272.14294 317.3719Q271.70544 317.59064 271.20544 317.59064Q270.09607 317.59064 269.2992 316.71564Q268.50232 315.825 268.50232 314.27814Q268.50232 313.34064 268.83044 312.60626Q269.15857 311.85626 269.76794 311.48126Q270.39294 311.09064 271.12732 311.09064Q272.28357 311.09064 272.93982 312.0594L272.93982 311.23126L273.89294 311.23126L273.89294 319.84064L272.84607 319.84064ZM269.58044 314.325Q269.58044 315.52814 270.08044 316.1219Q270.59607 316.71564 271.2992 316.71564Q271.97107 316.71564 272.45544 316.15314Q272.93982 315.575 272.93982 314.41876Q272.93982 313.16876 272.4242 312.54376Q271.9242 311.91876 271.22107 311.91876Q270.5492 311.91876 270.06482 312.5125Q269.58044 313.09064 269.58044 314.325ZM275.84607 317.45L275.84607 308.85626L276.90857 308.85626L276.90857 317.45L275.84607 317.45ZM279.15857 312.4344L279.15857 311.23126L280.3617 311.23126L280.3617 312.4344L279.15857 312.4344ZM279.15857 317.45L279.15857 316.2469L280.3617 316.2469L280.3617 317.45L279.15857 317.45ZM281.58044 315.2L282.68982 315.10626Q282.81482 315.91876 283.25232 316.325Q283.70544 316.73126 284.34607 316.73126Q285.09607 316.73126 285.62732 316.15314Q286.15857 315.575 286.15857 314.6375Q286.15857 313.73126 285.64294 313.21564Q285.14294 312.6844 284.31482 312.6844Q283.81482 312.6844 283.39294 312.91876Q282.9867 313.15314 282.75232 313.5125L281.76794 313.3875L282.59607 308.98126L286.87732 308.98126L286.87732 309.98126L283.43982 309.98126L282.9867 312.29376Q283.75232 311.7469 284.59607 311.7469Q285.72107 311.7469 286.4867 312.52814Q287.26794 313.3094 287.26794 314.54376Q287.26794 315.7 286.59607 316.5594Q285.76794 317.59064 284.34607 317.59064Q283.1742 317.59064 282.4242 316.9344Q281.68982 316.27814 281.58044 315.2ZM289.1742 317.45L289.1742 316.2469L290.37732 316.2469L290.37732 317.45L289.1742 317.45ZM291.64294 309.98126L291.64294 308.96564L297.20544 308.96564L297.20544 309.79376Q296.39294 310.66876 295.58044 312.1219Q294.78357 313.5594 294.34607 315.09064Q294.01794 316.16876 293.93982 317.45L292.84607 317.45Q292.8617 316.4344 293.2367 314.9969Q293.62732 313.5594 294.33044 312.23126Q295.0492 310.90314 295.8617 309.98126L291.64294 309.98126Z" fill-rule="nonzero"/><path fill="#000000" d="M361.7164 317.45L361.7164 311.23126L362.6539 311.23126L362.6539 312.10626Q362.95078 311.6375 363.43515 311.3719Q363.91953 311.09064 364.54453 311.09064Q365.23203 311.09064 365.66953 311.3719Q366.12265 311.65314 366.29453 312.16876Q367.04453 311.09064 368.2164 311.09064Q369.1539 311.09064 369.63828 311.60626Q370.13828 312.10626 370.13828 313.1844L370.13828 317.45L369.0914 317.45L369.0914 313.52814Q369.0914 312.90314 368.98203 312.6219Q368.88828 312.34064 368.62265 312.16876Q368.35703 311.9969 367.98203 311.9969Q367.32578 311.9969 366.88828 312.4344Q366.4664 312.8719 366.4664 313.84064L366.4664 317.45L365.4039 317.45L365.4039 313.40314Q365.4039 312.7 365.13828 312.35626Q364.88828 311.9969 364.31015 311.9969Q363.85703 311.9969 363.48203 312.23126Q363.10703 312.46564 362.93515 312.91876Q362.76328 313.3719 362.76328 314.21564L362.76328 317.45L361.7164 317.45ZM372.66953 319.84064L372.54453 318.85626Q372.88828 318.95 373.1539 318.95Q373.49765 318.95 373.70078 318.825Q373.91953 318.71564 374.06015 318.5125Q374.1539 318.34064 374.38828 317.71564Q374.4039 317.6375 374.48203 317.46564L372.10703 311.23126L373.24765 311.23126L374.54453 314.825Q374.79453 315.5125 374.99765 316.27814Q375.18515 315.54376 375.43515 314.85626L376.76328 311.23126L377.81015 311.23126L375.45078 317.5594Q375.06015 318.575 374.85703 318.96564Q374.57578 319.4969 374.20078 319.73126Q373.8414 319.98126 373.3414 319.98126Q373.04453 319.98126 372.66953 319.84064ZM377.29453 315.59064L378.32578 315.4344Q378.41953 316.0594 378.81015 316.3875Q379.2164 316.71564 379.95078 316.71564Q380.66953 316.71564 381.01328 316.4344Q381.37265 316.1375 381.37265 315.73126Q381.37265 315.3719 381.06015 315.16876Q380.8414 315.02814 379.98203 314.8094Q378.82578 314.5125 378.37265 314.3094Q377.93515 314.09064 377.70078 313.71564Q377.4664 313.34064 377.4664 312.8719Q377.4664 312.46564 377.6539 312.10626Q377.8414 311.7469 378.16953 311.5125Q378.41953 311.34064 378.8414 311.21564Q379.26328 311.09064 379.76328 311.09064Q380.48203 311.09064 381.0289 311.3094Q381.5914 311.5125 381.85703 311.8719Q382.12265 312.23126 382.2164 312.825L381.18515 312.96564Q381.12265 312.4969 380.7789 312.23126Q380.45078 311.95 379.82578 311.95Q379.10703 311.95 378.79453 312.2Q378.48203 312.4344 378.48203 312.7625Q378.48203 312.96564 378.60703 313.1219Q378.74765 313.29376 379.01328 313.40314Q379.16953 313.46564 379.95078 313.66876Q381.07578 313.98126 381.51328 314.16876Q381.95078 314.35626 382.20078 314.71564Q382.45078 315.075 382.45078 315.6219Q382.45078 316.15314 382.13828 316.6219Q381.8414 317.075 381.26328 317.34064Q380.68515 317.59064 379.95078 317.59064Q378.73203 317.59064 378.0914 317.09064Q377.4664 316.575 377.29453 315.59064ZM388.68515 319.84064L388.68515 316.79376Q388.43515 317.1375 387.98203 317.3719Q387.54453 317.59064 387.04453 317.59064Q385.93515 317.59064 385.13828 316.71564Q384.3414 315.825 384.3414 314.27814Q384.3414 313.34064 384.66953 312.60626Q384.99765 311.85626 385.60703 311.48126Q386.23203 311.09064 386.9664 311.09064Q388.12265 311.09064 388.7789 312.0594L388.7789 311.23126L389.73203 311.23126L389.73203 319.84064L388.68515 319.84064ZM385.41953 314.325Q385.41953 315.52814 385.91953 316.1219Q386.43515 316.71564 387.13828 316.71564Q387.81015 316.71564 388.29453 316.15314Q388.7789 315.575 388.7789 314.41876Q388.7789 313.16876 388.26328 312.54376Q387.76328 311.91876 387.06015 311.91876Q386.38828 311.91876 385.9039 312.5125Q385.41953 313.09064 385.41953 314.325ZM391.68515 317.45L391.68515 308.85626L392.74765 308.85626L392.74765 317.45L391.68515 317.45ZM394.99765 312.4344L394.99765 311.23126L396.20078 311.23126L396.20078 312.4344L394.99765 312.4344ZM394.99765 317.45L394.99765 316.2469L396.20078 316.2469L396.20078 317.45L394.99765 317.45ZM399.04453 312.79376Q398.38828 312.54376 398.06015 312.10626Q397.74765 311.65314 397.74765 311.04376Q397.74765 310.10626 398.41953 309.46564Q399.10703 308.825 400.2164 308.825Q401.3414 308.825 402.0289 309.48126Q402.7164 310.1375 402.7164 311.075Q402.7164 311.66876 402.4039 312.10626Q402.0914 312.54376 401.45078 312.79376Q402.24765 313.04376 402.6539 313.6219Q403.06015 314.2 403.06015 314.9969Q403.06015 316.09064 402.2789 316.84064Q401.51328 317.59064 400.23203 317.59064Q398.9664 317.59064 398.18515 316.84064Q397.4039 316.09064 397.4039 314.96564Q397.4039 314.1219 397.82578 313.5594Q398.26328 312.9969 399.04453 312.79376ZM398.82578 310.9969Q398.82578 311.60626 399.2164 311.9969Q399.62265 312.3875 400.24765 312.3875Q400.85703 312.3875 401.24765 312.0125Q401.63828 311.6219 401.63828 311.0594Q401.63828 310.48126 401.23203 310.09064Q400.82578 309.6844 400.23203 309.6844Q399.62265 309.6844 399.2164 310.075Q398.82578 310.46564 398.82578 310.9969ZM398.49765 314.96564Q398.49765 315.41876 398.70078 315.84064Q398.91953 316.2625 399.3414 316.4969Q399.76328 316.73126 400.24765 316.73126Q400.99765 316.73126 401.48203 316.2469Q401.98203 315.7625 401.98203 315.0125Q401.98203 314.2469 401.48203 313.7469Q400.98203 313.2469 400.2164 313.2469Q399.4664 313.2469 398.98203 313.7469Q398.49765 314.23126 398.49765 314.96564ZM405.01328 317.45L405.01328 316.2469L406.2164 316.2469L406.2164 317.45L405.01328 317.45ZM407.41953 313.21564Q407.41953 311.6844 407.73203 310.7625Q408.04453 309.825 408.6539 309.325Q409.2789 308.825 410.2164 308.825Q410.9039 308.825 411.41953 309.10626Q411.95078 309.3875 412.29453 309.91876Q412.63828 310.4344 412.82578 311.1844Q413.01328 311.9344 413.01328 313.21564Q413.01328 314.73126 412.70078 315.65314Q412.4039 316.575 411.7789 317.09064Q411.16953 317.59064 410.2164 317.59064Q408.98203 317.59064 408.26328 316.7Q407.41953 315.6375 407.41953 313.21564ZM408.49765 313.21564Q408.49765 315.325 408.99765 316.02814Q409.49765 316.73126 410.2164 316.73126Q410.95078 316.73126 411.43515 316.02814Q411.93515 315.325 411.93515 313.21564Q411.93515 311.09064 411.43515 310.40314Q410.95078 309.7 410.20078 309.7Q409.48203 309.7 409.04453 310.3094Q408.49765 311.09064 408.49765 313.21564Z" fill-rule="nonzero"/><path fill="#000000" d="M477.55548 317.45L477.55548 311.23126L478.49298 311.23126L478.49298 312.10626Q478.78986 311.6375 479.27423 311.3719Q479.7586 311.09064 480.3836 311.09064Q481.0711 311.09064 481.5086 311.3719Q481.96173 311.65314 482.1336 312.16876Q482.8836 311.09064 484.05548 311.09064Q484.99298 311.09064 485.47736 311.60626Q485.97736 312.10626 485.97736 313.1844L485.97736 317.45L484.93048 317.45L484.93048 313.52814Q484.93048 312.90314 484.8211 312.6219Q484.72736 312.34064 484.46173 312.16876Q484.1961 311.9969 483.8211 311.9969Q483.16486 311.9969 482.72736 312.4344Q482.30548 312.8719 482.30548 313.84064L482.30548 317.45L481.24298 317.45L481.24298 313.40314Q481.24298 312.7 480.97736 312.35626Q480.72736 311.9969 480.14923 311.9969Q479.6961 311.9969 479.3211 312.23126Q478.9461 312.46564 478.77423 312.91876Q478.60236 313.3719 478.60236 314.21564L478.60236 317.45L477.55548 317.45ZM488.5086 319.84064L488.3836 318.85626Q488.72736 318.95 488.99298 318.95Q489.33673 318.95 489.53986 318.825Q489.7586 318.71564 489.89923 318.5125Q489.99298 318.34064 490.22736 317.71564Q490.24298 317.6375 490.3211 317.46564L487.9461 311.23126L489.08673 311.23126L490.3836 314.825Q490.6336 315.5125 490.83673 316.27814Q491.02423 315.54376 491.27423 314.85626L492.60236 311.23126L493.64923 311.23126L491.28986 317.5594Q490.89923 318.575 490.6961 318.96564Q490.41486 319.4969 490.03986 319.73126Q489.68048 319.98126 489.18048 319.98126Q488.8836 319.98126 488.5086 319.84064ZM493.1336 315.59064L494.16486 315.4344Q494.2586 316.0594 494.64923 316.3875Q495.05548 316.71564 495.78986 316.71564Q496.5086 316.71564 496.85236 316.4344Q497.21173 316.1375 497.21173 315.73126Q497.21173 315.3719 496.89923 315.16876Q496.68048 315.02814 495.8211 314.8094Q494.66486 314.5125 494.21173 314.3094Q493.77423 314.09064 493.53986 313.71564Q493.30548 313.34064 493.30548 312.8719Q493.30548 312.46564 493.49298 312.10626Q493.68048 311.7469 494.0086 311.5125Q494.2586 311.34064 494.68048 311.21564Q495.10236 311.09064 495.60236 311.09064Q496.3211 311.09064 496.86798 311.3094Q497.43048 311.5125 497.6961 311.8719Q497.96173 312.23126 498.05548 312.825L497.02423 312.96564Q496.96173 312.4969 496.61798 312.23126Q496.28986 311.95 495.66486 311.95Q494.9461 311.95 494.6336 312.2Q494.3211 312.4344 494.3211 312.7625Q494.3211 312.96564 494.4461 313.1219Q494.58673 313.29376 494.85236 313.40314Q495.0086 313.46564 495.78986 313.66876Q496.91486 313.98126 497.35236 314.16876Q497.78986 314.35626 498.03986 314.71564Q498.28986 315.075 498.28986 315.6219Q498.28986 316.15314 497.97736 316.6219Q497.68048 317.075 497.10236 317.34064Q496.52423 317.59064 495.78986 317.59064Q494.5711 317.59064 493.93048 317.09064Q493.30548 316.575 493.1336 315.59064ZM504.52423 319.84064L504.52423 316.79376Q504.27423 317.1375 503.8211 317.3719Q503.3836 317.59064 502.8836 317.59064Q501.77423 317.59064 500.97736 316.71564Q500.18048 315.825 500.18048 314.27814Q500.18048 313.34064 500.5086 312.60626Q500.83673 311.85626 501.4461 311.48126Q502.0711 311.09064 502.80548 311.09064Q503.96173 311.09064 504.61798 312.0594L504.61798 311.23126L505.5711 311.23126L505.5711 319.84064L504.52423 319.84064ZM501.2586 314.325Q501.2586 315.52814 501.7586 316.1219Q502.27423 316.71564 502.97736 316.71564Q503.64923 316.71564 504.1336 316.15314Q504.61798 315.575 504.61798 314.41876Q504.61798 313.16876 504.10236 312.54376Q503.60236 311.91876 502.89923 311.91876Q502.22736 311.91876 501.74298 312.5125Q501.2586 313.09064 501.2586 314.325ZM507.52423 317.45L507.52423 308.85626L508.58673 308.85626L508.58673 317.45L507.52423 317.45ZM510.83673 312.4344L510.83673 311.23126L512.03986 311.23126L512.03986 312.4344L510.83673 312.4344ZM510.83673 317.45L510.83673 316.2469L512.03986 316.2469L512.03986 317.45L510.83673 317.45ZM514.8836 312.79376Q514.22736 312.54376 513.89923 312.10626Q513.58673 311.65314 513.58673 311.04376Q513.58673 310.10626 514.2586 309.46564Q514.9461 308.825 516.0555 308.825Q517.1805 308.825 517.868 309.48126Q518.5555 310.1375 518.5555 311.075Q518.5555 311.66876 518.243 312.10626Q517.9305 312.54376 517.28986 312.79376Q518.08673 313.04376 518.493 313.6219Q518.89923 314.2 518.89923 314.9969Q518.89923 316.09064 518.118 316.84064Q517.35236 317.59064 516.0711 317.59064Q514.8055 317.59064 514.02423 316.84064Q513.243 316.09064 513.243 314.96564Q513.243 314.1219 513.66486 313.5594Q514.10236 312.9969 514.8836 312.79376ZM514.66486 310.9969Q514.66486 311.60626 515.0555 311.9969Q515.46173 312.3875 516.08673 312.3875Q516.6961 312.3875 517.08673 312.0125Q517.47736 311.6219 517.47736 311.0594Q517.47736 310.48126 517.0711 310.09064Q516.66486 309.6844 516.0711 309.6844Q515.46173 309.6844 515.0555 310.075Q514.66486 310.46564 514.66486 310.9969ZM514.33673 314.96564Q514.33673 315.41876 514.53986 315.84064Q514.7586 316.2625 515.1805 316.4969Q515.60236 316.73126 516.08673 316.73126Q516.83673 316.73126 517.3211 316.2469Q517.8211 315.7625 517.8211 315.0125Q517.8211 314.2469 517.3211 313.7469Q516.8211 313.2469 516.0555 313.2469Q515.3055 313.2469 514.8211 313.7469Q514.33673 314.23126 514.33673 314.96564ZM520.85236 317.45L520.85236 316.2469L522.0555 316.2469L522.0555 317.45L520.85236 317.45ZM526.6336 317.45L526.6336 315.3875L522.91486 315.3875L522.91486 314.41876L526.83673 308.85626L527.6961 308.85626L527.6961 314.41876L528.85236 314.41876L528.85236 315.3875L527.6961 315.3875L527.6961 317.45L526.6336 317.45ZM526.6336 314.41876L526.6336 310.5594L523.9461 314.41876L526.6336 314.41876Z" fill-rule="nonzero"/><path fill="#757575" d="M26.971874 34.20625L28.784374 34.440624Q28.3625 36.01875 27.190624 36.909374Q26.034374 37.784374 24.221874 37.784374Q21.95625 37.784374 20.6125 36.39375Q19.284374 34.9875 19.284374 32.45625Q19.284374 29.83125 20.628124 28.39375Q21.971874 26.940624 24.128124 26.940624Q26.20625 26.940624 27.51875 28.3625Q28.846874 29.76875 28.846874 32.346874Q28.846874 32.503124 28.83125 32.815624L21.096874 32.815624Q21.190624 34.51875 22.065624 35.425Q22.940624 36.33125 24.2375 36.33125Q25.20625 36.33125 25.878124 35.83125Q26.565624 35.315624 26.971874 34.20625ZM21.190624 31.3625L26.9875 31.3625Q26.878124 30.065624 26.33125 29.409374Q25.4875 28.39375 24.14375 28.39375Q22.940624 28.39375 22.1125 29.20625Q21.284374 30.003124 21.190624 31.3625ZM30.83125 37.55L30.83125 23.2375L32.58125 23.2375L32.58125 37.55L30.83125 37.55ZM41.64375 36.26875Q40.659374 37.096874 39.753124 37.440624Q38.846874 37.784374 37.815624 37.784374Q36.1125 37.784374 35.190624 36.95625Q34.26875 36.1125 34.26875 34.815624Q34.26875 34.05 34.6125 33.425Q34.971874 32.8 35.534374 32.425Q36.096874 32.034374 36.8 31.83125Q37.315624 31.70625 38.3625 31.565624Q40.4875 31.315624 41.4875 30.971874Q41.503124 30.6125 41.503124 30.503124Q41.503124 29.440624 41.003124 28.9875Q40.33125 28.39375 39.003124 28.39375Q37.753124 28.39375 37.159374 28.83125Q36.58125 29.26875 36.3 30.378124L34.58125 30.14375Q34.815624 29.034374 35.346874 28.3625Q35.878124 27.675 36.89375 27.315624Q37.909374 26.940624 39.253124 26.940624Q40.58125 26.940624 41.409374 27.253124Q42.2375 27.565624 42.628124 28.05Q43.01875 28.51875 43.175 29.2375Q43.26875 29.690624 43.26875 30.8625L43.26875 33.20625Q43.26875 35.659374 43.378124 36.315624Q43.4875 36.95625 43.83125 37.55L41.9875 37.55Q41.721874 37.003124 41.64375 36.26875ZM41.4875 32.346874Q40.534374 32.7375 38.6125 33.003124Q37.534374 33.159374 37.08125 33.3625Q36.64375 33.55 36.39375 33.925Q36.14375 34.3 36.14375 34.76875Q36.14375 35.471874 36.675 35.940624Q37.20625 36.409374 38.2375 36.409374Q39.253124 36.409374 40.034374 35.971874Q40.83125 35.51875 41.20625 34.753124Q41.4875 34.14375 41.4875 32.9875L41.4875 32.346874ZM45.8625 41.51875L45.8625 27.175L47.471874 27.175L47.471874 28.51875Q48.034374 27.7375 48.7375 27.346874Q49.45625 26.940624 50.471874 26.940624Q51.8 26.940624 52.815624 27.628124Q53.83125 28.315624 54.346874 29.565624Q54.878124 30.8 54.878124 32.284374Q54.878124 33.878124 54.3 35.159374Q53.7375 36.425 52.64375 37.1125Q51.55 37.784374 50.346874 37.784374Q49.471874 37.784374 48.76875 37.409374Q48.08125 37.034374 47.628124 36.471874L47.628124 41.51875L45.8625 41.51875ZM47.45625 32.425Q47.45625 34.425 48.26875 35.378124Q49.08125 36.33125 50.2375 36.33125Q51.409374 36.33125 52.2375 35.346874Q53.08125 34.3625 53.08125 32.26875Q53.08125 30.3 52.253124 29.315624Q51.440624 28.315624 50.315624 28.315624Q49.190624 28.315624 48.315624 29.378124Q47.45625 30.425 47.45625 32.425ZM56.159374 34.45625L57.909374 34.175Q58.05 35.221874 58.721874 35.784374Q59.39375 36.33125 60.596874 36.33125Q61.8 36.33125 62.378124 35.846874Q62.971874 35.346874 62.971874 34.690624Q62.971874 34.096874 62.45625 33.753124Q62.096874 33.51875 60.659374 33.159374Q58.721874 32.659374 57.971874 32.315624Q57.2375 31.95625 56.846874 31.33125Q56.45625 30.690624 56.45625 29.925Q56.45625 29.2375 56.76875 28.64375Q57.096874 28.05 57.64375 27.659374Q58.05 27.3625 58.753124 27.159374Q59.471874 26.940624 60.284374 26.940624Q61.503124 26.940624 62.425 27.3Q63.346874 27.64375 63.784374 28.253124Q64.22188 28.846874 64.39375 29.846874L62.675 30.08125Q62.55 29.284374 61.9875 28.846874Q61.425 28.39375 60.409374 28.39375Q59.190624 28.39375 58.675 28.8Q58.159374 29.190624 58.159374 29.721874Q58.159374 30.065624 58.378124 30.346874Q58.58125 30.628124 59.05 30.815624Q59.315624 30.909374 60.596874 31.253124Q62.471874 31.753124 63.20625 32.08125Q63.940624 32.39375 64.3625 33.003124Q64.78438 33.596874 64.78438 34.503124Q64.78438 35.378124 64.26875 36.159374Q63.753124 36.940624 62.784374 37.3625Q61.815624 37.784374 60.596874 37.784374Q58.58125 37.784374 57.51875 36.940624Q56.45625 36.096874 56.159374 34.45625ZM73.97188 34.20625L75.78438 34.440624Q75.3625 36.01875 74.19063 36.909374Q73.03438 37.784374 71.22188 37.784374Q68.95625 37.784374 67.6125 36.39375Q66.28438 34.9875 66.28438 32.45625Q66.28438 29.83125 67.62813 28.39375Q68.97188 26.940624 71.12813 26.940624Q73.20625 26.940624 74.51875 28.3625Q75.84688 29.76875 75.84688 32.346874Q75.84688 32.503124 75.83125 32.815624L68.09688 32.815624Q68.19063 34.51875 69.06563 35.425Q69.94063 36.33125 71.2375 36.33125Q72.20625 36.33125 72.87813 35.83125Q73.56563 35.315624 73.97188 34.20625ZM68.19063 31.3625L73.9875 31.3625Q73.87813 30.065624 73.33125 29.409374Q72.4875 28.39375 71.14375 28.39375Q69.94063 28.39375 69.1125 29.20625Q68.28438 30.003124 68.19063 31.3625ZM84.59688 37.55L84.59688 36.2375Q83.6125 37.784374 81.69063 37.784374Q80.45625 37.784374 79.40938 37.096874Q78.37813 36.409374 77.8 35.190624Q77.2375 33.971874 77.2375 32.378124Q77.2375 30.815624 77.75313 29.55Q78.26875 28.284374 79.3 27.6125Q80.34688 26.940624 81.6125 26.940624Q82.55 26.940624 83.28438 27.346874Q84.01875 27.7375 84.4875 28.3625L84.4875 23.2375L86.22188 23.2375L86.22188 37.55L84.59688 37.55ZM79.03438 32.378124Q79.03438 34.3625 79.87813 35.346874Q80.72188 36.33125 81.8625 36.33125Q83.01875 36.33125 83.81563 35.39375Q84.62813 34.45625 84.62813 32.51875Q84.62813 30.39375 83.8 29.39375Q82.9875 28.39375 81.78438 28.39375Q80.6125 28.39375 79.81563 29.3625Q79.03438 30.315624 79.03438 32.378124ZM87.25313 41.51875L87.25313 40.253124L98.89375 40.253124L98.89375 41.51875L87.25313 41.51875ZM103.70625 35.971874L103.95625 37.534374Q103.22188 37.690624 102.62813 37.690624Q101.675 37.690624 101.14375 37.39375Q100.62813 37.08125 100.40938 36.596874Q100.19063 36.096874 100.19063 34.51875L100.19063 28.55L98.90938 28.55L98.90938 27.175L100.19063 27.175L100.19063 24.6125L101.94063 23.55L101.94063 27.175L103.70625 27.175L103.70625 28.55L101.94063 28.55L101.94063 34.6125Q101.94063 35.3625 102.03438 35.58125Q102.12813 35.784374 102.33125 35.925Q102.55 36.05 102.94063 36.05Q103.22188 36.05 103.70625 35.971874ZM105.87813 25.253124L105.87813 23.2375L107.64375 23.2375L107.64375 25.253124L105.87813 25.253124ZM105.87813 37.55L105.87813 27.175L107.64375 27.175L107.64375 37.55L105.87813 37.55ZM109.8625 37.55L109.8625 27.175L111.44063 27.175L111.44063 28.628124Q111.925 27.878124 112.7375 27.409374Q113.55 26.940624 114.58125 26.940624Q115.7375 26.940624 116.47188 27.425Q117.20625 27.89375 117.51875 28.753124Q118.75313 26.940624 120.72188 26.940624Q122.26875 26.940624 123.09688 27.8Q123.925 28.659374 123.925 30.425L123.925 37.55L122.175 37.55L122.175 31.01875Q122.175 29.95625 122.00313 29.503124Q121.83125 29.034374 121.37813 28.753124Q120.94063 28.471874 120.33125 28.471874Q119.2375 28.471874 118.50313 29.20625Q117.78438 29.925 117.78438 31.51875L117.78438 37.55L116.03438 37.55L116.03438 30.815624Q116.03438 29.64375 115.59688 29.065624Q115.175 28.471874 114.19063 28.471874Q113.45625 28.471874 112.81563 28.8625Q112.19063 29.253124 111.90938 30.003124Q111.62813 30.753124 111.62813 32.175L111.62813 37.55L109.8625 37.55ZM132.97188 34.20625L134.78438 34.440624Q134.3625 36.01875 133.19063 36.909374Q132.03438 37.784374 130.22188 37.784374Q127.95625 37.784374 126.6125 36.39375Q125.28438 34.9875 125.28438 32.45625Q125.28438 29.83125 126.62813 28.39375Q127.97188 26.940624 130.12813 26.940624Q132.20625 26.940624 133.51875 28.3625Q134.84688 29.76875 134.84688 32.346874Q134.84688 32.503124 134.83125 32.815624L127.09688 32.815624Q127.19063 34.51875 128.06563 35.425Q128.94063 36.33125 130.2375 36.33125Q131.20625 36.33125 131.87813 35.83125Q132.56563 35.315624 132.97188 34.20625ZM127.19063 31.3625L132.9875 31.3625Q132.87813 30.065624 132.33125 29.409374Q131.4875 28.39375 130.14375 28.39375Q128.94063 28.39375 128.1125 29.20625Q127.28438 30.003124 127.19063 31.3625ZM145.75313 37.55L141.8 27.175L143.65938 27.175L145.89375 33.39375Q146.25313 34.39375 146.55 35.471874Q146.78438 34.659374 147.20625 33.503124L149.50313 27.175L151.31563 27.175L147.39375 37.55L145.75313 37.55ZM151.15938 34.45625L152.90938 34.175Q153.05 35.221874 153.72188 35.784374Q154.39375 36.33125 155.59688 36.33125Q156.8 36.33125 157.37813 35.846874Q157.97188 35.346874 157.97188 34.690624Q157.97188 34.096874 157.45625 33.753124Q157.09688 33.51875 155.65938 33.159374Q153.72188 32.659374 152.97188 32.315624Q152.2375 31.95625 151.84688 31.33125Q151.45625 30.690624 151.45625 29.925Q151.45625 29.2375 151.76875 28.64375Q152.09688 28.05 152.64375 27.659374Q153.05 27.3625 153.75313 27.159374Q154.47188 26.940624 155.28438 26.940624Q156.50313 26.940624 157.425 27.3Q158.34688 27.64375 158.78438 28.253124Q159.22188 28.846874 159.39375 29.846874L157.675 30.08125Q157.55 29.284374 156.9875 28.846874Q156.425 28.39375 155.40938 28.39375Q154.19063 28.39375 153.675 28.8Q153.15938 29.190624 153.15938 29.721874Q153.15938 30.065624 153.37813 30.346874Q153.58125 30.628124 154.05 30.815624Q154.31563 30.909374 155.59688 31.253124Q157.47188 31.753124 158.20625 32.08125Q158.94063 32.39375 159.3625 33.003124Q159.78438 33.596874 159.78438 34.503124Q159.78438 35.378124 159.26875 36.159374Q158.75313 36.940624 157.78438 37.3625Q156.81563 37.784374 155.59688 37.784374Q153.58125 37.784374 152.51875 36.940624Q151.45625 36.096874 151.15938 34.45625ZM162.3625 37.55L162.3625 35.55L164.3625 35.55L164.3625 37.55L162.3625 37.55ZM180.59688 37.55L180.59688 36.2375Q179.6125 37.784374 177.69063 37.784374Q176.45625 37.784374 175.40938 37.096874Q174.37813 36.409374 173.8 35.190624Q173.2375 33.971874 173.2375 32.378124Q173.2375 30.815624 173.75313 29.55Q174.26875 28.284374 175.3 27.6125Q176.34688 26.940624 177.6125 26.940624Q178.55 26.940624 179.28438 27.346874Q180.01875 27.7375 180.4875 28.3625L180.4875 23.2375L182.22188 23.2375L182.22188 37.55L180.59688 37.55ZM175.03438 32.378124Q175.03438 34.3625 175.87813 35.346874Q176.72188 36.33125 177.8625 36.33125Q179.01875 36.33125 179.81563 35.39375Q180.62813 34.45625 180.62813 32.51875Q180.62813 30.39375 179.8 29.39375Q178.9875 28.39375 177.78438 28.39375Q176.6125 28.39375 175.81563 29.3625Q175.03438 30.315624 175.03438 32.378124ZM191.64375 36.26875Q190.65938 37.096874 189.75313 37.440624Q188.84688 37.784374 187.81563 37.784374Q186.1125 37.784374 185.19063 36.95625Q184.26875 36.1125 184.26875 34.815624Q184.26875 34.05 184.6125 33.425Q184.97188 32.8 185.53438 32.425Q186.09688 32.034374 186.8 31.83125Q187.31563 31.70625 188.3625 31.565624Q190.4875 31.315624 191.4875 30.971874Q191.50313 30.6125 191.50313 30.503124Q191.50313 29.440624 191.00313 28.9875Q190.33125 28.39375 189.00313 28.39375Q187.75313 28.39375 187.15938 28.83125Q186.58125 29.26875 186.3 30.378124L184.58125 30.14375Q184.81563 29.034374 185.34688 28.3625Q185.87813 27.675 186.89375 27.315624Q187.90938 26.940624 189.25313 26.940624Q190.58125 26.940624 191.40938 27.253124Q192.2375 27.565624 192.62813 28.05Q193.01875 28.51875 193.175 29.2375Q193.26875 29.690624 193.26875 30.8625L193.26875 33.20625Q193.26875 35.659374 193.37813 36.315624Q193.4875 36.95625 193.83125 37.55L191.9875 37.55Q191.72188 37.003124 191.64375 36.26875ZM191.4875 32.346874Q190.53438 32.7375 188.6125 33.003124Q187.53438 33.159374 187.08125 33.3625Q186.64375 33.55 186.39375 33.925Q186.14375 34.3 186.14375 34.76875Q186.14375 35.471874 186.675 35.940624Q187.20625 36.409374 188.2375 36.409374Q189.25313 36.409374 190.03438 35.971874Q190.83125 35.51875 191.20625 34.753124Q191.4875 34.14375 191.4875 32.9875L191.4875 32.346874ZM199.70625 35.971874L199.95625 37.534374Q199.22188 37.690624 198.62813 37.690624Q197.675 37.690624 197.14375 37.39375Q196.62813 37.08125 196.40938 36.596874Q196.19063 36.096874 196.19063 34.51875L196.19063 28.55L194.90938 28.55L194.90938 27.175L196.19063 27.175L196.19063 24.6125L197.94063 23.55L197.94063 27.175L199.70625 27.175L199.70625 28.55L197.94063 28.55L197.94063 34.6125Q197.94063 35.3625 198.03438 35.58125Q198.12813 35.784374 198.33125 35.925Q198.55 36.05 198.94063 36.05Q199.22188 36.05 199.70625 35.971874ZM208.64375 36.26875Q207.65938 37.096874 206.75313 37.440624Q205.84688 37.784374 204.81563 37.784374Q203.1125 37.784374 202.19063 36.95625Q201.26875 36.1125 201.26875 34.815624Q201.26875 34.05 201.6125 33.425Q201.97188 32.8 202.53438 32.425Q203.09688 32.034374 203.8 31.83125Q204.31563 31.70625 205.3625 31.565624Q207.4875 31.315624 208.4875 30.971874Q208.50313 30.6125 208.50313 30.503124Q208.50313 29.440624 208.00313 28.9875Q207.33125 28.39375 206.00313 28.39375Q204.75313 28.39375 204.15938 28.83125Q203.58125 29.26875 203.3 30.378124L201.58125 30.14375Q201.81563 29.034374 202.34688 28.3625Q202.87813 27.675 203.89375 27.315624Q204.90938 26.940624 206.25313 26.940624Q207.58125 26.940624 208.40938 27.253124Q209.2375 27.565624 209.62813 28.05Q210.01875 28.51875 210.175 29.2375Q210.26875 29.690624 210.26875 30.8625L210.26875 33.20625Q210.26875 35.659374 210.37813 36.315624Q210.4875 36.95625 210.83125 37.55L208.9875 37.55Q208.72188 37.003124 208.64375 36.26875ZM208.4875 32.346874Q207.53438 32.7375 205.6125 33.003124Q204.53438 33.159374 204.08125 33.3625Q203.64375 33.55 203.39375 33.925Q203.14375 34.3 203.14375 34.76875Q203.14375 35.471874 203.675 35.940624Q204.20625 36.409374 205.2375 36.409374Q206.25313 36.409374 207.03438 35.971874Q207.83125 35.51875 208.20625 34.753124Q208.4875 34.14375 208.4875 32.9875L208.4875 32.346874ZM214.4875 37.55L212.8625 37.55L212.8625 23.2375L214.6125 23.2375L214.6125 28.346874Q215.7375 26.940624 217.45625 26.940624Q218.40938 26.940624 219.26875 27.33125Q220.12813 27.721874 220.675 28.425Q221.22188 29.1125 221.53438 30.096874Q221.84688 31.08125 221.84688 32.20625Q221.84688 34.878124 220.53438 36.33125Q219.22188 37.784374 217.37813 37.784374Q215.53438 37.784374 214.4875 36.253124L214.4875 37.55ZM214.47188 32.284374Q214.47188 34.14375 214.97188 34.9875Q215.81563 36.33125 217.22188 36.33125Q218.37813 36.33125 219.20625 35.33125Q220.05 34.33125 220.05 32.346874Q220.05 30.315624 219.2375 29.3625Q218.44063 28.39375 217.3 28.39375Q216.14375 28.39375 215.3 29.39375Q214.47188 30.39375 214.47188 32.284374ZM230.64375 36.26875Q229.65938 37.096874 228.75313 37.440624Q227.84688 37.784374 226.81563 37.784374Q225.1125 37.784374 224.19063 36.95625Q223.26875 36.1125 223.26875 34.815624Q223.26875 34.05 223.6125 33.425Q223.97188 32.8 224.53438 32.425Q225.09688 32.034374 225.8 31.83125Q226.31563 31.70625 227.3625 31.565624Q229.4875 31.315624 230.4875 30.971874Q230.50313 30.6125 230.50313 30.503124Q230.50313 29.440624 230.00313 28.9875Q229.33125 28.39375 228.00313 28.39375Q226.75313 28.39375 226.15938 28.83125Q225.58125 29.26875 225.3 30.378124L223.58125 30.14375Q223.81563 29.034374 224.34688 28.3625Q224.87813 27.675 225.89375 27.315624Q226.90938 26.940624 228.25313 26.940624Q229.58125 26.940624 230.40938 27.253124Q231.2375 27.565624 231.62813 28.05Q232.01875 28.51875 232.175 29.2375Q232.26875 29.690624 232.26875 30.8625L232.26875 33.20625Q232.26875 35.659374 232.37813 36.315624Q232.4875 36.95625 232.83125 37.55L230.9875 37.55Q230.72188 37.003124 230.64375 36.26875ZM230.4875 32.346874Q229.53438 32.7375 227.6125 33.003124Q226.53438 33.159374 226.08125 33.3625Q225.64375 33.55 225.39375 33.925Q225.14375 34.3 225.14375 34.76875Q225.14375 35.471874 225.675 35.940624Q226.20625 36.409374 227.2375 36.409374Q228.25313 36.409374 229.03438 35.971874Q229.83125 35.51875 230.20625 34.753124Q230.4875 34.14375 230.4875 32.9875L230.4875 32.346874ZM234.15938 34.45625L235.90938 34.175Q236.05 35.221874 236.72188 35.784374Q237.39375 36.33125 238.59688 36.33125Q239.8 36.33125 240.37813 35.846874Q240.97188 35.346874 240.97188 34.690624Q240.97188 34.096874 240.45625 33.753124Q240.09688 33.51875 238.65938 33.159374Q236.72188 32.659374 235.97188 32.315624Q235.2375 31.95625 234.84688 31.33125Q234.45625 30.690624 234.45625 29.925Q234.45625 29.2375 234.76875 28.64375Q235.09688 28.05 235.64375 27.659374Q236.05 27.3625 236.75313 27.159374Q237.47188 26.940624 238.28438 26.940624Q239.50313 26.940624 240.425 27.3Q241.34688 27.64375 241.78438 28.253124Q242.22188 28.846874 242.39375 29.846874L240.675 30.08125Q240.55 29.284374 239.9875 28.846874Q239.425 28.39375 238.40938 28.39375Q237.19063 28.39375 236.675 28.8Q236.15938 29.190624 236.15938 29.721874Q236.15938 30.065624 236.37813 30.346874Q236.58125 30.628124 237.05 30.815624Q237.31563 30.909374 238.59688 31.253124Q240.47188 31.753124 241.20625 32.08125Q241.94063 32.39375 242.3625 33.003124Q242.78438 33.596874 242.78438 34.503124Q242.78438 35.378124 242.26875 36.159374Q241.75313 36.940624 240.78438 37.3625Q239.81563 37.784374 238.59688 37.784374Q236.58125 37.784374 235.51875 36.940624Q234.45625 36.096874 234.15938 34.45625ZM251.97188 34.20625L253.78438 34.440624Q253.3625 36.01875 252.19063 36.909374Q251.03438 37.784374 249.22188 37.784374Q246.95625 37.784374 245.6125 36.39375Q244.28438 34.9875 244.28438 32.45625Q244.28438 29.83125 245.62813 28.39375Q246.97188 26.940624 249.12813 26.940624Q251.20625 26.940624 252.51875 28.3625Q253.84688 29.76875 253.84688 32.346874Q253.84688 32.503124 253.83125 32.815624L246.09688 32.815624Q246.19063 34.51875 247.06563 35.425Q247.94063 36.33125 249.2375 36.33125Q250.20625 36.33125 250.87813 35.83125Q251.56563 35.315624 251.97188 34.20625ZM246.19063 31.3625L251.9875 31.3625Q251.87813 30.065624 251.33125 29.409374Q250.4875 28.39375 249.14375 28.39375Q247.94063 28.39375 247.1125 29.20625Q246.28438 30.003124 246.19063 31.3625ZM254.25313 41.51875L254.25313 40.253124L265.89374 40.253124L265.89374 41.51875L254.25313 41.51875ZM269.7531 37.55L265.8 27.175L267.65936 27.175L269.89374 33.39375Q270.2531 34.39375 270.55 35.471874Q270.78436 34.659374 271.20624 33.503124L273.5031 27.175L275.3156 27.175L271.39374 37.55L269.7531 37.55ZM282.97186 34.20625L284.78436 34.440624Q284.3625 36.01875 283.1906 36.909374Q282.03436 37.784374 280.22186 37.784374Q277.95624 37.784374 276.6125 36.39375Q275.28436 34.9875 275.28436 32.45625Q275.28436 29.83125 276.6281 28.39375Q277.97186 26.940624 280.1281 26.940624Q282.20624 26.940624 283.51874 28.3625Q284.84686 29.76875 284.84686 32.346874Q284.84686 32.503124 284.83124 32.815624L277.09686 32.815624Q277.1906 34.51875 278.0656 35.425Q278.9406 36.33125 280.2375 36.33125Q281.20624 36.33125 281.8781 35.83125Q282.5656 35.315624 282.97186 34.20625ZM277.1906 31.3625L282.9875 31.3625Q282.8781 30.065624 282.33124 29.409374Q281.4875 28.39375 280.14374 28.39375Q278.9406 28.39375 278.1125 29.20625Q277.28436 30.003124 277.1906 31.3625ZM286.84686 37.55L286.84686 27.175L288.425 27.175L288.425 28.753124Q289.03436 27.64375 289.55 27.3Q290.0656 26.940624 290.675 26.940624Q291.5656 26.940624 292.4875 27.503124L291.8781 29.14375Q291.2375 28.753124 290.59686 28.753124Q290.01874 28.753124 289.55 29.1125Q289.09686 29.45625 288.89374 30.065624Q288.6125 31.003124 288.6125 32.1125L288.6125 37.55L286.84686 37.55ZM293.15936 34.45625L294.90936 34.175Q295.05 35.221874 295.72186 35.784374Q296.39374 36.33125 297.59686 36.33125Q298.8 36.33125 299.3781 35.846874Q299.97186 35.346874 299.97186 34.690624Q299.97186 34.096874 299.45624 33.753124Q299.09686 33.51875 297.65936 33.159374Q295.72186 32.659374 294.97186 32.315624Q294.2375 31.95625 293.84686 31.33125Q293.45624 30.690624 293.45624 29.925Q293.45624 29.2375 293.76874 28.64375Q294.09686 28.05 294.64374 27.659374Q295.05 27.3625 295.7531 27.159374Q296.47186 26.940624 297.28436 26.940624Q298.5031 26.940624 299.425 27.3Q300.34686 27.64375 300.78436 28.253124Q301.22186 28.846874 301.39374 29.846874L299.675 30.08125Q299.55 29.284374 298.9875 28.846874Q298.425 28.39375 297.40936 28.39375Q296.1906 28.39375 295.675 28.8Q295.15936 29.190624 295.15936 29.721874Q295.15936 30.065624 295.3781 30.346874Q295.58124 30.628124 296.05 30.815624Q296.3156 30.909374 297.59686 31.253124Q299.47186 31.753124 300.20624 32.08125Q300.9406 32.39375 301.3625 33.003124Q301.78436 33.596874 301.78436 34.503124Q301.78436 35.378124 301.26874 36.159374Q300.7531 36.940624 299.78436 37.3625Q298.8156 37.784374 297.59686 37.784374Q295.58124 37.784374 294.51874 36.940624Q293.45624 36.096874 293.15936 34.45625ZM303.8781 25.253124L303.8781 23.2375L305.64374 23.2375L305.64374 25.253124L303.8781 25.253124ZM303.8781 37.55L303.8781 27.175L305.64374 27.175L305.64374 37.55L303.8781 37.55ZM307.22186 32.3625Q307.22186 29.4875 308.8156 28.096874Q310.15936 26.940624 312.08124 26.940624Q314.22186 26.940624 315.5656 28.346874Q316.925 29.753124 316.925 32.221874Q316.925 34.221874 316.33124 35.378124Q315.7375 36.51875 314.58124 37.159374Q313.4406 37.784374 312.08124 37.784374Q309.89374 37.784374 308.55 36.39375Q307.22186 34.9875 307.22186 32.3625ZM309.01874 32.3625Q309.01874 34.3625 309.8781 35.346874Q310.7531 36.33125 312.08124 36.33125Q313.39374 36.33125 314.2531 35.346874Q315.1281 34.346874 315.1281 32.3Q315.1281 30.378124 314.2531 29.39375Q313.3781 28.39375 312.08124 28.39375Q310.7531 28.39375 309.8781 29.39375Q309.01874 30.378124 309.01874 32.3625ZM318.8625 37.55L318.8625 27.175L320.45624 27.175L320.45624 28.659374Q321.59686 26.940624 323.7531 26.940624Q324.6906 26.940624 325.47186 27.284374Q326.26874 27.6125 326.65936 28.159374Q327.05 28.70625 327.20624 29.45625Q327.3 29.95625 327.3 31.175L327.3 37.55L325.53436 37.55L325.53436 31.2375Q325.53436 30.159374 325.33124 29.628124Q325.1281 29.096874 324.59686 28.784374Q324.08124 28.471874 323.3781 28.471874Q322.2531 28.471874 321.4406 29.190624Q320.6281 29.89375 320.6281 31.878124L320.6281 37.55L318.8625 37.55ZM338.22186 41.753124Q336.76874 39.925 335.76874 37.471874Q334.76874 35.003124 334.76874 32.3625Q334.76874 30.034374 335.51874 27.909374Q336.39374 25.440624 338.22186 22.9875L339.4875 22.9875Q338.3 25.01875 337.925 25.89375Q337.33124 27.2375 336.9875 28.70625Q336.5656 30.534374 336.5656 32.378124Q336.5656 37.065624 339.4875 41.753124L338.22186 41.753124ZM341.8781 25.253124L341.8781 23.2375L343.64374 23.2375L343.64374 25.253124L341.8781 25.253124ZM341.8781 37.55L341.8781 27.175L343.64374 27.175L343.64374 37.55L341.8781 37.55ZM345.8625 37.55L345.8625 27.175L347.4406 27.175L347.4406 28.628124Q347.925 27.878124 348.7375 27.409374Q349.55 26.940624 350.58124 26.940624Q351.7375 26.940624 352.47186 27.425Q353.20624 27.89375 353.51874 28.753124Q354.7531 26.940624 356.72186 26.940624Q358.26874 26.940624 359.09686 27.8Q359.925 28.659374 359.925 30.425L359.925 37.55L358.175 37.55L358.175 31.01875Q358.175 29.95625 358.0031 29.503124Q357.83124 29.034374 357.3781 28.753124Q356.9406 28.471874 356.33124 28.471874Q355.2375 28.471874 354.5031 29.20625Q353.78436 29.925 353.78436 31.51875L353.78436 37.55L352.03436 37.55L352.03436 30.815624Q352.03436 29.64375 351.59686 29.065624Q351.175 28.471874 350.1906 28.471874Q349.45624 28.471874 348.8156 28.8625Q348.1906 29.253124 347.90936 30.003124Q347.6281 30.753124 347.6281 32.175L347.6281 37.55L345.8625 37.55ZM361.8625 41.51875L361.8625 27.175L363.47186 27.175L363.47186 28.51875Q364.03436 27.7375 364.7375 27.346874Q365.45624 26.940624 366.47186 26.940624Q367.8 26.940624 368.8156 27.628124Q369.83124 28.315624 370.34686 29.565624Q370.8781 30.8 370.8781 32.284374Q370.8781 33.878124 370.3 35.159374Q369.7375 36.425 368.64374 37.1125Q367.55 37.784374 366.34686 37.784374Q365.47186 37.784374 364.76874 37.409374Q364.08124 37.034374 363.6281 36.471874L363.6281 41.51875L361.8625 41.51875ZM363.45624 32.425Q363.45624 34.425 364.26874 35.378124Q365.08124 36.33125 366.2375 36.33125Q367.40936 36.33125 368.2375 35.346874Q369.08124 34.3625 369.08124 32.26875Q369.08124 30.3 368.2531 29.315624Q367.4406 28.315624 366.3156 28.315624Q365.1906 28.315624 364.3156 29.378124Q363.45624 30.425 363.45624 32.425ZM372.22186 32.3625Q372.22186 29.4875 373.8156 28.096874Q375.15936 26.940624 377.08124 26.940624Q379.22186 26.940624 380.5656 28.346874Q381.925 29.753124 381.925 32.221874Q381.925 34.221874 381.33124 35.378124Q380.7375 36.51875 379.58124 37.159374Q378.4406 37.784374 377.08124 37.784374Q374.89374 37.784374 373.55 36.39375Q372.22186 34.9875 372.22186 32.3625ZM374.01874 32.3625Q374.01874 34.3625 374.8781 35.346874Q375.7531 36.33125 377.08124 36.33125Q378.39374 36.33125 379.2531 35.346874Q380.1281 34.346874 380.1281 32.3Q380.1281 30.378124 379.2531 29.39375Q378.3781 28.39375 377.08124 28.39375Q375.7531 28.39375 374.8781 29.39375Q374.01874 30.378124 374.01874 32.3625ZM383.84686 37.55L383.84686 27.175L385.425 27.175L385.425 28.753124Q386.03436 27.64375 386.55 27.3Q387.0656 26.940624 387.675 26.940624Q388.5656 26.940624 389.4875 27.503124L388.8781 29.14375Q388.2375 28.753124 387.59686 28.753124Q387.01874 28.753124 386.55 29.1125Q386.09686 29.45625 385.89374 30.065624Q385.6125 31.003124 385.6125 32.1125L385.6125 37.55L383.84686 37.55ZM394.70624 35.971874L394.95624 37.534374Q394.22186 37.690624 393.6281 37.690624Q392.675 37.690624 392.14374 37.39375Q391.6281 37.08125 391.40936 36.596874Q391.1906 36.096874 391.1906 34.51875L391.1906 28.55L389.90936 28.55L389.90936 27.175L391.1906 27.175L391.1906 24.6125L392.9406 23.55L392.9406 27.175L394.70624 27.175L394.70624 28.55L392.9406 28.55L392.9406 34.6125Q392.9406 35.3625 393.03436 35.58125Q393.1281 35.784374 393.33124 35.925Q393.55 36.05 393.9406 36.05Q394.22186 36.05 394.70624 35.971874ZM409.0031 37.55L407.2375 37.55L407.2375 26.346874Q406.6125 26.95625 405.58124 27.565624Q404.55 28.159374 403.72186 28.471874L403.72186 26.76875Q405.20624 26.08125 406.3 25.096874Q407.40936 24.096874 407.8625 23.175L409.0031 23.175L409.0031 37.55ZM414.03436 37.55L414.03436 23.2375L416.89374 23.2375L420.26874 33.3625Q420.7375 34.784374 420.95624 35.4875Q421.20624 34.70625 421.72186 33.190624L425.14374 23.2375L427.6906 23.2375L427.6906 37.55L425.8781 37.55L425.8781 25.565624L421.70624 37.55L420.0031 37.55L415.8625 25.3625L415.8625 37.55L414.03436 37.55ZM436.8625 37.55L436.8625 27.175L438.45624 27.175L438.45624 28.659374Q439.59686 26.940624 441.7531 26.940624Q442.6906 26.940624 443.47186 27.284374Q444.26874 27.6125 444.65936 28.159374Q445.05 28.70625 445.20624 29.45625Q445.3 29.95625 445.3 31.175L445.3 37.55L443.53436 37.55L443.53436 31.2375Q443.53436 30.159374 443.33124 29.628124Q443.1281 29.096874 442.59686 28.784374Q442.08124 28.471874 441.3781 28.471874Q440.2531 28.471874 439.4406 29.190624Q438.6281 29.89375 438.6281 31.878124L438.6281 37.55L436.8625 37.55ZM446.22186 32.3625Q446.22186 29.4875 447.8156 28.096874Q449.15936 26.940624 451.08124 26.940624Q453.22186 26.940624 454.5656 28.346874Q455.925 29.753124 455.925 32.221874Q455.925 34.221874 455.33124 35.378124Q454.7375 36.51875 453.58124 37.159374Q452.4406 37.784374 451.08124 37.784374Q448.89374 37.784374 447.55 36.39375Q446.22186 34.9875 446.22186 32.3625ZM448.01874 32.3625Q448.01874 34.3625 448.8781 35.346874Q449.7531 36.33125 451.08124 36.33125Q452.39374 36.33125 453.2531 35.346874Q454.1281 34.346874 454.1281 32.3Q454.1281 30.378124 453.2531 29.39375Q452.3781 28.39375 451.08124 28.39375Q449.7531 28.39375 448.8781 29.39375Q448.01874 30.378124 448.01874 32.3625ZM464.59686 37.55L464.59686 36.2375Q463.6125 37.784374 461.6906 37.784374Q460.45624 37.784374 459.40936 37.096874Q458.3781 36.409374 457.8 35.190624Q457.2375 33.971874 457.2375 32.378124Q457.2375 30.815624 457.7531 29.55Q458.26874 28.284374 459.3 27.6125Q460.34686 26.940624 461.6125 26.940624Q462.55 26.940624 463.28436 27.346874Q464.01874 27.7375 464.4875 28.3625L464.4875 23.2375L466.22186 23.2375L466.22186 37.55L464.59686 37.55ZM459.03436 32.378124Q459.03436 34.3625 459.8781 35.346874Q460.72186 36.33125 461.8625 36.33125Q463.01874 36.33125 463.8156 35.39375Q464.6281 34.45625 464.6281 32.51875Q464.6281 30.39375 463.8 29.39375Q462.9875 28.39375 461.78436 28.39375Q460.6125 28.39375 459.8156 29.3625Q459.03436 30.315624 459.03436 32.378124ZM475.97186 34.20625L477.78436 34.440624Q477.3625 36.01875 476.1906 36.909374Q475.03436 37.784374 473.22186 37.784374Q470.95624 37.784374 469.6125 36.39375Q468.28436 34.9875 468.28436 32.45625Q468.28436 29.83125 469.6281 28.39375Q470.97186 26.940624 473.1281 26.940624Q475.20624 26.940624 476.51874 28.3625Q477.84686 29.76875 477.84686 32.346874Q477.84686 32.503124 477.83124 32.815624L470.09686 32.815624Q470.1906 34.51875 471.0656 35.425Q471.9406 36.33125 473.2375 36.33125Q474.20624 36.33125 474.8781 35.83125Q475.5656 35.315624 475.97186 34.20625ZM470.1906 31.3625L475.9875 31.3625Q475.8781 30.065624 475.33124 29.409374Q474.4875 28.39375 473.14374 28.39375Q471.9406 28.39375 471.1125 29.20625Q470.28436 30.003124 470.1906 31.3625ZM479.15936 34.45625L480.90936 34.175Q481.05 35.221874 481.72186 35.784374Q482.39374 36.33125 483.59686 36.33125Q484.8 36.33125 485.3781 35.846874Q485.97186 35.346874 485.97186 34.690624Q485.97186 34.096874 485.45624 33.753124Q485.09686 33.51875 483.65936 33.159374Q481.72186 32.659374 480.97186 32.315624Q480.2375 31.95625 479.84686 31.33125Q479.45624 30.690624 479.45624 29.925Q479.45624 29.2375 479.76874 28.64375Q480.09686 28.05 480.64374 27.659374Q481.05 27.3625 481.7531 27.159374Q482.47186 26.940624 483.28436 26.940624Q484.5031 26.940624 485.425 27.3Q486.34686 27.64375 486.78436 28.253124Q487.22186 28.846874 487.39374 29.846874L485.675 30.08125Q485.55 29.284374 484.9875 28.846874Q484.425 28.39375 483.40936 28.39375Q482.1906 28.39375 481.675 28.8Q481.15936 29.190624 481.15936 29.721874Q481.15936 30.065624 481.3781 30.346874Q481.58124 30.628124 482.05 30.815624Q482.3156 30.909374 483.59686 31.253124Q485.47186 31.753124 486.20624 32.08125Q486.9406 32.39375 487.3625 33.003124Q487.78436 33.596874 487.78436 34.503124Q487.78436 35.378124 487.26874 36.159374Q486.7531 36.940624 485.78436 37.3625Q484.8156 37.784374 483.59686 37.784374Q481.58124 37.784374 480.51874 36.940624Q479.45624 36.096874 479.15936 34.45625ZM491.01874 41.753124L489.76874 41.753124Q492.675 37.065624 492.675 32.378124Q492.675 30.534374 492.26874 28.7375Q491.925 27.26875 491.33124 25.925Q490.95624 25.034374 489.76874 22.9875L491.01874 22.9875Q492.8625 25.440624 493.7375 27.909374Q494.4875 30.034374 494.4875 32.3625Q494.4875 35.003124 493.47186 37.471874Q492.47186 39.925 491.01874 41.753124Z" fill-rule="nonzero"/></svg>