<svg version="1.1" viewBox="0.0 0.0 600.0 371.0" fill="none" stroke="none" stroke-linecap="square" stroke-miterlimit="10" width="600" height="371" xmlns:xlink="http://www.w3.org/1999/xlink" xmlns="http://www.w3.org/2000/svg"><path fill="#ffffff" d="M0 0L600.0 0L600.0 371.0L0 371.0L0 0Z" fill-rule="nonzero"/><path stroke="#333333" stroke-width="1.0" stroke-linecap="butt" d="M77.5 300.5L581.5 300.5" fill-rule="nonzero"/><path stroke="#cccccc" stroke-width="1.0" stroke-linecap="butt" d="M77.5 240.5L581.5 240.5" fill-rule="nonzero"/><path stroke="#cccccc" stroke-width="1.0" stroke-linecap="butt" d="M77.5 181.5L581.5 181.5" fill-rule="nonzero"/><path stroke="#cccccc" stroke-width="1.0" stroke-linecap="butt" d="M77.5 121.5L581.5 121.5" fill-rule="nonzero"/><path stroke="#cccccc" stroke-width="1.0" stroke-linecap="butt" d="M77.5 61.5L581.5 61.5" fill-rule="nonzero"/><clipPath id="id_0"><path d="M77.55 61.916668L581.45 61.916668L581.45 300.45L77.55 300.45L77.55 61.916668Z" clip-rule="nonzero"/></clipPath><path stroke="#000000" stroke-width="2.0" stroke-linecap="butt" stroke-opacity="0.0" clip-path="url(#id_0)" d="M292.0 300.0L153.0 300.0L153.0 79.0C153.0 77.89543 153.89543 77.0 155.0 77.0L290.0 77.0C291.10458 77.0 292.0 77.89543 292.0 79.0Z" fill-rule="nonzero"/><path fill="#4285f4" clip-path="url(#id_0)" d="M292.0 300.0L153.0 300.0L153.0 79.0C153.0 77.89543 153.89543 77.0 155.0 77.0L290.0 77.0C291.10458 77.0 292.0 77.89543 292.0 79.0Z" fill-rule="nonzero"/><path stroke="#000000" stroke-width="2.0" stroke-linecap="butt" stroke-opacity="0.0" clip-path="url(#id_0)" d="M507.0 300.0L368.0 300.0L368.0 134.0C368.0 132.89543 368.89542 132.0 370.0 132.0L505.0 132.0C506.10458 132.0 507.0 132.89543 507.0 134.0Z" fill-rule="nonzero"/><path fill="#4285f4" clip-path="url(#id_0)" d="M507.0 300.0L368.0 300.0L368.0 134.0C368.0 132.89543 368.89542 132.0 370.0 132.0L505.0 132.0C506.10458 132.0 507.0 132.89543 507.0 134.0Z" fill-rule="nonzero"/><path fill="#000000" d="M297.82812 349.45L297.82812 348.66876Q297.23438 349.59064 296.09375 349.59064Q295.34375 349.59064 294.71875 349.1844Q294.09375 348.7625 293.75 348.02814Q293.40625 347.29376 293.40625 346.34064Q293.40625 345.41876 293.71875 344.65314Q294.03125 343.8875 294.65625 343.4969Q295.28125 343.09064 296.04688 343.09064Q296.60938 343.09064 297.04688 343.325Q297.48438 343.5594 297.76562 343.9344L297.76562 340.85626L298.8125 340.85626L298.8125 349.45L297.82812 349.45ZM294.5 346.34064Q294.5 347.54376 295.0 348.1375Q295.5 348.71564 296.1875 348.71564Q296.875 348.71564 297.35938 348.15314Q297.84375 347.59064 297.84375 346.4344Q297.84375 345.15314 297.34375 344.5594Q296.85938 343.96564 296.14062 343.96564Q295.4375 343.96564 294.96875 344.54376Q294.5 345.10626 294.5 346.34064ZM304.82812 349.45L304.82812 348.66876Q304.23438 349.59064 303.09375 349.59064Q302.34375 349.59064 301.71875 349.1844Q301.09375 348.7625 300.75 348.02814Q300.40625 347.29376 300.40625 346.34064Q300.40625 345.41876 300.71875 344.65314Q301.03125 343.8875 301.65625 343.4969Q302.28125 343.09064 303.04688 343.09064Q303.60938 343.09064 304.04688 343.325Q304.48438 343.5594 304.76562 343.9344L304.76562 340.85626L305.8125 340.85626L305.8125 349.45L304.82812 349.45ZM301.5 346.34064Q301.5 347.54376 302.0 348.1375Q302.5 348.71564 303.1875 348.71564Q303.875 348.71564 304.35938 348.15314Q304.84375 347.59064 304.84375 346.4344Q304.84375 345.15314 304.34375 344.5594Q303.85938 343.96564 303.14062 343.96564Q302.4375 343.96564 301.96875 344.54376Q301.5 345.10626 301.5 346.34064ZM312.04688 347.45L313.14062 347.575Q312.89062 348.52814 312.1875 349.0594Q311.48438 349.59064 310.40625 349.59064Q309.04688 349.59064 308.23438 348.7469Q307.4375 347.90314 307.4375 346.3875Q307.4375 344.825 308.25 343.96564Q309.0625 343.09064 310.34375 343.09064Q311.59375 343.09064 312.375 343.9344Q313.17188 344.77814 313.17188 346.325Q313.17188 346.41876 313.17188 346.60626L308.53125 346.60626Q308.59375 347.6375 309.10938 348.1844Q309.625 348.71564 310.40625 348.71564Q310.98438 348.71564 311.39062 348.41876Q311.8125 348.10626 312.04688 347.45ZM308.59375 345.7469L312.0625 345.7469Q312.0 344.95 311.67188 344.5594Q311.15625 343.95 310.35938 343.95Q309.625 343.95 309.125 344.4344Q308.64062 344.91876 308.59375 345.7469ZM316.51562 349.45L314.15625 343.23126L315.26562 343.23126L316.60938 346.95Q316.8125 347.5594 317.0 348.2Q317.14062 347.71564 317.39062 347.02814L318.78125 343.23126L319.85938 343.23126L317.5 349.45L316.51562 349.45ZM318.8125 351.84064L318.8125 351.075L325.8125 351.075L325.8125 351.84064L318.8125 351.84064ZM328.51562 349.45L326.15625 343.23126L327.26562 343.23126L328.60938 346.95Q328.8125 347.5594 329.0 348.2Q329.14062 347.71564 329.39062 347.02814L330.78125 343.23126L331.85938 343.23126L329.5 349.45L328.51562 349.45ZM336.04688 347.45L337.14062 347.575Q336.89062 348.52814 336.1875 349.0594Q335.48438 349.59064 334.40625 349.59064Q333.04688 349.59064 332.23438 348.7469Q331.4375 347.90314 331.4375 346.3875Q331.4375 344.825 332.25 343.96564Q333.0625 343.09064 334.34375 343.09064Q335.59375 343.09064 336.375 343.9344Q337.17188 344.77814 337.17188 346.325Q337.17188 346.41876 337.17188 346.60626L332.53125 346.60626Q332.59375 347.6375 333.10938 348.1844Q333.625 348.71564 334.40625 348.71564Q334.98438 348.71564 335.39062 348.41876Q335.8125 348.10626 336.04688 347.45ZM332.59375 345.7469L336.0625 345.7469Q336.0 344.95 335.67188 344.5594Q335.15625 343.95 334.35938 343.95Q333.625 343.95 333.125 344.4344Q332.64062 344.91876 332.59375 345.7469ZM338.78125 349.45L338.78125 343.23126L339.73438 343.23126L339.73438 344.16876Q340.09375 343.5125 340.39062 343.3094Q340.70312 343.09064 341.07812 343.09064Q341.60938 343.09064 342.15625 343.41876L341.79688 344.40314Q341.40625 344.16876 341.03125 344.16876Q340.67188 344.16876 340.39062 344.3875Q340.125 344.59064 340.01562 344.96564Q339.82812 345.52814 339.82812 346.1844L339.82812 349.45L338.78125 349.45ZM342.375 347.59064L343.40625 347.4344Q343.5 348.0594 343.89062 348.3875Q344.29688 348.71564 345.03125 348.71564Q345.75 348.71564 346.09375 348.4344Q346.45312 348.1375 346.45312 347.73126Q346.45312 347.3719 346.14062 347.16876Q345.92188 347.02814 345.0625 346.8094Q343.90625 346.5125 343.45312 346.3094Q343.01562 346.09064 342.78125 345.71564Q342.54688 345.34064 342.54688 344.8719Q342.54688 344.46564 342.73438 344.10626Q342.92188 343.7469 343.25 343.5125Q343.5 343.34064 343.92188 343.21564Q344.34375 343.09064 344.84375 343.09064Q345.5625 343.09064 346.10938 343.3094Q346.67188 343.5125 346.9375 343.8719Q347.20312 344.23126 347.29688 344.825L346.26562 344.96564Q346.20312 344.4969 345.85938 344.23126Q345.53125 343.95 344.90625 343.95Q344.1875 343.95 343.875 344.2Q343.5625 344.4344 343.5625 344.7625Q343.5625 344.96564 343.6875 345.1219Q343.82812 345.29376 344.09375 345.40314Q344.25 345.46564 345.03125 345.66876Q346.15625 345.98126 346.59375 346.16876Q347.03125 346.35626 347.28125 346.71564Q347.53125 347.075 347.53125 347.6219Q347.53125 348.15314 347.21875 348.6219Q346.92188 349.075 346.34375 349.34064Q345.76562 349.59064 345.03125 349.59064Q343.8125 349.59064 343.17188 349.09064Q342.54688 348.575 342.375 347.59064ZM349.79688 342.075L349.79688 340.85626L350.85938 340.85626L350.85938 342.075L349.79688 342.075ZM349.79688 349.45L349.79688 343.23126L350.85938 343.23126L350.85938 349.45L349.79688 349.45ZM352.40625 346.34064Q352.40625 344.60626 353.35938 343.77814Q354.15625 343.09064 355.3125 343.09064Q356.59375 343.09064 357.40625 343.9344Q358.23438 344.7625 358.23438 346.2469Q358.23438 347.45 357.875 348.1375Q357.51562 348.825 356.8125 349.21564Q356.125 349.59064 355.3125 349.59064Q354.01562 349.59064 353.20312 348.7625Q352.40625 347.91876 352.40625 346.34064ZM353.48438 346.34064Q353.48438 347.52814 354.0 348.1219Q354.53125 348.71564 355.3125 348.71564Q356.10938 348.71564 356.625 348.1219Q357.14062 347.52814 357.14062 346.3094Q357.14062 345.15314 356.60938 344.5594Q356.09375 343.96564 355.3125 343.96564Q354.53125 343.96564 354.0 344.5594Q353.48438 345.1375 353.48438 346.34064ZM359.79688 349.45L359.79688 343.23126L360.73438 343.23126L360.73438 344.10626Q361.42188 343.09064 362.71875 343.09064Q363.28125 343.09064 363.75 343.29376Q364.23438 343.4969 364.46875 343.825Q364.70312 344.15314 364.79688 344.59064Q364.84375 344.8875 364.84375 345.6219L364.84375 349.45L363.79688 349.45L363.79688 345.66876Q363.79688 345.0125 363.67188 344.7Q363.54688 344.3875 363.23438 344.2Q362.92188 343.9969 362.5 343.9969Q361.82812 343.9969 361.32812 344.4344Q360.84375 344.85626 360.84375 346.04376L360.84375 349.45L359.79688 349.45Z" fill-rule="nonzero"/><path fill="#000000" d="M27.550013 293.63647L27.675013 292.54272Q28.628138 292.79272 29.159388 293.49585Q29.690638 294.19897 29.690638 295.2771Q29.690638 296.63647 28.846888 297.44897Q28.003138 298.24585 26.487513 298.24585Q24.925013 298.24585 24.065638 297.43335Q23.190638 296.62085 23.190638 295.3396Q23.190638 294.0896 24.034388 293.30835Q24.878138 292.51147 26.425013 292.51147Q26.518763 292.51147 26.706263 292.51147L26.706263 297.1521Q27.737513 297.0896 28.284388 296.57397Q28.815638 296.05835 28.815638 295.2771Q28.815638 294.69897 28.518763 294.29272Q28.206263 293.87085 27.550013 293.63647ZM25.846888 297.0896L25.846888 293.62085Q25.050013 293.68335 24.659388 294.01147Q24.050013 294.5271 24.050013 295.32397Q24.050013 296.05835 24.534388 296.55835Q25.018763 297.04272 25.846888 297.0896ZM29.550013 290.91772L20.956263 290.91772L20.956263 289.85522L29.550013 289.85522L29.550013 290.91772ZM28.784388 283.82397Q29.284388 284.41772 29.487513 284.9646Q29.690638 285.49585 29.690638 286.12085Q29.690638 287.1521 29.190638 287.69897Q28.690638 288.24585 27.909388 288.24585Q27.456263 288.24585 27.081263 288.04272Q26.690638 287.8396 26.471888 287.49585Q26.237513 287.1521 26.128138 286.73022Q26.034388 286.43335 25.956263 285.79272Q25.815638 284.5271 25.596888 283.91772Q25.378138 283.91772 25.331263 283.91772Q24.675013 283.91772 24.409388 284.2146Q24.065638 284.62085 24.065638 285.41772Q24.065638 286.1521 24.331263 286.51147Q24.581263 286.87085 25.237513 287.04272L25.096888 288.07397Q24.440638 287.93335 24.034388 287.60522Q23.628138 287.2771 23.409388 286.66772Q23.190638 286.05835 23.190638 285.26147Q23.190638 284.4646 23.378138 283.9646Q23.565638 283.4646 23.846888 283.23022Q24.128138 282.99585 24.565638 282.9021Q24.831263 282.85522 25.534388 282.85522L26.940638 282.85522Q28.409388 282.85522 28.800013 282.79272Q29.190638 282.7146 29.550013 282.51147L29.550013 283.62085Q29.221888 283.7771 28.784388 283.82397ZM26.425013 283.91772Q26.659388 284.49585 26.831263 285.63647Q26.925013 286.29272 27.050013 286.55835Q27.159388 286.82397 27.378138 286.98022Q27.596888 287.12085 27.878138 287.12085Q28.300013 287.12085 28.581263 286.80835Q28.862513 286.48022 28.862513 285.87085Q28.862513 285.26147 28.596888 284.79272Q28.331263 284.30835 27.862513 284.0896Q27.503138 283.91772 26.815638 283.91772L26.425013 283.91772ZM31.940638 280.88647L23.331263 280.88647L23.331263 279.93335L24.128138 279.93335Q23.659388 279.5896 23.425013 279.16772Q23.190638 278.73022 23.190638 278.12085Q23.190638 277.32397 23.596888 276.7146Q24.003138 276.10522 24.753138 275.80835Q25.503138 275.49585 26.393763 275.49585Q27.346888 275.49585 28.112513 275.8396Q28.878138 276.16772 29.284388 276.82397Q29.690638 277.48022 29.690638 278.19897Q29.690638 278.73022 29.471888 279.1521Q29.237513 279.57397 28.909388 279.8396L31.940638 279.8396L31.940638 280.88647ZM26.471888 279.93335Q27.675013 279.93335 28.253138 279.44897Q28.815638 278.9646 28.815638 278.2771Q28.815638 277.57397 28.221888 277.07397Q27.628138 276.57397 26.378138 276.57397Q25.190638 276.57397 24.612513 277.05835Q24.018763 277.54272 24.018763 278.23022Q24.018763 278.9021 24.643763 279.41772Q25.268763 279.93335 26.471888 279.93335ZM27.690638 274.30835L27.534388 273.2771Q28.159388 273.18335 28.487513 272.79272Q28.815638 272.38647 28.815638 271.6521Q28.815638 270.93335 28.534388 270.5896Q28.237513 270.23022 27.831263 270.23022Q27.471888 270.23022 27.268763 270.54272Q27.128138 270.76147 26.909388 271.62085Q26.612513 272.7771 26.409388 273.23022Q26.190638 273.66772 25.815638 273.9021Q25.440638 274.13647 24.971888 274.13647Q24.565638 274.13647 24.206263 273.94897Q23.846888 273.76147 23.612513 273.43335Q23.440638 273.18335 23.315638 272.76147Q23.190638 272.3396 23.190638 271.8396Q23.190638 271.12085 23.409388 270.57397Q23.612513 270.01147 23.971888 269.74585Q24.331263 269.48022 24.925013 269.38647L25.065638 270.41772Q24.596888 270.48022 24.331263 270.82397Q24.050013 271.1521 24.050013 271.7771Q24.050013 272.49585 24.300013 272.80835Q24.534388 273.12085 24.862513 273.12085Q25.065638 273.12085 25.221888 272.99585Q25.393763 272.85522 25.503138 272.5896Q25.565638 272.43335 25.768763 271.6521Q26.081263 270.5271 26.268763 270.0896Q26.456263 269.6521 26.815638 269.4021Q27.175013 269.1521 27.721888 269.1521Q28.253138 269.1521 28.721888 269.4646Q29.175013 269.76147 29.440638 270.3396Q29.690638 270.91772 29.690638 271.6521Q29.690638 272.87085 29.190638 273.51147Q28.675013 274.13647 27.690638 274.30835ZM27.550013 262.63647L27.675013 261.54272Q28.628138 261.79272 29.159388 262.49585Q29.690638 263.19897 29.690638 264.2771Q29.690638 265.63647 28.846888 266.44897Q28.003138 267.24585 26.487513 267.24585Q24.925013 267.24585 24.065638 266.43335Q23.190638 265.62085 23.190638 264.3396Q23.190638 263.0896 24.034388 262.30835Q24.878138 261.51147 26.425013 261.51147Q26.518763 261.51147 26.706263 261.51147L26.706263 266.1521Q27.737513 266.0896 28.284388 265.57397Q28.815638 265.05835 28.815638 264.2771Q28.815638 263.69897 28.518763 263.29272Q28.206263 262.87085 27.550013 262.63647ZM25.846888 266.0896L25.846888 262.62085Q25.050013 262.68335 24.659388 263.01147Q24.050013 263.5271 24.050013 264.32397Q24.050013 265.05835 24.534388 265.55835Q25.018763 266.04272 25.846888 266.0896ZM29.550013 255.85521L28.768763 255.85521Q29.690638 256.44897 29.690638 257.5896Q29.690638 258.3396 29.284388 258.9646Q28.862513 259.5896 28.128138 259.93335Q27.393763 260.2771 26.440638 260.2771Q25.518763 260.2771 24.753138 259.9646Q23.987513 259.6521 23.596888 259.0271Q23.190638 258.4021 23.190638 257.63647Q23.190638 257.07397 23.425013 256.63647Q23.659388 256.19897 24.034388 255.91771L20.956263 255.91771L20.956263 254.87083L29.550013 254.87083L29.550013 255.85521ZM26.440638 259.18335Q27.643763 259.18335 28.237513 258.68335Q28.815638 258.18335 28.815638 257.49585Q28.815638 256.80835 28.253138 256.32397Q27.690638 255.83958 26.534388 255.83958Q25.253138 255.83958 24.659388 256.3396Q24.065638 256.82397 24.065638 257.54272Q24.065638 258.24585 24.643763 258.7146Q25.206263 259.18335 26.440638 259.18335ZM31.940638 253.87083L31.175013 253.87083L31.175013 246.87083L31.940638 246.87083L31.940638 253.87083ZM28.612513 243.58958L29.534388 243.43333Q29.628138 243.88646 29.628138 244.23021Q29.628138 244.80833 29.456263 245.12083Q29.268763 245.43333 28.971888 245.57396Q28.675013 245.69896 27.721888 245.69896L24.143763 245.69896L24.143763 246.46458L23.331263 246.46458L23.331263 245.69896L21.784388 245.69896L21.159388 244.65208L23.331263 244.65208L23.331263 243.58958L24.143763 243.58958L24.143763 244.65208L27.784388 244.65208Q28.237513 244.65208 28.362513 244.60521Q28.487513 244.54271 28.565638 244.41771Q28.643763 244.29271 28.643763 244.05833Q28.643763 243.87083 28.612513 243.58958ZM22.175013 242.88646L20.956263 242.88646L20.956263 241.82396L22.175013 241.82396L22.175013 242.88646ZM29.550013 242.88646L23.331263 242.88646L23.331263 241.82396L29.550013 241.82396L29.550013 242.88646ZM29.550013 239.88646L23.331263 239.88646L23.331263 238.94896L24.206263 238.94896Q23.737513 238.65208 23.471888 238.16771Q23.190638 237.68333 23.190638 237.05833Q23.190638 236.37083 23.471888 235.93333Q23.753138 235.48021 24.268763 235.30833Q23.190638 234.55833 23.190638 233.38646Q23.190638 232.44896 23.706263 231.96458Q24.206263 231.46458 25.284388 231.46458L29.550013 231.46458L29.550013 232.51146L25.628138 232.51146Q25.003138 232.51146 24.721888 232.62083Q24.440638 232.71458 24.268763 232.98021Q24.096888 233.24583 24.096888 233.62083Q24.096888 234.27708 24.534388 234.71458Q24.971888 235.13646 25.940638 235.13646L29.550013 235.13646L29.550013 236.19896L25.503138 236.19896Q24.800013 236.19896 24.456263 236.46458Q24.096888 236.71458 24.096888 237.29271Q24.096888 237.74583 24.331263 238.12083Q24.565638 238.49583 25.018763 238.66771Q25.471888 238.83958 26.315638 238.83958L29.550013 238.83958L29.550013 239.88646ZM27.550013 224.63646L27.675013 223.54271Q28.628138 223.79271 29.159388 224.49583Q29.690638 225.19896 29.690638 226.27708Q29.690638 227.63646 28.846888 228.44896Q28.003138 229.24583 26.487513 229.24583Q24.925013 229.24583 24.065638 228.43333Q23.190638 227.62083 23.190638 226.33958Q23.190638 225.08958 24.034388 224.30833Q24.878138 223.51146 26.425013 223.51146Q26.518763 223.51146 26.706263 223.51146L26.706263 228.15208Q27.737513 228.08958 28.284388 227.57396Q28.815638 227.05833 28.815638 226.27708Q28.815638 225.69896 28.518763 225.29271Q28.206263 224.87083 27.550013 224.63646ZM25.846888 228.08958L25.846888 224.62083Q25.050013 224.68333 24.659388 225.01146Q24.050013 225.52708 24.050013 226.32396Q24.050013 227.05833 24.534388 227.55833Q25.018763 228.04271 25.846888 228.08958ZM22.175013 218.88646L20.956263 218.88646L20.956263 217.82396L22.175013 217.82396L22.175013 218.88646ZM29.550013 218.88646L23.331263 218.88646L23.331263 217.82396L29.550013 217.82396L29.550013 218.88646ZM29.550013 215.88646L23.331263 215.88646L23.331263 214.94896L24.206263 214.94896Q23.190638 214.26146 23.190638 212.96458Q23.190638 212.40208 23.393763 211.93333Q23.596888 211.44896 23.925013 211.21458Q24.253138 210.98021 24.690638 210.88646Q24.987513 210.83958 25.721888 210.83958L29.550013 210.83958L29.550013 211.88646L25.768763 211.88646Q25.112513 211.88646 24.800013 212.01146Q24.487513 212.13646 24.300013 212.44896Q24.096888 212.76146 24.096888 213.18333Q24.096888 213.85521 24.534388 214.35521Q24.956263 214.83958 26.143763 214.83958L29.550013 214.83958L29.550013 215.88646ZM27.690638 206.30833L27.534388 205.27708Q28.159388 205.18333 28.487513 204.79271Q28.815638 204.38646 28.815638 203.65208Q28.815638 202.93333 28.534388 202.58958Q28.237513 202.23021 27.831263 202.23021Q27.471888 202.23021 27.268763 202.54271Q27.128138 202.76146 26.909388 203.62083Q26.612513 204.77708 26.409388 205.23021Q26.190638 205.66771 25.815638 205.90208Q25.440638 206.13646 24.971888 206.13646Q24.565638 206.13646 24.206263 205.94896Q23.846888 205.76146 23.612513 205.43333Q23.440638 205.18333 23.315638 204.76146Q23.190638 204.33958 23.190638 203.83958Q23.190638 203.12083 23.409388 202.57396Q23.612513 202.01146 23.971888 201.74583Q24.331263 201.48021 24.925013 201.38646L25.065638 202.41771Q24.596888 202.48021 24.331263 202.82396Q24.050013 203.15208 24.050013 203.77708Q24.050013 204.49583 24.300013 204.80833Q24.534388 205.12083 24.862513 205.12083Q25.065638 205.12083 25.221888 204.99583Q25.393763 204.85521 25.503138 204.58958Q25.565638 204.43333 25.768763 203.65208Q26.081263 202.52708 26.268763 202.08958Q26.456263 201.65208 26.815638 201.40208Q27.175013 201.15208 27.721888 201.15208Q28.253138 201.15208 28.721888 201.46458Q29.175013 201.76146 29.440638 202.33958Q29.690638 202.91771 29.690638 203.65208Q29.690638 204.87083 29.190638 205.51146Q28.675013 206.13646 27.690638 206.30833ZM27.550013 194.63646L27.675013 193.54271Q28.628138 193.79271 29.159388 194.49583Q29.690638 195.19896 29.690638 196.27708Q29.690638 197.63646 28.846888 198.44896Q28.003138 199.24583 26.487513 199.24583Q24.925013 199.24583 24.065638 198.43333Q23.190638 197.62083 23.190638 196.33958Q23.190638 195.08958 24.034388 194.30833Q24.878138 193.51146 26.425013 193.51146Q26.518763 193.51146 26.706263 193.51146L26.706263 198.15208Q27.737513 198.08958 28.284388 197.57396Q28.815638 197.05833 28.815638 196.27708Q28.815638 195.69896 28.518763 195.29271Q28.206263 194.87083 27.550013 194.63646ZM25.846888 198.08958L25.846888 194.62083Q25.050013 194.68333 24.659388 195.01146Q24.050013 195.52708 24.050013 196.32396Q24.050013 197.05833 24.534388 197.55833Q25.018763 198.04271 25.846888 198.08958ZM27.268763 187.82396L27.409388 186.79271Q28.471888 186.96458 29.081263 187.66771Q29.690638 188.37083 29.690638 189.38646Q29.690638 190.66771 28.862513 191.44896Q28.018763 192.21458 26.456263 192.21458Q25.456263 192.21458 24.706263 191.88646Q23.940638 191.54271 23.565638 190.87083Q23.190638 190.18333 23.190638 189.37083Q23.190638 188.37083 23.706263 187.73021Q24.206263 187.07396 25.159388 186.88646L25.315638 187.91771Q24.690638 188.05833 24.378138 188.43333Q24.050013 188.80833 24.050013 189.33958Q24.050013 190.13646 24.628138 190.63646Q25.190638 191.13646 26.425013 191.13646Q27.690638 191.13646 28.253138 190.65208Q28.815638 190.16771 28.815638 189.40208Q28.815638 188.77708 28.440638 188.37083Q28.065638 187.94896 27.268763 187.82396ZM26.440638 186.27708Q24.706263 186.27708 23.878138 185.32396Q23.190638 184.52708 23.190638 183.37083Q23.190638 182.08958 24.034388 181.27708Q24.862513 180.44896 26.346888 180.44896Q27.550013 180.44896 28.237513 180.80833Q28.925013 181.16771 29.315638 181.87083Q29.690638 182.55833 29.690638 183.37083Q29.690638 184.66771 28.862513 185.48021Q28.018763 186.27708 26.440638 186.27708ZM26.440638 185.19896Q27.628138 185.19896 28.221888 184.68333Q28.815638 184.15208 28.815638 183.37083Q28.815638 182.57396 28.221888 182.05833Q27.628138 181.54271 26.409388 181.54271Q25.253138 181.54271 24.659388 182.07396Q24.065638 182.58958 24.065638 183.37083Q24.065638 184.15208 24.659388 184.68333Q25.237513 185.19896 26.440638 185.19896ZM29.550013 178.88646L23.331263 178.88646L23.331263 177.94896L24.206263 177.94896Q23.190638 177.26146 23.190638 175.96458Q23.190638 175.40208 23.393763 174.93333Q23.596888 174.44896 23.925013 174.21458Q24.253138 173.98021 24.690638 173.88646Q24.987513 173.83958 25.721888 173.83958L29.550013 173.83958L29.550013 174.88646L25.768763 174.88646Q25.112513 174.88646 24.800013 175.01146Q24.487513 175.13646 24.300013 175.44896Q24.096888 175.76146 24.096888 176.18333Q24.096888 176.85521 24.534388 177.35521Q24.956263 177.83958 26.143763 177.83958L29.550013 177.83958L29.550013 178.88646ZM29.550013 167.85521L28.768763 167.85521Q29.690638 168.44896 29.690638 169.58958Q29.690638 170.33958 29.284388 170.96458Q28.862513 171.58958 28.128138 171.93333Q27.393763 172.27708 26.440638 172.27708Q25.518763 172.27708 24.753138 171.96458Q23.987513 171.65208 23.596888 171.02708Q23.190638 170.40208 23.190638 169.63646Q23.190638 169.07396 23.425013 168.63646Q23.659388 168.19896 24.034388 167.91771L20.956263 167.91771L20.956263 166.87083L29.550013 166.87083L29.550013 167.85521ZM26.440638 171.18333Q27.643763 171.18333 28.237513 170.68333Q28.815638 170.18333 28.815638 169.49583Q28.815638 168.80833 28.253138 168.32396Q27.690638 167.83958 26.534388 167.83958Q25.253138 167.83958 24.659388 168.33958Q24.065638 168.82396 24.065638 169.54271Q24.065638 170.24583 24.643763 170.71458Q25.206263 171.18333 26.440638 171.18333ZM27.690638 165.30833L27.534388 164.27708Q28.159388 164.18333 28.487513 163.79271Q28.815638 163.38646 28.815638 162.65208Q28.815638 161.93333 28.534388 161.58958Q28.237513 161.23021 27.831263 161.23021Q27.471888 161.23021 27.268763 161.54271Q27.128138 161.76146 26.909388 162.62083Q26.612513 163.77708 26.409388 164.23021Q26.190638 164.66771 25.815638 164.90208Q25.440638 165.13646 24.971888 165.13646Q24.565638 165.13646 24.206263 164.94896Q23.846888 164.76146 23.612513 164.43333Q23.440638 164.18333 23.315638 163.76146Q23.190638 163.33958 23.190638 162.83958Q23.190638 162.12083 23.409388 161.57396Q23.612513 161.01146 23.971888 160.74583Q24.331263 160.48021 24.925013 160.38646L25.065638 161.41771Q24.596888 161.48021 24.331263 161.82396Q24.050013 162.15208 24.050013 162.77708Q24.050013 163.49583 24.300013 163.80833Q24.534388 164.12083 24.862513 164.12083Q25.065638 164.12083 25.221888 163.99583Q25.393763 163.85521 25.503138 163.58958Q25.565638 163.43333 25.768763 162.65208Q26.081263 161.52708 26.268763 161.08958Q26.456263 160.65208 26.815638 160.40208Q27.175013 160.15208 27.721888 160.15208Q28.253138 160.15208 28.721888 160.46458Q29.175013 160.76146 29.440638 161.33958Q29.690638 161.91771 29.690638 162.65208Q29.690638 163.87083 29.190638 164.51146Q28.675013 165.13646 27.690638 165.30833ZM32.08126 152.87083Q30.971888 153.74583 29.503138 154.35521Q28.018763 154.94896 26.440638 154.94896Q25.050013 154.94896 23.768763 154.51146Q22.284388 153.98021 20.815638 152.87083L20.815638 152.12083Q22.034388 152.82396 22.550013 153.05833Q23.362513 153.41771 24.237513 153.62083Q25.331263 153.87083 26.440638 153.87083Q29.268763 153.87083 32.08126 152.12083L32.08126 152.87083ZM29.550013 150.91771L20.956263 150.91771L20.956263 149.85521L29.550013 149.85521L29.550013 150.91771ZM27.550013 143.63646L27.675013 142.54271Q28.628138 142.79271 29.159388 143.49583Q29.690638 144.19896 29.690638 145.27708Q29.690638 146.63646 28.846888 147.44896Q28.003138 148.24583 26.487513 148.24583Q24.925013 148.24583 24.065638 147.43333Q23.190638 146.62083 23.190638 145.33958Q23.190638 144.08958 24.034388 143.30833Q24.878138 142.51146 26.425013 142.51146Q26.518763 142.51146 26.706263 142.51146L26.706263 147.15208Q27.737513 147.08958 28.284388 146.57396Q28.815638 146.05833 28.815638 145.27708Q28.815638 144.69896 28.518763 144.29271Q28.206263 143.87083 27.550013 143.63646ZM25.846888 147.08958L25.846888 143.62083Q25.050013 143.68333 24.659388 144.01146Q24.050013 144.52708 24.050013 145.32396Q24.050013 146.05833 24.534388 146.55833Q25.018763 147.04271 25.846888 147.08958ZM27.690638 141.30833L27.534388 140.27708Q28.159388 140.18333 28.487513 139.79271Q28.815638 139.38646 28.815638 138.65208Q28.815638 137.93333 28.534388 137.58958Q28.237513 137.23021 27.831263 137.23021Q27.471888 137.23021 27.268763 137.54271Q27.128138 137.76146 26.909388 138.62083Q26.612513 139.77708 26.409388 140.23021Q26.190638 140.66771 25.815638 140.90208Q25.440638 141.13646 24.971888 141.13646Q24.565638 141.13646 24.206263 140.94896Q23.846888 140.76146 23.612513 140.43333Q23.440638 140.18333 23.315638 139.76146Q23.190638 139.33958 23.190638 138.83958Q23.190638 138.12083 23.409388 137.57396Q23.612513 137.01146 23.971888 136.74583Q24.331263 136.48021 24.925013 136.38646L25.065638 137.41771Q24.596888 137.48021 24.331263 137.82396Q24.050013 138.15208 24.050013 138.77708Q24.050013 139.49583 24.300013 139.80833Q24.534388 140.12083 24.862513 140.12083Q25.065638 140.12083 25.221888 139.99583Q25.393763 139.85521 25.503138 139.58958Q25.565638 139.43333 25.768763 138.65208Q26.081263 137.52708 26.268763 137.08958Q26.456263 136.65208 26.815638 136.40208Q27.175013 136.15208 27.721888 136.15208Q28.253138 136.15208 28.721888 136.46458Q29.175013 136.76146 29.440638 137.33958Q29.690638 137.91771 29.690638 138.65208Q29.690638 139.87083 29.190638 140.51146Q28.675013 141.13646 27.690638 141.30833ZM27.690638 134.30833L27.534388 133.27708Q28.159388 133.18333 28.487513 132.79271Q28.815638 132.38646 28.815638 131.65208Q28.815638 130.93333 28.534388 130.58958Q28.237513 130.23021 27.831263 130.23021Q27.471888 130.23021 27.268763 130.54271Q27.128138 130.76146 26.909388 131.62083Q26.612513 132.77708 26.409388 133.23021Q26.190638 133.66771 25.815638 133.90208Q25.440638 134.13646 24.971888 134.13646Q24.565638 134.13646 24.206263 133.94896Q23.846888 133.76146 23.612513 133.43333Q23.440638 133.18333 23.315638 132.76146Q23.190638 132.33958 23.190638 131.83958Q23.190638 131.12083 23.409388 130.57396Q23.612513 130.01146 23.971888 129.74583Q24.331263 129.48021 24.925013 129.38646L25.065638 130.41771Q24.596888 130.48021 24.331263 130.82396Q24.050013 131.15208 24.050013 131.77708Q24.050013 132.49583 24.300013 132.80833Q24.534388 133.12083 24.862513 133.12083Q25.065638 133.12083 25.221888 132.99583Q25.393763 132.85521 25.503138 132.58958Q25.565638 132.43333 25.768763 131.65208Q26.081263 130.52708 26.268763 130.08958Q26.456263 129.65208 26.815638 129.40208Q27.175013 129.15208 27.721888 129.15208Q28.253138 129.15208 28.721888 129.46458Q29.175013 129.76146 29.440638 130.33958Q29.690638 130.91771 29.690638 131.65208Q29.690638 132.87083 29.190638 133.51146Q28.675013 134.13646 27.690638 134.30833ZM22.175013 123.88646L20.956263 123.88646L20.956263 122.82396L22.175013 122.82396L22.175013 123.88646ZM29.550013 123.88646L23.331263 123.88646L23.331263 122.82396L29.550013 122.82396L29.550013 123.88646ZM27.690638 121.308334L27.534388 120.277084Q28.159388 120.183334 28.487513 119.79271Q28.815638 119.38646 28.815638 118.652084Q28.815638 117.933334 28.534388 117.589584Q28.237513 117.23021 27.831263 117.23021Q27.471888 117.23021 27.268763 117.54271Q27.128138 117.76146 26.909388 118.620834Q26.612513 119.777084 26.409388 120.23021Q26.190638 120.66771 25.815638 120.902084Q25.440638 121.13646 24.971888 121.13646Q24.565638 121.13646 24.206263 120.94896Q23.846888 120.76146 23.612513 120.433334Q23.440638 120.183334 23.315638 119.76146Q23.190638 119.339584 23.190638 118.839584Q23.190638 118.120834 23.409388 117.57396Q23.612513 117.01146 23.971888 116.745834Q24.331263 116.48021 24.925013 116.38646L25.065638 117.41771Q24.596888 117.48021 24.331263 117.82396Q24.050013 118.152084 24.050013 118.777084Q24.050013 119.495834 24.300013 119.808334Q24.534388 120.120834 24.862513 120.120834Q25.065638 120.120834 25.221888 119.995834Q25.393763 119.85521 25.503138 119.589584Q25.565638 119.433334 25.768763 118.652084Q26.081263 117.527084 26.268763 117.089584Q26.456263 116.652084 26.815638 116.402084Q27.175013 116.152084 27.721888 116.152084Q28.253138 116.152084 28.721888 116.464584Q29.175013 116.76146 29.440638 117.339584Q29.690638 117.91771 29.690638 118.652084Q29.690638 119.870834 29.190638 120.51146Q28.675013 121.13646 27.690638 121.308334ZM29.550013 109.91771L29.550013 110.902084L20.956263 110.902084L20.956263 109.839584L24.018763 109.839584Q23.190638 109.16771 23.190638 108.13646Q23.190638 107.558334 23.425013 107.058334Q23.643763 106.54271 24.065638 106.214584Q24.487513 105.870834 25.081263 105.683334Q25.675013 105.495834 26.346888 105.495834Q27.940638 105.495834 28.815638 106.29271Q29.690638 107.089584 29.690638 108.183334Q29.690638 109.29271 28.768763 109.91771L29.550013 109.91771ZM26.393763 109.933334Q27.503138 109.933334 28.003138 109.620834Q28.815638 109.120834 28.815638 108.277084Q28.815638 107.589584 28.221888 107.089584Q27.628138 106.57396 26.425013 106.57396Q25.206263 106.57396 24.628138 107.058334Q24.050013 107.54271 24.050013 108.23021Q24.050013 108.91771 24.659388 109.433334Q25.253138 109.933334 26.393763 109.933334ZM27.550013 99.63646L27.675013 98.54271Q28.628138 98.79271 29.159388 99.495834Q29.690638 100.19896 29.690638 101.277084Q29.690638 102.63646 28.846888 103.44896Q28.003138 104.245834 26.487513 104.245834Q24.925013 104.245834 24.065638 103.433334Q23.190638 102.620834 23.190638 101.339584Q23.190638 100.089584 24.034388 99.308334Q24.878138 98.51146 26.425013 98.51146Q26.518763 98.51146 26.706263 98.51146L26.706263 103.152084Q27.737513 103.089584 28.284388 102.57396Q28.815638 102.058334 28.815638 101.277084Q28.815638 100.69896 28.518763 100.29271Q28.206263 99.870834 27.550013 99.63646ZM25.846888 103.089584L25.846888 99.620834Q25.050013 99.683334 24.659388 100.01146Q24.050013 100.527084 24.050013 101.32396Q24.050013 102.058334 24.534388 102.558334Q25.018763 103.04271 25.846888 103.089584ZM28.612513 94.589584L29.534388 94.433334Q29.628138 94.88646 29.628138 95.23021Q29.628138 95.808334 29.456263 96.120834Q29.268763 96.433334 28.971888 96.57396Q28.675013 96.69896 27.721888 96.69896L24.143763 96.69896L24.143763 97.464584L23.331263 97.464584L23.331263 96.69896L21.784388 96.69896L21.159388 95.652084L23.331263 95.652084L23.331263 94.589584L24.143763 94.589584L24.143763 95.652084L27.784388 95.652084Q28.237513 95.652084 28.362513 95.60521Q28.487513 95.54271 28.565638 95.41771Q28.643763 95.29271 28.643763 95.058334Q28.643763 94.870834 28.612513 94.589584ZM28.612513 91.589584L29.534388 91.433334Q29.628138 91.88646 29.628138 92.23021Q29.628138 92.808334 29.456263 93.120834Q29.268763 93.433334 28.971888 93.57396Q28.675013 93.69896 27.721888 93.69896L24.143763 93.69896L24.143763 94.464584L23.331263 94.464584L23.331263 93.69896L21.784388 93.69896L21.159388 92.652084L23.331263 92.652084L23.331263 91.589584L24.143763 91.589584L24.143763 92.652084L27.784388 92.652084Q28.237513 92.652084 28.362513 92.60521Q28.487513 92.54271 28.565638 92.41771Q28.643763 92.29271 28.643763 92.058334Q28.643763 91.870834 28.612513 91.589584ZM27.550013 86.63646L27.675013 85.54271Q28.628138 85.79271 29.159388 86.495834Q29.690638 87.19896 29.690638 88.277084Q29.690638 89.63646 28.846888 90.44896Q28.003138 91.245834 26.487513 91.245834Q24.925013 91.245834 24.065638 90.433334Q23.190638 89.620834 23.190638 88.339584Q23.190638 87.089584 24.034388 86.308334Q24.878138 85.51146 26.425013 85.51146Q26.518763 85.51146 26.706263 85.51146L26.706263 90.152084Q27.737513 90.089584 28.284388 89.57396Q28.815638 89.058334 28.815638 88.277084Q28.815638 87.69896 28.518763 87.29271Q28.206263 86.870834 27.550013 86.63646ZM25.846888 90.089584L25.846888 86.620834Q25.050013 86.683334 24.659388 87.01146Q24.050013 87.527084 24.050013 88.32396Q24.050013 89.058334 24.534388 89.558334Q25.018763 90.04271 25.846888 90.089584ZM29.550013 83.902084L23.331263 83.902084L23.331263 82.948975L24.268763 82.948975Q23.612513 82.5896 23.409388 82.292725Q23.190638 81.980225 23.190638 81.605225Q23.190638 81.073975 23.518763 80.5271L24.503138 80.886475Q24.268763 81.2771 24.268763 81.6521Q24.268763 82.011475 24.487513 82.292725Q24.690638 82.55835 25.065638 82.667725Q25.628138 82.855225 26.284388 82.855225L29.550013 82.855225L29.550013 83.902084ZM32.08126 79.198975L32.08126 79.948975Q29.268763 78.198975 26.440638 78.198975Q25.346888 78.198975 24.253138 78.448975Q23.378138 78.6521 22.565638 79.011475Q22.050013 79.24585 20.815638 79.948975L20.815638 79.198975Q22.284388 78.105225 23.768763 77.573975Q25.050013 77.12085 26.440638 77.12085Q28.018763 77.12085 29.503138 77.730225Q30.971888 78.3396 32.08126 79.198975Z" fill-rule="nonzero"/><path fill="#000000" d="M65.05 300.21564Q65.05 298.6844 65.3625 297.7625Q65.675 296.825 66.28438 296.325Q66.90938 295.825 67.84688 295.825Q68.53438 295.825 69.05 296.10626Q69.58125 296.3875 69.925 296.91876Q70.26875 297.4344 70.45625 298.1844Q70.64375 298.9344 70.64375 300.21564Q70.64375 301.73126 70.33125 302.65314Q70.03438 303.575 69.40938 304.09064Q68.8 304.59064 67.84688 304.59064Q66.6125 304.59064 65.89375 303.7Q65.05 302.6375 65.05 300.21564ZM66.12813 300.21564Q66.12813 302.325 66.62813 303.02814Q67.12813 303.73126 67.84688 303.73126Q68.58125 303.73126 69.06563 303.02814Q69.56563 302.325 69.56563 300.21564Q69.56563 298.09064 69.06563 297.40314Q68.58125 296.7 67.83125 296.7Q67.1125 296.7 66.675 297.3094Q66.12813 298.09064 66.12813 300.21564Z" fill-rule="nonzero"/><path fill="#000000" d="M56.596874 243.80104L56.596874 244.81667L50.909374 244.81667Q50.909374 244.44167 51.034374 244.08229Q51.253124 243.50417 51.721874 242.94167Q52.20625 242.37917 53.1125 241.64479Q54.51875 240.48854 55.003124 239.81667Q55.503124 239.14479 55.503124 238.55104Q55.503124 237.92604 55.05 237.50417Q54.596874 237.06667 53.878124 237.06667Q53.1125 237.06667 52.659374 237.51979Q52.20625 237.97292 52.190624 238.78542L51.1125 238.67604Q51.221874 237.45729 51.940624 236.83229Q52.675 236.19167 53.909374 236.19167Q55.14375 236.19167 55.8625 236.87917Q56.58125 237.56667 56.58125 238.58229Q56.58125 239.09792 56.3625 239.59792Q56.159374 240.08229 55.659374 240.64479Q55.175 241.19167 54.05 242.14479Q53.096874 242.94167 52.815624 243.23854Q52.55 243.51979 52.378124 243.80104L56.596874 243.80104ZM58.05 240.58229Q58.05 239.05104 58.3625 238.12917Q58.675 237.19167 59.284374 236.69167Q59.909374 236.19167 60.846874 236.19167Q61.534374 236.19167 62.05 236.47292Q62.58125 236.75417 62.925 237.28542Q63.26875 237.80104 63.45625 238.55104Q63.64375 239.30104 63.64375 240.58229Q63.64375 242.09792 63.33125 243.01979Q63.034374 243.94167 62.409374 244.45729Q61.8 244.95729 60.846874 244.95729Q59.6125 244.95729 58.89375 244.06667Q58.05 243.00417 58.05 240.58229ZM59.128124 240.58229Q59.128124 242.69167 59.628124 243.39479Q60.128124 244.09792 60.846874 244.09792Q61.58125 244.09792 62.065624 243.39479Q62.565624 242.69167 62.565624 240.58229Q62.565624 238.45729 62.065624 237.76979Q61.58125 237.06667 60.83125 237.06667Q60.1125 237.06667 59.675 237.67604Q59.128124 238.45729 59.128124 240.58229ZM65.05 240.58229Q65.05 239.05104 65.3625 238.12917Q65.675 237.19167 66.28438 236.69167Q66.90938 236.19167 67.84688 236.19167Q68.53438 236.19167 69.05 236.47292Q69.58125 236.75417 69.925 237.28542Q70.26875 237.80104 70.45625 238.55104Q70.64375 239.30104 70.64375 240.58229Q70.64375 242.09792 70.33125 243.01979Q70.03438 243.94167 69.40938 244.45729Q68.8 244.95729 67.84688 244.95729Q66.6125 244.95729 65.89375 244.06667Q65.05 243.00417 65.05 240.58229ZM66.12813 240.58229Q66.12813 242.69167 66.62813 243.39479Q67.12813 244.09792 67.84688 244.09792Q68.58125 244.09792 69.06563 243.39479Q69.56563 242.69167 69.56563 240.58229Q69.56563 238.45729 69.06563 237.76979Q68.58125 237.06667 67.83125 237.06667Q67.1125 237.06667 66.675 237.67604Q66.12813 238.45729 66.12813 240.58229Z" fill-rule="nonzero"/><path fill="#000000" d="M54.425 185.18333L54.425 183.12083L50.70625 183.12083L50.70625 182.15208L54.628124 176.58958L55.4875 176.58958L55.4875 182.15208L56.64375 182.15208L56.64375 183.12083L55.4875 183.12083L55.4875 185.18333L54.425 185.18333ZM54.425 182.15208L54.425 178.29271L51.7375 182.15208L54.425 182.15208ZM58.05 180.94896Q58.05 179.41771 58.3625 178.49583Q58.675 177.55833 59.284374 177.05833Q59.909374 176.55833 60.846874 176.55833Q61.534374 176.55833 62.05 176.83958Q62.58125 177.12083 62.925 177.65208Q63.26875 178.16771 63.45625 178.91771Q63.64375 179.66771 63.64375 180.94896Q63.64375 182.46458 63.33125 183.38646Q63.034374 184.30833 62.409374 184.82396Q61.8 185.32396 60.846874 185.32396Q59.6125 185.32396 58.89375 184.43333Q58.05 183.37083 58.05 180.94896ZM59.128124 180.94896Q59.128124 183.05833 59.628124 183.76146Q60.128124 184.46458 60.846874 184.46458Q61.58125 184.46458 62.065624 183.76146Q62.565624 183.05833 62.565624 180.94896Q62.565624 178.82396 62.065624 178.13646Q61.58125 177.43333 60.83125 177.43333Q60.1125 177.43333 59.675 178.04271Q59.128124 178.82396 59.128124 180.94896ZM65.05 180.94896Q65.05 179.41771 65.3625 178.49583Q65.675 177.55833 66.28438 177.05833Q66.90938 176.55833 67.84688 176.55833Q68.53438 176.55833 69.05 176.83958Q69.58125 177.12083 69.925 177.65208Q70.26875 178.16771 70.45625 178.91771Q70.64375 179.66771 70.64375 180.94896Q70.64375 182.46458 70.33125 183.38646Q70.03438 184.30833 69.40938 184.82396Q68.8 185.32396 67.84688 185.32396Q66.6125 185.32396 65.89375 184.43333Q65.05 183.37083 65.05 180.94896ZM66.12813 180.94896Q66.12813 183.05833 66.62813 183.76146Q67.12813 184.46458 67.84688 184.46458Q68.58125 184.46458 69.06563 183.76146Q69.56563 183.05833 69.56563 180.94896Q69.56563 178.82396 69.06563 178.13646Q68.58125 177.43333 67.83125 177.43333Q67.1125 177.43333 66.675 178.04271Q66.12813 178.82396 66.12813 180.94896Z" fill-rule="nonzero"/><path fill="#000000" d="M56.51875 119.06563L55.471874 119.14375Q55.33125 118.51875 55.08125 118.2375Q54.64375 117.78438 54.01875 117.78438Q53.51875 117.78438 53.128124 118.06563Q52.64375 118.44063 52.346874 119.14375Q52.065624 119.83125 52.05 121.1125Q52.425 120.53438 52.971874 120.25313Q53.534374 119.97188 54.14375 119.97188Q55.190624 119.97188 55.925 120.75313Q56.675 121.53438 56.675 122.75313Q56.675 123.56563 56.315624 124.26875Q55.971874 124.95625 55.3625 125.33125Q54.753124 125.69063 53.9875 125.69063Q52.659374 125.69063 51.83125 124.72188Q51.003124 123.75313 51.003124 121.53438Q51.003124 119.03438 51.925 117.90938Q52.721874 116.925 54.08125 116.925Q55.096874 116.925 55.7375 117.50313Q56.39375 118.06563 56.51875 119.06563ZM52.221874 122.76875Q52.221874 123.31563 52.440624 123.81563Q52.675 124.3 53.08125 124.56563Q53.503124 124.83125 53.971874 124.83125Q54.628124 124.83125 55.1125 124.3Q55.596874 123.75313 55.596874 122.83125Q55.596874 121.94063 55.1125 121.425Q54.64375 120.90938 53.925 120.90938Q53.20625 120.90938 52.70625 121.425Q52.221874 121.94063 52.221874 122.76875ZM58.05 121.31563Q58.05 119.78438 58.3625 118.8625Q58.675 117.925 59.284374 117.425Q59.909374 116.925 60.846874 116.925Q61.534374 116.925 62.05 117.20625Q62.58125 117.4875 62.925 118.01875Q63.26875 118.53438 63.45625 119.28438Q63.64375 120.03438 63.64375 121.31563Q63.64375 122.83125 63.33125 123.75313Q63.034374 124.675 62.409374 125.19063Q61.8 125.69063 60.846874 125.69063Q59.6125 125.69063 58.89375 124.8Q58.05 123.7375 58.05 121.31563ZM59.128124 121.31563Q59.128124 123.425 59.628124 124.12813Q60.128124 124.83125 60.846874 124.83125Q61.58125 124.83125 62.065624 124.12813Q62.565624 123.425 62.565624 121.31563Q62.565624 119.19063 62.065624 118.50313Q61.58125 117.8 60.83125 117.8Q60.1125 117.8 59.675 118.40938Q59.128124 119.19063 59.128124 121.31563ZM65.05 121.31563Q65.05 119.78438 65.3625 118.8625Q65.675 117.925 66.28438 117.425Q66.90938 116.925 67.84688 116.925Q68.53438 116.925 69.05 117.20625Q69.58125 117.4875 69.925 118.01875Q70.26875 118.53438 70.45625 119.28438Q70.64375 120.03438 70.64375 121.31563Q70.64375 122.83125 70.33125 123.75313Q70.03438 124.675 69.40938 125.19063Q68.8 125.69063 67.84688 125.69063Q66.6125 125.69063 65.89375 124.8Q65.05 123.7375 65.05 121.31563ZM66.12813 121.31563Q66.12813 123.425 66.62813 124.12813Q67.12813 124.83125 67.84688 124.83125Q68.58125 124.83125 69.06563 124.12813Q69.56563 123.425 69.56563 121.31563Q69.56563 119.19063 69.06563 118.50313Q68.58125 117.8 67.83125 117.8Q67.1125 117.8 66.675 118.40938Q66.12813 119.19063 66.12813 121.31563Z" fill-rule="nonzero"/><path fill="#000000" d="M52.675 61.260414Q52.01875 61.010414 51.690624 60.572914Q51.378124 60.11979 51.378124 59.510414Q51.378124 58.572914 52.05 57.93229Q52.7375 57.291664 53.846874 57.291664Q54.971874 57.291664 55.659374 57.947914Q56.346874 58.604164 56.346874 59.541664Q56.346874 60.135414 56.034374 60.572914Q55.721874 61.010414 55.08125 61.260414Q55.878124 61.510414 56.284374 62.08854Q56.690624 62.666664 56.690624 63.46354Q56.690624 64.55729 55.909374 65.30729Q55.14375 66.05729 53.8625 66.05729Q52.596874 66.05729 51.815624 65.30729Q51.034374 64.55729 51.034374 63.43229Q51.034374 62.58854 51.45625 62.02604Q51.89375 61.46354 52.675 61.260414ZM52.45625 59.46354Q52.45625 60.072914 52.846874 60.46354Q53.253124 60.854164 53.878124 60.854164Q54.4875 60.854164 54.878124 60.479164Q55.26875 60.08854 55.26875 59.52604Q55.26875 58.947914 54.8625 58.55729Q54.45625 58.15104 53.8625 58.15104Q53.253124 58.15104 52.846874 58.541664Q52.45625 58.93229 52.45625 59.46354ZM52.128124 63.43229Q52.128124 63.885414 52.33125 64.30729Q52.55 64.729164 52.971874 64.96354Q53.39375 65.197914 53.878124 65.197914Q54.628124 65.197914 55.1125 64.71354Q55.6125 64.229164 55.6125 63.479164Q55.6125 62.71354 55.1125 62.21354Q54.6125 61.71354 53.846874 61.71354Q53.096874 61.71354 52.6125 62.21354Q52.128124 62.697914 52.128124 63.43229ZM58.05 61.68229Q58.05 60.15104 58.3625 59.229164Q58.675 58.291664 59.284374 57.791664Q59.909374 57.291664 60.846874 57.291664Q61.534374 57.291664 62.05 57.572914Q62.58125 57.854164 62.925 58.385414Q63.26875 58.90104 63.45625 59.65104Q63.64375 60.40104 63.64375 61.68229Q63.64375 63.197914 63.33125 64.11979Q63.034374 65.041664 62.409374 65.55729Q61.8 66.05729 60.846874 66.05729Q59.6125 66.05729 58.89375 65.166664Q58.05 64.104164 58.05 61.68229ZM59.128124 61.68229Q59.128124 63.791664 59.628124 64.49479Q60.128124 65.197914 60.846874 65.197914Q61.58125 65.197914 62.065624 64.49479Q62.565624 63.791664 62.565624 61.68229Q62.565624 59.55729 62.065624 58.86979Q61.58125 58.166664 60.83125 58.166664Q60.1125 58.166664 59.675 58.77604Q59.128124 59.55729 59.128124 61.68229ZM65.05 61.68229Q65.05 60.15104 65.3625 59.229164Q65.675 58.291664 66.28438 57.791664Q66.90938 57.291664 67.84688 57.291664Q68.53438 57.291664 69.05 57.572914Q69.58125 57.854164 69.925 58.385414Q70.26875 58.90104 70.45625 59.65104Q70.64375 60.40104 70.64375 61.68229Q70.64375 63.197914 70.33125 64.11979Q70.03438 65.041664 69.40938 65.55729Q68.8 66.05729 67.84688 66.05729Q66.6125 66.05729 65.89375 65.166664Q65.05 64.104164 65.05 61.68229ZM66.12813 61.68229Q66.12813 63.791664 66.62813 64.49479Q67.12813 65.197914 67.84688 65.197914Q68.58125 65.197914 69.06563 64.49479Q69.56563 63.791664 69.56563 61.68229Q69.56563 59.55729 69.06563 58.86979Q68.58125 58.166664 67.83125 58.166664Q67.1125 58.166664 66.675 58.77604Q66.12813 59.55729 66.12813 61.68229Z" fill-rule="nonzero"/><path fill="#000000" d="M205.30286 317.45L202.94348 311.23126L204.05286 311.23126L205.3966 314.95Q205.59973 315.5594 205.78723 316.2Q205.92786 315.71564 206.17786 315.02814L207.56848 311.23126L208.6466 311.23126L206.28723 317.45L205.30286 317.45ZM212.25598 317.45L211.2091 317.45L211.2091 310.73126Q210.81848 311.09064 210.19348 311.46564Q209.5841 311.825 209.09973 311.9969L209.09973 310.98126Q209.97473 310.5594 210.63098 309.98126Q211.30286 309.3875 211.5841 308.825L212.25598 308.825L212.25598 317.45ZM215.88098 317.45L215.88098 316.2469L217.0841 316.2469L217.0841 317.45L215.88098 317.45ZM223.8341 316.4344L223.8341 317.45L218.1466 317.45Q218.1466 317.075 218.2716 316.71564Q218.49036 316.1375 218.9591 315.575Q219.44348 315.0125 220.34973 314.27814Q221.75598 313.1219 222.24036 312.45Q222.74036 311.77814 222.74036 311.1844Q222.74036 310.5594 222.28723 310.1375Q221.8341 309.7 221.11536 309.7Q220.34973 309.7 219.8966 310.15314Q219.44348 310.60626 219.42786 311.41876L218.34973 311.3094Q218.4591 310.09064 219.17786 309.46564Q219.91223 308.825 221.1466 308.825Q222.38098 308.825 223.09973 309.5125Q223.81848 310.2 223.81848 311.21564Q223.81848 311.73126 223.59973 312.23126Q223.3966 312.71564 222.8966 313.27814Q222.41223 313.825 221.28723 314.77814Q220.3341 315.575 220.05286 315.8719Q219.78723 316.15314 219.61536 316.4344L223.8341 316.4344ZM228.66223 317.45L228.66223 315.3875L224.94348 315.3875L224.94348 314.41876L228.86536 308.85626L229.72473 308.85626L229.72473 314.41876L230.88098 314.41876L230.88098 315.3875L229.72473 315.3875L229.72473 317.45L228.66223 317.45ZM228.66223 314.41876L228.66223 310.5594L225.97473 314.41876L228.66223 314.41876ZM232.88098 317.45L232.88098 316.2469L234.0841 316.2469L234.0841 317.45L232.88098 317.45ZM239.25598 317.45L238.2091 317.45L238.2091 310.73126Q237.81848 311.09064 237.19348 311.46564Q236.5841 311.825 236.09973 311.9969L236.09973 310.98126Q236.97473 310.5594 237.63098 309.98126Q238.30286 309.3875 238.5841 308.825L239.25598 308.825L239.25598 317.45Z" fill-rule="nonzero"/><path fill="#000000" d="M374.7284 317.45L372.36902 311.23126L373.4784 311.23126L374.82214 314.95Q375.02527 315.5594 375.21277 316.2Q375.3534 315.71564 375.6034 315.02814L376.99402 311.23126L378.07214 311.23126L375.71277 317.45L374.7284 317.45ZM381.68152 317.45L380.63464 317.45L380.63464 310.73126Q380.24402 311.09064 379.61902 311.46564Q379.00964 311.825 378.52527 311.9969L378.52527 310.98126Q379.40027 310.5594 380.05652 309.98126Q380.7284 309.3875 381.00964 308.825L381.68152 308.825L381.68152 317.45ZM385.30652 317.45L385.30652 316.2469L386.50964 316.2469L386.50964 317.45L385.30652 317.45ZM393.25964 316.4344L393.25964 317.45L387.57214 317.45Q387.57214 317.075 387.69714 316.71564Q387.9159 316.1375 388.38464 315.575Q388.86902 315.0125 389.77527 314.27814Q391.18152 313.1219 391.6659 312.45Q392.1659 311.77814 392.1659 311.1844Q392.1659 310.5594 391.71277 310.1375Q391.25964 309.7 390.5409 309.7Q389.77527 309.7 389.32214 310.15314Q388.86902 310.60626 388.8534 311.41876L387.77527 311.3094Q387.88464 310.09064 388.6034 309.46564Q389.33777 308.825 390.57214 308.825Q391.80652 308.825 392.52527 309.5125Q393.24402 310.2 393.24402 311.21564Q393.24402 311.73126 393.02527 312.23126Q392.82214 312.71564 392.32214 313.27814Q391.83777 313.825 390.71277 314.77814Q389.75964 315.575 389.4784 315.8719Q389.21277 316.15314 389.0409 316.4344L393.25964 316.4344ZM398.08777 317.45L398.08777 315.3875L394.36902 315.3875L394.36902 314.41876L398.2909 308.85626L399.15027 308.85626L399.15027 314.41876L400.30652 314.41876L400.30652 315.3875L399.15027 315.3875L399.15027 317.45L398.08777 317.45ZM398.08777 314.41876L398.08777 310.5594L395.40027 314.41876L398.08777 314.41876ZM402.30652 317.45L402.30652 316.2469L403.50964 316.2469L403.50964 317.45L402.30652 317.45ZM408.68152 317.45L407.63464 317.45L407.63464 310.73126Q407.24402 311.09064 406.61902 311.46564Q406.00964 311.825 405.52527 311.9969L405.52527 310.98126Q406.40027 310.5594 407.05652 309.98126Q407.7284 309.3875 408.00964 308.825L408.68152 308.825L408.68152 317.45ZM411.58777 314.8719L411.58777 313.8094L414.83777 313.8094L414.83777 314.8719L411.58777 314.8719ZM419.68152 317.45L418.63464 317.45L418.63464 310.73126Q418.24402 311.09064 417.61902 311.46564Q417.00964 311.825 416.52527 311.9969L416.52527 310.98126Q417.40027 310.5594 418.05652 309.98126Q418.7284 309.3875 419.00964 308.825L419.68152 308.825L419.68152 317.45ZM426.68152 317.45L425.63464 317.45L425.63464 310.73126Q425.24402 311.09064 424.61902 311.46564Q424.00964 311.825 423.52527 311.9969L423.52527 310.98126Q424.40027 310.5594 425.05652 309.98126Q425.7284 309.3875 426.00964 308.825L426.68152 308.825L426.68152 317.45ZM429.58777 314.8719L429.58777 313.8094L432.83777 313.8094L432.83777 314.8719L429.58777 314.8719ZM433.80652 317.96564L434.83777 318.1219Q434.90027 318.59064 435.19714 318.8094Q435.58777 319.10626 436.25964 319.10626Q436.99402 319.10626 437.38464 318.8094Q437.7909 318.5125 437.93152 317.9969Q438.02527 317.66876 438.00964 316.6375Q437.32214 317.45 436.2909 317.45Q435.00964 317.45 434.30652 316.52814Q433.6034 315.59064 433.6034 314.3094Q433.6034 313.41876 433.9159 312.66876Q434.24402 311.90314 434.8534 311.4969Q435.46277 311.09064 436.2909 311.09064Q437.40027 311.09064 438.11902 311.98126L438.11902 311.23126L439.08777 311.23126L439.08777 316.60626Q439.08777 318.0594 438.7909 318.66876Q438.49402 319.27814 437.8534 319.6219Q437.21277 319.98126 436.27527 319.98126Q435.1659 319.98126 434.4784 319.48126Q433.7909 318.98126 433.80652 317.96564ZM434.68152 314.23126Q434.68152 315.45 435.1659 316.0125Q435.65027 316.575 436.38464 316.575Q437.11902 316.575 437.6034 316.0125Q438.1034 315.45 438.1034 314.2625Q438.1034 313.1219 437.58777 312.54376Q437.08777 311.96564 436.36902 311.96564Q435.6659 311.96564 435.1659 312.54376Q434.68152 313.10626 434.68152 314.23126ZM440.77527 309.98126L440.77527 308.96564L446.33777 308.96564L446.33777 309.79376Q445.52527 310.66876 444.71277 312.1219Q443.9159 313.5594 443.4784 315.09064Q443.15027 316.16876 443.07214 317.45L441.9784 317.45Q441.99402 316.4344 442.36902 314.9969Q442.75964 313.5594 443.46277 312.23126Q444.18152 310.90314 444.99402 309.98126L440.77527 309.98126ZM452.07214 316.6844Q451.4784 317.1844 450.93152 317.3875Q450.40027 317.59064 449.77527 317.59064Q448.74402 317.59064 448.19714 317.09064Q447.65027 316.59064 447.65027 315.8094Q447.65027 315.35626 447.8534 314.98126Q448.05652 314.59064 448.40027 314.3719Q448.74402 314.1375 449.1659 314.02814Q449.46277 313.9344 450.1034 313.85626Q451.36902 313.71564 451.9784 313.4969Q451.9784 313.27814 451.9784 313.23126Q451.9784 312.575 451.68152 312.3094Q451.27527 311.96564 450.4784 311.96564Q449.74402 311.96564 449.38464 312.23126Q449.02527 312.48126 448.8534 313.1375L447.82214 312.9969Q447.96277 312.34064 448.2909 311.9344Q448.61902 311.52814 449.2284 311.3094Q449.83777 311.09064 450.63464 311.09064Q451.43152 311.09064 451.93152 311.27814Q452.43152 311.46564 452.6659 311.7469Q452.90027 312.02814 452.99402 312.46564Q453.0409 312.73126 453.0409 313.4344L453.0409 314.84064Q453.0409 316.3094 453.1034 316.7Q453.18152 317.09064 453.38464 317.45L452.27527 317.45Q452.11902 317.1219 452.07214 316.6844ZM451.9784 314.325Q451.40027 314.5594 450.25964 314.73126Q449.6034 314.825 449.33777 314.95Q449.07214 315.0594 448.9159 315.27814Q448.77527 315.4969 448.77527 315.77814Q448.77527 316.2 449.08777 316.48126Q449.4159 316.7625 450.02527 316.7625Q450.63464 316.7625 451.1034 316.4969Q451.58777 316.23126 451.80652 315.7625Q451.9784 315.40314 451.9784 314.71564L451.9784 314.325ZM454.71277 313.21564Q454.71277 311.6844 455.02527 310.7625Q455.33777 309.825 455.94714 309.325Q456.57214 308.825 457.50964 308.825Q458.19714 308.825 458.71277 309.10626Q459.24402 309.3875 459.58777 309.91876Q459.93152 310.4344 460.11902 311.1844Q460.30652 311.9344 460.30652 313.21564Q460.30652 314.73126 459.99402 315.65314Q459.69714 316.575 459.07214 317.09064Q458.46277 317.59064 457.50964 317.59064Q456.27527 317.59064 455.55652 316.7Q454.71277 315.6375 454.71277 313.21564ZM455.7909 313.21564Q455.7909 315.325 456.2909 316.02814Q456.7909 316.73126 457.50964 316.73126Q458.24402 316.73126 458.7284 316.02814Q459.2284 315.325 459.2284 313.21564Q459.2284 311.09064 458.7284 310.40314Q458.24402 309.7 457.49402 309.7Q456.77527 309.7 456.33777 310.3094Q455.7909 311.09064 455.7909 313.21564ZM466.07214 315.16876L467.1034 315.3094Q466.93152 316.3719 466.2284 316.98126Q465.52527 317.59064 464.50964 317.59064Q463.2284 317.59064 462.44714 316.7625Q461.68152 315.91876 461.68152 314.35626Q461.68152 313.35626 462.00964 312.60626Q462.3534 311.84064 463.02527 311.46564Q463.71277 311.09064 464.52527 311.09064Q465.52527 311.09064 466.1659 311.60626Q466.82214 312.10626 467.00964 313.0594L465.9784 313.21564Q465.83777 312.59064 465.46277 312.27814Q465.08777 311.95 464.55652 311.95Q463.75964 311.95 463.25964 312.52814Q462.75964 313.09064 462.75964 314.325Q462.75964 315.59064 463.24402 316.15314Q463.7284 316.71564 464.49402 316.71564Q465.11902 316.71564 465.52527 316.34064Q465.94714 315.96564 466.07214 315.16876ZM467.71277 313.21564Q467.71277 311.6844 468.02527 310.7625Q468.33777 309.825 468.94714 309.325Q469.57214 308.825 470.50964 308.825Q471.19714 308.825 471.71277 309.10626Q472.24402 309.3875 472.58777 309.91876Q472.93152 310.4344 473.11902 311.1844Q473.30652 311.9344 473.30652 313.21564Q473.30652 314.73126 472.99402 315.65314Q472.69714 316.575 472.07214 317.09064Q471.46277 317.59064 470.50964 317.59064Q469.27527 317.59064 468.55652 316.7Q467.71277 315.6375 467.71277 313.21564ZM468.7909 313.21564Q468.7909 315.325 469.2909 316.02814Q469.7909 316.73126 470.50964 316.73126Q471.24402 316.73126 471.7284 316.02814Q472.2284 315.325 472.2284 313.21564Q472.2284 311.09064 471.7284 310.40314Q471.24402 309.7 470.49402 309.7Q469.77527 309.7 469.33777 310.3094Q468.7909 311.09064 468.7909 313.21564ZM480.18152 310.96564L479.13464 311.04376Q478.99402 310.41876 478.74402 310.1375Q478.30652 309.6844 477.68152 309.6844Q477.18152 309.6844 476.7909 309.96564Q476.30652 310.34064 476.00964 311.04376Q475.7284 311.73126 475.71277 313.0125Q476.08777 312.4344 476.63464 312.15314Q477.19714 311.8719 477.80652 311.8719Q478.8534 311.8719 479.58777 312.65314Q480.33777 313.4344 480.33777 314.65314Q480.33777 315.46564 479.9784 316.16876Q479.63464 316.85626 479.02527 317.23126Q478.4159 317.59064 477.65027 317.59064Q476.32214 317.59064 475.49402 316.6219Q474.6659 315.65314 474.6659 313.4344Q474.6659 310.9344 475.58777 309.8094Q476.38464 308.825 477.74402 308.825Q478.75964 308.825 479.40027 309.40314Q480.05652 309.96564 480.18152 310.96564ZM475.88464 314.66876Q475.88464 315.21564 476.1034 315.71564Q476.33777 316.2 476.74402 316.46564Q477.1659 316.73126 477.63464 316.73126Q478.2909 316.73126 478.77527 316.2Q479.25964 315.65314 479.25964 314.73126Q479.25964 313.84064 478.77527 313.325Q478.30652 312.8094 477.58777 312.8094Q476.86902 312.8094 476.36902 313.325Q475.88464 313.84064 475.88464 314.66876ZM486.07214 315.16876L487.1034 315.3094Q486.93152 316.3719 486.2284 316.98126Q485.52527 317.59064 484.50964 317.59064Q483.2284 317.59064 482.44714 316.7625Q481.68152 315.91876 481.68152 314.35626Q481.68152 313.35626 482.00964 312.60626Q482.3534 311.84064 483.02527 311.46564Q483.71277 311.09064 484.52527 311.09064Q485.52527 311.09064 486.1659 311.60626Q486.82214 312.10626 487.00964 313.0594L485.9784 313.21564Q485.83777 312.59064 485.46277 312.27814Q485.08777 311.95 484.55652 311.95Q483.75964 311.95 483.25964 312.52814Q482.75964 313.09064 482.75964 314.325Q482.75964 315.59064 483.24402 316.15314Q483.7284 316.71564 484.49402 316.71564Q485.11902 316.71564 485.52527 316.34064Q485.94714 315.96564 486.07214 315.16876ZM492.0409 317.45L492.0409 316.66876Q491.44714 317.59064 490.30652 317.59064Q489.55652 317.59064 488.93152 317.1844Q488.30652 316.7625 487.96277 316.02814Q487.61902 315.29376 487.61902 314.34064Q487.61902 313.41876 487.93152 312.65314Q488.24402 311.8875 488.86902 311.4969Q489.49402 311.09064 490.25964 311.09064Q490.82214 311.09064 491.25964 311.325Q491.69714 311.5594 491.9784 311.9344L491.9784 308.85626L493.02527 308.85626L493.02527 317.45L492.0409 317.45ZM488.71277 314.34064Q488.71277 315.54376 489.21277 316.1375Q489.71277 316.71564 490.40027 316.71564Q491.08777 316.71564 491.57214 316.15314Q492.05652 315.59064 492.05652 314.4344Q492.05652 313.15314 491.55652 312.5594Q491.07214 311.96564 490.3534 311.96564Q489.65027 311.96564 489.18152 312.54376Q488.71277 313.10626 488.71277 314.34064ZM498.68152 317.45L497.63464 317.45L497.63464 310.73126Q497.24402 311.09064 496.61902 311.46564Q496.00964 311.825 495.52527 311.9969L495.52527 310.98126Q496.40027 310.5594 497.05652 309.98126Q497.7284 309.3875 498.00964 308.825L498.68152 308.825L498.68152 317.45Z" fill-rule="nonzero"/><path fill="#757575" d="M20.034374 37.55L20.034374 23.2375L22.89375 23.2375L26.26875 33.3625Q26.7375 34.784374 26.95625 35.4875Q27.20625 34.70625 27.721874 33.190624L31.14375 23.2375L33.690624 23.2375L33.690624 37.55L31.878124 37.55L31.878124 25.565624L27.70625 37.55L26.003124 37.55L21.8625 25.3625L21.8625 37.55L20.034374 37.55ZM36.784374 41.55L36.596874 39.89375Q37.175 40.05 37.596874 40.05Q38.190624 40.05 38.534374 39.846874Q38.89375 39.659374 39.1125 39.315624Q39.284374 39.05 39.659374 38.003124Q39.70625 37.846874 39.815624 37.565624L35.878124 27.175L37.76875 27.175L39.925 33.190624Q40.346874 34.33125 40.675 35.58125Q40.9875 34.378124 41.39375 33.221874L43.6125 27.175L45.378124 27.175L41.425 37.721874Q40.8 39.440624 40.440624 40.08125Q39.971874 40.95625 39.3625 41.346874Q38.76875 41.753124 37.925 41.753124Q37.409374 41.753124 36.784374 41.55ZM46.45625 32.95625L48.2375 32.8Q48.3625 33.8625 48.815624 34.55Q49.284374 35.2375 50.253124 35.675Q51.2375 36.096874 52.471874 36.096874Q53.55 36.096874 54.378124 35.784374Q55.20625 35.45625 55.6125 34.89375Q56.01875 34.33125 56.01875 33.659374Q56.01875 32.9875 55.628124 32.4875Q55.2375 31.9875 54.346874 31.64375Q53.76875 31.409374 51.784374 30.940624Q49.815624 30.471874 49.034374 30.05Q48.003124 29.51875 47.503124 28.721874Q47.003124 27.925 47.003124 26.940624Q47.003124 25.846874 47.6125 24.909374Q48.221874 23.971874 49.409374 23.4875Q50.596874 22.9875 52.034374 22.9875Q53.628124 22.9875 54.846874 23.503124Q56.065624 24.01875 56.70625 25.01875Q57.3625 26.003124 57.409374 27.26875L55.596874 27.409374Q55.45625 26.05 54.6125 25.3625Q53.76875 24.659374 52.1125 24.659374Q50.39375 24.659374 49.596874 25.3Q48.815624 25.925 48.815624 26.8Q48.815624 27.58125 49.378124 28.08125Q49.925 28.58125 52.2375 29.096874Q54.55 29.6125 55.409374 30.003124Q56.659374 30.58125 57.253124 31.471874Q57.846874 32.346874 57.846874 33.503124Q57.846874 34.64375 57.190624 35.659374Q56.534374 36.675 55.3 37.2375Q54.08125 37.8 52.55 37.8Q50.6125 37.8 49.3 37.2375Q47.9875 36.659374 47.2375 35.51875Q46.4875 34.378124 46.45625 32.95625ZM70.94063 36.01875Q72.26875 36.925 73.37813 37.346874L72.81563 38.659374Q71.26875 38.1125 69.7375 36.909374Q68.14375 37.8 66.22188 37.8Q64.28438 37.8 62.690624 36.8625Q61.1125 35.925 60.253124 34.221874Q59.409374 32.51875 59.409374 30.39375Q59.409374 28.26875 60.26875 26.534374Q61.128124 24.8 62.70625 23.89375Q64.3 22.971874 66.26875 22.971874Q68.25313 22.971874 69.83125 23.925Q71.425 24.8625 72.25313 26.565624Q73.09688 28.253124 73.09688 30.378124Q73.09688 32.14375 72.56563 33.565624Q72.03438 34.971874 70.94063 36.01875ZM66.76875 33.596874Q68.40938 34.05 69.47188 34.95625Q71.14375 33.440624 71.14375 30.378124Q71.14375 28.64375 70.55 27.346874Q69.97188 26.05 68.83125 25.33125Q67.69063 24.6125 66.26875 24.6125Q64.15938 24.6125 62.753124 26.065624Q61.3625 27.503124 61.3625 30.39375Q61.3625 33.190624 62.7375 34.690624Q64.12813 36.175 66.26875 36.175Q67.28438 36.175 68.19063 35.784374Q67.3 35.221874 66.31563 34.971874L66.76875 33.596874ZM76.01875 37.55L76.01875 23.2375L77.90938 23.2375L77.90938 35.8625L84.95625 35.8625L84.95625 37.55L76.01875 37.55ZM95.08125 29.784374Q93.9875 29.378124 93.45625 28.64375Q92.94063 27.89375 92.94063 26.8625Q92.94063 25.3 94.06563 24.2375Q95.19063 23.175 97.05 23.175Q98.925 23.175 100.06563 24.26875Q101.20625 25.346874 101.20625 26.909374Q101.20625 27.909374 100.675 28.64375Q100.15938 29.378124 99.09688 29.784374Q100.425 30.221874 101.1125 31.175Q101.8 32.128124 101.8 33.45625Q101.8 35.3 100.4875 36.55Q99.19063 37.8 97.08125 37.8Q94.95625 37.8 93.65938 36.55Q92.3625 35.284374 92.3625 33.409374Q92.3625 32.01875 93.06563 31.08125Q93.78438 30.128124 95.08125 29.784374ZM94.7375 26.8Q94.7375 27.815624 95.39375 28.471874Q96.05 29.1125 97.08125 29.1125Q98.09688 29.1125 98.75313 28.471874Q99.40938 27.83125 99.40938 26.909374Q99.40938 25.940624 98.7375 25.284374Q98.06563 24.6125 97.06563 24.6125Q96.06563 24.6125 95.39375 25.26875Q94.7375 25.909374 94.7375 26.8ZM94.175 33.425Q94.175 34.175 94.51875 34.878124Q94.87813 35.58125 95.58125 35.971874Q96.28438 36.346874 97.09688 36.346874Q98.3625 36.346874 99.175 35.534374Q100.00313 34.721874 100.00313 33.471874Q100.00313 32.20625 99.15938 31.378124Q98.31563 30.55 97.03438 30.55Q95.8 30.55 94.9875 31.378124Q94.175 32.190624 94.175 33.425ZM104.3625 37.55L104.3625 35.55L106.3625 35.55L106.3625 37.55L104.3625 37.55ZM109.37813 30.4875Q109.37813 27.95625 109.89375 26.409374Q110.425 24.846874 111.45625 24.01875Q112.4875 23.175 114.05 23.175Q115.20625 23.175 116.06563 23.64375Q116.94063 24.096874 117.50313 24.971874Q118.06563 25.846874 118.39375 27.1125Q118.72188 28.3625 118.72188 30.4875Q118.72188 33.003124 118.19063 34.55Q117.675 36.096874 116.64375 36.95625Q115.62813 37.8 114.05 37.8Q111.97188 37.8 110.8 36.315624Q109.37813 34.51875 109.37813 30.4875ZM111.19063 30.4875Q111.19063 34.01875 112.00313 35.190624Q112.83125 36.346874 114.05 36.346874Q115.25313 36.346874 116.08125 35.175Q116.90938 34.003124 116.90938 30.4875Q116.90938 26.95625 116.08125 25.8Q115.25313 24.628124 114.03438 24.628124Q112.81563 24.628124 112.09688 25.659374Q111.19063 26.95625 111.19063 30.4875ZM126.87813 25.253124L126.87813 23.2375L128.64375 23.2375L128.64375 25.253124L126.87813 25.253124ZM126.87813 37.55L126.87813 27.175L128.64375 27.175L128.64375 37.55L126.87813 37.55ZM130.8625 37.55L130.8625 27.175L132.44063 27.175L132.44063 28.628124Q132.925 27.878124 133.7375 27.409374Q134.55 26.940624 135.58125 26.940624Q136.7375 26.940624 137.47188 27.425Q138.20625 27.89375 138.51875 28.753124Q139.75313 26.940624 141.72188 26.940624Q143.26875 26.940624 144.09688 27.8Q144.925 28.659374 144.925 30.425L144.925 37.55L143.175 37.55L143.175 31.01875Q143.175 29.95625 143.00313 29.503124Q142.83125 29.034374 142.37813 28.753124Q141.94063 28.471874 141.33125 28.471874Q140.2375 28.471874 139.50313 29.20625Q138.78438 29.925 138.78438 31.51875L138.78438 37.55L137.03438 37.55L137.03438 30.815624Q137.03438 29.64375 136.59688 29.065624Q136.175 28.471874 135.19063 28.471874Q134.45625 28.471874 133.81563 28.8625Q133.19063 29.253124 132.90938 30.003124Q132.62813 30.753124 132.62813 32.175L132.62813 37.55L130.8625 37.55ZM146.8625 41.51875L146.8625 27.175L148.47188 27.175L148.47188 28.51875Q149.03438 27.7375 149.7375 27.346874Q150.45625 26.940624 151.47188 26.940624Q152.8 26.940624 153.81563 27.628124Q154.83125 28.315624 155.34688 29.565624Q155.87813 30.8 155.87813 32.284374Q155.87813 33.878124 155.3 35.159374Q154.7375 36.425 153.64375 37.1125Q152.55 37.784374 151.34688 37.784374Q150.47188 37.784374 149.76875 37.409374Q149.08125 37.034374 148.62813 36.471874L148.62813 41.51875L146.8625 41.51875ZM148.45625 32.425Q148.45625 34.425 149.26875 35.378124Q150.08125 36.33125 151.2375 36.33125Q152.40938 36.33125 153.2375 35.346874Q154.08125 34.3625 154.08125 32.26875Q154.08125 30.3 153.25313 29.315624Q152.44063 28.315624 151.31563 28.315624Q150.19063 28.315624 149.31563 29.378124Q148.45625 30.425 148.45625 32.425ZM157.22188 32.3625Q157.22188 29.4875 158.81563 28.096874Q160.15938 26.940624 162.08125 26.940624Q164.22188 26.940624 165.56563 28.346874Q166.925 29.753124 166.925 32.221874Q166.925 34.221874 166.33125 35.378124Q165.7375 36.51875 164.58125 37.159374Q163.44063 37.784374 162.08125 37.784374Q159.89375 37.784374 158.55 36.39375Q157.22188 34.9875 157.22188 32.3625ZM159.01875 32.3625Q159.01875 34.3625 159.87813 35.346874Q160.75313 36.33125 162.08125 36.33125Q163.39375 36.33125 164.25313 35.346874Q165.12813 34.346874 165.12813 32.3Q165.12813 30.378124 164.25313 29.39375Q163.37813 28.39375 162.08125 28.39375Q160.75313 28.39375 159.87813 29.39375Q159.01875 30.378124 159.01875 32.3625ZM168.84688 37.55L168.84688 27.175L170.425 27.175L170.425 28.753124Q171.03438 27.64375 171.55 27.3Q172.06563 26.940624 172.675 26.940624Q173.56563 26.940624 174.4875 27.503124L173.87813 29.14375Q173.2375 28.753124 172.59688 28.753124Q172.01875 28.753124 171.55 29.1125Q171.09688 29.45625 170.89375 30.065624Q170.6125 31.003124 170.6125 32.1125L170.6125 37.55L168.84688 37.55ZM179.70625 35.971874L179.95625 37.534374Q179.22188 37.690624 178.62813 37.690624Q177.675 37.690624 177.14375 37.39375Q176.62813 37.08125 176.40938 36.596874Q176.19063 36.096874 176.19063 34.51875L176.19063 28.55L174.90938 28.55L174.90938 27.175L176.19063 27.175L176.19063 24.6125L177.94063 23.55L177.94063 27.175L179.70625 27.175L179.70625 28.55L177.94063 28.55L177.94063 34.6125Q177.94063 35.3625 178.03438 35.58125Q178.12813 35.784374 178.33125 35.925Q178.55 36.05 178.94063 36.05Q179.22188 36.05 179.70625 35.971874ZM181.19063 33.253124L181.19063 31.4875L186.58125 31.4875L186.58125 33.253124L181.19063 33.253124ZM195.59688 37.55L195.59688 36.2375Q194.6125 37.784374 192.69063 37.784374Q191.45625 37.784374 190.40938 37.096874Q189.37813 36.409374 188.8 35.190624Q188.2375 33.971874 188.2375 32.378124Q188.2375 30.815624 188.75313 29.55Q189.26875 28.284374 190.3 27.6125Q191.34688 26.940624 192.6125 26.940624Q193.55 26.940624 194.28438 27.346874Q195.01875 27.7375 195.4875 28.3625L195.4875 23.2375L197.22188 23.2375L197.22188 37.55L195.59688 37.55ZM190.03438 32.378124Q190.03438 34.3625 190.87813 35.346874Q191.72188 36.33125 192.8625 36.33125Q194.01875 36.33125 194.81563 35.39375Q195.62813 34.45625 195.62813 32.51875Q195.62813 30.39375 194.8 29.39375Q193.9875 28.39375 192.78438 28.39375Q191.6125 28.39375 190.81563 29.3625Q190.03438 30.315624 190.03438 32.378124ZM201.4875 37.55L199.8625 37.55L199.8625 23.2375L201.6125 23.2375L201.6125 28.346874Q202.7375 26.940624 204.45625 26.940624Q205.40938 26.940624 206.26875 27.33125Q207.12813 27.721874 207.675 28.425Q208.22188 29.1125 208.53438 30.096874Q208.84688 31.08125 208.84688 32.20625Q208.84688 34.878124 207.53438 36.33125Q206.22188 37.784374 204.37813 37.784374Q202.53438 37.784374 201.4875 36.253124L201.4875 37.55ZM201.47188 32.284374Q201.47188 34.14375 201.97188 34.9875Q202.81563 36.33125 204.22188 36.33125Q205.37813 36.33125 206.20625 35.33125Q207.05 34.33125 207.05 32.346874Q207.05 30.315624 206.2375 29.3625Q205.44063 28.39375 204.3 28.39375Q203.14375 28.39375 202.3 29.39375Q201.47188 30.39375 201.47188 32.284374ZM223.97188 34.20625L225.78438 34.440624Q225.3625 36.01875 224.19063 36.909374Q223.03438 37.784374 221.22188 37.784374Q218.95625 37.784374 217.6125 36.39375Q216.28438 34.9875 216.28438 32.45625Q216.28438 29.83125 217.62813 28.39375Q218.97188 26.940624 221.12813 26.940624Q223.20625 26.940624 224.51875 28.3625Q225.84688 29.76875 225.84688 32.346874Q225.84688 32.503124 225.83125 32.815624L218.09688 32.815624Q218.19063 34.51875 219.06563 35.425Q219.94063 36.33125 221.2375 36.33125Q222.20625 36.33125 222.87813 35.83125Q223.56563 35.315624 223.97188 34.20625ZM218.19063 31.3625L223.9875 31.3625Q223.87813 30.065624 223.33125 29.409374Q222.4875 28.39375 221.14375 28.39375Q219.94063 28.39375 219.1125 29.20625Q218.28438 30.003124 218.19063 31.3625ZM227.83125 37.55L227.83125 23.2375L229.58125 23.2375L229.58125 37.55L227.83125 37.55ZM238.64375 36.26875Q237.65938 37.096874 236.75313 37.440624Q235.84688 37.784374 234.81563 37.784374Q233.1125 37.784374 232.19063 36.95625Q231.26875 36.1125 231.26875 34.815624Q231.26875 34.05 231.6125 33.425Q231.97188 32.8 232.53438 32.425Q233.09688 32.034374 233.8 31.83125Q234.31563 31.70625 235.3625 31.565624Q237.4875 31.315624 238.4875 30.971874Q238.50313 30.6125 238.50313 30.503124Q238.50313 29.440624 238.00313 28.9875Q237.33125 28.39375 236.00313 28.39375Q234.75313 28.39375 234.15938 28.83125Q233.58125 29.26875 233.3 30.378124L231.58125 30.14375Q231.81563 29.034374 232.34688 28.3625Q232.87813 27.675 233.89375 27.315624Q234.90938 26.940624 236.25313 26.940624Q237.58125 26.940624 238.40938 27.253124Q239.2375 27.565624 239.62813 28.05Q240.01875 28.51875 240.175 29.2375Q240.26875 29.690624 240.26875 30.8625L240.26875 33.20625Q240.26875 35.659374 240.37813 36.315624Q240.4875 36.95625 240.83125 37.55L238.9875 37.55Q238.72188 37.003124 238.64375 36.26875ZM238.4875 32.346874Q237.53438 32.7375 235.6125 33.003124Q234.53438 33.159374 234.08125 33.3625Q233.64375 33.55 233.39375 33.925Q233.14375 34.3 233.14375 34.76875Q233.14375 35.471874 233.675 35.940624Q234.20625 36.409374 235.2375 36.409374Q236.25313 36.409374 237.03438 35.971874Q237.83125 35.51875 238.20625 34.753124Q238.4875 34.14375 238.4875 32.9875L238.4875 32.346874ZM242.8625 41.51875L242.8625 27.175L244.47188 27.175L244.47188 28.51875Q245.03438 27.7375 245.7375 27.346874Q246.45625 26.940624 247.47188 26.940624Q248.8 26.940624 249.81563 27.628124Q250.83125 28.315624 251.34688 29.565624Q251.87813 30.8 251.87813 32.284374Q251.87813 33.878124 251.3 35.159374Q250.7375 36.425 249.64375 37.1125Q248.55 37.784374 247.34688 37.784374Q246.47188 37.784374 245.76875 37.409374Q245.08125 37.034374 244.62813 36.471874L244.62813 41.51875L242.8625 41.51875ZM244.45625 32.425Q244.45625 34.425 245.26875 35.378124Q246.08125 36.33125 247.2375 36.33125Q248.40938 36.33125 249.2375 35.346874Q250.08125 34.3625 250.08125 32.26875Q250.08125 30.3 249.25313 29.315624Q248.44063 28.315624 247.31563 28.315624Q246.19063 28.315624 245.31563 29.378124Q244.45625 30.425 244.45625 32.425ZM253.15938 34.45625L254.90938 34.175Q255.05 35.221874 255.72188 35.784374Q256.39374 36.33125 257.59686 36.33125Q258.8 36.33125 259.3781 35.846874Q259.97186 35.346874 259.97186 34.690624Q259.97186 34.096874 259.45624 33.753124Q259.09686 33.51875 257.65936 33.159374Q255.72188 32.659374 254.97188 32.315624Q254.2375 31.95625 253.84688 31.33125Q253.45625 30.690624 253.45625 29.925Q253.45625 29.2375 253.76875 28.64375Q254.09688 28.05 254.64375 27.659374Q255.05 27.3625 255.75313 27.159374Q256.47186 26.940624 257.28436 26.940624Q258.5031 26.940624 259.425 27.3Q260.34686 27.64375 260.78436 28.253124Q261.22186 28.846874 261.39374 29.846874L259.675 30.08125Q259.55 29.284374 258.9875 28.846874Q258.425 28.39375 257.40936 28.39375Q256.1906 28.39375 255.675 28.8Q255.15938 29.190624 255.15938 29.721874Q255.15938 30.065624 255.37813 30.346874Q255.58125 30.628124 256.05 30.815624Q256.3156 30.909374 257.59686 31.253124Q259.47186 31.753124 260.20624 32.08125Q260.9406 32.39375 261.3625 33.003124Q261.78436 33.596874 261.78436 34.503124Q261.78436 35.378124 261.26874 36.159374Q260.7531 36.940624 259.78436 37.3625Q258.8156 37.784374 257.59686 37.784374Q255.58125 37.784374 254.51875 36.940624Q253.45625 36.096874 253.15938 34.45625ZM270.97186 34.20625L272.78436 34.440624Q272.3625 36.01875 271.1906 36.909374Q270.03436 37.784374 268.22186 37.784374Q265.95624 37.784374 264.6125 36.39375Q263.28436 34.9875 263.28436 32.45625Q263.28436 29.83125 264.6281 28.39375Q265.97186 26.940624 268.1281 26.940624Q270.20624 26.940624 271.51874 28.3625Q272.84686 29.76875 272.84686 32.346874Q272.84686 32.503124 272.83124 32.815624L265.09686 32.815624Q265.1906 34.51875 266.0656 35.425Q266.9406 36.33125 268.2375 36.33125Q269.20624 36.33125 269.8781 35.83125Q270.5656 35.315624 270.97186 34.20625ZM265.1906 31.3625L270.9875 31.3625Q270.8781 30.065624 270.33124 29.409374Q269.4875 28.39375 268.14374 28.39375Q266.9406 28.39375 266.1125 29.20625Q265.28436 30.003124 265.1906 31.3625ZM281.59686 37.55L281.59686 36.2375Q280.6125 37.784374 278.6906 37.784374Q277.45624 37.784374 276.40936 37.096874Q275.3781 36.409374 274.8 35.190624Q274.2375 33.971874 274.2375 32.378124Q274.2375 30.815624 274.7531 29.55Q275.26874 28.284374 276.3 27.6125Q277.34686 26.940624 278.6125 26.940624Q279.55 26.940624 280.28436 27.346874Q281.01874 27.7375 281.4875 28.3625L281.4875 23.2375L283.22186 23.2375L283.22186 37.55L281.59686 37.55ZM276.03436 32.378124Q276.03436 34.3625 276.8781 35.346874Q277.72186 36.33125 278.8625 36.33125Q280.01874 36.33125 280.8156 35.39375Q281.6281 34.45625 281.6281 32.51875Q281.6281 30.39375 280.8 29.39375Q279.9875 28.39375 278.78436 28.39375Q277.6125 28.39375 276.8156 29.3625Q276.03436 30.315624 276.03436 32.378124ZM284.2531 41.51875L284.2531 40.253124L295.89374 40.253124L295.89374 41.51875L284.2531 41.51875ZM300.70624 35.971874L300.95624 37.534374Q300.22186 37.690624 299.6281 37.690624Q298.675 37.690624 298.14374 37.39375Q297.6281 37.08125 297.40936 36.596874Q297.1906 36.096874 297.1906 34.51875L297.1906 28.55L295.90936 28.55L295.90936 27.175L297.1906 27.175L297.1906 24.6125L298.9406 23.55L298.9406 27.175L300.70624 27.175L300.70624 28.55L298.9406 28.55L298.9406 34.6125Q298.9406 35.3625 299.03436 35.58125Q299.1281 35.784374 299.33124 35.925Q299.55 36.05 299.9406 36.05Q300.22186 36.05 300.70624 35.971874ZM302.8781 25.253124L302.8781 23.2375L304.64374 23.2375L304.64374 25.253124L302.8781 25.253124ZM302.8781 37.55L302.8781 27.175L304.64374 27.175L304.64374 37.55L302.8781 37.55ZM306.8625 37.55L306.8625 27.175L308.4406 27.175L308.4406 28.628124Q308.925 27.878124 309.7375 27.409374Q310.55 26.940624 311.58124 26.940624Q312.7375 26.940624 313.47186 27.425Q314.20624 27.89375 314.51874 28.753124Q315.7531 26.940624 317.72186 26.940624Q319.26874 26.940624 320.09686 27.8Q320.925 28.659374 320.925 30.425L320.925 37.55L319.175 37.55L319.175 31.01875Q319.175 29.95625 319.0031 29.503124Q318.83124 29.034374 318.3781 28.753124Q317.9406 28.471874 317.33124 28.471874Q316.2375 28.471874 315.5031 29.20625Q314.78436 29.925 314.78436 31.51875L314.78436 37.55L313.03436 37.55L313.03436 30.815624Q313.03436 29.64375 312.59686 29.065624Q312.175 28.471874 311.1906 28.471874Q310.45624 28.471874 309.8156 28.8625Q309.1906 29.253124 308.90936 30.003124Q308.6281 30.753124 308.6281 32.175L308.6281 37.55L306.8625 37.55ZM329.97186 34.20625L331.78436 34.440624Q331.3625 36.01875 330.1906 36.909374Q329.03436 37.784374 327.22186 37.784374Q324.95624 37.784374 323.6125 36.39375Q322.28436 34.9875 322.28436 32.45625Q322.28436 29.83125 323.6281 28.39375Q324.97186 26.940624 327.1281 26.940624Q329.20624 26.940624 330.51874 28.3625Q331.84686 29.76875 331.84686 32.346874Q331.84686 32.503124 331.83124 32.815624L324.09686 32.815624Q324.1906 34.51875 325.0656 35.425Q325.9406 36.33125 327.2375 36.33125Q328.20624 36.33125 328.8781 35.83125Q329.5656 35.315624 329.97186 34.20625ZM324.1906 31.3625L329.9875 31.3625Q329.8781 30.065624 329.33124 29.409374Q328.4875 28.39375 327.14374 28.39375Q325.9406 28.39375 325.1125 29.20625Q324.28436 30.003124 324.1906 31.3625ZM334.3625 29.175L334.3625 27.175L336.3625 27.175L336.3625 29.175L334.3625 29.175ZM334.3625 37.55L334.3625 35.55L336.3625 35.55L336.3625 37.55L334.3625 37.55ZM348.7531 37.55L344.8 27.175L346.65936 27.175L348.89374 33.39375Q349.2531 34.39375 349.55 35.471874Q349.78436 34.659374 350.20624 33.503124L352.5031 27.175L354.3156 27.175L350.39374 37.55L348.7531 37.55ZM361.0031 37.55L359.2375 37.55L359.2375 26.346874Q358.6125 26.95625 357.58124 27.565624Q356.55 28.159374 355.72186 28.471874L355.72186 26.76875Q357.20624 26.08125 358.3 25.096874Q359.40936 24.096874 359.8625 23.175L361.0031 23.175L361.0031 37.55ZM366.3625 37.55L366.3625 35.55L368.3625 35.55L368.3625 37.55L366.3625 37.55ZM380.6125 35.8625L380.6125 37.55L371.15936 37.55Q371.14374 36.909374 371.3625 36.33125Q371.72186 35.3625 372.51874 34.425Q373.3156 33.4875 374.8156 32.253124Q377.15936 30.346874 377.97186 29.2375Q378.8 28.1125 378.8 27.1125Q378.8 26.065624 378.05 25.346874Q377.3 24.628124 376.09686 24.628124Q374.83124 24.628124 374.0656 25.39375Q373.3 26.159374 373.3 27.503124L371.4875 27.315624Q371.675 25.3 372.8781 24.2375Q374.09686 23.175 376.14374 23.175Q378.1906 23.175 379.39374 24.315624Q380.59686 25.45625 380.59686 27.14375Q380.59686 28.003124 380.2375 28.846874Q379.89374 29.675 379.08124 30.596874Q378.26874 31.503124 376.3781 33.1125Q374.78436 34.440624 374.33124 34.909374Q373.89374 35.378124 373.59686 35.8625L380.6125 35.8625ZM388.01874 37.55L388.01874 34.128124L381.8 34.128124L381.8 32.503124L388.33124 23.2375L389.76874 23.2375L389.76874 32.503124L391.70624 32.503124L391.70624 34.128124L389.76874 34.128124L389.76874 37.55L388.01874 37.55ZM388.01874 32.503124L388.01874 26.05L383.53436 32.503124L388.01874 32.503124ZM394.3625 37.55L394.3625 35.55L396.3625 35.55L396.3625 37.55L394.3625 37.55ZM406.0031 37.55L404.2375 37.55L404.2375 26.346874Q403.6125 26.95625 402.58124 27.565624Q401.55 28.159374 400.72186 28.471874L400.72186 26.76875Q402.20624 26.08125 403.3 25.096874Q404.40936 24.096874 404.8625 23.175L406.0031 23.175L406.0031 37.55ZM419.7531 37.55L415.8 27.175L417.65936 27.175L419.89374 33.39375Q420.2531 34.39375 420.55 35.471874Q420.78436 34.659374 421.20624 33.503124L423.5031 27.175L425.3156 27.175L421.39374 37.55L419.7531 37.55ZM425.15936 34.45625L426.90936 34.175Q427.05 35.221874 427.72186 35.784374Q428.39374 36.33125 429.59686 36.33125Q430.8 36.33125 431.3781 35.846874Q431.97186 35.346874 431.97186 34.690624Q431.97186 34.096874 431.45624 33.753124Q431.09686 33.51875 429.65936 33.159374Q427.72186 32.659374 426.97186 32.315624Q426.2375 31.95625 425.84686 31.33125Q425.45624 30.690624 425.45624 29.925Q425.45624 29.2375 425.76874 28.64375Q426.09686 28.05 426.64374 27.659374Q427.05 27.3625 427.7531 27.159374Q428.47186 26.940624 429.28436 26.940624Q430.5031 26.940624 431.425 27.3Q432.34686 27.64375 432.78436 28.253124Q433.22186 28.846874 433.39374 29.846874L431.675 30.08125Q431.55 29.284374 430.9875 28.846874Q430.425 28.39375 429.40936 28.39375Q428.1906 28.39375 427.675 28.8Q427.15936 29.190624 427.15936 29.721874Q427.15936 30.065624 427.3781 30.346874Q427.58124 30.628124 428.05 30.815624Q428.3156 30.909374 429.59686 31.253124Q431.47186 31.753124 432.20624 32.08125Q432.9406 32.39375 433.3625 33.003124Q433.78436 33.596874 433.78436 34.503124Q433.78436 35.378124 433.26874 36.159374Q432.7531 36.940624 431.78436 37.3625Q430.8156 37.784374 429.59686 37.784374Q427.58124 37.784374 426.51874 36.940624Q425.45624 36.096874 425.15936 34.45625ZM442.15936 37.55L442.15936 23.2375L444.05 23.2375L444.05 29.1125L451.4875 29.1125L451.4875 23.2375L453.3781 23.2375L453.3781 37.55L451.4875 37.55L451.4875 30.8L444.05 30.8L444.05 37.55L442.15936 37.55ZM455.1281 37.55L455.1281 23.2375L465.4875 23.2375L465.4875 24.925L457.03436 24.925L457.03436 29.3L464.9406 29.3L464.9406 30.9875L457.03436 30.9875L457.03436 35.8625L465.8156 35.8625L465.8156 37.55L455.1281 37.55ZM466.51874 37.55L472.01874 23.2375L474.0656 23.2375L479.925 37.55L477.76874 37.55L476.09686 33.20625L470.1125 33.20625L468.53436 37.55L466.51874 37.55ZM470.65936 31.675L475.5031 31.675L474.01874 27.70625Q473.33124 25.89375 473.0031 24.7375Q472.72186 26.1125 472.22186 27.471874L470.65936 31.675ZM481.09686 37.55L481.09686 23.2375L486.01874 23.2375Q487.6906 23.2375 488.58124 23.440624Q489.8 23.721874 490.675 24.45625Q491.8 25.425 492.3625 26.909374Q492.925 28.39375 492.925 30.315624Q492.925 31.940624 492.55 33.20625Q492.175 34.45625 491.5656 35.284374Q490.97186 36.1125 490.26874 36.596874Q489.5656 37.065624 488.5656 37.315624Q487.5656 37.55 486.2531 37.55L481.09686 37.55ZM482.9875 35.8625L486.05 35.8625Q487.45624 35.8625 488.2531 35.596874Q489.0656 35.33125 489.55 34.846874Q490.22186 34.175 490.59686 33.05Q490.97186 31.909374 490.97186 30.284374Q490.97186 28.034374 490.2375 26.83125Q489.5031 25.628124 488.4406 25.221874Q487.6906 24.925 486.0031 24.925L482.9875 24.925L482.9875 35.8625Z" fill-rule="nonzero"/></svg>