<svg xmlns="http://www.w3.org/2000/svg" xmlns:xlink="http://www.w3.org/1999/xlink" width="1200" zoomAndPan="magnify" viewBox="0 0 900 449.999984" height="600" preserveAspectRatio="xMidYMid meet" version="1.0"><defs><clipPath id="0f3de2e15d"><path d="M 311 182.808594 L 381 182.808594 L 381 267.558594 L 311 267.558594 Z M 311 182.808594 " clip-rule="nonzero"/></clipPath></defs><rect x="-90" width="1080" fill="#ffffff" y="-44.999998" height="539.99998" fill-opacity="1"/><rect x="-90" width="1080" fill="#e1ded8" y="-44.999998" height="539.99998" fill-opacity="1"/><g clip-path="url(#0f3de2e15d)"><path fill="#02a8e2" d="M 319.804688 190.714844 L 355.597656 190.714844 L 374.785156 209.992188 L 374.785156 240.382812 L 355.597656 259.652344 L 323.371094 259.652344 C 322.90625 259.117188 322.351562 258.695312 321.710938 258.394531 C 321.066406 258.09375 320.390625 257.9375 319.679688 257.921875 C 319.277344 257.925781 318.878906 257.976562 318.488281 258.078125 C 318.097656 258.179688 317.726562 258.328125 317.375 258.523438 C 317.019531 258.71875 316.695312 258.953125 316.402344 259.230469 C 316.109375 259.507812 315.855469 259.820312 315.636719 260.160156 C 315.421875 260.503906 315.253906 260.867188 315.128906 261.253906 C 315.003906 261.636719 314.929688 262.03125 314.902344 262.4375 C 314.875 262.839844 314.902344 263.242188 314.976562 263.640625 C 315.050781 264.039062 315.175781 264.421875 315.347656 264.789062 C 315.519531 265.152344 315.730469 265.492188 315.988281 265.804688 C 316.246094 266.117188 316.535156 266.394531 316.863281 266.632812 C 317.1875 266.871094 317.539062 267.066406 317.914062 267.214844 C 318.289062 267.367188 318.675781 267.46875 319.074219 267.519531 C 319.476562 267.570312 319.875 267.574219 320.277344 267.523438 C 320.675781 267.472656 321.0625 267.375 321.4375 267.226562 C 321.816406 267.078125 322.167969 266.886719 322.492188 266.648438 C 322.820312 266.414062 323.113281 266.140625 323.371094 265.828125 L 358.179688 265.828125 L 380.929688 242.976562 L 380.929688 207.390625 L 358.179688 184.539062 L 319.804688 184.539062 C 319.339844 184.003906 318.785156 183.582031 318.140625 183.28125 C 317.5 182.980469 316.824219 182.820312 316.117188 182.808594 C 315.800781 182.808594 315.488281 182.839844 315.179688 182.902344 C 314.871094 182.964844 314.570312 183.054688 314.28125 183.175781 C 313.988281 183.296875 313.710938 183.445312 313.449219 183.621094 C 313.1875 183.796875 312.945312 183.996094 312.722656 184.21875 C 312.5 184.445312 312.300781 184.6875 312.128906 184.949219 C 311.953125 185.214844 311.804688 185.492188 311.683594 185.785156 C 311.5625 186.074219 311.472656 186.375 311.410156 186.6875 C 311.351562 186.996094 311.320312 187.3125 311.320312 187.628906 C 311.320312 187.945312 311.351562 188.257812 311.410156 188.566406 C 311.472656 188.878906 311.5625 189.179688 311.683594 189.472656 C 311.804688 189.761719 311.953125 190.039062 312.128906 190.304688 C 312.300781 190.566406 312.5 190.808594 312.722656 191.035156 C 312.945312 191.257812 313.1875 191.457031 313.449219 191.632812 C 313.710938 191.808594 313.988281 191.957031 314.28125 192.078125 C 314.570312 192.199219 314.871094 192.289062 315.179688 192.351562 C 315.488281 192.414062 315.800781 192.445312 316.117188 192.445312 C 316.824219 192.433594 317.5 192.273438 318.140625 191.972656 C 318.785156 191.671875 319.339844 191.253906 319.804688 190.714844 Z M 316.117188 185.527344 C 316.375 185.523438 316.621094 185.570312 316.859375 185.667969 C 317.101562 185.761719 317.3125 185.902344 317.496094 186.082031 C 317.679688 186.265625 317.824219 186.472656 317.925781 186.710938 C 318.023438 186.949219 318.078125 187.199219 318.078125 187.457031 L 318.078125 187.488281 C 318.089844 187.75 318.050781 188 317.964844 188.246094 C 317.875 188.492188 317.742188 188.710938 317.566406 188.90625 C 317.390625 189.097656 317.183594 189.25 316.949219 189.363281 C 316.710938 189.472656 316.464844 189.535156 316.203125 189.546875 C 315.945312 189.558594 315.691406 189.519531 315.445312 189.433594 C 315.203125 189.34375 314.980469 189.210938 314.789062 189.035156 C 314.597656 188.859375 314.445312 188.652344 314.332031 188.417969 C 314.222656 188.179688 314.160156 187.929688 314.148438 187.667969 C 314.144531 187.609375 314.144531 187.546875 314.148438 187.488281 C 314.15625 187.226562 314.210938 186.980469 314.316406 186.742188 C 314.417969 186.507812 314.5625 186.296875 314.746094 186.113281 C 314.925781 185.933594 315.136719 185.789062 315.375 185.6875 C 315.609375 185.585938 315.859375 185.535156 316.117188 185.527344 Z M 319.804688 260.765625 C 320.0625 260.765625 320.316406 260.8125 320.554688 260.914062 C 320.796875 261.015625 321.011719 261.15625 321.195312 261.34375 C 321.378906 261.527344 321.523438 261.742188 321.621094 261.984375 C 321.722656 262.226562 321.773438 262.480469 321.773438 262.742188 C 321.773438 263.003906 321.722656 263.253906 321.621094 263.496094 C 321.523438 263.738281 321.378906 263.953125 321.195312 264.140625 C 321.011719 264.324219 320.796875 264.46875 320.554688 264.566406 C 320.316406 264.667969 320.0625 264.71875 319.804688 264.71875 C 319.542969 264.71875 319.289062 264.667969 319.050781 264.566406 C 318.808594 264.46875 318.59375 264.324219 318.410156 264.140625 C 318.226562 263.953125 318.085938 263.738281 317.984375 263.496094 C 317.882812 263.253906 317.835938 263.003906 317.835938 262.742188 C 317.832031 262.480469 317.875 262.230469 317.972656 261.992188 C 318.066406 261.75 318.203125 261.539062 318.382812 261.351562 C 318.5625 261.167969 318.773438 261.023438 319.011719 260.921875 C 319.246094 260.820312 319.496094 260.765625 319.753906 260.765625 Z M 319.804688 260.765625 " fill-opacity="1" fill-rule="evenodd"/></g><path fill="#02a8e2" d="M 353.132812 196.894531 L 307.382812 196.894531 L 307.382812 197.015625 C 306.941406 196.527344 306.421875 196.152344 305.820312 195.894531 C 305.21875 195.636719 304.589844 195.515625 303.9375 195.53125 C 303.730469 195.535156 303.527344 195.550781 303.328125 195.578125 C 303.125 195.605469 302.925781 195.648438 302.726562 195.699219 C 302.53125 195.753906 302.339844 195.820312 302.148438 195.898438 C 301.960938 195.976562 301.777344 196.066406 301.601562 196.167969 C 301.425781 196.269531 301.253906 196.382812 301.09375 196.507812 C 300.929688 196.632812 300.773438 196.765625 300.628906 196.90625 C 300.484375 197.050781 300.347656 197.203125 300.222656 197.363281 C 300.09375 197.523438 299.980469 197.691406 299.875 197.867188 C 299.769531 198.042969 299.675781 198.226562 299.59375 198.414062 C 299.511719 198.601562 299.441406 198.792969 299.382812 198.988281 C 299.324219 199.1875 299.28125 199.386719 299.246094 199.585938 C 299.214844 199.789062 299.195312 199.992188 299.1875 200.199219 C 299.183594 200.402344 299.1875 200.609375 299.207031 200.8125 C 299.226562 201.015625 299.257812 201.21875 299.304688 201.417969 C 299.347656 201.617188 299.40625 201.8125 299.476562 202.007812 C 299.546875 202.199219 299.628906 202.386719 299.722656 202.566406 C 299.816406 202.75 299.921875 202.925781 300.035156 203.09375 C 300.152344 203.261719 300.277344 203.421875 300.414062 203.574219 C 300.550781 203.726562 300.695312 203.871094 300.851562 204.003906 C 301.003906 204.140625 301.167969 204.261719 301.335938 204.375 C 301.507812 204.488281 301.683594 204.589844 301.867188 204.679688 C 302.050781 204.769531 302.238281 204.851562 302.429688 204.917969 C 302.625 204.984375 302.820312 205.035156 303.019531 205.078125 C 303.21875 205.117188 303.421875 205.148438 303.625 205.164062 C 303.828125 205.179688 304.03125 205.179688 304.234375 205.171875 C 304.441406 205.160156 304.640625 205.136719 304.84375 205.097656 C 305.042969 205.0625 305.242188 205.011719 305.4375 204.953125 C 305.628906 204.890625 305.820312 204.816406 306.003906 204.730469 C 306.191406 204.644531 306.371094 204.546875 306.542969 204.4375 C 306.714844 204.328125 306.878906 204.207031 307.039062 204.078125 C 307.195312 203.949219 307.34375 203.808594 307.484375 203.660156 C 307.625 203.511719 307.753906 203.351562 307.871094 203.1875 L 350.550781 203.1875 L 362.484375 215.167969 L 362.484375 235.304688 L 350.550781 247.292969 L 307.136719 247.292969 C 306.671875 246.753906 306.117188 246.335938 305.472656 246.035156 C 304.832031 245.730469 304.152344 245.574219 303.445312 245.5625 C 303.042969 245.5625 302.644531 245.613281 302.253906 245.714844 C 301.863281 245.816406 301.492188 245.964844 301.136719 246.160156 C 300.785156 246.355469 300.460938 246.59375 300.167969 246.871094 C 299.875 247.148438 299.617188 247.457031 299.402344 247.800781 C 299.1875 248.140625 299.015625 248.503906 298.890625 248.890625 C 298.765625 249.277344 298.691406 249.671875 298.667969 250.074219 C 298.640625 250.480469 298.664062 250.878906 298.742188 251.277344 C 298.816406 251.675781 298.941406 252.058594 299.109375 252.425781 C 299.28125 252.792969 299.496094 253.132812 299.753906 253.445312 C 300.007812 253.757812 300.300781 254.03125 300.625 254.273438 C 300.953125 254.511719 301.300781 254.703125 301.675781 254.855469 C 302.050781 255.003906 302.4375 255.105469 302.839844 255.15625 C 303.238281 255.210938 303.640625 255.210938 304.039062 255.160156 C 304.441406 255.113281 304.828125 255.011719 305.203125 254.867188 C 305.578125 254.71875 305.929688 254.523438 306.257812 254.289062 C 306.585938 254.050781 306.878906 253.777344 307.136719 253.464844 L 353.011719 253.464844 L 368.511719 237.902344 L 368.511719 212.460938 Z M 303.9375 198.378906 C 304.195312 198.375 304.449219 198.425781 304.6875 198.527344 C 304.929688 198.625 305.144531 198.769531 305.328125 198.953125 C 305.515625 199.136719 305.65625 199.351562 305.757812 199.59375 C 305.855469 199.835938 305.90625 200.089844 305.910156 200.351562 C 305.910156 200.613281 305.859375 200.863281 305.761719 201.105469 C 305.660156 201.351562 305.519531 201.5625 305.335938 201.75 C 305.152344 201.933594 304.9375 202.078125 304.695312 202.179688 C 304.457031 202.28125 304.207031 202.332031 303.945312 202.332031 C 303.683594 202.332031 303.433594 202.28125 303.191406 202.183594 C 302.949219 202.082031 302.734375 201.941406 302.550781 201.753906 C 302.367188 201.570312 302.222656 201.355469 302.121094 201.113281 C 302.023438 200.875 301.972656 200.621094 301.972656 200.359375 C 301.847656 199.242188 302.832031 198.378906 303.9375 198.378906 Z M 303.566406 248.296875 C 303.828125 248.296875 304.078125 248.347656 304.320312 248.445312 C 304.5625 248.546875 304.773438 248.691406 304.960938 248.875 C 305.144531 249.058594 305.285156 249.273438 305.386719 249.515625 C 305.484375 249.757812 305.535156 250.011719 305.535156 250.273438 C 305.535156 250.535156 305.484375 250.789062 305.386719 251.03125 C 305.285156 251.273438 305.144531 251.484375 304.960938 251.671875 C 304.773438 251.855469 304.5625 252 304.320312 252.101562 C 304.078125 252.199219 303.828125 252.25 303.566406 252.25 C 303.304688 252.25 303.054688 252.199219 302.8125 252.101562 C 302.574219 252 302.359375 251.855469 302.175781 251.671875 C 301.992188 251.484375 301.847656 251.273438 301.75 251.03125 C 301.648438 250.789062 301.597656 250.535156 301.597656 250.273438 C 301.476562 249.144531 302.460938 248.296875 303.566406 248.296875 Z M 303.566406 248.296875 " fill-opacity="1" fill-rule="evenodd"/><path fill="#02a8e2" d="M 346 240.875 L 290.410156 240.875 C 289.972656 241.320312 289.464844 241.660156 288.886719 241.898438 C 288.308594 242.132812 287.707031 242.242188 287.085938 242.230469 C 286.769531 242.230469 286.460938 242.199219 286.148438 242.140625 C 285.839844 242.078125 285.542969 241.984375 285.25 241.863281 C 284.960938 241.746094 284.683594 241.597656 284.421875 241.421875 C 284.160156 241.246094 283.917969 241.042969 283.695312 240.820312 C 283.472656 240.597656 283.273438 240.355469 283.097656 240.089844 C 282.921875 239.828125 282.773438 239.550781 282.65625 239.257812 C 282.535156 238.964844 282.441406 238.664062 282.382812 238.355469 C 282.320312 238.042969 282.289062 237.730469 282.289062 237.414062 C 282.289062 237.097656 282.320312 236.785156 282.382812 236.472656 C 282.441406 236.164062 282.535156 235.863281 282.65625 235.570312 C 282.773438 235.277344 282.921875 235 283.097656 234.738281 C 283.273438 234.472656 283.472656 234.230469 283.695312 234.007812 C 283.917969 233.785156 284.160156 233.582031 284.421875 233.40625 C 284.683594 233.230469 284.960938 233.082031 285.25 232.960938 C 285.542969 232.839844 285.839844 232.75 286.148438 232.6875 C 286.460938 232.625 286.769531 232.597656 287.085938 232.597656 C 287.871094 232.609375 288.613281 232.800781 289.304688 233.171875 C 290 233.542969 290.574219 234.050781 291.023438 234.695312 L 306.265625 234.695312 L 299.871094 228.269531 L 278.835938 228.269531 C 278.371094 228.808594 277.820312 229.230469 277.179688 229.535156 C 276.539062 229.835938 275.863281 229.996094 275.15625 230.011719 C 274.953125 230.011719 274.753906 230 274.554688 229.972656 C 274.355469 229.949219 274.160156 229.910156 273.964844 229.859375 C 273.769531 229.808594 273.578125 229.75 273.390625 229.675781 C 273.203125 229.601562 273.023438 229.515625 272.847656 229.417969 C 272.671875 229.320312 272.5 229.210938 272.339844 229.09375 C 272.175781 228.976562 272.019531 228.847656 271.875 228.710938 C 271.726562 228.570312 271.589844 228.425781 271.460938 228.269531 C 271.332031 228.113281 271.214844 227.953125 271.105469 227.78125 C 271 227.609375 270.902344 227.433594 270.816406 227.25 C 270.730469 227.070312 270.65625 226.882812 270.59375 226.691406 C 270.53125 226.5 270.480469 226.304688 270.441406 226.105469 C 270.40625 225.90625 270.378906 225.707031 270.367188 225.503906 C 270.351562 225.304688 270.351562 225.101562 270.363281 224.902344 C 270.375 224.699219 270.402344 224.5 270.4375 224.300781 C 270.476562 224.101562 270.523438 223.90625 270.585938 223.714844 C 270.648438 223.523438 270.722656 223.335938 270.808594 223.152344 C 270.890625 222.96875 270.988281 222.792969 271.09375 222.621094 C 271.203125 222.449219 271.320312 222.289062 271.449219 222.132812 C 271.574219 221.976562 271.710938 221.828125 271.859375 221.691406 C 272.003906 221.550781 272.160156 221.421875 272.320312 221.304688 C 272.484375 221.183594 272.652344 221.074219 272.828125 220.976562 C 273.003906 220.878906 273.183594 220.792969 273.371094 220.71875 C 273.558594 220.644531 273.75 220.582031 273.945312 220.53125 C 274.136719 220.480469 274.335938 220.441406 274.535156 220.414062 C 274.734375 220.390625 274.933594 220.375 275.136719 220.375 C 275.335938 220.375 275.535156 220.386719 275.734375 220.410156 C 275.933594 220.433594 276.132812 220.472656 276.328125 220.523438 C 276.523438 220.570312 276.714844 220.632812 276.902344 220.707031 C 277.085938 220.78125 277.269531 220.863281 277.445312 220.960938 C 277.621094 221.058594 277.792969 221.164062 277.957031 221.285156 C 278.117188 221.402344 278.273438 221.527344 278.421875 221.667969 C 278.566406 221.804688 278.707031 221.949219 278.835938 222.105469 L 302.460938 222.105469 L 315.128906 234.6875 L 345.386719 234.6875 L 349.957031 230.125 L 349.957031 220.34375 L 345.386719 215.792969 L 317.21875 215.792969 L 323.617188 222.21875 L 336.039062 222.21875 C 336.503906 221.683594 337.058594 221.261719 337.703125 220.960938 C 338.34375 220.660156 339.019531 220.503906 339.730469 220.488281 C 340.132812 220.492188 340.53125 220.542969 340.921875 220.644531 C 341.3125 220.742188 341.683594 220.890625 342.035156 221.089844 C 342.390625 221.285156 342.714844 221.519531 343.007812 221.796875 C 343.300781 222.074219 343.554688 222.386719 343.773438 222.726562 C 343.988281 223.070312 344.160156 223.433594 344.28125 223.820312 C 344.40625 224.203125 344.484375 224.597656 344.507812 225.003906 C 344.535156 225.40625 344.507812 225.808594 344.433594 226.207031 C 344.359375 226.605469 344.234375 226.988281 344.0625 227.355469 C 343.890625 227.71875 343.679688 228.058594 343.421875 228.371094 C 343.164062 228.683594 342.875 228.960938 342.546875 229.199219 C 342.222656 229.4375 341.871094 229.632812 341.496094 229.78125 C 341.121094 229.933594 340.734375 230.035156 340.335938 230.085938 C 339.9375 230.136719 339.535156 230.140625 339.136719 230.089844 C 338.734375 230.039062 338.347656 229.941406 337.972656 229.792969 C 337.597656 229.644531 337.246094 229.453125 336.917969 229.214844 C 336.589844 228.980469 336.296875 228.707031 336.039062 228.394531 L 321.035156 228.394531 L 308.46875 215.671875 L 291.882812 215.671875 C 291.417969 216.207031 290.863281 216.628906 290.222656 216.929688 C 289.578125 217.230469 288.902344 217.386719 288.195312 217.402344 C 287.792969 217.402344 287.394531 217.351562 287.003906 217.25 C 286.613281 217.148438 286.242188 217 285.890625 216.804688 C 285.535156 216.609375 285.210938 216.371094 284.917969 216.09375 C 284.625 215.816406 284.371094 215.507812 284.152344 215.167969 C 283.9375 214.824219 283.765625 214.460938 283.640625 214.074219 C 283.519531 213.691406 283.441406 213.296875 283.417969 212.890625 C 283.390625 212.488281 283.414062 212.085938 283.492188 211.6875 C 283.566406 211.289062 283.6875 210.90625 283.859375 210.542969 C 284.03125 210.175781 284.246094 209.835938 284.5 209.523438 C 284.757812 209.210938 285.046875 208.933594 285.375 208.695312 C 285.699219 208.457031 286.050781 208.261719 286.421875 208.109375 C 286.796875 207.960938 287.183594 207.859375 287.585938 207.808594 C 287.984375 207.753906 288.386719 207.753906 288.785156 207.800781 C 289.183594 207.851562 289.574219 207.949219 289.949219 208.097656 C 290.324219 208.242188 290.675781 208.4375 291.003906 208.671875 C 291.332031 208.910156 291.625 209.183594 291.882812 209.492188 L 347.96875 209.492188 L 356.210938 217.773438 L 356.210938 232.71875 L 347.96875 240.875 Z M 339.730469 223.082031 C 339.46875 223.082031 339.21875 223.132812 338.976562 223.234375 C 338.734375 223.335938 338.523438 223.476562 338.339844 223.664062 C 338.152344 223.847656 338.011719 224.0625 337.910156 224.304688 C 337.8125 224.546875 337.761719 224.796875 337.761719 225.0625 C 337.761719 225.324219 337.8125 225.574219 337.910156 225.816406 C 338.011719 226.058594 338.152344 226.273438 338.339844 226.460938 C 338.523438 226.644531 338.734375 226.789062 338.976562 226.886719 C 339.21875 226.988281 339.46875 227.039062 339.730469 227.039062 C 339.992188 227.039062 340.242188 226.988281 340.484375 226.886719 C 340.726562 226.789062 340.9375 226.644531 341.121094 226.460938 C 341.308594 226.273438 341.449219 226.058594 341.550781 225.816406 C 341.648438 225.574219 341.699219 225.324219 341.699219 225.0625 C 341.820312 224.058594 340.835938 223.082031 339.730469 223.082031 Z M 288.316406 210.484375 C 288.058594 210.484375 287.804688 210.535156 287.566406 210.632812 C 287.324219 210.734375 287.109375 210.878906 286.925781 211.0625 C 286.742188 211.25 286.597656 211.460938 286.5 211.703125 C 286.398438 211.945312 286.347656 212.199219 286.347656 212.460938 C 286.347656 212.722656 286.398438 212.976562 286.5 213.21875 C 286.597656 213.460938 286.742188 213.675781 286.925781 213.859375 C 287.109375 214.042969 287.324219 214.1875 287.566406 214.289062 C 287.804688 214.386719 288.058594 214.4375 288.316406 214.4375 C 288.578125 214.4375 288.832031 214.386719 289.070312 214.289062 C 289.3125 214.1875 289.523438 214.042969 289.710938 213.859375 C 289.894531 213.675781 290.035156 213.460938 290.136719 213.21875 C 290.238281 212.976562 290.285156 212.722656 290.285156 212.460938 C 290.28125 212.199219 290.226562 211.953125 290.121094 211.710938 C 290.019531 211.472656 289.878906 211.261719 289.695312 211.078125 C 289.511719 210.894531 289.300781 210.75 289.0625 210.648438 C 288.824219 210.546875 288.578125 210.492188 288.316406 210.484375 Z M 287.085938 235.4375 C 286.824219 235.4375 286.574219 235.488281 286.332031 235.585938 C 286.089844 235.6875 285.878906 235.832031 285.695312 236.015625 C 285.507812 236.203125 285.367188 236.414062 285.265625 236.65625 C 285.167969 236.898438 285.117188 237.152344 285.117188 237.414062 C 285.117188 237.675781 285.167969 237.929688 285.265625 238.171875 C 285.367188 238.414062 285.507812 238.625 285.695312 238.8125 C 285.878906 238.996094 286.089844 239.140625 286.332031 239.242188 C 286.574219 239.339844 286.824219 239.390625 287.085938 239.390625 C 287.347656 239.390625 287.597656 239.339844 287.839844 239.242188 C 288.082031 239.140625 288.292969 238.996094 288.476562 238.8125 C 288.664062 238.625 288.804688 238.414062 288.90625 238.171875 C 289.003906 237.929688 289.054688 237.675781 289.054688 237.414062 C 289.175781 236.304688 288.195312 235.4375 287.085938 235.4375 Z M 275.277344 223.082031 C 275.015625 223.082031 274.765625 223.132812 274.523438 223.234375 C 274.285156 223.335938 274.070312 223.476562 273.886719 223.664062 C 273.703125 223.847656 273.558594 224.0625 273.460938 224.304688 C 273.359375 224.546875 273.308594 224.796875 273.308594 225.0625 C 273.308594 225.324219 273.359375 225.574219 273.460938 225.816406 C 273.558594 226.058594 273.703125 226.273438 273.886719 226.460938 C 274.070312 226.644531 274.285156 226.789062 274.523438 226.886719 C 274.765625 226.988281 275.015625 227.039062 275.277344 227.039062 C 275.535156 227.042969 275.785156 226.996094 276.023438 226.898438 C 276.261719 226.800781 276.472656 226.664062 276.660156 226.484375 C 276.84375 226.304688 276.988281 226.09375 277.089844 225.855469 C 277.191406 225.617188 277.242188 225.371094 277.246094 225.113281 L 277.246094 225.0625 C 277.238281 224.800781 277.1875 224.550781 277.082031 224.3125 C 276.980469 224.074219 276.839844 223.863281 276.65625 223.679688 C 276.472656 223.496094 276.261719 223.351562 276.023438 223.25 C 275.785156 223.144531 275.539062 223.089844 275.277344 223.082031 Z M 275.277344 223.082031 " fill-opacity="1" fill-rule="evenodd"/><path fill="#1e2127" d="M 407.253906 211.222656 L 435.300781 211.222656 C 435.871094 211.226562 436.4375 211.285156 437 211.398438 C 437.5625 211.511719 438.105469 211.679688 438.636719 211.902344 C 439.164062 212.121094 439.667969 212.390625 440.140625 212.710938 C 440.617188 213.03125 441.058594 213.394531 441.464844 213.804688 C 441.867188 214.210938 442.230469 214.652344 442.546875 215.128906 C 442.867188 215.609375 443.136719 216.113281 443.355469 216.644531 C 443.578125 217.175781 443.742188 217.722656 443.855469 218.289062 C 443.96875 218.851562 444.027344 219.421875 444.027344 219.996094 L 444.027344 230.371094 C 444.027344 230.949219 443.96875 231.515625 443.855469 232.082031 C 443.742188 232.644531 443.578125 233.191406 443.355469 233.722656 C 443.136719 234.253906 442.867188 234.757812 442.546875 235.238281 C 442.230469 235.714844 441.867188 236.160156 441.464844 236.566406 C 441.058594 236.972656 440.617188 237.335938 440.140625 237.65625 C 439.667969 237.976562 439.164062 238.246094 438.636719 238.46875 C 438.105469 238.6875 437.5625 238.855469 437 238.96875 C 436.4375 239.085938 435.871094 239.140625 435.300781 239.144531 L 407.253906 239.144531 Z M 435.421875 203.6875 L 399.75 203.6875 L 399.75 246.804688 L 435.421875 246.804688 C 435.957031 246.800781 436.492188 246.773438 437.023438 246.71875 C 437.554688 246.664062 438.082031 246.582031 438.609375 246.476562 C 439.132812 246.367188 439.652344 246.238281 440.164062 246.078125 C 440.675781 245.921875 441.175781 245.738281 441.671875 245.535156 C 442.164062 245.328125 442.648438 245.097656 443.117188 244.84375 C 443.589844 244.585938 444.046875 244.3125 444.492188 244.011719 C 444.9375 243.714844 445.367188 243.394531 445.78125 243.050781 C 446.195312 242.710938 446.589844 242.351562 446.96875 241.96875 C 447.347656 241.589844 447.707031 241.191406 448.046875 240.777344 C 448.386719 240.363281 448.703125 239.929688 449 239.484375 C 449.300781 239.039062 449.574219 238.578125 449.828125 238.101562 C 450.082031 237.628906 450.308594 237.144531 450.515625 236.648438 C 450.722656 236.152344 450.902344 235.648438 451.058594 235.132812 C 451.214844 234.621094 451.347656 234.097656 451.453125 233.574219 C 451.558594 233.046875 451.640625 232.515625 451.695312 231.980469 C 451.75 231.445312 451.777344 230.910156 451.78125 230.371094 L 451.78125 219.996094 C 451.769531 218.921875 451.65625 217.863281 451.4375 216.8125 C 451.21875 215.761719 450.902344 214.742188 450.488281 213.753906 C 450.070312 212.765625 449.566406 211.828125 448.96875 210.9375 C 448.367188 210.050781 447.691406 209.226562 446.933594 208.472656 C 446.175781 207.714844 445.351562 207.039062 444.460938 206.445312 C 443.570312 205.851562 442.632812 205.351562 441.648438 204.941406 C 440.660156 204.53125 439.640625 204.21875 438.59375 204.007812 C 437.546875 203.796875 436.488281 203.691406 435.421875 203.6875 Z M 521.417969 221.351562 L 521.417969 246.679688 L 565.796875 246.679688 L 565.796875 239.027344 L 529.039062 239.027344 L 529.039062 229.015625 L 559.664062 229.015625 L 559.664062 221.359375 L 521.417969 221.359375 Z M 468.382812 211.222656 L 496.441406 211.222656 C 497.011719 211.226562 497.582031 211.285156 498.140625 211.398438 C 498.703125 211.511719 499.25 211.679688 499.777344 211.902344 C 500.304688 212.121094 500.808594 212.390625 501.285156 212.710938 C 501.761719 213.03125 502.199219 213.394531 502.605469 213.804688 C 503.011719 214.210938 503.371094 214.652344 503.691406 215.128906 C 504.011719 215.609375 504.28125 216.113281 504.5 216.644531 C 504.71875 217.175781 504.886719 217.722656 505 218.289062 C 505.113281 218.851562 505.171875 219.421875 505.175781 219.996094 L 505.175781 230.371094 C 505.171875 230.949219 505.113281 231.515625 505 232.082031 C 504.886719 232.644531 504.71875 233.191406 504.5 233.722656 C 504.28125 234.253906 504.011719 234.761719 503.691406 235.238281 C 503.371094 235.714844 503.011719 236.160156 502.605469 236.566406 C 502.199219 236.972656 501.761719 237.335938 501.285156 237.65625 C 500.808594 237.976562 500.304688 238.246094 499.777344 238.46875 C 499.25 238.6875 498.703125 238.855469 498.140625 238.96875 C 497.582031 239.085938 497.011719 239.140625 496.441406 239.144531 L 468.382812 239.144531 Z M 496.441406 203.6875 L 460.757812 203.6875 L 460.757812 246.804688 L 496.441406 246.804688 C 496.976562 246.800781 497.507812 246.773438 498.042969 246.71875 C 498.574219 246.664062 499.101562 246.582031 499.625 246.476562 C 500.152344 246.367188 500.667969 246.238281 501.179688 246.078125 C 501.691406 245.921875 502.195312 245.738281 502.6875 245.535156 C 503.183594 245.328125 503.664062 245.097656 504.136719 244.84375 C 504.609375 244.585938 505.066406 244.3125 505.511719 244.011719 C 505.957031 243.714844 506.386719 243.394531 506.796875 243.050781 C 507.210938 242.710938 507.609375 242.351562 507.988281 241.96875 C 508.363281 241.589844 508.722656 241.191406 509.0625 240.777344 C 509.402344 240.363281 509.722656 239.929688 510.019531 239.484375 C 510.316406 239.039062 510.59375 238.578125 510.847656 238.101562 C 511.097656 237.628906 511.328125 237.144531 511.535156 236.648438 C 511.738281 236.152344 511.921875 235.648438 512.078125 235.132812 C 512.234375 234.621094 512.367188 234.097656 512.472656 233.574219 C 512.578125 233.046875 512.660156 232.515625 512.714844 231.980469 C 512.769531 231.445312 512.796875 230.910156 512.796875 230.371094 L 512.796875 219.996094 C 512.796875 219.460938 512.765625 218.925781 512.710938 218.394531 C 512.65625 217.859375 512.574219 217.332031 512.46875 216.804688 C 512.363281 216.28125 512.230469 215.761719 512.070312 215.25 C 511.914062 214.738281 511.734375 214.234375 511.527344 213.742188 C 511.320312 213.246094 511.089844 212.765625 510.835938 212.292969 C 510.582031 211.820312 510.304688 211.363281 510.007812 210.917969 C 509.710938 210.476562 509.390625 210.046875 509.050781 209.632812 C 508.710938 209.222656 508.351562 208.824219 507.972656 208.449219 C 507.59375 208.070312 507.199219 207.714844 506.785156 207.375 C 506.371094 207.035156 505.941406 206.71875 505.496094 206.421875 C 505.050781 206.125 504.59375 205.851562 504.125 205.601562 C 503.652344 205.351562 503.171875 205.121094 502.675781 204.917969 C 502.183594 204.714844 501.679688 204.535156 501.171875 204.382812 C 500.660156 204.226562 500.140625 204.097656 499.617188 203.996094 C 499.09375 203.894531 498.566406 203.816406 498.035156 203.765625 C 497.503906 203.710938 496.972656 203.6875 496.441406 203.6875 Z M 573.914062 203.6875 L 597.40625 244.46875 L 598.636719 246.691406 L 604.785156 246.691406 L 606.140625 244.46875 L 629.632812 203.6875 L 620.777344 203.6875 L 601.726562 236.796875 L 582.671875 203.6875 Z M 573.914062 203.6875 " fill-opacity="1" fill-rule="evenodd"/><path fill="#02a8e2" d="M 521.417969 203.6875 L 565.816406 203.6875 L 565.816406 211.222656 L 521.417969 211.222656 Z M 521.417969 203.6875 " fill-opacity="1" fill-rule="evenodd"/></svg>